<?xml version="1.0"?>
<svg xmlns="http://www.w3.org/2000/svg" version="1.2" baseProfile="tiny" width="800" height="454" viewBox="0 0 800 454" stroke-linecap="round" stroke-linejoin="round">
<g id="94">
<path d="M 266.71 353.03 272.49 352.27 275.73 351.72 278.67 351.71 278.36 350.95 278.39 348.27 281.84 348.18 281.9 348.18 282.01 348.19 283.03 348.24 283.07 346.84 287.02 346.86 287.05 345.52 290.92 345.69 293.25 344.12 294.46 344.79 297.6 344.97 297.44 345.48 299.01 345.77 300.11 346.55 301.75 344.99 306.08 347.48 307.74 346.26 309.26 347.17 310.18 346.48 313.25 348.27 314.24 350.11 315.75 349.75 316.21 350.61 318.89 350.01 319.96 352.01 327.06 351.57 327.87 354.17 328.67 355.51 328.71 355.62 329.48 357.88 321.73 359.01 319.67 359.16 313.31 359.9 307.15 361.12 300.4 362.9 297.56 363.85 294.33 365.15 291.69 366.39 285.21 369.71 276.13 374.57 272.77 372.3 276.6 369.4 278.5 367.62 279.33 366.56 277.29 366.21 273.16 364.84 273.31 363.57 272.13 363.99 270.27 363.91 269.75 365.02 268.28 364.32 266.24 363.73 267.36 361.9 267.45 358.43 266.71 353.03 Z" id="94001" data-nom="ABLON SUR SEINE"/>
<path d="M 311.75 223.05 301.81 222.19 301.47 222.37 295.09 221.6 282.1 220.48 280.6 219.2 279.32 220.25 276.61 220.01 279 217.36 282.1 213.24 289.73 202.16 293.35 196.63 295.15 193.3 296.2 190.95 297.56 186.71 297.76 184.86 297.4 181.81 296.41 178.77 295.51 176.89 293.98 174.25 292.14 171.76 290.98 170.62 280.59 162.77 274.94 158.09 265.1 149.69 263.97 148.42 262.9 146.54 261.97 144.33 261.39 141.66 261.41 138.91 261.81 136.88 263.76 130.2 264.93 125.6 265.11 121.67 264.38 119.44 262.79 117.82 266.67 118.43 276.13 118.87 279.69 118.68 281.37 121.07 283.83 124.09 285.58 125.98 289.43 129.52 294.3 133.67 296.65 136.03 299.41 139.24 301.34 142.03 303.92 146.68 312.4 167.6 320.06 186.66 323.75 195.76 326.48 202.74 324.02 203.19 318.14 206.67 316.14 206.86 316.38 212.02 313.44 212.49 311.75 223.05 Z" id="94002" data-nom="ALFORTVILLE"/>
<path d="M 92.26 167.02 90.21 165.94 85.05 163.9 82.47 168.05 76.86 166.1 73.56 165.49 69.18 165.42 66.24 164.94 64.22 162.6 60.19 161.87 59.99 162.32 52.31 161.7 52.05 161.69 51.65 161.66 49.93 159.96 43.52 158.1 40.71 156.98 44.97 146 46 143.52 47 139.47 44.08 139.14 42.8 141.09 42.89 142.8 41.73 143.66 41.99 145.91 40.83 147.09 34.96 145.56 33.11 146.24 31.53 145.1 28.62 145.28 26.11 145.21 24.9 139.21 27.97 135.12 35.29 135.85 44.82 136.2 52.56 127 54.01 125.21 61.82 126.66 62.03 126.21 63.86 126.58 63.49 127.38 67.22 128.12 68.44 125.77 69.66 126.01 73.79 125.88 74.98 126.49 75.53 125.67 77.97 126.77 83.12 128.74 79.9 132.96 84.01 134.65 88.61 135.86 87.54 138.58 91.32 139.48 89.04 143.84 95.48 147.09 93.42 150.17 92.54 152.67 99 154.98 98.5 155.49 102.27 156.62 102.66 157.04 98.07 162 102.47 163.59 102.32 164.5 100.79 165.4 96.02 166.75 98.07 168.43 96.08 169.1 92.26 167.02 Z" id="94003" data-nom="ARCUEIL"/>
<path d="M 563.2 90.48 560.19 88.56 554.52 85.98 551.31 83.69 547.04 86.28 544.39 84.76 539.08 86.75 536.17 87.19 531.32 88.2 525.78 89.17 520.38 87.79 517.7 86.64 518.66 85.77 515.26 84.75 511.34 83.89 509.15 82.05 508.72 81.13 511.23 81.94 515.12 82.57 517.61 82.38 519.98 82.52 522.18 83.45 526.34 84.66 527.78 84.75 529.64 84.46 533.96 82.85 536.09 81.87 540.03 79.5 540.89 78.76 542.18 76.9 543.9 73.03 543.95 70.52 543.08 68.94 542.18 66.37 541 64.89 539.56 63.6 536.38 61.77 534.44 60.48 533.28 59.43 532.33 57.85 531.07 54.97 529.65 50.54 528.04 46 527.54 43.12 527.9 39.5 529.09 36.12 530.21 34.36 533.84 30.75 537 28.39 538.7 27.75 547.88 36.4 549.88 35.55 550.64 35.8 558.41 34.11 559.89 33.73 562.48 33.4 568.69 41.74 570.3 43.77 573.12 47.8 588.11 43.23 590.65 47.64 590.78 49.3 591.74 50.21 596.11 53.43 595.56 54.37 598.69 55.96 600.68 57.61 603.03 57.56 604.42 58.72 602.09 59.57 595.77 60.43 593.63 60.99 590.97 61.71 593.08 64.14 586.09 68.27 585.59 68.55 585.66 68.59 586.46 69.23 586.53 69.28 587.31 69.9 587.74 70.24 588.49 70.83 589.06 71.28 589.16 71.36 589.72 71.64 589.95 71.76 589.8 71.88 589.67 72 589.54 72.11 589.21 72.4 586.83 75.44 584.98 78.27 585.78 78.61 581.32 84.95 581.28 85 576.95 85.37 576.86 85.38 574.94 85.54 571.53 86.02 567.2 86.09 564.61 90.37 563.2 90.48 Z" id="94015" data-nom="BRY SUR MARNE"/>
<path d="M 45.58 207.99 41.98 207.15 43.02 204.6 42.25 204.46 43.62 201.52 42.73 201.34 43.76 196.51 35.84 194.76 26.99 192.25 29.62 185.51 35 171.49 40.71 156.98 43.52 158.1 49.93 159.96 51.65 161.66 52.05 161.69 52.31 161.7 59.99 162.32 60.19 161.87 64.22 162.6 66.24 164.94 69.18 165.42 73.56 165.49 76.86 166.1 82.47 168.05 85.05 163.9 90.21 165.94 92.26 167.02 93.41 168.58 94.6 170.87 95.11 172.56 95.35 174.34 95.16 177.14 93.64 183.35 93.4 185.1 91.72 184.13 90.32 191.08 88.45 194.53 87.67 196.89 85.7 201.3 84.84 202.79 81.12 201.92 79.57 204.29 78.71 205.95 76.81 205.85 70.59 204.17 71.64 203.03 67.88 201.94 67.81 201.63 60.97 201.62 54.78 201.27 54.56 201.58 52.23 201.46 50.87 205.47 50.35 207.5 50.31 207.64 47.9 207.68 47.18 209.8 45.58 207.99 Z" id="94016" data-nom="CACHAN"/>
<path d="M 262.79 117.82 260.37 116.35 257.39 115.02 252.67 113.76 239.53 109.48 233.06 106.94 230.28 105.53 223.32 101.55 212.84 94.28 223.75 89.54 227.29 88.99 244.73 84.04 248.6 85.5 250.63 86.53 253.85 88.73 258.09 92.03 261.87 94.28 264.43 95.42 268.02 96.23 271.27 96.55 273.56 96.6 278.61 96.41 281.65 96.59 284.36 97.02 288.08 97.93 290.32 98.27 290.2 100.12 289.46 112.76 289.61 117.09 288.37 117.19 284 118.1 279.69 118.68 276.13 118.87 266.67 118.43 262.79 117.82 Z" id="94018" data-nom="CHARENTON LE PONT"/>
<path d="M 92.85 274.72 87.12 271.83 89.92 269.05 89.84 269.02 84.59 266.99 83.68 266.92 82.73 267.73 80.12 266.8 79.3 266.5 75.65 265.19 74.48 264.77 71.96 263.2 71.76 263.07 70.19 262.08 72.24 261.11 74.75 259.46 77.7 257.02 65.89 252.79 65.3 253.58 63.53 252.93 65.86 250.02 70.39 240.55 71.76 238.35 68.59 237.29 68.31 237.68 66.23 237 67.71 234.92 70.69 231.21 71.67 229.8 72.81 229.86 75.14 230.41 75.39 229.87 76.85 230.15 77.76 228.29 79.68 227.58 91.37 229.93 89.53 233.2 90.72 233.44 108.12 236.14 111.55 230.86 113.17 228.72 117.5 230.81 118 229.96 119.48 228.53 120.41 227.22 122.72 225.87 134.62 220.93 141.04 218.93 153.06 214.5 153.51 214.44 154.69 233.96 155.74 252.37 155.93 254.57 156.86 271.47 145.64 272.55 145.59 272.37 139.56 272.96 139.33 268.1 134.81 263.47 130.88 265.11 129.68 263.92 123.4 266.61 120.35 263.48 117.34 264.75 110.98 267.41 109.8 266.23 103.49 268.89 98.54 263.87 95.9 266.66 94.91 268.27 94.51 269.48 94.14 272.41 92.85 274.72 Z" id="94021" data-nom="CHEVILLY LARUE"/>
<path d="M 95.48 147.09 89.04 143.84 91.32 139.48 87.54 138.58 88.61 135.86 84.01 134.65 79.9 132.96 83.12 128.74 77.97 126.77 75.53 125.67 74.98 126.49 73.79 125.88 69.66 126.01 68.44 125.77 67.22 128.12 63.49 127.38 63.86 126.58 62.03 126.21 61.82 126.66 54.01 125.21 60.99 116.76 66.13 117.48 86.8 118.57 90.36 119.3 94.06 120.68 93.94 119.17 100.41 119.8 114.66 112.87 123.8 119.52 124.64 119.51 123.85 121.05 120.81 124.99 118.41 127.04 113.79 129.33 110.2 131.51 107.88 133.44 103.25 138.62 98.58 143.58 95.48 147.09 Z" id="94037" data-nom="GENTILLY"/>
<path d="M 163.53 150.56 156.55 143.56 155.06 141.85 153.11 140.01 155.75 138.96 154.91 137.82 148.68 137.08 145.52 132.27 146.72 131.2 150.67 130.03 147.11 124.05 147.49 123.97 146.3 121.67 146.97 120.58 145.47 118.61 157.4 114.82 183.79 106.16 188.39 104.67 190.37 102.8 209.31 96.06 212.84 94.28 223.32 101.55 230.28 105.53 233.06 106.94 239.53 109.48 252.67 113.76 257.39 115.02 260.37 116.35 262.79 117.82 264.38 119.44 265.11 121.67 264.93 125.6 263.76 130.2 261.81 136.88 261.41 138.91 249.19 139.95 252.04 149.04 251.3 149.9 249.67 149.3 244.3 149.89 244.24 150.52 240.07 150.55 239.42 149.25 237.47 149.84 236.95 151.47 234.12 156.7 231.58 154.57 230.58 155.41 228.99 157.39 227.11 159.12 224.22 161.21 221.5 159.32 220.52 159.88 219.57 159.71 216.97 162.74 214.4 161.37 212.47 160.63 210.19 160.86 208.85 159.88 204.44 160.1 203.73 159.11 202.87 155.86 201.08 149.83 193.86 152.15 192.09 153.13 190.1 154.52 184.73 157.36 175.38 145.47 163.53 150.56 Z" id="94041" data-nom="IVRY SUR SEINE"/>
<path d="M 102.66 157.04 102.27 156.62 98.5 155.49 99 154.98 92.54 152.67 93.42 150.17 95.48 147.09 98.58 143.58 103.25 138.62 107.88 133.44 110.2 131.51 113.79 129.33 118.41 127.04 120.81 124.99 123.85 121.05 124.64 119.51 143.26 119.3 145.47 118.61 146.97 120.58 146.3 121.67 147.49 123.97 147.11 124.05 150.67 130.03 146.72 131.2 145.52 132.27 148.68 137.08 154.91 137.82 155.75 138.96 153.11 140.01 148.44 141.32 142.73 142.61 141.76 142.52 139.98 143.26 138.02 141.75 131.7 144.31 129.44 145.33 130.22 146.8 131.06 150.41 133.04 152.58 133.26 153.17 125.92 152.13 125.07 153.15 122.65 152.78 119.05 154.84 116.29 152.8 114.47 153.45 110.55 155.14 111.34 155.99 106.33 157.79 104.48 158.25 102.66 157.04 Z" id="94043" data-nom="KREMLIN BICETRE"/>
<path d="M 395.92 136.88 392.7 135.33 389.89 134.13 387.08 132.63 382.66 128.82 380.16 126.2 382.42 124.82 384.81 126.24 385.15 126 387.35 127.27 389.6 125.64 392.85 128.03 405.13 120.7 405.56 120.45 408.67 118.59 404.98 117.32 403.88 117.4 403.23 116.65 397.82 113.46 401.64 111.59 401.22 110.79 401.91 108.54 406.5 100.57 408.01 97.39 409.34 92.75 411.8 93.05 412.4 90.46 415.12 86.83 419.05 82.9 423.89 85.65 426.96 83.81 429.83 82.82 435.17 81.52 439.26 89.67 439.4 90.54 441.15 90.43 442.33 96.21 444.02 96.05 443.07 99.89 451.06 109.05 452.89 109.07 452.72 110.79 451.52 119.61 446.63 126.01 440.3 123.71 435.25 122.03 430.39 119.99 427.12 123.54 424.71 125.64 424.18 125.01 422.96 125.8 420.1 128.6 416.96 127.78 417.37 130.03 416.89 130.4 412.72 132.47 411.07 133.07 409.97 133.81 409.23 134.79 408.1 135.34 407.55 133.9 408.67 132.56 408.64 132.09 406.61 130.52 395.92 136.88 Z" id="94042" data-nom="JOINVILLE LE PONT"/>
<path d="M 575.31 404.81 579.53 405.79 583.23 406.78 585.3 402.56 586.28 399.38 586.55 397.47 587.78 395.6 593.25 395.98 594.1 395.37 595.19 394.99 597.59 393.12 599.68 391.75 600.15 392.23 606.28 390.07 611.04 389.9 614.82 390.02 616.05 390.08 616.51 388.74 621.43 389.29 624.46 389.9 626.88 386.1 629.43 382.89 628.64 381.85 632.78 379.74 633.18 380.03 633.39 380.19 636.7 378.18 637.78 378.81 636.78 379.8 638.97 380.84 640.34 381.51 642.06 382.37 642.6 381.84 648.05 384 646.59 385.88 653.4 388.49 651.18 391.37 654.78 392.89 654.98 392.51 657.8 393.15 662.19 396.89 662.16 397.19 664.94 397.96 669.96 398.82 670.34 397.6 671.7 397.11 674.56 397.43 675.35 399.61 676.59 402.13 673.85 403.14 672.41 404.1 666.08 409.62 659.26 413.99 657.82 414.68 654.7 415.4 651.05 415.75 648.42 416.64 645.43 418.68 640.7 421.67 636.56 425.52 630.33 423.4 627.44 423.45 627.36 423.45 626.94 423.49 624.63 423.6 620.25 423.09 617.45 422.28 613.71 424.01 613.14 424.42 608.06 421.15 605.71 419.85 603.77 422.06 601.7 423.58 595.65 426.84 593.33 427.87 592.47 427.84 591.9 424.37 592.21 421.16 591.11 417.91 588.17 418.51 588.18 419.01 580.42 421.06 579.64 421.81 578.74 420.72 577.34 418.17 575.86 416.76 574.45 414.52 573.58 412.66 572.64 411.22 570.5 409.68 568 408.61 568.11 407.56 571.16 407.85 571.78 407.31 573.93 407.21 574.84 406.62 575.31 404.81 Z" id="94047" data-nom="MANDRES LES ROSES"/>
<path d="M 637.73 362.87 633.35 359.56 632.68 358.86 628.35 355.12 626.44 353.7 625.27 354.83 619.41 354.9 613.42 354.77 612.68 355.11 610.88 354.97 606.93 354.21 603.5 353.57 596.77 352.62 596.24 352.55 596.2 352.57 594.06 352.51 594.76 349.57 596.26 349.52 593.22 347.6 587.74 344.13 609.36 329.67 614.22 326.46 621.88 316.52 635.21 299.17 611.14 294.06 618.93 286 626.18 285.56 631.53 290.91 641.27 281.45 646.9 281.29 647.28 281.28 647.37 279.09 647.38 279.09 647.78 279.19 651.77 280.15 652.33 280.55 654.77 282.28 656.42 282.94 661.31 283.95 668.04 285.33 669.16 285.83 671.44 286.34 680.25 287.74 680.93 287.84 680.66 289.15 680.01 289.8 676.73 295.11 689.31 296.64 688.52 298.54 687.92 306.82 675.59 316.07 677.1 320.67 668.31 319.45 668.08 324.52 667.07 329.78 663.22 329.15 661.71 329.05 656.94 328.1 651.07 326.62 649.23 328.68 646.21 333.89 644.69 339.75 644.4 342.28 643.24 346.75 643.32 349.6 642.36 353.18 640.87 352.37 637.73 362.87 Z" id="94048" data-nom="MAROLLES EN BRIE"/>
<path d="M 613.14 424.42 613.71 424.01 617.45 422.28 620.25 423.09 624.63 423.6 626.94 423.49 627.36 423.45 627.44 423.45 630.33 423.4 636.56 425.52 640.7 421.67 645.43 418.68 648.42 416.64 651.05 415.75 654.7 415.4 657.82 414.68 659.26 413.99 666.08 409.62 672.41 404.1 673.85 403.14 676.59 402.13 676.78 402.18 681.5 408.69 680.96 408.97 682.38 410.7 680.41 411.74 681.21 412.64 683.16 413.42 686.06 414.87 689.65 417.3 692 419.08 695.06 420.66 710.59 427.61 706.9 428.49 702.07 428.95 697.51 430.09 692.12 431.15 686.51 432.75 682.2 433.8 684.43 437.98 684.45 439.68 684.89 441.6 679.54 442.51 679.55 441.88 670.24 442.2 669.49 444.12 665.42 444.15 661.11 444.37 657.02 445.01 657.34 447.75 656.67 447.81 646.76 449.68 640.95 450.92 641.38 453 637.86 452.96 638.54 451.2 632.04 450.73 628.29 450.81 625.79 449.51 626.13 449.05 629.06 447.77 630.91 446.5 631.16 445.61 629.31 443.54 628.03 442.42 627.01 442.56 624.68 440.35 620.29 439.33 618.18 438.53 616.34 438.7 615.94 437.49 619.55 436.96 619.29 435.33 619.67 432.96 616.67 433.45 614.94 434.01 613.03 434.99 612.11 434.78 611.57 433.21 609.85 430.29 608.65 429.19 611.48 426.78 613.06 425.1 613.14 424.42 Z" id="94056" data-nom="PERIGNY SUR YERRES"/>
<path d="M 57.67 295.48 61.9 292.29 64.72 293.92 66.43 295.26 67.18 294.72 70.63 296.71 72.15 297.3 74.87 295.3 75.31 295.53 77.91 292.42 79.5 289.5 81.89 285.71 85.42 282.41 90.16 277.19 92.85 274.72 94.14 272.41 94.51 269.48 94.91 268.27 95.9 266.66 98.54 263.87 103.49 268.89 109.8 266.23 110.98 267.41 117.34 264.75 120.35 263.48 123.4 266.61 129.68 263.92 130.88 265.11 134.81 263.47 139.33 268.1 139.56 272.96 145.59 272.37 145.64 272.55 156.86 271.47 157.93 289.42 158.57 300.95 150.56 300.74 141.98 301.03 141.77 306.49 132.09 310.42 128.51 317.06 128.16 317 126.02 321.74 117.82 319.94 110.73 316.58 107.29 315.12 102.82 312.91 102.29 313.68 96.73 312.54 94.15 315.14 92.55 315.53 87.76 316.01 81.31 313.7 79.65 312.6 78.98 313.19 76.49 312.36 73.96 310.97 76.56 308.65 74.27 307.59 72.92 306.68 73.04 305.82 65.5 299.11 60.25 296.98 57.67 295.48 Z" id="94065" data-nom="RUNGIS"/>
<path d="M 287.63 32.7 286.83 40.52 309.1 42.49 311.73 42.7 312.03 43.69 310.03 53.18 302.74 52.5 300.89 50.99 299.42 49.36 297.32 46.43 295.85 45.42 290.09 48.2 289.94 49.42 288.89 50.78 289.17 52.73 290 54.31 291.42 55.71 292.97 58.9 293.79 61.72 294.39 64.67 294.88 65.93 296.25 68.3 291.2 70.1 282.3 72.91 278.76 73.57 273.77 73.8 270.78 73.57 267.56 73.05 270.3 71.27 273.53 62.61 276.12 53.72 279.19 43.84 281.12 34.27 280.92 33.11 287.63 32.7 Z" id="94067" data-nom="SAINT MANDE"/>
<path d="M 705.02 176.86 704.81 176.88 698.37 177.46 695.97 178.07 693.34 172.82 686.11 172.6 684.94 170.29 684.68 165.38 684.64 165.12 684.52 164.61 684.34 163.94 683.6 162.35 683.27 157.36 682.84 155.52 678.11 152.66 671.05 147.56 649.28 151.61 648.36 148.81 648.34 148.77 653.7 147.99 650.38 141.27 650.46 141.2 650.29 140.91 659.61 130.9 661.57 130.59 665.49 128.86 666.92 127.74 667.52 125.67 668.71 124.79 661.64 120.56 655.9 117.34 653.58 115.89 647.45 112.28 648.85 110.64 644.07 106.68 653.47 101.83 656.81 103.62 660.48 105.21 664.11 107.55 667.14 108.05 671.16 109.84 673.48 110.67 675.11 111.86 676.75 113.94 678.16 116.17 679.3 117.46 679.76 118.82 679.79 121.02 680.1 122.03 682.57 123.24 684.94 124.14 691.99 125.48 691.15 127.34 701.5 129.99 710.06 133.93 713.7 134.85 725.2 137.36 732.73 138.14 736.97 142.27 740.89 143.37 744.69 144.05 749.31 145.95 747.78 148.57 741.99 158.21 740.56 160.68 737.97 162.34 736.17 167.66 735.89 168.48 728.17 178.64 722.2 178.55 711.59 176.28 711.38 177.27 705.02 176.86 Z" id="94059" data-nom="PLESSIS TREVISE"/>
<path d="M 640.34 381.51 639.02 380.79 643.15 377.67 646.66 373.74 643.98 372.73 637.33 370.49 636.92 370.96 633.94 370.17 637.73 362.87 640.87 352.37 642.36 353.18 643.32 349.6 643.24 346.75 644.4 342.28 644.69 339.75 646.21 333.89 649.23 328.68 651.07 326.62 656.94 328.1 661.71 329.05 663.22 329.15 667.07 329.78 668.08 324.52 668.31 319.45 677.1 320.67 675.59 316.07 687.92 306.82 688.52 298.54 689.31 296.64 676.73 295.11 680.01 289.8 680.66 289.15 680.93 287.84 682.12 286.32 694.53 285.16 697.92 279.39 697.93 279.37 699.03 277.93 711.93 278.07 716.9 269.37 725.25 254.85 725.34 254.67 751.58 263.01 751.68 263.04 756.7 277.1 757.43 277.35 762.75 280.25 764.21 281.55 762.57 283.46 760.47 286.31 758.65 288.53 754.4 291.2 753.23 290.64 751.49 293.01 748.28 298.31 736.69 297.32 735.79 298.19 734.09 299.24 732.4 300.9 733.84 302.85 726.53 306.16 726.05 305.99 720.25 312.47 728.11 315.56 732.78 317.92 734.23 319.05 736.12 320.92 736.74 321.03 736.13 323.11 736.26 323.54 747.38 326.05 743.94 327.56 744.29 328.08 742.39 328.58 744.64 337.89 741.08 338.78 740.8 337.59 732.57 339.45 732.88 339.67 730.52 344.95 727.68 345.44 726.96 345.15 724.02 347.55 724.25 347.9 717.87 351.38 718.72 351.27 714.08 356.71 713.13 358.25 712.33 358.05 709.82 361.77 708.7 363.91 705.92 362.85 704.51 362.05 702.27 366.78 699.64 365.98 698.75 369.68 699.7 369.78 699.29 372.8 698.01 377.4 697.32 377.32 695.53 383.04 694.36 387.85 684.99 385.58 683.13 391.55 678.27 391.91 678.3 394.37 677.05 394.19 676.93 397.51 674.56 397.43 671.7 397.11 670.34 397.6 669.96 398.82 664.94 397.96 662.16 397.19 662.19 396.89 657.8 393.15 654.98 392.51 654.78 392.89 651.18 391.37 653.4 388.49 646.59 385.88 648.05 384 642.6 381.84 642.06 382.37 640.34 381.51 Z" id="94070" data-nom="SANTENY"/>
<path d="M 380.16 126.2 377.98 124.76 374.77 122.03 372.29 120.45 371.15 120.04 368.25 119.63 355.47 118.83 353.58 118.94 348.09 118.93 345.77 118.79 344.08 118.46 340.01 117.28 336.98 116.89 333.19 117.03 331.37 117.38 329.98 118.07 328 118.59 326.23 118.52 324.71 117.89 322.73 117.7 319.51 117.7 316.69 118.59 312.64 118.01 307.1 118.13 301.17 118.77 297.74 118.49 295.42 118.12 290.99 117.16 289.61 117.09 289.46 112.76 290.2 100.12 290.32 98.27 294.41 98.3 302.81 97.97 308.24 98.27 311.21 98.72 315.41 99.71 318.18 100.69 317.33 101.59 322.07 104.87 323.2 104.13 323.9 104.68 322.81 105.38 327.57 108.66 327.23 110.94 329.77 109.98 332.64 110.2 334.65 110.78 335.79 111.39 335.46 113.8 339.21 113.45 342.47 113.36 346.58 114.14 349.38 114.37 353.49 114.4 362.21 114.19 367.44 114.35 370.52 114.75 377.13 116.27 380.62 116.54 390.52 116.84 391.94 117.01 392.28 115.98 393.73 115.46 397.82 113.46 403.23 116.65 403.88 117.4 404.98 117.32 408.67 118.59 405.56 120.45 405.13 120.7 392.85 128.03 389.6 125.64 387.35 127.27 385.15 126 384.81 126.24 382.42 124.82 380.16 126.2 Z" id="94069" data-nom="ST MAURICE"/>
<path d="M 575.31 404.81 573.8 404.46 574.5 400.08 568.64 400.14 567.21 399.99 566.96 395.83 561.6 395.08 556.94 395.14 554.16 388.86 549.66 389.47 546.57 389.45 544.95 388.78 546.39 388.34 549.72 388.06 552.86 387.61 551.77 386.89 547.59 382.66 545.25 381.61 543.22 379.89 545.84 379.47 543.83 376.26 541.68 363.3 538.8 344.84 524.11 330.38 520.71 327.02 520.74 324.82 528.45 322.79 537.21 319.94 540.44 321.44 542.28 320.59 545.95 324.9 556.62 337.41 564.82 342.07 578.37 349.66 592.58 347.78 593.22 347.6 596.26 349.52 594.76 349.57 593.99 352.55 596.2 352.57 596.24 352.55 596.77 352.62 603.5 353.57 606.93 354.21 611.25 355.11 612.68 355.11 613.42 354.77 619.41 354.9 625.27 354.83 626.44 353.7 628.35 355.12 632.68 358.86 633.35 359.56 637.73 362.87 633.94 370.17 636.92 370.96 637.33 370.49 643.98 372.73 646.66 373.74 643.15 377.67 639.02 380.79 638.97 380.84 636.68 379.75 637.78 378.81 636.74 378.11 633.18 380.03 632.78 379.74 632.58 379.58 628.53 381.72 628.64 381.85 629.43 382.89 626.88 386.1 624.46 389.9 621.43 389.29 616.51 388.74 616.05 390.08 614.82 390.02 611.04 389.9 606.28 390.07 600.15 392.23 599.68 391.75 597.59 393.12 595.19 394.99 594.1 395.37 593.25 395.98 587.78 395.6 586.55 397.47 586.28 399.38 585.3 402.56 583.23 406.78 579.53 405.79 575.31 404.81 Z" id="94075" data-nom="VILLECRESNES"/>
<path d="M 429.53 260.46 438.86 257.67 435.85 255.02 432.97 251.12 439.56 249.09 436.71 245.36 430.77 238.35 429.51 238.75 425.71 235.21 426.32 234.21 424.44 231.4 425.82 230.99 428 229.39 432.31 227.08 427.63 222.02 433.2 219.1 428.46 214.71 427.12 213.14 434.35 209.27 436.44 211.39 438.28 210.37 437.32 208.55 435.62 206 434.01 205.11 433.88 205.07 432.18 203.4 432.02 202.1 431.34 200.48 431.36 199.74 430.48 197.37 428.72 195.12 428.59 194.31 432.97 193.18 434.78 194.16 441.79 196.86 447.08 198.47 449.15 199 455.31 200.18 459.87 201.38 463.81 202.12 473.94 202.34 476.9 202.46 480.93 202.34 493.9 200.77 499.03 200.75 506.98 201.38 512.13 201.86 524.41 202.26 527.84 201.66 530.89 200.32 530.33 202.42 529.98 202.83 530.03 202.89 530.18 202.91 530.44 202.94 530.61 203.01 530.71 203.09 531.01 203.37 531.34 203.45 531.59 203.39 533.67 202.82 534.46 202.98 535.6 202.78 534.1 205.13 531.35 207.02 531.29 207.11 530.72 207.39 530.55 207.48 530.31 207.58 529.99 207.75 529.35 208.14 527.12 208.87 526.88 208.93 526.5 209.03 526.23 209.09 525.66 209.36 525.32 209.44 525.31 209.45 525.06 209.49 524.84 209.57 524.28 209.77 524.21 209.79 523.77 209.97 523.54 210.05 523.33 210.1 522.84 210.17 522.58 210.28 522.36 210.4 521.97 210.58 520.35 211.18 519.8 211.4 519.44 211.49 518.92 211.57 518.28 211.63 518.11 211.72 518.03 211.88 517.99 211.93 516.98 212.46 516.81 212.47 514.85 212.95 513.25 214.73 509.38 216.31 508.67 216.91 505.58 216.61 504.4 216.82 504.62 220.61 504.15 220.98 500.42 221.85 493.24 224.24 493.35 225.18 491.77 230.77 493.06 232.02 492.01 241.4 486.28 241.02 485.78 244.46 483.02 244.28 482.53 247.66 483.7 251.03 484.59 253.95 490.29 253.09 497.12 257.13 494.66 259.45 490.19 262.54 480.01 266.82 478.84 267.1 473.76 267.63 468.69 269.03 462.16 271.09 459.93 271.99 455.31 274.21 444.83 263.69 437.52 266.16 436.47 265.17 430.28 262.08 429.53 260.46 Z" id="94011" data-nom="BONNEUIL SUR MARNE"/>
<path d="M 545.95 324.9 536.38 313.63 528.65 304.43 529.33 303.32 525.53 298.44 520.49 302.2 517.31 303.84 510.09 306.95 506.51 302.84 505.25 300.1 502.52 300.75 501.9 295.24 501.27 293.74 502.3 293.58 501.12 289.23 500.53 288.79 496.34 284.06 496.33 284.03 496.31 284.01 496.29 283.99 496.23 283.98 496.13 283.99 496.1 284.02 495.78 284.1 495.02 283.27 494.9 283.19 492.63 280.75 488.16 275.68 485.09 272.56 480.01 266.82 490.19 262.54 494.66 259.45 497.12 257.13 497.51 256.76 512.58 261.93 513.6 260.81 516.02 261.26 516.93 260.61 519.04 260.68 519.14 260.7 519.55 260.79 525.75 262.04 533.81 262.56 541.72 261.44 553.88 269.1 557.79 271.36 566.99 274.88 584.38 277.53 595.2 279.26 599.7 276.79 646.27 278.83 646.82 278.95 647.31 279.07 647.38 279.09 647.28 281.28 646.9 281.29 641.27 281.45 631.53 290.91 626.18 285.56 618.93 286 611.14 294.06 635.21 299.17 621.88 316.52 614.22 326.46 609.36 329.67 587.74 344.13 593.22 347.6 592.58 347.78 578.37 349.66 564.82 342.07 556.62 337.41 545.95 324.9 Z" id="94004" data-nom="BOISSY ST LEGER"/>
<path d="M 254.15 288.11 251.35 277.65 246.95 261.43 241.92 257 240.29 256.73 239.7 255.31 233.32 249.71 248.5 247.1 235.06 226.51 239.24 225.77 243.63 231.26 253.32 229.69 253.22 228.99 269.45 227.81 270.81 225.58 272.15 223.99 273.94 222.25 276.61 220.01 279.32 220.25 280.6 219.2 282.1 220.48 295.09 221.6 301.47 222.37 301.81 222.19 311.75 223.05 310.05 229.56 309.64 232.87 310.28 236.73 322.4 233.1 322.41 236.27 317.78 237.19 318.49 239.05 318.73 240.84 321.04 245.45 319.88 245.74 320.54 246.78 321.69 247.44 322.76 247.44 328.1 246.93 330.59 246.15 332.1 247.84 334.5 248.53 337.74 250.09 341.87 252.91 338.46 255.59 342.23 257.59 348.21 259.37 348.43 260.22 348.56 260.7 346.02 261.75 334.23 258.77 326.99 256 307.49 263.36 310.53 266.66 312.68 269.8 305.25 272.52 305.61 274.01 306.8 275.8 308.91 278.23 309.9 279.73 310.57 281.53 312.56 283.81 312.46 286.04 312.67 286.92 309.68 288.52 305.55 285.97 302.38 283.88 294.81 288.54 291.98 290.53 290.77 291.57 285.49 283.39 274.19 286.57 272.87 284.52 266.94 285.53 254.15 288.11 Z" id="94022" data-nom="CHOISY LE ROI"/>
<path d="M 429.53 260.46 426.49 257.55 425.86 256.59 415.7 258.91 415.69 258.9 415.09 257.04 413.64 254.13 410.77 249.25 408.73 248.72 407.19 248.3 403.14 247.2 402.91 247.29 402.32 247.54 398.94 248.96 398.26 249.24 397.66 249.65 394.38 250.27 393.45 247.9 393.38 247.71 387.18 248.58 384.46 247.78 381.07 246.56 378.38 245.43 378.18 245.33 378.09 245.29 377.76 245.14 377.05 244.81 376.41 244.51 371.11 241.71 366.63 238.65 366.1 238.54 363.78 238.08 362.48 237.82 362.28 237.78 360.39 237.41 359.68 237.27 359.08 237.15 358.48 237.03 354.76 236.3 352.22 235.79 349.36 235.23 344.38 234.24 342.28 234.68 342.48 235.49 340.1 235.77 330.66 245.39 330.59 246.15 328.1 246.93 322.76 247.44 321.69 247.44 320.54 246.78 319.88 245.74 321.04 245.45 318.73 240.84 318.49 239.05 317.78 237.19 322.41 236.27 322.4 233.1 310.28 236.73 309.64 232.87 310.05 229.56 311.75 223.05 313.44 212.49 316.38 212.02 316.14 206.86 318.14 206.67 324.02 203.19 326.48 202.74 323.75 195.76 331.46 194.87 331.7 194.84 332.05 194.81 331.15 191.43 340 189.1 337.06 184.41 334 180.95 344.51 177.88 343.05 175.84 341.97 173.27 348.16 171.77 349.36 169.98 352.07 166.58 352.19 166.45 354.03 164.65 355.76 162 356.25 161.91 357.13 159.12 360.75 155.91 361.63 155.38 360.18 154.61 364.05 151.5 364.79 151.05 368.21 153.21 372.4 150.74 375.74 148.43 375.42 148.18 379.99 145.5 382.1 145.77 386.04 146.78 388 147.69 395.23 144.59 396.18 145.23 404.99 141.93 407.41 143.88 413.03 147.86 415.46 149.01 416.26 150.25 417.5 154.99 418 156.53 419.37 159.5 420.53 161.3 421.91 164.75 423.68 172.19 424.83 175.39 425.31 178.04 425.14 181.06 425.29 182.46 426.15 185.14 429.07 189 431.53 191.87 432.97 193.18 428.59 194.31 428.72 195.12 430.48 197.37 431.36 199.74 431.34 200.48 432.02 202.1 432.18 203.4 433.88 205.07 434.01 205.11 435.62 206 437.32 208.55 438.28 210.37 436.44 211.39 434.35 209.27 427.12 213.14 428.46 214.71 433.2 219.1 427.63 222.02 432.31 227.08 428 229.39 425.82 230.99 424.44 231.4 426.32 234.21 425.71 235.21 429.51 238.75 430.77 238.35 436.71 245.36 439.56 249.09 432.97 251.12 435.85 255.02 438.86 257.67 429.53 260.46 Z" id="94028" data-nom="CRETEIL"/>
<path d="M 57.67 295.48 56.58 294.51 53.76 291.46 50.11 288.88 46.52 287.18 44.19 286.36 40.57 285.36 42 288.46 42.98 289.53 41.07 291.52 40.81 292.37 38.85 294.08 37.42 295.84 30.52 293.48 28.83 292.09 26.65 291.54 24.59 290.67 22.79 290.79 15.4 287.42 10.46 287.45 4.76 285.23 8.71 283.08 6.75 281.15 8.28 279.69 1 276.84 11.19 266.94 11.21 266.59 13.28 264.55 12.53 260.82 13.93 259.01 15.75 259.62 17.22 254.28 18.13 252.77 18.36 250.79 17.68 250.61 19.37 247.3 19.72 247.36 22.02 247.81 24.07 249.11 24.33 248.4 26.67 248.03 28.95 247.9 31.17 248.08 31.7 248.12 31.73 248.13 32.54 248.19 32.5 248.35 34.4 248.5 34.36 248.71 35.26 248.8 35.33 253.28 40.45 253.49 39.1 249.26 39.08 247.61 42.59 248.02 48.25 249.58 50.65 250.04 55.96 251.4 56.3 251.32 63.09 253.05 63.53 252.93 65.3 253.58 65.89 252.79 77.7 257.02 74.75 259.46 72.24 261.11 70.19 262.08 71.76 263.07 71.96 263.2 74.48 264.77 75.65 265.19 79.3 266.5 80.12 266.8 82.73 267.73 83.68 266.92 84.59 266.99 89.84 269.02 89.92 269.05 87.12 271.83 92.85 274.72 90.16 277.19 85.42 282.41 81.89 285.71 79.5 289.5 77.91 292.42 75.31 295.53 74.87 295.3 72.15 297.3 70.63 296.71 67.18 294.72 66.43 295.26 64.72 293.92 61.9 292.29 57.67 295.48 Z" id="94034" data-nom="FRESNES"/>
<path d="M 35.26 248.8 34.36 248.71 34.4 248.5 32.5 248.35 32.54 248.19 31.73 248.13 31.7 248.12 31.17 248.08 28.95 247.9 26.67 248.03 24.33 248.4 24.07 249.11 22.02 247.81 19.72 247.36 21.94 245.32 23.24 243.26 24.93 242.41 27.01 240.2 28.44 238.96 31.89 235.22 32.22 233.99 33.69 231.86 34.89 229.6 36.55 226.93 38.33 224.71 40.16 221.85 41.46 222.45 43.57 220.07 45.28 220.67 47.64 216.28 42.34 215.39 43.51 213.22 43.04 213.15 45.58 207.99 47.18 209.8 47.9 207.68 50.31 207.64 50.35 207.5 50.87 205.47 52.23 201.46 54.56 201.58 54.78 201.27 60.97 201.62 67.81 201.63 67.88 201.94 71.64 203.03 70.59 204.17 76.81 205.85 78.71 205.95 79.57 204.29 81.12 201.92 84.84 202.79 85.7 201.3 87.67 196.89 88.45 194.53 90.32 191.08 91.72 184.13 93.4 185.1 98.64 188.01 98.14 188.73 96.58 192.37 95.07 196.45 94.5 198.77 102.75 200.01 102.14 202.47 103.71 202.63 101.65 207.23 107.55 208.23 109.97 210.47 115.33 210.48 117.54 211.68 116.34 212.23 120.8 215.91 121.05 216.24 128.87 215.04 129.42 216.39 132.51 215.67 132.41 215.43 137.61 214.34 147.25 211.83 153.29 210.76 153.51 214.44 153.06 214.5 141.04 218.93 134.62 220.93 122.72 225.87 120.41 227.22 119.48 228.53 118 229.96 117.5 230.81 113.17 228.72 111.55 230.86 108.12 236.14 90.72 233.44 89.53 233.2 91.37 229.93 79.68 227.58 77.76 228.29 76.85 230.15 75.39 229.87 75.14 230.41 72.81 229.86 71.67 229.8 70.69 231.21 67.71 234.92 66.23 237 68.31 237.68 68.59 237.29 71.76 238.35 70.39 240.55 65.86 250.02 63.53 252.93 63.09 253.05 56.3 251.32 55.96 251.4 50.65 250.04 48.25 249.58 42.59 248.02 39.08 247.61 39.1 249.26 40.45 253.49 35.33 253.28 35.26 248.8 Z" id="94038" data-nom="L HAY LES ROSES"/>
<path d="M 458.36 344.85 455.46 340.46 454.02 338.56 452.14 335.1 450.32 333.23 448.01 331.34 444.5 329.15 442.25 328.53 440.76 327.81 437.14 324.18 434.83 321.62 433.27 320.31 429.36 317.7 429.59 317.2 429.74 317.05 436.04 314.4 433.25 310.71 430.33 306.51 430.38 305.55 429.38 305.2 429.05 303.23 429.3 298.41 429.6 297.53 429.79 295.33 429.24 293.56 426.97 284.39 420.84 285.96 414.59 287.69 414.69 287.19 416.92 274.57 417.05 272.1 417.06 271.45 417.07 270.78 417.07 270.61 417.08 270.28 417.11 269.67 417.13 269.39 417.15 268.96 417.2 268.5 417.26 267.77 417.29 267.52 417.4 265.65 417.36 265.45 416.73 262.5 415.82 259.35 415.7 258.91 425.86 256.59 426.49 257.55 429.53 260.46 430.28 262.08 436.47 265.17 437.52 266.16 444.83 263.69 455.31 274.21 459.93 271.99 462.16 271.09 468.69 269.03 473.76 267.63 478.84 267.1 480.01 266.82 485.09 272.56 488.16 275.68 492.63 280.75 494.9 283.19 495.02 283.27 495.78 284.1 496.1 284.02 496.13 283.99 496.23 283.98 496.29 283.99 496.31 284.01 496.33 284.03 496.34 284.06 500.53 288.79 501.12 289.23 502.3 293.58 501.27 293.74 501.9 295.24 502.52 300.75 505.25 300.1 506.51 302.84 510.09 306.95 517.31 303.84 520.49 302.2 525.53 298.44 529.33 303.32 528.65 304.43 536.38 313.63 542.28 320.59 540.44 321.44 537.21 319.94 528.45 322.79 520.74 324.82 520.71 327.02 524.11 330.38 523.37 330.54 522.18 333.51 517.37 334.98 518.24 329.79 514.41 327.69 509.01 329.16 508.77 328.62 491.64 334.14 490.51 334.4 480.44 337.81 458.45 344.91 458.36 344.85 Z" id="94044" data-nom="LIMEIL BREVANNES"/>
<path d="M 409.34 92.75 410.43 90.02 408.49 89.4 406.27 89.21 406.13 86.48 406.67 83.82 407.65 81.01 408.72 78.93 410.75 76.87 413.05 75.42 416.3 73.89 417.6 72.92 418.91 70.97 419.42 69.47 419.74 67.45 419.59 65.99 418.48 64.5 415.7 62.02 413.22 59.48 419.13 57.07 416.99 54.74 426.16 51.8 427.11 55.5 428.54 56.95 436.02 54.07 436.78 52.17 437.87 50.74 438.05 49.97 440.11 49.52 444.38 48.01 446.06 52.17 452.05 50.89 454.71 50.96 457.12 49.04 460.69 48.82 461.52 48.28 460.89 45.99 463.32 45.34 463.4 43.23 465.94 42.1 465.3 40.98 466.7 40.82 467.73 40.25 469.6 39.78 472.02 38.58 472.13 38.53 476.41 36.82 481.23 50.25 482.5 54.6 482.97 57.25 483.96 65.58 484.8 68.84 485.46 70.39 486.72 72.62 492.19 80.95 489.46 80.91 484.75 80.54 479.7 80.53 474.43 80.14 471.61 80.37 467.44 80.4 464.82 80.25 459.54 79.31 457.67 79.07 453.25 79.1 449.72 79.62 443.75 80.19 437.74 81.01 435.17 81.52 429.83 82.82 426.96 83.81 423.89 85.65 419.05 82.9 415.12 86.83 412.4 90.46 411.8 93.05 409.34 92.75 Z" id="94052" data-nom="NOGENT SUR MARNE"/>
<path d="M 323.75 195.76 320.06 186.66 312.4 167.6 303.92 146.68 301.34 142.03 299.41 139.24 296.65 136.03 294.3 133.67 289.43 129.52 285.58 125.98 283.83 124.09 281.37 121.07 279.69 118.68 284 118.1 288.37 117.19 289.61 117.09 290.99 117.16 295.42 118.12 297.74 118.49 301.17 118.77 307.1 118.13 312.64 118.01 316.69 118.59 319.51 117.7 322.73 117.7 324.71 117.89 326.23 118.52 328 118.59 329.98 118.07 331.37 117.38 333.19 117.03 336.98 116.89 340.01 117.28 344.08 118.46 345.77 118.79 348.09 118.93 353.58 118.94 355.47 118.83 368.25 119.63 371.15 120.04 372.29 120.45 374.77 122.03 377.98 124.76 380.16 126.2 382.66 128.82 387.08 132.63 389.89 134.13 392.7 135.33 395.92 136.88 400.8 139.27 404.99 141.93 396.18 145.23 395.23 144.59 388 147.69 386.04 146.78 382.1 145.77 379.99 145.5 375.42 148.18 375.74 148.43 372.4 150.74 368.21 153.21 364.79 151.05 364.05 151.5 360.18 154.61 361.63 155.38 360.75 155.91 357.13 159.12 356.25 161.91 355.76 162 354.03 164.65 352.19 166.45 352.07 166.58 349.36 169.98 348.16 171.77 341.97 173.27 343.05 175.84 344.51 177.88 334 180.95 337.06 184.41 340 189.1 331.15 191.43 332.05 194.81 331.7 194.84 331.46 194.87 323.75 195.76 Z" id="94046" data-nom="MAISONS ALFORT"/>
<path d="M 627.86 250.26 627.34 250.61 611.92 251.34 610.07 251.27 607.81 250.88 602.83 249.47 600.93 245.99 601.02 244.89 602.68 242.76 603.79 240.82 604.24 239.74 603.75 237.86 603.81 237.79 603.88 237.19 600.7 234.4 599.75 233.47 597.41 232.4 594.92 231.24 594.13 230.62 593.65 228.98 593.52 228.19 593.13 226.93 592.06 225.21 591.1 222.82 590.67 220.69 592.11 220.6 593.3 219.65 596.32 217.74 596.74 216.37 600.02 214.48 600.13 214.04 601.75 213.44 604 211.94 604.61 210.53 606.46 210.33 608.98 209.32 610.43 209.32 611.38 208.18 614.04 207 614.82 206.45 617.29 207.06 620.62 206.77 627.11 207.07 629.28 205.81 632.8 205.08 637.86 204.41 638.56 204.18 641.97 201.34 644.14 198.55 645.15 198.02 647.34 196.29 655.58 193.79 659.4 192.54 663.86 198.02 664.24 198.87 664.46 200.16 664.24 200.54 663.89 205.3 664.84 207.3 665.67 209.67 668.52 214.22 669.06 214.4 670.59 216.86 671.29 217.67 669.71 218.38 670.41 219.58 669.21 219.95 670.75 222.45 670.93 223.47 672.56 225.51 674.47 226.98 678.82 226.42 680.78 226.46 682.46 226.79 682.78 227.39 685.87 227.76 687.28 228.87 687.41 229.71 688.34 230.35 692.63 230.5 693.04 232.52 697.2 231.89 697.36 234.58 693.9 235.09 693.43 234.62 689.84 234.82 682.23 240.66 681.66 240.67 684.77 246.39 679.63 248.47 675.27 246.03 662.44 255.79 661.95 255.6 658.99 255.84 657.51 253.96 656.47 253.21 654.15 249.98 652.19 248.98 649.51 250.98 647.98 252.45 646.51 253.46 644.11 253.39 638.53 252.39 627.86 250.26 Z" id="94053" data-nom="NOISEAU"/>
<path d="M 161.25 348.3 159.38 314.7 158.57 300.95 172.11 300.66 171.4 295.12 176.87 293.03 179.57 292.67 181.4 292.92 189.71 295.08 190.25 295.16 192 295.41 193.28 293.24 197.09 294.23 198.52 291.83 200.98 292.47 202.4 290.08 210.94 292.29 205.19 283.51 208.84 283.77 212.22 284.47 215.29 285.43 218.19 286.72 220.94 288.7 230.45 285.83 235.86 284.76 236.6 288.77 236.93 291.82 244.52 290.26 248.1 289.64 254.15 288.11 266.94 285.53 272.87 284.52 274.19 286.57 285.49 283.39 290.77 291.57 291.98 290.53 294.81 288.54 302.38 283.88 305.55 285.97 309.68 288.52 318.11 292.81 322.5 295.29 325.98 297.42 328.93 299.39 330.91 300.93 334.21 303.95 327.7 305.4 313.11 307.99 311.69 307.83 301.79 309.9 300.02 307.18 295.18 308.4 293.04 304.72 287.3 305.6 287.89 307.45 284.62 308.13 277.52 309.1 276.77 307.46 261.26 311.1 258.84 310.57 256.9 311.01 257.78 312.76 253.1 314.6 251.5 314.99 252.42 315.95 249.74 316.96 250.12 317.5 243.8 319.95 244.91 320.81 244.99 322.12 237.08 323.68 228.25 323.72 225.55 323.66 224.8 323.35 215.36 323.1 215.49 323.87 208.13 324.74 209.99 326.51 210.38 331.33 206.83 331.49 206.69 335.79 199.62 335.99 199.92 339.09 199.5 339.07 199.33 343.28 192.47 343.68 192.36 344.87 185.85 344.72 185.34 347.95 176.8 349.17 173.4 349.1 166.68 348.38 163.61 348.24 161.25 348.3 Z" id="94054" data-nom="ORLY"/>
<path d="M 511.34 83.89 502.34 82.59 500.14 82.36 497.17 81.63 494.38 81.14 492.19 80.95 486.72 72.62 485.46 70.39 484.8 68.84 483.96 65.58 482.97 57.25 482.5 54.6 481.23 50.25 476.41 36.82 475.93 35.56 481.59 34.39 481.7 30.41 481.06 26.81 482.85 26.25 487.9 23.56 487.95 22.15 490.01 20.27 490.1 19.19 491.38 18.2 498.21 16.17 505.44 13.12 506.63 12.46 510.52 12.15 512.23 12.37 512.8 12.75 515.21 16.73 517.3 19.13 519.27 20.36 520.58 22.25 521.56 22.71 527.67 24.58 529.87 24.82 533.28 27.59 532.69 30.34 533.84 30.75 530.21 34.36 529.09 36.12 527.9 39.5 527.54 43.12 528.04 46 529.65 50.54 531.07 54.97 532.33 57.85 533.28 59.43 534.44 60.48 536.38 61.77 539.56 63.6 541 64.89 542.18 66.37 543.08 68.94 543.95 70.52 543.9 73.03 542.18 76.9 540.89 78.76 540.03 79.5 536.09 81.87 533.96 82.85 529.64 84.46 527.78 84.75 526.34 84.66 522.18 83.45 519.98 82.52 517.61 82.38 515.12 82.57 511.23 81.94 508.72 81.13 509.15 82.05 511.34 83.89 Z" id="94058" data-nom="LE PERREUX SUR MARNE"/>
<path d="M 544.96 198.82 545.1 198.88 545.31 198.99 545.52 199.11 546.12 199.43 546.7 199.75 545.34 200.78 546.49 201.45 550.74 203.41 550.02 203.94 556.52 207.7 562.86 202.86 565 204.1 573.08 197.67 577.91 195.37 583.03 181.29 600.12 183.97 600.87 183.73 605.43 183.71 613.95 185.17 615.39 185.21 618.17 185.28 618.62 182.19 618.88 180.41 618.88 180.41 619.1 179.83 622.44 170.63 622.31 169.08 623.78 168.82 621.67 167.42 637.42 165.51 636.96 166.12 637.27 172.37 637.47 173.19 638.54 174.66 643.26 175.46 639.88 180.14 642.05 181.74 645.85 184.41 649.69 186.56 654.3 188.53 656.78 189.92 659.4 192.54 655.58 193.79 647.34 196.29 645.15 198.02 644.14 198.55 641.97 201.34 638.56 204.18 637.86 204.41 632.8 205.08 629.28 205.81 627.11 207.07 620.62 206.77 617.29 207.06 614.82 206.45 614.04 207 611.38 208.18 610.43 209.32 608.98 209.32 606.46 210.33 604.61 210.53 604 211.94 601.75 213.44 600.13 214.04 600.02 214.48 596.74 216.37 596.32 217.74 593.3 219.65 592.11 220.6 590.67 220.69 589.18 221.01 588.24 220.6 586.83 220.78 582.26 220.97 581.18 221.63 579.96 221.45 578.97 222.16 577.67 222.15 576.86 220.64 576.04 220.28 575.52 219.33 575.55 218.24 574.32 217.49 572.22 217.95 570 217.87 569.02 219.53 569.3 220.14 567.88 220.63 565.29 220.94 561.28 221.23 559.77 221.47 556.04 220.96 552.49 221.34 551.93 220.51 552.98 218.7 555.91 215.54 557.09 214.07 549.3 210.71 530.26 210.58 530.98 209.65 537.75 204.4 538.34 203.09 540.36 202.35 544.96 198.82 Z" id="94055" data-nom="ORMESSON SUR MARNE"/>
<path d="M 700.16 249.75 697.96 249.09 699.46 247.48 699.85 244.87 698.83 244.52 696.07 242.85 693.07 243.84 691.09 244.06 690.62 244.16 684.77 246.39 681.66 240.67 682.23 240.66 689.84 234.82 693.43 234.62 693.9 235.09 697.36 234.58 697.2 231.89 693.04 232.52 692.63 230.5 688.34 230.35 687.41 229.71 687.28 228.87 685.87 227.76 682.78 227.39 682.46 226.79 680.78 226.46 678.82 226.42 674.47 226.98 672.56 225.51 670.93 223.47 670.75 222.45 669.21 219.95 670.41 219.58 669.71 218.38 671.29 217.67 670.59 216.86 669.06 214.4 668.52 214.22 665.67 209.67 664.84 207.3 663.89 205.3 664.24 200.54 664.46 200.16 664.24 198.87 663.86 198.02 659.4 192.54 656.78 189.92 654.3 188.53 649.69 186.56 645.85 184.41 642.05 181.74 646.97 179.65 653.17 176.9 673.52 168.19 673.85 168.18 684.34 163.94 684.52 164.61 684.64 165.12 684.68 165.38 684.94 170.29 686.11 172.6 693.34 172.82 695.97 178.07 698.37 177.46 704.81 176.88 705.02 176.86 711.38 177.27 711.59 176.28 722.2 178.55 728.17 178.64 735.89 168.48 736.17 167.66 739.61 167.71 739.82 167.33 747.9 168.97 752.47 171.17 758.01 174.03 757.13 175.71 756.57 177.52 755.35 180.01 752.52 183.99 747.45 187.5 750.2 189.65 742.88 191.62 743.62 192.99 745.56 200.28 737.78 199.29 736.86 202.59 735.81 203.47 733.61 203.09 732.25 203.42 731.85 204.22 730.85 204.78 729.29 204.74 727.84 205.09 729.02 208.7 729.06 211.43 727.69 216.88 724.24 216.24 720.57 215.71 720.5 220.3 720.85 221.61 722.04 223.88 723.16 228.23 723.85 229.44 725.71 231.31 729.35 234.21 730.72 235.92 731.43 235.39 733.34 234.69 735.86 235.56 737.86 236.06 740.51 235.5 741.46 234.69 744.78 233.93 746.66 233.04 749.93 233.02 753.23 232.05 753 230.51 760.54 228.33 763.46 228.02 766.42 227.47 770.3 227.74 771.41 227.05 774.16 226.52 776.1 226.56 776.85 227.22 778.29 230.49 779.78 232.14 781.47 233.54 782.71 234.27 787.86 237.85 789.7 240.34 790.19 243.6 790.73 244.17 791.58 246.04 791.25 246.68 791.54 248.49 792.16 249.79 796.17 253.46 797.68 255.32 799 257.94 798.67 259.5 797.02 261.34 796.64 262.21 793.9 262.11 787.59 261.48 788.45 263.71 771.28 267.17 765.32 267.43 751.58 263.01 725.34 254.67 725.25 254.85 716.9 269.37 711.93 278.07 699.03 277.93 698.79 277.94 685.6 272.04 687.82 269.81 680.06 262.97 680.54 262.29 683.2 262.69 688.45 262.8 689.87 263.12 696.48 265.13 698.04 262.86 699.63 261.23 708.26 252.05 704.95 250.88 700.16 249.75 Z" id="94060" data-nom="LA QUEUE EN BRIE"/>
<path d="M 432.97 193.18 431.53 191.87 429.07 189 426.15 185.14 425.29 182.46 425.14 181.06 425.31 178.04 424.83 175.39 423.68 172.19 421.91 164.75 420.53 161.3 419.37 159.5 418 156.53 417.5 154.99 416.26 150.25 415.46 149.01 413.03 147.86 407.41 143.88 404.99 141.93 400.8 139.27 395.92 136.88 406.61 130.52 408.64 132.09 408.67 132.56 407.55 133.9 408.1 135.34 409.23 134.79 409.97 133.81 411.07 133.07 412.72 132.47 416.89 130.4 417.37 130.03 416.96 127.78 420.1 128.6 422.96 125.8 424.18 125.01 424.71 125.64 427.12 123.54 430.39 119.99 435.25 122.03 440.3 123.71 446.63 126.01 451.54 127.11 456.81 127.99 462.36 128.6 467.57 129.53 475.14 131.35 484.03 132.89 491.47 133.92 492.79 134 497.82 133.88 504.21 133.56 508.09 133.65 515.38 134.2 519.29 134.33 523.62 135.37 526.99 136.02 531.04 136.31 535.62 136.86 540.36 137.84 545.12 139.4 547.52 140.46 550.53 142.79 551.32 144.31 553.8 146.81 556.61 150.26 557.49 153.79 557.88 156.34 557.77 158.26 558.16 161.28 558.92 162.17 558.78 164.05 558.38 165.57 559.2 167.35 559.62 170.02 559.18 172.99 558.07 176.02 557.48 179.25 556.72 181.34 555.81 183.22 553.61 186.8 552.07 189 550.53 190.72 548.02 193.13 545.44 194.9 542.19 196.34 539.77 196.69 535.05 197.76 533.43 198.42 530.89 200.32 527.84 201.66 524.41 202.26 512.13 201.86 506.98 201.38 499.03 200.75 493.9 200.77 480.93 202.34 476.9 202.46 473.94 202.34 463.81 202.12 459.87 201.38 455.31 200.18 449.15 199 447.08 198.47 441.79 196.86 434.78 194.16 432.97 193.18 Z" id="94068" data-nom="ST MAUR DES FOSSES"/>
<path d="M 158.57 300.95 157.93 289.42 156.86 271.47 155.93 254.57 155.74 252.37 154.69 233.96 156.21 233.43 163.07 238.79 167.23 236.81 166.96 236.59 171.33 234.32 176.67 236.91 178.31 235.37 177.46 235.09 180.3 232.96 180.84 233.21 184.15 230.89 188.69 233.62 191.31 234.35 195.81 233.08 202.56 231.86 207.47 230.6 208.77 233.98 215.21 233.21 219.06 232.9 218.51 230.26 222.11 229.22 235.06 226.51 248.5 247.1 233.32 249.71 239.7 255.31 240.29 256.73 241.92 257 246.95 261.43 251.35 277.65 254.15 288.11 248.1 289.64 244.52 290.26 236.93 291.82 236.6 288.77 235.86 284.76 230.45 285.83 220.94 288.7 218.19 286.72 215.29 285.43 212.22 284.47 208.84 283.77 205.19 283.51 210.94 292.29 202.4 290.08 200.98 292.47 198.52 291.83 197.09 294.23 193.28 293.24 192 295.41 190.25 295.16 189.71 295.08 181.4 292.92 179.57 292.67 176.87 293.03 171.4 295.12 172.11 300.66 158.57 300.95 Z" id="94073" data-nom="THIAIS"/>
<path d="M 427.38 349.22 427.31 340.89 426.33 338.37 426.83 336.65 427.9 335.01 426.95 331.07 425.5 326.9 425.43 320.45 422.37 322.32 421.81 322.12 419.13 320.12 416.23 317.76 415.65 318.09 412.63 314.94 409.33 311.93 406.96 313.18 405.38 314.91 402.93 319.79 400.34 323.32 397.76 322.22 394.84 320.21 391.72 318.82 389 317.09 386.78 316.52 388.04 313.67 389.19 312.02 391.35 309.37 392.17 307.81 392.81 305.12 396.46 300.93 399.82 297.88 394.81 295.94 389.48 295.52 386.38 295.17 377.02 293.32 378.07 285.74 379.46 285.61 379.83 284.35 379.51 284.27 377.62 278.9 377.26 276.66 372.75 269.79 370.63 267.44 369.21 265.44 367.19 263.61 366.1 262.1 364.58 262.57 362.9 260.77 360.68 260.07 360.75 259.58 354.51 257.25 348.43 260.22 348.21 259.37 342.23 257.59 338.46 255.59 341.87 252.91 337.74 250.09 334.5 248.53 332.1 247.84 330.59 246.15 330.66 245.39 340.1 235.77 342.48 235.49 342.28 234.68 344.38 234.24 349.36 235.23 352.22 235.79 354.76 236.3 358.48 237.03 359.08 237.15 359.68 237.27 360.39 237.41 362.28 237.78 362.48 237.82 363.78 238.08 366.1 238.54 366.63 238.65 371.11 241.71 376.41 244.51 377.05 244.81 377.76 245.14 378.09 245.29 378.18 245.33 378.38 245.43 381.07 246.56 384.46 247.78 387.18 248.58 393.38 247.71 393.45 247.9 394.38 250.27 397.66 249.65 398.26 249.24 398.94 248.96 402.32 247.54 402.91 247.29 403.14 247.2 407.19 248.3 408.73 248.72 410.77 249.25 413.64 254.13 415.09 257.04 415.69 258.9 415.82 259.35 416.73 262.5 417.36 265.45 417.4 265.65 417.29 267.52 417.26 267.77 417.2 268.5 417.15 268.96 417.13 269.39 417.11 269.67 417.08 270.28 417.07 270.61 417.07 270.78 417.06 271.45 417.05 272.1 416.92 274.57 414.69 287.19 414.59 287.69 420.84 285.96 426.97 284.39 429.24 293.56 429.79 295.33 429.6 297.53 429.3 298.41 429.05 303.23 429.38 305.2 430.38 305.55 430.33 306.51 433.25 310.71 436.04 314.4 429.74 317.05 429.59 317.2 429.36 317.7 433.27 320.31 434.83 321.62 437.14 324.18 440.76 327.81 442.25 328.53 444.5 329.15 448.01 331.34 450.32 333.23 452.14 335.1 454.02 338.56 455.46 340.46 458.36 344.85 456.43 345.43 446.36 348.19 444.41 348.39 439.19 348.63 434.24 348.96 427.38 349.22 Z" id="94074" data-nom="VALENTON"/>
<path d="M 161.25 348.3 163.61 348.24 166.68 348.38 173.4 349.1 176.8 349.17 185.34 347.95 185.85 344.72 192.36 344.87 192.47 343.68 199.33 343.28 199.5 339.07 199.92 339.09 199.62 335.99 206.69 335.79 206.83 331.49 210.38 331.33 209.99 326.51 208.13 324.74 215.49 323.87 215.36 323.1 224.8 323.35 225.55 323.66 228.25 323.72 237.08 323.68 244.99 322.12 244.91 320.81 243.8 319.95 250.12 317.5 249.74 316.96 252.42 315.95 251.5 314.99 253.1 314.6 257.78 312.76 256.9 311.01 258.84 310.57 261.26 311.1 276.77 307.46 277.52 309.1 284.62 308.13 287.89 307.45 287.3 305.6 293.04 304.72 295.18 308.4 300.02 307.18 301.79 309.9 311.69 307.83 313.11 307.99 327.7 305.4 334.21 303.95 337.39 307.88 341.27 313.58 342.82 314.99 350.11 321.24 353.2 324.97 354.43 327.55 354.95 329.43 355.22 331.7 355.16 334.47 354.75 336.15 354.61 338.54 354.17 341.55 353.32 345.52 352.35 348.48 351.47 349.95 349.85 351.52 346.83 353.14 341.43 355.21 340.02 355.64 332.57 357.34 329.48 357.88 328.71 355.62 328.67 355.51 327.87 354.17 327.06 351.57 319.96 352.01 318.89 350.01 316.21 350.61 315.75 349.75 314.24 350.11 313.25 348.27 310.18 346.48 309.26 347.17 307.74 346.26 306.08 347.48 301.75 344.99 300.11 346.55 299.01 345.77 297.44 345.48 297.6 344.97 294.46 344.79 293.25 344.12 290.92 345.69 287.05 345.52 287.02 346.86 283.07 346.84 283.03 348.24 282.01 348.19 281.9 348.18 281.84 348.18 278.39 348.27 278.36 350.95 278.67 351.71 275.73 351.72 272.49 352.27 266.71 353.03 260.86 353.39 257.3 353.32 254.84 353.07 248.97 352.79 249.16 352.13 242.76 351.76 241.13 356.97 235.75 356.31 234.69 359.14 231.18 365.78 216.1 361.77 211.13 367.37 208.71 366.16 207.26 367.91 202.57 366.37 199.32 371.82 193.19 369.88 178.98 367.43 176.93 370.32 169.44 369.13 162.33 368.66 161.84 355.11 161.25 348.3 Z" id="94077" data-nom="VILLENEUVE LE ROI"/>
<path d="M 93.4 185.1 93.64 183.35 95.16 177.14 95.35 174.34 95.11 172.56 94.6 170.87 93.41 168.58 92.26 167.02 96.08 169.1 98.07 168.43 96.02 166.75 100.79 165.4 102.32 164.5 102.47 163.59 98.07 162 102.66 157.04 104.48 158.25 106.33 157.79 111.34 155.99 110.55 155.14 114.47 153.45 116.29 152.8 119.05 154.84 122.65 152.78 125.07 153.15 125.92 152.13 133.26 153.17 133.04 152.58 131.06 150.41 130.22 146.8 129.44 145.33 131.7 144.31 138.02 141.75 139.98 143.26 141.76 142.52 142.73 142.61 148.44 141.32 153.11 140.01 155.06 141.85 156.55 143.56 163.53 150.56 164.48 151.51 167.79 154.02 168.37 154.47 160.22 158.99 162.75 161.74 160.02 163.24 165.49 168.42 161.11 169.99 162.5 171.65 165.47 176.34 165.79 177.58 167.13 179.73 170.59 183.18 170.04 183.54 172.76 186.69 171.32 186.96 178.26 195.66 172.39 198.38 165.03 203.98 159.02 206.88 162.74 211.2 153.51 214.44 153.29 210.76 147.25 211.83 137.61 214.34 132.41 215.43 132.51 215.67 129.42 216.39 128.87 215.04 121.05 216.24 120.8 215.91 116.34 212.23 117.54 211.68 115.33 210.48 109.97 210.47 107.55 208.23 101.65 207.23 103.71 202.63 102.14 202.47 102.75 200.01 94.5 198.77 95.07 196.45 96.58 192.37 98.14 188.73 98.64 188.01 93.4 185.1 Z" id="94076" data-nom="VILLEJUIF"/>
<path d="M 341.43 355.21 346.83 353.14 349.85 351.52 351.47 349.95 352.35 348.48 353.32 345.52 354.17 341.55 354.61 338.54 354.75 336.15 355.16 334.47 355.22 331.7 354.95 329.43 354.43 327.55 353.2 324.97 350.11 321.24 342.82 314.99 341.27 313.58 337.39 307.88 334.21 303.95 330.91 300.93 328.93 299.39 325.98 297.42 322.5 295.29 318.11 292.81 309.68 288.52 312.67 286.92 312.46 286.04 312.56 283.81 310.57 281.53 309.9 279.73 308.91 278.23 306.8 275.8 305.61 274.01 305.25 272.52 312.68 269.8 310.53 266.66 307.49 263.36 326.99 256 334.23 258.77 346.02 261.75 348.56 260.7 348.43 260.22 354.51 257.25 360.75 259.58 360.68 260.07 362.9 260.77 364.58 262.57 366.1 262.1 367.19 263.61 369.21 265.44 370.63 267.44 372.75 269.79 377.26 276.66 377.62 278.9 379.51 284.27 379.83 284.35 379.79 285.37 379.27 285.96 378.24 285.99 377.37 292.44 377.02 293.32 386.38 295.17 389.48 295.52 394.81 295.94 399.82 297.88 396.46 300.93 392.81 305.12 392.17 307.81 391.35 309.37 389.19 312.02 388.04 313.67 386.78 316.52 389 317.09 391.72 318.82 394.84 320.21 397.76 322.22 400.34 323.32 402.93 319.79 405.38 314.91 406.96 313.18 409.33 311.93 412.63 314.94 415.65 318.09 416.23 317.76 419.13 320.12 421.81 322.12 422.37 322.32 425.43 320.45 425.5 326.9 426.95 331.07 427.9 335.01 426.83 336.65 426.33 338.37 427.31 340.89 427.38 349.22 423.85 349.42 421.77 350.36 419.47 350.86 414.73 351.56 414.54 347.63 412.06 343.95 409.28 344.4 408.31 345.67 407.12 346.55 407.09 350.73 402.99 351.05 401.64 352.54 395.25 353.29 394.1 359 388.59 358.61 384.75 358.56 379.18 356.85 377.18 359.78 374.79 359.44 373.17 360.75 375.42 361.63 378.76 362.46 384.62 363.29 385.91 363.64 385.5 364.61 384.45 365.83 382.64 365.15 380.2 364.55 379.07 366.66 379.21 367.7 374.39 367.02 374.87 365.73 372.22 364.29 371.59 364.4 369.95 365.55 364.38 360.62 363.47 361.09 363.85 363.18 364.42 363.87 362.75 367.61 362.74 368.78 361.52 369.85 362.41 370.71 363.41 372.6 362.87 374.28 364.75 375.39 367.12 376.27 366.94 377.56 369.04 378.52 369.71 379.75 368.92 380.7 369.25 381.31 371.31 382.14 370.87 383.38 369.42 382.96 367.05 382.73 365.24 382.34 362.13 379.99 359.14 377.46 357.58 375.82 353.22 370.4 351.38 367.19 350.49 367.47 348.35 364.57 351.47 361.27 351.59 357.43 347.28 358.81 344.18 357.87 341.43 355.21 Z" id="94078" data-nom="VILLENEUVE ST GEORGES"/>
<path d="M 615.67 146.66 615.08 146.53 615.09 146.51 614.01 145.77 611.61 144.78 611.01 146.21 601.54 145.33 591.77 145.74 590.43 144.86 589.51 144.99 589.45 145.01 586.63 145.68 585.21 145.93 584.37 145.42 579.08 145.48 573.47 145.02 573.25 147.32 571.35 147.44 568.88 147.61 568.62 146.29 567.89 144.98 566.09 143 565.2 142.51 563.4 143.32 565.35 145.53 566.01 146.76 565.92 147.58 566.47 148.58 565.9 148.64 564.51 148.83 563.44 148.99 563.14 149.06 562.83 148.75 562.77 148.76 562.46 148.82 561.45 149.06 556.61 150.26 553.8 146.81 551.32 144.31 550.53 142.79 547.52 140.46 545.12 139.4 540.36 137.84 535.62 136.86 531.04 136.31 526.99 136.02 523.62 135.37 519.29 134.33 515.38 134.2 508.09 133.65 504.21 133.56 497.82 133.88 492.79 134 491.47 133.92 484.03 132.89 475.14 131.35 467.57 129.53 462.36 128.6 456.81 127.99 451.54 127.11 446.63 126.01 451.52 119.61 452.72 110.79 452.89 109.07 451.06 109.05 443.07 99.89 444.02 96.05 442.33 96.21 441.15 90.43 439.4 90.54 439.26 89.67 435.17 81.52 437.74 81.01 443.75 80.19 449.72 79.62 453.25 79.1 457.67 79.07 459.54 79.31 464.82 80.25 467.44 80.4 471.61 80.37 474.43 80.14 479.7 80.53 484.75 80.54 489.46 80.91 492.19 80.95 494.38 81.14 497.17 81.63 500.14 82.36 502.34 82.59 511.34 83.89 515.26 84.75 518.66 85.77 517.7 86.64 520.38 87.79 525.78 89.17 531.32 88.2 536.17 87.19 539.08 86.75 544.39 84.76 547.04 86.28 551.31 83.69 554.52 85.98 560.19 88.56 563.2 90.48 560.82 90.67 560.51 95.44 561.23 96.51 564.65 96.62 565.03 97.84 565.77 98.66 565.26 101.43 564.83 102.24 563.22 105.35 566.54 106.22 566.55 106.21 567.78 106.38 568.77 105.98 572.24 105.91 573.09 106.19 575.1 105.9 576.31 106.72 577.91 107.19 581.33 108.81 582.47 109.65 583.34 110.48 583.76 110.94 584.04 111.3 584.33 111.75 584.44 111.93 584.6 112.24 584.71 112.48 584.89 113 584.9 113.04 584.95 113.25 584.99 113.41 585.52 113.43 587.98 113.44 588.75 116.69 591.6 115.98 598.84 114.57 603.43 113.34 605.32 112.22 607.14 111.81 609.28 111.75 611.12 110.58 613.15 109.9 615.14 109.52 621.6 109.29 623.8 109.46 624.97 109.87 626.42 111.43 627.57 112.13 629.24 112.63 636.33 112.92 636.62 112.77 639.97 113.7 642.7 112.32 644.51 111.75 646.17 111.6 647.45 112.28 653.58 115.89 655.9 117.34 661.64 120.56 668.71 124.79 667.52 125.67 666.92 127.74 665.49 128.86 661.57 130.59 659.61 130.9 650.29 140.91 650.46 141.2 650.06 141.42 643.36 140.31 639.49 139.81 638.01 141.54 638.89 143.15 639.22 144.51 638.69 148.18 631.03 152.78 629.92 152.68 623.16 151.43 621.57 150.97 619.63 150.09 616.54 148.28 615.67 146.66 Z" id="94017" data-nom="CHAMPIGNY SUR MARNE"/>
<path d="M 546.12 199.43 545.52 199.11 545.31 198.99 545.1 198.88 544.96 198.82 545.61 198.3 542.19 196.34 545.44 194.9 548.02 193.13 550.53 190.72 552.07 189 553.61 186.8 555.81 183.22 556.72 181.34 557.48 179.25 558.07 176.02 559.18 172.99 559.62 170.02 559.2 167.35 558.38 165.57 558.78 164.05 558.92 162.17 558.16 161.28 557.77 158.26 557.88 156.34 557.49 153.79 556.61 150.26 561.45 149.06 562.46 148.82 562.77 148.76 562.83 148.75 563.14 149.06 563.44 148.99 564.51 148.83 565.9 148.64 566.47 148.58 565.92 147.58 566.01 146.76 565.35 145.53 563.4 143.32 565.2 142.51 566.09 143 567.89 144.98 568.62 146.29 568.88 147.61 571.35 147.44 573.25 147.32 573.47 145.02 579.08 145.48 584.37 145.42 585.21 145.93 586.63 145.68 589.45 145.01 589.51 144.99 590.43 144.86 591.77 145.74 601.54 145.33 611.01 146.21 611.61 144.78 614.01 145.77 615.09 146.51 615.08 146.53 615.67 146.66 616.54 148.28 619.63 150.09 621.57 150.97 623.16 151.43 629.92 152.68 631.03 152.78 638.69 148.18 639.22 144.51 638.89 143.15 638.01 141.54 639.49 139.81 643.36 140.31 650.06 141.42 650.46 141.2 650.38 141.27 653.7 147.99 648.34 148.77 648.36 148.81 649.28 151.61 671.05 147.56 678.11 152.66 682.84 155.52 683.27 157.36 683.6 162.35 684.34 163.94 673.85 168.18 673.52 168.19 653.17 176.9 646.97 179.65 642.05 181.74 639.88 180.14 643.26 175.46 638.54 174.66 637.47 173.19 637.27 172.37 636.96 166.12 637.42 165.51 621.67 167.42 623.78 168.82 622.31 169.08 622.44 170.63 619.1 179.83 618.88 180.41 618.88 180.41 618.62 182.19 618.17 185.28 615.39 185.21 613.95 185.17 605.43 183.71 600.87 183.73 600.12 183.97 583.03 181.29 577.91 195.37 573.08 197.67 565 204.1 562.86 202.86 556.52 207.7 550.02 203.94 550.74 203.41 546.49 201.45 545.34 200.78 546.7 199.75 546.12 199.43 Z" id="94019" data-nom="CHENNEVIERES SUR MARNE"/>
<path d="M 413.22 59.48 410.64 56.48 408.54 54.65 406.58 53.34 403.13 51.6 400.65 50.65 397.2 49.67 393.46 48.87 387.53 47.83 382.62 47.18 374.15 46.15 370.55 45.55 362.78 44.62 363.05 42.25 362.59 42.22 363.11 39.41 367.16 39.77 371.68 40.45 388.56 43.38 388.83 42.24 384.76 40.17 385.17 38.64 383.7 38.06 384.69 34.48 383.97 34.4 384.73 32.06 383.09 31.54 378.77 31.05 373.44 29.8 371.14 29.14 368.16 28.61 367.17 29.61 360.98 28.1 362.9 25 361.98 24.58 365.49 21.97 375.41 17.93 378.51 17.09 382.57 16.32 388.16 15.67 397.89 15.23 409.39 14.16 413.62 14 412.46 9.37 412.79 9.24 412.67 6.18 411.89 4.98 415.64 3.48 418.49 3.14 419.75 3.2 429.03 4.63 434.55 4.53 435.85 4.01 437.57 3.95 442.11 4.86 448.46 4.96 449.29 3.73 450.62 1 451.71 1.17 459.44 2.83 463.94 3.55 468.68 2.99 468.95 3.69 474.91 3.06 475.26 4.23 476.38 6.39 478.37 5.28 481.44 4.15 483.24 3.7 483.78 4.55 488.2 3.42 490.9 7.25 485.51 8.13 485.81 9.29 487.98 13.04 490.17 16.25 491.65 15.52 496.43 14.11 498.21 16.17 491.38 18.2 490.1 19.19 490.01 20.27 487.95 22.15 487.9 23.56 482.85 26.25 481.06 26.81 481.7 30.41 481.59 34.39 475.93 35.56 476.41 36.82 472.13 38.53 472.02 38.58 469.6 39.78 467.73 40.25 466.7 40.82 465.3 40.98 465.94 42.1 463.4 43.23 463.32 45.34 460.89 45.99 461.52 48.28 460.69 48.82 457.12 49.04 454.71 50.96 452.05 50.89 446.06 52.17 444.38 48.01 440.11 49.52 438.05 49.97 437.87 50.74 436.78 52.17 436.02 54.07 428.54 56.95 427.11 55.5 426.16 51.8 416.99 54.74 419.13 57.07 413.22 59.48 Z" id="94033" data-nom="FONTENAY SOUS BOIS"/>
<path d="M 154.69 233.96 153.51 214.44 162.74 211.2 159.02 206.88 165.03 203.98 172.39 198.38 178.26 195.66 171.32 186.96 172.76 186.69 170.04 183.54 170.59 183.18 167.13 179.73 165.79 177.58 165.47 176.34 162.5 171.65 161.11 169.99 165.49 168.42 160.02 163.24 162.75 161.74 160.22 158.99 168.37 154.47 167.79 154.02 164.48 151.51 163.53 150.56 175.38 145.47 184.73 157.36 190.1 154.52 192.09 153.13 193.86 152.15 201.08 149.83 202.87 155.86 203.73 159.11 204.44 160.1 208.85 159.88 210.19 160.86 212.47 160.63 214.4 161.37 216.97 162.74 219.57 159.71 220.52 159.88 221.5 159.32 224.22 161.21 227.11 159.12 228.99 157.39 230.58 155.41 231.58 154.57 234.12 156.7 236.95 151.47 237.47 149.84 239.42 149.25 240.07 150.55 244.24 150.52 244.3 149.89 249.67 149.3 251.3 149.9 252.04 149.04 249.19 139.95 261.41 138.91 261.39 141.66 261.97 144.33 262.9 146.54 263.97 148.42 265.1 149.69 274.94 158.09 280.59 162.77 290.98 170.62 292.14 171.76 293.98 174.25 295.51 176.89 296.41 178.77 297.4 181.81 297.76 184.86 297.56 186.71 296.2 190.95 295.15 193.3 293.35 196.63 289.73 202.16 282.1 213.24 279 217.36 276.61 220.01 273.94 222.25 272.15 223.99 270.81 225.58 269.45 227.81 253.22 228.99 253.32 229.69 243.63 231.26 239.24 225.77 235.06 226.51 222.11 229.22 218.51 230.26 219.06 232.9 215.21 233.21 208.77 233.98 207.47 230.6 202.56 231.86 195.81 233.08 191.31 234.35 188.69 233.62 184.15 230.89 180.84 233.21 180.3 232.96 177.46 235.09 178.31 235.37 176.67 236.91 171.33 234.32 166.96 236.59 167.23 236.81 163.07 238.79 156.21 233.43 154.69 233.96 Z" id="94081" data-nom="VITRY SUR SEINE"/>
<path d="M 680.25 287.74 670.26 286.25 667.95 285.42 661.31 283.95 656.41 282.87 652.33 280.55 651.77 280.15 647.78 279.19 647.31 279.07 646.82 278.95 646.27 278.83 599.7 276.79 595.2 279.26 584.38 277.53 566.99 274.88 557.79 271.36 553.88 269.1 541.72 261.44 533.81 262.56 525.75 262.04 519.55 260.79 519.14 260.7 519.04 260.68 516.93 260.61 516.02 261.26 513.6 260.81 512.58 261.93 497.51 256.76 497.12 257.13 490.29 253.09 484.59 253.95 483.7 251.03 482.53 247.66 483.02 244.28 485.78 244.46 486.28 241.02 492.01 241.4 493.06 232.02 491.77 230.77 493.35 225.18 493.24 224.24 500.42 221.85 504.15 220.98 504.62 220.61 504.4 216.82 505.58 216.61 508.67 216.91 509.38 216.31 513.25 214.73 514.85 212.95 516.81 212.47 516.98 212.46 517.99 211.93 518.03 211.88 518.11 211.72 518.28 211.63 518.92 211.57 519.44 211.49 519.8 211.4 520.35 211.18 521.97 210.58 522.36 210.4 522.58 210.28 522.84 210.17 523.33 210.1 523.54 210.05 523.77 209.97 524.21 209.79 524.28 209.77 524.84 209.57 525.06 209.49 525.31 209.45 525.32 209.44 525.66 209.36 526.23 209.09 526.5 209.03 526.88 208.93 527.12 208.87 529.54 208.1 530.64 207.49 530.68 207.44 530.83 207.26 531.13 207.14 531.29 206.91 533.84 205.23 535.6 202.78 534.46 202.98 533.67 202.82 531.59 203.39 531.34 203.45 531.01 203.37 530.71 203.09 530.61 203.01 530.44 202.94 530.18 202.91 530.03 202.89 529.98 202.83 530.33 202.42 530.89 200.32 533.43 198.42 535.05 197.76 539.77 196.69 542.19 196.34 545.61 198.3 544.96 198.82 540.36 202.35 538.34 203.09 537.75 204.4 530.98 209.65 530.26 210.58 549.3 210.71 557.09 214.07 555.91 215.54 552.98 218.7 551.93 220.51 552.49 221.34 556.04 220.96 559.77 221.47 561.28 221.23 565.29 220.94 567.88 220.63 569.3 220.14 569.02 219.53 570 217.87 572.22 217.95 574.32 217.49 575.55 218.24 575.52 219.33 576.04 220.28 576.86 220.64 577.67 222.15 578.97 222.16 579.96 221.45 581.18 221.63 582.26 220.97 586.83 220.78 588.24 220.6 589.18 221.01 590.67 220.69 591.1 222.82 592.06 225.21 593.13 226.93 593.52 228.19 593.65 228.98 594.13 230.62 597.41 232.4 599.97 233.44 600.7 234.4 603.88 237.19 603.81 237.79 603.75 237.86 604.24 239.74 603.79 240.82 602.68 242.76 601.02 244.89 600.93 245.99 602.83 249.47 607.46 250.91 610.93 251.42 612.9 251.38 628.21 250.57 627.86 250.26 638.53 252.39 644.11 253.39 646.51 253.46 647.98 252.45 649.51 250.98 652.19 248.98 654.15 249.98 656.47 253.21 657.51 253.96 658.99 255.84 661.95 255.6 662.44 255.79 675.27 246.03 679.63 248.47 684.77 246.39 690.62 244.16 691.09 244.06 693.07 243.84 696.07 242.85 698.83 244.52 699.85 244.87 699.46 247.48 697.96 249.09 700.16 249.75 704.95 250.88 708.26 252.05 699.63 261.23 698.04 262.86 696.48 265.13 689.87 263.12 688.45 262.8 683.2 262.69 680.54 262.29 680.06 262.97 687.82 269.81 685.6 272.04 698.79 277.94 697.93 279.37 697.92 279.39 694.53 285.16 682.12 286.32 680.93 287.84 680.25 287.74 Z" id="94071" data-nom="SUCY EN BRIE"/>
<path d="M 310.03 53.18 312.03 43.69 311.73 42.7 309.1 42.49 286.83 40.52 287.63 32.7 296.72 33.31 314.57 34.36 315.26 28.39 320.32 28.74 322.41 28.17 323.34 28.17 328.25 28.99 328.29 27.79 328.95 24.88 329.96 22.36 335.45 23.79 336.25 22.75 339.29 23.27 345.35 23.3 349.01 23.6 350.96 24.45 348.85 26.17 350.42 26.45 351.91 26.23 353.94 26.37 360.98 28.1 367.17 29.61 368.16 28.61 371.14 29.14 373.44 29.8 378.77 31.05 383.09 31.54 384.73 32.06 383.97 34.4 384.69 34.48 383.7 38.06 385.17 38.64 384.76 40.17 388.83 42.24 388.56 43.38 371.68 40.45 367.16 39.77 363.11 39.41 362.59 42.22 363.05 42.25 362.78 44.62 359.04 44.29 359.41 42.22 353.12 41.92 347.75 41.86 344.35 41.73 343.7 45.8 337.02 45.23 335.06 54.78 325.92 53.99 325.82 54.52 310.03 53.18 Z" id="94080" data-nom="VINCENNES"/>
<path d="M 585.52 113.43 584.99 113.41 584.95 113.25 584.9 113.04 584.89 113 584.6 112.24 584.44 111.93 584.33 111.75 584.04 111.31 583.76 110.94 582.47 109.66 581.33 108.81 577.91 107.19 576.31 106.72 575.1 105.9 573.09 106.19 572.24 105.91 568.77 105.98 567.78 106.38 566.55 106.21 566.54 106.22 563.22 105.35 564.83 102.24 565.26 101.43 565.77 98.66 565.03 97.84 564.65 96.62 561.23 96.51 560.51 95.44 560.82 90.67 563.2 90.48 564.61 90.37 567.2 86.09 571.53 86.02 574.94 85.54 576.86 85.38 576.95 85.37 581.28 85 581.32 84.95 585.78 78.61 584.98 78.27 586.83 75.44 589.21 72.4 589.54 72.11 589.67 72 589.8 71.88 589.95 71.76 589.72 71.64 589.16 71.36 589.06 71.28 588.49 70.83 587.74 70.24 587.31 69.9 586.53 69.28 586.46 69.23 585.66 68.59 585.59 68.55 586.09 68.27 593.08 64.14 590.97 61.71 593.63 60.99 597.33 65.51 613.03 70.11 614.19 69.48 621.28 67.32 621.89 71.43 621.73 72.26 626.3 69.99 629.5 72.58 629.75 72.44 635.37 76.85 637.13 76.09 642.34 80.33 645.9 78.83 649.25 82.85 655.78 85.93 657.74 92.11 671.4 96.1 673.59 96.78 676.9 97.54 678.39 98.49 686.66 99.77 686.58 99.98 682.76 102.31 676.75 113.94 675.11 111.86 673.48 110.67 671.16 109.84 667.14 108.05 664.11 107.55 660.48 105.21 656.81 103.62 653.47 101.83 644.07 106.68 648.85 110.64 647.45 112.28 646.17 111.6 644.51 111.75 642.7 112.32 639.97 113.7 636.62 112.77 636.33 112.92 629.24 112.63 627.57 112.13 626.42 111.43 624.97 109.87 623.8 109.46 621.6 109.29 615.14 109.52 613.15 109.9 611.12 110.58 609.28 111.75 607.14 111.81 605.32 112.22 603.43 113.34 598.84 114.57 591.6 115.98 588.75 116.69 587.98 113.44 585.52 113.43 Z" id="94079" data-nom="VILLIERS SUR MARNE"/>
</g>
</svg>