<?xml version="1.0"?>
<svg xmlns="http://www.w3.org/2000/svg" version="1.2" baseProfile="tiny" width="800" height="1030" viewBox="0 0 800 1030" stroke-linecap="round" stroke-linejoin="round">
<g id="976">
<path d="M 71.46 316.81 70 316.81 67.55 311.09 67.55 302.01 103.51 271.34 103.5 260.27 108.73 260.27 108.75 249.89 103.49 249.89 103.49 247.95 60.41 247.96 60.41 224.85 82.94 224.85 82.9 213.93 87.33 213.93 87.35 185.06 95.02 185.06 96.35 186.68 97.35 187.9 118.64 213.89 130.53 216.6 142.46 219.33 145.56 219.6 184.76 223.07 203.41 224.3 215.2 225.06 216.17 225.12 216.37 225.14 219.79 225.36 219.98 225.37 219.96 225.79 219.2 242.92 219.17 243.53 219 247.37 218.59 256.22 218.35 261.62 218.13 266.75 217.9 271.74 217.89 272.07 214.74 272.29 209.41 272.66 208.59 272.71 197.11 273.52 196.05 273.59 188.83 274.1 181.02 274.64 174.84 275.07 172.56 275.23 133.16 277.97 122.51 284.67 106 295.07 100.9 298.28 98.51 299.79 90.85 304.6 80.8 310.93 71.46 316.81 Z" id="97601" data-nom="ACOUA"/>
<path d="M 293.93 575.98 293.84 575.62 293.62 575.39 292.98 575.18 292.8 575.15 292.62 575.1 292.46 575.1 292.27 575.11 283.27 575.11 239.84 564.55 232.25 559.52 239.04 536.47 242.35 532.81 240.15 521.29 248.26 517.85 246.45 502.51 235.76 494.67 229.37 484.29 229 468.54 231.45 468.54 274.32 480.91 282.4 483.24 294.09 486.62 296.15 498.33 296.22 498.73 296.63 501.08 296.74 501.73 297.33 505.11 297.94 508.59 300.76 524.7 300.86 525.23 301.2 527.2 301.61 529.5 302.37 533.88 305.02 548.98 304.19 549.74 304.54 550.17 302.98 553.97 301.07 558.62 300.05 561.09 297.75 566.68 296.91 568.72 295.01 573.33 294.43 574.74 294.39 574.85 293.93 575.98 Z" id="97605" data-nom="CHICONI"/>
<path d="M 306.89 841.12 304.58 844.42 301.76 848.43 294.51 858.76 294.38 858.95 294.29 859.08 292.21 862.04 292.04 862.28 286.76 869.8 285.03 870.28 281.59 871.24 271.14 874.16 247.92 880.64 245.45 883.16 244.82 883.8 242.25 886.42 240.08 888.64 239.54 889.19 238.48 890.27 231.77 897.13 229.68 899.25 225.54 903.48 213.36 915.93 199.37 917.7 189.47 918.95 185.3 919.49 185.3 924.47 169.92 924.47 169.92 919.89 202.37 901.65 216.21 895.93 230.82 876.81 233.8 873.72 234.18 860.33 235.96 848.22 241.96 835.45 235.95 824.74 227.77 819.09 223.53 818.35 217.8 821.58 196.56 832.33 193.84 829.66 196.56 824.75 200.5 824.16 200.35 817.62 191.47 809.16 183.81 809.16 180.6 796.93 176.45 793.79 175.59 784.1 172.32 781.85 170.4 768.72 163.59 756.81 156.03 752.12 150.19 752.59 149.52 743.07 174.22 739.91 214.22 738.96 231.97 741.71 233.32 750.1 240.54 755.74 239.45 767.21 240.74 796.49 248.04 807.39 250.19 811.96 302.83 828.31 306.89 841.12 Z" id="97604" data-nom="BOUENI"/>
<path d="M 654.31 389.31 654.3 375.36 685.06 375.28 685.08 389.28 654.31 389.31 Z M 716.47 444.07 715.46 444.07 691.5 428.34 685.88 429.85 683.52 427.99 683.55 421.79 678.72 418.43 669.91 417.74 666.06 414.75 669.72 407.37 675.92 407.36 687.82 420.99 706.02 432.25 706.93 424.85 715.27 417.44 710.59 412.87 695.56 412.88 695.55 406.42 729.72 376.92 753.25 344.69 760.46 349.04 774.14 368.54 780.34 374.86 781.51 392.47 791.28 398.9 799 419.32 796.47 423.07 791.87 423.08 787.1 418.41 784.52 418.07 783.95 417.96 782.62 417.72 782.12 417.72 780.47 417.93 780.22 418.14 777.93 419.01 773.07 421.04 771.11 422.38 769.88 423.16 738.97 433.32 738.7 433.41 737.27 433.88 737.08 433.94 734.88 434.66 734.43 434.81 734.34 434.84 733.87 434.99 732.49 435.45 731.46 435.78 731.2 435.87 727.16 437.2 717.71 441 716.47 444.07 Z" fill-rule="evenodd" id="97608" data-nom="DZAOUDZI"/>
<path d="M 616.45 329.56 617.97 329.56 619.69 331.94 619.47 334.59 614.92 339.4 616.74 342.52 619.84 350.22 626.82 351.16 627.9 353.93 627.88 358.19 624.88 360.18 621.72 359.75 616.79 363.86 616.79 365.72 618.13 370.17 613.67 380.94 612.41 388.4 599.94 389.32 599.03 390.67 610.98 395.63 608.17 405.99 613.4 410.52 617.78 409.68 620.99 409.97 623.46 412.36 622.19 420.79 618.75 424.29 616.62 424.86 613.63 423.65 614.18 419.05 611.9 416.82 602.05 418.9 602.06 425.43 590.83 425.44 580.96 437.87 572.46 443.94 565.3 450.25 562.41 449.23 560.45 457.03 562.08 463.15 555.4 471.51 542.3 483.25 539.81 483.25 527.28 494.44 529.78 498.13 526.65 504.73 528.84 509.48 526.25 513.92 526.26 519.06 516.95 523.02 512.22 526.04 508.31 526.04 498.69 524.63 497.92 524.52 497.09 524.39 494.92 524.08 492.79 523.76 492.33 523.7 488.67 523.16 488.33 523.11 483.6 522.41 463.94 519.52 456 518.36 424.9 518.42 412.27 518.45 399.57 518.47 386.86 518.5 381.64 482.67 380.51 475.08 380.63 474.92 392.99 458.6 407.76 439.1 409.59 435.19 415.54 424.87 422.89 411.41 424.51 408.46 432.11 394.2 436.9 385.89 438.76 361.56 462.49 365.12 509.72 366.6 511.61 366.66 522.67 362.91 531.67 359.86 547.3 356.18 555.99 352.84 562.1 350.49 567.74 348.31 571.79 346.75 575.05 345.5 576.47 344.95 589.98 339.76 591.32 339.24 591.74 339.08 592.01 338.97 592.43 338.81 592.86 338.64 593.45 338.42 594.54 338 594.87 337.87 595.22 337.73 595.44 337.65 595.94 337.46 596.04 337.42 596.2 337.35 596.34 337.3 596.4 337.28 596.49 337.25 597.36 336.91 597.43 336.88 597.84 336.72 597.87 336.71 597.95 336.68 598.3 336.55 598.57 336.45 598.77 336.37 599.18 336.21 599.28 336.17 599.4 336.12 600.66 335.64 601.03 335.5 601.44 335.34 601.8 335.2 602.63 334.88 602.78 334.82 603.49 334.55 603.95 334.37 604.2 334.27 605.02 333.96 605.24 333.88 605.57 333.75 606.04 333.57 608.55 332.6 612.65 331.02 614.67 330.25 616.45 329.56 Z M 657.94 347.04 649.62 347.04 649.62 339.23 659.48 339.22 659.48 347.03 657.94 347.04 Z M 594.56 513.87 594.52 471.48 631.82 471.44 631.86 513.83 594.56 513.87 Z" fill-rule="evenodd" id="97611" data-nom="MAMOUDZOU"/>
<path d="M 384.92 673.04 381.15 671.51 359.17 662.58 340.38 659.61 318.92 653.46 312.64 629.56 311.66 625.82 309.76 620.42 304.15 604.57 300.64 594.72 299.65 591.94 297.26 585.27 296.34 582.71 296.11 582.08 296.02 581.81 294.93 578.79 294.87 578.6 294.82 578.46 294.08 576.4 293.93 575.98 294 575.81 294.43 574.76 294.43 574.74 295.01 573.33 296.91 568.72 297.75 566.68 300.05 561.09 301.07 558.62 302.98 553.97 304.54 550.17 304.19 549.74 305.05 549.39 305.02 548.98 302.37 533.88 301.61 529.5 301.2 527.2 300.86 525.23 300.76 524.7 297.94 508.59 297.33 505.11 296.74 501.73 296.63 501.08 296.22 498.73 296.15 498.33 294.09 486.62 296.71 487.07 304.41 488.41 305.86 488.67 309.82 489.35 311.32 489.62 325.17 492.03 338 488.1 345.52 485.8 346.94 485.36 351 484.12 357.04 482.27 362.31 480.66 375.72 476.55 380.33 475.11 380.49 475.06 380.49 475.04 380.52 475.05 380.54 475.05 380.54 475.07 380.56 475.08 380.54 475.09 386.87 518.49 379.59 525.11 378.84 525.79 368.14 535.52 358.41 544.37 347.53 554.27 344.95 556.62 344.77 556.78 343.36 558.06 341.81 559.47 341.75 559.46 341.66 559.87 341.82 559.51 341.87 559.52 342.14 559.54 342.37 559.56 342.92 559.62 343.76 559.73 346.14 560.18 347.38 560.6 352.41 563.47 353.49 564.83 353.93 566.56 355.69 566.06 357.38 566.8 358.85 566.15 360.39 564.53 363.95 574.34 369.55 589.79 370.87 593.42 371.27 594.52 375.5 606.19 376.06 610.17 376.12 610.58 377.85 622.87 378.95 630.66 379.82 636.88 384.9 672.91 384.92 673.04 Z" id="97614" data-nom="OUANGANI"/>
<path d="M 516.62 838.3 517.87 838.25 521.43 840 521.84 843.02 521.15 845.03 514.25 841.24 510.52 838.5 511.84 837.27 516.62 838.3 Z M 607.05 732.97 610.33 735.49 611.42 738.62 610.61 740.53 611.15 742.74 609.32 745.34 606.39 746.64 606.42 749.56 604.73 750.74 603.4 747.86 598.78 744.1 599.74 740.76 599.88 736.8 601.48 733.11 603.47 732.33 607.05 732.97 Z M 392.45 970.54 390.31 970.5 359.41 969.85 358.45 966.76 356.88 961.7 354.47 953.93 347.51 931.46 380 924.08 391.1 921.56 391.21 921.16 398.87 895.06 400.44 887.09 403.75 870.31 404.02 868.96 404.19 868.1 405.73 860.3 405.88 859.53 408 848.79 408.26 847.49 408.74 845.01 412.9 823.96 414.55 815.94 416.71 805.47 416.75 805.3 421.45 782.5 420.23 773.37 420.17 772.88 419.24 765.96 418.99 764.07 415.14 735.32 413.18 720.66 409 689.42 427.49 692.55 452.41 707.95 476.13 707.6 497.85 704.91 513.43 699.22 518.75 696.54 524.22 693.79 544.07 683.8 553.75 678.93 555.37 678.12 556.74 677.43 569.32 671.1 574.64 668.42 576.84 667.31 578.19 667.31 578.19 670.86 568.55 679.72 561.53 699.93 565.81 699.93 565.82 707.3 539.12 726.27 537.89 726.28 513.87 737.98 502.07 764.48 507 765 507.01 782.91 509.94 787.01 515.59 787 538.24 803.79 538.24 806.75 502.96 806.78 502.96 799.81 483.97 795.16 473.97 806.8 473.98 820.39 456.71 820.41 446.77 841.24 454.1 851.05 458.03 856.72 458.65 869.32 442.19 868.27 442.03 872.11 432.28 880.46 436.86 893.8 446.57 905.05 451.25 921.44 454.83 931.85 473.97 942.59 482.65 942.59 501.71 957.91 521.93 953.24 528.42 957.1 516.85 974.83 496.88 995.09 482.3 989.46 460.23 987.53 451.59 1002.51 458.3 1015.21 445.02 1015.46 440.05 985.39 422.02 960.6 404.12 961.21 404.13 968.63 395.56 973.63 392.45 970.54 Z" fill-rule="evenodd" id="97603" data-nom="BANDRELE"/>
<path d="M 398.39 356.65 384.14 353.92 378.39 352.81 371.72 351.53 371.42 351.47 371.29 351.45 369.83 351.17 368.55 350.92 368.42 350.89 367.6 350.74 366.6 350.51 363.81 349.77 349.34 345.93 327.6 340.17 307.24 334.78 304.73 334.11 289.31 327.23 274.96 320.82 274.85 320.79 274.66 320.69 264.92 314.32 264 313.72 254.61 307.59 254.07 307.24 246.93 302.58 244.6 301.06 238.04 296.78 234.79 294.66 233.93 294.1 233.58 293.63 227 284.58 217.89 272.07 217.9 271.74 218.13 266.75 218.35 261.62 218.59 256.22 219 247.37 219.17 243.53 219.2 242.92 219.96 225.79 223.43 215.82 225.24 210.8 225.05 210.39 223.15 206.16 222.32 204.31 199.86 154.39 208.48 133.93 209.22 132.13 210.22 129.76 211.58 126.52 213.02 123.08 213.98 120.82 215 118.39 216.28 115.34 219.11 108.6 221.31 103.37 224.8 104.58 223.89 107.43 226.32 110.44 229.75 111.36 232.1 110.92 235.47 111.24 238.82 114.39 240.79 114.55 244.91 113.64 242.11 117.91 240.69 120.83 234.73 125 236.25 129.55 237.96 132.73 239.4 133.9 244.92 133.63 248.94 133.08 252.38 131.64 254.71 132.23 255.39 135.27 257.24 139.94 258.31 140.63 261.16 140.5 265.74 141.19 267.88 144.16 270.33 146.42 270.61 147.79 265.8 147.78 263.96 149.04 263.41 152.32 263.65 155.53 264.69 158.29 266.7 161.41 268.89 163.61 270.1 165.92 273.09 168.36 278.07 169.53 279.75 169.53 282.86 171.93 285.88 173.04 289.82 176.12 297.14 178.82 299.49 180.39 302.21 181.29 306.59 183.58 311.84 184.21 314.55 183.42 316.31 181.35 318.24 181.59 318.17 189.28 318.72 191.88 314.4 191.52 312.07 189 305.26 186.47 302.74 188.46 302.16 190 300.22 191.89 298.19 195.38 296.27 195.9 297.24 197.93 298.11 202.33 298.9 209.1 300.52 212.96 302.42 214.44 305.31 214.86 307.55 216.01 311.71 221.18 314.94 223.19 317.22 230.2 316.07 233.35 314.51 234.22 315.35 237.69 318.04 241.37 316.75 243.09 311.34 244.45 309.55 246.27 309.4 248.96 306.29 249.6 306.28 252.39 303.86 257.64 307.62 258.76 311.27 259.05 314.65 257.71 315.76 258.41 317.38 261.83 317.75 264.8 319.5 267.84 322.71 264.33 324.17 264.84 327.6 269.05 329.19 269.25 330.55 267.92 335.37 268.71 337.98 268.07 339.66 270.79 340.95 270.5 343.35 272.51 348.66 273.95 350.7 275.39 352.56 271.69 356.27 270.93 357.4 268.17 355.25 263.69 354 262.64 348.53 263.3 346.47 262.73 347.64 259.25 353.17 260.56 359.36 261.21 363.05 259.46 368.37 280.24 373.03 295.91 374.39 300.43 374.54 300.79 375.68 303.45 376.02 304.26 376.51 305.39 376.58 305.57 378.63 310.36 378.7 310.53 378.94 311.1 379.11 311.49 383.29 321.29 389.49 335.8 391.75 341.1 398.39 356.65 Z" id="97602" data-nom="BANDRABOUA"/>
<path d="M 342.79 806.09 344.81 803.87 347.42 800 349.39 794.73 352.93 796.46 355.08 799.8 355.78 803.08 351.67 806.72 350.6 809.1 349.4 809.77 347.71 807.98 343.53 807.44 342.79 806.09 Z M 347.51 931.46 328.86 906.27 328.72 906.08 322.25 900.48 318.22 897.01 313.4 892.83 298.94 880.33 295.73 877.56 295.41 877.28 286.76 869.8 292.04 862.28 292.21 862.04 294.29 859.08 294.38 858.95 294.51 858.76 301.76 848.43 304.58 844.42 306.89 841.12 308.44 841.2 310.09 842.71 315.41 845.56 321.11 847.96 324.79 847.81 329.09 848.75 335.29 848.77 337.85 851.27 340 847.79 344.33 848.66 350.76 848.42 357.98 846.89 360.59 847.4 363.86 845.06 365.09 841.48 369.68 839.49 370.2 840.31 374.4 835.5 377.64 832.51 376.75 830.57 376.64 826.88 378.24 822.24 381.36 819.95 384.86 815.27 386.15 811.26 385.99 809.39 382.98 805.23 382.37 800.93 383.35 798.92 383.22 793.82 380.42 791.33 377.53 789.78 373.98 785.32 372 780.2 369.81 778.08 368.98 774.27 370.47 771.66 369.62 767.29 367.05 767.06 365.81 767.74 361.5 765.56 358.42 760.25 356.55 758.47 357.61 754.36 360.31 750.29 360.72 748.28 358.7 746.96 355.07 740.55 351.02 735.46 347.3 729.85 346.1 730.59 346.63 736.69 348.69 739.57 353.09 743 352.03 744.12 349.8 744.53 347.76 742.77 345.91 739.67 345.74 734.52 344.39 730.36 341.58 728.42 341.4 726.95 339.53 725.02 339.09 719.74 336.47 718.33 335.19 716.61 333.28 716.65 330.92 715.32 327.63 715.11 324.88 713.85 322.99 714.51 323.92 711.56 324.86 708.62 325.05 708.01 328.29 697.78 328.68 696.54 328.76 696.29 331.79 686.73 335.06 676.43 337.73 667.97 340.38 659.61 359.17 662.58 381.15 671.51 384.92 673.04 385.08 673.02 409 689.42 413.18 720.66 415.14 735.32 418.99 764.07 419.24 765.96 420.17 772.88 420.23 773.37 421.45 782.5 416.75 805.3 416.71 805.47 414.55 815.94 412.9 823.96 408.74 845.01 408.26 847.49 408 848.79 405.88 859.53 405.73 860.3 404.19 868.1 404.02 868.96 403.75 870.31 400.44 887.09 398.87 895.06 391.21 921.16 391.1 921.56 380 924.08 347.51 931.46 Z" fill-rule="evenodd" id="97606" data-nom="CHIRONGUI"/>
<path d="M 409 689.42 385.08 673.02 384.83 672.87 379.82 636.88 378.95 630.66 377.85 622.87 376.12 610.58 376.06 610.17 375.5 606.19 371.27 594.52 370.87 593.42 369.55 589.79 363.95 574.34 360.39 564.53 358.71 566.57 357.67 567.04 356.35 566.37 353.9 566.81 352.64 563.86 347.24 560.72 343.56 559.87 342.88 559.79 341.61 559.67 341.74 559.55 341.82 559.51 341.85 559.44 341.87 559.41 343.36 558.06 343.81 557.66 344.77 556.78 344.95 556.62 347.53 554.27 358.41 544.37 368.14 535.52 372.61 531.46 378.84 525.8 386.87 518.49 456 518.35 463.94 519.52 483.6 522.41 488.33 523.11 488.67 523.16 492.33 523.7 492.79 523.76 494.92 524.08 497.09 524.39 497.92 524.52 498.69 524.63 504.68 525.51 508.31 526.04 502.95 528.26 500.52 531.34 499.32 531.99 495.27 540.06 491.98 547.93 493.07 551.97 497.88 550.3 501.7 551.15 505.87 549.42 507.92 549.55 504.47 556.88 500.36 559.58 496.65 561.02 494.06 565.8 492.25 567.19 487.39 568.16 486.32 568.96 484.45 572.28 481.8 572.33 474.13 571.07 474.08 573.26 475.24 574.81 475.32 576.89 474.34 578.59 475.58 580.14 475.35 584.11 479.84 587.2 483.58 585.67 486.63 582.77 488.39 582.72 489.86 583.84 491.77 583.6 494.55 584.85 496.07 587.3 498.4 588.59 497.48 591.69 500.92 592.04 499.92 594.84 499.47 600.42 500.25 603.58 503.9 607.08 504.98 608.71 505.88 613.46 505.24 614.96 506.69 618 510.4 620.77 512.14 617.32 514.07 615.82 516.57 616.17 517.29 619.23 519.1 622.51 520.49 623.73 521.52 629.68 520.98 632.62 517.12 634.62 519.7 636.58 518.93 639.8 522.01 641.17 528.66 641.81 529.92 639.67 533.31 643.03 535.71 642.4 539.37 642.96 543.31 639.35 547.77 640.45 550.78 642.73 547.03 647.77 545.08 654.23 543.23 657.29 544.13 660.76 548.98 666.73 554.02 670.95 557.45 669.99 560.91 667.53 568.19 664.61 573.07 663.87 576.51 664.94 576.84 667.31 574.64 668.42 569.32 671.1 556.74 677.43 555.37 678.12 553.75 678.93 544.07 683.8 524.22 693.79 518.75 696.54 513.45 699.2 497.85 704.91 476.13 707.6 452.41 707.95 427.49 692.55 409 689.42 Z M 600.59 576.44 600.55 533.07 669.81 533.01 669.86 576.38 600.59 576.44 Z" fill-rule="evenodd" id="97607" data-nom="DEMBENI"/>
<path d="M 236.67 399.81 236.81 395.27 235.72 390.78 237.06 388.32 241.15 387.72 241.42 384.68 239.35 379.09 237.68 377 237.52 373.47 238.17 369.66 233.03 366.16 230.23 365.04 226.4 365.64 223.02 369.39 222.22 368.27 219.96 367.93 219.42 369.09 216.99 370.61 218.9 372.43 218.01 374.77 217.45 379.19 215.08 380.77 212.12 381.05 210.4 382.26 208.35 380.42 208.36 377.41 199.6 370.07 197.96 370.25 195.42 364.96 189.59 363.8 190.3 365.25 184.75 363.57 179.66 361.63 177.36 361.24 176.33 364.07 174.37 365.73 172.77 369.53 166.78 368.63 163.33 366.23 161.66 366.3 160.11 364.71 158 364.8 158.71 362.01 157.16 359.32 155.36 354.83 150.69 354.08 147.28 349.7 146.07 349.42 143.44 346.62 140.12 344.92 136.88 345.12 134.7 342.89 131.98 341.67 132.32 338.61 131.85 336.69 129.26 331.72 127.06 331.14 126.54 328.31 119.43 324.77 115.91 324.87 115.07 326.7 109.76 325.79 106.27 326.13 102.58 327.79 103.18 330.13 101.97 334.17 99.61 336.57 95.35 339.3 94.14 337.83 91.63 332.42 89.81 330.9 90.36 327.36 87.71 324.81 84.88 324.99 82.48 325.97 79.49 324 76.23 320.34 74.43 320.37 71.46 316.81 80.8 310.93 90.85 304.6 98.51 299.79 100.9 298.28 106 295.07 122.51 284.67 133.16 277.97 172.56 275.23 174.84 275.07 181.02 274.64 188.83 274.1 196.05 273.59 197.11 273.52 208.59 272.71 209.41 272.66 214.74 272.29 217.89 272.07 227 284.58 233.58 293.63 233.93 294.1 234.79 294.66 238.04 296.78 244.6 301.06 246.93 302.58 254.07 307.24 254.61 307.59 264 313.72 264.92 314.32 274.43 320.52 274.96 320.82 304.73 334.11 303.3 335.5 296.06 342.48 286.54 351.67 263.31 374.09 254.92 382.19 249.4 387.52 246.34 390.48 243.22 393.48 239.03 397.53 236.67 399.81 Z" id="97613" data-nom="M&apos;TSANGAMOUJI"/>
<path d="M 716.47 444.07 717.71 441 727.16 437.2 731.2 435.87 731.46 435.78 732.49 435.45 733.87 434.99 734.34 434.84 734.43 434.81 734.88 434.66 737.08 433.94 737.27 433.88 738.7 433.41 738.97 433.32 769.88 423.16 771.11 422.38 773.07 421.04 777.93 419.01 780.22 418.14 780.47 417.93 782.12 417.72 782.62 417.72 783.95 417.96 784.52 418.07 787.1 418.41 791.87 423.08 798.3 447.25 782.45 465.8 766.49 467.61 763.49 494.1 775.25 525.8 755.97 525.82 736.48 503.05 730.27 469.63 720.3 462.02 714.08 444.1 716.47 444.07 Z" id="97615" data-nom="PAMANDZI"/>
<path d="M 311.32 489.62 309.82 489.35 305.86 488.67 304.41 488.41 296.71 487.07 294.09 486.62 282.4 483.24 274.32 480.91 231.45 468.54 229.24 468.54 232.77 451.56 247.43 448.35 247.43 445.02 226.6 445.07 220.81 439.2 222.03 426.39 218.61 426.39 213.13 418.16 231.66 399.81 236.67 399.81 239.03 397.53 243.22 393.48 246.34 390.48 249.4 387.52 254.92 382.19 263.31 374.09 286.54 351.67 296.06 342.48 303.3 335.5 304.73 334.11 307.24 334.78 327.6 340.17 349.34 345.93 363.81 349.77 366.6 350.51 367.6 350.74 368.42 350.89 368.55 350.92 369.83 351.17 371.29 351.45 371.42 351.47 371.72 351.53 378.39 352.81 384.14 353.92 398.39 356.65 438.76 361.56 436.9 385.89 432.11 394.2 424.51 408.46 422.89 411.41 415.54 424.87 409.59 435.19 407.76 439.1 393.15 458.53 392.97 458.61 380.63 474.92 380.51 475.08 375.72 476.55 362.31 480.66 357.04 482.27 351 484.12 346.94 485.36 345.52 485.8 338 488.1 325.17 492.03 311.32 489.62 Z" id="97617" data-nom="TSINGONI"/>
<path d="M 201.29 591.75 204.27 591.71 204.52 596.09 202.46 597.4 199.01 596.77 198.6 594.79 201.29 591.75 Z M 292.27 575.11 292.46 575.1 292.62 575.1 292.8 575.15 292.98 575.18 293.62 575.39 293.84 575.62 293.93 575.98 293.94 576.03 294.08 576.4 294.82 578.46 294.87 578.6 294.93 578.79 296.02 581.81 296.11 582.08 296.34 582.71 297.26 585.27 299.65 591.94 300.64 594.72 304.15 604.57 309.76 620.42 311.66 625.82 312.64 629.56 318.92 653.46 340.38 659.61 337.73 667.97 335.06 676.43 331.79 686.73 328.76 696.29 328.68 696.54 328.29 697.78 325.05 708.01 324.86 708.62 323.92 711.56 322.99 714.51 318.36 714.51 313.64 705.75 305.14 698.09 296.74 698.44 287.01 684.42 280.82 683.03 270.19 662.26 265.55 647.62 262.29 646.85 243.59 644.07 231.41 635.98 230.76 633.02 229.19 633.02 222 623.41 216.35 617 211.36 615.46 208.25 609.85 213.71 604.4 220.66 606.14 221.44 607.62 223.95 605.9 229.15 601.08 234.17 595.18 234.16 590.24 239.01 585.31 259.05 586.22 271.52 587 276.23 586.83 277.49 586.2 278.69 582.29 281.04 579.84 285.44 576.35 288.37 575.11 292.27 575.11 Z" fill-rule="evenodd" id="97616" data-nom="SADA"/>
<path d="M 509.72 366.6 462.49 365.12 438.76 361.56 398.39 356.65 391.75 341.1 389.49 335.8 383.29 321.29 379.11 311.49 378.94 311.1 378.7 310.53 378.63 310.36 376.58 305.57 376.51 305.39 376.02 304.26 375.68 303.45 374.54 300.79 374.39 300.43 373.03 295.91 368.37 280.24 363.05 259.46 366.37 260.79 367.3 260 371.04 261.13 375.37 262.94 373.22 267.34 373.07 271.7 374.18 273.74 375.17 278.15 378.28 280.01 382.79 281.72 383.89 284.12 386.96 284.04 388.86 282.42 391.01 282.35 393.15 280.52 398.55 277.93 400.13 274.62 403.52 270.43 407.31 269.41 407.63 265.65 405.85 260.76 405.84 259.14 408.68 257.97 409.49 256.92 414.2 255.33 417.09 252.91 413.55 252.2 411.18 249.02 410.76 246.31 412.31 245.62 417.75 246.16 417.88 248.48 420.51 248.48 421.66 242.65 420.5 241.98 415.45 240.8 413.46 239.56 411.78 236.65 416.41 232.71 417.77 229.11 419.38 229.86 434.83 252.1 429.4 252.35 431.11 254.21 436.26 257.58 439.13 257.44 442.67 261.28 447.44 263.03 448.33 264.77 456.87 266.04 458.95 264.46 458.93 262.15 462.61 261.28 462.55 259.9 467.11 256.51 472.59 257.9 472.88 261.81 473.76 263.19 476.17 264.17 479.97 263.28 481.63 264.03 484.06 263.38 485.18 259.99 487.44 262.07 491.47 263.45 493.99 262.95 493.84 264.78 497.03 267.13 503.94 268.33 506.55 265.84 509.69 265.96 511.4 268.71 516.61 267.81 517.32 265.61 518.91 263.85 521.27 266.01 523.7 266.34 525.78 265.77 527.36 267.43 530.86 268.3 530.96 271.17 534.11 272.59 533.01 276.41 534.48 278.14 540.45 280.3 542.12 279.79 543.75 280.84 546.56 281.11 548.63 278.79 549 276.41 551.21 274.51 550.76 272.01 552.46 271.35 555.71 274.93 553.61 278.32 553.51 281.86 548.25 285.82 548.27 289.83 550.72 292.82 552.98 296.42 557.72 299.14 559.79 299.62 565.8 298.12 566.83 298.77 568.4 302.52 571.33 304.63 574.26 306.02 577.18 306.53 578.93 305.77 583.52 305.77 585.1 303.05 586.17 303.03 588.27 305.05 589.45 307.09 588.32 308.23 590.41 311.61 594.44 315.2 593.42 318.64 596.13 322.48 600.61 324.64 604.75 328.69 608.52 329.72 611.44 327.07 615.05 326.73 616.45 329.56 614.67 330.25 612.65 331.02 608.55 332.6 606.04 333.57 605.57 333.75 605.24 333.88 605.02 333.96 604.2 334.27 603.95 334.37 603.49 334.55 602.78 334.82 602.63 334.88 601.8 335.2 601.44 335.34 601.03 335.5 600.66 335.64 599.4 336.12 599.28 336.17 599.18 336.21 598.77 336.37 598.57 336.45 598.3 336.55 597.95 336.68 597.87 336.71 597.84 336.72 597.43 336.88 597.36 336.91 596.49 337.25 596.4 337.28 596.34 337.3 596.2 337.35 596.04 337.42 595.94 337.46 595.44 337.65 595.22 337.73 594.87 337.87 594.54 338 593.45 338.42 592.86 338.64 592.43 338.81 592.01 338.97 591.74 339.08 591.32 339.24 589.98 339.76 576.47 344.95 575.05 345.5 571.79 346.75 567.74 348.31 562.1 350.49 555.99 352.84 547.3 356.18 531.67 359.86 522.67 362.91 511.62 366.66 509.72 366.6 Z" id="97610" data-nom="KOUNGOU"/>
<path d="M 29.16 54.28 28.06 59.07 25.54 61.99 25.1 58.71 28.16 54.28 29.16 54.28 Z M 30.46 53.32 32.87 49.91 35.01 44.84 34.62 41.67 30.77 37.53 27.81 35.02 19.82 30.07 15.72 28.59 13.52 29.21 11.2 32.13 8.97 32.5 6.99 31.45 3.67 31.49 1.9 30.14 3.31 26.58 1 22.94 1.38 19.9 2.56 19.34 6.64 19.34 8.66 17.92 10.95 17.29 13.96 15.28 19.08 10.63 20.16 8.77 20.51 4.96 24.36 1 33.52 5.06 36.16 6.99 38.45 7.46 43.11 10.58 46.02 15.82 48.96 17.28 54.46 21.64 54.77 22.73 60.51 27.02 62.5 29.03 64.64 29.58 66.8 31.1 67.9 33.56 65.93 36.04 63.29 36.79 60.06 38.88 55.44 39.52 51.95 40.67 50.14 43.34 48.34 44.82 45.51 49.19 42 55.5 39.35 55.82 37.32 55.23 34.79 53.56 30.46 53.32 Z M 88.95 104.1 83.62 102.19 80.84 100.55 86.69 99.08 89.19 103.47 88.95 104.1 Z M 105.16 114.16 108.21 114.41 110.14 112.31 112.56 112.57 115 111.79 115.54 110.57 117.71 111.42 116.76 114.11 113.69 116.54 109.14 116.99 105.16 114.16 Z M 219.98 225.37 219.79 225.36 216.37 225.14 216.17 225.12 215.2 225.06 203.41 224.3 184.76 223.07 145.56 219.6 142.46 219.33 130.53 216.6 118.64 213.89 97.35 187.9 96.35 186.68 95.02 185.06 95.49 183.67 95.05 180.59 97.91 179.57 100.39 180.02 104.4 184.18 106.87 183.61 108.29 184.54 112.23 184.72 114.65 182.91 117.86 182.55 119.6 184.2 121.85 183.37 123.78 185.49 125.23 185.52 129.11 183.11 130.56 180.95 133.29 181.21 135.8 180.72 138.26 178.91 141.59 174.45 144.96 171.16 144.94 168.79 142.14 167.06 141.35 163.12 144.3 164.72 144.79 166.13 147.04 166.82 148.85 165.47 152.05 159.13 154.54 157.36 156.55 152.98 157.06 147.24 156.53 142.17 155.17 138.74 152.08 136.64 148.96 133.72 143.57 134.85 137.92 130.34 136.95 127.52 138.22 126.54 140.68 128.35 145.47 129.18 147.56 130.52 155.2 133.56 160.66 133.47 163.54 132.52 164.23 134.16 167.02 134.04 172.59 131.89 176.26 129.56 177.03 128.49 181.2 125.58 181.88 123.87 184.08 122.06 184.87 120.09 183.65 117.42 183.42 114.38 181.7 112.01 181.14 107.11 182.17 106.89 183.13 104.49 181.81 100.66 182.61 98.75 184.47 97.65 187.49 98.47 190.54 96.23 191.44 94.7 190.33 92.17 191.27 88.33 190.86 86.97 192.33 85.24 197.17 85.51 200.96 84.2 203.27 82.88 205.87 82.32 210.19 79.09 213.44 74.4 213.97 68.8 211.09 64.21 211.57 61.12 216.63 63.49 218.86 64 222.89 63.71 227.66 61.18 229.59 58.6 234.09 57.45 235.14 55.8 237.05 55.03 237.86 51.76 241.34 49.66 242.28 48.48 242.35 46.01 246.58 42.37 249.38 43.53 251.99 46.69 249.49 47.59 246.74 50.01 241.97 52.05 239.16 57.61 239.72 61.27 238 63.56 238.71 68.09 247.24 73.69 243.61 74.43 236.45 74.33 231.74 76.39 226.19 78.23 223.88 79.39 217.53 81.46 213.42 83.66 209.25 86.99 206.72 87.97 203.91 88.24 200.04 91.61 198.95 94.02 199.19 97.31 200.19 99.11 202 99.55 204.48 102.22 208.01 102.49 211.55 101.57 217.9 103.05 221.31 103.37 219.11 108.6 216.28 115.34 215 118.39 213.98 120.82 213.02 123.08 211.58 126.52 210.22 129.76 209.22 132.13 208.48 133.93 199.86 154.39 222.32 204.31 223.15 206.16 225.24 210.8 223.63 215.25 223.43 215.82 219.98 225.37 Z" fill-rule="evenodd" id="97612" data-nom="MTSAMBORO"/>
<path d="M 185.3 919.49 189.47 918.95 199.37 917.7 213.36 915.93 225.54 903.48 229.68 899.25 231.77 897.13 238.48 890.27 239.54 889.19 240.08 888.64 242.25 886.42 244.82 883.8 245.45 883.16 247.92 880.64 271.14 874.16 281.59 871.24 285.03 870.28 286.76 869.8 295.41 877.28 295.73 877.56 298.94 880.33 313.4 892.83 318.22 897.01 322.25 900.48 328.72 906.08 328.86 906.27 347.51 931.46 354.47 953.93 356.88 961.7 358.45 966.76 359.41 969.85 390.31 970.5 392.45 970.54 390.66 972.67 391.12 977.76 392.6 979.88 393.26 985.15 394.52 986.82 394.06 988.29 395.06 992.06 394.4 995.24 395.51 996.76 393.72 999.94 391.06 1001.73 389.22 1004.04 389.2 1007.14 386.28 1009.26 383.95 1012.03 383.35 1015.56 381.67 1019.72 378.3 1022.52 376.81 1024.71 373.83 1026.75 368.04 1029 364.77 1026.8 363.54 1027.69 358.83 1026.68 354.9 1026.5 352.27 1027.55 350.74 1027.37 348.59 1025.32 347.11 1021.08 343.57 1013.76 343.66 1010.54 342.71 1008.38 343.42 1006.42 336.79 1003.38 331.25 1001.92 326.61 1001.11 322.84 1005.3 320.82 1010.15 317.53 1012.08 315.86 1013.97 311.19 1013.71 305.76 1015.57 306.4 1012.27 304.76 1009.05 304.18 1006.06 302.7 1002.98 303.28 1001.77 304.76 995.39 305.72 993.09 307.31 992.1 305.2 987.41 303.22 985.07 303.74 980.87 301.55 979.48 302.9 971.65 301.65 972.32 300.54 974.61 300.36 977.51 296.9 975.94 287.35 972.88 286.2 974.04 281.69 973.74 277.54 974.48 271.63 977.81 268.7 981.08 266.85 985.08 263.49 987.73 261.45 994.69 260.05 997.09 259.2 1002.65 258.51 1004.06 258.27 1008.27 256.98 1010.8 254.86 1004.85 252.13 1002.25 248.81 998.14 247.71 994.77 247.88 991.27 249.9 987.98 251.69 986.33 255.06 979.43 254.84 974.7 252.7 970.33 252.63 967.74 253.59 966.3 253.51 963.97 252.29 961.99 251.71 959.05 250.38 957.01 252.01 953.29 257.38 948.72 259.06 945.12 258.85 941.87 262.27 937.5 262.04 926.62 261.44 920.46 262.96 919.03 262.26 917.17 259.76 916.51 256.59 912.59 254.69 907.81 252.35 906.93 250.71 908.61 251.37 910.77 245.32 908.72 243.44 909.92 243.43 911.26 239.27 916.33 237.23 917.39 233.82 920.99 234.05 922.55 232.61 926.4 231.07 928.25 227.73 927.62 225.13 927.72 221.03 929.89 219.44 930.17 210.37 934.04 208.08 933.13 202.88 929.82 200.1 929.04 197.27 925.76 189.56 921.27 185.3 919.49 Z" id="97609" data-nom="KANI-KELI"/>
</g>
</svg>