<svg width="352" height="352" viewBox="0 0 352 352" fill="none" xmlns="http://www.w3.org/2000/svg">
<circle cx="176" cy="176" r="176" fill="white"/>
<path d="M140.66 182.737L116.103 225.389C113.039 230.7 111.367 236.7 111.241 242.83C111.115 248.96 112.54 255.023 115.384 260.455L116.836 263.197C119.846 268.892 124.316 273.684 129.787 277.083C135.259 280.482 141.536 282.366 147.975 282.54C154.414 282.715 160.784 281.175 166.432 278.078C172.081 274.981 176.804 270.439 180.119 264.915L196.579 237.578C209.731 237.857 222.537 233.36 232.628 224.922C242.719 216.484 249.41 204.675 251.464 191.682C252.15 187.237 252.299 182.726 251.908 178.246C250.852 166.966 246.315 156.294 238.925 147.708C240.604 143.692 241.797 139.49 242.476 135.19C243.165 128.902 243.165 122.558 242.476 116.27L181.765 108.781L166.118 128.3L148.91 127.66C126.337 126.822 113.952 153.63 129.224 170.276L140.66 182.737Z" fill="white"/>
<path d="M149.043 286.448C145.06 286.444 141.1 285.852 137.29 284.69C132.201 283.162 127.468 280.635 123.367 277.257C119.267 273.879 115.88 269.717 113.407 265.015L111.956 262.273C108.799 256.264 107.215 249.554 107.351 242.768C107.486 235.982 109.337 229.34 112.731 223.462L135.879 183.263L126.37 172.9C122.46 168.638 119.898 163.315 119.006 157.601C118.114 151.887 118.932 146.036 121.358 140.786C123.783 135.535 127.708 131.12 132.637 128.095C137.566 125.07 143.281 123.57 149.06 123.786L164.319 124.352L178.744 106.356C179.16 105.842 179.699 105.442 180.312 105.193C180.924 104.945 181.59 104.855 182.246 104.934L242.956 112.423C243.82 112.529 244.624 112.924 245.237 113.543C245.85 114.162 246.237 114.969 246.335 115.834C247.06 122.469 247.052 129.164 246.311 135.798C245.706 139.621 244.722 143.375 243.375 147.004C250.431 155.87 254.741 166.606 255.774 177.89C256.191 182.691 256.031 187.526 255.298 192.289C253.126 205.808 246.278 218.135 235.947 227.122C225.617 236.109 212.461 241.185 198.772 241.465L183.445 266.918C179.717 273.115 174.392 278.196 168.028 281.631C162.198 284.788 155.673 286.443 149.043 286.448ZM147.917 131.528C143.738 131.54 139.652 132.766 136.158 135.057C132.663 137.348 129.909 140.606 128.232 144.434C126.555 148.262 126.026 152.494 126.711 156.617C127.395 160.739 129.263 164.574 132.087 167.655L143.519 180.112C144.077 180.719 144.426 181.489 144.517 182.309C144.607 183.129 144.434 183.956 144.022 184.671L119.465 227.327C116.723 232.071 115.226 237.432 115.113 242.911C115 248.389 116.274 253.807 118.818 258.66L120.262 261.384C122.266 265.168 124.999 268.519 128.303 271.243C131.607 273.967 135.418 276.012 139.514 277.258C143.611 278.505 147.914 278.93 152.176 278.508C156.438 278.085 160.574 276.825 164.346 274.799C169.485 272.023 173.784 267.919 176.794 262.914L193.254 235.578C193.6 234.987 194.1 234.5 194.7 234.17C195.301 233.84 195.979 233.678 196.664 233.701C208.869 233.931 220.747 229.746 230.111 221.914C239.475 214.083 245.696 203.132 247.628 191.079C248.271 186.94 248.41 182.739 248.039 178.568C247.071 168.098 242.855 158.193 235.981 150.237C235.512 149.692 235.204 149.026 235.092 148.316C234.979 147.606 235.066 146.878 235.343 146.214C236.902 142.483 238.009 138.579 238.642 134.586C239.19 129.655 239.274 124.683 238.892 119.737L183.441 112.897L169.151 130.729C168.77 131.199 168.286 131.576 167.736 131.827C167.186 132.079 166.584 132.2 165.98 132.179L148.769 131.539C148.486 131.528 148.2 131.523 147.917 131.523V131.528Z" fill="#222433"/>
<path d="M247.379 119.35C245.914 107.13 240.619 95.6875 232.252 86.6618C223.885 77.6361 212.876 71.4904 200.802 69.1052C188.728 66.72 176.209 68.2177 165.039 73.3838C153.868 78.5499 144.62 87.1192 138.618 97.8639C137.868 99.119 137.195 100.418 136.602 101.755C134.345 106.648 132.773 111.829 131.931 117.151C131.661 118.866 131.479 120.585 131.362 122.303C131.45 122.314 131.53 122.303 131.621 122.323C137.461 123.256 143.601 122.867 149.125 125.297C153.802 127.35 157.505 131.278 160.646 135.205C166.136 142.069 171.449 152.165 168.047 160.922C168.736 160.855 169.384 160.561 169.888 160.084C170.391 159.608 170.722 158.978 170.827 158.293L175.416 129.218C176.123 124.774 178.563 120.792 182.201 118.146C185.84 115.499 190.38 114.404 194.825 115.1L243.767 122.827C244.246 122.902 244.737 122.866 245.199 122.72C245.662 122.574 246.085 122.324 246.435 121.987C246.785 121.651 247.052 121.239 247.216 120.782C247.379 120.325 247.435 119.837 247.379 119.355V119.35Z" fill="#000091"/>
<path d="M195.185 152.744C198.326 152.744 200.873 150.197 200.873 147.056C200.873 143.914 198.326 141.367 195.185 141.367C192.043 141.367 189.496 143.914 189.496 147.056C189.496 150.197 192.043 152.744 195.185 152.744Z" fill="#222433"/>
<path d="M233.939 154.506C237.08 154.506 239.627 151.959 239.627 148.817C239.627 145.676 237.08 143.129 233.939 143.129C230.797 143.129 228.25 145.676 228.25 148.817C228.25 151.959 230.797 154.506 233.939 154.506Z" fill="#222433"/>
<path d="M197.414 241.476H197.392C194.426 241.457 191.465 241.215 188.535 240.752C176.505 238.904 165.369 233.294 156.724 224.727C156.349 224.371 156.048 223.944 155.84 223.471C155.632 222.998 155.521 222.488 155.513 221.971C155.505 221.454 155.6 220.941 155.794 220.461C155.987 219.982 156.274 219.546 156.638 219.179C157.002 218.812 157.435 218.521 157.913 218.324C158.391 218.127 158.904 218.028 159.42 218.031C159.937 218.035 160.448 218.142 160.923 218.346C161.398 218.55 161.828 218.847 162.186 219.219C169.677 226.634 179.322 231.489 189.739 233.087C192.28 233.491 194.848 233.701 197.421 233.717C198.45 233.719 199.436 234.13 200.161 234.859C200.887 235.588 201.294 236.576 201.292 237.605C201.29 238.634 200.879 239.619 200.15 240.345C199.421 241.071 198.433 241.478 197.404 241.476H197.414Z" fill="#222433"/>
<path d="M225.128 172.034C224.998 172.034 224.879 172.034 224.754 172.017L209.775 170.566C209.268 170.517 208.776 170.369 208.326 170.129C207.876 169.89 207.478 169.564 207.154 169.17C206.83 168.777 206.587 168.324 206.438 167.836C206.29 167.349 206.238 166.837 206.288 166.33C206.337 165.823 206.485 165.33 206.725 164.881C206.964 164.431 207.29 164.033 207.683 163.709C208.077 163.385 208.53 163.142 209.018 162.993C209.505 162.844 210.017 162.793 210.524 162.842L220.289 163.788L215.801 141.562C215.598 140.554 215.803 139.505 216.372 138.648C216.941 137.791 217.828 137.195 218.836 136.991C219.845 136.787 220.893 136.992 221.751 137.562C222.608 138.131 223.204 139.017 223.408 140.026L228.931 167.388C229.044 167.951 229.031 168.532 228.893 169.09C228.754 169.647 228.494 170.167 228.13 170.612C227.766 171.056 227.308 171.415 226.789 171.661C226.269 171.907 225.702 172.034 225.128 172.034Z" fill="#222433"/>
<path d="M140.66 182.736C134.473 183.361 128.246 182.034 122.851 178.942C117.456 175.849 113.165 171.146 110.577 165.491C107.99 159.837 107.238 153.514 108.425 147.411C109.612 141.307 112.68 135.727 117.197 131.455C121.715 127.182 127.457 124.43 133.617 123.585C139.778 122.74 146.048 123.844 151.55 126.742C157.051 129.64 161.508 134.187 164.295 139.746C167.082 145.304 168.06 151.596 167.092 157.738" fill="white"/>
<path d="M137.711 186.764C130.826 186.773 124.104 184.671 118.45 180.741C112.797 176.811 108.485 171.242 106.094 164.786C103.704 158.329 103.351 151.294 105.082 144.63C106.813 137.967 110.546 131.994 115.778 127.517C121.009 123.041 127.487 120.276 134.338 119.595C141.189 118.914 148.085 120.35 154.095 123.709C160.105 127.069 164.94 132.19 167.949 138.383C170.958 144.576 171.996 151.542 170.923 158.343C170.844 158.847 170.666 159.329 170.4 159.764C170.134 160.198 169.785 160.576 169.373 160.876C168.961 161.176 168.494 161.391 167.999 161.511C167.504 161.63 166.99 161.65 166.486 161.571C165.983 161.492 165.5 161.314 165.066 161.048C164.631 160.782 164.253 160.433 163.954 160.021C163.654 159.609 163.438 159.142 163.319 158.647C163.2 158.151 163.179 157.637 163.259 157.134C164.094 151.801 163.239 146.339 160.815 141.515C158.391 136.691 154.519 132.747 149.741 130.234C144.963 127.72 139.519 126.765 134.17 127.501C128.822 128.236 123.838 130.627 119.916 134.337C115.994 138.047 113.331 142.891 112.3 148.19C111.268 153.489 111.921 158.978 114.165 163.888C116.409 168.798 120.133 172.883 124.815 175.571C129.497 178.259 134.902 179.415 140.274 178.877C141.298 178.774 142.321 179.082 143.118 179.734C143.915 180.385 144.42 181.326 144.523 182.35C144.626 183.374 144.318 184.397 143.666 185.194C143.015 185.99 142.074 186.496 141.05 186.599C139.939 186.709 138.825 186.764 137.711 186.764Z" fill="#222433"/>
<path d="M132.949 165.025C132.106 165.026 131.285 164.751 130.612 164.244C129.938 163.736 129.449 163.023 129.217 162.213C128.985 161.402 129.023 160.538 129.326 159.751C129.63 158.964 130.181 158.298 130.897 157.852L139.302 152.626L124.948 145.965C124.015 145.532 123.292 144.746 122.938 143.78C122.584 142.814 122.628 141.747 123.061 140.813C123.494 139.88 124.28 139.157 125.247 138.803C126.213 138.449 127.28 138.494 128.213 138.927L149.091 148.609C149.726 148.903 150.27 149.364 150.664 149.942C151.058 150.52 151.289 151.194 151.332 151.892C151.374 152.591 151.227 153.288 150.906 153.909C150.584 154.531 150.101 155.054 149.506 155.423L134.995 164.441C134.381 164.824 133.672 165.026 132.949 165.025Z" fill="#222433"/>
<path d="M215.682 193.069C214.821 193.069 213.962 193.006 213.11 192.881C210.689 192.529 208.368 191.674 206.297 190.371C204.226 189.069 202.45 187.348 201.084 185.319L200.76 184.887C200.143 184.064 199.878 183.029 200.023 182.011C200.169 180.992 200.713 180.073 201.536 179.456C202.359 178.838 203.394 178.573 204.412 178.719C205.431 178.864 206.35 179.408 206.967 180.231L207.355 180.749C207.401 180.808 207.446 180.872 207.485 180.936C208.24 182.088 209.232 183.065 210.396 183.801C211.56 184.537 212.868 185.015 214.232 185.204C215.643 185.407 217.08 185.311 218.451 184.922C219.822 184.533 221.095 183.86 222.189 182.947L224.077 181.309C224.855 180.635 225.868 180.298 226.895 180.371C227.921 180.445 228.876 180.923 229.55 181.701C230.224 182.478 230.561 183.492 230.487 184.518C230.414 185.544 229.936 186.499 229.158 187.173L227.218 188.854C223.987 191.57 219.903 193.062 215.682 193.069Z" fill="#222433"/>
</svg>
