<svg width="1108" height="944" viewBox="0 0 1108 944" fill="none" xmlns="http://www.w3.org/2000/svg">
<g clip-path="url(#clip0_344_15906)">
<path d="M980.911 791.655L964.33 562.853L1004.2 383.301L791.76 383.391L755.689 563.274L964.33 562.853" fill="white"/>
<path d="M980.908 794.299C980.973 794.299 981.037 794.299 981.102 794.292C981.448 794.267 981.785 794.174 982.095 794.018C982.405 793.862 982.681 793.647 982.908 793.384C983.135 793.121 983.307 792.816 983.416 792.486C983.525 792.156 983.569 791.808 983.543 791.462L966.987 563.05L1006.78 383.876C1006.86 383.489 1006.86 383.088 1006.77 382.702C1006.68 382.316 1006.51 381.956 1006.26 381.647C1006.01 381.338 1005.7 381.088 1005.34 380.917C1004.99 380.745 1004.6 380.656 1004.2 380.656V380.656L791.758 380.744C791.148 380.745 790.558 380.956 790.086 381.344C789.615 381.731 789.292 382.27 789.171 382.869L753.101 562.752C753.024 563.136 753.033 563.532 753.127 563.912C753.222 564.292 753.399 564.646 753.647 564.949C753.894 565.252 754.206 565.496 754.559 565.664C754.912 565.832 755.298 565.918 755.689 565.918H755.694L961.876 565.504L978.279 791.848C978.328 792.514 978.626 793.136 979.113 793.591C979.601 794.045 980.242 794.298 980.908 794.299ZM962.212 560.212L758.913 560.621L793.921 386.035L1000.91 385.947L962.212 560.212Z" fill="#222433"/>
<path d="M740.777 796.262C740.842 796.262 740.907 796.262 740.973 796.255C741.319 796.23 741.656 796.136 741.966 795.98C742.275 795.824 742.551 795.608 742.778 795.345C743.004 795.082 743.177 794.777 743.286 794.447C743.394 794.117 743.437 793.769 743.412 793.423L726.608 564.424C726.557 563.725 726.231 563.074 725.701 562.616C725.171 562.157 724.481 561.928 723.783 561.98C723.085 562.031 722.435 562.358 721.978 562.889C721.521 563.42 721.292 564.112 721.344 564.812L738.147 793.81C738.196 794.476 738.494 795.099 738.982 795.553C739.469 796.008 740.111 796.261 740.777 796.262Z" fill="#222433"/>
<path d="M599.93 796.263C600.596 796.262 601.237 796.009 601.725 795.554C602.213 795.1 602.511 794.477 602.56 793.811L619.138 567.672L811.287 565.951L757.52 792.81C757.358 793.492 757.473 794.211 757.841 794.809C758.208 795.406 758.797 795.833 759.478 795.995C760.159 796.157 760.876 796.042 761.472 795.674C762.068 795.306 762.494 794.715 762.656 794.033L817.202 563.888C817.295 563.497 817.298 563.091 817.211 562.699C817.123 562.306 816.948 561.939 816.699 561.625C816.449 561.311 816.131 561.058 815.769 560.886C815.407 560.713 815.011 560.625 814.61 560.629L617.541 562.393H616.685C616.018 562.393 615.376 562.645 614.888 563.1C614.4 563.555 614.101 564.178 614.052 564.845L597.295 793.422C597.27 793.768 597.313 794.116 597.422 794.446C597.53 794.776 597.703 795.081 597.929 795.344C598.156 795.607 598.432 795.823 598.741 795.979C599.051 796.135 599.388 796.228 599.734 796.254C599.8 796.26 599.865 796.263 599.93 796.263Z" fill="#222433"/>
</g>
<g clip-path="url(#clip1_344_15906)">
<path d="M518.495 488.473L847.58 498.592L872.638 483.414C878.808 477.76 882.283 462.495 882.661 455.586C889.343 333.311 887.672 314.759 865.969 297.894C863.631 296.71 857.202 292.521 845.911 291.148C815.785 287.482 758.105 287.654 704.345 296.333C696.627 297.579 669.018 336.71 647.958 361.982C637.403 374.649 626.736 378.085 624.572 383.064L602.855 397.399L517.66 401.615L500.12 404.989L492.604 420.167L518.495 488.473Z" fill="white"/>
<path d="M721.46 184.052L715.992 170.653L724.8 143.574L788.279 144.418L789.949 190.798L803.313 214.41L811.625 221.715L811.666 291.991L804.983 297.893L708.343 214.376L721.46 184.052Z" fill="white"/>
<path d="M520.804 402.667C519.493 402.667 518.415 401.617 518.384 400.295C518.353 398.955 519.41 397.842 520.747 397.81C521.571 397.791 525.455 397.557 530.832 397.233C576.201 394.502 596.941 393.708 603.028 394.531L644.377 362.99C647.645 357.707 678.446 308.403 696.453 297.624C697.365 297.077 698.43 296.493 699.617 295.887C709.567 290.804 720.874 288.117 732.315 288.117H745.981C747.318 288.117 748.402 289.204 748.402 290.546C748.402 291.887 747.318 292.975 745.981 292.975H732.315C721.635 292.975 711.087 295.479 701.815 300.215C700.724 300.771 699.755 301.303 698.935 301.794C681.321 312.339 648.591 365.389 648.262 365.924C648.107 366.179 647.905 366.402 647.668 366.583L605.1 399.054C604.416 399.575 603.51 399.695 602.717 399.369C598.303 398.037 547.74 401.081 531.124 402.081C525.493 402.42 521.774 402.644 520.864 402.666C520.843 402.667 520.823 402.667 520.804 402.667Z" fill="#222433"/>
<path d="M780.591 347.903C780.557 347.903 780.523 347.903 780.489 347.903C750.929 347.85 726.447 323.206 725.914 292.968C725.891 291.627 726.955 290.521 728.293 290.498C729.626 290.466 730.733 291.542 730.757 292.883C731.243 320.494 753.557 342.998 780.499 343.047C793.84 343.065 806.33 337.86 815.761 328.373C825.195 318.883 830.404 306.25 830.427 292.802C830.427 292.105 830.406 291.393 830.364 290.69C830.285 289.351 831.303 288.202 832.638 288.122C833.982 288.041 835.12 289.063 835.199 290.402C835.247 291.2 835.27 292.01 835.27 292.806C835.244 307.55 829.534 321.397 819.19 331.802C808.866 342.187 795.161 347.903 780.591 347.903Z" fill="#222433"/>
<path d="M812.377 296.599C812.402 314.717 798.118 329.554 780.178 330.044C761.909 330.563 746.682 316.031 746.167 297.586C746.167 297.572 746.167 297.558 746.167 297.544L746.041 292.805L745.541 274.222C723.253 268.131 706.862 247.568 706.886 223.142C706.899 209.854 711.777 197.724 719.803 188.443C718.262 184.599 717.14 180.511 716.525 176.222C716.524 176.216 716.523 176.211 716.522 176.205C714.914 165.379 716.68 154.828 721.024 145.641" fill="white"/>
<path d="M779.22 332.487C770.113 332.487 761.492 329.029 754.846 322.686C747.956 316.11 744.014 307.22 743.748 297.654L743.168 276.06C720.266 268.975 704.441 247.471 704.464 223.14C704.476 210.29 708.927 197.863 717.027 187.976C715.659 184.285 714.685 180.455 714.127 176.568C712.499 165.61 714.127 154.557 718.834 144.6C719.408 143.388 720.852 142.871 722.059 143.445C723.267 144.02 723.783 145.468 723.21 146.68C718.916 155.764 717.432 165.849 718.916 175.847C719.493 179.863 720.546 183.786 722.049 187.537C722.388 188.382 722.228 189.346 721.632 190.034C713.696 199.211 709.318 210.97 709.306 223.144C709.285 245.899 724.446 265.939 746.177 271.879C747.207 272.16 747.932 273.086 747.961 274.156L748.586 297.48C748.818 305.793 752.227 313.481 758.183 319.166C764.137 324.848 771.927 327.848 780.109 327.616C796.869 327.158 809.978 313.536 809.955 296.602C809.954 295.261 811.036 294.172 812.373 294.17C812.374 294.17 812.376 294.17 812.377 294.17C813.712 294.17 814.796 295.255 814.798 296.596C814.825 316.184 799.646 331.942 780.243 332.471C779.902 332.482 779.56 332.487 779.22 332.487Z" fill="#222433"/>
<path d="M804.164 217.364C796.32 213.404 791.194 206.998 791.194 191.197C791.194 189.932 786.464 189.867 786.464 189.867L772.056 216.899C757.498 201.83 740.738 203.101 731.503 203.805C716.367 204.957 705.574 216.991 705.122 217.503C704.755 217.919 704.534 218.446 704.493 219.003C704.399 220.291 704.349 221.596 704.345 222.88C704.293 237.683 709.954 251.621 720.285 262.126C730.616 272.631 744.381 278.445 759.044 278.498C759.111 278.498 759.175 278.498 759.241 278.498C789.417 278.498 814.023 253.765 814.131 223.272C814.131 223.272 807.168 218.88 804.164 217.364Z" fill="#000091"/>
<path d="M823.074 165.555C822.294 150.069 815.059 135.527 803.225 125.659C779.907 106.211 745.267 109.545 726.005 133.087C722.991 136.772 720.457 140.842 718.475 145.186C718.122 145.959 718.178 146.859 718.623 147.581C719.069 148.304 719.844 148.751 720.686 148.773L778.98 150.283C783.463 150.41 787.031 154.195 786.935 158.717L786.181 191.008C786.181 191.008 793.161 177.499 796.778 174.072C809.75 161.781 823.074 165.555 823.074 165.555Z" fill="#000091"/>
<path d="M760.158 189.464C763.207 189.464 765.678 186.969 765.678 183.89C765.678 180.812 763.207 178.316 760.158 178.316C757.108 178.316 754.637 180.812 754.637 183.89C754.637 186.969 757.108 189.464 760.158 189.464Z" fill="#222433"/>
<path d="M721.619 189.292C724.668 189.292 727.14 186.797 727.14 183.718C727.14 180.64 724.668 178.145 721.619 178.145C718.57 178.145 716.098 180.64 716.098 183.718C716.098 186.797 718.57 189.292 721.619 189.292Z" fill="#222433"/>
<path d="M788.686 191.068C790.329 176.665 802.448 165.48 817.154 165.48C832.981 165.48 845.811 178.434 845.811 194.414C845.811 210.393 832.981 223.347 817.154 223.347C811.99 223.347 807.145 221.968 802.961 219.555" fill="white"/>
<path d="M817.154 225.775C811.749 225.775 806.423 224.352 801.755 221.66C800.595 220.991 800.195 219.507 800.863 218.344C801.529 217.182 803.01 216.78 804.169 217.449C808.104 219.718 812.594 220.917 817.155 220.917C831.621 220.917 843.391 209.027 843.391 194.413C843.391 179.798 831.621 167.908 817.155 167.908C803.82 167.908 792.616 177.983 791.092 191.343C790.941 192.677 789.743 193.632 788.412 193.481C787.083 193.329 786.129 192.125 786.281 190.791C788.084 174.976 801.357 163.051 817.155 163.051C834.291 163.051 848.233 177.119 848.233 194.413C848.233 211.706 834.291 225.775 817.154 225.775Z" fill="#222433"/>
<path d="M738.044 228.69C734.368 228.69 730.998 227.441 728.554 225.172C725.773 222.589 724.301 218.84 724.301 214.331C724.301 212.989 725.385 211.902 726.723 211.902C728.06 211.902 729.144 212.989 729.144 214.331C729.144 217.496 730.052 219.944 731.844 221.607C733.39 223.043 735.591 223.833 738.044 223.833C743.515 223.833 749.175 219.963 749.175 213.487C749.175 212.146 750.259 211.059 751.596 211.059C752.934 211.059 754.017 212.146 754.017 213.487C754.017 223.004 745.895 228.69 738.044 228.69Z" fill="#222433"/>
<path d="M731.742 202.38C731.051 202.38 730.39 202.084 729.929 201.562C729.438 201.004 729.227 200.25 729.36 199.518L733.645 175.839C733.884 174.518 735.15 173.645 736.46 173.883C737.776 174.122 738.649 175.386 738.41 176.707L734.675 197.347L746.427 196.659C747.779 196.58 748.907 197.603 748.986 198.942C749.064 200.281 748.045 201.43 746.71 201.508L731.884 202.377C731.836 202.379 731.789 202.38 731.742 202.38Z" fill="#222433"/>
<path d="M522.514 700.288C508.958 718.869 490.128 734.604 473.546 738.942C451.352 744.744 429.797 766.176 431.224 789.797H575.825L617.353 698.13L608.868 682.125L522.514 700.288Z" fill="#F9CFD2"/>
<path d="M607.986 686.915L519.323 704.679L423.655 532.331C419.721 525.736 416.893 518.911 415.168 512.055C409.012 487.591 420.041 462.721 440.549 450.171C447.08 446.175 454.645 444.239 462.282 444.274L505.102 444.467" fill="white"/>
<path d="M519.322 707.107C518.457 707.107 517.64 706.64 517.207 705.86L421.539 533.512C417.571 526.862 414.625 519.82 412.82 512.648C409.707 500.273 410.678 487.498 415.628 475.702C420.408 464.312 428.812 454.509 439.288 448.097C445.976 444.004 453.853 441.844 462.081 441.844C462.151 441.844 462.221 441.844 462.292 441.845L505.113 442.037C506.45 442.043 507.53 443.136 507.523 444.476C507.517 445.814 506.434 446.894 505.102 446.895C505.099 446.895 505.095 446.895 505.091 446.895L462.27 446.702C462.208 446.702 462.143 446.701 462.081 446.701C454.742 446.701 447.738 448.616 441.81 452.243C421.495 464.675 411.731 488.472 417.515 511.46C419.204 518.173 421.969 524.776 425.731 531.084L520.579 701.951L607.511 684.534C608.822 684.27 610.098 685.124 610.359 686.439C610.622 687.755 609.771 689.034 608.459 689.297L519.796 707.061C519.639 707.092 519.48 707.107 519.322 707.107Z" fill="#222433"/>
<path d="M613.852 701.18C600.533 720.202 581.09 736.68 564.072 741.056C542.434 746.617 527.724 767.157 529.116 789.797H746.036C746.036 789.797 745.978 705.894 742.944 671.465L613.852 701.18Z" fill="#F9CFD2"/>
<path d="M623.031 419.09C622.143 419.09 621.289 418.598 620.864 417.748C620.265 416.549 620.748 415.09 621.945 414.489C628.453 411.22 635.467 409.509 642.788 409.405L790.649 405.131L791.036 361.856C791.048 360.522 792.13 359.449 793.457 359.449C793.465 359.449 793.472 359.449 793.479 359.449C794.816 359.461 795.89 360.558 795.879 361.9L795.47 407.512C795.458 408.818 794.419 409.88 793.118 409.918L642.892 414.262C636.27 414.356 629.963 415.894 624.113 418.832C623.766 419.007 623.396 419.09 623.031 419.09Z" fill="#222433"/>
<path d="M543.7 424.627C543.992 423.903 543.005 414.452 538.647 408.075C531.9 398.201 523.993 400.059 517.087 400.545" fill="white"/>
<path d="M543.699 427.056C543.396 427.056 543.089 426.998 542.792 426.877C541.692 426.431 541.096 425.266 541.328 424.139C541.353 422.792 540.314 414.808 536.651 409.447C531.374 401.724 525.548 402.242 519.387 402.79C518.667 402.854 517.957 402.918 517.257 402.967C515.915 403.061 514.765 402.052 514.672 400.715C514.578 399.377 515.583 398.216 516.918 398.122C517.588 398.075 518.27 398.014 518.958 397.952C525.555 397.366 533.768 396.636 540.645 406.701C545.158 413.307 546.736 423.573 545.944 425.537C545.563 426.482 544.656 427.056 543.699 427.056ZM541.324 424.22C541.323 424.22 541.323 424.22 541.324 424.22V424.22ZM541.454 423.715C541.454 423.716 541.454 423.718 541.454 423.718C541.454 423.717 541.454 423.716 541.454 423.715Z" fill="#222433"/>
<path d="M802.963 421.085C802.334 421.085 801.704 420.84 801.229 420.352L791.926 410.78C790.992 409.82 791.012 408.282 791.969 407.346C792.928 406.41 794.459 406.429 795.394 407.39L804.698 416.961C805.631 417.921 805.611 419.459 804.654 420.395C804.183 420.855 803.573 421.085 802.963 421.085Z" fill="#222433"/>
<path d="M519.99 483.984C517.031 499.613 519.874 516.376 528.887 531.487L616.428 702.571L716.074 678.992L753.198 669.779L719.889 595.772L704.346 564.148H732.276L776.585 564.37H786.172C811.673 564.372 834.714 552.822 850.16 534.424C857.221 526.014 861.049 515.318 861.049 504.292V493.039" fill="white"/>
<path d="M616.428 704.999C615.536 704.999 614.696 704.503 614.274 703.679L526.768 532.665C517.738 517.488 514.485 500.041 517.611 483.531C517.861 482.214 519.126 481.348 520.442 481.598C521.756 481.848 522.619 483.119 522.369 484.437C519.46 499.802 522.513 516.068 530.964 530.24C530.991 530.285 531.017 530.33 531.041 530.377L617.718 699.769L715.519 676.628L749.796 668.121L717.7 596.809L702.175 565.22C701.805 564.467 701.849 563.577 702.291 562.863C702.733 562.151 703.51 561.717 704.347 561.717H732.277L776.598 561.94H786.173C810.144 561.941 832.792 551.342 848.309 532.859C854.963 524.932 858.629 514.787 858.629 504.291V493.038C858.629 491.696 859.713 490.609 861.05 490.609C862.387 490.609 863.471 491.696 863.471 493.038V504.291C863.471 515.93 859.402 527.186 852.013 535.988C835.576 555.567 811.577 566.797 786.178 566.797C786.175 566.797 786.176 566.797 786.173 566.797H776.585L732.264 566.575H708.239L722.061 594.697C722.074 594.721 722.085 594.747 722.096 594.772L755.406 668.779C755.701 669.436 755.692 670.191 755.377 670.839C755.063 671.488 754.478 671.963 753.78 672.136L716.656 681.35L616.985 704.934C616.799 704.978 616.612 704.999 616.428 704.999Z" fill="#222433"/>
<path d="M643.432 507.026C631.706 507.026 620.401 502.733 611.56 494.894C610.558 494.006 610.465 492.471 611.349 491.465C612.235 490.461 613.765 490.366 614.768 491.254C622.72 498.305 632.889 502.168 643.464 502.168C643.671 502.168 643.877 502.166 644.083 502.164H645.454L839.861 496.49C863.35 495.809 881.916 476.686 882.128 452.954L882.964 335.128C882.969 334.62 882.965 334.119 882.952 333.619C882.408 310.835 863.267 292.299 840.286 292.299H813.863C812.526 292.299 811.442 291.212 811.442 289.87C811.442 288.529 812.526 287.441 813.863 287.441H840.286C865.875 287.441 887.187 308.105 887.794 333.502C887.807 334.055 887.811 334.611 887.807 335.167L886.971 452.993C886.735 479.352 866.103 500.589 840.002 501.345L645.524 507.02L644.117 507.021C643.889 507.025 643.66 507.026 643.432 507.026Z" fill="#222433"/>
<path d="M812.376 299.03C811.049 299.03 809.97 297.959 809.955 296.627L809.203 223.27C809.189 221.929 810.263 220.83 811.599 220.816C811.608 220.816 811.616 220.816 811.625 220.816C812.951 220.816 814.031 221.887 814.046 223.22L814.798 296.576C814.811 297.918 813.738 299.016 812.401 299.03C812.393 299.03 812.384 299.03 812.376 299.03Z" fill="#222433"/>
<path d="M517.68 400.547C509.205 401.679 500.714 402.867 494.076 403.907C468.619 407.882 402.681 437.126 410.743 452.909C414.578 462.792 433.17 445.028 466.836 441.827" fill="white"/>
<path d="M415.244 458.293C411.96 458.293 409.708 456.821 408.532 453.902C407.602 452.011 406.96 448.951 409 444.937C417.785 427.651 471.882 404.913 493.704 401.506C499.69 400.568 507.65 399.436 517.362 398.139C518.686 397.961 519.905 398.897 520.081 400.226C520.258 401.555 519.325 402.777 518 402.954C508.326 404.246 500.402 405.374 494.45 406.306C471.513 409.887 420.871 432.274 413.315 447.144C411.921 449.886 412.658 451.327 412.899 451.801C412.937 451.874 412.971 451.951 413.001 452.027C414.017 454.646 417.859 453.442 427.766 449.608C437.173 445.968 450.056 440.983 466.609 439.409C467.944 439.282 469.122 440.262 469.248 441.597C469.375 442.932 468.398 444.117 467.067 444.244C451.177 445.756 438.654 450.602 429.51 454.14C424.361 456.133 420.295 457.707 417.038 458.162C416.409 458.248 415.81 458.293 415.244 458.293Z" fill="#222433"/>
<path d="M522.538 416.656C500.856 422.748 477.86 422.417 466.484 427.062C460.135 429.654 460.177 438.896 466.551 441.426C473.634 444.237 482.885 444.152 484.514 444.375L496.778 443.783H504.295" fill="white"/>
<path d="M484.514 446.802C484.405 446.802 484.296 446.795 484.189 446.781C483.976 446.751 483.322 446.717 482.689 446.683C479.14 446.496 471.759 446.105 465.66 443.683C461.773 442.14 459.346 438.537 459.325 434.279C459.305 430.02 461.697 426.392 465.571 424.811C471.494 422.393 480.087 421.298 490.038 420.03C499.912 418.772 511.105 417.346 521.885 414.317C523.17 413.956 524.51 414.709 524.869 416.001C525.23 417.292 524.479 418.633 523.191 418.995C512.068 422.12 500.688 423.57 490.648 424.849C481.036 426.074 472.733 427.132 467.397 429.311C465.003 430.288 464.159 432.506 464.168 434.257C464.176 436.006 465.041 438.215 467.443 439.167C472.805 441.297 479.653 441.659 482.944 441.833C483.673 441.872 484.202 441.9 484.593 441.939L496.662 441.357C496.701 441.356 496.74 441.355 496.779 441.355H504.296C505.633 441.355 506.717 442.442 506.717 443.784C506.717 445.125 505.633 446.212 504.296 446.212H496.837L484.631 446.801C484.592 446.802 484.553 446.802 484.514 446.802Z" fill="#222433"/>
<path d="M678.605 450.243C686.464 478.839 659.269 510.664 630.035 498.605L628.875 498.107C616.095 492.356 602.264 488.713 585 499.794C572.838 507.628 555.808 521.246 548.875 509.373C544.073 501.143 563.334 484.396 577.099 471.527C551.44 479.959 517.796 490.923 513.387 479.411C508.976 467.901 524.913 458.793 558.256 448.151C519.668 453.345 507.758 460.353 504.8 448.817C503.103 442.213 511.424 436.053 524.206 430.909C529.968 428.591 536.636 426.478 543.702 424.624C566.16 418.73 592.636 415.448 606.791 416.453C606.791 416.453 610.647 416.63 623.031 416.659C627.083 416.669 632.047 416.663 638.088 416.63C663.111 416.504 674.47 435.224 678.605 450.243Z" fill="white"/>
<path d="M556.776 516.465C555.818 516.465 554.888 516.367 553.985 516.159C550.951 515.457 548.529 513.587 546.785 510.601C541.937 502.293 554.009 489.793 567.428 477.212C537.731 486.649 515.508 491.719 511.124 480.283C509.844 476.942 509.957 473.658 511.458 470.524C514.055 465.103 520.877 460.061 533.263 454.681C532.767 454.772 532.278 454.862 531.799 454.951C522.587 456.648 516.495 457.77 512.034 457.433C506.798 457.038 503.753 454.492 502.455 449.423C500.542 441.982 507.556 434.994 523.304 428.657C528.938 426.388 535.596 424.241 543.087 422.275C565.299 416.446 592.158 412.979 606.962 414.031C606.98 414.031 610.951 414.203 623.037 414.232C627.5 414.242 632.561 414.233 638.074 414.202C638.163 414.202 638.256 414.201 638.345 414.201C667.99 414.201 678.005 438.937 680.94 449.597C680.94 449.597 680.94 449.598 680.94 449.598C685.2 465.096 679.707 482.929 667.272 493.974C656.223 503.79 642.315 506.296 629.115 500.85L627.923 500.34C614.048 494.096 601.682 491.97 586.305 501.84C584.874 502.761 583.371 503.767 581.826 504.8C573.595 510.306 564.387 516.464 556.776 516.465ZM577.097 469.099C577.935 469.099 578.737 469.537 579.182 470.293C579.76 471.275 579.579 472.527 578.748 473.304C577.628 474.351 576.473 475.423 575.296 476.514C564.242 486.77 547.534 502.269 550.964 508.146C552.022 509.958 553.366 511.031 555.073 511.425C561.114 512.821 571.106 506.131 579.138 500.759C580.707 499.709 582.233 498.689 583.69 497.751C601.913 486.055 616.653 489.945 629.866 495.892L630.987 496.372C642.384 501.073 654.449 498.877 664.062 490.338C675.144 480.494 680.052 464.64 676.271 450.889C673.631 441.301 664.657 419.058 638.337 419.058C638.257 419.058 638.179 419.058 638.099 419.059C632.574 419.09 627.501 419.1 623.025 419.089C610.729 419.06 606.84 418.887 606.68 418.88C592.281 417.858 566.075 421.263 544.313 426.974C537.016 428.889 530.554 430.972 525.107 433.164C512.533 438.225 505.987 443.71 507.144 448.212C508.582 453.821 512.054 453.651 530.924 450.173C538.034 448.863 546.882 447.232 557.932 445.745C559.187 445.579 560.342 446.392 560.617 447.621C560.892 448.85 560.185 450.085 558.989 450.467C542.493 455.732 520.074 463.757 515.824 472.629C514.897 474.562 514.841 476.441 515.646 478.542C519.261 487.98 556.394 475.777 576.343 469.221C576.592 469.138 576.846 469.099 577.097 469.099Z" fill="#222433"/>
<path d="M826.342 203.201C826.067 203.201 825.788 203.154 825.516 203.054L807.149 196.367C806.204 196.023 805.568 195.129 805.553 194.121C805.538 193.112 806.146 192.2 807.081 191.827L824.27 184.981C825.514 184.485 826.92 185.095 827.414 186.342C827.907 187.588 827.3 189 826.057 189.495L814.791 193.982L827.168 198.488C828.426 198.946 829.075 200.339 828.618 201.6C828.26 202.587 827.332 203.201 826.342 203.201Z" fill="#222433"/>
<path d="M534.304 792.225C533.035 792.225 531.969 791.234 531.89 789.946C530.455 766.469 545.614 745.245 567.934 739.481C583.266 735.519 601.858 720.494 615.301 701.202C616.066 700.103 617.576 699.833 618.673 700.603C619.769 701.371 620.037 702.885 619.271 703.984C605.205 724.172 585.528 739.951 569.143 744.186C549.064 749.371 535.43 768.49 536.724 789.649C536.807 790.988 535.79 792.14 534.455 792.222C534.404 792.224 534.354 792.225 534.304 792.225Z" fill="#222433"/>
<path d="M687.217 412.479C687.065 412.479 686.911 412.464 686.757 412.434C685.444 412.181 684.584 410.908 684.836 409.59L694.859 357.307C695.112 355.99 696.374 355.127 697.695 355.38C699.008 355.633 699.868 356.906 699.616 358.224L689.593 410.507C689.369 411.67 688.355 412.479 687.217 412.479Z" fill="#222433"/>
</g>
<g clip-path="url(#clip2_344_15906)">
<path d="M372.806 577.154H328.359H110.593L90.3263 443.843C90.1702 442.817 90.0918 441.781 90.0918 440.743C90.0944 429.395 99.2915 420.197 110.635 420.199H286.845C297.001 420.193 305.636 427.614 307.163 437.659L326.159 562.68H371.347L372.806 577.154Z" fill="white"/>
<path d="M372.806 579.713H110.593C109.33 579.713 108.254 578.789 108.064 577.539L87.7976 444.228C87.6229 443.08 87.5342 441.907 87.5342 440.742C87.535 434.571 89.9385 428.768 94.3022 424.406C98.6642 420.043 104.464 417.641 110.631 417.641C110.633 417.641 110.634 417.641 110.636 417.641H286.844C286.849 417.641 286.854 417.641 286.858 417.641C298.361 417.641 307.962 425.896 309.691 437.275L328.358 560.12H371.348C372.661 560.12 373.761 561.116 373.893 562.423L375.351 576.897C375.423 577.616 375.188 578.333 374.703 578.869C374.218 579.407 373.529 579.713 372.806 579.713ZM112.791 574.595H369.978L369.035 565.239H326.16C324.896 565.239 323.821 564.315 323.631 563.065L304.634 438.044C303.289 429.186 295.812 422.758 286.857 422.758C286.854 422.758 286.851 422.758 286.847 422.758H110.636C110.635 422.758 110.633 422.758 110.632 422.758C105.83 422.758 101.316 424.628 97.919 428.025C94.5222 431.421 92.6507 435.938 92.6499 440.743C92.6499 441.65 92.7189 442.563 92.8553 443.457L112.791 574.595Z" fill="#222433"/>
<path d="M214.228 518.602C219.653 513.338 218.894 503.752 212.533 497.192C206.172 490.632 196.618 489.582 191.193 494.846C185.768 500.111 186.527 509.697 192.888 516.257C199.249 522.817 208.803 523.867 214.228 518.602Z" fill="#B9B9FB"/>
</g>
<g clip-path="url(#clip3_344_15906)">
<path d="M52.8439 645.699H151.665V687.374H52.8439V645.699Z" fill="#000091"/>
<path d="M159.787 752.59V780.244H46.7428V788.188H323.017V744.645H46.7428V752.59H159.787Z" fill="#FFCBCF"/>
<path d="M46.3985 752.453H158.109V780.392H46.3985V752.453Z" fill="white"/>
<path d="M46.3987 782.964H158.11C158.793 782.964 159.449 782.693 159.932 782.21C160.416 781.728 160.687 781.074 160.687 780.391V752.451C160.688 751.769 160.416 751.115 159.932 750.632C159.449 750.15 158.793 749.879 158.11 749.879H46.3987C45.715 749.879 45.0593 750.15 44.5758 750.632C44.0924 751.115 43.8208 751.769 43.8208 752.451V780.391C43.8208 781.074 44.0924 781.728 44.5758 782.21C45.0593 782.693 45.715 782.964 46.3987 782.964ZM155.532 777.819H48.9767V755.024H155.532V777.819Z" fill="#222433"/>
<path d="M99.3326 580.387H375.86V591.963H99.3326V580.387Z" fill="#FFCBCF"/>
<path d="M101.825 588.747H223.59C224.273 588.747 224.929 588.476 225.412 587.993C225.896 587.511 226.167 586.856 226.167 586.174C226.167 585.492 225.896 584.837 225.412 584.355C224.929 583.873 224.273 583.602 223.59 583.602H101.825C101.141 583.602 100.485 583.873 100.002 584.355C99.5184 584.837 99.2468 585.492 99.2468 586.174C99.2468 586.856 99.5184 587.511 100.002 587.993C100.485 588.476 101.141 588.747 101.825 588.747Z" fill="#222433"/>
<path d="M131.901 635.347H52.8438L52.8584 645.7H151.665V687.376H52.9151L52.9297 697.81H329.457V635.266" fill="white"/>
<path d="M52.9299 700.384H329.457C330.141 700.384 330.797 700.113 331.28 699.631C331.764 699.149 332.035 698.494 332.035 697.812V635.268C332.035 634.586 331.764 633.931 331.28 633.449C330.797 632.966 330.141 632.695 329.457 632.695C328.774 632.695 328.118 632.966 327.634 633.449C327.151 633.931 326.879 634.586 326.879 635.268V695.239H55.5079L55.5001 689.95H151.665C152.349 689.95 153.005 689.679 153.488 689.197C153.971 688.715 154.243 688.06 154.243 687.378V645.704C154.243 645.021 153.971 644.367 153.488 643.885C153.005 643.402 152.349 643.131 151.665 643.131H55.4323L55.422 637.926H131.901C132.585 637.926 133.24 637.655 133.724 637.173C134.207 636.69 134.479 636.036 134.479 635.354C134.479 634.671 134.207 634.017 133.724 633.535C133.24 633.052 132.585 632.781 131.901 632.781H52.844C52.1603 632.781 51.5046 633.052 51.0211 633.535C50.5377 634.017 50.2661 634.671 50.2661 635.354L50.2798 645.705C50.2798 646.388 50.5514 647.042 51.0349 647.524C51.5183 648.007 52.174 648.278 52.8578 648.278H149.087V684.807H52.9162C52.2325 684.807 51.5768 685.078 51.0933 685.561C50.6099 686.043 50.3383 686.697 50.3383 687.38L50.352 697.814C50.3524 698.496 50.6242 699.15 51.1077 699.632C51.5911 700.114 52.2465 700.384 52.9299 700.384Z" fill="#222433"/>
<path d="M329.457 740.685V704.568L65.6476 704.395V740.409L329.457 740.685Z" fill="white"/>
<path d="M329.457 743.258C330.141 743.258 330.797 742.987 331.28 742.504C331.764 742.022 332.035 741.367 332.035 740.685V704.568C332.035 703.886 331.764 703.232 331.28 702.749C330.797 702.267 330.141 701.996 329.457 701.996L65.6478 701.824C64.9641 701.824 64.3083 702.095 63.8249 702.578C63.3414 703.06 63.0699 703.714 63.0699 704.397V740.412C63.0699 741.094 63.3414 741.748 63.8249 742.231C64.3083 742.713 64.9641 742.984 65.6478 742.984L329.457 743.259V743.258ZM326.879 707.139V738.11L68.2257 737.84V706.97L326.879 707.139Z" fill="#222433"/>
<path d="M62.3003 700.434V744.423H338.828V737.563H68.5733V707.294H338.828V700.434H62.3003Z" fill="#000091"/>
<path d="M164.726 700.438H169.023V744.427H164.726V700.438Z" fill="#000091"/>
<path d="M131.9 594.625H408.428V635.355H131.9V594.625Z" fill="white"/>
<path d="M131.901 637.927H408.428C409.112 637.927 409.767 637.656 410.251 637.173C410.734 636.691 411.006 636.037 411.006 635.354V594.623C411.006 593.941 410.734 593.287 410.251 592.804C409.767 592.322 409.112 592.051 408.428 592.051H131.901C131.217 592.051 130.561 592.322 130.078 592.804C129.594 593.287 129.323 593.941 129.323 594.623V635.354C129.323 636.037 129.594 636.691 130.078 637.173C130.561 637.656 131.217 637.927 131.901 637.927ZM405.85 632.782H134.479V597.196H405.85V632.782Z" fill="#222433"/>
<path d="M194.802 700.384C195.486 700.384 196.142 700.113 196.625 699.631C197.109 699.148 197.38 698.494 197.38 697.812V636.983C197.38 636.3 197.109 635.646 196.625 635.164C196.142 634.681 195.486 634.41 194.802 634.41C194.119 634.41 193.463 634.681 192.98 635.164C192.496 635.646 192.224 636.3 192.224 636.983V697.812C192.224 698.494 192.496 699.148 192.98 699.631C193.463 700.113 194.119 700.384 194.802 700.384Z" fill="#222433"/>
<path d="M315.536 628.862H408.428C409.112 628.862 409.767 628.591 410.251 628.108C410.734 627.626 411.006 626.972 411.006 626.289C411.006 625.607 410.734 624.953 410.251 624.47C409.767 623.988 409.112 623.717 408.428 623.717H318.114V606.258H408.428C409.112 606.258 409.767 605.987 410.251 605.505C410.734 605.022 411.006 604.368 411.006 603.686C411.006 603.004 410.734 602.349 410.251 601.867C409.767 601.384 409.112 601.113 408.428 601.113H315.536C314.852 601.113 314.197 601.384 313.713 601.867C313.23 602.349 312.958 603.004 312.958 603.686V626.289C312.958 626.972 313.23 627.626 313.713 628.108C314.197 628.591 314.852 628.862 315.536 628.862Z" fill="#222433"/>
</g>
<g clip-path="url(#clip4_344_15906)">
<path d="M188.638 383.373C187.908 383.586 187.124 383.514 186.442 383.17C185.76 382.826 185.23 382.236 184.958 381.518L177.019 360.525C176.874 360.149 176.804 359.749 176.814 359.347C176.823 358.945 176.911 358.55 177.072 358.183C177.234 357.817 177.466 357.486 177.755 357.211C178.044 356.936 178.385 356.721 178.757 356.58C179.13 356.438 179.527 356.373 179.925 356.386C180.324 356.4 180.716 356.493 181.08 356.66C181.443 356.828 181.771 357.065 182.043 357.36C182.316 357.655 182.529 358.001 182.669 358.378L190.608 379.371C190.75 379.746 190.817 380.145 190.806 380.545C190.795 380.946 190.706 381.339 190.544 381.704C190.382 382.069 190.15 382.397 189.861 382.671C189.573 382.945 189.233 383.158 188.862 383.299C188.786 383.33 188.71 383.352 188.638 383.373Z" fill="#222433"/>
<path d="M275.362 385.938C274.869 386.082 274.346 386.097 273.844 385.981C273.342 385.865 272.877 385.622 272.493 385.275C272.109 384.928 271.818 384.488 271.649 383.997C271.48 383.506 271.437 382.981 271.525 382.47L275.332 360.366C275.469 359.57 275.915 358.863 276.571 358.401C277.226 357.939 278.039 357.759 278.829 357.901C279.62 358.044 280.323 358.497 280.785 359.161C281.247 359.824 281.43 360.645 281.293 361.441L277.486 383.545C277.389 384.105 277.139 384.626 276.764 385.049C276.389 385.472 275.903 385.779 275.362 385.938Z" fill="#222433"/>
<path d="M348.755 432.904C348.13 433.087 347.461 433.062 346.849 432.831C346.237 432.601 345.714 432.177 345.359 431.623C345.003 431.07 344.834 430.416 344.877 429.76C344.92 429.104 345.172 428.481 345.595 427.983L360.044 411.027C360.301 410.721 360.616 410.469 360.971 410.286C361.326 410.104 361.713 409.994 362.111 409.963C362.509 409.932 362.909 409.981 363.289 410.107C363.668 410.233 364.02 410.433 364.324 410.696C364.627 410.959 364.876 411.28 365.056 411.64C365.237 412 365.345 412.392 365.374 412.794C365.404 413.195 365.354 413.598 365.229 413.979C365.103 414.361 364.903 414.713 364.642 415.015L350.193 431.97C349.814 432.416 349.315 432.74 348.755 432.904Z" fill="#222433"/>
</g>
<g clip-path="url(#clip5_344_15906)">
<path d="M1024.69 793.041C1024.6 793.055 1024.51 793.062 1024.42 793.061L2.02252 789.584C1.54871 789.583 1.09519 789.394 0.761719 789.059C0.428248 788.725 0.242144 788.272 0.244349 787.8C0.246554 787.328 0.436886 786.877 0.773474 786.544C1.11006 786.212 1.56534 786.026 2.03914 786.028L1024.44 789.504C1024.89 789.505 1025.32 789.675 1025.65 789.98C1025.98 790.286 1026.18 790.704 1026.21 791.151C1026.25 791.599 1026.11 792.042 1025.83 792.393C1025.54 792.743 1025.14 792.975 1024.69 793.041Z" fill="#222433"/>
</g>
<path d="M1026 161.968C1070.16 161.968 1105.97 126.166 1105.97 82.0014C1105.97 37.8373 1070.16 2.03516 1026 2.03516C981.836 2.03516 946.034 37.8373 946.034 82.0014C946.034 126.166 981.836 161.968 1026 161.968Z" fill="white"/>
<path d="M1026 164C980.785 164 944 127.215 944 82C944 36.7848 980.785 0 1026 0C1071.22 0 1108 36.7848 1108 82C1108 127.215 1071.22 164 1026 164ZM1026 4.06746C983.028 4.06746 948.067 39.028 948.067 82C948.067 124.972 983.028 159.933 1026 159.933C1068.97 159.933 1103.93 124.972 1103.93 82C1103.93 39.028 1068.97 4.06746 1026 4.06746Z" fill="#222433"/>
<path d="M1026 84.0324C1025.7 84.0324 1025.39 83.9653 1025.11 83.8277C1024.41 83.4873 1023.97 82.7769 1023.97 81.9987V28.5454C1023.97 27.4222 1024.88 26.5117 1026 26.5117C1027.12 26.5117 1028.03 27.4222 1028.03 28.5454V77.8153L1057.83 54.4152C1058.71 53.7217 1059.99 53.8749 1060.68 54.7582C1061.37 55.6415 1061.22 56.9201 1060.34 57.6136L1027.26 83.5979C1026.89 83.8853 1026.45 84.0324 1026 84.0324Z" fill="#222433"/>
<defs>
<clipPath id="clip0_344_15906">
<rect width="409.552" height="409.553" fill="white" transform="matrix(-1 0 0 1 1006.84 380.656)"/>
</clipPath>
<clipPath id="clip1_344_15906">
<rect width="480.165" height="679.225" fill="white" transform="translate(407.644 113)"/>
</clipPath>
<clipPath id="clip2_344_15906">
<rect width="287.83" height="162.072" fill="white" transform="translate(87.5342 417.641)"/>
</clipPath>
<clipPath id="clip3_344_15906">
<rect width="367.185" height="207.802" fill="white" transform="matrix(-1 0 0 1 411.006 580.387)"/>
</clipPath>
<clipPath id="clip4_344_15906">
<rect width="166.107" height="121.05" fill="white" transform="matrix(0.959627 -0.281276 0.281332 0.959611 176.082 357.371)"/>
</clipPath>
<clipPath id="clip5_344_15906">
<rect width="1014.13" height="158.71" fill="white" transform="matrix(0.988929 -0.148392 0.148424 0.988924 0 786.312)"/>
</clipPath>
</defs>
</svg>
