<svg width="653" height="367" viewBox="0 0 653 367" fill="none" xmlns="http://www.w3.org/2000/svg">
<g clip-path="url(#clip0_1269_16061)">
<path d="M429.261 204.364H553.679L568.077 130.615C568.434 128.786 568.382 126.901 567.924 125.095C567.466 123.29 566.613 121.607 565.428 120.169C564.242 118.731 562.753 117.573 561.066 116.778C559.38 115.983 557.538 115.571 555.673 115.571H456.916C453.982 115.571 451.139 116.591 448.876 118.456C446.612 120.321 445.068 122.915 444.51 125.793L429.261 204.364Z" fill="#000091"/>
<path d="M437.671 200.66H545.964L558.863 134.582C559.129 133.22 559.09 131.816 558.749 130.471C558.408 129.127 557.773 127.874 556.89 126.803C556.007 125.732 554.898 124.869 553.642 124.277C552.386 123.685 551.014 123.378 549.625 123.377H461.746C459.192 123.377 456.718 124.265 454.748 125.889C452.777 127.512 451.434 129.769 450.948 132.274L437.671 200.66Z" fill="#F9CFD2"/>
<path d="M392.709 210.408H548.057C551.218 210.408 553.049 208.081 553.617 204.762L553.915 203.155H392.709C391.746 203.155 390.823 203.537 390.142 204.217C389.462 204.897 389.079 205.82 389.079 206.781C389.079 207.743 389.462 208.666 390.142 209.346C390.823 210.026 391.746 210.408 392.709 210.408Z" fill="#000091"/>
<path d="M506.957 121.029C507.726 121.029 508.35 120.406 508.35 119.637C508.35 118.869 507.726 118.245 506.957 118.245C506.187 118.245 505.563 118.869 505.563 119.637C505.563 120.406 506.187 121.029 506.957 121.029Z" fill="#F9CFD2"/>
</g>
<g clip-path="url(#clip1_1269_16061)">
<path d="M568.552 210.066H375.917C374.356 210.066 372.859 210.685 371.756 211.787C370.652 212.889 370.032 214.384 370.032 215.943C370.032 217.501 370.652 218.996 371.756 220.098C372.859 221.2 374.356 221.82 375.917 221.82H394.783V346.349C394.784 346.896 395.003 347.421 395.39 347.808C395.778 348.195 396.303 348.413 396.851 348.415H404.482C405.031 348.413 405.556 348.195 405.944 347.808C406.331 347.421 406.55 346.896 406.552 346.349V221.82H537.918V346.349C537.919 346.896 538.138 347.421 538.525 347.808C538.913 348.195 539.438 348.413 539.986 348.415H547.617C548.165 348.413 548.691 348.195 549.078 347.808C549.466 347.421 549.684 346.896 549.686 346.349V221.82H568.552C570.113 221.82 571.609 221.2 572.713 220.098C573.816 218.996 574.436 217.501 574.436 215.943C574.436 214.384 573.816 212.889 572.713 211.787C571.609 210.685 570.113 210.066 568.552 210.066Z" fill="white"/>
<path d="M547.617 349.433H539.986C539.168 349.432 538.383 349.107 537.804 348.529C537.225 347.95 536.899 347.167 536.898 346.349V222.838H407.571V346.349C407.57 347.167 407.244 347.95 406.665 348.529C406.086 349.107 405.301 349.432 404.483 349.433H396.851C396.033 349.432 395.248 349.107 394.669 348.529C394.09 347.95 393.764 347.167 393.763 346.349V222.838H375.917C374.086 222.838 372.33 222.111 371.035 220.818C369.74 219.525 369.013 217.772 369.013 215.943C369.013 214.114 369.74 212.361 371.035 211.068C372.33 209.775 374.086 209.048 375.917 209.048H568.552C570.383 209.048 572.139 209.775 573.434 211.068C574.729 212.361 575.456 214.114 575.456 215.943C575.456 217.772 574.729 219.525 573.434 220.818C572.139 222.111 570.383 222.838 568.552 222.838H550.706V346.349C550.704 347.167 550.379 347.95 549.8 348.529C549.221 349.107 548.436 349.432 547.617 349.433ZM406.551 220.801H537.917C538.188 220.801 538.447 220.909 538.638 221.1C538.83 221.291 538.937 221.55 538.937 221.82V346.349C538.937 346.627 539.048 346.893 539.245 347.09C539.441 347.286 539.708 347.397 539.986 347.397H547.617C547.895 347.397 548.162 347.286 548.359 347.09C548.556 346.893 548.666 346.627 548.667 346.349V221.82C548.667 221.55 548.774 221.291 548.965 221.1C549.156 220.909 549.416 220.801 549.686 220.801H568.552C569.842 220.801 571.08 220.29 571.992 219.378C572.904 218.467 573.417 217.231 573.417 215.943C573.417 214.654 572.904 213.419 571.992 212.507C571.08 211.596 569.842 211.084 568.552 211.084H375.917C374.626 211.084 373.389 211.596 372.477 212.507C371.564 213.419 371.052 214.654 371.052 215.943C371.052 217.231 371.564 218.467 372.477 219.378C373.389 220.29 374.626 220.801 375.917 220.801H394.783C395.053 220.801 395.312 220.909 395.503 221.1C395.695 221.291 395.802 221.55 395.802 221.82V346.349C395.802 346.627 395.913 346.893 396.11 347.09C396.306 347.286 396.573 347.397 396.851 347.397H404.483C404.761 347.397 405.028 347.286 405.224 347.09C405.421 346.893 405.532 346.627 405.532 346.349V221.82C405.532 221.55 405.639 221.291 405.831 221.1C406.022 220.909 406.281 220.801 406.551 220.801Z" fill="#222433"/>
</g>
<g clip-path="url(#clip2_1269_16061)">
<path d="M505.379 134.912C498.779 131.296 489.286 126.849 482.994 124.25L440.937 111.107C423.579 108.732 405.172 108.968 404.694 116.045C404.232 122.852 416.492 122.03 438.618 126.258C418.386 125.944 403.513 127.175 403.87 134.218C404.227 141.261 424.67 141.454 440.28 141.58C430.395 146.042 416.777 151.62 417.926 156.964C419.579 164.671 431.386 160.391 439.494 158.363C457.455 153.87 460.752 159.397 469.351 167.362L473.676 172.618" fill="white"/>
<path d="M473.677 173.636C473.526 173.636 473.376 173.603 473.24 173.538C473.104 173.474 472.983 173.38 472.888 173.263L468.607 168.06C467.771 167.285 466.99 166.538 466.235 165.815C459.238 159.124 455.384 155.438 439.744 159.35C438.785 159.59 437.783 159.859 436.722 160.144C430.588 161.793 423.635 163.662 419.692 161.257C418.97 160.809 418.351 160.214 417.875 159.51C417.399 158.807 417.077 158.011 416.93 157.175C415.77 151.777 425.539 147.076 435.619 142.552C429.153 142.471 422.013 142.27 416.223 141.501C410.603 140.755 403.103 139.193 402.853 134.268C402.808 133.517 402.924 132.766 403.194 132.063C403.463 131.361 403.879 130.724 404.415 130.195C407.764 126.734 416.399 125.561 426.66 125.269C425.215 125.051 423.824 124.846 422.49 124.653C410.103 122.842 403.28 121.845 403.678 115.973C403.736 115.238 403.95 114.524 404.306 113.878C404.662 113.231 405.152 112.668 405.744 112.226C412.545 106.694 434.509 109.198 441.078 110.096C441.134 110.104 441.19 110.116 441.244 110.133L483.301 123.276C483.33 123.285 483.358 123.296 483.386 123.307C489.317 125.756 498.945 130.221 505.873 134.017C506.11 134.147 506.286 134.366 506.361 134.625C506.437 134.884 506.406 135.163 506.276 135.4C506.146 135.637 505.927 135.812 505.667 135.887C505.407 135.963 505.128 135.932 504.891 135.802C498.044 132.051 488.53 127.637 482.648 125.206L440.718 112.102C424.029 109.828 411.125 110.479 407.034 113.805C406.662 114.073 406.351 114.417 406.124 114.815C405.896 115.212 405.757 115.654 405.715 116.11C405.456 119.941 410.762 120.88 422.787 122.638C427.431 123.317 432.695 124.086 438.813 125.256C439.064 125.303 439.288 125.443 439.441 125.648C439.594 125.852 439.664 126.107 439.638 126.36C439.612 126.614 439.491 126.849 439.3 127.018C439.109 127.187 438.861 127.279 438.605 127.274C425.52 127.071 409.977 127.379 405.884 131.61C405.544 131.939 405.279 132.338 405.108 132.779C404.937 133.22 404.863 133.692 404.892 134.164C405.202 140.277 427.168 140.453 440.292 140.558C440.525 140.56 440.75 140.641 440.93 140.788C441.11 140.935 441.234 141.139 441.283 141.366C441.331 141.593 441.3 141.83 441.194 142.037C441.089 142.244 440.916 142.409 440.704 142.505C439.912 142.862 439.095 143.227 438.264 143.599C430.212 147.198 418.043 152.638 418.927 156.748C419.017 157.313 419.227 157.852 419.543 158.33C419.858 158.808 420.272 159.213 420.757 159.518C423.954 161.466 430.739 159.642 436.193 158.176C437.262 157.889 438.272 157.617 439.249 157.373C455.985 153.188 460.625 157.625 467.649 164.344C468.415 165.076 469.206 165.832 470.049 166.613C470.083 166.645 470.114 166.679 470.143 166.715L474.464 171.972C474.586 172.121 474.663 172.302 474.687 172.493C474.71 172.684 474.679 172.878 474.596 173.052C474.514 173.227 474.383 173.374 474.221 173.477C474.058 173.58 473.869 173.635 473.676 173.635L473.677 173.636Z" fill="#222433"/>
<path d="M473.304 172.166L478.643 178.158C483.363 183.139 489.867 186.052 496.733 186.263C503.599 186.473 510.27 183.963 515.288 179.281C520.278 174.57 523.198 168.079 523.409 161.227C523.619 154.374 521.105 147.717 516.413 142.709C516.413 142.709 510.596 137.191 505.381 134.912" fill="white"/>
<path d="M497.535 187.312C493.856 187.319 490.215 186.572 486.837 185.117C483.459 183.663 480.416 181.532 477.898 178.856L472.541 172.843C472.45 172.743 472.379 172.626 472.334 172.499C472.288 172.372 472.269 172.238 472.276 172.103C472.283 171.969 472.317 171.837 472.375 171.715C472.434 171.594 472.516 171.485 472.617 171.396C472.718 171.306 472.835 171.238 472.963 171.194C473.091 171.15 473.226 171.132 473.361 171.141C473.496 171.149 473.627 171.185 473.748 171.245C473.869 171.305 473.977 171.388 474.065 171.49L479.404 177.482C483.938 182.248 490.178 185.028 496.76 185.215C503.342 185.401 509.73 182.979 514.527 178.477C519.324 173.975 522.139 167.76 522.357 161.192C522.575 154.624 520.177 148.237 515.689 143.429C515.315 143.078 509.809 137.96 504.97 135.845C504.847 135.791 504.736 135.714 504.643 135.618C504.55 135.521 504.477 135.408 504.428 135.283C504.379 135.158 504.356 135.025 504.358 134.892C504.361 134.758 504.39 134.626 504.444 134.503C504.497 134.381 504.575 134.27 504.671 134.177C504.768 134.085 504.882 134.012 505.007 133.963C505.132 133.914 505.265 133.891 505.399 133.893C505.533 133.896 505.665 133.925 505.788 133.978C511.106 136.302 516.871 141.739 517.114 141.97C517.128 141.983 517.142 141.996 517.154 142.01C520.759 145.831 523.163 150.622 524.071 155.791C524.98 160.96 524.352 166.281 522.265 171.098C520.179 175.915 516.725 180.017 512.33 182.898C507.935 185.779 502.791 187.313 497.533 187.311L497.535 187.312Z" fill="#222433"/>
<path d="M352.348 46.0266L438.601 15.6347L476.062 121.529L389.809 151.921L352.348 46.0266Z" fill="white"/>
<path d="M389.809 152.939C389.598 152.94 389.392 152.874 389.219 152.753C389.047 152.631 388.917 152.459 388.847 152.261L351.385 46.3652C351.295 46.1106 351.31 45.8307 351.427 45.5871C351.543 45.3434 351.752 45.156 352.007 45.066L438.261 14.6744C438.516 14.5844 438.797 14.5993 439.041 14.7157C439.285 14.8321 439.473 15.0405 439.563 15.2951L477.024 121.19C477.069 121.316 477.088 121.45 477.081 121.583C477.074 121.717 477.04 121.848 476.982 121.968C476.925 122.089 476.844 122.197 476.744 122.286C476.644 122.376 476.528 122.445 476.402 122.489L390.148 152.882C390.039 152.92 389.924 152.94 389.809 152.939ZM353.649 46.6476L390.431 150.622L474.76 120.908L437.978 16.9333L353.649 46.6476Z" fill="#222433"/>
<path d="M386.956 89.0675C386.715 89.0679 386.482 88.9831 386.298 88.8283C386.113 88.6734 385.99 88.4585 385.949 88.2215C385.909 87.9845 385.953 87.7408 386.075 87.5335C386.197 87.3262 386.389 87.1687 386.616 87.0889L437.759 69.0675C438.014 68.9775 438.294 68.9923 438.538 69.1087C438.783 69.2251 438.971 69.4336 439.061 69.6882C439.151 69.9429 439.136 70.2228 439.019 70.4665C438.903 70.7103 438.694 70.8977 438.439 70.9877L387.296 89.0098C387.187 89.0481 387.072 89.0676 386.956 89.0675Z" fill="#222433"/>
<path d="M382.909 75.5096C382.668 75.51 382.435 75.4252 382.251 75.2704C382.067 75.1156 381.943 74.9006 381.902 74.6636C381.862 74.4266 381.906 74.1829 382.028 73.9756C382.15 73.7683 382.342 73.6108 382.569 73.531L433.712 55.5096C433.967 55.4196 434.247 55.4345 434.492 55.5509C434.736 55.6673 434.924 55.8757 435.014 56.1304C435.104 56.385 435.089 56.665 434.973 56.9087C434.856 57.1524 434.647 57.3399 434.392 57.4299L383.249 75.4519C383.14 75.4902 383.025 75.5097 382.909 75.5096Z" fill="#222433"/>
<path d="M391.813 102.795C391.572 102.795 391.339 102.71 391.154 102.555C390.97 102.4 390.846 102.186 390.806 101.949C390.765 101.712 390.81 101.468 390.932 101.261C391.054 101.053 391.245 100.896 391.473 100.816L442.616 82.7945C442.742 82.75 442.876 82.7307 443.01 82.7378C443.144 82.7448 443.275 82.7781 443.396 82.8358C443.517 82.8934 443.625 82.9743 443.714 83.0737C443.804 83.1731 443.873 83.2892 443.918 83.4153C443.963 83.5414 443.982 83.675 443.975 83.8085C443.968 83.9421 443.934 84.0729 443.877 84.1936C443.819 84.3143 443.738 84.4224 443.638 84.5118C443.539 84.6013 443.422 84.6702 443.296 84.7148L392.153 102.736C392.044 102.775 391.929 102.794 391.813 102.795Z" fill="#222433"/>
<path d="M396.668 116.521C396.427 116.522 396.194 116.437 396.01 116.282C395.825 116.127 395.702 115.912 395.661 115.675C395.62 115.438 395.665 115.195 395.787 114.987C395.909 114.78 396.101 114.623 396.328 114.543L447.471 96.5213C447.597 96.4768 447.731 96.4575 447.865 96.4646C447.998 96.4716 448.129 96.5049 448.25 96.5626C448.371 96.6202 448.48 96.7011 448.569 96.8005C448.659 96.8999 448.728 97.016 448.773 97.1421C448.817 97.2682 448.837 97.4018 448.83 97.5353C448.822 97.6689 448.789 97.7997 448.731 97.9204C448.674 98.0411 448.593 98.1492 448.493 98.2386C448.393 98.3281 448.277 98.397 448.151 98.4416L397.008 116.463C396.899 116.502 396.784 116.521 396.668 116.521Z" fill="#222433"/>
<path d="M485.568 146.151C476.525 144.11 470.067 136.094 461.302 130.252C449.166 122.163 442.155 115.875 442.42 112.454C443.042 104.591 464.477 117.833 482.994 124.25" fill="white"/>
<path d="M485.569 147.17C485.493 147.17 485.417 147.161 485.343 147.144C479.089 145.733 474.119 141.649 468.858 137.325C466.257 135.116 463.546 133.038 460.735 131.099C452.251 125.443 441.017 117.35 441.403 112.375C441.528 110.792 442.339 109.994 442.996 109.602C446.268 107.655 453.74 110.782 465.663 116.044C471.479 118.612 477.495 121.267 483.329 123.289C483.455 123.333 483.572 123.401 483.672 123.49C483.772 123.579 483.854 123.687 483.912 123.807C483.97 123.927 484.005 124.058 484.012 124.191C484.02 124.325 484.002 124.459 483.958 124.585C483.914 124.711 483.845 124.828 483.756 124.928C483.667 125.027 483.559 125.109 483.439 125.167C483.318 125.225 483.187 125.259 483.053 125.267C482.92 125.275 482.786 125.256 482.659 125.213C476.746 123.163 470.419 120.37 464.837 117.906C455.859 113.943 446.573 109.844 444.042 111.351C443.792 111.499 443.498 111.768 443.438 112.534C443.335 113.844 444.928 118.113 461.869 129.406C464.736 131.381 467.502 133.499 470.155 135.752C475.224 139.918 480.012 143.852 485.794 145.157C486.039 145.212 486.255 145.355 486.401 145.559C486.546 145.763 486.612 146.014 486.584 146.263C486.556 146.512 486.437 146.742 486.25 146.909C486.063 147.077 485.821 147.169 485.57 147.169L485.569 147.17Z" fill="#222433"/>
</g>
<g clip-path="url(#clip3_1269_16061)">
<path d="M335.537 89.5402C335.537 89.5402 336.825 65.6088 337.334 59.6175C337.978 52.7123 336.012 49.4289 333.198 49.3273C328.383 49.1243 327.705 67.0305 327.603 69.7723C327.671 66.692 327.942 44.25 321.67 43.9115C314.787 43.5391 317.33 67.7752 317.33 67.7752C317.304 67.7727 317.279 67.7606 317.262 67.7413C317.227 67.14 317.16 66.5411 317.058 65.9473C315.973 60.2268 313.396 56.5711 309.701 54.4386C306.276 52.4753 302.208 51.7983 297.528 53.457C296.962 53.6559 296.441 53.9645 295.994 54.3651C295.548 54.7657 295.185 55.2504 294.927 55.7914C294.669 56.3323 294.52 56.9189 294.489 57.5174C294.458 58.1159 294.547 58.7146 294.748 59.279C295.073 60.1969 295.678 60.9901 296.477 61.5469C296.288 61.5057 296.095 61.483 295.901 61.4792C294.692 61.4152 293.507 61.8315 292.605 62.637C291.703 63.4425 291.157 64.5718 291.086 65.7781C291.016 67.2003 291.05 68.6258 291.188 70.0431C291.731 74.5789 294.579 78.6746 299.427 81.6195C300.697 82.5261 301.727 83.7266 302.43 85.1179C303.132 86.5092 303.487 88.0499 303.462 89.6079L335.537 89.5402ZM300.58 62.0546C302.614 61.3438 304.174 61.2761 305.191 61.8516C306.48 62.5962 307.531 64.6949 308.107 67.6736C308.258 68.4254 308.184 69.2048 307.895 69.915C307.606 70.6252 307.113 71.2347 306.48 71.6678C305.91 72.0599 305.248 72.2973 304.558 72.3566C303.868 72.416 303.175 72.2953 302.547 72.0063C301.936 71.7433 301.406 71.3222 301.013 70.7867C300.62 70.2512 300.377 69.6205 300.309 68.9599C300.216 68.0603 300.194 67.155 300.241 66.252C300.287 65.4649 300.127 64.6794 299.776 63.9731C299.425 63.2667 298.896 62.6638 298.241 62.2239C299.021 62.3863 299.831 62.3277 300.58 62.0546Z" fill="white"/>
<path d="M303.462 90.6234H303.456C303.323 90.6228 303.191 90.5959 303.067 90.5442C302.944 90.4926 302.832 90.4173 302.738 90.3225C302.644 90.2277 302.57 90.1154 302.52 89.9919C302.469 89.8684 302.443 89.7362 302.444 89.6028C302.463 88.213 302.148 86.8389 301.524 85.5963C300.9 84.3537 299.986 83.279 298.859 82.4627C293.843 79.4034 290.761 75.0372 290.179 70.1632C290.035 68.6911 289.999 67.2104 290.071 65.733C290.137 64.548 290.579 63.4145 291.333 62.4971C292.087 61.5797 293.115 60.9261 294.266 60.6309C294.076 60.3102 293.917 59.9718 293.792 59.6205C293.302 58.2265 293.385 56.696 294.021 55.3624C294.657 54.0288 295.795 53.0002 297.188 52.5007C301.771 50.8759 306.151 51.232 310.207 53.5581C312.584 54.933 314.533 56.9389 315.837 59.3528C315.773 53.6377 316.273 46.75 318.787 44.1112C319.155 43.7034 319.61 43.3829 320.118 43.1729C320.626 42.9629 321.175 42.8688 321.724 42.8973C324.974 43.0727 327.034 47.2588 328.023 55.6954C328.036 55.803 328.048 55.91 328.06 56.0173C328.718 52.9837 329.651 50.4267 330.976 49.2045C331.273 48.9095 331.626 48.6783 332.016 48.5249C332.405 48.3716 332.821 48.2994 333.24 48.3129C333.857 48.3352 334.462 48.4859 335.018 48.7553C335.573 49.0248 336.066 49.4071 336.465 49.8777C338.12 51.7584 338.77 55.1582 338.346 59.7113C337.845 65.6102 336.565 89.3554 336.552 89.5947C336.545 89.7279 336.511 89.8583 336.454 89.9786C336.396 90.0989 336.315 90.2067 336.216 90.2958C336.116 90.3849 336 90.4536 335.874 90.4979C335.748 90.5422 335.615 90.5613 335.481 90.5542C335.348 90.547 335.217 90.5136 335.097 90.4561C334.976 90.3985 334.868 90.3177 334.779 90.2185C334.69 90.1192 334.621 90.0034 334.577 89.8776C334.532 89.7518 334.513 89.6186 334.52 89.4854C334.534 89.2461 335.816 65.4697 336.32 59.5315C336.815 54.2263 335.666 52.0464 334.937 51.2185C334.721 50.9539 334.45 50.7387 334.144 50.5875C333.837 50.4363 333.502 50.3527 333.16 50.3421C333.009 50.3401 332.858 50.3707 332.72 50.4318C332.581 50.493 332.457 50.5833 332.357 50.6965C330.422 52.4804 328.99 59.8043 328.619 69.8098C328.615 69.9432 328.585 70.0745 328.53 70.1962C328.475 70.3179 328.397 70.4276 328.3 70.5191C328.202 70.6106 328.088 70.6821 327.963 70.7295C327.838 70.7769 327.705 70.7993 327.571 70.7954C327.438 70.7914 327.306 70.7613 327.185 70.7066C327.063 70.6519 326.953 70.5738 326.861 70.4767C326.769 70.3797 326.698 70.2655 326.65 70.1408C326.603 70.0161 326.58 69.8833 326.584 69.7499C326.852 57.5615 325.23 45.1205 321.613 44.9256C321.357 44.9117 321.102 44.9573 320.867 45.0587C320.633 45.1602 320.425 45.3147 320.26 45.5101C317.125 48.8016 317.811 62.622 318.339 67.6692C318.354 67.8108 318.339 67.9538 318.295 68.0892C318.251 68.2245 318.179 68.3491 318.083 68.4549C317.879 68.6596 317.601 68.7749 317.312 68.7753C317.022 68.7758 316.744 68.6614 316.539 68.4572C316.363 68.2808 316.258 68.046 316.244 67.7975C316.212 67.2333 316.148 66.6713 316.053 66.1142C315.074 60.9556 312.828 57.4166 309.19 55.3163C305.674 53.2999 301.863 52.9959 297.865 54.4122C297.424 54.5648 297.016 54.8036 296.668 55.1148C296.319 55.4259 296.036 55.8031 295.835 56.2245C295.634 56.6458 295.519 57.1029 295.496 57.5691C295.474 58.0354 295.544 58.5014 295.704 58.9402C295.957 59.6572 296.43 60.2768 297.055 60.7115C297.187 60.8037 297.296 60.9262 297.372 61.0689C297.448 61.2115 297.489 61.3702 297.491 61.5317C297.613 61.4014 297.766 61.3051 297.937 61.2526C298.107 61.2 298.288 61.193 298.462 61.2321C299.056 61.3529 299.672 61.3051 300.24 61.0943C302.568 60.282 304.402 60.2383 305.689 60.9664C307.255 61.8712 308.464 64.1821 309.102 67.4793C309.276 68.3768 309.198 69.3047 308.877 70.1609C308.556 71.0171 308.005 71.7683 307.285 72.3321C306.564 72.8958 305.701 73.2502 304.792 73.3561C303.883 73.4621 302.961 73.3156 302.13 72.9328C301.358 72.5938 300.69 72.0577 300.192 71.3785C299.694 70.6994 299.384 69.9012 299.294 69.0645C299.197 68.118 299.173 67.1656 299.221 66.2154C299.26 65.5992 299.137 64.9834 298.863 64.4297C298.59 63.876 298.175 63.4038 297.661 63.0603C297.527 62.9684 297.416 62.8455 297.339 62.702C297.262 62.5585 297.221 62.3985 297.218 62.2357C297.1 62.3626 296.951 62.4572 296.786 62.5105C296.62 62.5638 296.444 62.5741 296.274 62.5404C296.131 62.5142 295.987 62.4976 295.842 62.4906C295.376 62.4645 294.91 62.5301 294.47 62.6838C294.03 62.8374 293.624 63.0761 293.277 63.3862C292.929 63.6963 292.646 64.0718 292.443 64.4911C292.241 64.9104 292.123 65.3655 292.097 65.8302C292.03 67.1996 292.063 68.5721 292.195 69.9368C292.704 74.174 295.457 78.0196 299.951 80.7496C299.977 80.7651 300.002 80.7814 300.026 80.7993C301.425 81.8016 302.56 83.1265 303.335 84.6613C304.111 86.1961 304.503 87.8953 304.479 89.614C304.477 89.8823 304.369 90.139 304.179 90.3281C303.988 90.5172 303.73 90.6234 303.462 90.6234ZM300.484 63.1439C301.057 64.0977 301.326 65.2028 301.256 66.3129C301.214 67.1533 301.234 67.9956 301.318 68.8329C301.365 69.3196 301.542 69.7846 301.831 70.1794C302.12 70.5742 302.509 70.8844 302.959 71.0775C303.429 71.295 303.946 71.3868 304.462 71.3439C304.977 71.3009 305.473 71.1246 305.899 70.8324C306.369 70.5105 306.735 70.058 306.949 69.5309C307.164 69.0038 307.22 68.4254 307.108 67.8672C306.6 65.2327 305.692 63.3132 304.681 62.7293C303.956 62.3193 302.616 62.4182 300.916 63.0119H300.913C300.771 63.0629 300.628 63.1069 300.484 63.1439Z" fill="#222433"/>
<path d="M98.2636 278.521C94.3645 290.706 77.0385 304.754 56.322 299.846C47.1335 297.679 38.2502 304.144 35.3682 313.182L83.2094 332.442L115.781 330.932L110.571 343.443L123.625 348.724L144.477 297.273L98.2636 278.521Z" fill="white"/>
<path d="M123.625 349.739C123.494 349.74 123.364 349.714 123.243 349.665L110.189 344.385C110.065 344.334 109.951 344.26 109.856 344.165C109.76 344.071 109.685 343.959 109.633 343.835C109.581 343.711 109.554 343.579 109.554 343.445C109.554 343.311 109.58 343.178 109.632 343.054L114.226 332.019L83.2562 333.455C83.1102 333.461 82.9645 333.437 82.8287 333.383L34.9874 314.122C34.7495 314.027 34.5566 313.845 34.4474 313.613C34.3381 313.381 34.3207 313.117 34.3985 312.873C37.5985 302.838 47.3309 296.68 56.5553 298.855C76.9843 303.696 93.6111 289.72 97.2943 278.21C97.337 278.076 97.4068 277.953 97.4993 277.848C97.5919 277.743 97.7052 277.658 97.8322 277.599C97.9591 277.54 98.097 277.507 98.2371 277.504C98.3773 277.5 98.5166 277.525 98.6465 277.578L144.86 296.33C145.11 296.432 145.309 296.628 145.414 296.876C145.519 297.124 145.521 297.403 145.42 297.652L124.568 349.103C124.492 349.291 124.362 349.451 124.194 349.564C124.026 349.677 123.828 349.738 123.625 349.738V349.739ZM111.904 342.887L123.064 347.402L143.155 297.832L98.8736 279.863C94.3248 291.89 77.0908 305.809 56.0867 300.833C48.1643 298.964 39.7932 304.099 36.6434 312.6L83.3837 331.417L115.734 329.917C115.905 329.909 116.076 329.944 116.23 330.02C116.383 330.095 116.516 330.208 116.614 330.348C116.712 330.489 116.774 330.651 116.792 330.821C116.811 330.991 116.786 331.163 116.72 331.321L111.904 342.887Z" fill="#222433"/>
<path d="M256.537 348.758L256.469 293.245L306.344 293.076C305.395 305.837 308.548 325.334 329.604 328.516C338.928 329.938 344.76 339.246 344.048 348.724L290.951 348.758L270.393 337.025L270.641 348.758H256.537Z" fill="white"/>
<path d="M290.951 349.773C290.774 349.773 290.6 349.727 290.446 349.639L271.447 338.797L271.658 348.736C271.661 348.871 271.637 349.006 271.587 349.131C271.537 349.257 271.462 349.371 271.368 349.468C271.273 349.565 271.16 349.641 271.035 349.694C270.91 349.746 270.776 349.773 270.641 349.773H256.536C256.266 349.773 256.008 349.666 255.817 349.476C255.626 349.285 255.519 349.027 255.519 348.757L255.451 293.245C255.451 292.976 255.558 292.718 255.748 292.528C255.938 292.338 256.196 292.23 256.465 292.229L306.341 292.06H306.344C306.484 292.06 306.622 292.089 306.751 292.145C306.879 292.201 306.994 292.282 307.089 292.385C307.185 292.487 307.258 292.608 307.304 292.74C307.35 292.871 307.369 293.011 307.358 293.151C306.673 302.361 307.484 324.146 329.756 327.512C339.128 328.941 345.851 338.292 345.062 348.8C345.043 349.055 344.928 349.294 344.74 349.468C344.552 349.642 344.305 349.739 344.048 349.739L290.951 349.773L290.951 349.773ZM257.553 347.742H269.604L269.376 337.046C269.372 336.866 269.417 336.688 269.504 336.531C269.591 336.374 269.719 336.243 269.874 336.151C270.028 336.059 270.205 336.01 270.385 336.009C270.565 336.007 270.742 336.053 270.898 336.143L291.222 347.742L343.083 347.708C343.346 338.64 337.502 330.746 329.451 329.518C319.734 328.05 312.787 323.107 308.806 314.828C305.243 307.415 304.998 299.038 305.261 294.095L257.488 294.258L257.553 347.742Z" fill="#222433"/>
<path d="M159.19 157.186C157.667 166.04 151.848 202.659 158.107 202.867L192.07 148.146L159.19 157.186Z" fill="white"/>
<path d="M158.107 203.883H158.073C157.682 203.866 157.299 203.763 156.953 203.581C156.606 203.399 156.304 203.142 156.069 202.83C155.348 201.947 153.155 199.259 154.936 180.755C155.916 170.573 157.672 160.01 158.187 157.015C158.22 156.825 158.306 156.648 158.436 156.505C158.565 156.362 158.733 156.259 158.919 156.208L191.799 147.168C191.996 147.114 192.205 147.12 192.399 147.186C192.592 147.252 192.761 147.375 192.883 147.538C193.006 147.702 193.076 147.898 193.085 148.102C193.094 148.306 193.042 148.508 192.934 148.682L158.972 203.402C158.88 203.549 158.753 203.67 158.602 203.755C158.451 203.839 158.28 203.883 158.107 203.883ZM160.083 157.993C156.803 177.268 154.794 198.054 157.646 201.546C157.663 201.566 157.68 201.585 157.695 201.603L189.838 149.814L160.083 157.993Z" fill="#222433"/>
<path d="M254.188 218.265L254.95 217.591L265.257 229.201L264.496 229.875L254.188 218.265Z" fill="#222433"/>
<path d="M307.463 185.232L263.359 128.467L203.732 121.279L193.265 135.699C193.401 135.851 195.936 144.553 195.999 146.133C196.039 147.131 182.205 150.979 182.165 150.989L177.598 157.279C177.624 157.348 177.644 157.42 177.659 157.493C178.081 159.773 176.458 162.773 175.154 164.181C170.123 171.081 168.074 180.076 168.023 180.381C167.532 183.313 166.106 188.193 162.247 186.556C159.759 192.347 155.385 197.129 149.834 200.126C145.932 202.238 142.544 205.184 139.913 208.753C137.281 212.322 135.471 216.426 134.61 220.774C133.843 224.737 132.209 228.482 129.823 231.742C127.437 235.001 124.36 237.694 120.81 239.628C116.922 241.68 113.54 244.571 110.91 248.09L110.74 247.955L91.041 274.594L142.646 307.123L158.819 285.256C159.294 284.681 159.701 284.106 160.141 283.462C161.132 282.017 161.994 280.488 162.718 278.893C163.721 276.697 164.461 274.391 164.922 272.021C166.482 263.965 171.737 257.195 178.925 253.269C184.693 250.137 189.287 245.219 192.013 239.255C193.016 237.06 193.756 234.753 194.217 232.384C195.776 224.328 201.032 217.558 208.22 213.631C212.446 211.333 216.061 208.061 218.765 204.086L218.832 204.154L230.598 188.22L254.569 217.93V297.002H315.6L315.634 205.981C315.636 198.282 312.716 190.868 307.463 185.232Z" fill="#F9CFD2"/>
<path d="M165.533 270.261C165.503 270.261 165.474 270.26 165.443 270.257C165.175 270.234 164.926 270.105 164.753 269.898C164.579 269.692 164.495 269.426 164.518 269.157L166.01 252.097C166.036 251.831 166.167 251.586 166.373 251.415C166.579 251.244 166.844 251.161 167.111 251.185C167.378 251.208 167.625 251.335 167.798 251.539C167.972 251.743 168.057 252.007 168.037 252.274L166.545 269.334C166.523 269.587 166.407 269.822 166.22 269.994C166.032 270.165 165.787 270.261 165.533 270.261Z" fill="#222433"/>
<path d="M131.424 240.102C131.364 240.102 131.305 240.097 131.246 240.086C130.98 240.039 130.744 239.889 130.589 239.669C130.435 239.448 130.374 239.175 130.421 238.91L133.235 222.967C133.282 222.702 133.432 222.467 133.653 222.312C133.874 222.158 134.147 222.098 134.413 222.144C134.678 222.191 134.914 222.341 135.069 222.561C135.224 222.782 135.285 223.054 135.238 223.32L132.424 239.263C132.383 239.498 132.26 239.71 132.077 239.864C131.894 240.017 131.663 240.102 131.424 240.102Z" fill="#222433"/>
<path d="M195.098 229.777C195.04 229.778 194.982 229.773 194.924 229.763C194.659 229.717 194.422 229.568 194.266 229.348C194.111 229.128 194.049 228.855 194.095 228.59L197.18 210.717C197.23 210.456 197.381 210.224 197.6 210.072C197.819 209.92 198.089 209.86 198.352 209.906C198.615 209.951 198.85 210.097 199.006 210.314C199.161 210.53 199.226 210.799 199.185 211.062L196.099 228.935C196.059 229.17 195.936 229.384 195.753 229.538C195.57 229.692 195.338 229.777 195.098 229.777Z" fill="#222433"/>
<path d="M230.937 188.685C230.749 188.685 230.565 188.632 230.405 188.534C230.244 188.435 230.115 188.294 230.03 188.127C229.945 187.959 229.909 187.771 229.925 187.584C229.94 187.397 230.008 187.217 230.12 187.066L237.477 177.115C237.637 176.898 237.877 176.754 238.144 176.713C238.411 176.673 238.683 176.741 238.9 176.901C239.117 177.061 239.261 177.3 239.301 177.566C239.342 177.833 239.274 178.104 239.114 178.321L231.757 188.272C231.662 188.4 231.538 188.504 231.396 188.576C231.254 188.648 231.097 188.685 230.937 188.685Z" fill="#222433"/>
<path d="M337.863 323.933C331.709 323.933 315.754 321.619 313.753 321.324C313.543 321.293 313.347 321.197 313.195 321.05C313.042 320.902 312.939 320.71 312.901 320.501C312.863 320.292 312.892 320.076 312.983 319.884C313.074 319.693 313.223 319.534 313.41 319.431C315.39 318.339 332.869 308.739 336.759 308.036C337.8 307.842 338.869 307.854 339.905 308.074C340.941 308.294 341.924 308.716 342.796 309.316C343.668 309.916 344.413 310.682 344.987 311.57C345.562 312.459 345.955 313.452 346.143 314.492C346.332 315.533 346.313 316.6 346.087 317.633C345.861 318.666 345.432 319.645 344.826 320.512C344.22 321.379 343.448 322.118 342.555 322.686C341.662 323.255 340.665 323.641 339.622 323.824C339.039 323.908 338.451 323.945 337.863 323.933ZM317.075 319.746C324.296 320.746 336.688 322.288 339.259 321.825C340.039 321.69 340.784 321.401 341.452 320.977C342.12 320.553 342.697 320.001 343.15 319.353C343.603 318.705 343.923 317.974 344.093 317.202C344.262 316.431 344.276 315.633 344.135 314.855C343.994 314.078 343.7 313.336 343.271 312.672C342.842 312.008 342.285 311.436 341.633 310.988C340.981 310.54 340.247 310.225 339.472 310.061C338.698 309.897 337.899 309.888 337.121 310.034C334.527 310.503 323.478 316.283 317.075 319.746Z" fill="#222433"/>
<path d="M313.901 321.336C313.735 321.336 313.571 321.295 313.425 321.217C313.278 321.14 313.152 321.027 313.059 320.89C312.966 320.753 312.908 320.595 312.89 320.43C312.872 320.265 312.895 320.098 312.956 319.944C313.794 317.845 321.221 299.346 323.793 296.368C324.826 295.16 326.195 294.286 327.726 293.856C329.258 293.426 330.882 293.46 332.394 293.953C333.907 294.446 335.238 295.376 336.22 296.626C337.202 297.875 337.79 299.388 337.91 300.971C337.994 302.015 337.87 303.065 337.544 304.06C337.218 305.055 336.697 305.975 336.011 306.768C333.472 309.739 316.368 320.026 314.425 321.189C314.267 321.285 314.086 321.335 313.901 321.336ZM329.92 295.598C329.05 295.597 328.189 295.784 327.397 296.146C326.606 296.507 325.902 297.035 325.333 297.694C323.622 299.676 318.744 311.137 315.99 317.868C322.21 314.074 332.774 307.43 334.463 305.45L334.467 305.445C334.978 304.856 335.366 304.17 335.609 303.429C335.852 302.687 335.945 301.905 335.881 301.128C335.771 299.625 335.095 298.219 333.989 297.194C332.883 296.168 331.43 295.598 329.92 295.598V295.598Z" fill="#222433"/>
<path d="M262.683 128.628L291.346 159.858C296.628 163.934 303.114 166.148 309.791 166.154C314.466 166.139 319.078 165.074 323.285 163.04C328.385 160.54 332.679 156.66 335.676 151.843C338.674 147.025 340.254 141.463 340.238 135.791V89.9253H299.551V115.041C299.551 115.041 274.551 90.3782 265.735 83.9469C259.583 79.4588 252.962 76.8145 250.189 75.4084L238.61 71.7612L232.485 70.8215C221.279 69.102 211.396 68.9388 198.681 70.9799C192.144 72.0293 171.048 75.0317 168.437 75.2632C164.471 75.6456 160.634 76.8799 157.191 78.8815C153.747 80.883 150.778 83.6045 148.487 86.8593C146.196 90.114 144.638 93.8249 143.918 97.7375C143.199 101.65 143.335 105.672 144.319 109.527C148.427 125.662 152.317 141.824 157.211 157.861L196.508 147.198L187.727 115.143L208.432 112.38C207.739 113.736 205.38 120.166 204.782 121.71L262.422 128.581" fill="white"/>
<path d="M309.79 167.169C302.888 167.178 296.179 164.888 290.726 160.664C290.679 160.628 290.636 160.588 290.596 160.544L262.172 129.575L204.663 122.719C204.51 122.7 204.362 122.647 204.232 122.563C204.102 122.479 203.992 122.366 203.912 122.234C203.833 122.101 203.784 121.952 203.771 121.798C203.757 121.644 203.78 121.488 203.835 121.344C203.978 120.976 204.222 120.329 204.519 119.538C205.193 117.742 206.106 115.314 206.789 113.625L189.018 115.994L197.494 146.929C197.529 147.058 197.539 147.192 197.522 147.325C197.505 147.457 197.462 147.585 197.396 147.701C197.33 147.817 197.241 147.919 197.135 148C197.029 148.082 196.909 148.142 196.78 148.177L157.483 158.839C157.227 158.909 156.955 158.877 156.724 158.749C156.492 158.621 156.32 158.408 156.243 158.155C152.212 144.947 148.807 131.444 145.515 118.385C144.792 115.515 144.066 112.645 143.337 109.776C142.318 105.779 142.176 101.609 142.922 97.5526C143.668 93.496 145.284 89.6485 147.66 86.2741C150.035 82.8996 153.114 80.078 156.684 78.0028C160.254 75.9276 164.232 74.648 168.344 74.2516C170.998 74.0147 192.243 70.9842 198.523 69.9761C210.727 68.0176 220.611 67.9709 232.642 69.8167L238.767 70.7564C238.818 70.7639 238.869 70.7752 238.919 70.7902L250.497 74.4371C250.55 74.4541 250.602 74.4753 250.652 74.5004C251.222 74.7891 251.976 75.1402 252.85 75.547C256.256 77.1308 261.404 79.525 266.337 83.1245C273.864 88.6152 292.682 106.887 298.536 112.616V89.9255C298.536 89.6562 298.643 89.3979 298.834 89.2075C299.025 89.017 299.283 88.91 299.553 88.91H340.24C340.51 88.91 340.769 89.017 340.96 89.2075C341.15 89.3979 341.258 89.6562 341.258 89.9255V135.791C341.273 141.652 339.639 147.399 336.541 152.378C333.444 157.357 329.007 161.366 323.738 163.949C319.387 166.047 314.622 167.147 309.79 167.169ZM292.036 159.107C297.122 163.024 303.366 165.146 309.79 165.139C314.312 165.117 318.772 164.088 322.844 162.126C327.771 159.709 331.918 155.959 334.814 151.302C337.709 146.646 339.236 141.272 339.221 135.792V90.941H300.568V115.042C300.568 115.242 300.509 115.438 300.398 115.605C300.286 115.771 300.128 115.902 299.943 115.979C299.758 116.056 299.554 116.077 299.357 116.039C299.16 116 298.979 115.905 298.836 115.764C298.587 115.518 273.789 91.0804 265.133 84.7669C260.36 81.2848 255.322 78.9411 251.987 77.3905C251.134 76.9934 250.391 76.6481 249.802 76.352L238.376 72.7531L232.328 71.8253C220.522 70.014 210.82 70.0597 198.841 71.9824C192.541 72.9941 171.197 76.0378 168.527 76.2751C164.708 76.6444 161.013 77.834 157.697 79.7624C154.381 81.6908 151.522 84.3123 149.316 87.4472C147.111 90.582 145.61 94.1561 144.917 97.9243C144.225 101.693 144.357 105.566 145.304 109.278C146.035 112.149 146.762 115.021 147.483 117.892C150.691 130.616 154.006 143.763 157.898 156.624L195.258 146.487L186.746 115.414C186.707 115.274 186.699 115.128 186.723 114.985C186.746 114.841 186.799 114.705 186.879 114.584C186.96 114.464 187.065 114.362 187.188 114.285C187.311 114.208 187.449 114.159 187.593 114.14L208.298 111.377C208.482 111.352 208.669 111.378 208.839 111.452C209.009 111.526 209.156 111.645 209.263 111.797C209.37 111.948 209.434 112.125 209.448 112.31C209.461 112.495 209.423 112.68 209.339 112.845C208.838 113.824 207.326 117.849 206.423 120.254C206.343 120.466 206.267 120.669 206.196 120.858L262.545 127.576C262.609 127.583 262.672 127.597 262.733 127.617C263.001 127.629 263.253 127.747 263.434 127.945L292.036 159.107Z" fill="#222433"/>
<path d="M320.313 83.685C320.118 83.685 319.928 83.6295 319.764 83.5249C319.6 83.4204 319.47 83.2712 319.389 83.095C315.25 74.15 308.046 73.5275 305.678 73.3227C305.41 73.2995 305.161 73.1706 304.988 72.9644C304.814 72.7582 304.73 72.4916 304.753 72.2233C304.776 71.955 304.905 71.7068 305.112 71.5335C305.318 71.3603 305.585 71.276 305.854 71.2992C308.512 71.5294 316.602 72.2284 321.235 82.2433C321.307 82.398 321.339 82.5682 321.327 82.7383C321.316 82.9083 321.261 83.0727 321.169 83.2164C321.077 83.36 320.951 83.4782 320.801 83.5601C320.651 83.642 320.483 83.6849 320.313 83.685Z" fill="#222433"/>
<path d="M94.7064 319.454C94.5636 319.454 94.4209 319.451 94.2765 319.443C92.1508 319.324 90.1595 318.367 88.7393 316.784C87.3192 315.2 86.5862 313.119 86.7012 310.997C86.9077 307.083 94.2741 288.569 95.1133 286.471C95.1922 286.274 95.3311 286.106 95.5106 285.992C95.69 285.877 95.9008 285.822 96.1134 285.834C96.326 285.845 96.5295 285.923 96.6954 286.056C96.8613 286.189 96.9812 286.371 97.0381 286.576C97.643 288.755 102.942 307.97 102.736 311.882C102.62 313.929 101.724 315.855 100.231 317.263C98.7373 318.672 96.7606 319.456 94.7064 319.454ZM88.7356 311.103C88.6891 311.889 88.7984 312.676 89.0573 313.42C89.3161 314.164 89.7194 314.849 90.2441 315.437C90.7688 316.025 91.4045 316.504 92.1148 316.846C92.8251 317.188 93.5961 317.387 94.3835 317.431C95.171 317.476 95.9594 317.364 96.7037 317.104C97.448 316.843 98.1335 316.439 98.7209 315.913C99.3083 315.388 99.7861 314.752 100.127 314.042C100.468 313.332 100.665 312.562 100.707 311.775C100.845 309.166 97.7738 297.091 95.8839 290.064C93.2393 296.839 88.8729 308.496 88.7356 311.103V311.103Z" fill="#222433"/>
<path d="M110.669 314.686C110.255 314.686 109.841 314.654 109.432 314.591C108.39 314.436 107.391 314.074 106.491 313.529C105.591 312.983 104.809 312.264 104.19 311.414C101.851 308.247 95.7751 289.277 95.0898 287.121C95.0253 286.919 95.0261 286.701 95.092 286.499C95.158 286.297 95.2859 286.12 95.4576 285.995C95.6293 285.869 95.8362 285.8 96.0491 285.798C96.262 285.796 96.4703 285.861 96.6444 285.983C98.494 287.281 114.784 298.761 117.119 301.916C117.997 303.11 118.526 304.523 118.649 305.998C118.772 307.473 118.484 308.954 117.816 310.276C117.149 311.598 116.127 312.709 114.866 313.488C113.605 314.266 112.152 314.681 110.669 314.686ZM97.9678 289.412C100.231 296.325 104.271 308.106 105.828 310.21L105.833 310.215C106.298 310.848 106.884 311.384 107.557 311.791C108.23 312.198 108.976 312.468 109.754 312.586C110.532 312.704 111.326 312.667 112.089 312.479C112.853 312.29 113.572 311.952 114.205 311.486C114.84 311.02 115.378 310.434 115.786 309.761C116.195 309.087 116.466 308.34 116.584 307.562C116.705 306.786 116.67 305.994 116.481 305.232C116.292 304.47 115.953 303.753 115.483 303.124C113.924 301.018 103.888 293.641 97.9678 289.412Z" fill="#222433"/>
<path d="M262.334 129.483C262.317 129.483 262.3 129.483 262.281 129.483C262.148 129.476 262.017 129.443 261.897 129.386C261.776 129.328 261.668 129.248 261.578 129.149C261.489 129.05 261.42 128.934 261.375 128.808C261.33 128.683 261.311 128.549 261.318 128.416C261.475 125.364 261.663 119.649 261.86 113.601C261.988 109.695 262.121 105.655 262.254 102.075C262.259 101.942 262.29 101.811 262.346 101.689C262.402 101.568 262.481 101.459 262.579 101.368C262.677 101.277 262.791 101.207 262.917 101.16C263.042 101.114 263.175 101.092 263.309 101.097C263.442 101.102 263.574 101.134 263.695 101.189C263.817 101.245 263.926 101.324 264.017 101.421C264.108 101.519 264.179 101.634 264.225 101.759C264.272 101.884 264.293 102.017 264.288 102.151C264.155 105.726 264.023 109.763 263.895 113.667C263.696 119.726 263.508 125.45 263.35 128.521C263.336 128.78 263.223 129.025 263.034 129.204C262.845 129.383 262.595 129.483 262.334 129.483Z" fill="#222433"/>
<path d="M292.985 120.513C292.769 120.513 292.559 120.445 292.385 120.318C292.21 120.191 292.081 120.012 292.015 119.807C291.949 119.602 291.951 119.381 292.019 119.177C292.087 118.972 292.218 118.795 292.394 118.67L298.87 114.066C298.979 113.986 299.102 113.927 299.234 113.895C299.365 113.862 299.502 113.857 299.636 113.878C299.769 113.899 299.898 113.946 300.013 114.017C300.128 114.088 300.228 114.181 300.306 114.292C300.385 114.402 300.441 114.526 300.47 114.658C300.5 114.79 300.503 114.927 300.479 115.06C300.455 115.193 300.405 115.32 300.331 115.433C300.258 115.547 300.162 115.644 300.05 115.72L293.574 120.324C293.402 120.447 293.196 120.513 292.985 120.513Z" fill="#222433"/>
<path d="M208.344 113.62C208.177 113.62 208.012 113.579 207.865 113.5C207.718 113.422 207.592 113.308 207.499 113.17C207.406 113.031 207.349 112.872 207.332 112.706C207.316 112.54 207.34 112.372 207.404 112.218L209.777 106.463C209.828 106.34 209.903 106.228 209.997 106.134C210.091 106.039 210.203 105.964 210.327 105.913C210.45 105.862 210.582 105.835 210.716 105.835C210.849 105.834 210.982 105.86 211.105 105.911C211.229 105.962 211.341 106.037 211.436 106.131C211.53 106.225 211.605 106.337 211.657 106.46C211.708 106.583 211.735 106.715 211.735 106.848C211.735 106.982 211.709 107.114 211.658 107.237L209.285 112.991C209.208 113.177 209.078 113.337 208.91 113.449C208.743 113.561 208.546 113.62 208.344 113.62Z" fill="#222433"/>
<path d="M187.605 116.011C187.373 116.011 187.149 115.932 186.968 115.787C186.788 115.642 186.663 115.44 186.613 115.215L185.358 109.562C185.3 109.299 185.348 109.023 185.493 108.796C185.638 108.569 185.867 108.409 186.131 108.35C186.394 108.292 186.67 108.34 186.898 108.485C187.125 108.63 187.286 108.859 187.344 109.122L188.599 114.775C188.631 114.923 188.63 115.077 188.595 115.225C188.56 115.373 188.493 115.511 188.398 115.63C188.302 115.748 188.182 115.844 188.044 115.91C187.907 115.975 187.757 116.01 187.605 116.01V116.011Z" fill="#222433"/>
<path d="M163.8 188.273C163.696 188.273 163.605 188.268 163.529 188.261C161.571 188.082 159.96 186.226 159.938 184.125C159.938 180.969 160.99 167.648 161.54 163.108C161.554 162.974 161.596 162.845 161.661 162.728C161.726 162.611 161.814 162.507 161.919 162.424C162.025 162.341 162.146 162.279 162.275 162.243C162.404 162.207 162.54 162.196 162.673 162.212C162.806 162.229 162.935 162.271 163.052 162.337C163.169 162.403 163.272 162.492 163.354 162.598C163.436 162.704 163.497 162.825 163.532 162.955C163.567 163.084 163.576 163.219 163.559 163.353C163.013 167.851 161.973 181.018 161.973 184.115C161.984 185.157 162.798 186.154 163.715 186.238C164.74 186.332 166.081 185.177 166.773 181.652C168.884 170.726 171.745 167.108 174.043 164.201C175.563 162.277 176.764 160.759 177.312 157.414C177.355 157.148 177.503 156.91 177.722 156.753C177.941 156.596 178.213 156.532 178.479 156.575C178.746 156.618 178.984 156.766 179.141 156.984C179.299 157.203 179.363 157.475 179.319 157.741C178.687 161.605 177.275 163.39 175.64 165.459C173.478 168.193 170.788 171.596 168.77 182.039C167.669 187.644 164.956 188.273 163.8 188.273Z" fill="#222433"/>
<path d="M239.627 57.903L233.188 69.0675C232.385 70.4578 231.946 72.0282 231.913 73.6328C231.88 75.2375 232.254 76.8244 232.999 78.2464L233.38 78.964C234.169 80.4547 235.341 81.7092 236.776 82.5989C238.211 83.4886 239.856 83.9816 241.545 84.0274C243.233 84.0731 244.903 83.67 246.384 82.8594C247.865 82.0487 249.103 80.8596 249.973 79.4139L254.288 72.2582C257.737 72.3311 261.094 71.1541 263.74 68.9453C266.386 66.7365 268.14 63.6454 268.679 60.2444C268.859 59.081 268.898 57.9002 268.795 56.7275C268.518 53.775 267.329 50.9816 265.391 48.734C265.832 47.6828 266.144 46.5828 266.322 45.4574C266.503 43.8115 266.503 42.1508 266.322 40.5049L250.404 38.5447L246.302 43.6539L241.79 43.4863C235.871 43.267 232.624 50.2843 236.628 54.6413L239.627 57.903Z" fill="white"/>
<path d="M241.825 85.0505C240.781 85.0496 239.743 84.8946 238.744 84.5905C237.409 84.1905 236.168 83.5291 235.093 82.6448C234.018 81.7605 233.13 80.6711 232.481 79.4403L232.101 78.7227C231.273 77.1498 230.858 75.3934 230.894 73.617C230.929 71.8407 231.415 70.1022 232.304 68.5636L238.374 58.0412L235.881 55.3285C234.855 54.2131 234.183 52.8198 233.95 51.324C233.716 49.8282 233.93 48.2968 234.566 46.9224C235.202 45.5481 236.231 44.3923 237.524 43.6005C238.816 42.8087 240.314 42.4162 241.83 42.4726L245.831 42.6208L249.613 37.9104C249.722 37.7758 249.863 37.671 250.024 37.6059C250.184 37.5408 250.359 37.5174 250.531 37.538L266.449 39.4982C266.675 39.5262 266.886 39.6295 267.047 39.7914C267.208 39.9534 267.309 40.1647 267.335 40.3912C267.525 42.128 267.523 43.8805 267.328 45.6168C267.17 46.6176 266.912 47.6003 266.559 48.5502C268.409 50.8709 269.539 53.6811 269.81 56.6347C269.919 57.8916 269.877 59.157 269.685 60.4039C269.115 63.9425 267.32 67.1693 264.611 69.5216C261.903 71.874 258.453 73.2027 254.864 73.276L250.845 79.9386C249.868 81.5606 248.472 82.8906 246.803 83.7896C245.274 84.616 243.564 85.0493 241.825 85.0505ZM241.53 44.4991C240.434 44.5022 239.363 44.8232 238.447 45.423C237.53 46.0227 236.808 46.8755 236.369 47.8774C235.929 48.8793 235.79 49.9873 235.97 51.0664C236.149 52.1455 236.639 53.1493 237.38 53.9556L240.377 57.2163C240.523 57.3754 240.615 57.5769 240.638 57.7915C240.662 58.0061 240.617 58.2227 240.509 58.4098L234.07 69.5753C233.351 70.8171 232.959 72.2204 232.929 73.6544C232.899 75.0884 233.233 76.5066 233.9 77.777L234.279 78.4898C234.804 79.4804 235.521 80.3574 236.387 81.0706C237.254 81.7837 238.253 82.3188 239.327 82.6451C240.401 82.9715 241.529 83.0826 242.647 82.9721C243.764 82.8616 244.849 82.5317 245.838 82.0014C247.185 81.2748 248.312 80.2004 249.102 78.8903L253.417 71.7349C253.508 71.5802 253.639 71.4529 253.796 71.3664C253.954 71.28 254.132 71.2376 254.311 71.2437C257.511 71.304 260.626 70.2083 263.081 68.1584C265.536 66.1084 267.167 63.2421 267.674 60.087C267.843 59.0038 267.879 57.9041 267.782 56.8121C267.528 54.0716 266.422 51.4789 264.62 49.3964C264.497 49.2536 264.416 49.0795 264.387 48.8936C264.357 48.7076 264.38 48.5171 264.453 48.3434C264.861 47.3668 265.152 46.345 265.318 45.2997C265.461 44.0089 265.483 42.7076 265.383 41.4127L250.844 39.6225L247.097 44.2899C246.998 44.4132 246.871 44.5116 246.726 44.5775C246.582 44.6434 246.425 44.675 246.266 44.6697L241.753 44.5022C241.679 44.4991 241.604 44.4978 241.53 44.4978V44.4991Z" fill="#222433"/>
<path d="M267.608 41.3113C267.224 38.1127 265.836 35.1175 263.642 32.755C261.448 30.3924 258.562 28.7837 255.396 28.1594C252.231 27.5351 248.948 27.9271 246.019 29.2794C243.09 30.6316 240.665 32.8747 239.092 35.6872C238.895 36.0157 238.719 36.3559 238.563 36.7057C237.972 37.9865 237.559 39.3427 237.339 40.7358C237.268 41.1847 237.22 41.6345 237.189 42.0844C237.213 42.0871 237.234 42.0844 237.257 42.0894C238.788 42.3338 240.398 42.232 241.847 42.868C243.073 43.4055 244.044 44.4335 244.867 45.4615C246.307 47.2582 247.7 49.9008 246.808 52.1931C246.989 52.1756 247.159 52.0985 247.291 51.9739C247.423 51.8492 247.509 51.6842 247.537 51.5049L248.74 43.8943C248.925 42.7311 249.565 41.6889 250.519 40.9961C251.473 40.3033 252.664 40.0166 253.829 40.199L266.661 42.2215C266.787 42.2412 266.916 42.2316 267.037 42.1935C267.158 42.1553 267.269 42.0897 267.361 42.0017C267.453 41.9137 267.523 41.8057 267.566 41.6861C267.609 41.5666 267.623 41.4387 267.608 41.3126V41.3113Z" fill="#F9CFD2"/>
<path d="M253.923 50.0525C254.747 50.0525 255.415 49.3859 255.415 48.5635C255.415 47.7411 254.747 47.0745 253.923 47.0745C253.099 47.0745 252.432 47.7411 252.432 48.5635C252.432 49.3859 253.099 50.0525 253.923 50.0525Z" fill="#222433"/>
<path d="M264.084 50.5135C264.908 50.5135 265.576 49.8468 265.576 49.0244C265.576 48.2021 264.908 47.5354 264.084 47.5354C263.261 47.5354 262.593 48.2021 262.593 49.0244C262.593 49.8468 263.261 50.5135 264.084 50.5135Z" fill="#222433"/>
<path d="M254.508 73.2791H254.502C253.724 73.2743 252.948 73.2109 252.18 73.0895C249.026 72.6058 246.106 71.1375 243.839 68.8949C243.741 68.8019 243.662 68.6901 243.607 68.5663C243.553 68.4424 243.524 68.3089 243.522 68.1736C243.52 68.0383 243.545 67.904 243.595 67.7784C243.646 67.6529 243.721 67.5388 243.816 67.4427C243.912 67.3467 244.026 67.2706 244.151 67.219C244.276 67.1674 244.411 67.1414 244.546 67.1424C244.682 67.1433 244.816 67.1714 244.94 67.2248C245.065 67.2782 245.177 67.3559 245.271 67.4533C247.235 69.3942 249.764 70.6649 252.496 71.0833C253.162 71.189 253.835 71.2441 254.51 71.2481C254.779 71.2487 255.038 71.3563 255.228 71.5471C255.419 71.738 255.525 71.9965 255.525 72.2658C255.524 72.5351 255.416 72.7932 255.225 72.9832C255.034 73.1733 254.775 73.2797 254.505 73.2791H254.508Z" fill="#222433"/>
<path d="M261.774 55.1021C261.74 55.1021 261.709 55.1021 261.676 55.0977L257.748 54.7179C257.615 54.705 257.486 54.6661 257.368 54.6034C257.25 54.5408 257.146 54.4555 257.061 54.3525C256.976 54.2495 256.912 54.1309 256.873 54.0033C256.834 53.8757 256.821 53.7417 256.834 53.609C256.847 53.4762 256.886 53.3473 256.948 53.2296C257.011 53.1119 257.097 53.0076 257.2 52.9229C257.303 52.8381 257.422 52.7744 257.55 52.7355C257.677 52.6966 257.812 52.6832 257.945 52.6961L260.505 52.9435L259.328 47.1259C259.275 46.8618 259.329 46.5874 259.478 46.363C259.627 46.1386 259.86 45.9826 260.124 45.9293C260.389 45.876 260.663 45.9297 260.888 46.0787C261.113 46.2277 261.269 46.4597 261.323 46.7237L262.771 53.8859C262.801 54.0333 262.797 54.1855 262.761 54.3314C262.725 54.4774 262.656 54.6134 262.561 54.7298C262.465 54.8462 262.345 54.9399 262.209 55.0043C262.073 55.0687 261.924 55.1021 261.774 55.1021Z" fill="#222433"/>
<path d="M239.627 57.9035C238.005 58.067 236.372 57.7197 234.957 56.9102C233.543 56.1007 232.418 54.8696 231.739 53.3895C231.061 51.9094 230.864 50.2545 231.175 48.6568C231.486 47.059 232.29 45.5986 233.475 44.4802C234.66 43.3618 236.165 42.6415 237.78 42.4203C239.395 42.199 241.04 42.488 242.482 43.2466C243.925 44.0052 245.093 45.1954 245.824 46.6504C246.555 48.1054 246.811 49.7523 246.557 51.3601" fill="white"/>
<path d="M238.854 58.9576C237.048 58.9599 235.286 58.4097 233.803 57.381C232.321 56.3523 231.19 54.8946 230.564 53.2045C229.937 51.5144 229.844 49.673 230.298 47.9287C230.752 46.1844 231.731 44.621 233.103 43.4492C234.474 42.2775 236.173 41.5537 237.969 41.3755C239.766 41.1973 241.573 41.5732 243.149 42.4525C244.725 43.3319 245.993 44.6725 246.782 46.2935C247.571 47.9145 247.843 49.738 247.562 51.5182C247.541 51.6499 247.494 51.7763 247.424 51.89C247.355 52.0038 247.263 52.1027 247.155 52.1811C247.047 52.2596 246.925 52.316 246.795 52.3473C246.665 52.3785 246.53 52.3838 246.398 52.3631C246.266 52.3423 246.14 52.2958 246.026 52.2261C245.912 52.1565 245.813 52.0652 245.734 51.9574C245.656 51.8495 245.599 51.7273 245.568 51.5976C245.537 51.468 245.531 51.3334 245.552 51.2017C245.771 49.8056 245.547 48.376 244.911 47.1134C244.276 45.8507 243.261 44.8181 242.008 44.1603C240.755 43.5024 239.327 43.2523 237.925 43.4449C236.523 43.6375 235.216 44.2632 234.188 45.2343C233.159 46.2054 232.461 47.4734 232.191 48.8605C231.92 50.2476 232.091 51.6844 232.68 52.9696C233.268 54.2549 234.245 55.3242 235.472 56.0277C236.7 56.7313 238.117 57.0339 239.526 56.8931C239.794 56.8662 240.062 56.9468 240.271 57.1173C240.48 57.2878 240.613 57.5341 240.64 57.8021C240.667 58.0701 240.586 58.3379 240.415 58.5464C240.244 58.755 239.997 58.8873 239.729 58.9142C239.438 58.943 239.145 58.9576 238.854 58.9576Z" fill="#222433"/>
<path d="M237.605 53.2668C237.384 53.2669 237.169 53.1952 236.992 53.0623C236.816 52.9295 236.687 52.7429 236.626 52.5307C236.565 52.3185 236.576 52.0922 236.655 51.8863C236.735 51.6803 236.879 51.5058 237.067 51.3892L239.271 50.0213L235.507 48.2778C235.262 48.1644 235.073 47.9587 234.98 47.7058C234.887 47.4529 234.899 47.1735 235.012 46.9292C235.126 46.6849 235.332 46.4956 235.585 46.403C235.839 46.3104 236.119 46.322 236.363 46.4354L241.837 48.9697C242.004 49.0467 242.146 49.1673 242.25 49.3186C242.353 49.4699 242.414 49.6463 242.425 49.8292C242.436 50.012 242.397 50.1945 242.313 50.3572C242.229 50.5199 242.102 50.6569 241.946 50.7535L238.141 53.1138C237.98 53.2141 237.795 53.2671 237.605 53.2668Z" fill="#222433"/>
<path d="M259.297 60.608C259.072 60.6079 258.846 60.5915 258.623 60.5589C257.988 60.4666 257.38 60.2428 256.837 59.9019C256.294 59.561 255.828 59.1105 255.47 58.5794L255.385 58.4663C255.223 58.2509 255.154 57.98 255.192 57.7134C255.23 57.4468 255.373 57.2062 255.589 57.0447C255.804 56.8831 256.076 56.8137 256.343 56.8518C256.61 56.8899 256.851 57.0323 257.013 57.2477L257.114 57.3831C257.126 57.3987 257.138 57.4153 257.148 57.4322C257.346 57.7337 257.606 57.9894 257.912 58.182C258.217 58.3747 258.56 58.4999 258.917 58.5492C259.287 58.6024 259.664 58.5772 260.023 58.4755C260.383 58.3737 260.717 58.1976 261.004 57.9586L261.499 57.5297C261.703 57.3533 261.968 57.2651 262.237 57.2843C262.506 57.3035 262.757 57.4287 262.934 57.6323C263.11 57.8358 263.199 58.1011 263.179 58.3698C263.16 58.6384 263.035 58.8884 262.831 59.0648L262.322 59.5048C261.475 60.2157 260.404 60.6062 259.297 60.608Z" fill="#222433"/>
</g>
<g clip-path="url(#clip4_1269_16061)">
<path d="M453.783 272.266C457.567 271.495 460.001 267.767 459.22 263.938C458.439 260.109 454.738 257.63 450.954 258.401C447.17 259.172 444.736 262.9 445.517 266.729C446.298 270.558 449.999 273.037 453.783 272.266Z" fill="#000091"/>
<path d="M466.004 283.795C469.788 283.025 472.223 279.296 471.442 275.467C470.661 271.638 466.96 269.159 463.176 269.93C459.392 270.701 456.957 274.429 457.739 278.258C458.52 282.087 462.22 284.566 466.004 283.795Z" fill="#000091"/>
<path d="M453.058 289.103C456.842 288.332 459.276 284.604 458.495 280.775C457.714 276.946 454.013 274.467 450.229 275.238C446.445 276.008 444.011 279.737 444.792 283.566C445.573 287.394 449.274 289.873 453.058 289.103Z" fill="#000091"/>
<path d="M471.907 298.358C475.691 297.587 478.125 293.858 477.344 290.03C476.563 286.201 472.862 283.722 469.078 284.493C465.294 285.263 462.86 288.992 463.641 292.821C464.422 296.649 468.123 299.128 471.907 298.358Z" fill="#000091"/>
<path d="M458.96 303.665C462.744 302.894 465.179 299.166 464.398 295.337C463.617 291.508 459.916 289.029 456.132 289.8C452.348 290.571 449.913 294.299 450.695 298.128C451.476 301.957 455.176 304.436 458.96 303.665Z" fill="#000091"/>
<path d="M484.46 344.897C484.281 344.934 484.094 344.906 483.931 344.818C483.769 344.73 483.643 344.587 483.573 344.415L451.639 265.633C451.559 265.437 451.56 265.217 451.641 265.023C451.721 264.828 451.875 264.674 452.069 264.595C452.262 264.515 452.479 264.517 452.672 264.6C452.865 264.682 453.018 264.839 453.098 265.035L485.031 343.817C485.111 344.013 485.11 344.232 485.029 344.426C484.949 344.621 484.795 344.775 484.602 344.854C484.556 344.873 484.509 344.887 484.46 344.897Z" fill="#222433"/>
</g>
<g clip-path="url(#clip5_1269_16061)">
<path d="M557.882 333.117C558.273 333.117 558.613 332.828 558.666 332.43L566.435 274.026C566.493 273.592 566.188 273.194 565.755 273.136C565.322 273.079 564.924 273.383 564.867 273.817L557.097 332.221C557.039 332.655 557.344 333.052 557.777 333.11C557.812 333.115 557.848 333.117 557.882 333.117Z" fill="#222433"/>
<path d="M565.651 281.009C561.739 281.009 558.567 277.836 558.567 273.921C558.567 270.007 561.739 266.834 565.651 266.834C569.564 266.834 572.735 270.007 572.735 273.921C572.735 277.836 569.564 281.009 565.651 281.009Z" fill="#000091"/>
</g>
<g clip-path="url(#clip6_1269_16061)">
<path d="M497.541 305.999C495.515 306.492 493.388 306.371 491.429 305.652C489.47 304.933 487.766 303.648 486.534 301.96C485.302 300.273 484.597 298.257 484.507 296.169C484.418 294.082 484.948 292.015 486.031 290.231C487.114 288.447 488.701 287.025 490.592 286.146C492.482 285.267 494.591 284.97 496.652 285.292C498.713 285.615 500.633 286.542 502.17 287.957C503.706 289.372 504.79 291.211 505.285 293.242C505.944 295.965 505.499 298.838 504.048 301.229C502.596 303.621 500.256 305.336 497.541 305.999ZM492.857 286.758C491.087 287.188 489.484 288.135 488.252 289.478C487.02 290.822 486.213 292.503 485.935 294.307C485.656 296.111 485.918 297.959 486.688 299.616C487.457 301.272 488.698 302.664 490.256 303.615C491.813 304.566 493.617 305.033 495.437 304.957C497.258 304.881 499.015 304.266 500.485 303.189C501.956 302.113 503.074 300.623 503.698 298.908C504.323 297.193 504.425 295.331 503.993 293.556C503.412 291.177 501.912 289.126 499.825 287.851C497.737 286.577 495.231 286.183 492.857 286.758Z" fill="#222433"/>
<path d="M497.541 305.999C495.515 306.492 493.388 306.371 491.429 305.652C489.47 304.933 487.766 303.648 486.534 301.96C485.302 300.273 484.597 298.257 484.507 296.169C484.418 294.082 484.948 292.015 486.031 290.231C487.114 288.447 488.701 287.025 490.592 286.146C492.482 285.267 494.591 284.97 496.652 285.292C498.713 285.615 500.633 286.542 502.17 287.957C503.706 289.372 504.79 291.211 505.285 293.242C505.944 295.965 505.499 298.838 504.048 301.229C502.596 303.621 500.256 305.336 497.541 305.999ZM492.857 286.758C491.087 287.188 489.484 288.135 488.252 289.478C487.02 290.822 486.213 292.503 485.935 294.307C485.656 296.111 485.918 297.959 486.688 299.616C487.457 301.272 488.698 302.664 490.256 303.615C491.813 304.566 493.617 305.033 495.437 304.957C497.258 304.881 499.015 304.266 500.485 303.189C501.956 302.113 503.074 300.623 503.698 298.908C504.323 297.193 504.425 295.331 503.993 293.556C503.412 291.177 501.912 289.126 499.825 287.851C497.737 286.577 495.231 286.183 492.857 286.758Z" fill="#222433"/>
<path d="M497.383 305.352C502.684 304.064 505.932 298.712 504.639 293.399C503.345 288.086 498 284.822 492.699 286.11C487.399 287.398 484.15 292.75 485.443 298.064C486.737 303.377 492.082 306.64 497.383 305.352Z" fill="white"/>
<path d="M497.541 305.999C495.515 306.492 493.388 306.371 491.429 305.652C489.47 304.933 487.766 303.648 486.534 301.96C485.302 300.273 484.597 298.257 484.507 296.169C484.418 294.082 484.948 292.015 486.031 290.231C487.114 288.447 488.701 287.025 490.592 286.146C492.482 285.267 494.591 284.97 496.652 285.292C498.713 285.615 500.633 286.542 502.17 287.957C503.706 289.372 504.79 291.211 505.285 293.242C505.944 295.965 505.499 298.838 504.048 301.229C502.596 303.621 500.256 305.336 497.541 305.999ZM492.857 286.758C491.087 287.188 489.484 288.135 488.252 289.478C487.02 290.822 486.213 292.503 485.935 294.307C485.656 296.111 485.918 297.959 486.688 299.616C487.457 301.272 488.698 302.664 490.256 303.615C491.813 304.566 493.617 305.033 495.437 304.957C497.258 304.881 499.015 304.266 500.485 303.189C501.956 302.113 503.074 300.623 503.698 298.908C504.323 297.193 504.425 295.331 503.993 293.556C503.412 291.177 501.912 289.126 499.825 287.851C497.737 286.577 495.231 286.183 492.857 286.758Z" fill="#222433"/>
<path d="M514.17 374.316C513.999 374.358 513.818 374.33 513.667 374.238C513.517 374.146 513.409 373.998 513.367 373.826L496.738 305.509C496.696 305.337 496.724 305.156 496.815 305.005C496.907 304.855 497.054 304.747 497.226 304.705C497.397 304.663 497.578 304.692 497.728 304.784C497.879 304.875 497.987 305.024 498.029 305.195L514.658 373.512C514.7 373.684 514.672 373.865 514.58 374.016C514.489 374.166 514.341 374.275 514.17 374.316Z" fill="#222433"/>
<path d="M495.566 297.888C493.612 298.36 491.564 298.261 489.662 297.605C487.761 296.949 486.085 295.762 484.832 294.185C484.776 294.116 484.734 294.038 484.709 293.953C484.684 293.868 484.676 293.779 484.685 293.692C484.695 293.604 484.721 293.519 484.764 293.442C484.806 293.364 484.864 293.296 484.933 293.242C485.002 293.187 485.081 293.146 485.166 293.122C485.251 293.099 485.339 293.092 485.427 293.103C485.514 293.114 485.599 293.142 485.675 293.186C485.752 293.23 485.819 293.288 485.873 293.358C486.967 294.737 488.431 295.773 490.093 296.347C491.754 296.92 493.544 297.006 495.251 296.594C496.955 296.176 498.505 295.281 499.719 294.013C500.934 292.745 501.762 291.156 502.108 289.433C502.143 289.26 502.245 289.108 502.391 289.011C502.538 288.914 502.717 288.878 502.889 288.913C503.062 288.947 503.214 289.049 503.312 289.196C503.41 289.342 503.446 289.521 503.412 289.694C503.016 291.666 502.068 293.484 500.679 294.935C499.289 296.386 497.516 297.41 495.566 297.888Z" fill="#222433"/>
<path d="M499.371 296.005C499.277 296.027 499.179 296.029 499.084 296.01C497.111 295.614 495.29 294.662 493.834 293.267C492.379 291.872 491.35 290.091 490.867 288.132C490.748 287.64 490.663 287.139 490.615 286.634C490.605 286.546 490.612 286.457 490.637 286.372C490.662 286.288 490.703 286.208 490.759 286.14C490.814 286.071 490.883 286.014 490.961 285.972C491.038 285.931 491.124 285.905 491.212 285.897C491.3 285.888 491.388 285.898 491.473 285.924C491.557 285.95 491.635 285.993 491.703 286.051C491.77 286.108 491.826 286.178 491.866 286.256C491.907 286.335 491.931 286.421 491.938 286.509C491.98 286.95 492.054 287.388 492.158 287.819C492.58 289.531 493.48 291.087 494.752 292.307C496.025 293.526 497.616 294.358 499.342 294.704C499.49 294.734 499.624 294.814 499.722 294.93C499.819 295.046 499.874 295.192 499.877 295.344C499.881 295.495 499.832 295.644 499.74 295.764C499.648 295.884 499.518 295.969 499.371 296.005Z" fill="#222433"/>
</g>
<g clip-path="url(#clip7_1269_16061)">
<path d="M581.916 327.725C581.709 327.658 581.538 327.512 581.44 327.317C581.341 327.123 581.324 326.897 581.391 326.689L593.756 288.548C593.823 288.34 593.97 288.167 594.163 288.068C594.357 287.968 594.582 287.949 594.788 288.016C594.995 288.083 595.166 288.23 595.264 288.424C595.363 288.618 595.38 288.844 595.313 289.052L582.948 327.193C582.881 327.401 582.734 327.574 582.541 327.674C582.347 327.773 582.122 327.792 581.916 327.725Z" fill="#222433"/>
<path d="M604.735 292.449L584.13 285.779C582.444 285.234 581.046 284.035 580.243 282.448C579.44 280.861 579.298 279.015 579.849 277.317C580.399 275.618 581.597 274.206 583.179 273.391C584.761 272.576 586.597 272.424 588.283 272.97L608.888 279.639C610.574 280.185 611.973 281.383 612.775 282.97C613.578 284.557 613.72 286.403 613.17 288.102C612.619 289.8 611.421 291.213 609.839 292.028C608.258 292.843 606.422 292.994 604.735 292.449ZM586.622 278.094C586.285 277.985 585.917 278.015 585.601 278.178C585.285 278.341 585.045 278.623 584.935 278.963C584.825 279.303 584.853 279.672 585.014 279.989C585.174 280.307 585.454 280.546 585.791 280.656L606.396 287.325C606.734 287.434 607.101 287.404 607.417 287.241C607.733 287.078 607.973 286.795 608.083 286.456C608.193 286.116 608.165 285.747 608.004 285.429C607.844 285.112 607.564 284.872 607.227 284.763L586.622 278.094Z" fill="#F9CFD2"/>
<path d="M597.651 309.97C595.159 309.164 590.213 303.188 589.657 302.51C589.569 302.403 589.51 302.276 589.485 302.14C589.459 302.004 589.469 301.864 589.511 301.732C589.554 301.6 589.629 301.481 589.729 301.386C589.83 301.291 589.952 301.223 590.085 301.187C590.934 300.963 598.447 299.021 600.939 299.827C602.274 300.259 603.381 301.208 604.017 302.465C604.653 303.722 604.765 305.183 604.329 306.528C603.893 307.873 602.944 308.991 601.692 309.637C600.439 310.282 598.986 310.402 597.651 309.97ZM591.766 302.462C593.827 304.857 596.822 307.969 598.159 308.402C598.616 308.549 599.097 308.605 599.576 308.566C600.055 308.526 600.522 308.392 600.95 308.172C601.379 307.951 601.76 307.648 602.073 307.279C602.385 306.911 602.623 306.484 602.772 306.024C602.921 305.564 602.979 305.08 602.942 304.598C602.905 304.116 602.774 303.647 602.556 303.218C602.339 302.788 602.039 302.406 601.674 302.093C601.31 301.78 600.887 301.544 600.43 301.396C599.092 300.963 594.84 301.729 591.766 302.462Z" fill="#222433"/>
<path d="M579.615 304.133C578.279 303.7 577.172 302.752 576.536 301.495C575.9 300.238 575.788 298.777 576.224 297.432C576.66 296.087 577.609 294.968 578.861 294.323C580.114 293.677 581.567 293.557 582.903 293.99C585.394 294.796 590.341 300.772 590.897 301.45C590.984 301.557 591.043 301.684 591.069 301.82C591.094 301.956 591.085 302.096 591.042 302.228C591 302.36 590.925 302.479 590.824 302.574C590.724 302.669 590.602 302.737 590.468 302.772C589.62 302.997 582.106 304.939 579.615 304.133ZM582.394 295.558C581.472 295.26 580.468 295.342 579.603 295.788C578.738 296.234 578.082 297.006 577.781 297.936C577.48 298.865 577.558 299.874 577.997 300.742C578.436 301.61 579.201 302.266 580.123 302.564C581.461 302.997 585.713 302.231 588.787 301.498C586.727 299.103 583.732 295.991 582.394 295.558Z" fill="#222433"/>
</g>
<g clip-path="url(#clip8_1269_16061)">
<path d="M541.476 388.248C541.278 388.29 541.072 388.251 540.903 388.139C540.734 388.028 540.615 387.853 540.573 387.654L513.867 261.568C513.825 261.368 513.863 261.161 513.972 260.991C514.082 260.82 514.255 260.701 514.452 260.659C514.649 260.618 514.855 260.657 515.024 260.768C515.194 260.879 515.312 261.054 515.355 261.253L542.06 387.34C542.102 387.539 542.065 387.747 541.955 387.917C541.845 388.087 541.673 388.206 541.476 388.248Z" fill="#222433"/>
<path d="M521.049 238.734C520.333 238.887 519.708 239.32 519.31 239.939C518.912 240.557 518.773 241.311 518.925 242.034C518.77 241.311 518.338 240.679 517.723 240.274C517.108 239.87 516.361 239.727 515.645 239.877C514.929 240.03 514.303 240.463 513.905 241.082C513.507 241.7 513.369 242.453 513.52 243.177C513.365 242.454 512.933 241.821 512.319 241.417C511.704 241.013 510.957 240.87 510.24 241.02C509.524 241.173 508.899 241.606 508.501 242.224C508.103 242.843 507.964 243.596 508.116 244.32C507.961 243.597 507.529 242.964 506.914 242.56C506.299 242.156 505.552 242.013 504.835 242.162C504.12 242.316 503.494 242.749 503.096 243.367C502.698 243.986 502.56 244.739 502.711 245.462C502.556 244.74 502.124 244.107 501.509 243.703C500.895 243.298 500.147 243.156 499.431 243.305C498.715 243.458 498.09 243.892 497.692 244.51C497.293 245.128 497.155 245.882 497.306 246.605L499.735 258.07C500.505 261.701 502.671 264.881 505.758 266.911C508.845 268.941 512.599 269.655 516.196 268.895C519.792 268.134 522.935 265.962 524.934 262.856C526.934 259.751 527.625 255.966 526.857 252.335L524.429 240.87C524.241 240.147 523.787 239.522 523.158 239.124C522.529 238.727 521.775 238.587 521.049 238.734Z" fill="white"/>
<path d="M516.355 269.646C512.562 270.444 508.603 269.689 505.348 267.549C502.093 265.408 499.807 262.056 498.991 258.227L496.563 246.762C496.411 246.04 496.485 245.288 496.775 244.612C497.065 243.936 497.557 243.368 498.182 242.988C498.808 242.608 499.536 242.435 500.266 242.491C500.996 242.548 501.691 242.833 502.255 243.305C502.49 242.825 502.83 242.405 503.249 242.077C503.669 241.749 504.157 241.521 504.677 241.411C505.197 241.302 505.735 241.312 506.252 241.442C506.769 241.572 507.25 241.818 507.659 242.163C507.894 241.682 508.234 241.262 508.654 240.934C509.073 240.606 509.561 240.379 510.081 240.269C510.601 240.159 511.14 240.169 511.657 240.299C512.173 240.429 512.654 240.676 513.064 241.02C513.299 240.539 513.639 240.119 514.058 239.791C514.478 239.463 514.966 239.236 515.486 239.126C516.006 239.016 516.545 239.026 517.061 239.156C517.578 239.286 518.059 239.533 518.468 239.877C518.703 239.397 519.043 238.977 519.463 238.649C519.882 238.321 520.37 238.093 520.891 237.983C521.807 237.794 522.762 237.968 523.558 238.469C524.354 238.97 524.929 239.76 525.165 240.675L525.173 240.713L527.601 252.178C528.408 256.008 527.677 259.998 525.569 263.273C523.46 266.548 520.147 268.84 516.355 269.646ZM499.59 244.056C499.071 244.167 498.618 244.48 498.329 244.929C498.04 245.377 497.94 245.923 498.051 246.448L500.479 257.913C501.206 261.345 503.253 264.351 506.171 266.27C509.089 268.189 512.638 268.863 516.037 268.144C519.437 267.425 522.408 265.372 524.298 262.437C526.187 259.502 526.84 255.924 526.113 252.492L523.689 241.047C523.551 240.517 523.216 240.06 522.755 239.77C522.294 239.479 521.74 239.377 521.209 239.485C520.69 239.595 520.236 239.909 519.947 240.358C519.659 240.806 519.559 241.352 519.669 241.877C519.711 242.076 519.673 242.283 519.564 242.454C519.454 242.624 519.282 242.743 519.084 242.785C518.887 242.827 518.681 242.787 518.512 242.676C518.342 242.565 518.224 242.39 518.181 242.191C518.07 241.667 517.757 241.207 517.312 240.914C516.866 240.621 516.324 240.518 515.804 240.628C515.285 240.738 514.831 241.051 514.542 241.5C514.253 241.948 514.153 242.495 514.264 243.019C514.307 243.219 514.269 243.426 514.159 243.597C514.049 243.767 513.877 243.886 513.68 243.928C513.482 243.969 513.276 243.93 513.107 243.819C512.938 243.708 512.819 243.533 512.777 243.334C512.666 242.81 512.353 242.35 511.907 242.057C511.461 241.764 510.919 241.661 510.399 241.771C509.88 241.88 509.426 242.194 509.137 242.643C508.849 243.091 508.749 243.638 508.86 244.162C508.902 244.361 508.864 244.569 508.754 244.739C508.645 244.91 508.472 245.029 508.275 245.071C508.078 245.112 507.872 245.073 507.703 244.962C507.533 244.85 507.414 244.676 507.372 244.477C507.317 244.217 507.212 243.971 507.063 243.752C506.914 243.532 506.723 243.345 506.502 243.2C506.282 243.055 506.035 242.955 505.776 242.905C505.518 242.856 505.252 242.859 504.995 242.913C504.738 242.968 504.494 243.073 504.277 243.222C504.061 243.372 503.876 243.563 503.733 243.785C503.59 244.008 503.492 244.256 503.444 244.517C503.396 244.778 503.4 245.045 503.455 245.305C503.497 245.504 503.459 245.712 503.35 245.882C503.24 246.052 503.068 246.172 502.871 246.213C502.673 246.255 502.467 246.216 502.298 246.105C502.129 245.993 502.01 245.819 501.968 245.62C501.856 245.095 501.543 244.636 501.097 244.343C500.652 244.05 500.11 243.947 499.59 244.056Z" fill="#222433"/>
<path d="M521.396 253.333C521.199 253.375 520.993 253.335 520.824 253.224C520.655 253.113 520.536 252.938 520.494 252.739L518.214 241.975C518.172 241.776 518.209 241.569 518.319 241.398C518.429 241.228 518.601 241.109 518.798 241.067C518.996 241.025 519.202 241.065 519.371 241.176C519.54 241.287 519.659 241.462 519.701 241.661L521.981 252.425C522.023 252.624 521.985 252.831 521.876 253.002C521.766 253.172 521.594 253.291 521.396 253.333Z" fill="#222433"/>
<path d="M515.967 254.481C515.769 254.522 515.563 254.483 515.394 254.372C515.225 254.261 515.106 254.086 515.064 253.887L512.784 243.123C512.742 242.924 512.78 242.717 512.889 242.546C512.999 242.376 513.171 242.257 513.369 242.215C513.566 242.173 513.772 242.212 513.941 242.324C514.111 242.435 514.229 242.61 514.272 242.809L516.551 253.573C516.594 253.772 516.556 253.979 516.446 254.15C516.336 254.32 516.164 254.439 515.967 254.481Z" fill="#222433"/>
<path d="M510.537 255.629C510.34 255.67 510.134 255.631 509.964 255.52C509.795 255.409 509.676 255.234 509.634 255.035L507.354 244.271C507.312 244.072 507.35 243.864 507.46 243.694C507.569 243.524 507.742 243.405 507.939 243.363C508.136 243.321 508.342 243.36 508.512 243.472C508.681 243.583 508.8 243.758 508.842 243.957L511.122 254.72C511.164 254.92 511.126 255.127 511.016 255.298C510.907 255.468 510.734 255.587 510.537 255.629Z" fill="#222433"/>
<path d="M505.133 256.772C504.935 256.813 504.73 256.774 504.56 256.663C504.391 256.551 504.272 256.377 504.23 256.178L501.95 245.414C501.908 245.215 501.946 245.007 502.055 244.837C502.165 244.667 502.338 244.548 502.535 244.506C502.732 244.464 502.938 244.503 503.107 244.615C503.277 244.726 503.395 244.9 503.438 245.1L505.717 255.863C505.76 256.062 505.722 256.27 505.612 256.44C505.502 256.611 505.33 256.73 505.133 256.772Z" fill="#222433"/>
</g>
<g clip-path="url(#clip9_1269_16061)">
<path d="M588.622 316.658C588.417 316.658 588.221 316.577 588.076 316.432C587.931 316.287 587.85 316.09 587.85 315.885V267.654C587.85 267.449 587.931 267.253 588.076 267.108C588.221 266.963 588.417 266.881 588.622 266.881C588.827 266.881 589.024 266.963 589.169 267.108C589.314 267.253 589.395 267.449 589.395 267.654V315.885C589.395 316.09 589.314 316.287 589.169 316.432C589.024 316.577 588.827 316.658 588.622 316.658Z" fill="#222433"/>
<path d="M478.712 316.658C478.507 316.658 478.311 316.577 478.166 316.432C478.021 316.287 477.939 316.09 477.939 315.885V263.017C477.939 262.812 478.021 262.615 478.166 262.47C478.311 262.325 478.507 262.244 478.712 262.244C478.917 262.244 479.114 262.325 479.259 262.47C479.404 262.615 479.485 262.812 479.485 263.017V315.885C479.485 316.09 479.404 316.287 479.259 316.432C479.114 316.577 478.917 316.658 478.712 316.658Z" fill="#222433"/>
<path d="M521.625 316.658C521.42 316.658 521.224 316.576 521.079 316.432C520.934 316.287 520.853 316.09 520.853 315.885V296.53C520.853 296.325 520.934 296.128 521.079 295.983C521.224 295.838 521.42 295.757 521.625 295.757C521.83 295.757 522.027 295.838 522.172 295.983C522.317 296.128 522.398 296.325 522.398 296.53V315.885C522.398 316.09 522.317 316.287 522.172 316.432C522.027 316.576 521.83 316.658 521.625 316.658Z" fill="#222433"/>
<path d="M541.047 316.658C540.842 316.658 540.646 316.576 540.501 316.431C540.356 316.287 540.274 316.09 540.274 315.885V273.477C540.274 273.272 540.356 273.075 540.501 272.93C540.646 272.785 540.842 272.704 541.047 272.704C541.252 272.704 541.449 272.785 541.594 272.93C541.738 273.075 541.82 273.272 541.82 273.477V315.885C541.82 316.09 541.738 316.287 541.594 316.431C541.449 316.576 541.252 316.658 541.047 316.658Z" fill="#222433"/>
<path d="M561.679 316.658C561.474 316.658 561.278 316.576 561.133 316.432C560.988 316.287 560.906 316.09 560.906 315.885V310.887C560.906 310.682 560.988 310.485 561.133 310.34C561.278 310.195 561.474 310.114 561.679 310.114C561.884 310.114 562.08 310.195 562.225 310.34C562.37 310.485 562.452 310.682 562.452 310.887V315.885C562.452 316.09 562.37 316.287 562.225 316.432C562.08 316.576 561.884 316.658 561.679 316.658Z" fill="#222433"/>
<path d="M461.273 315.885H601.011V364.296H461.273V315.885Z" fill="white"/>
<path d="M601.012 365.069H461.274C461.069 365.069 460.872 364.988 460.727 364.843C460.582 364.698 460.501 364.501 460.501 364.296V315.885C460.501 315.68 460.582 315.484 460.727 315.339C460.872 315.194 461.069 315.112 461.274 315.112H601.012C601.217 315.112 601.413 315.194 601.558 315.339C601.703 315.484 601.784 315.68 601.784 315.885V364.296C601.784 364.501 601.703 364.698 601.558 364.843C601.413 364.988 601.217 365.069 601.012 365.069ZM462.046 363.524H600.239V316.658H462.046V363.524Z" fill="#222433"/>
<path d="M601.012 325.547H461.274C461.069 325.547 460.872 325.465 460.727 325.32C460.582 325.176 460.501 324.979 460.501 324.774C460.501 324.569 460.582 324.372 460.727 324.227C460.872 324.082 461.069 324.001 461.274 324.001H601.012C601.217 324.001 601.413 324.082 601.558 324.227C601.703 324.372 601.784 324.569 601.784 324.774C601.784 324.979 601.703 325.176 601.558 325.32C601.413 325.465 601.217 325.547 601.012 325.547Z" fill="#222433"/>
<path d="M500.632 316.658C500.427 316.658 500.231 316.577 500.086 316.432C499.941 316.287 499.859 316.09 499.859 315.885V245.523C499.859 245.318 499.941 245.121 500.086 244.976C500.231 244.831 500.427 244.75 500.632 244.75C500.837 244.75 501.034 244.831 501.179 244.976C501.323 245.121 501.405 245.318 501.405 245.523V315.885C501.405 316.09 501.323 316.287 501.179 316.432C501.034 316.577 500.837 316.658 500.632 316.658Z" fill="#222433"/>
</g>
<g clip-path="url(#clip10_1269_16061)">
<path d="M370.55 141.112L371.868 145.47C372.099 146.228 372.692 146.82 373.451 147.049L377.814 148.369C378.098 148.455 378.259 148.755 378.173 149.039C378.121 149.211 377.986 149.346 377.814 149.398L373.451 150.718C372.692 150.946 372.099 151.539 371.868 152.296L370.55 156.655C370.466 156.94 370.167 157.103 369.882 157.019C369.706 156.968 369.569 156.83 369.517 156.655L368.197 152.296C367.968 151.539 367.375 150.946 366.616 150.718L362.254 149.398C361.969 149.312 361.808 149.012 361.894 148.728C361.946 148.556 362.081 148.421 362.254 148.369L366.616 147.049C367.375 146.821 367.968 146.228 368.197 145.47L369.517 141.112C369.601 140.827 369.9 140.664 370.185 140.747C370.361 140.799 370.498 140.936 370.55 141.112Z" fill="#F9CFD2"/>
</g>
<g clip-path="url(#clip11_1269_16061)">
<path d="M474.428 27.435L475.252 30.1591C475.396 30.6325 475.767 31.0029 476.241 31.1459L478.968 31.9707C479.146 32.0244 479.246 32.2119 479.193 32.3895C479.16 32.4971 479.076 32.5814 478.968 32.6139L476.241 33.4387C475.767 33.5817 475.396 33.9521 475.252 34.4255L474.428 37.1496C474.376 37.3276 474.189 37.4296 474.011 37.3773C473.901 37.345 473.815 37.2592 473.783 37.1496L472.957 34.4255C472.814 33.9519 472.444 33.5814 471.97 33.4387L469.243 32.6139C469.065 32.5602 468.965 32.3727 469.018 32.1951C469.051 32.0875 469.135 32.0032 469.243 31.9707L471.97 31.1459C472.444 31.0032 472.814 30.6327 472.957 30.1591L473.783 27.435C473.835 27.257 474.022 27.155 474.2 27.2073C474.31 27.2394 474.396 27.3252 474.428 27.435Z" fill="#000091"/>
</g>
<g clip-path="url(#clip12_1269_16061)">
<path d="M628.415 349.785H24.5847C23.9512 349.785 23.4668 349.281 23.4668 348.622C23.4668 347.963 23.9512 347.459 24.5847 347.459H628.415C629.048 347.459 629.532 347.963 629.532 348.622C629.532 349.281 629.048 349.785 628.415 349.785Z" fill="#222433"/>
</g>
<g clip-path="url(#clip13_1269_16061)">
<path d="M493.904 60.0485L495.826 66.4049C496.162 67.5095 497.028 68.3736 498.135 68.7073L504.497 70.6319C504.912 70.7573 505.146 71.1948 505.021 71.609C504.945 71.8601 504.748 72.0568 504.497 72.1327L498.135 74.0573C497.028 74.391 496.162 75.2551 495.826 76.3597L493.904 82.7161C493.781 83.1314 493.346 83.3694 492.93 83.2472C492.673 83.172 492.473 82.9718 492.398 82.7161L490.472 76.3597C490.138 75.2548 489.273 74.3903 488.167 74.0573L481.805 72.1327C481.39 72.0073 481.156 71.5698 481.281 71.1556C481.357 70.9045 481.553 70.7078 481.805 70.6319L488.167 68.7073C489.273 68.3743 490.138 67.5098 490.472 66.4049L492.398 60.0485C492.52 59.6332 492.956 59.3952 493.372 59.5174C493.628 59.5923 493.828 59.7925 493.904 60.0485Z" fill="#F9CFD2"/>
</g>
<defs>
<clipPath id="clip0_1269_16061">
<rect width="179.235" height="94.8364" fill="white" transform="translate(389.079 115.571)"/>
</clipPath>
<clipPath id="clip1_1269_16061">
<rect width="206.443" height="140.385" fill="white" transform="translate(369.013 209.048)"/>
</clipPath>
<clipPath id="clip2_1269_16061">
<rect width="173.113" height="172.677" fill="white" transform="translate(351.327 14.6165)"/>
</clipPath>
<clipPath id="clip3_1269_16061">
<rect width="311.876" height="321.9" fill="white" transform="translate(34.3506 27.873)"/>
</clipPath>
<clipPath id="clip4_1269_16061">
<rect width="30.6024" height="91.4432" fill="white" transform="matrix(0.979884 -0.199567 0.199888 0.979819 440.109 260.61)"/>
</clipPath>
<clipPath id="clip5_1269_16061">
<rect width="15.6448" height="49.6276" fill="white" transform="matrix(-1 0 0 1 572.735 266.834)"/>
</clipPath>
<clipPath id="clip6_1269_16061">
<rect width="21.0826" height="32.6355" fill="white" transform="matrix(0.971721 -0.236132 0.236509 0.971629 482.299 287.952)"/>
</clipPath>
<clipPath id="clip7_1269_16061">
<rect width="35.0229" height="54.0548" fill="white" transform="matrix(0.951405 0.307942 -0.308376 0.951265 581.925 270.912)"/>
</clipPath>
<clipPath id="clip8_1269_16061">
<rect width="28.9021" height="85.6646" fill="white" transform="matrix(0.978367 -0.206877 0.207207 0.978297 495.826 243.283)"/>
</clipPath>
<clipPath id="clip9_1269_16061">
<rect width="145.224" height="32.9718" fill="white" transform="translate(460.501 315.442)"/>
</clipPath>
<clipPath id="clip10_1269_16061">
<rect width="16.325" height="16.3159" fill="white" transform="translate(361.871 140.725)"/>
</clipPath>
<clipPath id="clip11_1269_16061">
<rect width="10.2031" height="10.1975" fill="white" transform="translate(469.004 27.1934)"/>
</clipPath>
<clipPath id="clip12_1269_16061">
<rect width="606.066" height="4.41888" fill="white" transform="translate(23.4668 346.374)"/>
</clipPath>
<clipPath id="clip13_1269_16061">
<rect width="23.8073" height="23.7941" fill="white" transform="translate(481.247 59.4851)"/>
</clipPath>
</defs>
</svg>