<svg width="1801" height="1854" viewBox="0 0 1801 1854" fill="none"
  xmlns="http://www.w3.org/2000/svg">
  <g clip-path="url(#clip0)">
    <rect width="1801" height="1854"/>
    <path fill-rule="evenodd" clip-rule="evenodd" d="M1065.33 317.764C1234.42 303.904 1339.88 481.133 1391.29 642.772C1441.41 800.389 1436.88 979.047 1309 1083.96C1155.66 1209.76 921.395 1282.1 774.652 1148.66C645.651 1031.36 813.165 850.006 870.736 685.443C921.359 540.74 912.515 330.291 1065.33 317.764Z" fill="#E1000F" fill-opacity="0.18"/>
    <path d="M839.224 450.184C866.43 531.005 811.905 550.811 781.242 550.612C715.536 550.184 595.287 548.273 586.368 490.612C579.901 448.808 647.569 405.171 688.513 386.801C727.415 374.253 812.019 369.363 839.224 450.184Z" fill="#B9B9FB"/>
    <path d="M247.977 784H277.947L291.245 747.877H346.819L360.117 784H390.087L337.491 645.066H300.574L247.977 784ZM299.978 723.861L319.032 671.662L338.086 723.861H299.978ZM385.28 670.669H428.152V784H456.336V670.669H499.207V645.066H385.28V670.669ZM525.945 784H606.924V759.984H554.129V725.251H598.985V701.235H554.129V669.081H606.924V645.066H525.945V784ZM641.66 784H722.639V758.396H669.844V645.066H641.66V784ZM749.427 784H777.611V645.066H749.427V784ZM818.429 784H899.408V759.984H846.613V725.251H891.469V701.235H846.613V669.081H899.408V645.066H818.429V784ZM934.143 784H962.327V727.831H976.816L1013.73 784H1047.47L1003.81 722.472C1010.76 719.296 1016.11 714.533 1020.08 708.38C1024.05 702.227 1026.04 694.884 1026.04 686.547C1026.04 673.845 1021.47 663.723 1012.74 656.18C1003.81 648.837 991.702 645.066 976.617 645.066H934.143V784ZM978.205 669.081C984.16 669.081 988.725 670.669 992.099 673.646C995.274 676.822 997.061 680.99 997.061 686.151C997.061 691.906 995.274 696.273 992.099 699.25C988.725 702.426 984.16 703.815 978.205 703.815H962.327V669.081H978.205ZM265.443 1031H293.627V931.166L355.751 1031H391.874V892.066H363.69V991.503L301.566 892.066H265.443V1031ZM513.099 978.999C513.099 988.327 510.518 995.671 505.557 1000.83C500.396 1005.99 493.648 1008.57 485.113 1008.57C476.38 1008.57 469.434 1005.99 464.472 1000.83C459.311 995.671 456.929 988.327 456.929 978.999V892.066H428.746V976.617C428.746 994.877 433.708 1009.17 443.83 1019.49C453.754 1029.81 467.449 1034.97 484.915 1034.97C502.182 1034.97 515.877 1029.81 526 1019.49C536.122 1009.17 541.283 994.877 541.283 976.617V892.066H513.099V978.999ZM578.279 1031H606.462V932.158L637.425 983.365H657.273L688.235 932.158V1031H716.419V892.066H680.892L647.349 949.227L613.806 892.066H578.279V1031ZM810.174 880.157L835.976 853.362H806.998L784.57 880.157H810.174ZM757.18 1031H838.159V1006.98H785.364V972.251H830.22V948.235H785.364V916.081H838.159V892.066H757.18V1031ZM872.894 1031H901.078V974.831H915.567L952.484 1031H986.225L942.56 969.472C949.507 966.296 954.866 961.533 958.835 955.38C962.805 949.227 964.789 941.884 964.789 933.547C964.789 920.845 960.224 910.723 951.491 903.18C942.56 895.837 930.453 892.066 915.368 892.066H872.894V1031ZM916.956 916.081C922.911 916.081 927.476 917.669 930.85 920.646C934.025 923.822 935.812 927.99 935.812 933.151C935.812 938.906 934.025 943.273 930.85 946.25C927.476 949.426 922.911 950.815 916.956 950.815H901.078V916.081H916.956ZM1005.67 1031H1033.85V892.066H1005.67V1031ZM1191.17 1027.43L1182.84 1019.49C1191.17 1012.74 1197.92 1004.4 1202.88 994.083C1207.65 983.961 1210.23 973.045 1210.23 961.533C1210.23 951.609 1208.44 942.28 1204.87 933.349C1201.3 924.417 1196.14 916.677 1189.78 909.929C1183.23 903.379 1175.49 898.02 1166.36 894.05C1157.23 890.081 1147.31 888.096 1136.59 888.096C1125.68 888.096 1115.75 890.081 1106.62 894.05C1097.49 898.02 1089.55 903.379 1083.2 909.929C1076.65 916.677 1071.69 924.417 1068.12 933.349C1064.54 942.28 1062.76 951.609 1062.76 961.533C1062.76 971.457 1064.54 980.984 1068.12 989.915C1071.69 998.847 1076.65 1006.59 1083.2 1013.14C1089.55 1019.89 1097.49 1025.05 1106.62 1029.02C1115.75 1032.98 1125.68 1034.97 1136.59 1034.97C1139.77 1034.97 1143.14 1034.77 1146.32 1034.37C1149.49 1033.98 1152.67 1033.38 1155.65 1032.59L1172.12 1047.28C1178.87 1053.23 1185.81 1057.79 1193.16 1060.97C1200.3 1064.15 1207.85 1065.54 1215.59 1065.54C1218.56 1065.54 1221.14 1065.34 1223.53 1064.94C1225.71 1064.54 1227.89 1063.95 1230.27 1062.96V1039.14C1228.69 1039.73 1227.1 1040.13 1225.31 1040.33C1223.33 1040.73 1221.74 1040.73 1220.35 1040.73C1215.78 1040.73 1211.02 1039.73 1206.26 1037.75C1201.49 1035.76 1196.33 1032.39 1191.17 1027.43ZM1136.59 1008.57C1130.04 1008.57 1124.09 1007.38 1118.53 1005C1112.97 1002.62 1108.21 999.244 1104.24 995.076C1100.27 990.908 1097.29 985.946 1095.11 980.19C1092.73 974.434 1091.74 968.281 1091.74 961.533C1091.74 954.983 1092.73 948.83 1095.11 943.074C1097.29 937.319 1100.27 932.357 1104.24 928.189C1108.21 924.021 1112.97 920.646 1118.53 918.265C1124.09 915.883 1130.04 914.494 1136.59 914.494C1142.94 914.494 1148.9 915.883 1154.46 918.265C1160.01 920.646 1164.58 924.021 1168.55 928.189C1172.52 932.357 1175.49 937.319 1177.88 943.074C1180.06 948.83 1181.25 954.983 1181.25 961.533C1181.25 968.281 1180.06 974.434 1177.88 980.19C1175.49 985.946 1172.52 990.908 1168.55 995.076C1164.58 999.244 1160.01 1002.62 1154.46 1005C1148.9 1007.38 1142.94 1008.57 1136.59 1008.57ZM1321.16 978.999C1321.16 988.327 1318.58 995.671 1313.62 1000.83C1308.46 1005.99 1301.71 1008.57 1293.17 1008.57C1284.44 1008.57 1277.49 1005.99 1272.53 1000.83C1267.37 995.671 1264.99 988.327 1264.99 978.999V892.066H1236.81V976.617C1236.81 994.877 1241.77 1009.17 1251.89 1019.49C1261.81 1029.81 1275.51 1034.97 1292.98 1034.97C1310.24 1034.97 1323.94 1029.81 1334.06 1019.49C1344.18 1009.17 1349.34 994.877 1349.34 976.617V892.066H1321.16V978.999ZM1386.34 1031H1467.32V1006.98H1414.52V972.251H1459.38V948.235H1414.52V916.081H1467.32V892.066H1386.34V1031ZM327.368 1255.57C320.819 1255.57 314.864 1254.38 309.307 1252C303.749 1249.62 298.986 1246.24 295.016 1242.08C291.047 1237.91 288.07 1232.95 285.886 1227.19C283.505 1221.43 282.512 1215.28 282.512 1208.53C282.512 1201.98 283.505 1195.83 285.886 1190.07C288.07 1184.32 291.047 1179.36 295.016 1175.19C298.986 1171.02 303.749 1167.65 309.307 1165.26C314.864 1162.88 320.819 1161.49 327.368 1161.49C335.307 1161.49 342.254 1163.28 348.407 1166.85C354.56 1170.43 359.72 1174.99 363.69 1180.55L385.919 1163.28C379.568 1154.94 371.232 1148.2 361.308 1143.04C351.186 1137.87 339.872 1135.1 327.368 1135.1C316.452 1135.1 306.528 1137.08 297.398 1141.05C288.268 1145.02 280.329 1150.38 273.978 1156.93C267.428 1163.68 262.466 1171.42 258.893 1180.35C255.321 1189.28 253.535 1198.61 253.535 1208.53C253.535 1218.46 255.321 1227.98 258.893 1236.92C262.466 1245.85 267.428 1253.59 273.978 1260.14C280.329 1266.89 288.268 1272.05 297.398 1276.02C306.528 1279.98 316.452 1281.97 327.368 1281.97C339.872 1281.97 351.186 1279.39 361.308 1274.23C371.232 1269.07 379.568 1262.32 385.919 1253.59L363.69 1236.52C359.72 1242.27 354.56 1246.84 348.407 1250.41C342.254 1253.98 335.307 1255.57 327.368 1255.57ZM492.747 1226C492.747 1235.33 490.167 1242.67 485.205 1247.83C480.044 1252.99 473.296 1255.57 464.762 1255.57C456.029 1255.57 449.082 1252.99 444.12 1247.83C438.959 1242.67 436.578 1235.33 436.578 1226V1139.07H408.394V1223.62C408.394 1241.88 413.356 1256.17 423.478 1266.49C433.402 1276.81 447.097 1281.97 464.563 1281.97C481.831 1281.97 495.526 1276.81 505.648 1266.49C515.77 1256.17 520.931 1241.88 520.931 1223.62V1139.07H492.747V1226ZM557.927 1278H638.906V1252.4H586.111V1139.07H557.927V1278ZM635.122 1164.67H677.993V1278H706.177V1164.67H749.049V1139.07H635.122V1164.67ZM857.721 1226C857.721 1235.33 855.141 1242.67 850.179 1247.83C845.019 1252.99 838.271 1255.57 829.736 1255.57C821.003 1255.57 814.056 1252.99 809.094 1247.83C803.934 1242.67 801.552 1235.33 801.552 1226V1139.07H773.368V1223.62C773.368 1241.88 778.33 1256.17 788.453 1266.49C798.377 1276.81 812.072 1281.97 829.538 1281.97C846.805 1281.97 860.5 1276.81 870.622 1266.49C880.745 1256.17 885.905 1241.88 885.905 1223.62V1139.07H857.721V1226ZM922.901 1278H951.085V1221.83H965.574L1002.49 1278H1036.23L992.567 1216.47C999.514 1213.3 1004.87 1208.53 1008.84 1202.38C1012.81 1196.23 1014.8 1188.88 1014.8 1180.55C1014.8 1167.84 1010.23 1157.72 1001.5 1150.18C992.567 1142.84 980.46 1139.07 965.376 1139.07H922.901V1278ZM966.963 1163.08C972.918 1163.08 977.483 1164.67 980.857 1167.65C984.032 1170.82 985.819 1174.99 985.819 1180.15C985.819 1185.91 984.032 1190.27 980.857 1193.25C977.483 1196.43 972.918 1197.82 966.963 1197.82H951.085V1163.08H966.963ZM1055.67 1278H1136.65V1253.98H1083.86V1219.25H1128.71V1195.23H1083.86V1163.08H1136.65V1139.07H1055.67V1278Z" fill="black"/>
    <g style="mix-blend-mode:multiply">
      <path d="M955.642 1465.19C955.642 1500 865.216 1523.36 825 1528L824.823 1528.02C746.816 1537.02 625.197 1551.05 490.861 1479.31C419.573 1441.23 439.478 1366.65 535.681 1368.08L769.846 1373.93C829.095 1375.02 955.642 1362.96 955.642 1465.19Z" fill="#010191"/>
    </g>
    <path fill-rule="evenodd" clip-rule="evenodd" d="M1554.18 732.16C1539.49 788.448 1489.48 826.113 1431.34 831.71C1363.72 838.218 1282.64 824.643 1261.29 760.352C1241.44 700.603 1311.24 659.92 1361.82 622.385C1402.64 592.093 1451.03 561.439 1495.3 586.697C1545.66 615.439 1568.76 676.297 1554.18 732.16Z" fill="#E1000F"/>
  </g>
  <defs>
    <clipPath id="clip0">
      <rect width="1801" height="1854"/>
    </clipPath>
  </defs>
</svg>
