<?xml version="1.0" encoding="UTF-8" standalone="no"?>
<!DOCTYPE svg PUBLIC "-//W3C//DTD SVG 1.1//EN"
 "http://www.w3.org/Graphics/SVG/1.1/DTD/svg11.dtd">
<!-- Generated by graphviz version 3.0.0 (20220226.1711)
 -->
<!-- Title: CollectifObjets Pages: 1 -->
<svg width="1005pt" height="860pt"
 viewBox="0.00 0.00 1004.73 859.60" xmlns="http://www.w3.org/2000/svg" xmlns:xlink="http://www.w3.org/1999/xlink">
<g id="graph0" class="graph" transform="scale(1 1) rotate(0) translate(28.8 830.8)">
<title>CollectifObjets</title>
<polygon fill="white" stroke="transparent" points="-28.8,28.8 -28.8,-830.8 975.93,-830.8 975.93,28.8 -28.8,28.8"/>
<text text-anchor="middle" x="473.57" y="-787.6" font-family="Arial BoldMT" font-size="13.00">Collectif Objets Database Schema</text>
<!-- m_ActiveAdmin::Comment -->
<g id="node1" class="node">
<title>m_ActiveAdmin::Comment</title>
<path fill="none" stroke="black" d="M60.5,-624C60.5,-624 180.5,-624 180.5,-624 186.5,-624 192.5,-630 192.5,-636 192.5,-636 192.5,-720 192.5,-720 192.5,-726 186.5,-732 180.5,-732 180.5,-732 60.5,-732 60.5,-732 54.5,-732 48.5,-726 48.5,-720 48.5,-720 48.5,-636 48.5,-636 48.5,-630 54.5,-624 60.5,-624"/>
<text text-anchor="start" x="61.5" y="-719.2" font-family="Arial BoldMT" font-size="11.00">ActiveAdmin::Comment</text>
<polyline fill="none" stroke="black" points="48.5,-712 192.5,-712 "/>
<text text-anchor="start" x="55.5" y="-699" font-family="ArialMT" font-size="10.00">author_id </text>
<text text-anchor="start" x="98.5" y="-699" font-family="Arial ItalicMT" font-size="10.00" fill="#999999">integer (8)</text>
<text text-anchor="start" x="55.5" y="-686" font-family="ArialMT" font-size="10.00">author_type </text>
<text text-anchor="start" x="110.5" y="-686" font-family="Arial ItalicMT" font-size="10.00" fill="#999999">string</text>
<text text-anchor="start" x="55.5" y="-673" font-family="ArialMT" font-size="10.00">body </text>
<text text-anchor="start" x="80.5" y="-673" font-family="Arial ItalicMT" font-size="10.00" fill="#999999">text ∗</text>
<text text-anchor="start" x="55.5" y="-660" font-family="ArialMT" font-size="10.00">namespace </text>
<text text-anchor="start" x="109.5" y="-660" font-family="Arial ItalicMT" font-size="10.00" fill="#999999">string ∗</text>
<text text-anchor="start" x="55.5" y="-647" font-family="ArialMT" font-size="10.00">resource_id </text>
<text text-anchor="start" x="109.5" y="-647" font-family="Arial ItalicMT" font-size="10.00" fill="#999999">integer (8)</text>
<text text-anchor="start" x="55.5" y="-634" font-family="ArialMT" font-size="10.00">resource_type </text>
<text text-anchor="start" x="120.5" y="-634" font-family="Arial ItalicMT" font-size="10.00" fill="#999999">string</text>
</g>
<!-- m_ActiveStorage::Attachment -->
<g id="node2" class="node">
<title>m_ActiveStorage::Attachment</title>
<path fill="none" stroke="black" d="M261.5,-0.5C261.5,-0.5 381.5,-0.5 381.5,-0.5 387.5,-0.5 393.5,-6.5 393.5,-12.5 393.5,-12.5 393.5,-44.5 393.5,-44.5 393.5,-50.5 387.5,-56.5 381.5,-56.5 381.5,-56.5 261.5,-56.5 261.5,-56.5 255.5,-56.5 249.5,-50.5 249.5,-44.5 249.5,-44.5 249.5,-12.5 249.5,-12.5 249.5,-6.5 255.5,-0.5 261.5,-0.5"/>
<text text-anchor="start" x="255" y="-43.7" font-family="Arial BoldMT" font-size="11.00">ActiveStorage::Attachment</text>
<polyline fill="none" stroke="black" points="249.5,-36.5 393.5,-36.5 "/>
<text text-anchor="start" x="256.5" y="-23.5" font-family="ArialMT" font-size="10.00">name </text>
<text text-anchor="start" x="284.5" y="-23.5" font-family="Arial ItalicMT" font-size="10.00" fill="#999999">string ∗</text>
<text text-anchor="start" x="256.5" y="-10.5" font-family="ArialMT" font-size="10.00">record_type </text>
<text text-anchor="start" x="311.5" y="-10.5" font-family="Arial ItalicMT" font-size="10.00" fill="#999999">string ∗</text>
</g>
<!-- m_ActiveStorage::Blob -->
<g id="node3" class="node">
<title>m_ActiveStorage::Blob</title>
<path fill="none" stroke="black" d="M90.5,-139C90.5,-139 210.5,-139 210.5,-139 216.5,-139 222.5,-145 222.5,-151 222.5,-151 222.5,-248 222.5,-248 222.5,-254 216.5,-260 210.5,-260 210.5,-260 90.5,-260 90.5,-260 84.5,-260 78.5,-254 78.5,-248 78.5,-248 78.5,-151 78.5,-151 78.5,-145 84.5,-139 90.5,-139"/>
<text text-anchor="start" x="100.5" y="-247.2" font-family="Arial BoldMT" font-size="11.00">ActiveStorage::Blob</text>
<polyline fill="none" stroke="black" points="78.5,-240 222.5,-240 "/>
<text text-anchor="start" x="85.5" y="-226.5" font-family="ArialMT" font-size="10.00">byte_size </text>
<text text-anchor="start" x="131.5" y="-226.5" font-family="Arial ItalicMT" font-size="10.00" fill="#999999">integer (8) ∗</text>
<text text-anchor="start" x="85.5" y="-213.5" font-family="ArialMT" font-size="10.00">checksum </text>
<text text-anchor="start" x="134.5" y="-213.5" font-family="Arial ItalicMT" font-size="10.00" fill="#999999">string ∗</text>
<text text-anchor="start" x="85.5" y="-200.5" font-family="ArialMT" font-size="10.00">content_type </text>
<text text-anchor="start" x="145.5" y="-200.5" font-family="Arial ItalicMT" font-size="10.00" fill="#999999">string</text>
<text text-anchor="start" x="85.5" y="-187.5" font-family="ArialMT" font-size="10.00">filename </text>
<text text-anchor="start" x="125.5" y="-187.5" font-family="Arial ItalicMT" font-size="10.00" fill="#999999">string ∗</text>
<text text-anchor="start" x="85.5" y="-174.5" font-family="ArialMT" font-size="10.00">key </text>
<text text-anchor="start" x="104.5" y="-174.5" font-family="Arial ItalicMT" font-size="10.00" fill="#999999">string ∗</text>
<text text-anchor="start" x="85.5" y="-161.5" font-family="ArialMT" font-size="10.00">metadata </text>
<text text-anchor="start" x="129.5" y="-161.5" font-family="Arial ItalicMT" font-size="10.00" fill="#999999">text</text>
<text text-anchor="start" x="85.5" y="-148.5" font-family="ArialMT" font-size="10.00">service_name </text>
<text text-anchor="start" x="149.5" y="-148.5" font-family="Arial ItalicMT" font-size="10.00" fill="#999999">string ∗</text>
</g>
<!-- m_ActiveStorage::Blob&#45;&gt;m_ActiveStorage::Attachment -->
<g id="edge2" class="edge">
<title>m_ActiveStorage::Blob&#45;&gt;m_ActiveStorage::Attachment</title>
<path fill="none" stroke="black" d="M210.79,-138.92C236.41,-113.6 265.34,-85 287.21,-63.39"/>
<polygon fill="black" stroke="black" points="289.57,-65.49 293.75,-56.92 285.14,-61.01 289.57,-65.49"/>
</g>
<!-- m_ActiveStorage::Blob&#45;&gt;m_ActiveStorage::Blob -->
<g id="edge7" class="edge">
<title>m_ActiveStorage::Blob&#45;&gt;m_ActiveStorage::Blob</title>
<path fill="none" stroke="black" stroke-dasharray="1,5" d="M222.68,-230.67C239.29,-227.99 251.5,-217.6 251.5,-199.5 251.5,-181.4 239.29,-171.01 222.68,-168.33"/>
</g>
<!-- m_ActiveStorage::VariantRecord -->
<g id="node4" class="node">
<title>m_ActiveStorage::VariantRecord</title>
<path fill="none" stroke="black" d="M12,-427C12,-427 141,-427 141,-427 147,-427 153,-433 153,-439 153,-439 153,-458 153,-458 153,-464 147,-470 141,-470 141,-470 12,-470 12,-470 6,-470 0,-464 0,-458 0,-458 0,-439 0,-439 0,-433 6,-427 12,-427"/>
<text text-anchor="start" x="5.5" y="-457.2" font-family="Arial BoldMT" font-size="11.00">ActiveStorage::VariantRecord</text>
<polyline fill="none" stroke="black" points="0,-450 153,-450 "/>
<text text-anchor="start" x="11.5" y="-436.5" font-family="ArialMT" font-size="10.00">variation_digest </text>
<text text-anchor="start" x="83.5" y="-436.5" font-family="Arial ItalicMT" font-size="10.00" fill="#999999">string ∗</text>
</g>
<!-- m_ActiveStorage::VariantRecord&#45;&gt;m_ActiveStorage::Attachment -->
<g id="edge3" class="edge">
<title>m_ActiveStorage::VariantRecord&#45;&gt;m_ActiveStorage::Attachment</title>
<path fill="none" stroke="black" d="M67.49,-426.71C43.29,-367.3 -16.09,-194.55 63.5,-93 85.29,-65.2 173.32,-47.94 240.55,-38.55"/>
<polygon fill="black" stroke="black" points="240.98,-41.68 249.47,-37.34 240.13,-35.43 240.98,-41.68"/>
</g>
<!-- m_ActiveStorage::VariantRecord&#45;&gt;m_ActiveStorage::Blob -->
<g id="edge1" class="edge">
<title>m_ActiveStorage::VariantRecord&#45;&gt;m_ActiveStorage::Blob</title>
<path fill="none" stroke="black" d="M82.68,-426.87C92.98,-392.49 114.09,-322.02 130.04,-268.78"/>
<polygon fill="black" stroke="black" points="133.09,-269.58 132.66,-260.06 127.06,-267.78 133.09,-269.58"/>
</g>
<!-- m_AdminUser -->
<g id="node5" class="node">
<title>m_AdminUser</title>
<path fill="none" stroke="black" d="M735,-630.5C735,-630.5 896,-630.5 896,-630.5 902,-630.5 908,-636.5 908,-642.5 908,-642.5 908,-713.5 908,-713.5 908,-719.5 902,-725.5 896,-725.5 896,-725.5 735,-725.5 735,-725.5 729,-725.5 723,-719.5 723,-713.5 723,-713.5 723,-642.5 723,-642.5 723,-636.5 729,-630.5 735,-630.5"/>
<text text-anchor="start" x="786" y="-712.7" font-family="Arial BoldMT" font-size="11.00">AdminUser</text>
<polyline fill="none" stroke="black" points="723,-705.5 908,-705.5 "/>
<text text-anchor="start" x="730.5" y="-692" font-family="ArialMT" font-size="10.00">email </text>
<text text-anchor="start" x="757.5" y="-692" font-family="Arial ItalicMT" font-size="10.00" fill="#999999">string ∗ U</text>
<text text-anchor="start" x="730.5" y="-679" font-family="ArialMT" font-size="10.00">encrypted_password </text>
<text text-anchor="start" x="824.5" y="-679" font-family="Arial ItalicMT" font-size="10.00" fill="#999999">string ∗</text>
<text text-anchor="start" x="730.5" y="-666" font-family="ArialMT" font-size="10.00">remember_created_at </text>
<text text-anchor="start" x="828.5" y="-666" font-family="Arial ItalicMT" font-size="10.00" fill="#999999">datetime (6,0)</text>
<text text-anchor="start" x="730.5" y="-653" font-family="ArialMT" font-size="10.00">reset_password_sent_at </text>
<text text-anchor="start" x="840.5" y="-653" font-family="Arial ItalicMT" font-size="10.00" fill="#999999">datetime (6,0)</text>
<text text-anchor="start" x="730.5" y="-640" font-family="ArialMT" font-size="10.00">reset_password_token </text>
<text text-anchor="start" x="832.5" y="-640" font-family="Arial ItalicMT" font-size="10.00" fill="#999999">string</text>
</g>
<!-- m_Commune -->
<g id="node6" class="node">
<title>m_Commune</title>
<path fill="none" stroke="black" d="M531,-591.5C531,-591.5 682,-591.5 682,-591.5 688,-591.5 694,-597.5 694,-603.5 694,-603.5 694,-752.5 694,-752.5 694,-758.5 688,-764.5 682,-764.5 682,-764.5 531,-764.5 531,-764.5 525,-764.5 519,-758.5 519,-752.5 519,-752.5 519,-603.5 519,-603.5 519,-597.5 525,-591.5 531,-591.5"/>
<text text-anchor="start" x="579" y="-751.7" font-family="Arial BoldMT" font-size="11.00">Commune</text>
<polyline fill="none" stroke="black" points="519,-744.5 694,-744.5 "/>
<text text-anchor="start" x="526.5" y="-731" font-family="ArialMT" font-size="10.00">code_insee </text>
<text text-anchor="start" x="579.5" y="-731" font-family="Arial ItalicMT" font-size="10.00" fill="#999999">string</text>
<text text-anchor="start" x="526.5" y="-718" font-family="ArialMT" font-size="10.00">completed_at </text>
<text text-anchor="start" x="588.5" y="-718" font-family="Arial ItalicMT" font-size="10.00" fill="#999999">datetime (6,0)</text>
<text text-anchor="start" x="526.5" y="-705" font-family="ArialMT" font-size="10.00">departement </text>
<text text-anchor="start" x="584.5" y="-705" font-family="Arial ItalicMT" font-size="10.00" fill="#999999">string ∗</text>
<text text-anchor="start" x="526.5" y="-692" font-family="ArialMT" font-size="10.00">enrolled_at </text>
<text text-anchor="start" x="577.5" y="-692" font-family="Arial ItalicMT" font-size="10.00" fill="#999999">datetime (6,0)</text>
<text text-anchor="start" x="526.5" y="-679" font-family="ArialMT" font-size="10.00">formulaire_updated_at </text>
<text text-anchor="start" x="626.5" y="-679" font-family="Arial ItalicMT" font-size="10.00" fill="#999999">datetime (6,0)</text>
<text text-anchor="start" x="526.5" y="-666" font-family="ArialMT" font-size="10.00">nom </text>
<text text-anchor="start" x="548.5" y="-666" font-family="Arial ItalicMT" font-size="10.00" fill="#999999">string</text>
<text text-anchor="start" x="526.5" y="-653" font-family="ArialMT" font-size="10.00">notes_from_enrollment </text>
<text text-anchor="start" x="629.5" y="-653" font-family="Arial ItalicMT" font-size="10.00" fill="#999999">string</text>
<text text-anchor="start" x="526.5" y="-640" font-family="ArialMT" font-size="10.00">phone_number </text>
<text text-anchor="start" x="593.5" y="-640" font-family="Arial ItalicMT" font-size="10.00" fill="#999999">string</text>
<text text-anchor="start" x="526.5" y="-627" font-family="ArialMT" font-size="10.00">recensement_ratio </text>
<text text-anchor="start" x="610.5" y="-627" font-family="Arial ItalicMT" font-size="10.00" fill="#999999">integer</text>
<text text-anchor="start" x="526.5" y="-614" font-family="ArialMT" font-size="10.00">started_at </text>
<text text-anchor="start" x="573.5" y="-614" font-family="Arial ItalicMT" font-size="10.00" fill="#999999">datetime (6,0)</text>
<text text-anchor="start" x="526.5" y="-601" font-family="ArialMT" font-size="10.00">status </text>
<text text-anchor="start" x="557.5" y="-601" font-family="Arial ItalicMT" font-size="10.00" fill="#999999">string ∗</text>
</g>
<!-- m_Commune&#45;&gt;m_ActiveStorage::Attachment -->
<g id="edge4" class="edge">
<title>m_Commune&#45;&gt;m_ActiveStorage::Attachment</title>
<path fill="none" stroke="black" d="M694.2,-598.59C698.9,-595.82 703.68,-593.27 708.5,-591 789.83,-552.74 849.88,-623.98 907.5,-555 968.19,-482.35 951.07,-426.05 907.5,-342 807.85,-149.75 539.02,-71.39 402.87,-43.28"/>
<polygon fill="black" stroke="black" points="403.15,-40.13 393.7,-41.43 401.9,-46.3 403.15,-40.13"/>
</g>
<!-- m_Commune&#45;&gt;m_ActiveStorage::Blob -->
<g id="edge20" class="edge">
<title>m_Commune&#45;&gt;m_ActiveStorage::Blob</title>
<path fill="none" stroke="black" stroke-dasharray="1,5" d="M518.9,-632.46C488.54,-618.05 453.96,-602.77 421.5,-591 363.12,-569.83 332.67,-596.53 286.5,-555 200.37,-477.52 168.4,-339.34 156.82,-260.33"/>
</g>
<!-- m_Dossier -->
<g id="node8" class="node">
<title>m_Dossier</title>
<path fill="none" stroke="black" d="M313,-388C313,-388 434,-388 434,-388 440,-388 446,-394 446,-400 446,-400 446,-497 446,-497 446,-503 440,-509 434,-509 434,-509 313,-509 313,-509 307,-509 301,-503 301,-497 301,-497 301,-400 301,-400 301,-394 307,-388 313,-388"/>
<text text-anchor="start" x="353" y="-496.2" font-family="Arial BoldMT" font-size="11.00">Dossier</text>
<polyline fill="none" stroke="black" points="301,-489 446,-489 "/>
<text text-anchor="start" x="308.5" y="-475.5" font-family="ArialMT" font-size="10.00">accepted_at </text>
<text text-anchor="start" x="365.5" y="-475.5" font-family="Arial ItalicMT" font-size="10.00" fill="#999999">datetime (6,0)</text>
<text text-anchor="start" x="308.5" y="-462.5" font-family="ArialMT" font-size="10.00">notes_commune </text>
<text text-anchor="start" x="384.5" y="-462.5" font-family="Arial ItalicMT" font-size="10.00" fill="#999999">string</text>
<text text-anchor="start" x="308.5" y="-449.5" font-family="ArialMT" font-size="10.00">notes_conservateur </text>
<text text-anchor="start" x="397.5" y="-449.5" font-family="Arial ItalicMT" font-size="10.00" fill="#999999">string</text>
<text text-anchor="start" x="308.5" y="-436.5" font-family="ArialMT" font-size="10.00">pdf_updated_at </text>
<text text-anchor="start" x="378.5" y="-436.5" font-family="Arial ItalicMT" font-size="10.00" fill="#999999">datetime (6,0)</text>
<text text-anchor="start" x="308.5" y="-423.5" font-family="ArialMT" font-size="10.00">rejected_at </text>
<text text-anchor="start" x="360.5" y="-423.5" font-family="Arial ItalicMT" font-size="10.00" fill="#999999">datetime (6,0)</text>
<text text-anchor="start" x="308.5" y="-410.5" font-family="ArialMT" font-size="10.00">status </text>
<text text-anchor="start" x="339.5" y="-410.5" font-family="Arial ItalicMT" font-size="10.00" fill="#999999">string ∗</text>
<text text-anchor="start" x="308.5" y="-397.5" font-family="ArialMT" font-size="10.00">submitted_at </text>
<text text-anchor="start" x="368.5" y="-397.5" font-family="Arial ItalicMT" font-size="10.00" fill="#999999">datetime (6,0)</text>
</g>
<!-- m_Commune&#45;&gt;m_Dossier -->
<g id="edge16" class="edge">
<title>m_Commune&#45;&gt;m_Dossier</title>
<path fill="none" stroke="black" d="M518.99,-602.33C501.92,-587.02 484.4,-570.76 468.5,-555 456.13,-542.74 443.34,-529.21 431.32,-516.04"/>
<polygon fill="black" stroke="black" points="433.49,-513.74 425.11,-509.19 428.82,-517.98 433.49,-513.74"/>
</g>
<!-- m_Objet -->
<g id="node9" class="node">
<title>m_Objet</title>
<path fill="none" stroke="black" d="M546.5,-349C546.5,-349 666.5,-349 666.5,-349 672.5,-349 678.5,-355 678.5,-361 678.5,-361 678.5,-536 678.5,-536 678.5,-542 672.5,-548 666.5,-548 666.5,-548 546.5,-548 546.5,-548 540.5,-548 534.5,-542 534.5,-536 534.5,-536 534.5,-361 534.5,-361 534.5,-355 540.5,-349 546.5,-349"/>
<text text-anchor="start" x="591.5" y="-535.2" font-family="Arial BoldMT" font-size="11.00">Objet</text>
<polyline fill="none" stroke="black" points="534.5,-528 678.5,-528 "/>
<text text-anchor="start" x="541.5" y="-514.5" font-family="ArialMT" font-size="10.00">image_urls </text>
<text text-anchor="start" x="592.5" y="-514.5" font-family="Arial ItalicMT" font-size="10.00" fill="#999999">string</text>
<text text-anchor="start" x="541.5" y="-501.5" font-family="ArialMT" font-size="10.00">memoire_REF </text>
<text text-anchor="start" x="608.5" y="-501.5" font-family="Arial ItalicMT" font-size="10.00" fill="#999999">string</text>
<text text-anchor="start" x="541.5" y="-488.5" font-family="ArialMT" font-size="10.00">palissy_CATE </text>
<text text-anchor="start" x="607.5" y="-488.5" font-family="Arial ItalicMT" font-size="10.00" fill="#999999">string</text>
<text text-anchor="start" x="541.5" y="-475.5" font-family="ArialMT" font-size="10.00">palissy_COM </text>
<text text-anchor="start" x="604.5" y="-475.5" font-family="Arial ItalicMT" font-size="10.00" fill="#999999">string</text>
<text text-anchor="start" x="541.5" y="-462.5" font-family="ArialMT" font-size="10.00">palissy_DENO </text>
<text text-anchor="start" x="610.5" y="-462.5" font-family="Arial ItalicMT" font-size="10.00" fill="#999999">string</text>
<text text-anchor="start" x="541.5" y="-449.5" font-family="ArialMT" font-size="10.00">palissy_DENQ </text>
<text text-anchor="start" x="610.5" y="-449.5" font-family="Arial ItalicMT" font-size="10.00" fill="#999999">datetime (6,0)</text>
<text text-anchor="start" x="541.5" y="-436.5" font-family="ArialMT" font-size="10.00">palissy_DOSS </text>
<text text-anchor="start" x="609.5" y="-436.5" font-family="Arial ItalicMT" font-size="10.00" fill="#999999">string</text>
<text text-anchor="start" x="541.5" y="-423.5" font-family="ArialMT" font-size="10.00">palissy_DPT </text>
<text text-anchor="start" x="601.5" y="-423.5" font-family="Arial ItalicMT" font-size="10.00" fill="#999999">string</text>
<text text-anchor="start" x="541.5" y="-410.5" font-family="ArialMT" font-size="10.00">palissy_EDIF </text>
<text text-anchor="start" x="604.5" y="-410.5" font-family="Arial ItalicMT" font-size="10.00" fill="#999999">string</text>
<text text-anchor="start" x="541.5" y="-397.5" font-family="ArialMT" font-size="10.00">palissy_EMPL </text>
<text text-anchor="start" x="607.5" y="-397.5" font-family="Arial ItalicMT" font-size="10.00" fill="#999999">string</text>
<text text-anchor="start" x="541.5" y="-384.5" font-family="ArialMT" font-size="10.00">palissy_REF </text>
<text text-anchor="start" x="601.5" y="-384.5" font-family="Arial ItalicMT" font-size="10.00" fill="#999999">string</text>
<text text-anchor="start" x="541.5" y="-371.5" font-family="ArialMT" font-size="10.00">palissy_SCLE </text>
<text text-anchor="start" x="607.5" y="-371.5" font-family="Arial ItalicMT" font-size="10.00" fill="#999999">string</text>
<text text-anchor="start" x="541.5" y="-358.5" font-family="ArialMT" font-size="10.00">palissy_TICO </text>
<text text-anchor="start" x="605.5" y="-358.5" font-family="Arial ItalicMT" font-size="10.00" fill="#999999">string</text>
</g>
<!-- m_Commune&#45;&gt;m_Objet -->
<g id="edge15" class="edge">
<title>m_Commune&#45;&gt;m_Objet</title>
<path fill="none" stroke="black" d="M606.5,-591.32C606.5,-580.18 606.5,-568.67 606.5,-557.24"/>
<polygon fill="black" stroke="black" points="609.65,-557.1 606.5,-548.1 603.35,-557.1 609.65,-557.1"/>
</g>
<!-- m_Recensement -->
<g id="node10" class="node">
<title>m_Recensement</title>
<path fill="none" stroke="black" d="M377.5,-93.5C377.5,-93.5 527.5,-93.5 527.5,-93.5 533.5,-93.5 539.5,-99.5 539.5,-105.5 539.5,-105.5 539.5,-293.5 539.5,-293.5 539.5,-299.5 533.5,-305.5 527.5,-305.5 527.5,-305.5 377.5,-305.5 377.5,-305.5 371.5,-305.5 365.5,-299.5 365.5,-293.5 365.5,-293.5 365.5,-105.5 365.5,-105.5 365.5,-99.5 371.5,-93.5 377.5,-93.5"/>
<text text-anchor="start" x="417" y="-292.7" font-family="Arial BoldMT" font-size="11.00">Recensement</text>
<polyline fill="none" stroke="black" points="365.5,-285.5 539.5,-285.5 "/>
<text text-anchor="start" x="372.5" y="-272.5" font-family="ArialMT" font-size="10.00">analyse_actions </text>
<text text-anchor="start" x="446.5" y="-272.5" font-family="Arial ItalicMT" font-size="10.00" fill="#999999">string</text>
<text text-anchor="start" x="372.5" y="-259.5" font-family="ArialMT" font-size="10.00">analyse_etat_sanitaire </text>
<text text-anchor="start" x="473.5" y="-259.5" font-family="Arial ItalicMT" font-size="10.00" fill="#999999">string</text>
<text text-anchor="start" x="372.5" y="-246.5" font-family="ArialMT" font-size="10.00">analyse_etat_sanitaire_edifice </text>
<text text-anchor="start" x="507.5" y="-246.5" font-family="Arial ItalicMT" font-size="10.00" fill="#999999">string</text>
<text text-anchor="start" x="372.5" y="-233.5" font-family="ArialMT" font-size="10.00">analyse_fiches </text>
<text text-anchor="start" x="441.5" y="-233.5" font-family="Arial ItalicMT" font-size="10.00" fill="#999999">string</text>
<text text-anchor="start" x="372.5" y="-220.5" font-family="ArialMT" font-size="10.00">analyse_notes </text>
<text text-anchor="start" x="439.5" y="-220.5" font-family="Arial ItalicMT" font-size="10.00" fill="#999999">text</text>
<text text-anchor="start" x="372.5" y="-207.5" font-family="ArialMT" font-size="10.00">analyse_securisation </text>
<text text-anchor="start" x="467.5" y="-207.5" font-family="Arial ItalicMT" font-size="10.00" fill="#999999">string</text>
<text text-anchor="start" x="372.5" y="-194.5" font-family="ArialMT" font-size="10.00">analysed_at </text>
<text text-anchor="start" x="428.5" y="-194.5" font-family="Arial ItalicMT" font-size="10.00" fill="#999999">datetime (6,0)</text>
<text text-anchor="start" x="372.5" y="-181.5" font-family="ArialMT" font-size="10.00">edifice_nom </text>
<text text-anchor="start" x="428.5" y="-181.5" font-family="Arial ItalicMT" font-size="10.00" fill="#999999">string ∗</text>
<text text-anchor="start" x="372.5" y="-168.5" font-family="ArialMT" font-size="10.00">etat_sanitaire </text>
<text text-anchor="start" x="434.5" y="-168.5" font-family="Arial ItalicMT" font-size="10.00" fill="#999999">string ∗</text>
<text text-anchor="start" x="372.5" y="-155.5" font-family="ArialMT" font-size="10.00">etat_sanitaire_edifice </text>
<text text-anchor="start" x="468.5" y="-155.5" font-family="Arial ItalicMT" font-size="10.00" fill="#999999">string ∗</text>
<text text-anchor="start" x="372.5" y="-142.5" font-family="ArialMT" font-size="10.00">localisation </text>
<text text-anchor="start" x="424.5" y="-142.5" font-family="Arial ItalicMT" font-size="10.00" fill="#999999">string ∗</text>
<text text-anchor="start" x="372.5" y="-129.5" font-family="ArialMT" font-size="10.00">notes </text>
<text text-anchor="start" x="400.5" y="-129.5" font-family="Arial ItalicMT" font-size="10.00" fill="#999999">string</text>
<text text-anchor="start" x="372.5" y="-116.5" font-family="ArialMT" font-size="10.00">recensable </text>
<text text-anchor="start" x="423.5" y="-116.5" font-family="Arial ItalicMT" font-size="10.00" fill="#999999">boolean</text>
<text text-anchor="start" x="372.5" y="-103.5" font-family="ArialMT" font-size="10.00">securisation </text>
<text text-anchor="start" x="428.5" y="-103.5" font-family="Arial ItalicMT" font-size="10.00" fill="#999999">string ∗</text>
</g>
<!-- m_Commune&#45;&gt;m_Recensement -->
<g id="edge19" class="edge">
<title>m_Commune&#45;&gt;m_Recensement</title>
<path fill="none" stroke="black" stroke-dasharray="1,5" d="M539.53,-591.34C532.32,-579.56 525.72,-567.28 520.5,-555 487.95,-478.39 470.87,-385.85 461.97,-314.53"/>
<polygon fill="black" stroke="black" points="465.09,-314.06 460.88,-305.5 458.83,-314.82 465.09,-314.06"/>
</g>
<!-- m_User -->
<g id="node11" class="node">
<title>m_User</title>
<path fill="none" stroke="black" d="M720,-342.5C720,-342.5 881,-342.5 881,-342.5 887,-342.5 893,-348.5 893,-354.5 893,-354.5 893,-542.5 893,-542.5 893,-548.5 887,-554.5 881,-554.5 881,-554.5 720,-554.5 720,-554.5 714,-554.5 708,-548.5 708,-542.5 708,-542.5 708,-354.5 708,-354.5 708,-348.5 714,-342.5 720,-342.5"/>
<text text-anchor="start" x="786.5" y="-541.7" font-family="Arial BoldMT" font-size="11.00">User</text>
<polyline fill="none" stroke="black" points="708,-534.5 893,-534.5 "/>
<text text-anchor="start" x="715.5" y="-521.5" font-family="ArialMT" font-size="10.00">email </text>
<text text-anchor="start" x="742.5" y="-521.5" font-family="Arial ItalicMT" font-size="10.00" fill="#999999">string ∗ U</text>
<text text-anchor="start" x="715.5" y="-508.5" font-family="ArialMT" font-size="10.00">email_personal </text>
<text text-anchor="start" x="784.5" y="-508.5" font-family="Arial ItalicMT" font-size="10.00" fill="#999999">string</text>
<text text-anchor="start" x="715.5" y="-495.5" font-family="ArialMT" font-size="10.00">encrypted_password </text>
<text text-anchor="start" x="809.5" y="-495.5" font-family="Arial ItalicMT" font-size="10.00" fill="#999999">string ∗</text>
<text text-anchor="start" x="715.5" y="-482.5" font-family="ArialMT" font-size="10.00">job_title </text>
<text text-anchor="start" x="752.5" y="-482.5" font-family="Arial ItalicMT" font-size="10.00" fill="#999999">string</text>
<text text-anchor="start" x="715.5" y="-469.5" font-family="ArialMT" font-size="10.00">last_sign_in_at </text>
<text text-anchor="start" x="784.5" y="-469.5" font-family="Arial ItalicMT" font-size="10.00" fill="#999999">datetime (6,0)</text>
<text text-anchor="start" x="715.5" y="-456.5" font-family="ArialMT" font-size="10.00">login_token </text>
<text text-anchor="start" x="768.5" y="-456.5" font-family="Arial ItalicMT" font-size="10.00" fill="#999999">string</text>
<text text-anchor="start" x="715.5" y="-443.5" font-family="ArialMT" font-size="10.00">login_token_valid_until </text>
<text text-anchor="start" x="817.5" y="-443.5" font-family="Arial ItalicMT" font-size="10.00" fill="#999999">datetime (6,0)</text>
<text text-anchor="start" x="715.5" y="-430.5" font-family="ArialMT" font-size="10.00">magic_token </text>
<text text-anchor="start" x="774.5" y="-430.5" font-family="Arial ItalicMT" font-size="10.00" fill="#999999">string</text>
<text text-anchor="start" x="715.5" y="-417.5" font-family="ArialMT" font-size="10.00">nom </text>
<text text-anchor="start" x="737.5" y="-417.5" font-family="Arial ItalicMT" font-size="10.00" fill="#999999">string</text>
<text text-anchor="start" x="715.5" y="-404.5" font-family="ArialMT" font-size="10.00">phone_number </text>
<text text-anchor="start" x="782.5" y="-404.5" font-family="Arial ItalicMT" font-size="10.00" fill="#999999">string</text>
<text text-anchor="start" x="715.5" y="-391.5" font-family="ArialMT" font-size="10.00">remember_created_at </text>
<text text-anchor="start" x="813.5" y="-391.5" font-family="Arial ItalicMT" font-size="10.00" fill="#999999">datetime (6,0)</text>
<text text-anchor="start" x="715.5" y="-378.5" font-family="ArialMT" font-size="10.00">reset_password_sent_at </text>
<text text-anchor="start" x="825.5" y="-378.5" font-family="Arial ItalicMT" font-size="10.00" fill="#999999">datetime (6,0)</text>
<text text-anchor="start" x="715.5" y="-365.5" font-family="ArialMT" font-size="10.00">reset_password_token </text>
<text text-anchor="start" x="817.5" y="-365.5" font-family="Arial ItalicMT" font-size="10.00" fill="#999999">string</text>
<text text-anchor="start" x="715.5" y="-352.5" font-family="ArialMT" font-size="10.00">role </text>
<text text-anchor="start" x="734.5" y="-352.5" font-family="Arial ItalicMT" font-size="10.00" fill="#999999">string ∗</text>
</g>
<!-- m_Commune&#45;&gt;m_User -->
<g id="edge9" class="edge">
<title>m_Commune&#45;&gt;m_User</title>
<path fill="none" stroke="black" d="M679.57,-591.32C687.86,-581.59 696.4,-571.58 704.92,-561.58"/>
<polygon fill="black" stroke="black" points="707.37,-563.56 710.82,-554.67 702.58,-559.47 707.37,-563.56"/>
</g>
<!-- m_Conservateur -->
<g id="node7" class="node">
<title>m_Conservateur</title>
<path fill="none" stroke="black" d="M234,-598C234,-598 395,-598 395,-598 401,-598 407,-604 407,-610 407,-610 407,-746 407,-746 407,-752 401,-758 395,-758 395,-758 234,-758 234,-758 228,-758 222,-752 222,-746 222,-746 222,-610 222,-610 222,-604 228,-598 234,-598"/>
<text text-anchor="start" x="279.5" y="-745.2" font-family="Arial BoldMT" font-size="11.00">Conservateur</text>
<polyline fill="none" stroke="black" points="222,-738 407,-738 "/>
<text text-anchor="start" x="229.5" y="-725" font-family="ArialMT" font-size="10.00">departements </text>
<text text-anchor="start" x="292.5" y="-725" font-family="Arial ItalicMT" font-size="10.00" fill="#999999">string</text>
<text text-anchor="start" x="229.5" y="-712" font-family="ArialMT" font-size="10.00">email </text>
<text text-anchor="start" x="256.5" y="-712" font-family="Arial ItalicMT" font-size="10.00" fill="#999999">string ∗ U</text>
<text text-anchor="start" x="229.5" y="-699" font-family="ArialMT" font-size="10.00">encrypted_password </text>
<text text-anchor="start" x="323.5" y="-699" font-family="Arial ItalicMT" font-size="10.00" fill="#999999">string ∗</text>
<text text-anchor="start" x="229.5" y="-686" font-family="ArialMT" font-size="10.00">first_name </text>
<text text-anchor="start" x="278.5" y="-686" font-family="Arial ItalicMT" font-size="10.00" fill="#999999">string</text>
<text text-anchor="start" x="229.5" y="-673" font-family="ArialMT" font-size="10.00">last_name </text>
<text text-anchor="start" x="278.5" y="-673" font-family="Arial ItalicMT" font-size="10.00" fill="#999999">string</text>
<text text-anchor="start" x="229.5" y="-660" font-family="ArialMT" font-size="10.00">last_sign_in_at </text>
<text text-anchor="start" x="298.5" y="-660" font-family="Arial ItalicMT" font-size="10.00" fill="#999999">datetime (6,0)</text>
<text text-anchor="start" x="229.5" y="-647" font-family="ArialMT" font-size="10.00">phone_number </text>
<text text-anchor="start" x="296.5" y="-647" font-family="Arial ItalicMT" font-size="10.00" fill="#999999">string</text>
<text text-anchor="start" x="229.5" y="-634" font-family="ArialMT" font-size="10.00">remember_created_at </text>
<text text-anchor="start" x="327.5" y="-634" font-family="Arial ItalicMT" font-size="10.00" fill="#999999">datetime (6,0)</text>
<text text-anchor="start" x="229.5" y="-621" font-family="ArialMT" font-size="10.00">reset_password_sent_at </text>
<text text-anchor="start" x="339.5" y="-621" font-family="Arial ItalicMT" font-size="10.00" fill="#999999">datetime (6,0)</text>
<text text-anchor="start" x="229.5" y="-608" font-family="ArialMT" font-size="10.00">reset_password_token </text>
<text text-anchor="start" x="331.5" y="-608" font-family="Arial ItalicMT" font-size="10.00" fill="#999999">string</text>
</g>
<!-- m_Conservateur&#45;&gt;m_Dossier -->
<g id="edge17" class="edge">
<title>m_Conservateur&#45;&gt;m_Dossier</title>
<path fill="none" stroke="black" d="M335.05,-597.75C341.81,-571.71 349.25,-543.01 355.77,-517.85"/>
<polygon fill="black" stroke="black" points="358.83,-518.61 358.04,-509.11 352.73,-517.03 358.83,-518.61"/>
</g>
<!-- m_Conservateur&#45;&gt;m_Recensement -->
<g id="edge10" class="edge">
<title>m_Conservateur&#45;&gt;m_Recensement</title>
<path fill="none" stroke="black" d="M286.47,-597.67C266.44,-527.24 249.02,-423.21 286.5,-342 301.94,-308.56 329.6,-280.11 357.98,-257.67"/>
<polygon fill="black" stroke="black" points="360,-260.09 365.2,-252.1 356.15,-255.11 360,-260.09"/>
</g>
<!-- m_Dossier&#45;&gt;m_ActiveStorage::Attachment -->
<g id="edge5" class="edge">
<title>m_Dossier&#45;&gt;m_ActiveStorage::Attachment</title>
<path fill="none" stroke="black" d="M363.01,-387.71C358.8,-362.53 354.09,-332.89 350.5,-306 339.01,-220.02 329.36,-118.5 324.63,-65.62"/>
<polygon fill="black" stroke="black" points="327.77,-65.33 323.83,-56.64 321.49,-65.88 327.77,-65.33"/>
</g>
<!-- m_Dossier&#45;&gt;m_ActiveStorage::Blob -->
<g id="edge18" class="edge">
<title>m_Dossier&#45;&gt;m_ActiveStorage::Blob</title>
<path fill="none" stroke="black" stroke-dasharray="1,5" d="M319.52,-387.71C284.59,-349.02 239.28,-298.84 204.37,-260.17"/>
</g>
<!-- m_Dossier&#45;&gt;m_Recensement -->
<g id="edge13" class="edge">
<title>m_Dossier&#45;&gt;m_Recensement</title>
<path fill="none" stroke="black" d="M392.62,-387.71C399.72,-365.52 408.03,-339.55 416.15,-314.14"/>
<polygon fill="black" stroke="black" points="419.16,-315.08 418.9,-305.55 413.16,-313.16 419.16,-315.08"/>
</g>
<!-- m_Objet&#45;&gt;m_Recensement -->
<g id="edge11" class="edge">
<title>m_Objet&#45;&gt;m_Recensement</title>
<path fill="none" stroke="black" d="M544.97,-348.81C537.69,-337.13 530.21,-325.14 522.81,-313.28"/>
<polygon fill="black" stroke="black" points="525.4,-311.48 517.97,-305.51 520.06,-314.81 525.4,-311.48"/>
</g>
<!-- m_Recensement&#45;&gt;m_ActiveStorage::Attachment -->
<g id="edge6" class="edge">
<title>m_Recensement&#45;&gt;m_ActiveStorage::Attachment</title>
<path fill="none" stroke="black" d="M371.03,-93.39C362.9,-82.9 355.12,-72.87 348.23,-63.98"/>
<polygon fill="black" stroke="black" points="350.67,-61.99 342.67,-56.81 345.69,-65.85 350.67,-61.99"/>
</g>
<!-- m_User&#45;&gt;m_Recensement -->
<g id="edge12" class="edge">
<title>m_User&#45;&gt;m_Recensement</title>
<path fill="none" stroke="black" d="M707.76,-353.48C703.03,-349.5 698.26,-345.65 693.5,-342 648.2,-307.23 593.62,-274.53 547.87,-249.34"/>
<polygon fill="black" stroke="black" points="549.13,-246.44 539.73,-244.88 546.11,-251.97 549.13,-246.44"/>
</g>
</g>
</svg>
