<?xml version="1.0" encoding="UTF-8" standalone="no"?>
<!DOCTYPE svg PUBLIC "-//W3C//DTD SVG 1.1//EN"
 "http://www.w3.org/Graphics/SVG/1.1/DTD/svg11.dtd">
<!-- Generated by graphviz version 5.0.1 (20220820.1526)
 -->
<!-- Title: CollectifObjets Pages: 1 -->
<svg width="1233pt" height="1044pt"
 viewBox="0.00 0.00 1233.41 1043.60" xmlns="http://www.w3.org/2000/svg" xmlns:xlink="http://www.w3.org/1999/xlink">
<g id="graph0" class="graph" transform="scale(1 1) rotate(0) translate(28.8 1014.8)">
<title>CollectifObjets</title>
<polygon fill="white" stroke="none" points="-28.8,28.8 -28.8,-1014.8 1204.61,-1014.8 1204.61,28.8 -28.8,28.8"/>
<text text-anchor="middle" x="587.9" y="-971.6" font-family="Arial BoldMT" font-size="13.00">Collectif Objets Database Schema</text>
<!-- m_ActiveAdmin::Comment -->
<g id="node1" class="node">
<title>m_ActiveAdmin::Comment</title>
<path fill="none" stroke="black" d="M133.31,-821C133.31,-821 253.31,-821 253.31,-821 259.31,-821 265.31,-827 265.31,-833 265.31,-833 265.31,-917 265.31,-917 265.31,-923 259.31,-929 253.31,-929 253.31,-929 133.31,-929 133.31,-929 127.31,-929 121.31,-923 121.31,-917 121.31,-917 121.31,-833 121.31,-833 121.31,-827 127.31,-821 133.31,-821"/>
<text text-anchor="start" x="134.31" y="-916.2" font-family="Arial BoldMT" font-size="11.00">ActiveAdmin::Comment</text>
<polyline fill="none" stroke="black" points="121.31,-909 265.31,-909"/>
<text text-anchor="start" x="128.31" y="-896" font-family="ArialMT" font-size="10.00">author_id </text>
<text text-anchor="start" x="171.31" y="-896" font-family="Arial ItalicMT" font-size="10.00" fill="#999999">integer (8)</text>
<text text-anchor="start" x="128.31" y="-883" font-family="ArialMT" font-size="10.00">author_type </text>
<text text-anchor="start" x="183.31" y="-883" font-family="Arial ItalicMT" font-size="10.00" fill="#999999">string</text>
<text text-anchor="start" x="128.31" y="-870" font-family="ArialMT" font-size="10.00">body </text>
<text text-anchor="start" x="153.31" y="-870" font-family="Arial ItalicMT" font-size="10.00" fill="#999999">text ∗</text>
<text text-anchor="start" x="128.31" y="-857" font-family="ArialMT" font-size="10.00">namespace </text>
<text text-anchor="start" x="182.31" y="-857" font-family="Arial ItalicMT" font-size="10.00" fill="#999999">string ∗</text>
<text text-anchor="start" x="128.31" y="-844" font-family="ArialMT" font-size="10.00">resource_id </text>
<text text-anchor="start" x="182.31" y="-844" font-family="Arial ItalicMT" font-size="10.00" fill="#999999">integer (8)</text>
<text text-anchor="start" x="128.31" y="-831" font-family="ArialMT" font-size="10.00">resource_type </text>
<text text-anchor="start" x="193.31" y="-831" font-family="Arial ItalicMT" font-size="10.00" fill="#999999">string</text>
</g>
<!-- m_ActiveStorage::Attachment -->
<g id="node2" class="node">
<title>m_ActiveStorage::Attachment</title>
<path fill="none" stroke="black" d="M658.31,-0.5C658.31,-0.5 778.31,-0.5 778.31,-0.5 784.31,-0.5 790.31,-6.5 790.31,-12.5 790.31,-12.5 790.31,-44.5 790.31,-44.5 790.31,-50.5 784.31,-56.5 778.31,-56.5 778.31,-56.5 658.31,-56.5 658.31,-56.5 652.31,-56.5 646.31,-50.5 646.31,-44.5 646.31,-44.5 646.31,-12.5 646.31,-12.5 646.31,-6.5 652.31,-0.5 658.31,-0.5"/>
<text text-anchor="start" x="651.81" y="-43.7" font-family="Arial BoldMT" font-size="11.00">ActiveStorage::Attachment</text>
<polyline fill="none" stroke="black" points="646.31,-36.5 790.31,-36.5"/>
<text text-anchor="start" x="653.31" y="-23.5" font-family="ArialMT" font-size="10.00">name </text>
<text text-anchor="start" x="681.31" y="-23.5" font-family="Arial ItalicMT" font-size="10.00" fill="#999999">string ∗</text>
<text text-anchor="start" x="653.31" y="-10.5" font-family="ArialMT" font-size="10.00">record_type </text>
<text text-anchor="start" x="708.31" y="-10.5" font-family="Arial ItalicMT" font-size="10.00" fill="#999999">string ∗</text>
</g>
<!-- m_ActiveStorage::Blob -->
<g id="node3" class="node">
<title>m_ActiveStorage::Blob</title>
<path fill="none" stroke="black" d="M779.31,-139C779.31,-139 899.31,-139 899.31,-139 905.31,-139 911.31,-145 911.31,-151 911.31,-151 911.31,-248 911.31,-248 911.31,-254 905.31,-260 899.31,-260 899.31,-260 779.31,-260 779.31,-260 773.31,-260 767.31,-254 767.31,-248 767.31,-248 767.31,-151 767.31,-151 767.31,-145 773.31,-139 779.31,-139"/>
<text text-anchor="start" x="789.31" y="-247.2" font-family="Arial BoldMT" font-size="11.00">ActiveStorage::Blob</text>
<polyline fill="none" stroke="black" points="767.31,-240 911.31,-240"/>
<text text-anchor="start" x="774.31" y="-226.5" font-family="ArialMT" font-size="10.00">byte_size </text>
<text text-anchor="start" x="820.31" y="-226.5" font-family="Arial ItalicMT" font-size="10.00" fill="#999999">integer (8) ∗</text>
<text text-anchor="start" x="774.31" y="-213.5" font-family="ArialMT" font-size="10.00">checksum </text>
<text text-anchor="start" x="823.31" y="-213.5" font-family="Arial ItalicMT" font-size="10.00" fill="#999999">string ∗</text>
<text text-anchor="start" x="774.31" y="-200.5" font-family="ArialMT" font-size="10.00">content_type </text>
<text text-anchor="start" x="834.31" y="-200.5" font-family="Arial ItalicMT" font-size="10.00" fill="#999999">string</text>
<text text-anchor="start" x="774.31" y="-187.5" font-family="ArialMT" font-size="10.00">filename </text>
<text text-anchor="start" x="814.31" y="-187.5" font-family="Arial ItalicMT" font-size="10.00" fill="#999999">string ∗</text>
<text text-anchor="start" x="774.31" y="-174.5" font-family="ArialMT" font-size="10.00">key </text>
<text text-anchor="start" x="793.31" y="-174.5" font-family="Arial ItalicMT" font-size="10.00" fill="#999999">string ∗</text>
<text text-anchor="start" x="774.31" y="-161.5" font-family="ArialMT" font-size="10.00">metadata </text>
<text text-anchor="start" x="818.31" y="-161.5" font-family="Arial ItalicMT" font-size="10.00" fill="#999999">text</text>
<text text-anchor="start" x="774.31" y="-148.5" font-family="ArialMT" font-size="10.00">service_name </text>
<text text-anchor="start" x="838.31" y="-148.5" font-family="Arial ItalicMT" font-size="10.00" fill="#999999">string ∗</text>
</g>
<!-- m_ActiveStorage::Blob&#45;&gt;m_ActiveStorage::Attachment -->
<g id="edge2" class="edge">
<title>m_ActiveStorage::Blob&#45;&gt;m_ActiveStorage::Attachment</title>
<path fill="none" stroke="black" d="M796.65,-138.92C778.83,-114.03 758.75,-85.98 743.38,-64.52"/>
<polygon fill="black" stroke="black" points="745.74,-62.41 737.94,-56.92 740.62,-66.07 745.74,-62.41"/>
</g>
<!-- m_ActiveStorage::Blob&#45;&gt;m_ActiveStorage::Blob -->
<g id="edge6" class="edge">
<title>m_ActiveStorage::Blob&#45;&gt;m_ActiveStorage::Blob</title>
<path fill="none" stroke="black" stroke-dasharray="1,5" d="M911.48,-230.67C928.1,-227.99 940.31,-217.6 940.31,-199.5 940.31,-181.4 928.1,-171.01 911.48,-168.33"/>
</g>
<!-- m_ActiveStorage::VariantRecord -->
<g id="node4" class="node">
<title>m_ActiveStorage::VariantRecord</title>
<path fill="none" stroke="black" d="M774.81,-427C774.81,-427 903.81,-427 903.81,-427 909.81,-427 915.81,-433 915.81,-439 915.81,-439 915.81,-458 915.81,-458 915.81,-464 909.81,-470 903.81,-470 903.81,-470 774.81,-470 774.81,-470 768.81,-470 762.81,-464 762.81,-458 762.81,-458 762.81,-439 762.81,-439 762.81,-433 768.81,-427 774.81,-427"/>
<text text-anchor="start" x="768.31" y="-457.2" font-family="Arial BoldMT" font-size="11.00">ActiveStorage::VariantRecord</text>
<polyline fill="none" stroke="black" points="762.81,-450 915.81,-450"/>
<text text-anchor="start" x="774.31" y="-436.5" font-family="ArialMT" font-size="10.00">variation_digest </text>
<text text-anchor="start" x="846.31" y="-436.5" font-family="Arial ItalicMT" font-size="10.00" fill="#999999">string ∗</text>
</g>
<!-- m_ActiveStorage::VariantRecord&#45;&gt;m_ActiveStorage::Attachment -->
<g id="edge3" class="edge">
<title>m_ActiveStorage::VariantRecord&#45;&gt;m_ActiveStorage::Attachment</title>
<path fill="none" stroke="black" d="M823.16,-426.93C792.8,-386.41 729.29,-292.24 718.31,-200.5"/>
</g>
<!-- m_ActiveStorage::VariantRecord&#45;&gt;m_ActiveStorage::Blob -->
<g id="edge1" class="edge">
<title>m_ActiveStorage::VariantRecord&#45;&gt;m_ActiveStorage::Blob</title>
<path fill="none" stroke="black" d="M839.31,-426.87C839.31,-392.56 839.31,-322.31 839.31,-269.11"/>
<polygon fill="black" stroke="black" points="842.46,-269.06 839.31,-260.06 836.16,-269.06 842.46,-269.06"/>
</g>
<!-- m_AdminUser -->
<g id="node5" class="node">
<title>m_AdminUser</title>
<path fill="none" stroke="black" d="M694.81,-827.5C694.81,-827.5 855.81,-827.5 855.81,-827.5 861.81,-827.5 867.81,-833.5 867.81,-839.5 867.81,-839.5 867.81,-910.5 867.81,-910.5 867.81,-916.5 861.81,-922.5 855.81,-922.5 855.81,-922.5 694.81,-922.5 694.81,-922.5 688.81,-922.5 682.81,-916.5 682.81,-910.5 682.81,-910.5 682.81,-839.5 682.81,-839.5 682.81,-833.5 688.81,-827.5 694.81,-827.5"/>
<text text-anchor="start" x="745.81" y="-909.7" font-family="Arial BoldMT" font-size="11.00">AdminUser</text>
<polyline fill="none" stroke="black" points="682.81,-902.5 867.81,-902.5"/>
<text text-anchor="start" x="690.31" y="-889" font-family="ArialMT" font-size="10.00">email </text>
<text text-anchor="start" x="717.31" y="-889" font-family="Arial ItalicMT" font-size="10.00" fill="#999999">string ∗ U</text>
<text text-anchor="start" x="690.31" y="-876" font-family="ArialMT" font-size="10.00">encrypted_password </text>
<text text-anchor="start" x="784.31" y="-876" font-family="Arial ItalicMT" font-size="10.00" fill="#999999">string ∗</text>
<text text-anchor="start" x="690.31" y="-863" font-family="ArialMT" font-size="10.00">remember_created_at </text>
<text text-anchor="start" x="788.31" y="-863" font-family="Arial ItalicMT" font-size="10.00" fill="#999999">datetime (6,0)</text>
<text text-anchor="start" x="690.31" y="-850" font-family="ArialMT" font-size="10.00">reset_password_sent_at </text>
<text text-anchor="start" x="800.31" y="-850" font-family="Arial ItalicMT" font-size="10.00" fill="#999999">datetime (6,0)</text>
<text text-anchor="start" x="690.31" y="-837" font-family="ArialMT" font-size="10.00">reset_password_token </text>
<text text-anchor="start" x="792.31" y="-837" font-family="Arial ItalicMT" font-size="10.00" fill="#999999">string</text>
</g>
<!-- m_Campaign -->
<g id="node6" class="node">
<title>m_Campaign</title>
<path fill="none" stroke="black" d="M863.31,-591.5C863.31,-591.5 983.31,-591.5 983.31,-591.5 989.31,-591.5 995.31,-597.5 995.31,-603.5 995.31,-603.5 995.31,-752.5 995.31,-752.5 995.31,-758.5 989.31,-764.5 983.31,-764.5 983.31,-764.5 863.31,-764.5 863.31,-764.5 857.31,-764.5 851.31,-758.5 851.31,-752.5 851.31,-752.5 851.31,-603.5 851.31,-603.5 851.31,-597.5 857.31,-591.5 863.31,-591.5"/>
<text text-anchor="start" x="896.31" y="-751.7" font-family="Arial BoldMT" font-size="11.00">Campaign</text>
<polyline fill="none" stroke="black" points="851.31,-744.5 995.31,-744.5"/>
<text text-anchor="start" x="858.31" y="-731" font-family="ArialMT" font-size="10.00">date_fin </text>
<text text-anchor="start" x="896.31" y="-731" font-family="Arial ItalicMT" font-size="10.00" fill="#999999">date ∗</text>
<text text-anchor="start" x="858.31" y="-718" font-family="ArialMT" font-size="10.00">date_lancement </text>
<text text-anchor="start" x="931.31" y="-718" font-family="Arial ItalicMT" font-size="10.00" fill="#999999">date ∗</text>
<text text-anchor="start" x="858.31" y="-705" font-family="ArialMT" font-size="10.00">date_rappel1 </text>
<text text-anchor="start" x="917.31" y="-705" font-family="Arial ItalicMT" font-size="10.00" fill="#999999">date ∗</text>
<text text-anchor="start" x="858.31" y="-692" font-family="ArialMT" font-size="10.00">date_rappel2 </text>
<text text-anchor="start" x="917.31" y="-692" font-family="Arial ItalicMT" font-size="10.00" fill="#999999">date ∗</text>
<text text-anchor="start" x="858.31" y="-679" font-family="ArialMT" font-size="10.00">date_rappel3 </text>
<text text-anchor="start" x="917.31" y="-679" font-family="Arial ItalicMT" font-size="10.00" fill="#999999">date ∗</text>
<text text-anchor="start" x="858.31" y="-666" font-family="ArialMT" font-size="10.00">imported </text>
<text text-anchor="start" x="899.31" y="-666" font-family="Arial ItalicMT" font-size="10.00" fill="#999999">boolean</text>
<text text-anchor="start" x="858.31" y="-653" font-family="ArialMT" font-size="10.00">nom_drac </text>
<text text-anchor="start" x="904.31" y="-653" font-family="Arial ItalicMT" font-size="10.00" fill="#999999">string ∗</text>
<text text-anchor="start" x="858.31" y="-640" font-family="ArialMT" font-size="10.00">sender_name </text>
<text text-anchor="start" x="920.31" y="-640" font-family="Arial ItalicMT" font-size="10.00" fill="#999999">string ∗</text>
<text text-anchor="start" x="858.31" y="-627" font-family="ArialMT" font-size="10.00">signature </text>
<text text-anchor="start" x="901.31" y="-627" font-family="Arial ItalicMT" font-size="10.00" fill="#999999">string ∗</text>
<text text-anchor="start" x="858.31" y="-614" font-family="ArialMT" font-size="10.00">stats </text>
<text text-anchor="start" x="883.31" y="-614" font-family="Arial ItalicMT" font-size="10.00" fill="#999999">json</text>
<text text-anchor="start" x="858.31" y="-601" font-family="ArialMT" font-size="10.00">status </text>
<text text-anchor="start" x="889.31" y="-601" font-family="Arial ItalicMT" font-size="10.00" fill="#999999">string ∗</text>
</g>
<!-- m_CampaignEmail -->
<g id="node7" class="node">
<title>m_CampaignEmail</title>
<path fill="none" stroke="black" d="M988.81,-100C988.81,-100 1163.81,-100 1163.81,-100 1169.81,-100 1175.81,-106 1175.81,-112 1175.81,-112 1175.81,-287 1175.81,-287 1175.81,-293 1169.81,-299 1163.81,-299 1163.81,-299 988.81,-299 988.81,-299 982.81,-299 976.81,-293 976.81,-287 976.81,-287 976.81,-112 976.81,-112 976.81,-106 982.81,-100 988.81,-100"/>
<text text-anchor="start" x="1035.81" y="-286.2" font-family="Arial BoldMT" font-size="11.00">CampaignEmail</text>
<polyline fill="none" stroke="black" points="976.81,-279 1175.81,-279"/>
<text text-anchor="start" x="984.31" y="-265.5" font-family="ArialMT" font-size="10.00">clicked </text>
<text text-anchor="start" x="1018.31" y="-265.5" font-family="Arial ItalicMT" font-size="10.00" fill="#999999">boolean</text>
<text text-anchor="start" x="984.31" y="-252.5" font-family="ArialMT" font-size="10.00">delivered </text>
<text text-anchor="start" x="1027.31" y="-252.5" font-family="Arial ItalicMT" font-size="10.00" fill="#999999">boolean</text>
<text text-anchor="start" x="984.31" y="-239.5" font-family="ArialMT" font-size="10.00">error </text>
<text text-anchor="start" x="1007.31" y="-239.5" font-family="Arial ItalicMT" font-size="10.00" fill="#999999">string</text>
<text text-anchor="start" x="984.31" y="-226.5" font-family="ArialMT" font-size="10.00">error_reason </text>
<text text-anchor="start" x="1042.31" y="-226.5" font-family="Arial ItalicMT" font-size="10.00" fill="#999999">string</text>
<text text-anchor="start" x="984.31" y="-213.5" font-family="ArialMT" font-size="10.00">headers </text>
<text text-anchor="start" x="1022.31" y="-213.5" font-family="Arial ItalicMT" font-size="10.00" fill="#999999">json</text>
<text text-anchor="start" x="984.31" y="-200.5" font-family="ArialMT" font-size="10.00">last_sib_synchronization_at </text>
<text text-anchor="start" x="1108.31" y="-200.5" font-family="Arial ItalicMT" font-size="10.00" fill="#999999">datetime (6,0)</text>
<text text-anchor="start" x="984.31" y="-187.5" font-family="ArialMT" font-size="10.00">opened </text>
<text text-anchor="start" x="1019.31" y="-187.5" font-family="Arial ItalicMT" font-size="10.00" fill="#999999">boolean</text>
<text text-anchor="start" x="984.31" y="-174.5" font-family="ArialMT" font-size="10.00">raw_html </text>
<text text-anchor="start" x="1027.31" y="-174.5" font-family="Arial ItalicMT" font-size="10.00" fill="#999999">string</text>
<text text-anchor="start" x="984.31" y="-161.5" font-family="ArialMT" font-size="10.00">sent </text>
<text text-anchor="start" x="1006.31" y="-161.5" font-family="Arial ItalicMT" font-size="10.00" fill="#999999">boolean</text>
<text text-anchor="start" x="984.31" y="-148.5" font-family="ArialMT" font-size="10.00">sib_events </text>
<text text-anchor="start" x="1035.31" y="-148.5" font-family="Arial ItalicMT" font-size="10.00" fill="#999999">json</text>
<text text-anchor="start" x="984.31" y="-135.5" font-family="ArialMT" font-size="10.00">sib_message_id </text>
<text text-anchor="start" x="1058.31" y="-135.5" font-family="Arial ItalicMT" font-size="10.00" fill="#999999">string</text>
<text text-anchor="start" x="984.31" y="-122.5" font-family="ArialMT" font-size="10.00">step </text>
<text text-anchor="start" x="1006.31" y="-122.5" font-family="Arial ItalicMT" font-size="10.00" fill="#999999">string</text>
<text text-anchor="start" x="984.31" y="-109.5" font-family="ArialMT" font-size="10.00">subject </text>
<text text-anchor="start" x="1019.31" y="-109.5" font-family="Arial ItalicMT" font-size="10.00" fill="#999999">string</text>
</g>
<!-- m_Campaign&#45;&gt;m_CampaignEmail -->
<g id="edge16" class="edge">
<title>m_Campaign&#45;&gt;m_CampaignEmail</title>
<path fill="none" stroke="black" stroke-dasharray="1,5" d="M851.08,-647.41C803.97,-629.03 740.77,-606.12 683.31,-591 637.73,-579.01 504.67,-591.04 474.31,-555 413.31,-482.6 409.98,-411.45 474.31,-342 545.49,-265.15 846.85,-344.4 944.31,-306 952.6,-302.73 960.78,-298.76 968.76,-294.28"/>
<polygon fill="black" stroke="black" points="970.5,-296.92 976.67,-289.65 967.32,-291.48 970.5,-296.92"/>
</g>
<!-- m_CampaignRecipient -->
<g id="node8" class="node">
<title>m_CampaignRecipient</title>
<path fill="none" stroke="black" d="M1016.31,-414C1016.31,-414 1136.31,-414 1136.31,-414 1142.31,-414 1148.31,-420 1148.31,-426 1148.31,-426 1148.31,-471 1148.31,-471 1148.31,-477 1142.31,-483 1136.31,-483 1136.31,-483 1016.31,-483 1016.31,-483 1010.31,-483 1004.31,-477 1004.31,-471 1004.31,-471 1004.31,-426 1004.31,-426 1004.31,-420 1010.31,-414 1016.31,-414"/>
<text text-anchor="start" x="1026.81" y="-470.2" font-family="Arial BoldMT" font-size="11.00">CampaignRecipient</text>
<polyline fill="none" stroke="black" points="1004.31,-463 1148.31,-463"/>
<text text-anchor="start" x="1011.31" y="-449.5" font-family="ArialMT" font-size="10.00">current_step </text>
<text text-anchor="start" x="1069.31" y="-449.5" font-family="Arial ItalicMT" font-size="10.00" fill="#999999">string</text>
<text text-anchor="start" x="1011.31" y="-436.5" font-family="ArialMT" font-size="10.00">opt_out </text>
<text text-anchor="start" x="1047.31" y="-436.5" font-family="Arial ItalicMT" font-size="10.00" fill="#999999">boolean</text>
<text text-anchor="start" x="1011.31" y="-423.5" font-family="ArialMT" font-size="10.00">opt_out_reason </text>
<text text-anchor="start" x="1081.31" y="-423.5" font-family="Arial ItalicMT" font-size="10.00" fill="#999999">string</text>
</g>
<!-- m_Campaign&#45;&gt;m_CampaignRecipient -->
<g id="edge10" class="edge">
<title>m_Campaign&#45;&gt;m_CampaignRecipient</title>
<path fill="none" stroke="black" d="M980.93,-591.32C1004.08,-556.89 1029.7,-518.81 1048.54,-490.78"/>
<polygon fill="black" stroke="black" points="1051.26,-492.38 1053.67,-483.16 1046.04,-488.87 1051.26,-492.38"/>
</g>
<!-- m_Commune -->
<g id="node9" class="node">
<title>m_Commune</title>
<path fill="none" stroke="black" d="M505.81,-598C505.81,-598 656.81,-598 656.81,-598 662.81,-598 668.81,-604 668.81,-610 668.81,-610 668.81,-746 668.81,-746 668.81,-752 662.81,-758 656.81,-758 656.81,-758 505.81,-758 505.81,-758 499.81,-758 493.81,-752 493.81,-746 493.81,-746 493.81,-610 493.81,-610 493.81,-604 499.81,-598 505.81,-598"/>
<text text-anchor="start" x="553.81" y="-745.2" font-family="Arial BoldMT" font-size="11.00">Commune</text>
<polyline fill="none" stroke="black" points="493.81,-738 668.81,-738"/>
<text text-anchor="start" x="501.31" y="-725" font-family="ArialMT" font-size="10.00">code_insee </text>
<text text-anchor="start" x="554.31" y="-725" font-family="Arial ItalicMT" font-size="10.00" fill="#999999">string</text>
<text text-anchor="start" x="501.31" y="-712" font-family="ArialMT" font-size="10.00">completed_at </text>
<text text-anchor="start" x="563.31" y="-712" font-family="Arial ItalicMT" font-size="10.00" fill="#999999">datetime (6,0)</text>
<text text-anchor="start" x="501.31" y="-699" font-family="ArialMT" font-size="10.00">formulaire_updated_at </text>
<text text-anchor="start" x="601.31" y="-699" font-family="Arial ItalicMT" font-size="10.00" fill="#999999">datetime (6,0)</text>
<text text-anchor="start" x="501.31" y="-686" font-family="ArialMT" font-size="10.00">latitude </text>
<text text-anchor="start" x="536.31" y="-686" font-family="Arial ItalicMT" font-size="10.00" fill="#999999">float</text>
<text text-anchor="start" x="501.31" y="-673" font-family="ArialMT" font-size="10.00">longitude </text>
<text text-anchor="start" x="544.31" y="-673" font-family="Arial ItalicMT" font-size="10.00" fill="#999999">float</text>
<text text-anchor="start" x="501.31" y="-660" font-family="ArialMT" font-size="10.00">nom </text>
<text text-anchor="start" x="523.31" y="-660" font-family="Arial ItalicMT" font-size="10.00" fill="#999999">string</text>
<text text-anchor="start" x="501.31" y="-647" font-family="ArialMT" font-size="10.00">phone_number </text>
<text text-anchor="start" x="568.31" y="-647" font-family="Arial ItalicMT" font-size="10.00" fill="#999999">string</text>
<text text-anchor="start" x="501.31" y="-634" font-family="ArialMT" font-size="10.00">recensement_ratio </text>
<text text-anchor="start" x="585.31" y="-634" font-family="Arial ItalicMT" font-size="10.00" fill="#999999">integer</text>
<text text-anchor="start" x="501.31" y="-621" font-family="ArialMT" font-size="10.00">started_at </text>
<text text-anchor="start" x="548.31" y="-621" font-family="Arial ItalicMT" font-size="10.00" fill="#999999">datetime (6,0)</text>
<text text-anchor="start" x="501.31" y="-608" font-family="ArialMT" font-size="10.00">status </text>
<text text-anchor="start" x="532.31" y="-608" font-family="Arial ItalicMT" font-size="10.00" fill="#999999">string ∗</text>
</g>
<!-- m_Objet -->
<g id="node14" class="node">
<title>m_Objet</title>
<path fill="none" stroke="black" d="M268.31,-349C268.31,-349 388.31,-349 388.31,-349 394.31,-349 400.31,-355 400.31,-361 400.31,-361 400.31,-536 400.31,-536 400.31,-542 394.31,-548 388.31,-548 388.31,-548 268.31,-548 268.31,-548 262.31,-548 256.31,-542 256.31,-536 256.31,-536 256.31,-361 256.31,-361 256.31,-355 262.31,-349 268.31,-349"/>
<text text-anchor="start" x="313.31" y="-535.2" font-family="Arial BoldMT" font-size="11.00">Objet</text>
<polyline fill="none" stroke="black" points="256.31,-528 400.31,-528"/>
<text text-anchor="start" x="263.31" y="-514.5" font-family="ArialMT" font-size="10.00">image_urls </text>
<text text-anchor="start" x="314.31" y="-514.5" font-family="Arial ItalicMT" font-size="10.00" fill="#999999">string</text>
<text text-anchor="start" x="263.31" y="-501.5" font-family="ArialMT" font-size="10.00">memoire_REF </text>
<text text-anchor="start" x="330.31" y="-501.5" font-family="Arial ItalicMT" font-size="10.00" fill="#999999">string</text>
<text text-anchor="start" x="263.31" y="-488.5" font-family="ArialMT" font-size="10.00">palissy_CATE </text>
<text text-anchor="start" x="329.31" y="-488.5" font-family="Arial ItalicMT" font-size="10.00" fill="#999999">string</text>
<text text-anchor="start" x="263.31" y="-475.5" font-family="ArialMT" font-size="10.00">palissy_COM </text>
<text text-anchor="start" x="326.31" y="-475.5" font-family="Arial ItalicMT" font-size="10.00" fill="#999999">string</text>
<text text-anchor="start" x="263.31" y="-462.5" font-family="ArialMT" font-size="10.00">palissy_DENO </text>
<text text-anchor="start" x="332.31" y="-462.5" font-family="Arial ItalicMT" font-size="10.00" fill="#999999">string</text>
<text text-anchor="start" x="263.31" y="-449.5" font-family="ArialMT" font-size="10.00">palissy_DENQ </text>
<text text-anchor="start" x="332.31" y="-449.5" font-family="Arial ItalicMT" font-size="10.00" fill="#999999">datetime (6,0)</text>
<text text-anchor="start" x="263.31" y="-436.5" font-family="ArialMT" font-size="10.00">palissy_DOSS </text>
<text text-anchor="start" x="331.31" y="-436.5" font-family="Arial ItalicMT" font-size="10.00" fill="#999999">string</text>
<text text-anchor="start" x="263.31" y="-423.5" font-family="ArialMT" font-size="10.00">palissy_DPT </text>
<text text-anchor="start" x="323.31" y="-423.5" font-family="Arial ItalicMT" font-size="10.00" fill="#999999">string</text>
<text text-anchor="start" x="263.31" y="-410.5" font-family="ArialMT" font-size="10.00">palissy_EDIF </text>
<text text-anchor="start" x="326.31" y="-410.5" font-family="Arial ItalicMT" font-size="10.00" fill="#999999">string</text>
<text text-anchor="start" x="263.31" y="-397.5" font-family="ArialMT" font-size="10.00">palissy_EMPL </text>
<text text-anchor="start" x="329.31" y="-397.5" font-family="Arial ItalicMT" font-size="10.00" fill="#999999">string</text>
<text text-anchor="start" x="263.31" y="-384.5" font-family="ArialMT" font-size="10.00">palissy_REF </text>
<text text-anchor="start" x="323.31" y="-384.5" font-family="Arial ItalicMT" font-size="10.00" fill="#999999">string</text>
<text text-anchor="start" x="263.31" y="-371.5" font-family="ArialMT" font-size="10.00">palissy_SCLE </text>
<text text-anchor="start" x="329.31" y="-371.5" font-family="Arial ItalicMT" font-size="10.00" fill="#999999">string</text>
<text text-anchor="start" x="263.31" y="-358.5" font-family="ArialMT" font-size="10.00">palissy_TICO </text>
<text text-anchor="start" x="327.31" y="-358.5" font-family="Arial ItalicMT" font-size="10.00" fill="#999999">string</text>
</g>
<!-- m_Campaign&#45;&gt;m_Objet -->
<g id="edge15" class="edge">
<title>m_Campaign&#45;&gt;m_Objet</title>
<path fill="none" stroke="black" stroke-dasharray="1,5" d="M851.25,-646.75C804.2,-628.12 741.02,-605.16 683.31,-591 569.58,-563.1 525.63,-610.11 422.31,-555 417.34,-552.35 412.5,-549.32 407.82,-546.01"/>
<polygon fill="black" stroke="black" points="409.67,-543.47 400.58,-540.59 405.89,-548.51 409.67,-543.47"/>
</g>
<!-- m_CampaignRecipient&#45;&gt;m_CampaignEmail -->
<g id="edge12" class="edge">
<title>m_CampaignRecipient&#45;&gt;m_CampaignEmail</title>
<path fill="none" stroke="black" d="M1076.31,-413.93C1076.31,-386.58 1076.31,-346.37 1076.31,-308.21"/>
<polygon fill="black" stroke="black" points="1079.46,-308.07 1076.31,-299.07 1073.16,-308.07 1079.46,-308.07"/>
</g>
<!-- m_Commune&#45;&gt;m_ActiveStorage::Attachment -->
<g id="edge4" class="edge">
<title>m_Commune&#45;&gt;m_ActiveStorage::Attachment</title>
<path fill="none" stroke="black" d="M662.84,-597.93C672.92,-584.52 681.91,-570.04 688.31,-555 750.2,-409.5 737.11,-357.5 718.31,-200.5"/>
<path fill="none" stroke="black" d="M718.31,-198.5C713.2,-152.92 714.33,-100 715.99,-65.69"/>
<polygon fill="black" stroke="black" points="719.14,-65.68 716.46,-56.53 712.85,-65.36 719.14,-65.68"/>
</g>
<!-- m_Commune&#45;&gt;m_ActiveStorage::Blob -->
<g id="edge31" class="edge">
<title>m_Commune&#45;&gt;m_ActiveStorage::Blob</title>
<path fill="none" stroke="black" stroke-dasharray="1,5" d="M960.31,-447.5C961.69,-378.04 922.42,-307.74 888.25,-260"/>
<path fill="none" stroke="black" stroke-dasharray="1,5" d="M669.18,-647.38C771.02,-612.9 925.6,-560 930.31,-555 963.74,-519.52 959.34,-498.24 960.31,-449.5"/>
</g>
<!-- m_Commune&#45;&gt;m_CampaignRecipient -->
<g id="edge11" class="edge">
<title>m_Commune&#45;&gt;m_CampaignRecipient</title>
<path fill="none" stroke="black" d="M669.02,-645.58C718.19,-628.46 780.82,-607.47 837.31,-591 901.05,-572.41 925.46,-589.32 982.31,-555 1008.91,-538.94 1032.2,-512.94 1048.95,-490.77"/>
<polygon fill="black" stroke="black" points="1051.56,-492.53 1054.37,-483.42 1046.49,-488.79 1051.56,-492.53"/>
</g>
<!-- m_Dossier -->
<g id="node13" class="node">
<title>m_Dossier</title>
<path fill="none" stroke="black" d="M95.31,-394.5C95.31,-394.5 215.31,-394.5 215.31,-394.5 221.31,-394.5 227.31,-400.5 227.31,-406.5 227.31,-406.5 227.31,-490.5 227.31,-490.5 227.31,-496.5 221.31,-502.5 215.31,-502.5 215.31,-502.5 95.31,-502.5 95.31,-502.5 89.31,-502.5 83.31,-496.5 83.31,-490.5 83.31,-490.5 83.31,-406.5 83.31,-406.5 83.31,-400.5 89.31,-394.5 95.31,-394.5"/>
<text text-anchor="start" x="134.81" y="-489.7" font-family="Arial BoldMT" font-size="11.00">Dossier</text>
<polyline fill="none" stroke="black" points="83.31,-482.5 227.31,-482.5"/>
<text text-anchor="start" x="90.31" y="-469.5" font-family="ArialMT" font-size="10.00">accepted_at </text>
<text text-anchor="start" x="147.31" y="-469.5" font-family="Arial ItalicMT" font-size="10.00" fill="#999999">datetime (6,0)</text>
<text text-anchor="start" x="90.31" y="-456.5" font-family="ArialMT" font-size="10.00">notes_commune </text>
<text text-anchor="start" x="166.31" y="-456.5" font-family="Arial ItalicMT" font-size="10.00" fill="#999999">string</text>
<text text-anchor="start" x="90.31" y="-443.5" font-family="ArialMT" font-size="10.00">notes_conservateur </text>
<text text-anchor="start" x="179.31" y="-443.5" font-family="Arial ItalicMT" font-size="10.00" fill="#999999">string</text>
<text text-anchor="start" x="90.31" y="-430.5" font-family="ArialMT" font-size="10.00">rejected_at </text>
<text text-anchor="start" x="142.31" y="-430.5" font-family="Arial ItalicMT" font-size="10.00" fill="#999999">datetime (6,0)</text>
<text text-anchor="start" x="90.31" y="-417.5" font-family="ArialMT" font-size="10.00">status </text>
<text text-anchor="start" x="121.31" y="-417.5" font-family="Arial ItalicMT" font-size="10.00" fill="#999999">string ∗</text>
<text text-anchor="start" x="90.31" y="-404.5" font-family="ArialMT" font-size="10.00">submitted_at </text>
<text text-anchor="start" x="150.31" y="-404.5" font-family="Arial ItalicMT" font-size="10.00" fill="#999999">datetime (6,0)</text>
</g>
<!-- m_Commune&#45;&gt;m_Dossier -->
<g id="edge24" class="edge">
<title>m_Commune&#45;&gt;m_Dossier</title>
<path fill="none" stroke="black" d="M493.59,-600.44C487.6,-596.93 481.48,-593.74 475.31,-591 379.11,-548.37 332.64,-607.26 241.31,-555 222.2,-544.06 205.6,-527.11 192.23,-509.97"/>
<polygon fill="black" stroke="black" points="194.63,-507.92 186.69,-502.63 189.6,-511.71 194.63,-507.92"/>
</g>
<!-- m_Commune&#45;&gt;m_Objet -->
<g id="edge23" class="edge">
<title>m_Commune&#45;&gt;m_Objet</title>
<path fill="none" stroke="black" d="M493.55,-604.86C487.42,-600.11 481.3,-595.45 475.31,-591 452.45,-574.01 443.72,-573.77 422.31,-555 417.12,-550.45 411.94,-545.63 406.82,-540.65"/>
<polygon fill="black" stroke="black" points="408.99,-538.36 400.38,-534.26 404.56,-542.84 408.99,-538.36"/>
</g>
<!-- m_Recensement -->
<g id="node15" class="node">
<title>m_Recensement</title>
<path fill="none" stroke="black" d="M253.31,-93.5C253.31,-93.5 403.31,-93.5 403.31,-93.5 409.31,-93.5 415.31,-99.5 415.31,-105.5 415.31,-105.5 415.31,-293.5 415.31,-293.5 415.31,-299.5 409.31,-305.5 403.31,-305.5 403.31,-305.5 253.31,-305.5 253.31,-305.5 247.31,-305.5 241.31,-299.5 241.31,-293.5 241.31,-293.5 241.31,-105.5 241.31,-105.5 241.31,-99.5 247.31,-93.5 253.31,-93.5"/>
<text text-anchor="start" x="292.81" y="-292.7" font-family="Arial BoldMT" font-size="11.00">Recensement</text>
<polyline fill="none" stroke="black" points="241.31,-285.5 415.31,-285.5"/>
<text text-anchor="start" x="248.31" y="-272.5" font-family="ArialMT" font-size="10.00">analyse_actions </text>
<text text-anchor="start" x="322.31" y="-272.5" font-family="Arial ItalicMT" font-size="10.00" fill="#999999">string</text>
<text text-anchor="start" x="248.31" y="-259.5" font-family="ArialMT" font-size="10.00">analyse_etat_sanitaire </text>
<text text-anchor="start" x="349.31" y="-259.5" font-family="Arial ItalicMT" font-size="10.00" fill="#999999">string</text>
<text text-anchor="start" x="248.31" y="-246.5" font-family="ArialMT" font-size="10.00">analyse_etat_sanitaire_edifice </text>
<text text-anchor="start" x="383.31" y="-246.5" font-family="Arial ItalicMT" font-size="10.00" fill="#999999">string</text>
<text text-anchor="start" x="248.31" y="-233.5" font-family="ArialMT" font-size="10.00">analyse_fiches </text>
<text text-anchor="start" x="317.31" y="-233.5" font-family="Arial ItalicMT" font-size="10.00" fill="#999999">string</text>
<text text-anchor="start" x="248.31" y="-220.5" font-family="ArialMT" font-size="10.00">analyse_notes </text>
<text text-anchor="start" x="315.31" y="-220.5" font-family="Arial ItalicMT" font-size="10.00" fill="#999999">text</text>
<text text-anchor="start" x="248.31" y="-207.5" font-family="ArialMT" font-size="10.00">analyse_securisation </text>
<text text-anchor="start" x="343.31" y="-207.5" font-family="Arial ItalicMT" font-size="10.00" fill="#999999">string</text>
<text text-anchor="start" x="248.31" y="-194.5" font-family="ArialMT" font-size="10.00">analysed_at </text>
<text text-anchor="start" x="304.31" y="-194.5" font-family="Arial ItalicMT" font-size="10.00" fill="#999999">datetime (6,0)</text>
<text text-anchor="start" x="248.31" y="-181.5" font-family="ArialMT" font-size="10.00">edifice_nom </text>
<text text-anchor="start" x="304.31" y="-181.5" font-family="Arial ItalicMT" font-size="10.00" fill="#999999">string ∗</text>
<text text-anchor="start" x="248.31" y="-168.5" font-family="ArialMT" font-size="10.00">etat_sanitaire </text>
<text text-anchor="start" x="310.31" y="-168.5" font-family="Arial ItalicMT" font-size="10.00" fill="#999999">string ∗</text>
<text text-anchor="start" x="248.31" y="-155.5" font-family="ArialMT" font-size="10.00">etat_sanitaire_edifice </text>
<text text-anchor="start" x="344.31" y="-155.5" font-family="Arial ItalicMT" font-size="10.00" fill="#999999">string ∗</text>
<text text-anchor="start" x="248.31" y="-142.5" font-family="ArialMT" font-size="10.00">localisation </text>
<text text-anchor="start" x="300.31" y="-142.5" font-family="Arial ItalicMT" font-size="10.00" fill="#999999">string ∗</text>
<text text-anchor="start" x="248.31" y="-129.5" font-family="ArialMT" font-size="10.00">notes </text>
<text text-anchor="start" x="276.31" y="-129.5" font-family="Arial ItalicMT" font-size="10.00" fill="#999999">string</text>
<text text-anchor="start" x="248.31" y="-116.5" font-family="ArialMT" font-size="10.00">recensable </text>
<text text-anchor="start" x="299.31" y="-116.5" font-family="Arial ItalicMT" font-size="10.00" fill="#999999">boolean</text>
<text text-anchor="start" x="248.31" y="-103.5" font-family="ArialMT" font-size="10.00">securisation </text>
<text text-anchor="start" x="304.31" y="-103.5" font-family="Arial ItalicMT" font-size="10.00" fill="#999999">string ∗</text>
</g>
<!-- m_Commune&#45;&gt;m_Recensement -->
<g id="edge30" class="edge">
<title>m_Commune&#45;&gt;m_Recensement</title>
<path fill="none" stroke="black" stroke-dasharray="1,5" d="M960.31,-447.5C961.28,-398.76 966.85,-374.26 930.31,-342 890.87,-307.18 747.7,-317.27 696.31,-306 602.89,-285.51 498.22,-254.72 424.46,-231.68"/>
<polygon fill="black" stroke="black" points="425.15,-228.6 415.62,-228.91 423.27,-234.61 425.15,-228.6"/>
</g>
<!-- m_User -->
<g id="node16" class="node">
<title>m_User</title>
<path fill="none" stroke="black" d="M500.81,-342.5C500.81,-342.5 661.81,-342.5 661.81,-342.5 667.81,-342.5 673.81,-348.5 673.81,-354.5 673.81,-354.5 673.81,-542.5 673.81,-542.5 673.81,-548.5 667.81,-554.5 661.81,-554.5 661.81,-554.5 500.81,-554.5 500.81,-554.5 494.81,-554.5 488.81,-548.5 488.81,-542.5 488.81,-542.5 488.81,-354.5 488.81,-354.5 488.81,-348.5 494.81,-342.5 500.81,-342.5"/>
<text text-anchor="start" x="567.31" y="-541.7" font-family="Arial BoldMT" font-size="11.00">User</text>
<polyline fill="none" stroke="black" points="488.81,-534.5 673.81,-534.5"/>
<text text-anchor="start" x="496.31" y="-521.5" font-family="ArialMT" font-size="10.00">email </text>
<text text-anchor="start" x="523.31" y="-521.5" font-family="Arial ItalicMT" font-size="10.00" fill="#999999">string ∗ U</text>
<text text-anchor="start" x="496.31" y="-508.5" font-family="ArialMT" font-size="10.00">email_personal </text>
<text text-anchor="start" x="565.31" y="-508.5" font-family="Arial ItalicMT" font-size="10.00" fill="#999999">string</text>
<text text-anchor="start" x="496.31" y="-495.5" font-family="ArialMT" font-size="10.00">encrypted_password </text>
<text text-anchor="start" x="590.31" y="-495.5" font-family="Arial ItalicMT" font-size="10.00" fill="#999999">string ∗</text>
<text text-anchor="start" x="496.31" y="-482.5" font-family="ArialMT" font-size="10.00">job_title </text>
<text text-anchor="start" x="533.31" y="-482.5" font-family="Arial ItalicMT" font-size="10.00" fill="#999999">string</text>
<text text-anchor="start" x="496.31" y="-469.5" font-family="ArialMT" font-size="10.00">last_sign_in_at </text>
<text text-anchor="start" x="565.31" y="-469.5" font-family="Arial ItalicMT" font-size="10.00" fill="#999999">datetime (6,0)</text>
<text text-anchor="start" x="496.31" y="-456.5" font-family="ArialMT" font-size="10.00">login_token </text>
<text text-anchor="start" x="549.31" y="-456.5" font-family="Arial ItalicMT" font-size="10.00" fill="#999999">string</text>
<text text-anchor="start" x="496.31" y="-443.5" font-family="ArialMT" font-size="10.00">login_token_valid_until </text>
<text text-anchor="start" x="598.31" y="-443.5" font-family="Arial ItalicMT" font-size="10.00" fill="#999999">datetime (6,0)</text>
<text text-anchor="start" x="496.31" y="-430.5" font-family="ArialMT" font-size="10.00">magic_token </text>
<text text-anchor="start" x="555.31" y="-430.5" font-family="Arial ItalicMT" font-size="10.00" fill="#999999">string</text>
<text text-anchor="start" x="496.31" y="-417.5" font-family="ArialMT" font-size="10.00">nom </text>
<text text-anchor="start" x="518.31" y="-417.5" font-family="Arial ItalicMT" font-size="10.00" fill="#999999">string</text>
<text text-anchor="start" x="496.31" y="-404.5" font-family="ArialMT" font-size="10.00">phone_number </text>
<text text-anchor="start" x="563.31" y="-404.5" font-family="Arial ItalicMT" font-size="10.00" fill="#999999">string</text>
<text text-anchor="start" x="496.31" y="-391.5" font-family="ArialMT" font-size="10.00">remember_created_at </text>
<text text-anchor="start" x="594.31" y="-391.5" font-family="Arial ItalicMT" font-size="10.00" fill="#999999">datetime (6,0)</text>
<text text-anchor="start" x="496.31" y="-378.5" font-family="ArialMT" font-size="10.00">reset_password_sent_at </text>
<text text-anchor="start" x="606.31" y="-378.5" font-family="Arial ItalicMT" font-size="10.00" fill="#999999">datetime (6,0)</text>
<text text-anchor="start" x="496.31" y="-365.5" font-family="ArialMT" font-size="10.00">reset_password_token </text>
<text text-anchor="start" x="598.31" y="-365.5" font-family="Arial ItalicMT" font-size="10.00" fill="#999999">string</text>
<text text-anchor="start" x="496.31" y="-352.5" font-family="ArialMT" font-size="10.00">role </text>
<text text-anchor="start" x="515.31" y="-352.5" font-family="Arial ItalicMT" font-size="10.00" fill="#999999">string ∗</text>
</g>
<!-- m_Commune&#45;&gt;m_User -->
<g id="edge17" class="edge">
<title>m_Commune&#45;&gt;m_User</title>
<path fill="none" stroke="black" d="M581.31,-597.75C581.31,-586.82 581.31,-575.43 581.31,-564.02"/>
<polygon fill="black" stroke="black" points="584.46,-563.88 581.31,-554.88 578.16,-563.88 584.46,-563.88"/>
</g>
<!-- m_Conservateur -->
<g id="node10" class="node">
<title>m_Conservateur</title>
<path fill="none" stroke="black" d="M306.81,-801.5C306.81,-801.5 467.81,-801.5 467.81,-801.5 473.81,-801.5 479.81,-807.5 479.81,-813.5 479.81,-813.5 479.81,-936.5 479.81,-936.5 479.81,-942.5 473.81,-948.5 467.81,-948.5 467.81,-948.5 306.81,-948.5 306.81,-948.5 300.81,-948.5 294.81,-942.5 294.81,-936.5 294.81,-936.5 294.81,-813.5 294.81,-813.5 294.81,-807.5 300.81,-801.5 306.81,-801.5"/>
<text text-anchor="start" x="352.31" y="-935.7" font-family="Arial BoldMT" font-size="11.00">Conservateur</text>
<polyline fill="none" stroke="black" points="294.81,-928.5 479.81,-928.5"/>
<text text-anchor="start" x="302.31" y="-915" font-family="ArialMT" font-size="10.00">email </text>
<text text-anchor="start" x="329.31" y="-915" font-family="Arial ItalicMT" font-size="10.00" fill="#999999">string ∗ U</text>
<text text-anchor="start" x="302.31" y="-902" font-family="ArialMT" font-size="10.00">encrypted_password </text>
<text text-anchor="start" x="396.31" y="-902" font-family="Arial ItalicMT" font-size="10.00" fill="#999999">string ∗</text>
<text text-anchor="start" x="302.31" y="-889" font-family="ArialMT" font-size="10.00">first_name </text>
<text text-anchor="start" x="351.31" y="-889" font-family="Arial ItalicMT" font-size="10.00" fill="#999999">string</text>
<text text-anchor="start" x="302.31" y="-876" font-family="ArialMT" font-size="10.00">last_name </text>
<text text-anchor="start" x="351.31" y="-876" font-family="Arial ItalicMT" font-size="10.00" fill="#999999">string</text>
<text text-anchor="start" x="302.31" y="-863" font-family="ArialMT" font-size="10.00">last_sign_in_at </text>
<text text-anchor="start" x="371.31" y="-863" font-family="Arial ItalicMT" font-size="10.00" fill="#999999">datetime (6,0)</text>
<text text-anchor="start" x="302.31" y="-850" font-family="ArialMT" font-size="10.00">phone_number </text>
<text text-anchor="start" x="369.31" y="-850" font-family="Arial ItalicMT" font-size="10.00" fill="#999999">string</text>
<text text-anchor="start" x="302.31" y="-837" font-family="ArialMT" font-size="10.00">remember_created_at </text>
<text text-anchor="start" x="400.31" y="-837" font-family="Arial ItalicMT" font-size="10.00" fill="#999999">datetime (6,0)</text>
<text text-anchor="start" x="302.31" y="-824" font-family="ArialMT" font-size="10.00">reset_password_sent_at </text>
<text text-anchor="start" x="412.31" y="-824" font-family="Arial ItalicMT" font-size="10.00" fill="#999999">datetime (6,0)</text>
<text text-anchor="start" x="302.31" y="-811" font-family="ArialMT" font-size="10.00">reset_password_token </text>
<text text-anchor="start" x="404.31" y="-811" font-family="Arial ItalicMT" font-size="10.00" fill="#999999">string</text>
</g>
<!-- m_ConservateurRole -->
<g id="node11" class="node">
<title>m_ConservateurRole</title>
<path fill="none" stroke="black" d="M329.31,-660C329.31,-660 449.31,-660 449.31,-660 455.31,-660 461.31,-666 461.31,-672 461.31,-672 461.31,-684 461.31,-684 461.31,-690 455.31,-696 449.31,-696 449.31,-696 329.31,-696 329.31,-696 323.31,-696 317.31,-690 317.31,-684 317.31,-684 317.31,-672 317.31,-672 317.31,-666 323.31,-660 329.31,-660"/>
<text text-anchor="start" x="343.31" y="-675.2" font-family="Arial BoldMT" font-size="11.00">ConservateurRole</text>
</g>
<!-- m_Conservateur&#45;&gt;m_ConservateurRole -->
<g id="edge8" class="edge">
<title>m_Conservateur&#45;&gt;m_ConservateurRole</title>
<path fill="none" stroke="black" d="M388.05,-801.39C388.4,-767.74 388.79,-729.85 389.04,-705.27"/>
<polygon fill="black" stroke="black" points="392.19,-705.25 389.13,-696.22 385.89,-705.19 392.19,-705.25"/>
</g>
<!-- m_Conservateur&#45;&gt;m_Dossier -->
<g id="edge26" class="edge">
<title>m_Conservateur&#45;&gt;m_Dossier</title>
<path fill="none" stroke="black" d="M39.31,-677C25.57,-644.88 72.71,-566.1 110.97,-510.27"/>
<polygon fill="black" stroke="black" points="113.78,-511.75 116.31,-502.55 108.6,-508.17 113.78,-511.75"/>
</g>
<!-- m_Conservateur&#45;&gt;m_Recensement -->
<g id="edge18" class="edge">
<title>m_Conservateur&#45;&gt;m_Recensement</title>
<path fill="none" stroke="black" d="M39.31,-677C-19.45,-539.59 -13.51,-467.06 68.31,-342 105.84,-284.63 174.86,-248.63 232.36,-227.3"/>
<polygon fill="black" stroke="black" points="233.72,-230.16 241.12,-224.13 231.58,-224.23 233.72,-230.16"/>
<path fill="none" stroke="black" d="M294.7,-810.34C289.53,-807.12 284.38,-803.99 279.31,-801 176.21,-740.27 86.92,-788.78 39.31,-679"/>
</g>
<!-- m_Departement -->
<g id="node12" class="node">
<title>m_Departement</title>
<path fill="none" stroke="black" d="M521.31,-840.5C521.31,-840.5 641.31,-840.5 641.31,-840.5 647.31,-840.5 653.31,-846.5 653.31,-852.5 653.31,-852.5 653.31,-897.5 653.31,-897.5 653.31,-903.5 647.31,-909.5 641.31,-909.5 641.31,-909.5 521.31,-909.5 521.31,-909.5 515.31,-909.5 509.31,-903.5 509.31,-897.5 509.31,-897.5 509.31,-852.5 509.31,-852.5 509.31,-846.5 515.31,-840.5 521.31,-840.5"/>
<text text-anchor="start" x="547.31" y="-896.7" font-family="Arial BoldMT" font-size="11.00">Departement</text>
<polyline fill="none" stroke="black" points="509.31,-889.5 653.31,-889.5"/>
<text text-anchor="start" x="516.31" y="-876" font-family="ArialMT" font-size="10.00">dans_nom </text>
<text text-anchor="start" x="565.31" y="-876" font-family="Arial ItalicMT" font-size="10.00" fill="#999999">string</text>
<text text-anchor="start" x="516.31" y="-863" font-family="ArialMT" font-size="10.00">nom </text>
<text text-anchor="start" x="538.31" y="-863" font-family="Arial ItalicMT" font-size="10.00" fill="#999999">string ∗</text>
<text text-anchor="start" x="516.31" y="-850" font-family="ArialMT" font-size="10.00">service_public_prefix </text>
<text text-anchor="start" x="611.31" y="-850" font-family="Arial ItalicMT" font-size="10.00" fill="#999999">string</text>
</g>
<!-- m_Departement&#45;&gt;m_Campaign -->
<g id="edge13" class="edge">
<title>m_Departement&#45;&gt;m_Campaign</title>
<path fill="none" stroke="black" d="M617.39,-840.21C632.46,-827.05 650.57,-812.42 668.31,-801 723.71,-765.32 791.15,-733.5 842.75,-711.32"/>
<polygon fill="black" stroke="black" points="844.18,-714.13 851.22,-707.7 841.71,-708.34 844.18,-714.13"/>
</g>
<!-- m_Departement&#45;&gt;m_Commune -->
<g id="edge27" class="edge">
<title>m_Departement&#45;&gt;m_Commune</title>
<path fill="none" stroke="black" d="M581.31,-840.48C581.31,-820.22 581.31,-793.36 581.31,-767.37"/>
<polygon fill="black" stroke="black" points="584.46,-767.23 581.31,-758.23 578.16,-767.23 584.46,-767.23"/>
</g>
<!-- m_Departement&#45;&gt;m_ConservateurRole -->
<g id="edge9" class="edge">
<title>m_Departement&#45;&gt;m_ConservateurRole</title>
<path fill="none" stroke="black" d="M548.3,-840.48C509.7,-801.28 446.78,-737.37 412.82,-702.88"/>
<polygon fill="black" stroke="black" points="414.99,-700.59 406.43,-696.39 410.5,-705.01 414.99,-700.59"/>
</g>
<!-- m_Departement&#45;&gt;m_Objet -->
<g id="edge28" class="edge">
<title>m_Departement&#45;&gt;m_Objet</title>
<path fill="none" stroke="black" stroke-dasharray="1,5" d="M612.02,-840.4C627.42,-825.76 647.26,-809.94 668.31,-801 738.65,-771.14 959.18,-821.8 1010.31,-765 1062.05,-707.53 1063.13,-647.49 1010.31,-591 969.54,-547.4 530.45,-575.27 474.31,-555 451.12,-546.63 428.38,-533.41 407.99,-519.13"/>
<polygon fill="black" stroke="black" points="409.74,-516.51 400.59,-513.82 406.07,-521.63 409.74,-516.51"/>
</g>
<!-- m_Dossier&#45;&gt;m_Recensement -->
<g id="edge21" class="edge">
<title>m_Dossier&#45;&gt;m_Recensement</title>
<path fill="none" stroke="black" d="M192.63,-394.21C209.32,-370.38 229.66,-341.34 249.47,-313.07"/>
<polygon fill="black" stroke="black" points="252.18,-314.69 254.76,-305.51 247.01,-311.08 252.18,-314.69"/>
</g>
<!-- m_Objet&#45;&gt;m_Recensement -->
<g id="edge19" class="edge">
<title>m_Objet&#45;&gt;m_Recensement</title>
<path fill="none" stroke="black" d="M328.31,-348.81C328.31,-337.58 328.31,-326.05 328.31,-314.63"/>
<polygon fill="black" stroke="black" points="331.46,-314.51 328.31,-305.51 325.16,-314.51 331.46,-314.51"/>
</g>
<!-- m_Recensement&#45;&gt;m_ActiveStorage::Attachment -->
<g id="edge5" class="edge">
<title>m_Recensement&#45;&gt;m_ActiveStorage::Attachment</title>
<path fill="none" stroke="black" d="M415.35,-160.78C485.17,-130.53 581.97,-88.58 647.2,-60.32"/>
<polygon fill="black" stroke="black" points="648.78,-63.06 655.79,-56.59 646.28,-57.28 648.78,-63.06"/>
</g>
<!-- m_User&#45;&gt;m_Recensement -->
<g id="edge20" class="edge">
<title>m_User&#45;&gt;m_Recensement</title>
<path fill="none" stroke="black" d="M488.54,-356.93C466.94,-335.84 443.92,-313.37 422.27,-292.24"/>
<polygon fill="black" stroke="black" points="424.24,-289.76 415.6,-285.72 419.84,-294.26 424.24,-289.76"/>
</g>
</g>
</svg>
