<?xml version="1.0"?>
<svg xmlns="http://www.w3.org/2000/svg" version="1.2" baseProfile="tiny" width="800" height="927" viewBox="0 0 800 927" stroke-linecap="round" stroke-linejoin="round">
<g id="92">
<path d="M 579.24 204.65 569.07 194.61 561.84 198.72 556.58 195.27 552.21 191.64 549.17 190.01 545.9 187.06 545.19 184.95 543.3 184.5 537.64 179.41 510.81 189.45 504.73 188.17 498.63 171.09 503.27 169.85 511.87 169.73 517.07 170.82 528.47 171.5 529.5 160.83 537.59 153.78 555.49 141.15 563.92 134.23 554.12 124.95 544.84 117.36 533.46 102 531.19 99.52 527.17 98.08 529.46 95.06 530.75 85.72 531.31 79.07 532.32 72.77 535.47 74.6 539.02 75.19 543.25 73.98 551.45 74.1 565.63 76.01 575.31 81.48 579.59 87.8 580.21 104.91 587.56 118.49 586.18 119.32 590.33 123.6 604.25 135.22 610.84 139.28 624.88 130.73 629.18 160.88 640.18 156.7 647.81 152.81 659.06 148.08 679.66 140.48 686.34 137.21 707.15 130.2 718.91 127.08 729.93 132.24 736.03 135.71 727.43 147.49 719.23 150.22 702.27 155.46 682.15 161.64 675.88 163.28 656.19 166.89 651.53 168.08 636.93 173.48 624.72 179.61 619.54 183.07 615.24 187.24 609.9 190.34 597.28 196.57 592.21 198.76 579.24 204.65 Z" id="92004" data-nom="ASNIERES-SUR-SEINE"/>
<path d="M 685.27 694.2 670.23 693.87 662.4 693 659.02 692.11 657.82 691.55 653.31 684.82 639.76 662.94 634.14 657.56 637.83 654.5 628.79 648.9 624.94 649.46 617.13 647.94 612.81 647.86 615.13 643.63 618.37 640.41 621.66 638.11 643.07 619.37 657.48 616.83 659.42 608.01 662.18 603.53 669.54 595.49 652.14 589.47 655.89 584.84 717.66 589.96 724.28 589.59 719.36 596.16 721.31 605.79 730.01 605.62 732.53 607.45 735.51 606.35 744.93 608.82 746.79 606.92 746.38 603.31 748.24 601.92 748.1 599.18 750.15 596.05 754.82 596.58 753.22 603.08 735.57 648 722.72 681.33 703.67 675.45 696.8 675.75 691.53 684.19 690.05 690.53 685.27 694.2 Z" id="92007" data-nom="BAGNEUX"/>
<path d="M 379.26 541.34 371.42 539.33 364.02 536.04 358.22 532.98 350.66 527.6 346.33 523.58 341.8 517.95 341.41 513.04 339.42 508.92 337.74 503.04 337.08 498.35 335.72 494.6 333.3 490.98 328.03 484.71 324.01 479.18 322.79 472.83 322.9 469.23 324.92 462.95 328.53 453.75 329.43 449.46 333.13 438.13 334.1 431.38 333.72 425.03 332.77 420.89 328.25 408.11 390.59 421.9 396.34 424.65 404.71 432.01 438.92 440.84 446.78 441.06 441.27 452.23 443.07 468.86 457.67 485.97 489.56 489.65 484.3 495.48 478.17 500.95 467.69 506.64 462.52 509.98 447.16 521.3 443.04 523.8 435.72 527.27 412.18 534.34 400.77 536.93 392.21 540.22 387.09 541.16 379.26 541.34 Z" id="92012" data-nom="BOULOGNE BILLANCOURT"/>
<path d="M 727.93 753.18 696.52 747.42 704.36 727.89 695.17 729.06 690.14 727.68 673.72 725.2 675.81 722.1 673.33 721.61 683.67 702.48 688.51 694.26 685.27 694.2 690.05 690.53 691.53 684.19 696.8 675.75 703.67 675.45 722.72 681.33 736.92 685.36 749.63 688.18 747.98 695.94 749.41 696.22 747.21 700.94 748.44 701.17 746.77 705.27 752.56 706.61 748.47 714.9 747.36 718.5 755.86 719.92 752.07 726.97 749.33 726.01 745.94 729.83 743.86 728.87 738.05 737.03 730.57 750.34 727.93 753.18 Z" id="92014" data-nom="BOURG LA REINE"/>
<path d="M 470.46 188.62 468.6 180.02 465.56 168.29 468.2 168.57 469.29 157.67 467.12 157.38 469.46 155.93 484.4 156.05 485.37 144.76 487.68 139.42 487.9 135.51 491.2 129.64 497.16 133.95 499.62 128.97 507.76 132.57 512.57 125.14 510.91 124.72 514.6 118.27 513.92 118.08 518.72 111.05 510.49 109.47 533.46 102 544.84 117.36 554.12 124.95 563.92 134.23 555.49 141.15 537.59 153.78 529.5 160.83 528.47 171.5 517.07 170.82 511.87 169.73 503.27 169.85 498.63 171.09 504.73 188.17 507.1 194.57 491.45 199.78 483.64 185.48 478.85 186.27 470.46 188.62 Z" id="92009" data-nom="BOIS COLOMBES"/>
<path d="M 528.95 655.94 525.45 652.32 546.19 640.74 542.11 638.69 543.41 635.61 546.68 635 547.32 630.57 551.08 624.89 543.05 623.97 532.61 623.48 537.57 617.01 545.04 609.36 549.64 600.14 554.02 594.84 560.9 585.68 574.94 587.14 575.88 588.56 582.21 586.68 592.35 589.03 598.18 591 604.99 593.92 604.94 590.75 611.41 590.69 617.79 581.68 619.1 581.65 623.07 587.26 636.5 580.56 643.47 585.74 645.13 584.03 655.89 584.84 652.14 589.47 669.54 595.49 662.18 603.53 659.42 608.01 657.48 616.83 643.07 619.37 621.66 638.11 618.37 640.41 615.13 643.63 612.81 647.86 603.66 649.82 599.96 651.9 594.37 654.19 593.56 651.98 588.8 647.27 583.9 645.32 583.16 646.75 580.13 648.3 572.33 649.69 563.58 652.02 562.39 649.6 555.13 649.74 547.22 648.14 528.95 655.94 Z" id="92020" data-nom="CHATILLON"/>
<path d="M 130.7 572.8 138.22 569.17 148.3 569.98 152.69 568.74 157.18 566.63 184.96 565.4 184.51 564.02 186.29 561.4 194.3 559.83 201.62 555.25 205.28 553.75 211.57 548.88 216.06 546.6 218.7 543.92 225.64 548.64 228.67 551.7 220.09 555.86 223.25 559.12 225.64 559.96 223.86 561.98 215.97 565.43 213.73 568.05 243.89 587.74 250.62 592.68 252.55 594.06 246.43 620.11 246.88 622.34 252.82 631.45 247.96 633.05 244.54 635.17 238.57 637.71 221.8 637.6 220.9 636.86 212.84 641.48 176.42 642.44 156.3 642.8 173.19 628.23 166.15 626.87 152.34 628.69 145.49 611.18 156.86 609.23 152.12 605.39 145.81 597.7 138.07 591.13 136.44 591.75 132.99 589.47 133.28 588.52 129.07 585.61 129.69 582.5 127.13 581.25 126.82 578.52 130.7 572.8 Z" id="92022" data-nom="CHAVILLE"/>
<path d="M 660.6 238.27 653.33 233.97 641.09 226.66 627.46 219.21 592.21 198.76 597.28 196.57 609.9 190.34 615.24 187.24 619.54 183.07 624.72 179.61 636.93 173.48 651.53 168.08 656.19 166.89 675.88 163.28 682.15 161.64 702.27 155.46 713.62 170.65 712.67 171.59 721.52 180.72 720 181.26 732.02 194.67 726.63 208.47 727.79 212.03 722.07 215.48 696.14 223.38 676.33 230.81 660.6 238.27 Z" id="92024" data-nom="CLICHY"/>
<path d="M 359.46 211.28 360.64 210.04 354.33 198.21 348.98 188.8 363.95 184.96 373.09 182.23 383.65 177.66 422.71 164.86 435.96 161.01 447.18 158.63 457.43 157.35 467.12 157.38 469.29 157.67 468.2 168.57 465.56 168.29 468.6 180.02 470.46 188.62 460.44 191.44 460.78 194.79 445.57 199.63 421.2 205.41 418.25 201.47 407.09 204.2 405.29 202.37 392.4 204.61 383.54 206.57 375.16 208.06 359.46 211.28 Z" id="92035" data-nom="LA GARENNE COLOMBES"/>
<path d="M 569.36 701.26 564.77 699.57 564.7 698.45 556.18 696.83 557.46 693.01 562.01 693.65 562.03 691.5 554.68 691.04 547.38 689.38 539.76 690.54 536.4 688.01 535.73 686.41 536.23 682.5 534.1 680.43 528.25 676.44 526.59 670.91 529.2 669.59 532.23 669.43 528.95 655.94 547.22 648.14 555.13 649.74 562.39 649.6 563.58 652.02 572.33 649.69 580.13 648.3 583.16 646.75 583.9 645.32 588.8 647.27 593.56 651.98 594.37 654.19 599.96 651.9 603.66 649.82 612.81 647.86 617.13 647.94 624.94 649.46 628.79 648.9 637.83 654.5 634.14 657.56 639.76 662.94 653.31 684.82 657.82 691.55 659.02 692.11 616.53 697.15 609.18 698.64 609.59 699.61 593.41 704.08 583.53 704.31 574.31 702.74 569.36 701.26 Z" id="92032" data-nom="FONTENAY AUX ROSES"/>
<path d="M 451.76 268.59 399.33 251.98 396.83 234.72 385.66 236.51 377.7 234.85 373.91 232.66 368.44 232.01 361.71 223.25 355.21 212.56 359.46 211.28 375.16 208.06 383.54 206.57 392.4 204.61 405.29 202.37 407.09 204.2 418.25 201.47 421.2 205.41 445.57 199.63 460.78 194.79 460.44 191.44 470.46 188.62 478.85 186.27 483.64 185.48 491.45 199.78 507.1 194.57 504.73 188.17 510.81 189.45 537.64 179.41 543.3 184.5 545.19 184.95 545.9 187.06 549.17 190.01 552.21 191.64 556.58 195.27 561.84 198.72 569.07 194.61 579.24 204.65 573.59 206.92 564.27 209.87 554.24 211.2 540.04 215.32 523.94 220.78 517.88 222.98 505.24 228.2 495.1 233.1 486.51 239.17 475.08 250.24 471.75 252.88 464.83 257.22 459.12 261.6 451.76 268.59 Z" id="92026" data-nom="COURBEVOIE"/>
<path d="M 443.81 562.8 440.45 563.2 436.53 558.98 432.41 556.53 421.89 554.69 415.04 553.19 405.17 551.86 406.68 545.45 395.67 545.78 387.39 544.19 379.26 541.34 387.09 541.16 392.21 540.22 400.77 536.93 412.18 534.34 435.72 527.27 443.04 523.8 447.16 521.3 462.52 509.98 467.69 506.64 478.17 500.95 484.3 495.48 489.56 489.65 508.37 486.6 510.64 486.95 519.8 493.5 509.69 498.84 508.46 500.14 509.73 514.49 510.57 515.04 531.08 514.66 541.5 508.41 557.3 495.77 575.89 502.63 600.43 512.98 593.85 513.31 588.98 512.44 594.44 516.22 591.28 516.57 579.69 516.37 574.47 517.93 563.42 523.06 564.88 524.25 561.57 526.03 564.72 527.96 565.59 533.12 567.91 534.93 565.92 535.9 569.41 542.33 567.04 543.06 569.14 546.72 567.33 547.47 559.28 552.57 553.12 555.58 548.71 558.53 543.79 559.49 533.76 567.21 530.39 571.15 508.44 572.79 502.86 574.11 498.52 574.51 494.33 570.83 483.52 575.84 479.44 571.14 473.02 566.4 471.05 567.69 467.95 563.73 465.6 564.6 463.22 560.12 459.46 561.57 443.81 562.8 Z" id="92040" data-nom="ISSY LES MOULINEAUX"/>
<path d="M 348.98 188.8 344.2 180.9 349.18 179.14 338.72 163.56 337.58 163.87 334.87 159.11 323.78 147.71 319.85 145.25 328.39 139.05 312.8 128.01 324.32 119.75 345.1 106.5 362.16 94.99 372.78 89.25 382.76 84.49 390.84 81 399.54 77.84 403.03 75.96 413.47 68.28 421.86 62.82 426.14 60.44 429.44 72.94 433.3 69.35 440.63 64.29 450.9 63.09 454.29 61.32 464.83 57.5 469.93 56.97 473.93 60.13 487.33 68.27 488.27 66.01 497.21 68.01 516.35 70.82 524.85 72.62 527.77 71.59 532.32 72.77 531.31 79.07 530.75 85.72 529.46 95.06 527.17 98.08 531.19 99.52 533.46 102 510.49 109.47 518.72 111.05 513.92 118.08 514.6 118.27 510.91 124.72 512.57 125.14 507.76 132.57 499.62 128.97 497.16 133.95 491.2 129.64 487.9 135.51 487.68 139.42 485.37 144.76 484.4 156.05 469.46 155.93 467.11 157.38 457.41 157.34 447.19 158.62 435.96 161.01 422.71 164.86 383.65 177.66 373.09 182.23 363.95 184.96 348.98 188.8 Z" id="92025" data-nom="COLOMBES"/>
<path d="M 174.2 473.75 170.91 470.38 163.41 471.04 147.49 471.8 127.89 471.92 108.82 470.68 93.23 473.32 88.51 473.72 89.3 467.01 91.17 466.97 91.41 456.69 90.1 455.24 120.2 451.1 124.65 449.68 139.63 447.05 142.13 442.69 146.06 438.52 152.2 428.94 154.96 416.05 162.25 415.77 172.79 413.39 174.59 411.9 187.24 413.98 195.57 405.68 196.1 403.11 200.31 400.49 203.64 397 207.18 398.92 218.76 402.76 226.32 405.69 233.21 409.44 244.74 413.65 250.65 414.96 249.62 417.55 243.67 420.82 235.34 424.31 225.04 430.54 218.65 433.5 218.47 437.62 219.19 441.04 220.77 444.21 223.4 447.47 223.83 452.21 222.6 457.62 220.31 458.37 202.84 461.72 195.43 463.93 185.53 465.99 175.64 468.83 178.2 471.02 174.2 473.75 Z" id="92033" data-nom="GARCHES"/>
<path d="M 532.32 72.77 527.77 71.59 524.85 72.62 516.35 70.82 497.21 68.01 488.27 66.01 487.33 68.27 473.93 60.13 469.93 56.97 464.83 57.5 454.29 61.32 450.9 63.09 440.63 64.29 433.3 69.35 429.44 72.94 426.14 60.44 442.79 52.85 460.34 45.54 467.33 40.38 477.13 34.99 491.56 29.24 506.76 22.79 513.88 20.01 520.15 18.36 536.76 14.79 559.91 8.02 570.12 5.69 578.71 4.29 593.05 2.35 606.19 1 612.87 2.46 616.97 2.86 628.62 3.17 643.33 3.3 652.01 4.46 684.54 11.81 693.51 13.99 683.42 40.74 686.46 41.61 683.19 45.8 697.39 50.41 706.7 55.34 715.92 57.79 721.76 60.28 729.32 66.96 732.47 70.44 736.96 76.85 732.85 83.28 731.83 83.72 721.32 99.14 750.89 110.05 763.81 119.26 754.21 126.77 749.46 129.35 737.89 134.42 736.03 135.71 729.93 132.24 718.91 127.08 707.15 130.2 686.34 137.21 679.66 140.48 659.06 148.08 647.81 152.81 640.18 156.7 629.18 160.88 624.88 130.73 610.84 139.28 604.25 135.22 590.33 123.6 586.18 119.32 587.56 118.49 580.21 104.91 579.59 87.8 575.31 81.48 565.63 76.01 551.45 74.1 543.25 73.98 539.02 75.19 535.47 74.6 532.32 72.77 Z" id="92036" data-nom="GENNEVILLIERS"/>
<path d="M 560.9 585.68 550.04 581.11 544.83 579.27 537.98 575.01 553.65 571.39 558.96 570.91 580.39 566.81 593.65 562.75 602.8 559.13 611.5 555.27 615.39 553.11 625.83 546.35 636.87 537.1 650.3 526.35 670.04 530.82 703.89 538.32 696.33 543.5 679.4 556.11 663 567.75 657.45 572.18 651.12 577.81 645.13 584.03 643.47 585.74 636.5 580.56 623.07 587.26 619.1 581.65 617.79 581.68 611.41 590.69 604.94 590.75 604.99 593.92 598.18 591 592.35 589.03 582.21 586.68 575.88 588.56 574.94 587.14 560.9 585.68 Z" id="92046" data-nom="MALAKOFF"/>
<path d="M 25.11 542.02 24.87 538.88 23.17 532.28 24.95 522.47 25.75 507.65 26.21 506.4 36.95 486.67 40.65 481.32 43.65 474.45 51.35 473.48 64.73 474.25 72.44 473.82 88.51 473.72 93.23 473.32 108.82 470.68 127.89 471.92 147.49 471.8 163.41 471.04 170.91 470.38 174.2 473.75 175.09 474.49 170.37 478.97 166.26 489.7 147.44 503.41 143.26 504.65 139.65 508.03 131.1 513.25 128.06 513.9 129.15 517.53 118.21 529.92 90.08 533.9 79.95 534.78 70.03 532.46 67.88 532.57 64.21 536.18 59.02 543.26 56.16 544.21 49.18 543.84 44.62 541.57 32.3 542.02 29.11 544.31 22.18 552.41 19.65 553.03 24.38 544.36 25.11 542.02 Z" id="92047" data-nom="MARNES LA COQUETTE"/>
<path d="M 579.97 273.86 574.79 268.76 567.93 262.61 548.11 243.67 523.94 220.78 540.04 215.32 554.24 211.2 564.27 209.87 573.59 206.92 579.24 204.65 592.21 198.76 627.46 219.21 641.09 226.66 653.33 233.97 660.6 238.27 638.55 248.69 624.17 256.23 609.48 257.97 584.98 269.99 579.97 273.86 Z" id="92044" data-nom="LEVALLOIS PERRET"/>
<path d="M 417.92 312.57 426.46 304.19 439.02 293.85 445.61 287.57 449.41 283.45 454.5 277.05 446.39 274.44 451.76 268.59 459.12 261.6 464.83 257.22 471.75 252.88 475.08 250.24 486.51 239.17 495.1 233.1 505.24 228.2 517.88 222.98 523.94 220.78 548.11 243.67 567.93 262.61 574.79 268.76 579.97 273.86 565.49 285.12 561.41 301.87 560.25 303.1 550.85 305.88 471.62 296.02 471.27 297.01 458.76 321.33 456.28 322.09 417.92 312.57 Z" id="92051" data-nom="NEUILLY SUR SEINE"/>
<path d="M 724.28 589.59 717.66 589.96 655.89 584.84 645.13 584.03 651.12 577.81 657.45 572.18 663 567.75 679.4 556.11 696.33 543.5 703.89 538.32 779.88 555.19 776.99 560.66 751.34 591.32 736.04 590.76 724.28 589.59 Z" id="92049" data-nom="MONTROUGE"/>
<path d="M 259.94 321.48 253.89 316.92 247.36 312.77 228.39 299.96 215.18 292.2 194.64 280.6 195.67 280.23 144.25 253.9 127.96 247.42 99.48 231.35 106.66 226.19 118.16 219.42 126.25 214.24 133.88 210.82 151.69 204.46 157.76 202.67 173.98 199.62 182.36 197.72 199.02 193.23 205.36 189.92 213.51 184.52 218.87 181.94 243.45 172.29 253.1 168.3 257.89 165.91 276.37 154.53 285.03 148.68 291.46 142.62 298.48 138.11 312.8 128.01 328.39 139.05 319.85 145.25 323.78 147.71 334.87 159.11 337.58 163.87 338.72 163.56 349.18 179.14 344.2 180.9 348.98 188.8 354.33 198.21 360.64 210.04 359.46 211.28 355.21 212.56 361.71 223.25 368.44 232.01 370.48 234.62 357.31 245.24 353.06 251.12 356.12 255.38 354.56 258.02 346.27 263.07 329.76 274.73 329.92 276 321.26 284.3 326.08 285.87 296.02 305.32 295.18 307.09 298.01 310.06 296.87 310.8 282.38 312.28 277.34 309.96 276.16 308.73 272.74 308.78 272.55 311.89 269.7 316.04 259.94 321.48 Z" id="92050" data-nom="NANTERRE"/>
<path d="M 361.53 340.94 363.52 338.9 373.88 329.72 381.08 324.54 360.77 314.65 379.34 299.06 375.12 298.57 355.2 297.71 349.74 295.53 338.73 292.67 326.08 285.87 321.26 284.3 329.92 276 329.76 274.73 346.27 263.07 354.56 258.02 356.12 255.38 353.06 251.12 357.31 245.24 370.48 234.62 368.44 232.01 373.91 232.66 377.7 234.85 385.66 236.51 396.83 234.72 399.33 251.98 451.76 268.59 446.39 274.44 454.5 277.05 449.41 283.45 445.61 287.57 439.02 293.85 426.46 304.19 417.92 312.57 407.74 322.52 397.25 330.66 392.71 332.66 382.51 335.12 361.53 340.94 Z" id="92062" data-nom="PUTEAUX"/>
<path d="M 225.2 506.81 220.35 507.11 214.59 506.82 203.54 508.42 190.13 509.18 186.31 508.63 181.71 509.3 178.93 510.42 172.17 511.17 164.96 509.24 164.12 510.74 147.44 503.41 166.26 489.7 170.37 478.97 175.09 474.49 174.2 473.75 178.2 471.02 175.64 468.83 185.53 465.99 195.43 463.93 202.84 461.72 220.31 458.37 222.6 457.62 223.83 452.21 223.4 447.47 220.77 444.21 219.19 441.04 218.47 437.62 218.65 433.5 225.04 430.54 235.34 424.31 243.67 420.82 249.62 417.55 250.65 414.96 244.74 413.65 233.21 409.44 226.32 405.69 218.76 402.76 221.68 401.26 230.75 393.21 235.17 391.25 238.17 387.33 242.61 378.35 249.06 379.56 252.21 379.58 270.98 376.54 280.07 373.96 284.72 383.17 285.59 383.46 295.59 381.74 306.29 381.57 317.3 380.99 334.76 383.17 331.88 389.27 329.65 396.56 328.21 405.05 328.25 408.11 332.77 420.89 333.72 425.03 334.1 431.38 333.13 438.13 329.43 449.46 328.53 453.75 324.92 462.95 322.9 469.23 322.79 472.83 324.01 479.18 328.03 484.71 319.7 483.53 320.22 495.25 321.64 500.55 323.08 502.98 326.97 507.07 318.05 509.28 314.51 512.49 317.92 518.41 308.65 520.11 306.37 521.17 305.23 518.71 303.08 516.84 286.28 515.76 273.69 515.87 256.64 510.75 230.08 506.52 225.2 506.81 Z" id="92064" data-nom="SAINT CLOUD"/>
<path d="M 25.11 542.02 14.58 518.08 8.2 499.68 6.63 494.51 2.12 482.09 1.61 477.22 3.41 470.75 1 466.44 1.56 460.96 1.08 456.84 8.07 450.88 15.96 440.12 23.35 430.52 26.59 427.99 32.73 427.62 47.57 431.96 53.35 432.78 60.23 432.8 61.24 432.28 83.34 427.98 94.52 424.74 99.49 423.83 108.8 423.4 117.35 421.97 129.92 415.69 154.96 416.05 152.2 428.94 146.06 438.52 142.13 442.69 139.63 447.05 124.65 449.68 120.2 451.1 90.1 455.24 91.41 456.69 91.17 466.97 89.3 467.01 88.51 473.72 72.44 473.82 64.73 474.25 51.35 473.48 43.65 474.45 40.65 481.32 36.95 486.67 26.21 506.4 25.75 507.65 24.95 522.47 23.17 532.28 24.87 538.88 25.11 542.02 Z" id="92076" data-nom="VAUCRESSON"/>
<path d="M 334.76 383.17 317.3 380.99 306.29 381.57 295.59 381.74 285.59 383.46 284.72 383.17 280.07 373.96 270.98 376.54 252.21 379.58 249.06 379.56 242.61 378.35 226.59 375.01 236.09 355.03 242.12 358.24 246.8 359.45 256.63 361.32 259.97 362.46 265.74 351.25 268.93 352.29 275.19 352.9 274.39 345.42 277.1 340.78 282.97 336.41 273.08 339.25 266.38 332.1 263.99 331.34 262.23 328.84 255.93 323.68 259.94 321.48 269.7 316.04 272.55 311.89 272.74 308.78 276.16 308.73 277.34 309.96 282.38 312.28 296.87 310.8 298.01 310.06 295.18 307.09 296.02 305.32 326.08 285.87 338.73 292.67 349.74 295.53 355.2 297.71 375.12 298.57 379.34 299.06 360.77 314.65 381.08 324.54 373.88 329.72 363.52 338.9 361.53 340.94 350.28 352.06 345.41 357.53 344.05 360.2 341.41 369.52 334.76 383.17 Z" id="92073" data-nom="SURESNES"/>
<path d="M 545.22 812.12 543.46 811.54 525.42 807.49 521.39 807.21 517.1 807.95 522.11 799.47 523.85 795.14 514.23 795.16 515.54 790.18 507.94 788.29 498.47 792.02 487.92 797.69 486.35 798.9 476.1 794.02 469.68 793 458.87 791.98 454.78 793.32 449.98 793.61 442.61 795.03 437.35 792.56 435.11 789.69 423.6 794.6 416.37 787.09 397.53 782.5 388.55 771.08 365.15 772.24 364.46 771.8 364.11 765.5 365.73 759.75 363.91 755.95 360.55 752.42 356.41 751.53 354.56 750.24 354.21 745.94 355.72 741.88 353.87 739.43 347.94 737.76 347.74 731.65 349.97 729.84 354.43 727.95 383.82 730.08 382.95 733.22 379.78 735.7 381.22 740.81 383.86 741.16 388.26 740.58 390.39 742.74 391.11 745.25 397.17 743.65 403.05 743.58 405.67 742.22 412.27 743.76 412.92 743.87 420.83 745.02 421.49 741.68 437.01 743.94 441.84 745.53 453.14 744.87 453.41 743.73 460.03 743.63 460 742.85 466.36 742.49 475.08 743.3 477.86 742.76 493.86 737.14 495.8 735.76 499.18 735.7 502.65 733.26 504.82 734.42 507.45 732.76 508.96 729.33 516.82 731.46 519.42 728.88 527 727.16 529.36 725.69 537.95 727.15 540.76 716.82 545.57 709.2 550.96 710.02 553.31 705.86 557.06 703.14 559.25 704.03 561.34 706.58 563.05 714.51 561.82 718.9 558.84 722.64 554.18 729.58 555.99 731.11 557.87 735.32 561.92 740.03 567.81 737.58 574.78 738.33 581.57 738.37 587.61 739 590.69 740.86 587.83 742.92 587.27 745.17 587.7 751.08 604.15 770.54 610.94 778.67 611.09 779.83 606.6 794.15 595.46 793.57 595.17 796.05 586.67 795.4 581.53 795.43 566.43 797.17 555.6 798.01 551.78 802.36 549.65 806.56 545.22 812.12 Z" id="92019" data-nom="CHATENAY-MALABRY"/>
<path d="M 347.94 737.76 345.63 735.68 344.24 733.11 340.06 730.77 336.95 730.64 331.62 728.37 330.06 725.28 327.78 723.09 328.78 717.89 327.83 714.08 326.11 711.99 330.79 711.23 338.7 708.02 343.65 706.03 351.72 701.64 354.78 700.64 373.05 695.87 375.32 685.62 377.21 679.98 380.03 677.52 379.04 675.58 372.66 650.17 377.97 649.53 389.28 640.51 390.1 637.46 392.75 632.7 394.75 632.75 396.9 628.14 401.03 627.44 401.99 624.48 398.97 623.28 401.01 618.99 404.2 616.79 405.3 618.24 408.49 615.04 415.64 611.42 418.32 613.25 420.77 611.19 428.78 614.76 431.75 611.23 433.18 605.85 430.25 604.17 429.21 599.98 437.26 598.61 442.84 595.1 447.21 591.1 456.94 588.88 455.84 585.97 455.35 580.68 454.32 577.23 451.4 572.28 454.31 571.61 450.51 568.29 447.17 566.35 443.81 562.8 459.46 561.57 463.22 560.12 465.6 564.6 467.95 563.73 471.05 567.69 473.02 566.4 479.44 571.14 483.52 575.84 494.33 570.83 498.52 574.51 502.86 574.11 508.44 572.79 530.39 571.15 537.04 570.54 545.63 568.62 549.6 567.13 553.23 569.24 553.65 571.39 537.98 575.01 544.83 579.27 550.04 581.11 560.9 585.68 554.02 594.84 549.64 600.14 545.04 609.36 537.57 617.01 532.61 623.48 543.05 623.97 551.08 624.89 547.32 630.57 546.68 635 543.41 635.61 542.11 638.69 546.19 640.74 525.45 652.32 528.95 655.94 532.23 669.43 529.2 669.59 526.59 670.91 524.78 671.98 515.52 675.5 512.37 676.28 494.08 679.53 472.6 688.45 464.13 691.75 455.07 694.33 444.02 695.95 438.57 695.11 429.78 703.68 422.91 713.2 420.88 718.32 395.37 715.26 391.14 730.28 397.24 731.01 395.73 736.48 384.81 730.15 383.82 730.08 354.43 727.95 349.97 729.84 347.74 731.65 347.94 737.76 Z" id="92023" data-nom="CLAMART"/>
<path d="M 338.7 708.02 324.38 689.79 316.83 689.96 307.82 692.26 275.58 680.69 264.84 683.01 257.26 692.79 253.72 694.25 275.7 668.22 268.82 656.82 256.74 652.4 252.35 652.14 249.92 651.18 245.77 648.19 247.27 644.57 245.79 642.52 241.17 640.31 238.57 637.71 244.54 635.17 247.96 633.05 252.82 631.45 246.88 622.34 246.43 620.11 252.55 594.06 250.62 592.68 252.1 592.33 263.25 586.78 275.41 582.28 294.61 577.29 308.54 570.72 313.79 567.89 311.7 565.61 310.81 562.87 299.12 557.18 303.48 555.23 306.58 553.02 315.17 549.44 316.55 546.64 319.19 545.55 333.55 536.51 331.15 533.71 336.36 531.11 339.86 533.51 341.64 532.43 349.09 537.72 351.98 539.23 352.61 541.3 355.97 541.07 361.28 538.21 364.02 536.04 371.42 539.33 379.26 541.34 387.39 544.19 395.67 545.78 406.68 545.45 405.17 551.86 415.04 553.19 421.89 554.69 432.41 556.53 436.53 558.98 440.45 563.2 443.81 562.8 447.17 566.35 450.51 568.29 454.31 571.61 451.4 572.28 454.32 577.23 455.35 580.68 455.84 585.97 456.94 588.88 447.21 591.1 442.84 595.1 437.26 598.61 429.21 599.98 430.25 604.17 433.18 605.85 431.75 611.23 428.78 614.76 420.77 611.19 418.32 613.25 415.64 611.42 408.49 615.04 405.3 618.24 404.2 616.79 401.01 618.99 398.97 623.28 401.99 624.48 401.03 627.44 396.9 628.14 394.75 632.75 392.75 632.7 390.1 637.46 389.28 640.51 377.97 649.53 372.66 650.17 379.04 675.58 380.03 677.52 377.21 679.98 375.32 685.62 373.05 695.87 354.78 700.64 351.72 701.64 343.65 706.03 338.7 708.02 Z" id="92048" data-nom="MEUDON"/>
<path d="M 412.92 743.87 412.27 743.76 405.67 742.22 403.05 743.58 397.17 743.65 391.11 745.25 390.39 742.74 388.26 740.58 383.86 741.16 381.22 740.81 379.78 735.7 382.95 733.22 383.82 730.08 384.81 730.15 395.73 736.48 397.24 731.01 391.14 730.28 395.37 715.26 420.88 718.32 422.91 713.2 429.78 703.68 438.57 695.11 444.02 695.95 455.07 694.33 464.13 691.75 472.6 688.45 494.08 679.53 512.37 676.28 515.52 675.5 524.78 671.98 526.59 670.91 528.25 676.44 534.1 680.43 536.23 682.5 535.73 686.41 536.4 688.01 539.76 690.54 547.38 689.38 554.68 691.04 562.03 691.5 562.01 693.65 557.46 693.01 556.18 696.83 564.7 698.45 564.77 699.57 569.36 701.26 568.55 703.64 563.7 700.76 559.25 704.03 557.06 703.14 553.31 705.86 550.96 710.02 545.57 709.2 540.76 716.82 537.95 727.15 529.36 725.69 527 727.16 519.42 728.88 516.82 731.46 508.96 729.33 507.45 732.76 504.82 734.42 502.65 733.26 499.18 735.7 495.8 735.76 493.86 737.14 477.86 742.76 475.08 743.3 466.36 742.49 460 742.85 460.03 743.63 453.41 743.73 453.14 744.87 441.84 745.53 437.01 743.94 421.49 741.68 420.83 745.02 412.92 743.87 Z" id="92060" data-nom="LE PLESSIS ROBINSON"/>
<path d="M 61.24 432.28 58.32 430.4 57.2 425.72 37.15 410.97 36.68 408.73 21.69 396.59 24.12 395.3 19.52 393.35 20.29 389.07 23.18 388.51 25.36 384.48 19.57 382.84 23.87 378.39 32.69 374.95 31.91 372.03 32.74 370.2 36.93 366.56 39.59 365.16 34.66 362.23 36.31 360.14 38.54 353.73 41.44 351.97 46.28 345.72 49.19 343.75 49.29 340.31 42.62 342.43 27.86 346.5 12.58 345.65 10.65 342.03 17.75 337.89 26.76 330.08 30.39 326.12 38.61 314.91 43.59 307.32 51.23 297.14 54.65 294.39 64.59 291.33 71.27 288.29 74.05 285.65 75.47 282.77 75.67 277.64 73.16 268.84 73.42 265.21 74.8 261.59 80.05 255.1 85.87 249.96 88.74 246.12 92.66 237.28 99.48 231.35 127.96 247.42 144.25 253.9 195.67 280.23 194.64 280.6 215.18 292.2 228.39 299.96 247.36 312.77 253.89 316.92 259.94 321.48 255.93 323.68 262.23 328.84 263.99 331.34 266.38 332.1 273.08 339.25 282.97 336.41 277.1 340.78 274.39 345.42 275.19 352.9 268.93 352.29 265.74 351.25 259.97 362.46 256.63 361.32 246.8 359.45 242.12 358.24 236.09 355.03 226.59 375.01 242.61 378.35 238.17 387.33 235.17 391.25 230.75 393.21 221.68 401.26 218.76 402.76 207.18 398.92 203.64 397 200.31 400.49 196.1 403.11 195.57 405.68 187.24 413.98 174.59 411.9 172.79 413.39 162.25 415.77 154.96 416.05 129.92 415.69 117.35 421.97 108.8 423.4 99.49 423.83 94.52 424.74 83.34 427.98 61.24 432.28 Z" id="92063" data-nom="RUEIL MALMAISON"/>
<path d="M 604.15 770.54 587.7 751.08 587.27 745.17 587.83 742.92 590.69 740.86 587.61 739 581.57 738.37 574.78 738.33 567.81 737.58 561.92 740.03 557.87 735.32 555.99 731.11 554.18 729.58 558.84 722.64 561.82 718.9 563.05 714.51 561.34 706.58 559.25 704.03 563.7 700.76 568.55 703.64 569.36 701.26 574.31 702.74 583.53 704.31 593.41 704.08 609.59 699.61 609.18 698.64 616.53 697.15 659.02 692.11 662.4 693 670.23 693.87 685.27 694.2 688.51 694.26 683.67 702.48 673.33 721.61 675.81 722.1 673.72 725.2 690.14 727.68 695.17 729.06 704.36 727.89 696.52 747.42 694.11 753.49 690.05 752.82 683.41 752.49 675.78 753.23 674.92 757.5 672.12 759.61 667.5 760.49 604.15 770.54 Z" id="92071" data-nom="SCEAUX"/>
<path d="M 250.62 592.68 243.89 587.74 213.73 568.05 215.97 565.43 223.86 561.98 225.64 559.96 223.25 559.12 220.09 555.86 228.67 551.7 225.64 548.64 218.7 543.92 216.06 546.6 211.57 548.88 205.28 553.75 201.62 555.25 194.3 559.83 186.29 561.4 184.51 564.02 184.96 565.4 157.18 566.63 152.69 568.74 148.3 569.98 138.22 569.17 140.88 567.01 146.03 561.39 150.94 556.99 152.77 556.54 156.61 558.01 162.39 558.09 170.39 555.58 174.23 553.1 196.72 541.97 202.04 540.21 208.09 540.26 212.06 539.51 222.84 538.57 220.92 532.11 225.06 532.15 225.18 530.9 231.12 530.93 231.58 523.13 220.12 522.66 225.2 506.81 230.08 506.52 256.64 510.75 273.69 515.87 286.28 515.76 303.08 516.84 305.23 518.71 306.37 521.17 308.65 520.11 317.92 518.41 314.51 512.49 318.05 509.28 326.97 507.07 323.08 502.98 321.64 500.55 320.22 495.25 319.7 483.53 328.03 484.71 333.3 490.98 335.72 494.6 337.08 498.35 337.74 503.04 339.42 508.92 341.41 513.04 341.8 517.95 346.33 523.58 350.66 527.6 358.22 532.98 364.02 536.04 361.28 538.21 355.97 541.07 352.61 541.3 351.98 539.23 349.09 537.72 341.64 532.43 339.86 533.51 336.36 531.11 331.15 533.71 333.55 536.51 319.19 545.55 316.55 546.64 315.17 549.44 306.58 553.02 303.48 555.23 299.12 557.18 310.81 562.87 311.7 565.61 313.79 567.89 308.54 570.72 294.61 577.29 275.41 582.28 263.25 586.78 252.1 592.33 250.62 592.68 Z" id="92072" data-nom="SEVRES"/>
<path d="M 763.81 119.26 750.89 110.05 721.32 99.14 731.83 83.72 732.85 83.28 736.96 76.85 732.47 70.44 729.32 66.96 721.76 60.28 715.92 57.79 706.7 55.34 697.39 50.41 683.19 45.8 686.46 41.61 683.42 40.74 693.51 13.99 700.42 15.33 721.18 18.48 749.91 23.08 756.84 24.53 767.43 27.34 776.94 31.08 782.67 34.21 790.36 40.52 792.83 43.26 795.91 52.56 799 68.87 798.71 73.16 797.32 77.31 794.28 83.92 789.45 92.84 786.55 97.01 782.01 102.05 777.25 106.36 766.23 117.24 763.81 119.26 Z" id="92078" data-nom="VILLENEUVE LA GARENNE"/>
<path d="M 553.65 571.39 553.23 569.24 549.6 567.13 545.63 568.62 537.04 570.54 530.39 571.15 533.76 567.21 543.79 559.49 548.71 558.53 553.12 555.58 559.28 552.57 567.33 547.47 569.14 546.72 567.04 543.06 569.41 542.33 565.92 535.9 567.91 534.93 565.59 533.12 564.72 527.96 561.57 526.03 564.88 524.25 563.42 523.06 574.47 517.93 579.69 516.37 591.28 516.57 594.44 516.22 588.98 512.44 593.85 513.31 600.43 512.98 612.26 517.94 650.3 526.35 636.87 537.1 625.83 546.35 615.39 553.11 611.5 555.27 602.8 559.13 593.65 562.75 580.39 566.81 558.96 570.91 553.65 571.39 Z" id="92075" data-nom="VANVES"/>
<path d="M 22.18 552.41 29.11 544.31 32.3 542.02 44.62 541.57 49.18 543.84 56.16 544.21 59.02 543.26 64.21 536.18 67.88 532.57 70.03 532.46 79.95 534.78 90.08 533.9 118.21 529.92 129.15 517.53 128.06 513.9 131.1 513.25 139.65 508.03 143.26 504.65 147.44 503.41 164.12 510.74 164.96 509.24 172.17 511.17 178.93 510.42 181.71 509.3 186.31 508.63 190.13 509.18 203.54 508.42 214.59 506.82 220.35 507.11 225.2 506.81 220.12 522.66 231.58 523.13 231.12 530.93 225.18 530.9 225.06 532.15 220.92 532.11 222.84 538.57 212.06 539.51 208.09 540.26 202.04 540.21 196.72 541.97 174.23 553.1 170.39 555.58 162.39 558.09 156.61 558.01 152.77 556.54 150.94 556.99 146.03 561.39 140.88 567.01 138.22 569.17 130.7 572.8 122.39 568.08 119.5 567.89 99.54 564.79 91.73 577.45 88.28 579.86 71.4 579.35 62.44 576.47 59.22 574.41 55.43 573.24 37.74 564.19 32.3 563.78 25.43 560.05 22.41 556.23 22.18 552.41 Z" id="92077" data-nom="VILLE D AVRAY"/>
<path d="M 545.22 812.12 549.65 806.56 551.78 802.36 555.6 798.01 566.43 797.17 581.53 795.43 586.67 795.4 595.17 796.05 595.46 793.57 606.6 794.15 611.09 779.83 610.94 778.67 604.15 770.54 667.5 760.49 672.12 759.61 674.92 757.5 675.78 753.23 683.41 752.49 690.05 752.82 694.11 753.49 696.52 747.42 727.93 753.18 719.42 761.89 716.7 763.26 714.6 766.56 710.48 769.75 707.77 775.07 708.49 778.53 707.03 780.96 704.68 789.52 701.75 788.55 699.51 791.47 700.71 797.45 697.36 801.29 681 817.19 692.69 821.77 690.23 824.11 693.37 827.2 687.03 830.66 696.19 834.22 704.12 834.18 715.97 839.59 718.87 839.39 725.67 841.67 728.38 843.91 731.27 845 725.4 851.81 730.18 853.16 721.9 860.51 718 862.78 716.6 861.8 712.24 863.48 704.64 867.76 715.85 877.77 709.7 881.83 709.14 883.1 699.13 889.05 705.5 894.69 720.55 890.33 722.12 892.8 718.13 897.26 715.8 900.92 713.28 907.21 710.92 907.31 708.91 909.05 708.3 912.29 705.08 921.44 690.6 923.73 680.27 925.61 675.95 926 661.56 925.54 656.37 911.49 652.22 902.33 651.24 897.18 655.05 878.18 644.73 884.22 632.84 889.37 625.81 891.52 619.05 894.5 601.23 900.09 594.05 901.82 583.94 903.83 570.02 907.22 565.2 909.06 560.82 911.86 556.7 906.56 553.03 903.6 542.16 888.41 541.2 885.4 541.57 882.47 539.47 880.76 538.59 878.58 543.09 878.66 546.16 877.83 548.2 874.65 561.36 868.21 563.12 866.6 567.01 865.51 568.95 863.69 575.45 861.11 581.59 858.05 578.42 855.89 581.87 851.6 583.76 850.22 573.14 841.67 570.67 839.22 569.85 836.66 566.63 834.42 563.32 830.16 559.11 826.63 549.94 823.85 540.43 818.17 545.22 812.12 Z" id="92002" data-nom="ANTONY"/>
</g>
</svg>