<?xml version="1.0"?>
<svg xmlns="http://www.w3.org/2000/svg" version="1.2" baseProfile="tiny" width="800" height="283" viewBox="0 0 800 283" stroke-linecap="round" stroke-linejoin="round">
<g id="75">
<path d="M 387.93 121 379.91 119.08 369.04 116.51 350.7 112.26 347.23 111.49 346.09 110.96 344.98 110.44 338.62 105.88 351.86 103.61 367.86 100.87 377.72 99.17 387.55 100.77 403.18 103.32 413.19 105.45 418.61 106.61 423.91 107.79 416.48 121.09 415 123.74 413.15 127.06 387.93 121 Z" id="75102" data-nom="PARIS 02"/>
<path d="M 409.43 133.71 406.14 139.61 403.2 144.89 402.15 146.76 399.98 148.35 398.65 150.5 396.65 153.5 392.5 157.49 391.95 157.23 386.69 154.73 379.94 149.08 369.61 143.38 366.56 142.74 355.27 140.4 354.55 140.25 345.33 137.85 344.7 137.67 343.52 137.3 339.61 135.74 335.57 134.41 332.43 133.33 328.03 132.01 315.54 128.19 316.76 126.62 317.84 125.3 320.6 121.7 320.05 121.55 322.91 117.83 324.09 116.96 325.8 114.65 327.51 112.33 327.79 111.93 328.95 110.21 329.89 108.83 329.37 107.4 331.08 107.12 335.08 106.44 338.57 105.84 344.98 110.44 346.09 110.96 347.23 111.49 350.7 112.26 369.04 116.51 379.91 119.08 387.93 121 399.26 123.73 413.14 127.06 410.57 131.66 409.43 133.71 Z" id="75101" data-nom="PARIS 01"/>
<path d="M 406.77 212.66 400.96 211.99 400.57 211.93 400.33 211.89 392.09 210.14 384.31 208.5 376.57 206.87 366.95 204.31 367.12 201.39 367.88 200.84 368.05 200.78 368.82 200.17 370.32 197.5 374.25 190.31 378.41 182.76 379.2 181.35 380.58 178.84 382.36 175.96 386.14 169.75 387.87 166.14 390.01 161.65 391.49 158.46 392.5 157.49 393.13 157.69 399.73 159.81 409.65 163.97 410 164.09 410.79 164.33 418.24 166.14 422.1 166.69 427.44 168.27 427.97 168.43 436.05 171.03 437.82 171.61 441.95 173.32 447.47 176.41 450.65 178.39 458.26 184.18 462.14 187.15 458.62 189.32 457.6 190.97 456.45 192.53 449.4 202.03 448.93 202.67 448.45 203.31 444.12 204.69 437.59 206.76 435.39 207.46 429.1 209.47 428.28 209.73 417.52 213.17 416.14 213.6 415.47 213.65 406.77 212.66 Z" id="75105" data-nom="PARIS 05"/>
<path d="M 292.24 183.89 285.4 179.5 284.22 178.75 281.83 177.2 274.34 179 273.76 179.14 271.48 179.96 267.61 177.49 250.77 166.66 250.51 166.83 245.43 163.59 239.15 159.56 233.82 156.13 225.15 150.58 224.69 150.28 216.93 145.33 216.26 144.9 214.63 143.86 220.21 139.4 223.86 136.71 228.78 133.19 234.69 130.43 237.38 129.47 238.07 129.24 245.16 127.5 252.43 126.85 254.23 126.81 265.88 126.62 281.38 126.34 297.31 126.06 307.65 125.85 310.75 126.67 313.64 127.59 315.67 128.23 327.99 132 332.43 133.33 335.57 134.41 339.66 135.76 345.18 137.81 354.55 140.25 353.04 142.99 355.7 143.78 354.03 145.84 350.53 150.12 348.82 152.37 347.83 153.75 347.37 154.51 346.58 156.15 346.5 156.29 343.07 161.76 342.85 162.16 339.96 164.72 335.97 165.37 334.91 166.08 334.17 166.56 329.74 168.39 326.06 169.91 323.28 171.23 322.02 171.85 319.54 173.1 314.37 175.8 312.88 176.58 309.62 178.03 301.47 180.99 299.93 181.51 292.24 183.89 Z" id="75107" data-nom="PARIS 07"/>
<path d="M 315.54 128.19 313.64 127.59 310.75 126.67 307.65 125.85 297.31 126.06 281.38 126.34 265.88 126.62 254.23 126.81 252.8 126.84 252.56 123.42 252 123.19 248.28 121.68 247.31 120.81 245.5 114.91 245.19 113.89 244.1 110.3 241.93 106.58 239.6 102.6 235.19 97.53 232.4 94.34 231.83 93.68 231.52 93.32 231.94 92.75 234.69 88.95 241.06 80.15 241.64 79.34 250.78 77.37 257.68 75.88 265.55 74.18 275.61 72.04 277.32 71.74 285.43 70.76 288.46 70.38 301.24 68.81 301.74 68.76 305.72 67.94 308.65 67.34 311.4 66.78 313.67 66.32 314.08 66.24 323.21 64.39 335.94 61.77 335.74 66.17 335.55 70.43 335.42 74.25 335.42 74.32 335.18 79.9 335.17 80.09 334.85 87.31 333.97 87.46 335.15 92.01 335.52 93.46 334.86 94.95 334.55 95.4 333.71 98.67 332.4 103.77 331.57 107.04 331.08 107.12 329.37 107.4 329.89 108.83 328.95 110.21 327.79 111.93 327.51 112.33 325.8 114.65 324.22 117.01 320.6 121.7 317.72 125.4 316.92 126.42 316.76 126.62 315.54 128.19 Z" id="75108" data-nom="PARIS 08"/>
<path d="M 331.57 107.04 332.4 103.77 333.71 98.67 334.55 95.4 334.86 94.95 335.52 93.46 335.15 92.01 333.97 87.46 334.85 87.31 335.17 80.09 335.18 79.9 335.42 74.32 335.42 74.25 335.55 70.43 335.74 66.17 335.94 61.77 336.74 61.63 339.05 61.03 343.28 58.28 353.03 60.57 353.82 60.83 367.99 65.07 370.51 65.58 376.24 66.4 376.98 66.51 392.02 63.55 395.61 62.85 399.22 62.15 400.16 61.96 401.1 61.85 408.46 60.97 409.12 65.86 409.61 71.05 408.52 74.11 408.49 74.16 407.76 76.18 407.09 81.47 406.4 82.75 404.61 86.03 404.37 86.77 403.28 92.53 403.18 103.32 387.55 100.77 377.72 99.17 367.86 100.87 351.86 103.61 338.62 105.88 338.57 105.84 335.08 106.44 331.57 107.04 Z" id="75109" data-nom="PARIS 09"/>
<path d="M 450.65 178.39 447.47 176.41 441.95 173.32 437.82 171.61 436.05 171.03 427.97 168.43 427.44 168.27 422.1 166.69 418.24 166.14 410.79 164.33 410 164.09 409.65 163.97 399.73 159.81 393.13 157.69 392.5 157.49 396.65 153.5 398.65 150.5 399.98 148.35 402.15 146.76 403.2 144.89 406.14 139.61 409.43 133.71 410.57 131.66 415.43 132.77 420.92 134 421.35 134.18 432.36 137.87 432.49 137.92 438.68 142.38 440.33 143.48 440.51 143.59 444.81 145.64 448.24 147.07 451.75 148.2 457.01 149.81 470.2 152.01 471.8 158.49 472.21 160.26 472.23 160.33 472.24 160.37 471.37 162.23 470.72 163.64 470.53 164.04 470.48 164.14 469.9 165.4 469.79 165.63 466.3 173.34 463.68 179.21 459.96 181.42 459.72 181.56 456.95 183.21 450.65 178.39 Z" id="75104" data-nom="PARIS 04"/>
<path d="M 357.46 201.2 348.59 198.26 344.52 196.92 333.34 193.23 327.91 191.42 325.25 190.53 322.77 189.72 316.91 187.78 313.27 186.55 309.86 185.27 301.47 180.99 309.62 178.03 312.88 176.58 314.37 175.8 319.54 173.1 322.02 171.85 323.28 171.23 326.06 169.91 329.74 168.39 334.17 166.56 334.91 166.08 335.97 165.37 339.96 164.72 342.85 162.16 343.07 161.76 346.5 156.29 346.58 156.15 347.37 154.51 347.83 153.75 348.82 152.37 350.53 150.12 354.03 145.84 355.7 143.78 353.04 142.99 354.55 140.25 355.27 140.4 366.56 142.74 369.61 143.38 379.94 149.08 386.69 154.73 391.95 157.23 392.5 157.49 391.49 158.46 390.01 161.65 387.87 166.14 386.14 169.75 382.36 175.96 380.58 178.84 379.2 181.35 378.41 182.76 374.25 190.31 370.32 197.5 368.82 200.17 368.05 200.78 367.88 200.84 367.12 201.39 366.95 204.31 357.46 201.2 Z" id="75106" data-nom="PARIS 06"/>
<path d="M 470.2 152.01 457.01 149.81 451.75 148.2 448.24 147.07 444.81 145.64 440.51 143.59 440.33 143.48 438.68 142.38 432.49 137.92 432.36 137.87 421.35 134.18 420.92 134 415.43 132.77 410.57 131.66 413.14 127.07 415 123.74 416.48 121.09 423.91 107.79 426.49 108.38 429.95 109.18 441.45 110.94 450.17 112.2 453.16 112.63 454.99 113.73 456.35 114.54 457.93 117.17 461.39 122.94 461.51 123.13 462.92 125.48 464.37 127.93 464.43 128.05 464.48 128.18 465.62 132.84 466.15 135.05 466.8 137.81 468.76 145.98 470.2 152.01 Z" id="75103" data-nom="PARIS 03"/>
<path d="M 390.49 282 390.81 276.63 390.81 276.6 391.26 274.61 392.48 270.24 392.62 269.72 390.19 267.06 386.28 264.35 385.64 263.43 384.77 262.21 383.19 259.47 382.25 256.29 383.08 248.59 382.88 245.97 382.84 245.47 382.83 241.83 382.68 240.48 382.47 239.57 381.95 237.65 381.67 234.8 381.52 231.19 381.31 229.88 381.3 228.67 381.29 228.07 381.29 227.6 381.69 225.56 382.73 220.05 383.73 213.5 384.31 208.5 392.09 210.14 400.33 211.89 400.57 211.93 400.96 211.99 406.77 212.66 415.47 213.65 416.14 213.6 417.52 213.17 428.28 209.73 429.1 209.47 435.39 207.46 437.59 206.76 444.12 204.69 448.45 203.31 448.93 202.67 449.4 202.03 456.45 192.53 457.6 190.97 458.62 189.32 462.14 187.15 464.69 189.08 472.38 194.88 481.93 201.9 485.07 204.24 490.65 209.34 498.02 216.15 504.03 221.09 510.75 226.25 516.75 230.99 518.32 232.22 524.28 236.93 527.78 240 530.47 242.28 532.17 243.57 540.85 249.6 536.18 251.95 512.47 260.39 510 262.71 470.83 275.58 453.6 281.05 429.29 281.33 417.86 273 400.06 281.68 391.98 280.89 390.49 282 Z" id="75113" data-nom="PARIS 13"/>
<path d="M 569.63 176.85 559.23 175.91 554.18 175.18 550.95 174.68 540.32 173.05 538.36 172.76 521.63 170.23 519.8 169.97 512.64 169.41 507.91 169.19 502.68 168.36 500.29 167.78 490.79 165.44 487.34 164.59 486.58 164.38 481.43 162.87 479.95 162.28 479.25 161.93 478 161.21 476.35 160.15 476.18 160.09 476.03 160.07 475.95 160.06 472.24 160.37 472.23 160.33 472.21 160.26 471.8 158.49 470.2 152.01 468.76 145.98 466.8 137.81 466.15 135.05 465.62 132.84 464.48 128.18 464.43 128.05 464.37 127.93 462.92 125.48 461.51 123.13 461.39 122.94 457.93 117.17 456.35 114.54 455 113.72 460.49 111.46 463.17 110.6 466.57 109.64 467.29 109.4 469.57 108.62 472.87 107.37 473.86 107.02 484.42 103.77 485.07 103.57 486.74 102.98 488.07 102.42 488.82 102.08 497.52 98.96 497.74 98.91 502.19 103.04 509.58 108.83 517.53 114.78 517.71 115.12 518.75 117.17 531.23 128.1 531.95 129.16 532.26 129.8 534.71 134.87 537 139.66 538.45 142.69 538.65 142.91 538.82 143.03 538.99 143.11 539.12 143.17 539.35 143.25 543.37 144.46 547.4 145.66 548.03 145.99 554.5 149.4 556.47 152.3 559.77 156.51 563.13 160.81 565 163.21 567.42 166.33 568.41 169.33 569.09 171.38 570.1 174.43 569.63 176.85 Z" id="75111" data-nom="PARIS 11"/>
<path d="M 454.99 113.73 453.16 112.63 450.17 112.2 441.45 110.94 429.95 109.18 426.49 108.38 423.91 107.79 418.61 106.61 413.19 105.45 403.18 103.32 403.28 92.53 404.37 86.77 404.61 86.03 406.4 82.75 407.09 81.47 407.76 76.18 408.49 74.16 408.52 74.11 409.61 71.05 409.12 65.86 408.46 60.97 409.48 60.9 412.23 60.69 418.33 60.23 439.11 58.74 440.27 58.69 455.47 58.8 456.66 58.82 457.77 58.88 468.05 59.55 468.33 59.56 468.47 59.57 468.62 59.58 468.77 59.6 468.91 59.61 469.2 59.65 469.33 59.68 469.56 59.72 469.79 59.78 470.08 59.87 470.23 59.92 470.36 59.98 470.43 60.01 470.46 60.02 470.57 60.07 470.63 60.1 470.66 60.12 471.49 61.27 472.05 62.2 472.37 62.52 472.51 62.63 472.93 62.91 473.84 63.35 474.94 63.81 475.17 63.93 475.4 64.05 475.76 64.47 475.81 68.25 475.86 72.67 475.87 73.01 475.87 73.22 475.92 78.16 475.93 79.62 482.8 85.63 490.35 92.27 491.67 93.39 497.74 98.91 497.52 98.96 488.82 102.08 488.07 102.42 486.74 102.98 485.07 103.57 484.42 103.77 473.86 107.02 472.87 107.37 469.57 108.62 467.29 109.4 466.57 109.64 463.17 110.6 460.49 111.46 454.99 113.73 Z" id="75110" data-nom="PARIS 10"/>
<path d="M 127.3 223.03 101.95 220.07 90.57 206.74 89.18 193.76 93.46 185.04 87.41 184.88 60.73 178.04 53.83 172.04 50.49 170.3 1.24 159.46 1 157.78 1.2 154.23 1.82 151.32 3.93 145.23 6.43 139.08 11.42 129.79 14.55 121.36 15.85 119.4 20.03 114.55 27.14 107.06 39.47 103.58 52.67 100.18 56.84 97.68 63.61 92.22 70.99 84.94 100.88 92.34 102.79 91.75 112.53 72.76 114.07 72.17 174.51 79.71 182.02 77.47 194.95 81.7 195.43 81.85 206.04 85.2 208.66 86.04 210.6 86.67 213.8 87.69 220.82 89.92 229.92 92.82 231.52 93.32 231.83 93.68 232.4 94.34 235.19 97.53 239.6 102.6 241.93 106.58 244.1 110.3 245.19 113.89 245.5 114.91 247.31 120.81 248.28 121.68 252 123.19 252.56 123.42 252.8 126.84 252.43 126.85 245.16 127.5 238.07 129.24 237.38 129.47 234.69 130.43 228.78 133.19 223.86 136.71 220.21 139.4 214.63 143.86 212.32 145.73 208.37 151.22 202.12 155.64 196.82 159.45 192.4 162.56 191.39 163.26 182.53 169.5 172.88 177.01 168.74 180.55 167.07 182.27 155.27 194.29 149.46 200.34 147.69 202.24 142.35 208 134.5 215.65 127.3 223.03 Z" id="75116" data-nom="PARIS 16"/>
<path d="M 231.52 93.32 229.92 92.82 220.82 89.92 213.8 87.69 210.6 86.67 208.66 86.04 206.04 85.2 195.43 81.85 194.95 81.7 182.02 77.47 182.55 77.31 185.61 63.72 201.06 51.71 218.97 42.92 220.05 42.32 231.57 40.99 243 34.99 259.48 27.23 272 21.25 287.51 15.4 307.81 9.2 313.86 5.56 333.37 4.9 345.58 4.67 343.34 11.32 341.8 15.76 339.51 22.57 334.94 36.17 334.1 38.67 333.01 41.85 331.82 45.34 331.3 47 330.77 48.7 333.26 54.12 336.74 61.63 335.94 61.77 323.21 64.39 314.08 66.24 313.67 66.32 311.4 66.78 308.65 67.34 305.72 67.94 301.74 68.76 301.24 68.81 288.46 70.38 285.43 70.76 277.32 71.74 275.61 72.04 265.55 74.18 257.68 75.88 250.78 77.37 241.64 79.34 241.06 80.15 234.69 88.95 231.94 92.75 231.52 93.32 Z" id="75117" data-nom="PARIS 17"/>
<path d="M 251.48 251.45 238.12 248.54 222.37 245.02 193.44 232.84 179.51 227.71 168.07 237.03 159.1 242.44 143.13 242.73 142.48 242.34 141.47 230.85 142.4 230.12 149.08 226.39 150.31 225.96 143.1 220.82 141.41 220.57 127.3 223.03 134.5 215.65 142.35 208 147.69 202.24 149.46 200.34 155.27 194.29 167.07 182.27 168.74 180.55 172.88 177.01 182.53 169.5 191.39 163.26 192.4 162.56 196.82 159.45 202.12 155.64 208.37 151.22 212.32 145.73 214.63 143.86 216.26 144.9 216.93 145.33 224.69 150.28 225.15 150.58 233.82 156.13 239.15 159.56 245.43 163.59 250.51 166.83 250.77 166.66 267.61 177.49 271.48 179.96 273.76 179.14 274.34 179 281.83 177.2 284.22 178.75 285.4 179.5 292.24 183.89 299.93 181.51 301.47 180.99 309.86 185.27 313.27 186.55 316.91 187.78 322.77 189.72 325.25 190.53 327.91 191.42 320.96 197.03 317.81 199.6 317.45 199.9 318.57 202.64 317.13 203.86 316.33 203.47 312.44 201.49 303.85 208.85 296.47 215.1 295.62 215.82 292.97 218.06 290.15 220.35 289.97 220.46 286.57 223.18 283.39 225.75 282.91 225.98 277.33 230.68 275.66 232.01 269.02 237.14 259.37 245.02 258.16 246 251.48 251.45 Z" id="75115" data-nom="PARIS 15"/>
<path d="M 390.49 282 387.6 280.95 383.14 280.13 357.21 278.76 350.79 277.86 352.8 274.02 283.32 258.57 267.65 255.11 251.48 251.45 258.16 246 259.37 245.02 269.02 237.14 275.66 232.01 277.33 230.68 282.91 225.98 283.39 225.75 286.57 223.18 289.97 220.46 290.15 220.35 292.97 218.06 295.62 215.82 296.47 215.1 303.85 208.85 312.44 201.49 316.33 203.47 317.13 203.86 318.57 202.64 317.45 199.9 317.81 199.6 320.96 197.03 327.91 191.42 333.34 193.23 344.52 196.92 348.59 198.26 357.46 201.2 366.95 204.31 376.57 206.87 384.31 208.5 383.73 213.5 382.73 220.05 381.69 225.56 381.29 227.6 381.29 228.07 381.3 228.67 381.31 229.88 381.52 231.19 381.67 234.8 381.95 237.65 382.47 239.57 382.68 240.48 382.83 241.83 382.84 245.47 382.88 245.97 383.08 248.59 382.25 256.29 383.19 259.47 384.77 262.21 385.64 263.43 386.28 264.35 390.19 267.06 392.62 269.72 392.48 270.24 391.26 274.61 390.81 276.6 390.81 276.63 390.49 282 Z" id="75114" data-nom="PARIS 14"/>
<path d="M 540.85 249.6 532.17 243.57 530.47 242.28 527.78 240 524.28 236.93 518.32 232.22 516.75 230.99 510.75 226.25 504.03 221.09 498.02 216.15 490.65 209.34 485.07 204.24 481.93 201.9 472.76 195.16 471.73 194.4 462.14 187.15 458.26 184.18 456.94 183.21 459.72 181.56 459.96 181.41 463.67 179.21 466.3 173.34 469.79 165.63 469.9 165.4 470.48 164.14 470.53 164.04 470.72 163.64 471.37 162.23 472.24 160.37 475.95 160.06 476.03 160.07 476.18 160.09 476.35 160.15 478 161.21 479.25 161.93 479.95 162.28 481.43 162.87 486.58 164.38 487.34 164.59 490.79 165.44 500.29 167.78 502.68 168.36 507.91 169.19 512.64 169.41 519.8 169.97 521.63 170.23 538.36 172.76 540.32 173.05 550.95 174.68 554.18 175.18 559.23 175.91 569.63 176.85 576.67 177.46 583.71 178.08 585.75 178.28 593.01 178.98 608.55 180.29 616.72 180.99 624.45 181.68 623.47 186.58 618.92 201.45 616.39 210.07 612.38 220.9 609.27 222.97 614.04 223.9 619.66 224.06 623.49 223.69 626.77 223.08 633.79 221.01 642.64 217.66 644.54 216.79 642.53 212.88 641.67 208.85 640.27 204.41 638.82 201.56 636.07 198.2 635.59 195.1 637.14 193.11 637.08 192.04 644.31 188.55 645.86 189.56 649.48 194.44 652.87 197.41 653.87 197.57 681.77 199.97 681.9 199.3 693.31 200.28 695.74 188.32 704.1 189.05 704.93 183.94 723.64 184.48 723.26 187.14 732.91 188.09 745.02 189.86 761.14 191.95 769.41 193.53 774.02 194.71 777.49 195.93 781.77 197.96 786.79 201.61 788.59 203.29 790.93 206.16 794.86 210.08 797.66 212.57 799 214.42 798.94 217.63 797.49 221.4 795.28 223.76 789.26 226.85 787.54 228.08 784.85 231.1 784.02 232.89 782.48 237.8 782.08 240.23 782.38 243.42 785.06 243.61 787.47 244.38 786.12 247.8 784.46 253.6 782.57 257.58 776.85 267.56 775.98 270.37 776.52 271.39 762.96 277.95 758.14 277.93 749.69 277.54 745.35 277.18 737.61 275.36 733.74 274.86 727.2 274.64 711.1 274.87 707.75 274.6 702.72 273.63 700.83 273.57 693.83 274.02 694.22 271.14 692.72 270.35 689.34 269.53 686.79 269.37 683.53 270.57 683.93 267.72 671.16 258.86 672.2 257.71 667.97 256.29 662.64 255.14 657.74 254.55 650.25 254.38 641.93 254.77 637.36 254.73 629.89 253.17 626.17 252.57 623.07 252.43 615.36 252.64 610.28 252.24 604.42 250.88 600.54 249.03 596.34 246.35 590.21 241.73 586.22 239.2 580.57 236.85 558.6 243.09 554.15 243.79 540.85 249.6 Z" id="75112" data-nom="PARIS 12"/>
<path d="M 497.74 98.91 491.67 93.39 490.35 92.27 482.8 85.63 475.93 79.62 475.92 78.16 475.87 73.22 475.87 73.01 475.86 72.67 475.81 68.25 475.76 64.47 475.4 64.05 475.17 63.93 474.94 63.81 473.84 63.35 472.93 62.91 472.51 62.63 472.37 62.52 472.05 62.2 471.49 61.27 470.66 60.12 470.63 60.1 470.57 60.07 470.46 60.02 470.43 60.01 470.36 59.98 470.23 59.92 470.08 59.87 469.79 59.78 469.56 59.72 469.33 59.68 469.2 59.65 468.91 59.61 468.77 59.6 468.62 59.58 468.47 59.57 468.33 59.56 468.05 59.55 457.77 58.88 461.4 55.06 462.67 53.72 463.89 52.32 464.62 51.49 467.17 44.97 469.55 40.32 471.63 35.44 473.57 30.89 475.11 27.46 476.72 25.48 480.85 22.97 480.66 22.82 479.6 21.96 479.26 21.69 479.13 21.32 476.3 18.99 476.12 15.51 476.06 14.5 475.84 8.54 475.58 3.38 475.58 3.34 475.57 3.1 475.57 3.03 475.58 2.92 475.6 2.78 475.66 2.6 475.89 2.16 475.99 1.99 521.95 1 542.33 4.87 557.94 13.69 565.25 25.59 568.02 36.19 569.85 46.31 569.94 55.47 572.84 60.69 577.35 64.59 587.53 69.1 602.84 72.24 607.66 78.23 598.74 80.79 595.03 82.12 594.19 82.27 593.49 82.39 591.89 82.81 580.72 86.09 570.31 87.5 569.03 87.79 563.72 87.94 557.32 88.53 551.48 88.21 549.92 88.14 545.75 87.84 541.3 87.9 538.41 88.66 536.68 89.46 535.29 90.04 534.2 90.28 531.69 90.42 530.03 90.53 529.75 90.59 529.51 90.66 527.99 91.26 526.02 92.26 523.51 93.41 517.59 94.28 514.78 94.75 513.68 94.96 509.44 95.83 508.19 96.1 507.04 96.37 497.74 98.91 Z" id="75119" data-nom="PARIS 19"/>
<path d="M 376.98 66.51 376.24 66.4 370.51 65.58 367.99 65.07 353.82 60.83 353.03 60.57 343.28 58.28 339.05 61.03 336.74 61.63 333.26 54.12 330.77 48.7 331.3 47 331.82 45.34 333.01 41.85 334.1 38.67 334.94 36.17 339.51 22.57 341.8 15.76 343.34 11.32 345.58 4.67 366.11 4.21 449.33 2.53 466.41 2.22 471.44 2.13 475.02 2.07 475.95 2.05 475.89 2.16 475.66 2.6 475.6 2.78 475.58 2.92 475.57 3.03 475.57 3.1 475.58 3.34 475.58 3.38 475.84 8.54 476.06 14.5 476.12 15.51 476.3 18.99 479.13 21.32 479.26 21.69 479.6 21.96 480.66 22.82 480.85 22.97 476.72 25.48 475.11 27.46 473.57 30.89 471.63 35.44 469.55 40.32 467.17 44.97 464.62 51.49 463.89 52.32 462.67 53.72 461.4 55.06 457.77 58.88 456.66 58.82 455.47 58.8 440.27 58.69 439.11 58.74 418.33 60.23 412.23 60.69 409.48 60.9 408.46 60.97 401.1 61.85 400.16 61.96 399.22 62.15 395.61 62.85 392.02 63.55 376.98 66.51 Z" id="75118" data-nom="PARIS 18"/>
<path d="M 624.45 181.68 616.72 180.99 608.55 180.29 593.01 178.98 585.75 178.28 583.71 178.08 576.67 177.46 569.63 176.85 570.1 174.43 569.09 171.38 568.41 169.33 567.42 166.33 565 163.21 563.13 160.81 559.77 156.51 556.47 152.3 554.5 149.4 548.03 145.99 547.4 145.66 543.37 144.46 539.35 143.25 539.12 143.17 538.99 143.11 538.82 143.03 538.65 142.91 538.45 142.69 537 139.66 534.71 134.87 532.26 129.8 531.95 129.16 531.23 128.1 518.75 117.17 517.71 115.12 517.53 114.78 509.58 108.83 502.19 103.04 497.74 98.91 507.04 96.37 508.19 96.1 509.44 95.83 513.68 94.96 514.78 94.75 517.59 94.28 523.51 93.41 526.02 92.26 527.99 91.26 529.51 90.66 529.75 90.59 530.03 90.53 531.69 90.42 534.2 90.28 535.29 90.04 536.68 89.46 538.41 88.66 541.3 87.9 545.75 87.84 549.92 88.14 551.48 88.21 557.32 88.53 563.72 87.94 569.03 87.79 570.31 87.5 580.72 86.09 591.89 82.81 593.49 82.39 594.19 82.27 595.03 82.12 598.74 80.79 607.66 78.23 613.09 84.86 616.73 97.21 618.01 109.19 617.52 124.86 618.28 130.62 620.03 141.18 625.87 174.61 624.45 181.68 Z" id="75120" data-nom="PARIS 20"/>
</g>
</svg>