<svg width="87" height="144" viewBox="0 0 87 144" fill="none" xmlns="http://www.w3.org/2000/svg">
<path d="M13.2002 144L13.8002 140.8L33.0002 132.4L49.8002 36.8L17.4002 51.2L19.0002 42L67.2002 12H87.0002L66.2002 132.4L83.0002 140.8L82.4002 144H13.2002Z" fill="#E3E3FD"/>
<path d="M3.23445 135.631L2.79034 138H5.2002H74.4002H76.0601L76.3659 136.369L76.9659 133.169L77.244 131.686L75.8946 131.011L60.424 123.276L80.971 4.34047L81.3753 2H79.0002H59.2002H58.6286L58.1434 2.30203L9.94337 32.302L9.18319 32.7752L9.02977 33.6573L7.42977 42.8573L6.78761 46.5498L10.2125 45.0276L39.1803 32.153L23.216 122.998L4.99856 130.968L4.0294 131.392L3.83445 132.431L3.23445 135.631Z" stroke="#000091" stroke-width="4"/>
</svg>
