<svg fill="none" height="146" viewBox="0 0 118 146" width="118" xmlns="http://www.w3.org/2000/svg"><path d="m13.5996 146 1.8-9c11.6-11.733 21.4-21.933 29.4-30.6 8-8.8 14.4667-16.4667 19.4-23 5.0667-6.5333 8.9333-12.3333 11.6-17.4 2.8-5.2 4.6667-9.9333 5.6-14.2 1.0667-4.4 1.6-8.8 1.6-13.2 0-4.2667-1.0667-7.9333-3.2-11s-5.7333-4.6-10.8-4.6-9.0667 2.0667-12 6.2c-2.9333 4-4.9333 9.6-6 16.8l-1.4 9.2-2.4 2.6h-14.4c-2.4 0-4.1333-.4667-5.2-1.4s-1.3333-3.2667-.8-7c.8-4.1333 2.7333-8.2667 5.8-12.4 3.0667-4.2667 7.7333-8.6667 14-13.2 2.9333-2 5.8667-3.8667 8.8-5.6 2.9333-1.8667 6.4667-3.3333 10.6-4.4 4.2667-1.2 9.6-1.8 16-1.8 6.8 0 12.8667 1.2 18.2004 3.6 5.466 2.2667 9.733 5.6 12.8 10 3.2 4.2667 4.8 9.4667 4.8 15.6 0 5.0667-1.067 10-3.2 14.8-2.134 4.8-5.867 10.0667-11.2 15.8-5.3337 5.7333-12.6671 12.4667-22.0004 20.2-9.2 7.6-20.8667 16.8-35 27.6h47l16.2004-20.2h3.2l-9.2 46.6z" fill="#e3e3fd"/><path d="m3.63845 137.608-.47845 2.392h2.43961 89.99999 1.6438l.3183-1.613 9.2003-46.5996.471-2.3874h-2.433-3.2-.96l-.601.7487-15.5992 19.4513h-40.1431c12.0619-9.274 22.1887-17.2941 30.3767-24.0581l.0023-.0019c9.368-7.7621 16.7734-14.5568 22.1883-20.3778 5.417-5.8238 9.308-11.2745 11.563-16.3499 2.243-5.0461 3.373-10.2555 3.373-15.6123 0-6.4855-1.696-12.1142-5.179-16.7721-3.301-4.7235-7.8707-8.27159-13.6278-10.66394-5.6233-2.5253-11.9676-3.76396-18.9936-3.76396-6.4994 0-12.0225.60665-16.5206 1.86883-4.2705 1.10391-7.9904 2.63623-11.1248 4.62585-2.9627 1.75152-5.9231 3.63592-8.8813 5.65282l-.023.0157-.0225.0164c-6.3607 4.6013-11.2069 9.1425-14.443 13.6409-3.201 4.3173-5.281 8.7184-6.1483 13.1995l-.0094.0484-.007.0488c-.2781 1.9469-.3679 3.6531-.2072 5.0599.1552 1.3574.5825 2.7764 1.6701 3.7281 1.6111 1.4097 3.942 1.8948 6.517 1.8948h14.4.8757l.5939-.6434 2.4-2.6.4155-.4501.0921-.6056 1.4001-9.2.0011-.0078c1.0397-7.0176 2.9624-12.2668 5.6344-15.9104l.0092-.0125.009-.0127c2.5585-3.6051 5.9507-5.3575 10.369-5.3575 4.6668 0 7.5238 1.3928 9.1582 3.7421 1.868 2.6853 2.8418 5.9395 2.8418 9.8579 0 4.2367-.5133 8.4786-1.5437 12.7288l-.0053.0218-.0048.022c-.8824 4.0339-2.6665 8.5895-5.4071 13.6792l-.0045.0083-.0044.0084c-2.5942 4.9289-6.387 10.6281-11.4106 17.1059l-.0079.0101-.0078.0103c-4.8834 6.4672-11.3053 14.0834-19.2786 22.8542-7.9788 8.644-17.7603 18.824-29.34756 30.545l-.42136.426-.11753.588z" stroke="#000091" stroke-width="4"/></svg>