<svg width="263" height="110" viewBox="0 0 263 110" fill="none" xmlns="http://www.w3.org/2000/svg">
<path d="M21.3289 97.0582C17.6521 97.0582 14.4938 96.0919 11.854 94.1592C9.26141 92.2265 7.25802 89.4689 5.84385 85.8864C4.47683 82.2567 3.79332 77.9671 3.79332 73.0175C3.79332 68.3979 4.52397 64.2968 5.98527 60.7143C7.49371 57.0846 9.56781 54.2327 12.2076 52.1586C14.8474 50.0374 17.8878 48.9767 21.3289 48.9767C25.0058 48.9767 28.164 49.9431 30.8038 51.8758C33.4436 53.8085 35.447 56.5896 36.814 60.2193C38.2282 63.8019 38.9353 68.0679 38.9353 73.0175C38.9353 77.6371 38.181 81.7617 36.6726 85.3914C35.1642 88.974 33.09 91.8258 30.4503 93.9471C27.8105 96.0212 24.7701 97.0582 21.3289 97.0582ZM22.531 93.5935C23.7566 93.5935 24.7701 92.8158 25.5714 91.2602C26.3728 89.6575 26.962 87.4891 27.3391 84.755C27.7162 81.9739 27.9048 78.792 27.9048 75.2094C27.9048 71.0141 27.6455 67.1959 27.127 63.7547C26.6556 60.3136 25.8778 57.556 24.7936 55.4819C23.7094 53.4078 22.2481 52.3707 20.4097 52.3707C18.5242 52.3707 17.11 54.0441 16.1672 57.391C15.2716 60.6907 14.8238 65.1218 14.8238 70.6841C14.8238 74.8795 15.083 78.7213 15.6016 82.2095C16.1201 85.6507 16.945 88.4083 18.0764 90.4824C19.2077 92.5565 20.6926 93.5935 22.531 93.5935ZM51.6307 96.3512V95.2198L58.3479 92.7451V57.8152L46.6104 63.1184V60.29L64.2167 49.6838H68.6713V92.7451L74.6815 95.2198V96.3512H51.6307Z" fill="#E3E3FD"/>
<path d="M10.3234 90.3383L9.90077 90.9052L9.90568 90.9088L10.3234 90.3383ZM4.31319 82.0655L3.65141 82.3147L3.6555 82.3251L4.31319 82.0655ZM4.45461 56.8934L3.80166 56.622L3.7999 56.6263L4.45461 56.8934ZM10.6769 48.3377L11.1138 48.8937L11.1198 48.8889L10.6769 48.3377ZM29.2732 48.0549L29.6909 47.4844L29.2732 48.0549ZM35.2833 56.3984L34.6216 56.6477L34.6257 56.658L35.2833 56.3984ZM35.1419 81.5705L35.7936 81.8449L35.7949 81.8419L35.1419 81.5705ZM28.9196 90.1262L29.3565 90.6822L29.3625 90.6774L28.9196 90.1262ZM24.0408 87.4393L24.6694 87.7631L24.6732 87.7555L24.0408 87.4393ZM25.8085 80.9341L26.5089 81.0308L26.5091 81.0292L25.8085 80.9341ZM25.5963 59.9338L24.8957 60.0298L24.8971 60.0392L25.5963 59.9338ZM23.263 51.661L22.6363 51.9885L23.263 51.661ZM14.6366 53.5701L13.956 53.3784L13.9542 53.3849L14.6366 53.5701ZM14.0709 78.3887L13.3715 78.4926L13.3717 78.494L14.0709 78.3887ZM16.5457 86.6615L17.1664 86.3229L16.5457 86.6615ZM19.7983 92.5303C16.2522 92.5303 13.2448 91.6009 10.7411 89.7678L9.90568 90.9088C12.6815 92.9411 15.9907 93.9444 19.7983 93.9444V92.5303ZM10.746 89.7714C8.2774 87.9312 6.34609 85.2897 4.97089 81.8059L3.6555 82.3251C5.10862 86.0063 7.18411 88.8801 9.90079 90.9052L10.746 89.7714ZM4.9749 81.8163C3.64489 78.2848 2.96974 74.0835 2.96974 69.1966H1.55558C1.55558 74.2088 2.24746 78.5867 3.65149 82.3147L4.9749 81.8163ZM2.96974 69.1966C2.96974 64.6512 3.68862 60.6435 5.10932 57.1604L3.7999 56.6263C2.298 60.3084 1.55558 64.5028 1.55558 69.1966H2.96974ZM5.10755 57.1647C6.57751 53.6277 8.58435 50.8811 11.1138 48.8937L10.2401 47.7817C7.48996 49.9425 5.34859 52.8998 3.80167 56.622L5.10755 57.1647ZM11.1198 48.8889C13.6318 46.8703 16.5154 45.8629 19.7983 45.8629V44.4488C16.1989 44.4488 13.0015 45.5626 10.234 47.7865L11.1198 48.8889ZM19.7983 45.8629C23.3443 45.8629 26.3517 46.7923 28.8555 48.6254L29.6909 47.4844C26.9151 45.4521 23.6058 44.4488 19.7983 44.4488V45.8629ZM28.8555 48.6254C31.3652 50.4629 33.2939 53.1222 34.6216 56.6476L35.9451 56.1492C34.5388 52.4152 32.4606 49.5122 29.6909 47.4844L28.8555 48.6254ZM34.6257 56.658C35.9993 60.1381 36.6975 64.3117 36.6975 69.1966H38.1117C38.1117 64.1823 37.3957 59.8239 35.941 56.1388L34.6257 56.658ZM36.6975 69.1966C36.6975 73.7391 35.956 77.7692 34.489 81.2992L35.7949 81.8419C37.3447 78.1125 38.1117 73.8933 38.1117 69.1966H36.6975ZM34.4903 81.2961C33.0206 84.7867 31.0123 87.5375 28.4767 89.575L29.3625 90.6774C32.1065 88.4724 34.2464 85.5195 35.7936 81.8449L34.4903 81.2961ZM28.4828 89.5702C25.9709 91.5438 23.0853 92.5303 19.7983 92.5303V93.9444C23.3935 93.9444 26.5888 92.8568 29.3565 90.6822L28.4828 89.5702ZM21.0003 90.4797C22.5983 90.4797 23.8055 89.44 24.6693 87.7631L23.4122 87.1155C22.6733 88.5498 21.8536 89.0656 21.0003 89.0656V90.4797ZM24.6732 87.7555C25.5224 86.057 26.1263 83.8046 26.5089 81.0308L25.108 80.8375C24.7364 83.5318 24.1618 85.6161 23.4083 87.1231L24.6732 87.7555ZM26.5091 81.0292C26.8915 78.2093 27.0812 74.9947 27.0812 71.3885H25.667C25.667 74.9475 25.4797 78.0966 25.1078 80.8391L26.5091 81.0292ZM27.0812 71.3885C27.0812 67.1648 26.8202 63.3107 26.2955 59.8285L24.8971 60.0392C25.4095 63.4392 25.667 67.2216 25.667 71.3885H27.0812ZM26.2969 59.8379C25.8193 56.3512 25.0252 53.5059 23.8896 51.3334L22.6363 51.9885C23.6691 53.9643 24.4306 56.6342 24.8958 60.0298L26.2969 59.8379ZM23.8896 51.3334C22.7227 49.1012 21.0559 47.8427 18.8791 47.8427V49.2569C20.3791 49.2569 21.6348 50.0726 22.6363 51.9885L23.8896 51.3334ZM18.8791 47.8427C17.6934 47.8427 16.6815 48.3814 15.8642 49.3485C15.0648 50.2945 14.4405 51.6585 13.956 53.3784L15.3172 53.7618C15.7755 52.1348 16.3296 50.9887 16.9443 50.2613C17.5413 49.5549 18.1792 49.2569 18.8791 49.2569V47.8427ZM13.9542 53.3849C13.0352 56.7707 12.586 61.2721 12.586 66.8632H14.0002C14.0002 61.3296 14.4467 56.969 15.319 53.7553L13.9542 53.3849ZM12.586 66.8632C12.586 71.0871 12.847 74.9642 13.3715 78.4926L14.7703 78.2847C14.2578 74.8366 14.0002 71.0301 14.0002 66.8632H12.586ZM13.3717 78.494C13.8973 81.9818 14.74 84.8277 15.925 87.0001L17.1664 86.3229C16.0887 84.347 15.2816 81.6777 14.7701 78.2833L13.3717 78.494ZM15.925 87.0001C17.139 89.2258 18.8272 90.4797 21.0003 90.4797V89.0656C19.4966 89.0656 18.2151 88.2454 17.1664 86.3229L15.925 87.0001ZM50.1 92.5303H49.3929V93.2374H50.1V92.5303ZM50.1 91.3989L49.8556 90.7355L49.3929 90.9059V91.3989H50.1ZM56.8173 88.9242L57.0617 89.5876L57.5244 89.4172V88.9242H56.8173ZM56.8173 53.9944H57.5244V52.899L56.5261 53.35L56.8173 53.9944ZM45.0797 59.2975H44.3727V60.3928L45.3709 59.9418L45.0797 59.2975ZM45.0797 56.4691L44.7149 55.8635L44.3727 56.0696V56.4691H45.0797ZM62.6861 45.8629V45.1558H62.4895L62.3212 45.2572L62.6861 45.8629ZM67.1407 45.8629H67.8477V45.1558H67.1407V45.8629ZM67.1407 88.9242H66.4336V89.3977L66.8714 89.578L67.1407 88.9242ZM73.1509 91.3989H73.8579V90.9254L73.4201 90.7451L73.1509 91.3989ZM73.1509 92.5303V93.2374H73.8579V92.5303H73.1509ZM50.8071 92.5303V91.3989H49.3929V92.5303H50.8071ZM50.3444 92.0624L57.0617 89.5876L56.5728 88.2607L49.8556 90.7355L50.3444 92.0624ZM57.5244 88.9242V53.9944H56.1102V88.9242H57.5244ZM56.5261 53.35L44.7886 58.6531L45.3709 59.9418L57.1084 54.6387L56.5261 53.35ZM45.7868 59.2975V56.4691H44.3727V59.2975H45.7868ZM45.4446 57.0748L63.0509 46.4686L62.3212 45.2572L44.7149 55.8635L45.4446 57.0748ZM62.6861 46.57H67.1407V45.1558H62.6861V46.57ZM66.4336 45.8629V88.9242H67.8477V45.8629H66.4336ZM66.8714 89.578L72.8816 92.0528L73.4201 90.7451L67.4099 88.2703L66.8714 89.578ZM72.4438 91.3989V92.5303H73.8579V91.3989H72.4438ZM73.1509 91.8232H50.1V93.2374H73.1509V91.8232Z" fill="#000091"/>
<g clip-path="url(#clip0_4490_264384)">
<path d="M207.011 68.6369C210.496 68.6369 213.321 65.8243 213.321 62.3547C213.321 58.8852 210.496 56.0725 207.011 56.0725C203.525 56.0725 200.7 58.8852 200.7 62.3547C200.7 65.8243 203.525 68.6369 207.011 68.6369Z" fill="white"/>
<path d="M207.014 68.8728C205.719 68.8728 204.454 68.4906 203.377 67.7744C202.3 67.0582 201.461 66.0403 200.966 64.8493C200.47 63.6583 200.34 62.3478 200.593 61.0835C200.846 59.8192 201.469 58.6578 202.385 57.7463C203.3 56.8348 204.467 56.214 205.737 55.9626C207.007 55.7111 208.323 55.8401 209.52 56.3334C210.716 56.8268 211.739 57.6622 212.458 58.734C213.177 59.8058 213.561 61.066 213.561 62.3551C213.559 64.0831 212.869 65.7398 211.642 66.9617C210.414 68.1836 208.75 68.8709 207.014 68.8728ZM207.014 56.3085C205.813 56.3085 204.639 56.6631 203.64 57.3275C202.641 57.9919 201.863 58.9363 201.403 60.0411C200.943 61.146 200.823 62.3618 201.057 63.5347C201.292 64.7076 201.87 65.785 202.719 66.6306C203.569 67.4763 204.651 68.0522 205.829 68.2855C207.008 68.5188 208.229 68.399 209.339 67.9414C210.448 67.4837 211.397 66.7087 212.064 65.7144C212.732 64.72 213.088 63.551 213.088 62.3551C213.086 60.752 212.446 59.215 211.307 58.0815C210.168 56.9479 208.625 56.3103 207.014 56.3085Z" fill="#000091"/>
<path d="M196.263 91.3542C196.263 91.3542 191.018 90.0483 188.684 86.6511C188.643 86.6651 188.599 86.6725 188.555 86.6729C187.747 86.6866 186.939 86.6842 186.131 86.6785C186.128 86.7588 186.101 86.8363 186.051 86.8998C186.002 86.9634 185.933 87.0096 185.856 87.0319C185.686 87.0782 185.517 87.1315 185.348 87.1866C185.166 87.2827 184.984 87.3998 184.797 87.4453C184.468 87.5252 184.164 87.5065 183.902 87.7503C183.43 88.1894 183.11 88.6387 182.426 88.7577C180.995 89.0063 179.843 87.8904 178.955 86.9309C178.916 86.8903 178.886 86.8421 178.867 86.7896C177.947 86.8222 177.027 86.85 176.107 86.8555L176.101 95.9951H180.684L180.655 90.2324L187.208 95.9951H199.576C199.664 94.9566 199.379 93.9206 198.773 93.071C198.166 92.2215 197.277 91.6132 196.263 91.3542Z" fill="white"/>
<path d="M199.58 96.2308H187.211C187.154 96.2308 187.098 96.2098 187.055 96.1718L180.898 90.7573L180.924 95.9942C180.925 96.0252 180.919 96.0559 180.907 96.0846C180.895 96.1134 180.877 96.1395 180.856 96.1614C180.834 96.1834 180.807 96.2009 180.779 96.2128C180.75 96.2247 180.719 96.2308 180.688 96.2308H176.105C176.042 96.2308 175.982 96.206 175.937 96.1618C175.893 96.1177 175.868 96.0577 175.868 95.9953L175.874 86.8547C175.874 86.7925 175.899 86.7327 175.943 86.6886C175.987 86.6445 176.047 86.6195 176.109 86.6191C177.057 86.6135 177.992 86.5842 178.862 86.5534C178.912 86.5516 178.962 86.5658 179.004 86.5941C179.045 86.6223 179.077 86.6631 179.094 86.7104C179.102 86.7329 179.115 86.7534 179.132 86.7707C180.027 87.7377 181.091 88.7507 182.388 88.525C182.87 88.4413 183.14 88.1716 183.483 87.831C183.566 87.7485 183.652 87.6632 183.744 87.5775C183.99 87.3486 184.266 87.3021 184.51 87.2609C184.591 87.2474 184.667 87.2345 184.744 87.2158C184.874 87.175 184.999 87.118 185.114 87.0463C185.156 87.0227 185.198 86.9998 185.241 86.9777C185.253 86.9714 185.265 86.9662 185.278 86.962C185.42 86.9156 185.607 86.8556 185.797 86.8039C185.827 86.7938 185.853 86.7744 185.871 86.7486C185.889 86.7228 185.899 86.6919 185.898 86.6603C185.903 86.6011 185.93 86.5457 185.973 86.5053C186.017 86.4649 186.074 86.4424 186.134 86.4424H186.136C186.902 86.4478 187.726 86.4508 188.554 86.4367C188.573 86.4367 188.593 86.4337 188.611 86.4277C188.66 86.411 188.713 86.4107 188.762 86.4269C188.812 86.4431 188.854 86.475 188.883 86.5176C191.138 89.8 196.273 91.1122 196.324 91.1251L196.326 91.1256C197.391 91.4028 198.325 92.0443 198.963 92.9377C199.601 93.8312 199.903 94.9197 199.816 96.0125C199.811 96.0718 199.785 96.1273 199.741 96.1678C199.697 96.2083 199.639 96.2308 199.58 96.2308ZM187.301 95.7597H199.355C199.381 94.812 199.085 93.8833 198.514 93.1248C197.942 92.3663 197.13 91.8228 196.208 91.5827C195.982 91.5261 190.971 90.2431 188.579 86.908L188.563 86.9086C187.795 86.9215 187.034 86.92 186.318 86.9155C186.282 86.9991 186.228 87.0735 186.16 87.1331C186.091 87.1926 186.01 87.2357 185.922 87.259C185.75 87.3062 185.579 87.3603 185.445 87.404C185.411 87.4218 185.378 87.4403 185.345 87.459C185.192 87.5522 185.028 87.6247 184.856 87.6744C184.763 87.6971 184.675 87.712 184.589 87.7263C184.377 87.7622 184.209 87.7903 184.067 87.9227C183.98 88.0031 183.898 88.0855 183.818 88.1652C183.448 88.5332 183.099 88.8809 182.47 88.9898C182.325 89.015 182.178 89.0278 182.031 89.0279C180.577 89.0279 179.428 87.7866 178.784 87.0907C178.766 87.0714 178.749 87.051 178.734 87.0298C177.974 87.0563 177.167 87.0808 176.347 87.0889L176.341 95.7597H180.45L180.422 90.2336C180.422 90.1882 180.435 90.1436 180.459 90.1054C180.484 90.0671 180.519 90.0368 180.561 90.018C180.602 89.9992 180.649 89.9928 180.694 89.9995C180.739 90.0063 180.781 90.0258 180.815 90.0559L187.301 95.7597Z" fill="#000091"/>
<path d="M189.252 62.9834L189.258 86.721L186.351 86.7329L178.845 86.7531L174.672 86.7681L174.58 65.4177" fill="white"/>
<path d="M174.676 87.0039C174.613 87.0039 174.553 86.9792 174.509 86.9353C174.465 86.8913 174.44 86.8316 174.439 86.7693L174.347 65.4189C174.347 65.388 174.353 65.3573 174.365 65.3287C174.377 65.3 174.394 65.274 174.416 65.252C174.438 65.2301 174.464 65.2126 174.492 65.2006C174.521 65.1887 174.552 65.1824 174.583 65.1823H174.584C174.646 65.1823 174.706 65.207 174.751 65.251C174.795 65.295 174.82 65.3546 174.82 65.417L174.912 86.5319L178.848 86.5177L186.354 86.4975L189.024 86.4866L189.019 62.9835C189.019 62.921 189.044 62.8611 189.088 62.8169C189.133 62.7727 189.193 62.7479 189.256 62.7479C189.319 62.7479 189.379 62.7727 189.423 62.8169C189.467 62.8611 189.492 62.921 189.492 62.9835L189.498 86.7212C189.498 86.7835 189.473 86.8433 189.429 86.8875C189.384 86.9316 189.324 86.9565 189.262 86.9568L186.355 86.9686L178.849 86.9887L174.677 87.0038L174.676 87.0039Z" fill="#000091"/>
<path d="M152.571 91.3541H152.374C152.029 91.3623 151.686 91.3027 151.365 91.1786C151.044 91.0545 150.75 90.8685 150.501 90.6312C150.252 90.3938 150.052 90.1098 149.914 89.7955C149.775 89.4812 149.7 89.1428 149.694 88.7996C149.607 88.7803 138.565 80.9229 138.54 80.9013L131.494 91.2913L135.296 93.8434L138.77 88.5046L143.516 95.995H155.884C155.972 94.9565 155.687 93.9205 155.081 93.0709C154.475 92.2214 153.585 91.6131 152.571 91.3541Z" fill="white"/>
<path d="M155.888 96.2307H143.519C143.479 96.2307 143.44 96.2206 143.405 96.2014C143.37 96.1822 143.341 96.1545 143.319 96.1208L138.771 88.9422L135.499 93.9716C135.481 93.9979 135.459 94.0205 135.433 94.0381C135.407 94.0558 135.378 94.0681 135.347 94.0743C135.316 94.0806 135.285 94.0807 135.254 94.0746C135.223 94.0685 135.194 94.0563 135.168 94.0388L131.366 91.4867C131.34 91.4694 131.318 91.4472 131.301 91.4214C131.283 91.3956 131.272 91.3667 131.266 91.3363C131.26 91.3059 131.26 91.2747 131.266 91.2443C131.272 91.214 131.284 91.1852 131.302 91.1595L138.347 80.7699C138.365 80.7434 138.388 80.7207 138.415 80.7034C138.442 80.6861 138.473 80.6744 138.505 80.6692C138.536 80.6639 138.569 80.6652 138.6 80.6729C138.631 80.6806 138.661 80.6945 138.686 80.7139C138.821 80.8116 149.37 88.3207 149.806 88.5901C149.844 88.6096 149.876 88.639 149.898 88.6752C149.921 88.7115 149.933 88.7531 149.934 88.7957C149.949 89.428 150.215 90.0287 150.674 90.4661C150.899 90.6818 151.165 90.8506 151.457 90.9627C151.748 91.0747 152.06 91.1277 152.372 91.1185H152.575C152.595 91.1186 152.615 91.1212 152.634 91.1263C153.7 91.4035 154.633 92.0451 155.271 92.9385C155.909 93.832 156.211 94.9204 156.124 96.0132C156.119 96.0724 156.092 96.1277 156.049 96.168C156.005 96.2084 155.947 96.2308 155.888 96.2307ZM143.65 95.7596H155.663C155.689 94.8168 155.396 93.8926 154.83 93.136C154.264 92.3795 153.459 91.8348 152.544 91.5898H152.378C152.004 91.6003 151.631 91.5365 151.282 91.402C150.934 91.2675 150.615 91.065 150.346 90.8065C149.827 90.3112 149.513 89.6407 149.465 88.9267C149.106 88.6887 147.952 87.8772 143.959 85.0435C142.266 83.842 139.403 81.8055 138.603 81.2343L131.827 91.2278L135.232 93.514L138.575 88.3768C138.596 88.3436 138.626 88.3163 138.661 88.2975C138.696 88.2788 138.735 88.269 138.775 88.2693C138.814 88.2695 138.853 88.2797 138.888 88.2989C138.923 88.3181 138.952 88.3457 138.973 88.3791L143.65 95.7596Z" fill="#000091"/>
<path d="M182.676 48.502L176.421 43.9474C172.905 41.3873 168.662 40.0067 164.305 40.0053H156.906C154.875 40.006 152.927 40.8096 151.491 42.2394C150.055 43.6692 149.248 45.6083 149.247 47.6303C149.247 47.6326 149.247 47.6349 149.247 47.6372L149.239 47.6382L148.734 65.7151L138.062 80.5568L150.249 89.2419L162.223 72.5862" fill="white"/>
<path d="M150.252 89.4773C150.203 89.4773 150.154 89.462 150.114 89.4334L137.927 80.7483C137.902 80.7302 137.88 80.7075 137.864 80.6812C137.848 80.6549 137.837 80.6257 137.831 80.5952C137.826 80.5646 137.827 80.5334 137.834 80.5033C137.842 80.4732 137.854 80.4447 137.873 80.4195L148.503 65.6366L149.006 47.6316C149.006 47.613 149.009 47.5945 149.014 47.5766C149.03 45.502 149.869 43.5179 151.348 42.0559C152.827 40.5939 154.825 39.7723 156.91 39.7697H164.309C168.717 39.7616 173.012 41.159 176.564 43.7572L182.819 48.3118C182.845 48.33 182.866 48.353 182.882 48.3795C182.898 48.4059 182.909 48.4352 182.914 48.4658C182.918 48.4964 182.917 48.5276 182.91 48.5576C182.902 48.5877 182.889 48.616 182.871 48.641C182.852 48.666 182.829 48.6871 182.803 48.7032C182.776 48.7192 182.747 48.73 182.716 48.7347C182.685 48.7395 182.654 48.7381 182.624 48.7308C182.594 48.7235 182.565 48.7103 182.54 48.6921L176.285 44.1375C172.813 41.5986 168.616 40.233 164.309 40.2408H156.91C154.942 40.243 153.055 41.0223 151.663 42.4076C150.272 43.7929 149.489 45.6711 149.487 47.6302C149.487 47.6527 149.484 47.6752 149.477 47.6968L148.974 65.7216C148.973 65.7686 148.957 65.814 148.93 65.8522L138.395 80.5022L150.197 88.9131L162.034 72.449C162.07 72.3982 162.125 72.3639 162.187 72.3537C162.249 72.3435 162.313 72.3582 162.364 72.3946C162.415 72.431 162.449 72.486 162.46 72.5477C162.47 72.6093 162.455 72.6725 162.419 72.7233L150.444 89.3789C150.423 89.4094 150.394 89.4342 150.36 89.4514C150.327 89.4685 150.29 89.4774 150.252 89.4774V89.4773Z" fill="#000091"/>
<path d="M188.286 59.4613C188.966 59.6054 189.624 59.8318 190.305 59.9717C190.82 60.0774 191.343 60.3632 191.873 60.389C191.91 60.3869 191.947 60.3875 191.984 60.3906C191.999 60.3919 192.012 60.3958 192.026 60.3984C192.08 60.2363 192.142 60.0769 192.212 59.9211C192.38 59.5758 192.627 59.2745 192.933 59.0416C193.485 58.6028 194.207 58.128 194.944 58.2055C195.293 58.2421 195.634 58.353 195.976 58.4238C196.247 58.4663 196.505 58.5654 196.734 58.7143L192.081 42.7773C191.781 41.8774 191.268 41.0628 190.584 40.4026C189.9 39.7423 189.067 39.256 188.154 38.9847C187.242 38.7135 186.277 38.6653 185.341 38.8443C184.406 39.0234 183.528 39.4243 182.781 40.0131L173.742 48.6746L180.099 57.1713L183.507 54.4778L184.609 58.7122C185.855 58.842 187.063 59.2021 188.286 59.4613Z" fill="#F9CFD2"/>
<path d="M180.239 63.6316C179.827 62.5256 180.179 61.1098 180.946 60.242C181.398 59.7316 182.085 59.3606 182.697 59.0783C183.336 58.7833 184.018 58.565 184.729 58.566C185.481 58.5671 186.234 58.7788 186.956 58.9709C187.758 59.1844 188.554 59.4085 189.362 59.5985C190.116 59.7759 190.839 60.0206 191.581 60.2331C191.723 60.2768 191.869 60.3092 192.016 60.3301C192.026 60.3027 192.038 60.2761 192.052 60.2508C192.082 60.1973 192.118 60.1473 192.159 60.1016C192.699 59.3456 193.253 58.5719 194.197 58.2968C194.885 58.0963 195.503 58.2631 196.074 58.5755C195.936 58.4441 195.791 58.3216 195.638 58.2085L177.511 44.9053C176.652 44.4486 175.693 44.2087 174.719 44.2064H160.552C156.237 44.2064 153.366 48.6432 155.148 52.5538L159.258 61.5609C159.908 62.9775 160.953 64.1783 162.269 65.0205C163.585 65.8628 165.116 66.311 166.681 66.3118H184.652C184.324 66.1995 181.251 66.3471 180.239 63.6316Z" fill="#F9CFD2"/>
<path d="M193.074 59.0306C193.025 59.0306 192.977 59.0155 192.938 58.9875C192.898 58.9596 192.867 58.92 192.851 58.8742C192.083 56.7333 190.745 54.9496 188.874 53.5729L177.052 44.6987C177.027 44.68 177.006 44.6567 176.991 44.6301C176.975 44.6034 176.964 44.5739 176.96 44.5433C176.956 44.5126 176.958 44.4815 176.965 44.4515C176.973 44.4216 176.987 44.3934 177.005 44.3687C177.024 44.344 177.048 44.3232 177.074 44.3075C177.101 44.2918 177.131 44.2815 177.162 44.2772C177.192 44.273 177.224 44.2747 177.254 44.2825C177.284 44.2902 177.312 44.3038 177.337 44.3224L189.157 53.1953C191.058 54.5841 192.5 56.5063 193.297 58.7157C193.309 58.7513 193.313 58.7894 193.308 58.8268C193.303 58.8642 193.289 58.8999 193.267 58.9307C193.245 58.9616 193.216 58.9868 193.183 59.0042C193.149 59.0216 193.112 59.0306 193.074 59.0306V59.0306Z" fill="#000091"/>
<path d="M192.002 60.313L184.944 58.6711C184.005 58.4513 182.812 58.5974 182.073 59.213C179.705 61.1849 179.517 63.3435 180.897 64.8041C181.326 65.252 181.868 65.575 182.467 65.7386L187.341 67.0294C187.568 68.309 188.24 69.4682 189.24 70.3034C190.24 71.1386 191.503 71.5965 192.808 71.5967C192.89 71.5967 192.971 71.595 193.052 71.5915L201.638 68.7159C201.776 68.6321 201.904 68.5344 202.022 68.4242C202.965 67.5974 203.598 66.4766 203.818 65.245C204.039 64.0133 203.833 62.7438 203.234 61.6438C202.635 60.5439 201.68 59.6787 200.523 59.1896C199.366 58.7005 198.077 58.6166 196.867 58.9515" fill="white"/>
<path d="M192.812 71.8323C191.476 71.8347 190.181 71.3764 189.147 70.5352C188.113 69.6941 187.403 68.5222 187.139 67.2189L182.41 65.9663C181.769 65.7915 181.187 65.4457 180.729 64.9661C180.071 64.2698 179.752 63.4305 179.805 62.5384C179.877 61.3395 180.61 60.1271 181.924 59.0323C182.773 58.3256 184.082 58.2262 185.002 58.4419L192.059 60.0836C192.12 60.0985 192.172 60.1364 192.205 60.1893C192.237 60.2421 192.247 60.3056 192.233 60.366C192.219 60.4264 192.182 60.4787 192.129 60.5118C192.076 60.5448 192.012 60.5558 191.952 60.5424L184.894 58.9005C184.088 58.7121 182.951 58.7912 182.228 59.3937C181.016 60.4032 180.341 61.5003 180.278 62.5662C180.232 63.3255 180.507 64.0434 181.073 64.6424C181.472 65.059 181.977 65.3596 182.534 65.5116L187.405 66.8017C187.449 66.8133 187.488 66.837 187.518 66.8701C187.549 66.9033 187.569 66.9444 187.577 66.9887C187.792 68.2148 188.435 69.3259 189.393 70.1259C190.351 70.9259 191.562 71.3634 192.812 71.3611C192.879 71.3611 192.946 71.3599 193.012 71.3575L201.536 68.5026L201.545 68.4966C201.661 68.4245 201.77 68.341 201.869 68.2473C202.772 67.4557 203.378 66.3827 203.589 65.2035C203.8 64.0244 203.602 62.8089 203.029 61.7559C202.456 60.7029 201.541 59.8745 200.434 59.4063C199.326 58.9381 198.092 58.8578 196.933 59.1784C196.873 59.1943 196.809 59.186 196.755 59.1552C196.701 59.1244 196.661 59.0735 196.644 59.0137C196.628 58.954 196.635 58.89 196.666 58.8359C196.696 58.7817 196.747 58.7416 196.807 58.7244C198.07 58.3714 199.416 58.4564 200.624 58.9655C201.833 59.4746 202.831 60.3775 203.456 61.526C204.081 62.6745 204.295 64.0004 204.064 65.286C203.832 66.5717 203.168 67.7407 202.181 68.6013C202.066 68.7091 201.941 68.8055 201.807 68.889L201.772 68.912C201.755 68.9235 201.736 68.9326 201.717 68.9392L193.131 71.8148C193.11 71.8219 193.088 71.8259 193.066 71.8269C192.981 71.8305 192.896 71.8323 192.812 71.8323Z" fill="#000091"/>
<path d="M194.319 64.2696V65.2983L199.998 65.0078C200.417 64.9862 200.828 65.1219 201.151 65.3881C201.474 65.6542 201.685 66.0314 201.742 66.4448L202.018 68.4237" fill="white"/>
<path d="M202.021 68.6597C201.964 68.6597 201.909 68.6391 201.866 68.6017C201.823 68.5644 201.795 68.5129 201.787 68.4566L201.511 66.4777C201.461 66.1234 201.28 65.8004 201.003 65.5721C200.726 65.3438 200.374 65.2266 200.015 65.2435L194.335 65.534C194.303 65.5359 194.27 65.5311 194.24 65.52C194.21 65.5089 194.183 65.4918 194.159 65.4696C194.136 65.4476 194.118 65.4211 194.105 65.3917C194.092 65.3623 194.086 65.3307 194.086 65.2988V64.2701C194.086 64.2076 194.111 64.1477 194.155 64.1035C194.2 64.0593 194.26 64.0345 194.322 64.0345C194.385 64.0345 194.445 64.0593 194.49 64.1035C194.534 64.1477 194.559 64.2076 194.559 64.2701V65.0508L199.99 64.773C200.467 64.7505 200.936 64.9061 201.304 65.2095C201.672 65.5129 201.913 65.9421 201.98 66.4131L202.256 68.392C202.264 68.4539 202.248 68.5166 202.21 68.5663C202.172 68.6161 202.116 68.6488 202.054 68.6573C202.043 68.6589 202.032 68.6597 202.021 68.6597Z" fill="#000091"/>
<path d="M191.852 61.247C191.852 60.6254 192.046 60.0192 192.405 59.511C192.765 59.0029 193.273 58.6176 193.861 58.4077C194.449 58.1978 195.087 58.1736 195.689 58.3383C196.291 58.5031 196.828 58.8488 197.225 59.3282C197.623 59.8076 197.862 60.3975 197.91 61.0172C197.958 61.6369 197.813 62.2564 197.495 62.791C197.176 63.3256 196.699 63.7494 196.13 64.0044C195.561 64.2595 194.926 64.3334 194.313 64.2161" fill="white"/>
<path d="M194.892 64.506C194.684 64.506 194.476 64.4864 194.272 64.4475C194.241 64.4419 194.212 64.4303 194.186 64.4133C194.159 64.3964 194.137 64.3744 194.119 64.3488C194.102 64.3231 194.089 64.2942 194.083 64.2637C194.076 64.2333 194.076 64.2018 194.082 64.1713C194.088 64.1407 194.1 64.1116 194.117 64.0857C194.134 64.0597 194.157 64.0375 194.183 64.0201C194.209 64.0028 194.238 63.9907 194.268 63.9847C194.299 63.9786 194.331 63.9786 194.361 63.9848C194.927 64.0937 195.513 64.0259 196.039 63.7908C196.565 63.5557 197.006 63.1646 197.3 62.6711C197.595 62.1776 197.729 61.6056 197.684 61.0333C197.64 60.461 197.419 59.9162 197.052 59.4735C196.685 59.0307 196.19 58.7116 195.634 58.5595C195.078 58.4075 194.489 58.43 193.946 58.6241C193.403 58.8181 192.934 59.1742 192.602 59.6436C192.27 60.1131 192.092 60.6731 192.092 61.2471C192.092 61.3096 192.067 61.3695 192.023 61.4137C191.978 61.4579 191.918 61.4827 191.856 61.4827C191.793 61.4827 191.733 61.4579 191.688 61.4137C191.644 61.3695 191.619 61.3096 191.619 61.2471C191.619 60.6026 191.811 59.9725 192.171 59.4366C192.53 58.9006 193.042 58.4829 193.64 58.2363C194.238 57.9896 194.896 57.9251 195.531 58.0508C196.166 58.1766 196.749 58.487 197.207 58.9427C197.665 59.3985 197.977 59.9792 198.103 60.6113C198.229 61.2435 198.165 61.8987 197.917 62.4942C197.669 63.0897 197.249 63.5987 196.711 63.9568C196.173 64.3148 195.54 64.506 194.892 64.506Z" fill="#000091"/>
<path d="M191.913 69.6101C191.868 69.6101 191.823 69.5972 191.785 69.5729C191.747 69.5487 191.717 69.514 191.698 69.4731L191.603 69.269C191.383 68.783 191.288 68.2501 191.326 67.7184C191.365 67.1866 191.536 66.6729 191.824 66.2234L192.141 65.7429C192.158 65.7171 192.18 65.6948 192.205 65.6774C192.231 65.66 192.26 65.6478 192.29 65.6415C192.321 65.6352 192.352 65.6349 192.383 65.6407C192.413 65.6465 192.442 65.6582 192.468 65.6751C192.494 65.6921 192.517 65.714 192.534 65.7396C192.552 65.7652 192.564 65.7939 192.57 65.8242C192.577 65.8545 192.577 65.8857 192.571 65.9161C192.565 65.9465 192.554 65.9755 192.537 66.0014L192.221 66.4804C191.976 66.8629 191.83 67.3002 191.798 67.7527C191.765 68.2053 191.846 68.6588 192.033 69.0724L192.128 69.2757C192.145 69.3116 192.152 69.3511 192.149 69.3905C192.146 69.43 192.134 69.4681 192.112 69.5014C192.091 69.5347 192.062 69.5621 192.027 69.5811C191.992 69.6001 191.953 69.6101 191.913 69.6101H191.913Z" fill="#000091"/>
<path d="M194.887 62.1107C194.882 62.1107 194.878 62.1107 194.874 62.1107C194.828 62.1082 194.785 62.0928 194.748 62.0661C194.711 62.0395 194.682 62.0028 194.666 61.9606L194.098 60.5C194.075 60.4416 194.077 60.3768 194.102 60.3196C194.128 60.2624 194.175 60.2176 194.233 60.195C194.292 60.1725 194.357 60.174 194.415 60.1993C194.472 60.2246 194.517 60.2716 194.54 60.3299L194.918 61.3036L195.56 60.0707C195.59 60.0164 195.64 59.9757 195.699 59.9576C195.758 59.9394 195.822 59.9451 195.878 59.9736C195.933 60.002 195.974 60.0508 195.994 60.1096C196.013 60.1683 196.008 60.2322 195.981 60.2875L195.097 61.9837C195.077 62.022 195.047 62.0542 195.01 62.0766C194.973 62.0989 194.93 62.1108 194.887 62.1107Z" fill="#000091"/>
<path d="M187.664 81.0695C187.613 81.0695 187.564 81.0534 187.523 81.0235C187.482 80.9936 187.452 80.9514 187.437 80.9033C187.422 80.8551 187.423 80.8034 187.44 80.7558C187.457 80.7083 187.489 80.6673 187.531 80.639L193.347 76.7048C193.373 76.6874 193.402 76.6752 193.432 76.669C193.462 76.6627 193.494 76.6624 193.524 76.6682C193.555 76.674 193.584 76.6858 193.61 76.7028C193.636 76.7197 193.658 76.7417 193.676 76.7673C193.693 76.7928 193.705 76.8216 193.712 76.8519C193.718 76.8822 193.718 76.9134 193.712 76.9438C193.707 76.9742 193.695 77.0032 193.678 77.029C193.661 77.0549 193.639 77.0771 193.613 77.0945L187.797 81.0287C187.757 81.0553 187.711 81.0695 187.664 81.0695Z" fill="#000091"/>
<path d="M198.363 79.2212C201.482 79.2212 204.011 76.7039 204.011 73.5986C204.011 70.4934 201.482 67.9761 198.363 67.9761C195.244 67.9761 192.715 70.4934 192.715 73.5986C192.715 76.7039 195.244 79.2212 198.363 79.2212Z" fill="white"/>
<path d="M198.366 79.4572C197.202 79.4572 196.065 79.1137 195.097 78.47C194.129 77.8263 193.375 76.9114 192.93 75.8409C192.484 74.7705 192.368 73.5926 192.595 72.4563C192.822 71.3199 193.382 70.2761 194.205 69.4568C195.028 68.6375 196.077 68.0796 197.218 67.8536C198.36 67.6275 199.543 67.7435 200.618 68.1869C201.693 68.6303 202.612 69.3812 203.259 70.3445C203.906 71.3079 204.251 72.4405 204.251 73.5991C204.249 75.1523 203.628 76.6413 202.525 77.7395C201.422 78.8377 199.926 79.4555 198.366 79.4572ZM198.366 68.2122C197.296 68.2122 196.25 68.5281 195.36 69.12C194.47 69.712 193.776 70.5533 193.367 71.5376C192.957 72.522 192.85 73.6051 193.059 74.6501C193.268 75.695 193.783 76.6549 194.54 77.4083C195.297 78.1617 196.261 78.6747 197.31 78.8826C198.36 79.0904 199.448 78.9838 200.437 78.576C201.426 78.1683 202.271 77.4778 202.865 76.592C203.46 75.7061 203.777 74.6646 203.777 73.5991C203.776 72.1709 203.205 70.8016 202.191 69.7917C201.176 68.7818 199.801 68.2137 198.366 68.2121V68.2122Z" fill="#000091"/>
<path d="M194.693 71.5412C194.653 71.5411 194.614 71.5311 194.579 71.5121C194.544 71.4931 194.515 71.4657 194.494 71.4325C194.472 71.3992 194.46 71.3611 194.457 71.3217C194.454 71.2823 194.462 71.2429 194.478 71.207C194.681 70.8269 194.962 70.4933 195.303 70.2277C195.643 69.9621 196.036 69.7703 196.455 69.6646C196.485 69.6567 196.516 69.6549 196.547 69.6591C196.578 69.6633 196.608 69.6735 196.635 69.6891C196.661 69.7048 196.685 69.7255 196.704 69.7501C196.722 69.7748 196.736 69.8029 196.744 69.8328C196.752 69.8628 196.754 69.8939 196.749 69.9246C196.745 69.9552 196.735 69.9848 196.719 70.0115C196.704 70.0382 196.683 70.0615 196.658 70.0802C196.633 70.0989 196.605 70.1126 196.575 70.1204C196.223 70.2081 195.893 70.3675 195.605 70.5888C195.318 70.8101 195.081 71.0882 194.907 71.4058C194.888 71.4462 194.858 71.4804 194.82 71.5044C194.782 71.5284 194.738 71.5412 194.693 71.5412Z" fill="#000091"/>
<path d="M189.178 83.8387L188.776 82.6137L188.76 82.6093L188.768 82.6059C188.003 81.2238 187.016 79.8574 186.18 79.08C185.944 78.8601 185.683 78.601 185.399 78.3183C183.786 76.6928 181.733 75.568 179.49 75.0802C177.247 74.5924 174.91 74.7625 172.763 75.5698L175.894 78.279C175.405 79.614 174.53 83.5403 175.65 84.1528C176.26 84.4892 177.137 84.4331 178.05 84.3424C178.456 85.4205 178.832 86.2799 179.081 86.8542C179.282 87.3223 179.639 87.7076 180.091 87.9457L181.1 88.4797C181.364 88.618 181.653 88.7023 181.95 88.7276C182.247 88.7529 182.546 88.7188 182.83 88.6273C183.113 88.5357 183.375 88.3885 183.601 88.1944C183.826 88.0004 184.01 87.7633 184.142 87.4972C184.443 87.5489 184.752 87.538 185.048 87.4651C185.345 87.3923 185.623 87.2591 185.865 87.0741C186.064 86.9232 186.237 86.7401 186.376 86.5322C186.693 86.6043 187.023 86.6058 187.341 86.5366C187.659 86.4673 187.957 86.3291 188.215 86.1317C188.902 85.6134 189.351 84.6711 189.178 83.8387Z" fill="white"/>
<path d="M182.146 88.9756C181.743 88.9758 181.347 88.8769 180.992 88.6876L179.983 88.1541C179.484 87.8899 179.09 87.4638 178.867 86.9463L178.831 86.8645C178.601 86.3352 178.261 85.5504 177.896 84.5945C177.005 84.6775 176.163 84.7038 175.539 84.3589C174.173 83.6122 175.255 79.4677 175.622 78.3528L172.611 75.7484C172.58 75.7216 172.557 75.6874 172.543 75.6489C172.529 75.6105 172.526 75.5692 172.533 75.529C172.54 75.4889 172.558 75.4513 172.584 75.42C172.61 75.3886 172.644 75.3646 172.683 75.3502C174.873 74.5279 177.256 74.355 179.544 74.8526C181.831 75.3501 183.925 76.4966 185.571 78.1536C185.848 78.4294 186.111 78.6909 186.345 78.9085C187.166 79.671 188.167 81.0334 188.965 82.4688C188.982 82.4905 188.995 82.515 189.004 82.5413L189.406 83.7663C189.409 83.7746 189.411 83.7831 189.413 83.7917C189.597 84.6741 189.165 85.7139 188.362 86.3202C188.098 86.5228 187.795 86.6692 187.472 86.7505C187.149 86.8318 186.813 86.8461 186.484 86.7927C186.228 87.1267 185.892 87.3903 185.505 87.5584C185.119 87.7265 184.696 87.7935 184.276 87.7532C184.112 88.0321 183.895 88.2763 183.637 88.472C183.209 88.7991 182.685 88.9761 182.146 88.9756ZM178.054 84.1069C178.102 84.1069 178.149 84.1216 178.189 84.1489C178.228 84.1763 178.258 84.215 178.275 84.2599C178.66 85.2814 179.024 86.1215 179.265 86.6774L179.302 86.7608C179.482 87.1796 179.801 87.5244 180.206 87.738L181.215 88.272C181.451 88.3955 181.709 88.4708 181.974 88.4933C182.24 88.5159 182.507 88.4853 182.76 88.4034C183.014 88.3215 183.248 88.1899 183.45 88.0164C183.651 87.8429 183.816 87.631 183.933 87.3932C183.956 87.3477 183.993 87.3106 184.038 87.2876C184.084 87.2645 184.136 87.2568 184.186 87.2654C184.567 87.3287 184.958 87.2808 185.312 87.1276C185.667 86.9743 185.969 86.7221 186.182 86.4016C186.209 86.3618 186.247 86.331 186.292 86.3132C186.336 86.2955 186.385 86.2917 186.432 86.3023C186.715 86.3674 187.009 86.3691 187.294 86.3074C187.578 86.2457 187.844 86.122 188.075 85.9454C188.724 85.4547 189.091 84.5967 188.952 83.8992L188.576 82.7528C188.556 82.727 188.542 82.6974 188.534 82.6658C187.762 81.2822 186.803 79.9782 186.022 79.2526C185.782 79.0295 185.517 78.7651 185.236 78.4854C183.701 76.9411 181.762 75.857 179.639 75.3568C177.515 74.8567 175.294 74.9604 173.227 75.6563L176.053 78.1017C176.089 78.133 176.115 78.1744 176.127 78.2206C176.139 78.2668 176.137 78.3155 176.12 78.3603C175.515 80.0136 174.906 83.4757 175.767 83.9468C176.316 84.2492 177.151 84.1958 178.03 84.1084C178.038 84.1075 178.046 84.1071 178.054 84.1071V84.1069Z" fill="#000091"/>
<path d="M181.612 86.0065C181.565 86.0065 181.519 85.9925 181.48 85.9664C181.441 85.9403 181.411 85.9033 181.393 85.8599C180.519 83.7293 179.389 82.8824 178.709 82.9955C178.621 83.016 178.537 83.0553 178.465 83.1106C178.393 83.1659 178.334 83.236 178.291 83.3161C178.216 83.4438 178.169 83.5863 178.155 83.7337C178.14 83.8811 178.158 84.0299 178.207 84.1698C178.217 84.199 178.221 84.2299 178.22 84.2608C178.218 84.2917 178.21 84.3219 178.197 84.3498C178.183 84.3777 178.164 84.4026 178.141 84.4232C178.118 84.4438 178.091 84.4596 178.061 84.4698C178.032 84.48 178.001 84.4844 177.97 84.4826C177.939 84.4808 177.909 84.473 177.881 84.4596C177.853 84.4461 177.827 84.4273 177.807 84.4042C177.786 84.3812 177.77 84.3542 177.76 84.325C177.688 84.1198 177.663 83.9016 177.684 83.6854C177.706 83.4693 177.775 83.2605 177.885 83.0734C177.963 82.9339 178.07 82.813 178.199 82.7192C178.328 82.6253 178.477 82.5609 178.634 82.5304C179.454 82.3925 180.786 83.135 181.831 85.6817C181.846 85.7174 181.851 85.7563 181.847 85.7947C181.843 85.8332 181.83 85.8701 181.808 85.9022C181.787 85.9343 181.758 85.9605 181.723 85.9787C181.689 85.9969 181.651 86.0064 181.612 86.0065H181.612Z" fill="#000091"/>
<path d="M175.651 85.5432L155.363 80.3055C154.437 80.0671 153.584 79.609 152.875 78.9704C152.166 78.3318 151.623 77.5317 151.293 76.6386C150.963 75.7455 150.855 74.7861 150.978 73.8424C151.102 72.8986 151.453 71.9988 152.002 71.2199L162.344 56.5196L172.038 63.2886L166.587 71.0393L178.625 74.1489L175.651 85.5432Z" fill="#F9CFD2"/>
<path d="M148.741 68.0708C148.678 68.0708 148.618 68.046 148.574 68.0018C148.529 67.9576 148.504 67.8977 148.504 67.8352V65.715C148.504 65.6525 148.529 65.5926 148.574 65.5484C148.618 65.5042 148.678 65.4794 148.741 65.4794C148.804 65.4794 148.864 65.5042 148.908 65.5484C148.953 65.5926 148.978 65.6525 148.978 65.715V67.8352C148.978 67.8977 148.953 67.9576 148.908 68.0018C148.864 68.046 148.804 68.0708 148.741 68.0708Z" fill="#000091"/>
<path d="M159.084 61.4039C159.051 61.4039 159.019 61.3973 158.989 61.3844C158.96 61.3716 158.933 61.3528 158.911 61.3293C158.889 61.3057 158.872 61.2779 158.861 61.2475C158.85 61.2171 158.845 61.1848 158.848 61.1526L159.053 58.0822C159.054 58.051 159.062 58.0205 159.076 57.9923C159.089 57.9642 159.108 57.939 159.132 57.9183C159.155 57.8976 159.183 57.8817 159.212 57.8716C159.242 57.8615 159.273 57.8573 159.305 57.8594C159.336 57.8615 159.367 57.8697 159.395 57.8837C159.423 57.8977 159.448 57.917 159.468 57.9407C159.489 57.9643 159.504 57.9918 159.514 58.0215C159.524 58.0512 159.527 58.0825 159.525 58.1136L159.376 60.3438L160.247 59.109C160.264 59.0831 160.287 59.0609 160.313 59.0438C160.34 59.0267 160.369 59.015 160.4 59.0094C160.431 59.0037 160.463 59.0043 160.493 59.0109C160.524 59.0176 160.553 59.0303 160.579 59.0483C160.604 59.0662 160.626 59.0891 160.643 59.1156C160.66 59.142 160.671 59.1716 160.676 59.2024C160.681 59.2332 160.68 59.2648 160.673 59.2952C160.666 59.3257 160.653 59.3544 160.634 59.3796L159.277 61.3036C159.256 61.3345 159.227 61.3598 159.193 61.3773C159.159 61.3948 159.122 61.4039 159.084 61.4039Z" fill="#000091"/>
<path d="M165.36 72.5638C165.316 72.5637 165.273 72.5515 165.236 72.5285C165.198 72.5055 165.168 72.4727 165.149 72.4337C165.129 72.3947 165.121 72.3511 165.125 72.3076C165.128 72.2642 165.144 72.2226 165.17 72.1876L170.65 64.8521C170.688 64.8031 170.744 64.7708 170.805 64.7623C170.867 64.7538 170.929 64.7697 170.979 64.8066C171.029 64.8435 171.062 64.8984 171.071 64.9595C171.081 65.0207 171.066 65.083 171.03 65.1332L165.55 72.4688C165.528 72.4983 165.499 72.5222 165.466 72.5387C165.433 72.5552 165.397 72.5638 165.36 72.5638Z" fill="#000091"/>
<path d="M166.585 72.8217C166.522 72.8217 166.462 72.7969 166.417 72.7527C166.373 72.7085 166.348 72.6486 166.348 72.5861V71.6309L165.51 72.5124C165.489 72.5354 165.464 72.554 165.435 72.5671C165.407 72.5802 165.376 72.5875 165.344 72.5886C165.313 72.5897 165.282 72.5846 165.252 72.5736C165.223 72.5625 165.196 72.5458 165.173 72.5243C165.151 72.5028 165.132 72.477 165.12 72.4485C165.107 72.4199 165.1 72.3891 165.099 72.3579C165.099 72.3266 165.104 72.2956 165.116 72.2665C165.127 72.2375 165.145 72.211 165.167 72.1886L166.413 70.8772C166.445 70.843 166.488 70.8192 166.534 70.8091C166.58 70.7989 166.628 70.8028 166.672 70.8203C166.716 70.8377 166.754 70.8679 166.781 70.9069C166.807 70.9459 166.821 70.9919 166.821 71.0391V72.586C166.821 72.617 166.815 72.6476 166.803 72.6762C166.792 72.7048 166.774 72.7308 166.752 72.7527C166.73 72.7746 166.704 72.7919 166.675 72.8038C166.647 72.8156 166.616 72.8217 166.585 72.8217Z" fill="#000091"/>
<path d="M196.998 76.9614C196.99 76.9614 196.981 76.9609 196.973 76.9601C196.938 76.9563 196.903 76.9445 196.873 76.9257C196.843 76.9068 196.817 76.8813 196.798 76.8511L194.815 73.71C194.798 73.6838 194.786 73.6545 194.781 73.6237C194.775 73.5929 194.776 73.5613 194.782 73.5308C194.789 73.5002 194.802 73.4713 194.82 73.4457C194.838 73.4201 194.861 73.3984 194.888 73.3817C194.914 73.3651 194.944 73.3539 194.975 73.3488C195.006 73.3437 195.038 73.3448 195.068 73.352C195.099 73.3593 195.128 73.3725 195.153 73.3909C195.178 73.4094 195.2 73.4327 195.216 73.4594L197.039 76.3473L200.526 72.792C200.547 72.7694 200.573 72.7513 200.602 72.7387C200.631 72.7262 200.661 72.7194 200.693 72.7189C200.724 72.7183 200.755 72.7239 200.784 72.7354C200.813 72.7469 200.84 72.764 200.862 72.7858C200.885 72.8076 200.903 72.8336 200.915 72.8623C200.927 72.891 200.934 72.9219 200.934 72.953C200.934 72.9842 200.928 73.0151 200.916 73.044C200.904 73.0728 200.887 73.099 200.864 73.1211L197.167 76.8904C197.145 76.9128 197.119 76.9307 197.09 76.9429C197.061 76.9551 197.03 76.9613 196.998 76.9614Z" fill="#000091"/>
<path d="M193.609 76.7255C193.55 76.7254 193.493 76.7031 193.449 76.6631C193.406 76.623 193.379 76.5681 193.374 76.5092C193.369 76.4504 193.387 76.3918 193.423 76.3452C193.459 76.2986 193.512 76.2673 193.571 76.2576L193.649 76.2447C194.494 76.1035 195.294 75.7667 195.985 75.2615L196.014 75.24C196.039 75.2217 196.067 75.2085 196.097 75.201C196.128 75.1936 196.159 75.1922 196.19 75.1969C196.22 75.2015 196.25 75.2121 196.276 75.2281C196.303 75.2441 196.326 75.2652 196.345 75.2901C196.363 75.315 196.376 75.3433 196.384 75.3733C196.391 75.4034 196.393 75.4346 196.388 75.4652C196.383 75.4958 196.373 75.5251 196.357 75.5516C196.341 75.5781 196.319 75.6011 196.294 75.6195L196.265 75.6409C195.515 76.19 194.645 76.556 193.726 76.7094L193.648 76.7223C193.635 76.7245 193.622 76.7256 193.609 76.7255Z" fill="#000091"/>
<path d="M199.949 74.4665C199.778 74.4698 199.607 74.4572 199.438 74.429C199.378 74.416 199.324 74.3796 199.29 74.3278C199.256 74.2759 199.244 74.2128 199.256 74.152C199.268 74.0912 199.304 74.0377 199.356 74.0031C199.408 73.9685 199.471 73.9556 199.532 73.9671C199.547 73.9699 200.7 74.1792 202.646 73.3782C203.064 73.2054 203.443 72.9518 203.761 72.6322C203.806 72.5886 203.866 72.5643 203.928 72.5645C203.991 72.5648 204.051 72.5896 204.095 72.6336C204.139 72.6775 204.164 72.737 204.164 72.7992C204.164 72.8613 204.14 72.9211 204.096 72.9654C203.733 73.3289 203.302 73.6171 202.827 73.8135C201.492 74.363 200.504 74.4665 199.949 74.4665Z" fill="#000091"/>
<path d="M199.317 70.8363C199.774 70.8363 200.145 70.4671 200.145 70.0117C200.145 69.5564 199.774 69.1872 199.317 69.1872C198.859 69.1872 198.488 69.5564 198.488 70.0117C198.488 70.4671 198.859 70.8363 199.317 70.8363Z" fill="#000091"/>
<path d="M258.014 96.183H100.976C100.796 96.183 100.67 96.086 100.67 95.95C100.67 95.8141 100.796 95.717 100.976 95.717H258.014C258.194 95.717 258.32 95.8141 258.32 95.95C258.32 96.086 258.158 96.183 258.014 96.183Z" fill="#000091"/>
<path d="M230.618 96.0492C230.562 96.0407 230.512 96.0104 230.478 95.9647C230.443 95.919 230.428 95.8615 230.435 95.8042L233.272 72.0335C233.279 71.9749 233.309 71.9214 233.354 71.8846C233.4 71.8479 233.458 71.831 233.516 71.8377C233.573 71.8443 233.626 71.874 233.661 71.9202C233.697 71.9663 233.713 72.0252 233.706 72.0838L230.869 95.8544C230.866 95.8834 230.857 95.9115 230.843 95.937C230.828 95.9626 230.81 95.9851 230.787 96.0032C230.764 96.0214 230.738 96.0349 230.711 96.043C230.683 96.051 230.654 96.0535 230.626 96.0502L230.618 96.0492Z" fill="#000091"/>
<path d="M233.047 75.5936C233.011 75.5881 232.977 75.5737 232.948 75.5516C232.919 75.5296 232.896 75.5005 232.881 75.4671L231.826 73.119C231.802 73.0655 231.8 73.0042 231.82 72.9488C231.841 72.8933 231.882 72.8482 231.935 72.8234C231.988 72.7986 232.049 72.7961 232.103 72.8164C232.158 72.8367 232.202 72.8782 232.226 72.9318L233.132 74.948L234.493 73.1891C234.511 73.1655 234.533 73.1458 234.558 73.1309C234.584 73.1161 234.612 73.1064 234.64 73.1025C234.669 73.0986 234.699 73.1006 234.727 73.1083C234.755 73.116 234.781 73.1292 234.804 73.1473C234.827 73.1653 234.846 73.1878 234.86 73.2135C234.874 73.2391 234.883 73.2674 234.886 73.2967C234.889 73.326 234.887 73.3556 234.878 73.384C234.87 73.4123 234.857 73.4388 234.838 73.4619L233.254 75.5099C233.23 75.54 233.2 75.5637 233.165 75.5786C233.13 75.5934 233.092 75.5989 233.054 75.5946L233.047 75.5936Z" fill="#000091"/>
<path d="M232.781 77.8186C232.745 77.8131 232.711 77.7986 232.682 77.7763C232.653 77.7541 232.63 77.7248 232.615 77.6911L231.095 74.2687C231.083 74.2421 231.077 74.2134 231.076 74.1841C231.075 74.1548 231.08 74.1256 231.09 74.0981C231.1 74.0706 231.116 74.0454 231.135 74.0239C231.155 74.0024 231.179 73.985 231.205 73.9728C231.232 73.9606 231.26 73.9538 231.289 73.9527C231.318 73.9517 231.347 73.9564 231.374 73.9667C231.401 73.977 231.426 73.9926 231.447 74.0126C231.468 74.0326 231.485 74.0566 231.496 74.0833L232.867 77.1704L234.938 74.4755C234.955 74.4512 234.977 74.4308 235.002 74.4153C235.028 74.3998 235.056 74.3896 235.085 74.3853C235.114 74.3809 235.144 74.3826 235.172 74.3901C235.201 74.3977 235.227 74.411 235.251 74.4292C235.274 74.4474 235.293 74.4702 235.307 74.4962C235.322 74.5222 235.33 74.5508 235.334 74.5805C235.337 74.6101 235.334 74.6402 235.325 74.6688C235.317 74.6974 235.302 74.724 235.283 74.747L232.988 77.7346C232.965 77.765 232.934 77.7888 232.899 77.8038C232.864 77.8187 232.826 77.8243 232.788 77.82L232.781 77.8186Z" fill="#000091"/>
<path d="M232.483 80.3603C232.447 80.3549 232.413 80.3405 232.384 80.3184C232.355 80.2963 232.332 80.2672 232.317 80.2338L230.339 75.8331C230.316 75.7797 230.315 75.7191 230.336 75.6645C230.357 75.6098 230.398 75.5654 230.45 75.5408C230.503 75.5163 230.562 75.5135 230.616 75.5331C230.671 75.5528 230.715 75.5932 230.739 75.6458L232.568 79.7148L235.312 76.1692C235.33 76.1457 235.352 76.1259 235.377 76.1111C235.403 76.0962 235.431 76.0866 235.459 76.0827C235.488 76.0788 235.518 76.0808 235.546 76.0884C235.574 76.0961 235.6 76.1094 235.623 76.1274C235.646 76.1455 235.665 76.168 235.679 76.1937C235.693 76.2193 235.702 76.2476 235.705 76.2769C235.708 76.3061 235.706 76.3358 235.697 76.3642C235.689 76.3925 235.676 76.419 235.657 76.442L232.69 80.2766C232.666 80.3068 232.636 80.3304 232.601 80.3453C232.566 80.3601 232.528 80.3657 232.491 80.3614L232.483 80.3603Z" fill="#000091"/>
<path d="M232.19 82.809C232.155 82.8035 232.121 82.7891 232.092 82.7671C232.063 82.745 232.04 82.716 232.025 82.6826L229.688 77.4863C229.675 77.4598 229.668 77.4309 229.667 77.4014C229.665 77.3719 229.67 77.3423 229.68 77.3145C229.69 77.2867 229.705 77.2611 229.725 77.2393C229.745 77.2175 229.769 77.1998 229.796 77.1874C229.822 77.175 229.851 77.168 229.88 77.1669C229.909 77.1658 229.938 77.1706 229.965 77.181C229.993 77.1914 230.017 77.2072 230.038 77.2274C230.06 77.2477 230.076 77.2721 230.088 77.2991L232.276 82.1639L235.562 77.9255C235.598 77.8789 235.651 77.8486 235.709 77.8412C235.767 77.8339 235.825 77.8501 235.871 77.8863C235.917 77.9225 235.946 77.9758 235.953 78.0344C235.96 78.093 235.943 78.1521 235.907 78.1988L232.397 82.7255C232.374 82.7557 232.343 82.7793 232.309 82.7941C232.274 82.8089 232.236 82.8144 232.198 82.8101C232.196 82.8098 232.193 82.8094 232.19 82.809Z" fill="#000091"/>
<path d="M242.658 83.8731L240.653 86.0564L238.453 84.0557C238.112 83.7458 237.834 83.3722 237.637 82.956C237.44 82.5399 237.328 82.0895 237.305 81.6305C237.283 81.1715 237.352 80.7128 237.508 80.2808C237.664 79.8488 237.905 79.4518 238.215 79.1126L238.223 79.1044L240.227 76.9212L242.427 78.9218C242.769 79.2317 243.046 79.6054 243.243 80.0215C243.44 80.4376 243.553 80.888 243.575 81.3471C243.597 81.8061 243.528 82.2647 243.372 82.6967C243.216 83.1287 242.976 83.5257 242.665 83.8649L242.658 83.8731Z" fill="white"/>
<path d="M240.713 86.2629C240.678 86.2736 240.64 86.2748 240.603 86.2664C240.567 86.2581 240.533 86.2404 240.505 86.2153L238.305 84.2146C237.573 83.5502 237.134 82.6241 237.087 81.64C237.039 80.6559 237.387 79.6945 238.052 78.9672L238.06 78.9589L240.065 76.7755C240.104 76.7334 240.158 76.7083 240.215 76.7058C240.272 76.7033 240.328 76.7236 240.371 76.7622L242.571 78.763C243.304 79.4274 243.742 80.3535 243.789 81.3376C243.837 82.3216 243.489 83.283 242.824 84.0103L242.816 84.0186L240.811 86.202C240.785 86.2307 240.751 86.2518 240.713 86.2629ZM240.239 77.2257L238.374 79.2566C238.082 79.5749 237.857 79.9475 237.71 80.353C237.563 80.7584 237.499 81.1889 237.519 81.6198C237.54 82.0507 237.646 82.4735 237.831 82.8641C238.016 83.2547 238.276 83.6055 238.597 83.8963L240.637 85.7516L242.503 83.7195C243.091 83.0765 243.398 82.2267 243.356 81.3568C243.314 80.4869 242.927 79.6683 242.279 79.081L240.239 77.2257Z" fill="#000091"/>
<path d="M241.699 108.003C241.682 108.008 241.664 108.011 241.646 108.012C241.618 108.013 241.59 108.008 241.563 107.999C241.536 107.989 241.512 107.974 241.491 107.955C241.47 107.936 241.453 107.913 241.441 107.887C241.429 107.862 241.422 107.834 241.42 107.806L240.217 81.8449C240.214 81.7878 240.234 81.732 240.273 81.6899C240.312 81.6478 240.365 81.6227 240.423 81.6202C240.48 81.6177 240.536 81.638 240.579 81.6766C240.621 81.7152 240.646 81.7689 240.649 81.826L241.853 107.787C241.855 107.835 241.841 107.882 241.813 107.921C241.785 107.96 241.745 107.989 241.699 108.003Z" fill="#000091"/>
<path d="M240.298 77.1316C240.281 77.1367 240.263 77.1396 240.246 77.1404C240.217 77.1416 240.189 77.1373 240.162 77.1276C240.135 77.1179 240.111 77.1031 240.09 77.084C240.069 77.0649 240.052 77.0419 240.04 77.0162C240.028 76.9906 240.021 76.9629 240.019 76.9346L239.91 74.579C239.907 74.522 239.928 74.4662 239.966 74.4241C240.005 74.382 240.059 74.3569 240.116 74.3544C240.174 74.3519 240.23 74.3722 240.272 74.4108C240.315 74.4494 240.34 74.5031 240.343 74.5602L240.452 76.9157C240.454 76.9637 240.44 77.011 240.412 77.0501C240.384 77.0892 240.344 77.1179 240.298 77.1316Z" fill="#000091"/>
<path d="M240.297 77.1324C240.248 77.1468 240.196 77.1436 240.149 77.1235C240.103 77.1033 240.064 77.0675 240.042 77.0222L238.979 74.919C238.966 74.8936 238.958 74.8659 238.955 74.8374C238.953 74.8089 238.956 74.7803 238.965 74.7531C238.974 74.7259 238.988 74.7007 239.007 74.679C239.025 74.6573 239.048 74.6396 239.074 74.6268C239.099 74.614 239.127 74.6064 239.156 74.6045C239.185 74.6026 239.213 74.6063 239.241 74.6156C239.268 74.6248 239.293 74.6394 239.314 74.6584C239.336 74.6773 239.353 74.7004 239.366 74.7262L240.428 76.8295C240.442 76.8576 240.45 76.8885 240.451 76.92C240.452 76.9514 240.446 76.9827 240.434 77.0116C240.421 77.0405 240.402 77.0663 240.379 77.0871C240.355 77.108 240.327 77.1235 240.297 77.1324Z" fill="#000091"/>
<path d="M240.296 77.1317C240.257 77.1432 240.216 77.1436 240.177 77.1328C240.137 77.1219 240.102 77.1003 240.074 77.0704C240.047 77.0405 240.028 77.0035 240.021 76.9636C240.014 76.9238 240.018 76.8827 240.033 76.8451L240.907 74.6557C240.929 74.6045 240.971 74.5641 241.023 74.5429C241.075 74.5218 241.133 74.5216 241.185 74.5424C241.237 74.5631 241.279 74.6032 241.303 74.6542C241.326 74.7052 241.328 74.7631 241.309 74.8157L240.436 77.005C240.423 77.0352 240.405 77.0624 240.381 77.0843C240.356 77.1062 240.328 77.1224 240.296 77.1317Z" fill="#000091"/>
<path d="M241.222 89.4113C242.132 89.1417 242.647 88.1891 242.374 87.2836C242.1 86.378 241.142 85.8625 240.232 86.1321C239.323 86.4017 238.807 87.3543 239.081 88.2598C239.354 89.1653 240.313 89.6809 241.222 89.4113Z" fill="white"/>
<path d="M241.283 89.6177C240.916 89.7264 240.525 89.7244 240.159 89.6119C239.793 89.4994 239.468 89.2815 239.226 88.9858C238.984 88.69 238.835 88.3297 238.798 87.9504C238.761 87.5711 238.839 87.1898 239.02 86.8547C239.201 86.5197 239.479 86.2459 239.817 86.0681C240.155 85.8902 240.539 85.8163 240.92 85.8556C241.301 85.8949 241.662 86.0457 241.957 86.2889C242.253 86.5321 242.469 86.8568 242.579 87.222C242.727 87.7116 242.673 88.2388 242.43 88.6879C242.187 89.1371 241.774 89.4714 241.283 89.6177ZM240.293 86.3387C240.008 86.4231 239.755 86.5896 239.566 86.8171C239.377 87.0447 239.26 87.3232 239.23 87.6173C239.2 87.9114 239.259 88.2079 239.398 88.4694C239.538 88.7309 239.752 88.9456 240.014 89.0863C240.276 89.2271 240.573 89.2875 240.869 89.2601C241.165 89.2326 241.446 89.1185 241.676 88.9321C241.906 88.7457 242.075 88.4954 242.162 88.2129C242.249 87.9304 242.25 87.6284 242.164 87.345C242.049 86.9652 241.787 86.646 241.437 86.4573C241.086 86.2686 240.674 86.2259 240.293 86.3386L240.293 86.3387Z" fill="#000091"/>
<path d="M111.059 114.299C110.996 114.299 110.936 114.275 110.891 114.233C110.846 114.191 110.818 114.133 110.815 114.071L107.842 61.1857C107.839 61.1225 107.862 61.0609 107.905 61.0141C107.948 60.9673 108.008 60.9391 108.072 60.9356C108.137 60.9321 108.199 60.9536 108.248 60.9954C108.296 61.0372 108.325 61.096 108.33 61.159L111.303 114.045C111.307 114.108 111.284 114.171 111.241 114.219C111.198 114.266 111.137 114.295 111.073 114.299C111.068 114.299 111.063 114.299 111.059 114.299Z" fill="#000091"/>
<path d="M111.378 54.5827C111.146 54.5497 110.91 54.6091 110.722 54.7477C110.534 54.8863 110.409 55.0929 110.376 55.322C110.404 55.0951 110.34 54.8664 110.198 54.6853C110.057 54.5042 109.849 54.385 109.62 54.3534C109.39 54.3218 109.157 54.3803 108.971 54.5164C108.784 54.6524 108.66 54.8552 108.623 55.0809L107.979 59.4688L106.79 55.1934C106.738 54.9675 106.597 54.7712 106.398 54.6476C106.199 54.524 105.959 54.4833 105.73 54.5345C105.501 54.5856 105.302 54.7244 105.176 54.9203C105.051 55.1163 105.01 55.3533 105.062 55.5792C105.071 55.6023 105.076 55.6267 105.078 55.6515C105.019 55.4278 104.873 55.236 104.672 55.1172C104.47 54.9985 104.23 54.9624 104.002 55.0166C103.775 55.075 103.581 55.2189 103.46 55.4173C103.34 55.6156 103.303 55.8527 103.358 56.0775C103.358 56.0855 103.366 56.0935 103.366 56.1016L103.521 56.6641L104.564 60.4573C104.743 61.1143 105.112 61.7058 105.626 62.1596C106.139 62.6134 106.776 62.9099 107.458 63.0129V63.021C107.954 63.0843 108.457 63.0543 108.941 62.9326V62.9245C109.604 62.7361 110.198 62.3627 110.65 61.8494C111.103 61.3361 111.395 60.7048 111.492 60.0314L112.047 56.1417L112.128 55.5631C112.146 55.4499 112.141 55.3342 112.113 55.223C112.085 55.1118 112.034 55.0073 111.964 54.9158C111.894 54.8242 111.806 54.7476 111.706 54.6903C111.605 54.6331 111.494 54.5965 111.378 54.5827Z" fill="#F9CFD2"/>
<path d="M105.977 59.1472C105.923 59.1472 105.871 59.1297 105.828 59.0975C105.786 59.0654 105.755 59.0202 105.741 58.9692L104.828 55.6501C104.811 55.5884 104.82 55.5226 104.852 55.4671C104.884 55.4116 104.938 55.371 105 55.3543C105.063 55.3376 105.13 55.3461 105.186 55.3779C105.242 55.4097 105.283 55.4622 105.3 55.5239L106.213 58.8434C106.23 58.9051 106.221 58.9709 106.189 59.0264C106.157 59.0819 106.103 59.1224 106.041 59.1391C106.02 59.1446 105.998 59.1474 105.977 59.1472Z" fill="#000091"/>
<path d="M109.903 58.9061C109.892 58.9061 109.88 58.9053 109.869 58.9037C109.805 58.8947 109.747 58.861 109.708 58.8099C109.669 58.7588 109.652 58.6946 109.661 58.6313L110.15 55.2238C110.159 55.1605 110.193 55.1033 110.245 55.0649C110.297 55.0264 110.362 55.0099 110.426 55.0188C110.491 55.0278 110.549 55.0615 110.588 55.1126C110.627 55.1637 110.643 55.228 110.634 55.2913L110.145 58.6988C110.137 58.7562 110.108 58.8088 110.064 58.8469C110.019 58.885 109.962 58.906 109.903 58.9061Z" fill="#000091"/>
<path d="M108.477 68.4938C108.443 68.4938 108.408 68.4864 108.376 68.4722C108.344 68.4579 108.316 68.4371 108.293 68.4112L104.943 64.626C104.901 64.5778 104.879 64.5149 104.884 64.4511C104.888 64.3873 104.918 64.3278 104.967 64.2857C105.016 64.2437 105.08 64.2225 105.144 64.2268C105.209 64.2312 105.269 64.2607 105.312 64.3089L108.662 68.0941C108.693 68.1289 108.713 68.1718 108.719 68.2176C108.726 68.2635 108.72 68.3102 108.7 68.3524C108.681 68.3945 108.649 68.4303 108.61 68.4553C108.57 68.4804 108.524 68.4937 108.478 68.4937L108.477 68.4938Z" fill="#000091"/>
<path d="M108.474 68.4935C108.431 68.4935 108.388 68.4819 108.351 68.4601C108.313 68.4383 108.282 68.407 108.261 68.3694C108.24 68.3319 108.229 68.2894 108.23 68.2465C108.231 68.2035 108.244 68.1616 108.267 68.1251L110.957 63.8578C110.973 63.8305 110.996 63.8068 111.022 63.788C111.048 63.7692 111.077 63.7556 111.109 63.7482C111.14 63.7408 111.173 63.7396 111.205 63.7447C111.237 63.7498 111.267 63.7611 111.295 63.778C111.322 63.7948 111.346 63.8168 111.365 63.8428C111.384 63.8688 111.397 63.8982 111.404 63.9293C111.411 63.9604 111.412 63.9926 111.407 64.024C111.401 64.0554 111.389 64.0855 111.372 64.1124L108.682 68.3797C108.66 68.4145 108.63 68.4433 108.593 68.4632C108.557 68.4831 108.516 68.4935 108.474 68.4935Z" fill="#000091"/>
<path d="M222.679 78.9723C222.728 78.9293 222.774 78.8814 222.815 78.8279L224.385 76.8C224.734 76.3494 224.65 75.7005 224.197 75.3506C223.745 75.0007 223.095 75.0823 222.747 75.5329L222.07 76.407L221.928 75.3093C221.854 74.7432 221.336 74.3421 220.769 74.4133C220.203 74.4845 219.803 75.001 219.876 75.567L220.019 76.6648L219.14 75.9856C218.688 75.6357 218.038 75.7172 217.69 76.1678C217.341 76.6184 217.425 77.2672 217.877 77.6172L219.914 79.1921C219.994 79.254 220.08 79.3017 220.17 79.337C217.94 80.2291 216.508 82.5401 216.831 85.035C217.216 87.9997 219.932 90.1009 222.9 89.7281C225.867 89.3553 227.961 86.6497 227.577 83.685C227.244 81.1162 225.16 79.1971 222.679 78.9723Z" fill="white"/>
<path d="M222.929 89.9403C219.85 90.3272 217.02 88.1387 216.621 85.0616C216.31 82.6609 217.569 80.3521 219.714 79.3058L217.749 77.786C217.204 77.3643 217.102 76.5795 217.522 76.0365C217.726 75.7735 218.02 75.6057 218.351 75.5642C218.681 75.5226 219.009 75.6122 219.273 75.8165L219.742 76.1791L219.666 75.5935C219.578 74.9114 220.061 74.2867 220.744 74.2009C221.426 74.1152 222.054 74.6003 222.142 75.2824L222.218 75.8679L222.579 75.4015C222.783 75.1385 223.077 74.9707 223.407 74.9292C223.738 74.8876 224.066 74.9772 224.33 75.1815C224.875 75.6032 224.977 76.388 224.557 76.931L223.102 78.8106C224.213 78.9939 225.259 79.5125 226.083 80.2949C227.019 81.1839 227.625 82.3783 227.791 83.6582C228.19 86.7353 226.009 89.5534 222.929 89.9403ZM218.406 75.9886C218.188 76.0159 217.995 76.126 217.861 76.2988C217.585 76.6555 217.652 77.1711 218.01 77.4481L220.047 79.023C220.108 79.0702 220.176 79.1088 220.25 79.1378C220.332 79.17 220.386 79.2487 220.386 79.3363C220.387 79.4239 220.334 79.5028 220.252 79.5354C218.06 80.4123 216.742 82.6628 217.046 85.0082C217.414 87.8513 220.029 89.8735 222.874 89.516C225.72 89.1585 227.735 86.5546 227.367 83.7116C227.055 81.3075 225.077 79.4039 222.662 79.1851C222.577 79.1774 222.504 79.1196 222.478 79.0382C222.451 78.9569 222.475 78.8675 222.539 78.8112C222.58 78.7757 222.616 78.7371 222.648 78.6966L224.217 76.6687C224.351 76.4959 224.409 76.2811 224.381 76.0641C224.353 75.847 224.242 75.6536 224.068 75.5193C223.895 75.3851 223.68 75.3263 223.462 75.3536C223.245 75.3809 223.052 75.4911 222.918 75.6639L222.242 76.538C222.189 76.6063 222.1 76.636 222.016 76.6131C221.933 76.5902 221.871 76.5193 221.86 76.4335L221.717 75.3358C221.659 74.8877 221.247 74.569 220.799 74.6253C220.35 74.6817 220.033 75.092 220.091 75.5402L220.233 76.638C220.244 76.7238 220.202 76.8077 220.127 76.8505C220.052 76.8933 219.958 76.8867 219.89 76.8336L219.012 76.1544C218.838 76.0201 218.623 75.9613 218.406 75.9886Z" fill="#000091"/>
<path d="M225.068 107.885C224.951 107.899 224.844 107.817 224.829 107.699L221.838 84.4023C221.823 84.2853 221.905 84.1784 222.022 84.1635C222.139 84.1487 222.246 84.2316 222.261 84.3487L225.252 107.646C225.267 107.763 225.185 107.87 225.068 107.885Z" fill="#000091"/>
<path d="M214.813 96.027C214.696 96.0458 214.586 95.9659 214.567 95.8487L213.174 87.2758C213.155 87.1585 213.235 87.0483 213.352 87.0295C213.469 87.0108 213.58 87.0906 213.599 87.2078L214.991 95.7807C215.01 95.898 214.931 96.0082 214.813 96.027Z" fill="#000091"/>
<path d="M213.633 88.7307C214.457 88.5996 215.016 87.827 214.882 87.0051C214.747 86.1832 213.971 85.6233 213.147 85.7544C212.322 85.8855 211.763 86.6581 211.898 87.48C212.032 88.3018 212.809 88.8618 213.633 88.7307Z" fill="#F9CFD2"/>
<path d="M116.689 72.4287C117.919 72.4287 118.916 71.4342 118.916 70.2074C118.916 68.9807 117.919 67.9862 116.689 67.9862C115.459 67.9862 114.462 68.9807 114.462 70.2074C114.462 71.4342 115.459 72.4287 116.689 72.4287Z" fill="white"/>
<path d="M116.689 72.6561C116.203 72.6561 115.728 72.5125 115.325 72.2434C114.921 71.9743 114.606 71.5919 114.42 71.1445C114.234 70.697 114.186 70.2047 114.28 69.7297C114.375 69.2547 114.609 68.8184 114.953 68.4759C115.296 68.1335 115.733 67.9003 116.21 67.8058C116.686 67.7113 117.18 67.7598 117.628 67.9451C118.077 68.1305 118.461 68.4443 118.73 68.847C119 69.2497 119.144 69.7231 119.144 70.2074C119.144 70.8566 118.885 71.479 118.424 71.9381C117.964 72.3971 117.34 72.6553 116.689 72.6561ZM116.689 68.2136C116.293 68.2136 115.907 68.3305 115.578 68.5496C115.249 68.7687 114.993 69.0801 114.842 69.4444C114.69 69.8087 114.651 70.2096 114.728 70.5964C114.805 70.9831 114.995 71.3384 115.275 71.6172C115.555 71.8961 115.911 72.086 116.299 72.1629C116.687 72.2398 117.089 72.2003 117.454 72.0494C117.819 71.8985 118.132 71.643 118.351 71.3151C118.571 70.9872 118.688 70.6017 118.688 70.2074C118.688 69.6788 118.477 69.172 118.102 68.7982C117.727 68.4244 117.219 68.2142 116.689 68.2136Z" fill="#000091"/>
<path d="M119.046 77.1667C120.276 77.1667 121.273 76.1722 121.273 74.9455C121.273 73.7187 120.276 72.7242 119.046 72.7242C117.816 72.7242 116.819 73.7187 116.819 74.9455C116.819 76.1722 117.816 77.1667 119.046 77.1667Z" fill="white"/>
<path d="M119.046 77.3942C118.56 77.3942 118.085 77.2506 117.682 76.9816C117.278 76.7125 116.963 76.3301 116.777 75.8826C116.591 75.4352 116.543 74.9428 116.637 74.4678C116.732 73.9929 116.966 73.5565 117.309 73.2141C117.653 72.8716 118.09 72.6384 118.567 72.5439C119.043 72.4495 119.537 72.4979 119.985 72.6833C120.434 72.8686 120.818 73.1825 121.087 73.5851C121.357 73.9878 121.501 74.4613 121.501 74.9456C121.5 75.5948 121.242 76.2172 120.781 76.6762C120.321 77.1353 119.697 77.3935 119.046 77.3942ZM119.046 72.9517C118.65 72.9517 118.264 73.0687 117.935 73.2878C117.606 73.5068 117.35 73.8182 117.199 74.1826C117.047 74.5469 117.008 74.9478 117.085 75.3345C117.162 75.7213 117.352 76.0766 117.632 76.3554C117.912 76.6342 118.268 76.8241 118.656 76.9011C119.044 76.978 119.446 76.9385 119.811 76.7876C120.176 76.6367 120.488 76.3811 120.708 76.0533C120.928 75.7254 121.045 75.3399 121.045 74.9456C121.044 74.417 120.834 73.9102 120.459 73.5364C120.084 73.1626 119.576 72.9524 119.046 72.9517Z" fill="#000091"/>
<path d="M114.603 77.2881C115.833 77.2881 116.83 76.2936 116.83 75.0669C116.83 73.8401 115.833 72.8456 114.603 72.8456C113.372 72.8456 112.375 73.8401 112.375 75.0669C112.375 76.2936 113.372 77.2881 114.603 77.2881Z" fill="white"/>
<path d="M114.602 77.5155C114.116 77.5155 113.642 77.3719 113.238 77.1028C112.834 76.8337 112.519 76.4513 112.334 76.0039C112.148 75.5564 112.099 75.0641 112.194 74.5891C112.289 74.1141 112.522 73.6778 112.866 73.3353C113.209 72.9929 113.647 72.7597 114.123 72.6652C114.599 72.5707 115.093 72.6192 115.542 72.8045C115.99 72.9899 116.374 73.3037 116.644 73.7064C116.914 74.1091 117.058 74.5825 117.058 75.0668C117.057 75.716 116.798 76.3384 116.338 76.7975C115.877 77.2565 115.253 77.5147 114.602 77.5155ZM114.602 73.073C114.207 73.073 113.82 73.1899 113.491 73.409C113.163 73.6281 112.906 73.9395 112.755 74.3038C112.604 74.6681 112.564 75.069 112.641 75.4558C112.718 75.8425 112.909 76.1978 113.188 76.4766C113.468 76.7555 113.824 76.9454 114.212 77.0223C114.6 77.0992 115.002 77.0597 115.367 76.9088C115.733 76.7579 116.045 76.5024 116.265 76.1745C116.484 75.8466 116.601 75.4611 116.601 75.0668C116.601 74.5382 116.39 74.0314 116.015 73.6576C115.64 73.2839 115.132 73.0736 114.602 73.073Z" fill="#000091"/>
<path d="M119.188 82.1025C120.418 82.1025 121.415 81.1081 121.415 79.8813C121.415 78.6545 120.418 77.6601 119.188 77.6601C117.958 77.6601 116.96 78.6545 116.96 79.8813C116.96 81.1081 117.958 82.1025 119.188 82.1025Z" fill="white"/>
<path d="M119.187 82.3297C118.702 82.3297 118.227 82.186 117.823 81.917C117.419 81.6479 117.104 81.2655 116.919 80.818C116.733 80.3706 116.684 79.8783 116.779 79.4033C116.874 78.9283 117.108 78.492 117.451 78.1495C117.794 77.8071 118.232 77.5738 118.708 77.4794C119.184 77.3849 119.678 77.4334 120.127 77.6187C120.576 77.804 120.959 78.1179 121.229 78.5206C121.499 78.9233 121.643 79.3967 121.643 79.881C121.642 80.5302 121.383 81.1526 120.923 81.6117C120.462 82.0707 119.838 82.3289 119.187 82.3297ZM119.187 77.8872C118.792 77.8872 118.405 78.0041 118.076 78.2232C117.748 78.4423 117.491 78.7537 117.34 79.118C117.189 79.4823 117.149 79.8832 117.226 80.27C117.303 80.6567 117.494 81.012 117.773 81.2908C118.053 81.5697 118.409 81.7595 118.797 81.8365C119.185 81.9134 119.587 81.8739 119.952 81.723C120.318 81.5721 120.63 81.3166 120.85 80.9887C121.069 80.6608 121.187 80.2753 121.187 79.881C121.186 79.3524 120.975 78.8456 120.6 78.4718C120.225 78.098 119.717 77.8878 119.187 77.8872Z" fill="#000091"/>
<path d="M114.735 82.2157C115.966 82.2157 116.963 81.2212 116.963 79.9944C116.963 78.7677 115.966 77.7732 114.735 77.7732C113.505 77.7732 112.508 78.7677 112.508 79.9944C112.508 81.2212 113.505 82.2157 114.735 82.2157Z" fill="white"/>
<path d="M114.735 82.4431C114.25 82.4431 113.775 82.2995 113.371 82.0304C112.967 81.7614 112.652 81.3789 112.467 80.9315C112.281 80.4841 112.232 79.9917 112.327 79.5167C112.422 79.0417 112.655 78.6054 112.999 78.263C113.342 77.9205 113.78 77.6873 114.256 77.5928C114.732 77.4983 115.226 77.5468 115.675 77.7322C116.124 77.9175 116.507 78.2314 116.777 78.634C117.047 79.0367 117.191 79.5101 117.191 79.9944C117.19 80.6436 116.931 81.266 116.471 81.7251C116.01 82.1842 115.386 82.4424 114.735 82.4431ZM114.735 78.0006C114.34 78.0006 113.953 78.1176 113.624 78.3367C113.296 78.5557 113.039 78.8671 112.888 79.2314C112.737 79.5958 112.697 79.9967 112.774 80.3834C112.851 80.7702 113.042 81.1254 113.321 81.4043C113.601 81.6831 113.957 81.873 114.345 81.9499C114.733 82.0269 115.135 81.9874 115.5 81.8365C115.866 81.6856 116.178 81.43 116.398 81.1021C116.617 80.7743 116.735 80.3888 116.735 79.9944C116.734 79.4658 116.523 78.9591 116.148 78.5853C115.773 78.2115 115.265 78.0012 114.735 78.0006Z" fill="#000091"/>
<path d="M117.611 104.17C117.552 104.17 117.495 104.147 117.452 104.106C117.41 104.065 117.385 104.008 117.383 103.949L116.494 71.2585C116.493 71.2287 116.499 71.1989 116.509 71.171C116.52 71.1431 116.536 71.1176 116.557 71.0959C116.598 71.0521 116.656 71.0265 116.716 71.0249C116.777 71.0232 116.835 71.0456 116.879 71.0871C116.923 71.1286 116.949 71.1858 116.95 71.2461L117.839 103.937C117.84 103.967 117.835 103.996 117.824 104.024C117.814 104.052 117.798 104.078 117.777 104.099C117.756 104.121 117.732 104.139 117.704 104.151C117.677 104.163 117.648 104.17 117.618 104.17L117.611 104.17Z" fill="#000091"/>
<path d="M209.012 91.5384C209.581 91.5384 210.042 91.0708 210.042 90.4941C210.042 89.9174 209.581 89.4498 209.012 89.4498C208.443 89.4498 207.982 89.9174 207.982 90.4941C207.982 91.0708 208.443 91.5384 209.012 91.5384Z" fill="white"/>
<path d="M209.015 91.7375C208.772 91.7375 208.535 91.6646 208.333 91.5279C208.131 91.3912 207.974 91.197 207.881 90.9697C207.788 90.7424 207.764 90.4923 207.811 90.251C207.859 90.0098 207.976 89.7881 208.147 89.6142C208.319 89.4402 208.537 89.3218 208.775 89.2738C209.013 89.2258 209.26 89.2504 209.484 89.3446C209.708 89.4387 209.9 89.5981 210.035 89.8027C210.17 90.0072 210.242 90.2477 210.242 90.4937C210.241 90.8235 210.112 91.1396 209.882 91.3728C209.652 91.606 209.34 91.7371 209.015 91.7375ZM209.015 89.649C208.85 89.649 208.689 89.6985 208.552 89.7913C208.415 89.8841 208.308 90.0161 208.245 90.1704C208.182 90.3248 208.165 90.4946 208.198 90.6585C208.23 90.8224 208.309 90.9729 208.426 91.091C208.542 91.2091 208.691 91.2896 208.852 91.3222C209.014 91.3548 209.181 91.3381 209.334 91.2741C209.486 91.2102 209.616 91.1019 209.708 90.963C209.799 90.8241 209.848 90.6608 209.848 90.4937C209.848 90.2697 209.76 90.055 209.604 89.8967C209.447 89.7383 209.236 89.6492 209.015 89.649Z" fill="#000091"/>
<path d="M205.882 92.5689C206.331 92.5689 206.695 92.1997 206.695 91.7441C206.695 91.2886 206.331 90.9194 205.882 90.9194C205.432 90.9194 205.068 91.2886 205.068 91.7441C205.068 92.1997 205.432 92.5689 205.882 92.5689Z" fill="white"/>
<path d="M205.884 92.7684C205.685 92.7684 205.489 92.7083 205.323 92.5958C205.157 92.4832 205.027 92.3232 204.951 92.1361C204.874 91.9489 204.854 91.7429 204.893 91.5442C204.932 91.3455 205.029 91.163 205.17 91.0198C205.311 90.8765 205.491 90.779 205.687 90.7394C205.883 90.6999 206.086 90.7202 206.271 90.7977C206.456 90.8753 206.613 91.0065 206.724 91.175C206.835 91.3434 206.895 91.5415 206.895 91.7441C206.894 92.0156 206.788 92.276 206.598 92.468C206.409 92.6601 206.152 92.7681 205.884 92.7684ZM205.884 91.1188C205.762 91.1188 205.643 91.1555 205.542 91.2242C205.44 91.2929 205.361 91.3906 205.315 91.5048C205.268 91.6191 205.256 91.7448 205.279 91.8661C205.303 91.9873 205.362 92.0987 205.448 92.1862C205.535 92.2736 205.644 92.3332 205.764 92.3573C205.884 92.3814 206.008 92.369 206.12 92.3217C206.233 92.2744 206.329 92.1943 206.397 92.0914C206.465 91.9886 206.501 91.8677 206.501 91.7441C206.501 91.5783 206.436 91.4194 206.32 91.3022C206.205 91.185 206.048 91.119 205.884 91.1188Z" fill="#000091"/>
<path d="M207.496 96.0942C207.466 96.0942 207.436 96.087 207.409 96.0733C207.381 96.0595 207.358 96.0395 207.339 96.0148C207.321 95.9902 207.308 95.9615 207.303 95.9311C207.297 95.9007 207.299 95.8695 207.307 95.8398L208.829 90.4388C208.836 90.4134 208.848 90.3897 208.864 90.3689C208.88 90.3482 208.9 90.3309 208.923 90.318C208.945 90.3051 208.97 90.2968 208.996 90.2938C209.022 90.2907 209.048 90.2929 209.073 90.3001C209.098 90.3073 209.121 90.3195 209.142 90.3359C209.162 90.3524 209.179 90.3727 209.191 90.3958C209.204 90.4189 209.212 90.4443 209.215 90.4705C209.217 90.4967 209.215 90.5232 209.208 90.5484L207.686 95.9494C207.674 95.9911 207.649 96.0278 207.615 96.0539C207.581 96.08 207.539 96.0942 207.496 96.0942Z" fill="#000091"/>
<path d="M207.496 96.0941C207.456 96.0941 207.417 96.082 207.385 96.0595C207.352 96.0369 207.327 96.0049 207.312 95.9677L205.705 91.8172C205.686 91.7679 205.687 91.713 205.708 91.6645C205.728 91.6159 205.767 91.5777 205.816 91.5583C205.865 91.5389 205.919 91.5399 205.967 91.561C206.014 91.5821 206.052 91.6216 206.071 91.6709L207.679 95.8213C207.69 95.8516 207.695 95.8843 207.691 95.9166C207.688 95.949 207.676 95.9799 207.658 96.0068C207.64 96.0337 207.616 96.0557 207.588 96.0709C207.559 96.0861 207.528 96.0941 207.496 96.0941H207.496Z" fill="#000091"/>
<path d="M132.495 52.0866C131.654 51.0599 131.556 49.6168 132.25 48.4866C132.898 47.4174 133.251 46.1965 133.274 44.9476C133.342 41.4976 130.898 38.5506 127.629 37.8455L129.481 36.001C129.92 35.5638 129.92 34.8551 129.481 34.4179C129.042 33.9807 128.33 33.9807 127.891 34.4179L127.04 35.2657V34.0665C127.04 33.4483 126.537 32.9471 125.916 32.9471C125.295 32.9471 124.792 33.4483 124.792 34.0665V35.2662L123.941 34.4181C123.502 33.9809 122.79 33.9809 122.351 34.4181C121.912 34.8553 121.912 35.564 122.351 36.0012L124.282 37.9238C121.261 38.7236 119.016 41.445 118.97 44.7104C118.952 46.0339 119.304 47.3364 119.987 48.4719C120.672 49.6083 120.607 51.0498 119.759 52.075C118.518 53.5774 117.856 55.4722 117.893 57.4178C117.971 61.8212 121.582 65.4073 126.004 65.4691C130.549 65.5342 134.286 61.9176 134.351 57.3913C134.379 55.4604 133.722 53.5818 132.495 52.0866Z" fill="white"/>
<path d="M126.124 65.702C126.083 65.702 126.042 65.7017 126 65.7012C123.801 65.6704 121.725 64.795 120.155 63.236C118.585 61.6773 117.699 59.6125 117.66 57.4222C117.622 55.4233 118.303 53.4719 119.579 51.928C120.347 50.9995 120.431 49.6587 119.787 48.5916C119.081 47.4181 118.718 46.075 118.737 44.7075C118.782 41.5574 120.86 38.7768 123.84 37.8124L122.186 36.1654C121.657 35.6386 121.657 34.7814 122.186 34.2546C122.715 33.7278 123.576 33.7278 124.105 34.2546L124.559 34.707V34.0669C124.559 33.3218 125.168 32.7157 125.916 32.7157C126.664 32.7157 127.273 33.3218 127.273 34.0669V34.7066L127.727 34.2543C128.256 33.7276 129.116 33.7276 129.645 34.2543C130.174 34.7811 130.174 35.6383 129.645 36.1652L128.085 37.7192C131.315 38.6092 133.572 41.5864 133.506 44.9525C133.483 46.2401 133.117 47.5039 132.449 48.6067C131.807 49.6522 131.898 50.9914 132.675 51.9402C133.935 53.4754 134.613 55.4126 134.584 57.3949C134.517 62.0007 130.734 65.7019 126.124 65.702ZM123.146 34.3228C122.917 34.3228 122.689 34.4093 122.515 34.5824C122.168 34.9285 122.168 35.4916 122.515 35.8376L124.446 37.7602C124.505 37.8189 124.528 37.9043 124.506 37.9843C124.484 38.0644 124.421 38.1268 124.341 38.1481C121.359 38.9377 119.246 41.6377 119.203 44.714C119.185 45.9954 119.525 47.2539 120.186 48.3532C120.931 49.5878 120.832 51.143 119.939 52.2227C118.733 53.6813 118.089 55.5249 118.125 57.4137C118.2 61.6683 121.736 65.178 126.007 65.2377C126.046 65.2383 126.085 65.2386 126.123 65.2386C130.48 65.239 134.056 61.7411 134.118 57.3884C134.146 55.515 133.505 53.6843 132.314 52.2337C132.314 52.2336 132.314 52.2335 132.314 52.2334C131.413 51.1324 131.307 49.5782 132.051 48.3661C132.677 47.3342 133.019 46.1504 133.041 44.9439C133.106 41.6587 130.809 38.769 127.579 38.0725C127.496 38.0546 127.429 37.9928 127.405 37.9114C127.381 37.8301 127.404 37.7421 127.464 37.6821L129.316 35.8376C129.485 35.6699 129.577 35.447 129.577 35.2099C129.577 34.9728 129.485 34.7499 129.316 34.5822C129.148 34.4146 128.924 34.3223 128.686 34.3223C128.448 34.3223 128.224 34.4146 128.056 34.5822L127.204 35.4301C127.138 35.4963 127.038 35.5162 126.951 35.4803C126.864 35.4444 126.807 35.3599 126.807 35.2661V34.0669C126.807 33.5774 126.407 33.1792 125.916 33.1792C125.424 33.1792 125.025 33.5774 125.025 34.0669V35.2665C125.025 35.3602 124.968 35.4447 124.881 35.4807C124.794 35.5165 124.694 35.4967 124.627 35.4304L123.776 34.5824C123.602 34.4093 123.374 34.3228 123.146 34.3228Z" fill="#000091"/>
<path d="M126.12 96.2307C125.991 96.2307 125.887 96.1269 125.887 95.9989V46.3153C125.887 46.1872 125.991 46.0835 126.12 46.0835C126.248 46.0835 126.353 46.1872 126.353 46.3153V95.9989C126.353 96.1269 126.248 96.2307 126.12 96.2307Z" fill="#000091"/>
<path d="M126.169 59.4782C126.11 59.4782 126.051 59.4559 126.005 59.4113C125.914 59.3213 125.913 59.1745 126.003 59.0835L128.304 56.7674C128.394 56.6764 128.542 56.6757 128.633 56.7657C128.725 56.8557 128.725 57.0024 128.635 57.0934L126.334 59.4095C126.289 59.4553 126.229 59.4782 126.169 59.4782Z" fill="#000091"/>
<path d="M126.071 59.4783C126.012 59.4783 125.952 59.4557 125.907 59.4104L123.581 57.0944C123.49 57.0038 123.49 56.8571 123.581 56.7666C123.672 56.676 123.819 56.676 123.91 56.7666L126.236 59.0826C126.327 59.1732 126.327 59.3199 126.236 59.4104C126.19 59.4557 126.131 59.4783 126.071 59.4783Z" fill="#000091"/>
<path d="M126.169 56.2775C126.11 56.2775 126.051 56.2552 126.005 56.2105C125.914 56.1205 125.913 55.9737 126.003 55.8827L128.304 53.5674C128.395 53.4764 128.542 53.4756 128.633 53.5657C128.725 53.6557 128.725 53.8025 128.635 53.8935L126.334 56.2088C126.289 56.2546 126.229 56.2775 126.169 56.2775Z" fill="#000091"/>
<path d="M126.071 56.2778C126.012 56.2778 125.952 56.2552 125.907 56.21L123.581 53.8947C123.49 53.8042 123.49 53.6574 123.581 53.5669C123.672 53.4764 123.819 53.4764 123.91 53.5668L126.236 55.8821C126.327 55.9726 126.327 56.1193 126.236 56.2099C126.19 56.2552 126.131 56.2778 126.071 56.2778Z" fill="#000091"/>
<path d="M126.169 53.0779C126.11 53.0779 126.051 53.0556 126.005 53.0109C125.914 52.9209 125.913 52.7742 126.003 52.6832L128.304 50.3671C128.394 50.2761 128.542 50.2753 128.633 50.3653C128.725 50.4553 128.725 50.6021 128.635 50.6931L126.334 53.0092C126.289 53.055 126.229 53.0779 126.169 53.0779Z" fill="#000091"/>
<path d="M126.071 53.078C126.012 53.078 125.952 53.0553 125.907 53.0101L123.581 50.694C123.49 50.6035 123.49 50.4568 123.581 50.3662C123.672 50.2757 123.819 50.2757 123.91 50.3662L126.236 52.6823C126.327 52.7728 126.327 52.9195 126.236 53.0101C126.19 53.0553 126.131 53.078 126.071 53.078Z" fill="#000091"/>
<path d="M126.169 49.8773C126.11 49.8773 126.051 49.855 126.005 49.8103C125.914 49.7203 125.913 49.5735 126.003 49.4825L128.304 47.1665C128.394 47.0755 128.542 47.0747 128.633 47.1647C128.725 47.2547 128.725 47.4015 128.635 47.4925L126.334 49.8085C126.289 49.8543 126.229 49.8773 126.169 49.8773Z" fill="#000091"/>
<path d="M126.071 49.8774C126.012 49.8774 125.952 49.8547 125.907 49.8094L123.581 47.4934C123.49 47.4029 123.49 47.2562 123.581 47.1656C123.672 47.0751 123.819 47.0751 123.91 47.1656L126.236 49.4817C126.327 49.5722 126.327 49.7189 126.236 49.8094C126.19 49.8547 126.131 49.8774 126.071 49.8774Z" fill="#000091"/>
<path d="M104.915 96.1354C104.91 96.1363 104.904 96.1373 104.899 96.1377C104.833 96.1447 104.768 96.1253 104.716 96.0835C104.665 96.0418 104.632 95.9813 104.624 95.9152L103.205 83.2806C103.199 83.215 103.218 83.1498 103.259 83.0988C103.3 83.0479 103.359 83.0155 103.424 83.0085C103.489 83.0016 103.554 83.0206 103.605 83.0616C103.657 83.1025 103.69 83.1621 103.698 83.2275L105.118 95.8621C105.125 95.9253 105.108 95.9886 105.07 96.0394C105.033 96.0901 104.977 96.1244 104.915 96.1354Z" fill="#000091"/>
<path d="M103.217 80.8459C103.168 80.8546 103.117 80.8482 103.071 80.8275C103.025 80.8068 102.987 80.7728 102.96 80.73C102.934 80.6871 102.921 80.6373 102.923 80.587C102.925 80.5368 102.942 80.4884 102.972 80.4482L103.999 79.0603C104.038 79.007 104.097 78.9719 104.162 78.9625C104.228 78.9531 104.295 78.9702 104.348 79.0102C104.401 79.0501 104.436 79.1096 104.446 79.1755C104.456 79.2414 104.439 79.3083 104.4 79.3615L103.373 80.7494C103.335 80.8005 103.279 80.835 103.217 80.8459Z" fill="#000091"/>
<path d="M103.215 80.8477C103.179 80.854 103.142 80.8523 103.106 80.8425C103.07 80.8327 103.037 80.8151 103.009 80.791L101.694 79.6627C101.669 79.6413 101.649 79.6151 101.634 79.5857C101.619 79.5563 101.61 79.5243 101.607 79.4915C101.601 79.4251 101.622 79.3595 101.665 79.309C101.708 79.2585 101.769 79.2273 101.835 79.2222C101.901 79.2172 101.966 79.2387 102.017 79.282L102.852 79.9987L102.734 78.9605C102.73 78.9275 102.733 78.894 102.741 78.862C102.75 78.83 102.765 78.8002 102.786 78.7741C102.806 78.7481 102.831 78.7265 102.86 78.7105C102.889 78.6944 102.921 78.6844 102.954 78.6809C102.987 78.6773 103.02 78.6804 103.052 78.6899C103.083 78.6994 103.113 78.7152 103.139 78.7363C103.164 78.7574 103.186 78.7833 103.201 78.8127C103.217 78.8421 103.227 78.8742 103.23 78.9074L103.418 80.5736C103.425 80.6369 103.408 80.7003 103.371 80.7511C103.333 80.8019 103.277 80.8363 103.215 80.8472L103.215 80.8477Z" fill="#000091"/>
<path d="M105.626 83.3238L105.54 82.5654C105.464 81.9029 105.618 81.2359 105.977 80.6779L106.24 80.2661L100.077 80.9247L100.427 81.2713C100.902 81.7383 101.201 82.3559 101.273 83.0181L101.359 83.7765C101.391 84.0579 101.478 84.3305 101.614 84.5789C101.75 84.8272 101.934 85.0465 102.154 85.2241C102.374 85.4016 102.627 85.5341 102.897 85.6139C103.168 85.6936 103.451 85.7191 103.73 85.6889C104.01 85.6604 104.281 85.5766 104.528 85.4423C104.775 85.3079 104.993 85.1256 105.169 84.9058C105.346 84.686 105.477 84.4331 105.555 84.1617C105.633 83.8902 105.657 83.6055 105.626 83.3238Z" fill="#F9CFD2"/>
<path d="M255.472 63.7256C254.699 62.7818 254.609 61.4551 255.247 60.4161C255.843 59.4332 256.168 58.3108 256.188 57.1627C256.251 53.9911 254.003 51.282 250.997 50.6338L252.701 48.9381C253.104 48.5362 253.104 47.8846 252.701 47.4827C252.297 47.0808 251.642 47.0808 251.239 47.4827L250.456 48.2622V47.1597C250.456 46.5914 249.993 46.1307 249.422 46.1307C248.851 46.1307 248.389 46.5914 248.389 47.1597V48.2626L247.606 47.4829C247.202 47.0811 246.547 47.0811 246.144 47.4829C245.74 47.8848 245.74 48.5364 246.144 48.9383L247.919 50.7057C245.141 51.441 243.077 53.9427 243.035 56.9446C243.018 58.1613 243.342 59.3588 243.97 60.4026C244.6 61.4473 244.54 62.7725 243.761 63.7149C242.619 65.0961 242.01 66.8381 242.044 68.6266C242.116 72.6747 245.436 75.9714 249.503 76.0282C253.682 76.0881 257.119 72.7633 257.179 68.6022C257.205 66.8272 256.6 65.1002 255.472 63.7256Z" fill="#F9CFD2"/>
<path d="M249.61 104.307C249.492 104.307 249.396 104.212 249.396 104.094V58.4196C249.396 58.3019 249.492 58.2065 249.61 58.2065C249.728 58.2065 249.824 58.3019 249.824 58.4196V104.094C249.824 104.212 249.728 104.307 249.61 104.307Z" fill="#000091"/>
<path d="M249.659 70.5205C249.605 70.5205 249.55 70.5 249.508 70.4589C249.424 70.3762 249.424 70.2412 249.507 70.1576L251.622 68.0284C251.706 67.9448 251.841 67.9441 251.925 68.0268C252.009 68.1095 252.01 68.2445 251.927 68.3281L249.811 70.4573C249.769 70.4994 249.714 70.5205 249.659 70.5205Z" fill="#000091"/>
<path d="M249.565 70.5205C249.51 70.5205 249.455 70.4997 249.414 70.4581L247.275 68.329C247.191 68.2457 247.191 68.1109 247.275 68.0276C247.359 67.9444 247.494 67.9444 247.578 68.0276L249.716 70.1568C249.8 70.24 249.8 70.3749 249.716 70.4581C249.674 70.4997 249.62 70.5205 249.565 70.5205Z" fill="#000091"/>
<path d="M249.659 67.5782C249.604 67.5782 249.55 67.5577 249.508 67.5166C249.424 67.4338 249.424 67.2989 249.507 67.2152L251.622 65.0868C251.706 65.0031 251.841 65.0024 251.925 65.0852C252.009 65.168 252.01 65.3029 251.927 65.3866L249.811 67.515C249.769 67.5571 249.714 67.5782 249.659 67.5782Z" fill="#000091"/>
<path d="M249.565 67.5781C249.51 67.5781 249.455 67.5573 249.414 67.5158L247.275 65.3874C247.191 65.3042 247.191 65.1693 247.275 65.086C247.359 65.0028 247.494 65.0028 247.578 65.086L249.716 67.2144C249.8 67.2976 249.8 67.4325 249.716 67.5157C249.674 67.5573 249.62 67.5781 249.565 67.5781Z" fill="#000091"/>
<path d="M249.659 64.6366C249.605 64.6366 249.55 64.6161 249.508 64.575C249.424 64.4923 249.424 64.3574 249.507 64.2737L251.622 62.1445C251.706 62.0609 251.841 62.0602 251.925 62.1429C252.009 62.2257 252.01 62.3606 251.927 62.4442L249.811 64.5734C249.769 64.6155 249.714 64.6366 249.659 64.6366Z" fill="#000091"/>
<path d="M249.565 64.6367C249.51 64.6367 249.455 64.6158 249.414 64.5742L247.275 62.4451C247.191 62.3619 247.191 62.227 247.275 62.1438C247.359 62.0605 247.494 62.0605 247.578 62.1438L249.716 64.2729C249.8 64.3561 249.8 64.491 249.716 64.5742C249.674 64.6158 249.62 64.6367 249.565 64.6367Z" fill="#000091"/>
<path d="M249.659 61.6943C249.605 61.6943 249.55 61.6738 249.508 61.6328C249.424 61.55 249.424 61.4151 249.507 61.3314L251.622 59.2023C251.706 59.1186 251.841 59.1179 251.925 59.2007C252.009 59.2834 252.01 59.4183 251.927 59.502L249.811 61.6311C249.769 61.6732 249.714 61.6943 249.659 61.6943Z" fill="#000091"/>
<path d="M249.565 61.6944C249.51 61.6944 249.455 61.6736 249.414 61.632L247.275 59.5028C247.191 59.4196 247.191 59.2847 247.275 59.2015C247.359 59.1183 247.494 59.1183 247.578 59.2015L249.716 61.3306C249.8 61.4139 249.8 61.5487 249.716 61.632C249.674 61.6736 249.62 61.6944 249.565 61.6944Z" fill="#000091"/>
<path d="M223.215 24.8168C223.166 24.8223 222.254 24.5945 222.109 24.5508L223.674 21.5C223.688 21.472 223.71 21.4485 223.737 21.432C223.764 21.4156 223.795 21.4069 223.827 21.4069H223.829C223.861 21.4073 223.893 21.4166 223.92 21.4338C223.947 21.451 223.968 21.4754 223.982 21.5042L224.777 23.1673C224.779 23.1707 224.781 23.174 224.782 23.1774C224.908 23.4935 224.89 23.8458 224.796 24.1909C224.775 24.2016 223.739 24.7569 223.215 24.8168Z" fill="white"/>
<path d="M223.227 25.0046C223.071 25.0046 222.064 24.7339 222.054 24.7311C222.028 24.723 222.003 24.7093 221.982 24.6909C221.962 24.6724 221.945 24.6497 221.934 24.6244C221.924 24.599 221.918 24.5715 221.919 24.544C221.92 24.5164 221.927 24.4894 221.94 24.4648L223.505 21.414C223.536 21.3542 223.583 21.3041 223.641 21.2695C223.698 21.2348 223.765 21.2169 223.833 21.2178C223.9 21.2187 223.966 21.2384 224.023 21.2747C224.08 21.3109 224.126 21.3623 224.155 21.4229L224.95 23.0861C224.953 23.0924 224.956 23.099 224.959 23.1055C225.089 23.4319 225.097 23.8128 224.981 24.2394C224.974 24.265 224.962 24.2889 224.945 24.3095C224.928 24.3301 224.907 24.347 224.884 24.359L224.878 24.3621C224.619 24.4984 223.735 24.9475 223.237 25.0041C223.234 25.0045 223.231 25.0046 223.227 25.0046ZM222.386 24.4291C222.67 24.5021 223.112 24.609 223.213 24.6264C223.546 24.5806 224.15 24.3131 224.633 24.0627C224.706 23.7492 224.697 23.475 224.606 23.2468L223.827 21.6189L222.386 24.4291Z" fill="#000091"/>
<path d="M225.063 25.9605L227.704 25.0163C227.772 24.9924 227.846 24.988 227.917 25.0036C227.989 25.0192 228.054 25.0541 228.106 25.1045C228.158 25.1549 228.195 25.2187 228.212 25.2888C228.23 25.3588 228.227 25.4323 228.205 25.501C228.186 25.557 228.154 25.6081 228.112 25.6506C228.071 25.693 228.02 25.7258 227.964 25.7465L227.329 25.9668L227.869 26.0549C227.971 26.0708 228.062 26.1261 228.123 26.2087C228.183 26.2914 228.208 26.3945 228.192 26.4955C228.176 26.5965 228.121 26.6871 228.037 26.7473C227.954 26.8075 227.85 26.8324 227.748 26.8165L226.014 26.5443" fill="white"/>
<path d="M227.808 27.0102C227.778 27.0102 227.747 27.0078 227.717 27.0031L225.982 26.7308C225.933 26.7225 225.889 26.6952 225.86 26.6548C225.83 26.6144 225.818 26.5642 225.826 26.5151C225.834 26.466 225.861 26.422 225.901 26.3925C225.942 26.3631 225.992 26.3506 226.042 26.3578L227.776 26.63C227.807 26.6348 227.838 26.6325 227.868 26.6234C227.897 26.6143 227.924 26.5986 227.947 26.5775C227.973 26.5529 227.992 26.5212 228.001 26.4863C228.01 26.4513 228.009 26.4146 227.998 26.3803C227.987 26.3444 227.966 26.3122 227.938 26.2876C227.909 26.263 227.874 26.2469 227.837 26.2414L227.296 26.1533C227.255 26.1464 227.216 26.126 227.188 26.0952C227.159 26.0644 227.142 26.025 227.138 25.9833C227.134 25.9415 227.145 25.8997 227.168 25.8645C227.191 25.8293 227.225 25.8026 227.265 25.7888L227.896 25.5697C227.925 25.5587 227.952 25.5416 227.973 25.5195C227.995 25.4974 228.012 25.4707 228.023 25.4415C228.035 25.4068 228.036 25.3695 228.027 25.3339C228.018 25.2984 227.999 25.2661 227.972 25.241C227.946 25.2144 227.913 25.1959 227.876 25.1876C227.839 25.1794 227.801 25.1818 227.766 25.1945L225.126 26.1381C225.102 26.1468 225.077 26.1508 225.052 26.1499C225.027 26.1489 225.002 26.143 224.979 26.1325C224.956 26.122 224.936 26.1071 224.919 26.0887C224.902 26.0703 224.889 26.0487 224.88 26.0252C224.871 26.0017 224.868 25.9768 224.869 25.9519C224.87 25.9269 224.876 25.9025 224.887 25.88C224.898 25.8574 224.913 25.8372 224.932 25.8206C224.951 25.8039 224.973 25.7911 224.996 25.7829L227.637 24.8387C227.74 24.8027 227.85 24.7958 227.956 24.8189C228.062 24.842 228.16 24.894 228.237 24.9692C228.315 25.0444 228.37 25.1397 228.396 25.2442C228.422 25.3488 228.418 25.4585 228.384 25.5609C228.357 25.6398 228.313 25.7122 228.256 25.7732C228.199 25.8342 228.129 25.8824 228.051 25.9146C228.125 25.9486 228.191 25.9978 228.245 26.0588C228.298 26.1199 228.338 26.1915 228.362 26.2689C228.394 26.3708 228.397 26.4797 228.37 26.583C228.342 26.6863 228.286 26.7799 228.208 26.853C228.1 26.9538 227.957 27.01 227.808 27.0102Z" fill="#000091"/>
<path d="M220.003 25.2303L218.505 25.3751L219.971 25.9605L220.003 25.2303Z" fill="#000091"/>
<path d="M220.665 26.6028C220.936 26.7266 221.164 26.9283 221.319 27.1819C221.49 27.4561 221.717 27.6919 221.985 27.8743C222.943 28.5415 224.257 28.3715 225.063 27.5281L226.009 26.5335L223.172 24.7208C222.836 24.5929 222.526 24.4052 222.258 24.1668C221.999 23.9419 221.67 23.8133 221.326 23.8031C220.982 23.7929 220.645 23.9018 220.373 24.111C220.102 24.3202 219.912 24.6168 219.836 24.9497C219.761 25.2827 219.805 25.6312 219.961 25.9356C220.114 26.2294 220.362 26.4641 220.665 26.6028Z" fill="white"/>
<path d="M223.302 28.4697C222.793 28.4718 222.295 28.3178 221.877 28.0286C221.588 27.832 221.343 27.5775 221.159 27.2814C221.025 27.06 220.826 26.8837 220.59 26.7753L220.588 26.7744C220.247 26.6185 219.967 26.3544 219.794 26.0239C219.617 25.6804 219.566 25.2865 219.651 24.9098C219.735 24.5332 219.949 24.1976 220.256 23.9608C220.563 23.724 220.944 23.6008 221.333 23.6126C221.722 23.6243 222.094 23.7702 222.386 24.0251C222.637 24.248 222.926 24.4238 223.241 24.5436C223.253 24.5483 223.265 24.5543 223.277 24.5616L226.114 26.3743C226.137 26.3894 226.157 26.4093 226.172 26.4328C226.187 26.4563 226.196 26.4827 226.199 26.5103C226.203 26.5378 226.2 26.5657 226.191 26.592C226.183 26.6184 226.168 26.6425 226.149 26.6626L225.203 27.6571C224.959 27.9134 224.664 28.1176 224.337 28.2572C224.01 28.3969 223.658 28.4692 223.302 28.4697ZM220.745 26.4303C221.051 26.5692 221.307 26.7961 221.482 27.0816C221.639 27.3339 221.847 27.5507 222.094 27.7181C222.96 28.3209 224.177 28.1826 224.927 27.398L225.715 26.5691L223.087 24.8899C222.737 24.754 222.414 24.557 222.134 24.3083C221.908 24.1126 221.621 24.0008 221.322 23.9919C221.022 23.9831 220.729 24.0778 220.493 24.2598C220.256 24.4419 220.09 24.6999 220.024 24.9897C219.958 25.2795 219.996 25.583 220.131 25.8483C220.265 26.1044 220.481 26.3091 220.745 26.4303H220.745Z" fill="#000091"/>
<path d="M220.781 25.7968C220.991 25.7968 221.161 25.6277 221.161 25.4191C221.161 25.2105 220.991 25.0414 220.781 25.0414C220.57 25.0414 220.4 25.2105 220.4 25.4191C220.4 25.6277 220.57 25.7968 220.781 25.7968Z" fill="#000091"/>
<path d="M221.894 26.2228C221.838 26.1815 221.788 26.1336 221.744 26.0801C221.741 26.0754 221.738 26.0706 221.735 26.0657C221.602 25.8531 221.557 25.5982 221.609 25.3537C221.643 25.2015 221.619 25.0421 221.541 24.9068C221.531 24.8927 221.522 24.8787 221.513 24.8646C221.508 24.8564 221.503 24.8482 221.497 24.8401C221.494 24.8361 221.491 24.8319 221.488 24.8275C221.406 24.6962 221.274 24.6029 221.122 24.568C220.97 24.5331 220.81 24.5594 220.678 24.6412L219.948 25.0944C219.916 25.1142 219.879 25.1241 219.841 25.1231C219.804 25.122 219.767 25.11 219.737 25.0884C219.706 25.0669 219.683 25.0368 219.669 25.0021C219.656 24.9673 219.653 24.9294 219.661 24.893C219.748 24.5063 219.975 24.1647 220.299 23.9327C220.606 23.7075 220.981 23.5939 221.362 23.611C221.744 23.6281 222.107 23.7749 222.393 24.0266C222.615 24.2277 222.87 24.3896 223.148 24.5055L226.603 21.852C226.632 21.8304 226.665 21.817 226.701 21.8134C226.736 21.8098 226.772 21.8162 226.804 21.8317C226.836 21.8473 226.863 21.8714 226.882 21.9014C226.9 21.9314 226.91 21.966 226.91 22.0013V24.0407C226.91 24.0448 226.91 24.0489 226.91 24.0533C226.824 25.3562 224.803 26.2734 224.589 26.3668C224.215 26.6065 223.78 26.7343 223.335 26.7349C222.809 26.7352 222.3 26.5542 221.894 26.2228Z" fill="#000091"/>
<path d="M223.067 24.8792C223.041 24.8628 223.02 24.8406 223.005 24.8144C222.989 24.7881 222.981 24.7586 222.979 24.7284C222.978 24.6982 222.984 24.6681 222.997 24.6406C223.01 24.6132 223.029 24.5892 223.053 24.5708L226.601 21.8516C226.629 21.83 226.663 21.8166 226.698 21.8131C226.734 21.8095 226.769 21.8159 226.801 21.8315C226.833 21.847 226.86 21.8712 226.879 21.9011C226.898 21.9311 226.908 21.9657 226.908 22.001V22.7752C226.907 23.1202 226.815 23.4589 226.641 23.758C226.468 24.057 226.219 24.306 225.918 24.4805L225.145 24.9271C224.843 25.1038 224.498 25.1971 224.147 25.1973C223.764 25.1966 223.389 25.0861 223.067 24.8792Z" fill="#F9CFD2"/>
<path d="M231.741 64.5823L230.707 64.4486C230.235 64.3875 229.802 64.7198 229.739 65.191C229.721 65.3236 229.734 65.4585 229.778 65.5847L230.718 68.3096L232.341 65.9162C232.609 65.5223 232.506 64.9877 232.112 64.7221C232.001 64.6472 231.874 64.5993 231.741 64.5823Z" fill="#F9CFD2"/>
<path d="M226.985 67.2957L226.847 68.3281C226.783 68.7996 227.114 69.2319 227.587 69.2935C227.72 69.3109 227.856 69.297 227.983 69.2529L230.72 68.3044L228.325 66.6913C227.93 66.4259 227.393 66.5311 227.125 66.9263C227.051 67.0369 227.002 67.1634 226.985 67.2957Z" fill="#F9CFD2"/>
<path d="M114.17 29.665L114.299 28.9632C114.357 28.6427 114.671 28.4306 114.999 28.4894C115.091 28.506 115.179 28.5434 115.254 28.5987L116.876 29.7888L114.935 30.3388C114.615 30.4294 114.279 30.2489 114.185 29.9355C114.158 29.8476 114.153 29.755 114.17 29.665Z" fill="white"/>
<path d="M114.608 30.5263C114.531 30.5108 114.456 30.4839 114.385 30.4458C114.2 30.3464 114.066 30.1829 114.006 29.9852C113.972 29.8712 113.965 29.7492 113.987 29.6325C113.987 29.6324 113.987 29.6324 113.987 29.6324L114.116 28.9306C114.153 28.7285 114.268 28.5529 114.441 28.4361C114.613 28.3193 114.822 28.2755 115.029 28.3127C115.15 28.3343 115.264 28.3834 115.362 28.4552L116.984 29.6451C117.039 29.686 117.067 29.7542 117.055 29.8211C117.042 29.8881 116.992 29.9423 116.926 29.9612L114.985 30.5112C114.86 30.5465 114.731 30.5511 114.608 30.5263ZM114.349 29.6974C114.337 29.7596 114.341 29.8246 114.359 29.8854C114.391 29.9908 114.463 30.0781 114.561 30.1311C114.66 30.1841 114.773 30.1965 114.881 30.166L116.469 29.716L115.142 28.7421C115.09 28.7038 115.029 28.6779 114.965 28.6661C114.854 28.6463 114.743 28.6696 114.651 28.7319C114.559 28.7941 114.497 28.8877 114.478 28.9955L114.349 29.6974Z" fill="#000091"/>
<path d="M116.992 27.1499L117.71 27.2789C118.038 27.339 118.255 27.6473 118.195 27.9676C118.178 28.0567 118.141 28.1408 118.085 28.2133L116.875 29.7928L116.305 27.8926C116.212 27.5794 116.396 27.2526 116.716 27.1629C116.806 27.1377 116.9 27.1332 116.992 27.1499Z" fill="white"/>
<path d="M116.837 29.9686C116.77 29.9552 116.716 29.9067 116.697 29.8426L116.127 27.9424C116.005 27.534 116.245 27.107 116.662 26.9901C116.778 26.9574 116.903 26.9516 117.022 26.9732L117.74 27.1022C118.167 27.1807 118.451 27.5834 118.373 28.0005C118.351 28.1162 118.302 28.227 118.23 28.3211L117.02 29.9007C116.979 29.955 116.909 29.9816 116.841 29.9693C116.839 29.9691 116.838 29.9688 116.837 29.9686ZM117.682 27.4566C117.679 27.4561 117.677 27.4556 117.674 27.4552L116.957 27.3263C116.957 27.3263 116.957 27.3262 116.957 27.3262C116.893 27.3147 116.827 27.3179 116.765 27.3353C116.542 27.3977 116.414 27.6254 116.479 27.8431L116.946 29.3978L117.936 28.1052C117.974 28.0552 118 27.9961 118.012 27.9344C118.053 27.7143 117.905 27.5016 117.682 27.4566ZM116.989 27.1497L116.99 27.1498L116.989 27.1497Z" fill="#000091"/>
<path d="M253.088 40.6491L253.82 40.4365C254.155 40.3393 254.505 40.5281 254.603 40.8582C254.631 40.9511 254.636 41.0492 254.618 41.1446L254.243 43.2012L252.803 41.6723C252.566 41.4201 252.581 41.0255 252.836 40.7908C252.908 40.7249 252.994 40.6765 253.088 40.6491Z" fill="white"/>
<path d="M252.472 41.4613C252.45 41.3831 252.441 41.3013 252.444 41.218C252.452 41.0008 252.545 40.7996 252.707 40.6516C252.8 40.5662 252.913 40.5023 253.035 40.4668C253.035 40.4668 253.035 40.4668 253.035 40.4668L253.767 40.2542C253.978 40.1929 254.2 40.2163 254.393 40.3202C254.586 40.4241 254.726 40.596 254.788 40.8043C254.824 40.9256 254.831 41.0541 254.808 41.1779L254.432 43.2346C254.42 43.3053 254.367 43.3629 254.297 43.3832C254.228 43.4034 254.152 43.383 254.103 43.3304L252.663 41.8014C252.571 41.7034 252.506 41.587 252.472 41.4613ZM253.143 40.831C253.078 40.8499 253.018 40.8839 252.968 40.9295C252.882 41.0085 252.832 41.1158 252.828 41.2316C252.824 41.3475 252.865 41.458 252.945 41.5429L254.123 42.794L254.43 41.1108C254.442 41.0448 254.439 40.9767 254.419 40.9115C254.387 40.8005 254.312 40.7089 254.209 40.6535C254.106 40.5981 253.988 40.5856 253.875 40.6183L253.143 40.831Z" fill="#000091"/>
<path d="M256.835 42.054L257.049 42.7776C257.146 43.1088 256.953 43.4551 256.618 43.5513C256.525 43.5781 256.426 43.5832 256.331 43.5664L254.247 43.197L255.799 41.7714C256.056 41.5371 256.456 41.5522 256.692 41.8052C256.759 41.8761 256.808 41.9612 256.835 42.054Z" fill="white"/>
<path d="M254.061 43.2471C254.043 43.1791 254.064 43.1064 254.116 43.0583L255.669 41.6327C256.003 41.3273 256.525 41.347 256.834 41.6764C256.92 41.7682 256.984 41.8804 257.02 42.0006L257.234 42.7242C257.36 43.156 257.108 43.6087 256.671 43.734C256.55 43.7687 256.421 43.7755 256.297 43.7537L254.213 43.3842C254.141 43.3715 254.083 43.3199 254.062 43.2509C254.062 43.2496 254.062 43.2483 254.061 43.2471ZM256.867 42.8383C256.866 42.8358 256.866 42.8333 256.865 42.8308L256.651 42.1078C256.651 42.1078 256.651 42.1077 256.651 42.1076C256.632 42.0435 256.597 41.9837 256.551 41.9346C256.387 41.7589 256.108 41.7484 255.93 41.9112L254.66 43.0776L256.365 43.3798C256.431 43.3914 256.5 43.3877 256.565 43.3692C256.795 43.303 256.929 43.066 256.867 42.8383ZM256.835 42.0542L256.835 42.0548L256.835 42.0542Z" fill="#000091"/>
</g>
<defs>
<clipPath id="clip0_4490_264384">
<rect width="165.132" height="109.509" fill="white" transform="translate(97)"/>
</clipPath>
</defs>
</svg>
