<svg width="352" height="352" viewBox="0 0 352 352" fill="none" xmlns="http://www.w3.org/2000/svg">
<circle cx="176" cy="176" r="176" fill="white"/>
<path d="M145.416 122.226C145.31 119.14 145.517 116.05 146.035 113.005C148.021 101.555 154.4 91.3329 163.812 84.519C173.225 77.7051 184.925 74.8378 196.42 76.5286C207.915 78.2193 218.294 84.3343 225.346 93.5699C232.397 102.805 235.563 114.431 234.168 125.968C233.821 128.904 225.751 175.351 224.875 178.038L156.469 177.705L162.157 141.827L145.416 122.226Z" fill="white"/>
<path d="M156.033 181.183C156.172 181.2 156.312 181.21 156.453 181.211L224.859 181.544C225.604 181.547 226.33 181.315 226.933 180.879C227.537 180.443 227.986 179.827 228.217 179.12C229.269 175.897 237.332 129.123 237.658 126.379C239.2 113.913 235.803 101.338 228.194 91.3455C220.584 81.3531 209.367 74.7367 196.942 72.9119C184.517 71.0872 171.871 74.199 161.71 81.5816C151.549 88.9641 144.681 100.031 142.573 112.414C142.017 115.697 141.793 119.027 141.906 122.355C141.935 123.148 142.231 123.909 142.747 124.512L158.436 142.869L153.001 177.146C152.926 177.612 152.946 178.087 153.06 178.545C153.173 179.003 153.377 179.433 153.66 179.81C153.943 180.187 154.299 180.503 154.707 180.739C155.115 180.976 155.566 181.128 156.033 181.186L156.033 181.183ZM222.06 174.502L160.582 174.2L165.628 142.372C165.708 141.87 165.677 141.356 165.539 140.867C165.401 140.377 165.159 139.924 164.829 139.537L148.902 120.903C148.889 118.452 149.088 116.006 149.496 113.59C151.322 103.039 157.198 93.6184 165.87 87.3388C174.542 81.0593 185.324 78.4174 195.915 79.9769C206.507 81.5364 216.07 87.1737 222.564 95.6863C229.058 104.199 231.97 114.913 230.677 125.543C230.322 128.579 224.045 164.458 222.06 174.502Z" fill="#222433"/>
<path d="M171.586 242.376C172.17 242.449 172.763 242.51 173.363 242.558C181.36 243.303 189.422 242.214 196.935 239.373C204.448 236.532 211.213 232.014 216.717 226.163C222.222 220.312 226.319 213.282 228.697 205.608C231.075 197.935 231.672 189.82 230.442 181.881C229.841 177.788 228.741 173.784 227.165 169.959C226.81 169.098 226.127 168.413 225.266 168.055C224.406 167.697 223.439 167.696 222.577 168.052C221.716 168.407 221.031 169.091 220.674 169.951C220.316 170.812 220.315 171.779 220.67 172.641C222.03 175.943 222.979 179.4 223.495 182.934C224.359 188.589 224.171 194.355 222.941 199.941C220.477 210.804 214.154 220.402 205.148 226.952C196.141 233.503 185.064 236.561 173.974 235.557C166.556 234.888 159.413 232.42 153.163 228.369C147.949 224.97 143.482 220.546 140.032 215.366C136.581 210.186 134.221 204.358 133.093 198.236C131.965 192.115 132.093 185.828 133.471 179.758C134.848 173.688 137.445 167.961 141.104 162.926C141.38 162.553 141.58 162.13 141.692 161.68C141.804 161.23 141.826 160.763 141.756 160.304C141.687 159.846 141.527 159.406 141.287 159.009C141.047 158.613 140.73 158.268 140.356 157.995C139.982 157.721 139.557 157.524 139.106 157.416C138.656 157.307 138.188 157.289 137.73 157.362C137.272 157.435 136.834 157.598 136.439 157.841C136.045 158.085 135.702 158.404 135.432 158.78C131.206 164.59 128.208 171.2 126.618 178.206C125.029 185.213 124.883 192.469 126.188 199.534C127.493 206.599 130.223 213.324 134.21 219.299C138.198 225.274 143.36 230.375 149.382 234.29C154.332 237.436 159.749 239.778 165.431 241.227C167.462 241.713 169.517 242.097 171.586 242.376Z" fill="#222433"/>
<path d="M174.615 253.751L175.008 251.116L188.493 202.242L129.067 184.538L112.396 244.6L111.311 249.817C110.96 253.624 111.473 257.476 112.82 261.143C114.167 264.81 116.319 268.216 119.148 271.156C121.977 274.096 125.425 276.51 129.283 278.252C133.141 279.994 137.331 281.029 141.6 281.294C145.87 281.56 150.131 281.05 154.127 279.796C158.124 278.542 161.774 276.569 164.858 273.997C167.941 271.424 170.395 268.304 172.072 264.825C173.749 261.346 174.614 257.579 174.615 253.751Z" fill="white"/>
<path d="M139.171 284.219C139.454 284.254 139.734 284.29 140.02 284.316C144.812 284.821 149.64 284.427 154.197 283.159C158.754 281.891 162.939 279.777 166.484 276.952C170.081 274.092 172.969 270.587 174.97 266.652C176.97 262.717 178.042 258.434 178.12 254.067L178.459 251.785L191.897 203.076C192.111 202.301 191.983 201.473 191.539 200.764C191.096 200.054 190.37 199.517 189.512 199.261L130.085 181.556C129.629 181.42 129.15 181.368 128.677 181.404C128.203 181.439 127.746 181.56 127.331 181.76C126.917 181.961 126.555 182.236 126.268 182.569C125.98 182.902 125.773 183.286 125.658 183.697L108.987 243.76C108.97 243.82 108.956 243.879 108.944 243.94L107.859 249.157C107.837 249.267 107.82 249.379 107.81 249.491C107.15 257.662 110.043 265.834 115.886 272.304C121.728 278.774 130.07 283.042 139.171 284.219ZM184.296 204.278L171.602 250.282C171.571 250.391 171.548 250.503 171.531 250.615L171.139 253.251C171.119 253.377 171.109 253.504 171.109 253.632C171.072 257.169 170.223 260.641 168.616 263.833C167.008 267.024 164.676 269.867 161.764 272.184C158.932 274.441 155.589 276.13 151.949 277.144C148.309 278.157 144.451 278.473 140.623 278.07C140.391 278.041 140.168 278.02 139.944 277.992C132.679 277.051 126.017 273.652 121.336 268.499C116.656 263.347 114.314 256.833 114.796 250.307L115.826 245.351L131.585 188.573L184.296 204.278Z" fill="#222433"/>
<path d="M173.343 242.41C170.712 242.167 168.101 241.733 165.533 241.111C160.874 239.931 156.39 238.145 152.196 235.798C151.288 235.29 150.386 234.755 149.49 234.192C143.447 230.273 138.271 225.157 134.28 219.16C130.29 213.163 127.57 206.412 126.287 199.323C125.004 192.234 125.186 184.958 126.822 177.942C128.458 170.926 131.513 164.32 135.798 158.529C139.263 157.653 142.407 155.807 144.86 153.208C147.313 150.608 148.975 147.363 149.65 143.852C150.325 140.342 149.985 136.712 148.67 133.388C147.356 130.064 145.121 127.183 142.228 125.085C141.838 120.869 142.001 116.62 142.712 112.446C143.795 106.088 146.147 100.014 149.629 94.5855C153.111 89.1571 157.651 84.4864 162.978 80.8523C168.305 77.2182 174.31 74.6954 180.634 73.4344C186.957 72.1735 193.47 72.2004 199.783 73.5135C207.695 75.2083 215.054 78.8703 221.178 84.1612C227.302 89.4522 231.994 96.2014 234.821 103.786C235.03 104.352 235.084 104.963 234.976 105.557C234.869 106.151 234.603 106.705 234.208 107.161C233.813 107.618 233.303 107.959 232.731 108.151C232.158 108.342 231.545 108.376 230.955 108.25L175.043 96.0994L162.482 142.22L160.427 176.053L162.449 175.229C177.751 168.967 194.782 168.363 210.488 173.524L227.835 179.107C228.43 179.301 228.96 179.656 229.365 180.132C229.77 180.609 230.036 181.188 230.131 181.806C231.118 188.291 230.902 194.901 229.494 201.307C226.76 213.831 219.542 224.923 209.199 232.494C198.857 240.065 186.104 243.591 173.343 242.41Z" fill="#E3E3FD"/>
<path d="M171.13 245.717C171.755 245.796 172.39 245.861 173.036 245.912C186.646 247.165 200.244 243.399 211.273 235.324C222.302 227.249 230 215.421 232.92 202.066C234.42 195.24 234.651 188.195 233.6 181.286C233.412 180.023 232.874 178.839 232.049 177.865C231.224 176.892 230.143 176.168 228.929 175.776L211.56 170.184C196.165 165.128 179.526 165.336 164.261 170.774L165.959 142.797L177.549 100.244L230.197 111.683C231.401 111.945 232.653 111.878 233.823 111.49C234.992 111.102 236.036 110.407 236.845 109.477C237.655 108.548 238.2 107.418 238.423 106.206C238.647 104.994 238.541 103.744 238.116 102.587C235.081 94.4422 230.042 87.1938 223.467 81.5113C216.891 75.8288 208.989 71.8953 200.492 70.074C193.718 68.6661 186.729 68.6381 179.943 69.9917C173.158 71.3454 166.715 74.053 160.998 77.9528C155.282 81.8526 150.41 86.8646 146.673 92.6895C142.937 98.5144 140.412 105.033 139.25 111.855C138.486 116.333 138.31 120.891 138.726 125.414C138.773 125.912 138.925 126.394 139.173 126.828C139.421 127.263 139.759 127.639 140.164 127.932C143.192 130.127 145.309 133.357 146.115 137.009C146.922 140.661 146.361 144.482 144.54 147.749C143.534 149.574 142.162 151.171 140.51 152.44C138.857 153.709 136.961 154.623 134.938 155.124C134.153 155.323 133.461 155.786 132.979 156.436C128.406 162.612 125.147 169.659 123.401 177.143C121.656 184.627 121.461 192.389 122.829 199.951C124.198 207.513 127.1 214.714 131.357 221.111C135.615 227.508 141.137 232.965 147.583 237.146C148.561 237.764 149.53 238.338 150.488 238.87C154.95 241.365 159.72 243.264 164.676 244.519C166.806 245.027 168.96 245.426 171.13 245.717ZM226.67 182.431C227.576 188.461 227.37 194.607 226.061 200.563C223.509 212.247 216.774 222.595 207.125 229.658C197.477 236.721 185.579 240.013 173.673 238.913L173.615 238.906C171.155 238.679 168.714 238.27 166.314 237.684C161.98 236.578 157.808 234.912 153.904 232.728C153.056 232.256 152.202 231.748 151.364 231.22C145.814 227.612 141.048 222.921 137.351 217.429C133.655 211.936 131.103 205.754 129.849 199.253C128.595 192.752 128.664 186.064 130.052 179.59C131.441 173.115 134.12 166.987 137.929 161.572C141.73 160.367 145.139 158.166 147.801 155.197C150.463 152.227 152.281 148.598 153.065 144.688C153.849 140.778 153.572 136.729 152.261 132.962C150.95 129.196 148.653 125.85 145.611 123.273C145.411 119.848 145.6 116.413 146.175 113.031C147.179 107.14 149.36 101.511 152.587 96.4813C155.814 91.4515 160.022 87.1238 164.958 83.7565C169.895 80.3893 175.459 78.0515 181.319 76.8829C187.178 75.7142 193.213 75.7386 199.063 76.9547C206.351 78.5173 213.131 81.8805 218.786 86.7374C224.44 91.5942 228.788 97.7901 231.434 104.76L175.788 92.669C174.909 92.4778 173.989 92.6315 173.22 93.0985C172.45 93.5654 171.889 94.3099 171.653 95.1784L159.092 141.3C159.029 141.533 158.99 141.771 158.975 142.011L156.919 175.845C156.883 176.438 156.998 177.031 157.253 177.567C157.508 178.104 157.895 178.567 158.378 178.914C158.86 179.26 159.423 179.478 160.013 179.548C160.603 179.618 161.201 179.537 161.751 179.313L163.773 178.489C178.303 172.539 194.477 171.964 209.391 176.867L226.67 182.431Z" fill="#222433"/>
<path d="M195.549 199.368C199.78 199.895 204.055 198.822 207.536 196.359L209.628 194.851C210.376 194.303 210.877 193.481 211.022 192.564C211.166 191.648 210.942 190.711 210.399 189.959C209.856 189.207 209.037 188.701 208.122 188.55C207.206 188.4 206.269 188.617 205.513 189.156L203.448 190.649C202.308 191.453 201.012 192.01 199.644 192.284C198.276 192.558 196.866 192.543 195.504 192.24C194.181 191.954 192.934 191.391 191.846 190.587C190.757 189.783 189.851 188.758 189.188 187.578L188.876 187.03C188.414 186.22 187.65 185.628 186.751 185.382C185.853 185.136 184.893 185.257 184.084 185.719C183.275 186.181 182.682 186.946 182.436 187.844C182.191 188.743 182.312 189.703 182.774 190.512L183.082 191.053C184.236 193.08 185.802 194.843 187.678 196.229C189.554 197.616 191.699 198.594 193.975 199.102C194.496 199.211 195.018 199.301 195.549 199.368Z" fill="#222433"/>
<path d="M129.033 161.26C118.125 159.889 110.393 149.933 111.764 139.022C113.135 128.112 123.089 120.378 133.997 121.749C144.905 123.119 152.637 133.075 151.266 143.986C149.895 154.897 139.94 162.63 129.033 161.26Z" fill="white"/>
<path d="M128.594 164.747C133.189 165.325 137.853 164.526 141.995 162.452C146.137 160.379 149.572 157.123 151.864 153.097C154.156 149.071 155.204 144.456 154.874 139.835C154.544 135.214 152.851 130.795 150.01 127.136C147.169 123.477 143.307 120.743 138.912 119.28C134.517 117.817 129.787 117.69 125.32 118.916C120.854 120.141 116.85 122.664 113.817 126.165C110.783 129.667 108.856 133.989 108.278 138.586C107.511 144.749 109.219 150.964 113.028 155.868C116.836 160.773 122.434 163.966 128.594 164.747ZM133.559 125.236C136.776 125.641 139.8 126.99 142.251 129.114C144.701 131.237 146.466 134.04 147.324 137.168C148.181 140.295 148.092 143.607 147.068 146.684C146.044 149.761 144.131 152.465 141.57 154.455C139.009 156.444 135.916 157.63 132.682 157.861C129.448 158.092 126.218 157.359 123.401 155.754C120.584 154.149 118.306 151.745 116.854 148.845C115.403 145.945 114.845 142.679 115.249 139.462C115.796 135.149 118.031 131.229 121.463 128.562C124.896 125.895 129.246 124.699 133.559 125.236Z" fill="#222433"/>
<path d="M210.314 177.144C210.697 177.192 211.085 177.176 211.463 177.098L226.831 173.925C227.345 173.819 227.828 173.599 228.245 173.281C228.663 172.964 229.004 172.556 229.244 172.09C229.484 171.623 229.616 171.109 229.631 170.584C229.646 170.06 229.543 169.539 229.331 169.059L215.319 137.472C215.132 137.051 214.863 136.67 214.529 136.352C214.195 136.034 213.801 135.785 213.37 135.619C212.94 135.453 212.481 135.374 212.02 135.386C211.558 135.397 211.104 135.5 210.682 135.687C210.261 135.874 209.88 136.143 209.562 136.477C209.244 136.812 208.995 137.205 208.829 137.636C208.664 138.067 208.584 138.526 208.596 138.987C208.607 139.449 208.71 139.903 208.897 140.325L221.143 167.929L210.044 170.22C209.231 170.39 208.505 170.842 207.994 171.497C207.483 172.151 207.22 172.966 207.253 173.796C207.285 174.626 207.61 175.417 208.171 176.03C208.731 176.643 209.49 177.038 210.314 177.144Z" fill="#222433"/>
<path d="M187.807 144.328C186.107 142.47 186.235 139.585 188.093 137.885C189.951 136.184 192.835 136.312 194.535 138.171C196.235 140.029 196.107 142.914 194.249 144.614C192.391 146.314 189.507 146.186 187.807 144.328Z" fill="#222433" stroke="black" stroke-width="2"/>
<path d="M224.816 149.836C222.616 148.611 221.826 145.834 223.051 143.633C224.276 141.433 227.052 140.642 229.252 141.867C231.453 143.092 232.243 145.87 231.018 148.07C229.793 150.271 227.016 151.062 224.816 149.836Z" fill="#222433" stroke="black" stroke-width="2"/>
</svg>
