<svg width="352" height="352" viewBox="0 0 352 352" fill="none" xmlns="http://www.w3.org/2000/svg">
<circle cx="176" cy="176" r="176" fill="white"/>
<path d="M177.265 110.799C166.112 106.321 154.311 104.051 142.189 104.051C90.252 104.051 48 146.304 48 198.24C48 228.964 63.049 257.835 88.257 275.47C88.78 275.836 127.437 239.063 153.867 239.303C158.801 227.424 167.446 206.607 175.38 187.481C177.611 169.282 165.327 157.103 165.327 146.571C165.327 126.836 179.221 123.236 179.398 122.795C180.014 121.259 178.802 111.416 177.265 110.799Z" fill="#E1000F"/>
<path d="M175.288 167.584C174.863 170.32 174.618 173.095 174.559 175.892L174.549 175.882C174.464 179.839 174.763 183.713 175.379 187.484L159.238 226.393C159.225 226.393 156.867 232.069 153.866 239.305C146.938 256.01 154.862 275.172 171.566 282.102C188.272 289.032 207.432 281.107 214.362 264.402L224.873 239.064C228.583 239.829 232.409 240.287 236.332 240.371C271.201 241.119 300.073 213.457 300.821 178.589C300.986 170.9 299.742 163.335 297.237 156.233C300.026 149.286 301.612 141.782 301.77 134.012C301.83 131.321 301.713 128.628 301.42 125.952L286.23 105.102" fill="white"/>
<path d="M184.113 287.621C179.471 287.621 174.832 286.705 170.416 284.873C152.21 277.321 143.543 256.364 151.095 238.156L156.048 226.235C156.184 225.909 156.325 225.573 156.488 225.252L156.468 225.244L172.285 187.115C171.718 183.342 171.471 179.546 171.55 175.819C171.552 175.733 171.557 175.648 171.567 175.564C171.637 172.751 171.892 169.914 172.325 167.126C172.578 165.488 174.116 164.365 175.749 164.621C177.387 164.875 178.508 166.408 178.254 168.045C177.849 170.66 177.615 173.321 177.56 175.956C177.558 176.038 177.553 176.12 177.545 176.201C177.484 179.763 177.752 183.394 178.341 187.001C178.431 187.553 178.365 188.118 178.151 188.634L162.01 227.543C161.993 227.584 161.976 227.624 161.957 227.663C161.792 228.043 160.714 230.624 156.637 240.455C150.353 255.607 157.565 273.046 172.715 279.331C180.055 282.375 188.14 282.379 195.483 279.343C202.825 276.306 208.546 270.592 211.59 263.252L222.101 237.914C222.652 236.585 224.07 235.838 225.477 236.125C229.112 236.875 232.786 237.293 236.395 237.371C269.536 238.109 297.109 211.684 297.82 178.524C297.976 171.258 296.828 164.094 294.406 157.231C294.163 156.543 294.179 155.792 294.451 155.115C297.168 148.348 298.62 141.228 298.769 133.951C298.82 131.659 298.735 129.348 298.517 127.064L283.804 106.868C282.828 105.529 283.123 103.652 284.462 102.677C285.801 101.702 287.677 101.996 288.653 103.335L303.843 124.185C304.151 124.608 304.343 125.105 304.401 125.625C304.707 128.424 304.831 131.268 304.768 134.078C304.613 141.702 303.154 149.173 300.431 156.3C302.843 163.522 303.982 171.036 303.819 178.652C303.037 215.119 272.732 244.144 236.266 243.369C233.103 243.301 229.899 242.995 226.711 242.458L217.132 265.549C213.473 274.369 206.599 281.236 197.776 284.885C193.371 286.709 188.741 287.62 184.113 287.621Z" fill="#222433"/>
<path d="M304.422 125.69C302.438 106.744 297.055 93.9709 286.966 84.2779C273.632 71.4779 256.13 64.6369 237.63 65.0149C219.15 65.3929 201.923 72.9459 189.123 86.2809C179.201 96.6179 172.811 109.567 170.642 123.74L170.139 127.114C169.894 128.753 186.421 119.189 192.271 119.444C220.684 120.681 217.68 145.048 219.212 145.048C219.305 145.048 219.398 145.044 219.491 145.035C231.315 143.946 242.723 139.265 251.628 131.853L284.769 108.466L299.025 127.783C299.828 128.873 301.262 129.29 302.524 128.799C303.785 128.31 304.564 127.035 304.422 125.69Z" fill="#E1000F"/>
<path d="M192.271 173.708C183.329 173.637 174.609 169.151 169.495 161.02C161.517 148.337 165.332 131.588 178.015 123.61C190.698 115.632 207.447 119.447 215.425 132.13C217.39 135.253 218.639 138.623 219.217 142.048" fill="white"/>
<path d="M192.272 176.708C192.264 176.708 192.256 176.708 192.248 176.708C181.91 176.626 172.455 171.358 166.956 162.617C158.111 148.554 162.355 129.917 176.418 121.071C183.23 116.786 191.302 115.409 199.151 117.197C206.998 118.984 213.679 123.72 217.964 130.533C220.096 133.924 221.513 137.63 222.174 141.549C222.45 143.183 221.349 144.731 219.716 145.007C218.08 145.281 216.534 144.182 216.258 142.548C215.729 139.413 214.593 136.445 212.884 133.728C209.452 128.272 204.102 124.479 197.817 123.048C191.532 121.616 185.067 122.718 179.611 126.15C168.349 133.234 164.949 148.16 172.033 159.423C176.437 166.424 184.011 170.643 192.294 170.708C193.951 170.721 195.283 172.075 195.27 173.732C195.258 175.381 193.917 176.708 192.272 176.708Z" fill="#222433"/>
<path d="M279.061 193.052C277.936 193.052 276.858 192.417 276.346 191.332C275.639 189.833 276.281 188.045 277.779 187.338L289.513 181.801L279.42 158.702C278.756 157.184 279.45 155.415 280.968 154.752C282.487 154.088 284.255 154.782 284.918 156.3L296.178 182.07C296.828 183.557 296.177 185.292 294.709 185.985L280.339 192.765C279.925 192.96 279.489 193.052 279.061 193.052Z" fill="#222433"/>
<path d="M263.423 165.323C265.592 163.958 266.244 161.094 264.88 158.925C263.516 156.755 260.651 156.103 258.482 157.467C256.313 158.832 255.66 161.696 257.025 163.865C258.389 166.035 261.253 166.687 263.423 165.323Z" fill="#222433"/>
<path d="M297.818 169.045C299.987 167.681 300.64 164.816 299.276 162.647C297.911 160.478 295.047 159.825 292.877 161.19C290.708 162.554 290.056 165.419 291.42 167.588C292.784 169.757 295.649 170.41 297.818 169.045Z" fill="#222433"/>
<path d="M269.172 210.63C268.077 210.63 266.975 210.521 265.878 210.301C261.539 209.43 257.798 206.921 255.345 203.236C255.027 202.758 254.73 202.257 254.461 201.744L254.174 201.201C253.401 199.735 253.962 197.921 255.427 197.148C256.893 196.374 258.707 196.936 259.48 198.401L259.77 198.951C259.945 199.285 260.135 199.606 260.338 199.911C261.903 202.262 264.289 203.862 267.057 204.418C269.826 204.975 272.644 204.418 274.995 202.854L277.085 201.451C278.461 200.527 280.325 200.894 281.248 202.269C282.171 203.644 281.805 205.508 280.43 206.432L278.33 207.842C275.571 209.679 272.406 210.63 269.172 210.63Z" fill="#222433"/>
<path d="M224.862 242.083C224.661 242.083 224.456 242.062 224.251 242.02C212.737 239.638 202.049 234.204 193.343 226.304C192.116 225.191 192.024 223.293 193.137 222.066C194.25 220.839 196.147 220.747 197.375 221.86C205.288 229.04 215.002 233.979 225.467 236.144C227.09 236.48 228.133 238.067 227.797 239.69C227.503 241.108 226.255 242.083 224.862 242.083Z" fill="#222433"/>
<path d="M202 154.997C201.892 154.997 201.784 154.991 201.675 154.979L179.675 152.588C178.028 152.409 176.838 150.929 177.017 149.282C177.196 147.635 178.678 146.447 180.324 146.624L194.426 148.156L184.015 136.766C182.897 135.543 182.982 133.645 184.205 132.528C185.429 131.41 187.326 131.496 188.443 132.718L204.214 149.973C205.056 150.894 205.24 152.241 204.675 153.354C204.16 154.369 203.121 154.997 202 154.997Z" fill="#222433"/>
</svg>
