<svg width="352" height="352" viewBox="0 0 352 352" fill="none" xmlns="http://www.w3.org/2000/svg">
<circle cx="176" cy="176" r="176" fill="white"/>
<path d="M127.24 179.812C104.24 179.812 83.9238 141.118 114.504 124.522C134.24 113.812 151.24 124.812 158.24 146.812L171.24 108.812L236.24 118.812L239.691 147.108C238.872 162.188 236.24 191.812 234.24 207.812C232.284 223.464 215.593 231.848 211.24 238.812C186.093 252.738 156.5 246.993 136.911 225.76C119.122 206.477 126.943 185.074 127.24 179.812Z" fill="white"/>
<path d="M233.632 210.103C233.374 210.103 233.111 210.069 232.85 209.999C231.25 209.568 230.303 207.922 230.734 206.322C232.707 199.001 233.057 191.528 231.776 184.112C231.494 182.479 232.589 180.927 234.221 180.645C235.855 180.365 237.406 181.458 237.688 183.09C239.119 191.372 238.728 199.714 236.527 207.882C236.166 209.221 234.954 210.103 233.632 210.103Z" fill="#222433"/>
<path d="M238.557 149.778C238.355 149.778 238.15 149.757 237.944 149.715C236.322 149.378 235.28 147.79 235.617 146.167C237.064 139.199 237.056 132.125 235.592 125.14C235.252 123.518 236.291 121.928 237.912 121.588C239.537 121.247 241.124 122.287 241.464 123.908C243.099 131.706 243.109 139.606 241.492 147.387C241.198 148.804 239.95 149.778 238.557 149.778Z" fill="#222433"/>
<path d="M174.549 146.396C174.314 146.396 174.074 146.368 173.836 146.31L157.499 142.324C155.889 141.931 154.903 140.308 155.295 138.699C155.687 137.09 157.311 136.105 158.92 136.495L175.257 140.481C176.867 140.874 177.853 142.497 177.461 144.106C177.126 145.477 175.899 146.396 174.549 146.396Z" fill="#222433"/>
<path d="M132.815 118.728L141.062 84.9255C145.165 68.1095 162.118 57.7995 178.937 61.8925L238.916 76.5255C244.978 77.9645 248.725 84.0455 247.286 90.1075C247.281 90.1305 247.275 90.1535 247.27 90.1755L238.713 125.251L182.526 113.161C176.516 111.857 170.583 115.656 169.254 121.66L163.259 148.696C162.493 152.152 160.588 155.095 158.005 157.185" fill="white"/>
<path d="M158.008 160.184C157.133 160.184 156.267 159.804 155.674 159.071C154.632 157.783 154.831 155.894 156.119 154.852C158.243 153.133 159.739 150.715 160.331 148.045L166.325 121.009C168.006 113.415 175.558 108.574 183.161 110.228L236.489 121.703L244.354 89.4643C245.421 84.9723 242.665 80.4993 238.222 79.4443L178.226 64.8063C163.047 61.1103 147.68 70.4553 143.976 85.6353L135.729 119.438C135.336 121.047 133.713 122.032 132.104 121.642C130.494 121.249 129.508 119.626 129.9 118.017L138.147 84.2143C142.634 65.8213 161.251 54.5023 179.646 58.9773L239.626 73.6113C247.269 75.4263 252.022 83.1393 250.204 90.8003L241.626 125.961C241.241 127.54 239.67 128.523 238.081 128.183L181.894 116.093C177.502 115.138 173.151 117.928 172.183 122.307L166.188 149.345C165.303 153.335 163.067 156.947 159.893 159.516C159.338 159.965 158.67 160.184 158.008 160.184Z" fill="#222433"/>
<path d="M189.478 171.022C199.334 171.022 207.325 163.032 207.325 153.175C207.325 143.318 199.334 135.328 189.478 135.328C179.621 135.328 171.631 143.318 171.631 153.175C171.631 163.032 179.621 171.022 189.478 171.022Z" fill="white"/>
<path d="M189.477 174.026C187.846 174.026 186.19 173.833 184.537 173.43C173.37 170.705 166.501 159.403 169.225 148.236C171.949 137.069 183.254 130.202 194.418 132.924C199.828 134.244 204.4 137.591 207.292 142.35C210.184 147.109 211.05 152.708 209.73 158.118C207.41 167.632 198.862 174.026 189.477 174.026ZM189.479 138.329C182.794 138.329 176.708 142.882 175.055 149.658C173.115 157.611 178.006 165.66 185.959 167.601C193.909 169.541 201.96 164.65 203.901 156.697C205.841 148.744 200.95 140.695 192.997 138.754C191.82 138.466 190.64 138.329 189.479 138.329Z" fill="#222433"/>
<path d="M234.223 181.94C244.08 181.94 252.07 173.95 252.07 164.093C252.07 154.236 244.08 146.246 234.223 146.246C224.366 146.246 216.376 154.236 216.376 164.093C216.376 173.95 224.366 181.94 234.223 181.94Z" fill="white"/>
<path d="M234.261 184.946C232.603 184.946 230.934 184.747 229.282 184.344C223.872 183.024 219.3 179.677 216.408 174.918C213.516 170.16 212.65 164.56 213.97 159.15C216.695 147.983 228 141.116 239.164 143.838C250.331 146.562 257.2 157.864 254.476 169.031C253.156 174.441 249.809 179.013 245.05 181.905C241.744 183.915 238.033 184.946 234.261 184.946ZM234.223 149.244C227.539 149.244 221.452 153.797 219.799 160.573C218.859 164.426 219.476 168.414 221.535 171.802C223.595 175.191 226.851 177.575 230.703 178.515C234.556 179.456 238.544 178.839 241.932 176.779C245.32 174.719 247.705 171.463 248.645 167.611C249.585 163.758 248.968 159.77 246.909 156.381C244.849 152.992 241.594 150.609 237.741 149.669C236.565 149.381 235.384 149.244 234.223 149.244Z" fill="#222433"/>
<path d="M214.599 185.896C214.305 185.896 214.009 185.853 213.722 185.765L198.877 181.226C197.293 180.741 196.4 179.064 196.885 177.48C197.369 175.895 199.048 175.003 200.631 175.488L211.948 178.948L213.4 163.102C213.551 161.452 215.008 160.231 216.661 160.389C218.311 160.54 219.526 162 219.374 163.65L217.585 183.169C217.503 184.068 217.02 184.882 216.27 185.386C215.772 185.723 215.188 185.896 214.599 185.896Z" fill="#222433"/>
<path d="M218.301 157.071C218.066 157.071 217.826 157.043 217.588 156.985L206.527 154.286C204.917 153.893 203.931 152.27 204.323 150.661C204.716 149.051 206.34 148.065 207.948 148.457L219.009 151.156C220.619 151.549 221.605 153.172 221.213 154.781C220.878 156.152 219.651 157.071 218.301 157.071Z" fill="#222433"/>
<path d="M123.163 158.18C121.649 158.18 120.349 157.038 120.184 155.499C120.007 153.852 121.2 152.373 122.847 152.196L135.241 150.867L118.794 139.243C117.441 138.287 117.119 136.415 118.076 135.062C119.033 133.708 120.905 133.387 122.257 134.344L145.193 150.554C146.212 151.274 146.679 152.55 146.365 153.758C146.051 154.966 145.022 155.854 143.781 155.987L123.487 158.162C123.378 158.174 123.27 158.18 123.163 158.18Z" fill="#222433"/>
<path d="M199.708 157.66C200.463 154.564 198.565 151.441 195.469 150.686C192.373 149.931 189.25 151.828 188.495 154.925C187.739 158.021 189.637 161.144 192.733 161.899C195.83 162.654 198.952 160.757 199.708 157.66Z" fill="#222433"/>
<path d="M238.889 167.031C239.644 163.935 237.746 160.812 234.65 160.057C231.554 159.302 228.431 161.199 227.676 164.296C226.92 167.392 228.818 170.515 231.915 171.27C235.011 172.025 238.134 170.128 238.889 167.031Z" fill="#222433"/>
<path d="M182.062 247.847L176.949 266.046C171.923 284.478 152.907 295.346 134.475 290.32C116.373 285.382 105.508 266.914 109.985 248.693L127.509 180.18" fill="white"/>
<path d="M143.566 294.544C140.301 294.544 136.984 294.115 133.687 293.216C113.859 287.807 102.169 267.936 107.073 247.978L124.605 179.437C125.015 177.832 126.648 176.864 128.255 177.274C129.86 177.684 130.828 179.318 130.418 180.924L112.894 249.437C108.78 266.182 118.604 282.881 135.267 287.427C152.073 292.008 169.475 282.064 174.057 265.258L179.176 247.037C179.624 245.442 181.28 244.513 182.876 244.96C184.471 245.408 185.401 247.064 184.953 248.66L179.84 266.859C175.289 283.541 160.098 294.544 143.566 294.544Z" fill="#222433"/>
<path d="M127.62 182.741C127.573 182.741 127.526 182.74 127.479 182.738C125.361 182.64 123.235 182.334 121.158 181.827C112.606 179.741 105.378 174.449 100.806 166.926C96.2343 159.403 94.8653 150.551 96.9523 141.998C99.0383 133.446 104.33 126.218 111.853 121.646C119.375 117.074 128.228 115.705 136.781 117.792C145.333 119.878 152.561 125.17 157.133 132.693C161.705 140.216 163.074 149.068 160.987 157.621C160.594 159.23 158.971 160.215 157.362 159.825C155.752 159.432 154.766 157.809 155.158 156.2C156.865 149.205 155.745 141.964 152.005 135.81C148.266 129.657 142.354 125.328 135.359 123.622C128.363 121.915 121.123 123.035 114.969 126.774C108.816 130.513 104.488 136.425 102.781 143.42C101.074 150.416 102.194 157.656 105.933 163.81C109.672 169.963 115.584 174.292 122.579 175.998C124.281 176.414 126.022 176.665 127.754 176.745C129.409 176.821 130.689 178.225 130.612 179.88C130.54 181.487 129.213 182.741 127.62 182.741Z" fill="#222433"/>
<path d="M180.83 250.714C176.306 250.714 171.75 250.178 167.24 249.095C152.247 245.493 139.554 236.269 131.499 223.12C123.444 209.972 120.992 194.474 124.594 179.48C124.982 177.87 126.602 176.876 128.212 177.264C129.823 177.651 130.816 179.271 130.428 180.882C127.2 194.317 129.398 208.204 136.616 219.986C143.833 231.768 155.207 240.033 168.642 243.261C182.078 246.489 195.964 244.291 207.746 237.073C219.528 229.855 227.793 218.482 231.021 205.047C231.16 204.469 231.289 203.886 231.409 203.299C228.055 200.916 219.391 195.146 210.305 192.208C201.566 189.381 179.047 185.019 169.061 190.463C168.264 190.898 167.312 190.948 166.476 190.6C165.638 190.252 165.002 189.544 164.747 188.673L155.363 156.657C154.897 155.067 155.808 153.4 157.398 152.934C158.989 152.468 160.655 153.379 161.121 154.969L169.553 183.735C182.961 179.159 204.922 184.16 212.153 186.498C224.739 190.569 236.061 199.249 236.537 199.617C237.412 200.293 237.845 201.395 237.662 202.486C237.44 203.811 237.169 205.143 236.856 206.447C233.254 221.44 224.03 234.133 210.881 242.188C201.686 247.821 191.344 250.714 180.83 250.714Z" fill="#222433"/>
<path d="M195.479 213.127C190.115 213.127 184.85 210.534 181.663 205.745C181.342 205.264 181.044 204.761 180.778 204.251L180.492 203.709C179.72 202.243 180.281 200.429 181.747 199.656C183.213 198.883 185.027 199.445 185.8 200.911L186.09 201.461C186.263 201.793 186.453 202.112 186.658 202.42C189.888 207.272 196.462 208.591 201.314 205.362L203.404 203.959C204.78 203.035 206.643 203.402 207.567 204.777C208.49 206.152 208.124 208.016 206.749 208.94L204.649 210.35C201.827 212.228 198.635 213.127 195.479 213.127Z" fill="#222433"/>
</svg>
