<?xml version="1.0" encoding="utf-8"?>
<!-- Generator: Adobe Illustrator 25.0.0, SVG Export Plug-In . SVG Version: 6.00 Build 0)  -->
<svg version="1.1" id="Calque_1" xmlns="http://www.w3.org/2000/svg" xmlns:xlink="http://www.w3.org/1999/xlink" x="0px" y="0px"
	 viewBox="0 0 500 500" style="enable-background:new 0 0 500 500;" xml:space="preserve">
<style type="text/css">
	.st0{opacity:0.33;}
	.st1{fill:#FDCF41;}
	.st2{opacity:0.7;fill:#FDCF41;enable-background:new    ;}
	.st3{fill:#FF8D7E;}
	.st4{opacity:0.5;fill:#FFFFFF;enable-background:new    ;}
	.st5{opacity:0.5;}
	.st6{fill:#FFFFFF;}
	.st7{fill:#263238;stroke:#000000;stroke-miterlimit:10;}
	.st8{fill:#884849;}
	.st9{fill:#FFFFFF;stroke:#263238;stroke-miterlimit:10;}
	.st10{fill:none;stroke:#263238;stroke-miterlimit:10;}
	.st11{fill:#FFFFFF;stroke:#263238;stroke-width:1;stroke-miterlimit:10.0004;}
	.st12{fill:#FF8D7E;stroke:#263238;stroke-miterlimit:10;}
	.st13{fill:none;stroke:#5770BE;stroke-width:6;stroke-linecap:round;stroke-linejoin:round;}
	.st14{fill:#FFFFFF;stroke:#263238;stroke-linecap:round;stroke-linejoin:round;}
	.st15{fill:#5770BE;}
	.st16{fill:none;stroke:#263238;stroke-linecap:round;stroke-linejoin:round;}
	.st17{fill:#FF8D7E;stroke:#263238;stroke-linecap:round;stroke-linejoin:round;}
	.st18{fill:#263238;stroke:#263238;stroke-linecap:round;stroke-linejoin:round;}
	.st19{fill:none;stroke:#FFFFFF;stroke-linecap:round;stroke-linejoin:round;}
	.st20{clip-path:url(#SVGID_2_);}
	.st21{fill:#263238;}
</style>
<g id="freepik--background-simple--inject-513" class="st0">
	<path class="st1" d="M415.8,230.1c-2.9-34.3-14.4-67.2-33.6-95.8c-30.7-45.4-80.9-70-135.5-56.6C195.1,90.4,182,146.2,139,171
		c-33,19-83,50-75,105c2.6,17.9,14.5,31,30.8,38.4c22.3,10,53.4,6,73.2,20.6c23,17,42,41,92,59c39.5,14.2,84.1-2.8,114-29.8
		C410.8,331.1,420,277.6,415.8,230.1z"/>
	<path class="st2" d="M415.8,230.1c-2.9-34.3-14.4-67.2-33.6-95.8c-30.7-45.4-80.9-70-135.5-56.6C195.1,90.4,182,146.2,139,171
		c-33,19-83,50-75,105c2.6,17.9,14.5,31,30.8,38.4c22.3,10,53.4,6,73.2,20.6c23,17,42,41,92,59c39.5,14.2,84.1-2.8,114-29.8
		C410.8,331.1,420,277.6,415.8,230.1z"/>
</g>
<g id="freepik--Shadow--inject-513">
	<path class="st3" d="M430.4,410.5l-6.8-6.7c5.7-8.2,3.2-14.2-1.6-19.8c-2.9-3.4-10.6-2.8-20-1.6L350,331l-8,3
		c0,0,21.6,26.4,41.9,50.6c-8.4,0.8-16.9,0.8-23.9-1.6c-21-7-38-22-38-22c-24,2,12,41,26,52c28,22,42.9,18,62.8,3.2
		c3.6,4.1,6.1,6.9,7.2,7.8l0.2,0.2C427.2,431.6,438.7,418.7,430.4,410.5z"/>
	<path class="st4" d="M430.4,410.5l-6.8-6.7c5.7-8.2,3.2-14.2-1.6-19.8c-2.9-3.4-10.6-2.8-20-1.6L350,331l-8,3
		c0,0,21.6,26.4,41.9,50.6c-8.4,0.8-16.9,0.8-23.9-1.6c-21-7-38-22-38-22c-24,2,11.2,42,26,52c33,22.2,42.9,18,62.8,3.2
		c3.6,4.1,6.1,6.9,7.2,7.8l0.2,0.2C427.2,431.6,438.7,418.7,430.4,410.5z"/>
</g>
<g id="freepik--Plants--inject-513">
	<path class="st3" d="M112.7,229.3c0,0,26.3,30.4,26.4,68.1s-25.9,68.3-25.9,68.3s-26.3-30.4-26.4-68S112.7,229.3,112.7,229.3z"/>
	<path class="st3" d="M170.5,315.5c0,0,0.2,24.8-13.1,40.5s-35,16.5-35,16.5s-0.2-24.8,13.1-40.5S170.5,315.5,170.5,315.5z"/>
	<path class="st3" d="M56.3,313.2c0,0-1.1,24.7,11.6,41.1s34.4,18.2,34.4,18.2s1.1-24.7-11.6-41.1S56.3,313.2,56.3,313.2z"/>
	<g class="st5">
		<path class="st6" d="M112.7,229.3c0,0,26.3,30.4,26.4,68.1s-25.9,68.3-25.9,68.3s-26.3-30.4-26.4-68S112.7,229.3,112.7,229.3z"/>
		<path class="st6" d="M170.5,315.5c0,0,0.2,24.8-13.1,40.5s-35,16.5-35,16.5s-0.2-24.8,13.1-40.5S170.5,315.5,170.5,315.5z"/>
		<path class="st6" d="M56.3,313.2c0,0-1.1,24.7,11.6,41.1s34.4,18.2,34.4,18.2s1.1-24.7-11.6-41.1S56.3,313.2,56.3,313.2z"/>
	</g>
	<path class="st6" d="M96.6,330.9L96.6,330.9c0.2-0.3,0.5-0.4,0.8-0.3c0.1,0,0.1,0.1,0.2,0.1l13.8,12.4c0.3,0.2,0.7,0.2,1-0.1
		c0.1-0.1,0.2-0.3,0.1-0.5l-0.2-28.5c0-0.2-0.1-0.4-0.2-0.6l-20.7-20.9c-0.3-0.3-0.3-0.8-0.1-1.1l0,0c0.2-0.3,0.6-0.4,0.9-0.2
		l0.1,0.1l18.9,19.1c0.3,0.3,0.7,0.3,0.9,0c0.1-0.2,0.2-0.4,0.2-0.6l-0.1-31.4c0-0.2-0.1-0.4-0.2-0.6l-13.8-13.5
		c-0.3-0.3-0.3-0.8-0.1-1.1l0,0c0.2-0.3,0.6-0.4,0.9-0.2l0.1,0.1l11.9,11.8c0.4,0.4,1.1,0.1,1.1-0.6l-0.2-44.3
		c0-0.4,0.3-0.7,0.7-0.8l0,0c0.4,0,0.7,0.4,0.7,0.8l0,0l0.2,65.6c0,0.4,0.2,0.7,0.6,0.8c0.3,0,0.5-0.1,0.7-0.3l15.4-25.7
		c0.2-0.3,0.6-0.4,0.9-0.3c0,0,0.1,0,0.1,0.1l0,0c0.3,0.3,0.4,0.7,0.2,1.1l-17.7,29.4l-0.1-0.1l0.1,26.9c0,0.4,0.2,0.7,0.6,0.8
		c0.2,0,0.4,0,0.5-0.2l18.8-19.2c0.2-0.3,0.6-0.3,0.9-0.1l0.1,0.1l0,0c0.3,0.3,0.2,0.8-0.1,1.1l-20.8,21.3l0,0l0.1,33.5
		c0,0.4-0.3,0.8-0.7,0.8l0,0l0,0c-0.4,0-0.7-0.4-0.7-0.7l0,0l-0.1-18.4c0-0.2-0.1-0.5-0.3-0.6L96.7,332
		C96.4,331.7,96.3,331.2,96.6,330.9z"/>
	<path class="st6" d="M57,314.8L57,314.8c0.2-0.3,0.6-0.3,0.9-0.1l0.1,0.1l20.9,26.5c0.4,0.6,1.3,0.1,1.2-0.6l-1.7-15.5
		c-0.1-0.4,0.2-0.8,0.6-0.9l0,0c0.4,0,0.7,0.3,0.8,0.6l0,0l2.2,20.2l0,0l8.1,10.4c0.2,0.3,0.7,0.3,0.9,0.1c0.2-0.1,0.2-0.3,0.2-0.5
		l1.5-14.8c0-0.4,0.4-0.7,0.7-0.7l0,0l0,0c0.4,0.1,0.7,0.5,0.6,0.9l-1.8,17.6c0,0.2,0,0.4,0.2,0.6l10.9,13.9
		c0.3,0.3,0.2,0.8-0.1,1.1l0,0c-0.2,0.3-0.6,0.3-0.9,0.1l-0.1-0.1l-5.9-7.5c-0.1-0.2-0.3-0.3-0.6-0.3L85,366.7
		c-0.4,0-0.7-0.3-0.7-0.7l0,0l0,0c0-0.4,0.2-0.8,0.7-0.8l8.7-0.6c0.4-0.1,0.7-0.5,0.6-0.9c0-0.1-0.1-0.3-0.2-0.4l-8.7-11.1
		c-0.1-0.2-0.3-0.2-0.5-0.2H69.3c-0.4,0-0.7-0.4-0.7-0.8l0,0c0-0.4,0.3-0.8,0.7-0.8l0,0h13.1c0.4,0,0.8-0.4,0.8-0.8
		c0-0.2-0.1-0.4-0.2-0.5l-9.6-12.2c-0.1-0.2-0.3-0.3-0.5-0.3l-10,0.1c-0.4,0-0.7-0.4-0.7-0.8l0,0l0,0c0-0.4,0.3-0.8,0.7-0.8l0,0
		l7.6-0.1c0.4-0.1,0.7-0.5,0.7-0.9c0-0.1-0.1-0.3-0.2-0.4l-14-17.8C56.7,315.6,56.7,315.1,57,314.8z"/>
	<path class="st6" d="M127.8,350.3L127.8,350.3c0.4,0,0.7,0.3,0.8,0.7l0,0l1.2,9.8c0,0.4,0.3,0.7,0.7,0.7c0.2,0,0.4-0.1,0.5-0.2
		l9.1-10.7c0.1-0.2,0.2-0.4,0.2-0.6l-1.1-17.6c-0.1-0.4,0.2-0.8,0.6-0.8l0,0c0.4,0,0.7,0.3,0.7,0.7l0,0l1,14.9
		c0,0.4,0.3,0.7,0.7,0.7c0.2,0,0.4-0.1,0.5-0.2l10-11.8c0.1-0.2,0.2-0.4,0.2-0.6L152,324c0-0.4,0.2-0.8,0.6-0.9l0,0
		c0.4,0,0.7,0.3,0.7,0.7l0,0l0.7,8.6c0,0.4,0.3,0.7,0.6,0.7c0.2,0,0.4-0.1,0.5-0.2l14.6-17.2c0.2-0.3,0.6-0.3,0.9-0.1l0.1,0.1l0,0
		c0.3,0.3,0.3,0.8,0,1.1L149,342.5c-0.5,0.5,0,1.5,0.6,1.3l13.4-3.1c0.4-0.1,0.7,0.2,0.8,0.6l0,0l0,0c0.1,0.4-0.1,0.8-0.5,0.9
		l-17.6,4l0,0l-8.5,10c-0.3,0.3-0.3,0.8,0.1,1.1c0.1,0.1,0.3,0.2,0.4,0.2l13.1,0.6c0.4,0,0.7,0.4,0.7,0.8l0,0l0,0
		c0,0.4-0.3,0.7-0.7,0.7l0,0l-15.5-0.7c-0.2,0-0.4,0.1-0.5,0.2l-11.3,13.4c-0.2,0.3-0.6,0.3-0.9,0.1l-0.1-0.1l0,0
		c-0.3-0.3-0.3-0.8,0-1.1l6.1-7.2c0.1-0.2,0.2-0.4,0.2-0.6l-1.5-12.3C127.1,350.7,127.4,350.4,127.8,350.3z"/>
</g>
<g id="freepik--Checklist--inject-513">
	<path class="st7" d="M377.2,329.4l-148.6,41.8c-3.3,0.8-6.7-0.6-8.5-3.5L107.5,165c-1.3-2.1-0.7-4.8,1.4-6.1
		c0.4-0.3,0.9-0.5,1.5-0.6L259,116.5c3.3-0.8,6.7,0.6,8.5,3.5L380,322.7c1.3,2.1,0.7,4.8-1.4,6.1
		C378.2,329.1,377.7,329.3,377.2,329.4z"/>
	<path class="st8" d="M226.6,362.4c0,0,85.8-20.4,143.6-40.4L226.6,362.4z"/>
	<polygon class="st9" points="370.2,321.9 226.6,362.4 115.5,162.4 259.1,122 	"/>
	<line class="st10" x1="216.6" y1="164.4" x2="227.7" y2="161.2"/>
	<line class="st10" x1="139.2" y1="186.1" x2="207.9" y2="166.8"/>
	<line class="st10" x1="204.3" y1="176.8" x2="232" y2="169"/>
	<line class="st10" x1="161.9" y1="188.7" x2="196.8" y2="178.9"/>
	<line class="st10" x1="143.5" y1="193.9" x2="155.4" y2="190.5"/>
	<line class="st10" x1="182.4" y1="191.9" x2="236.3" y2="176.7"/>
	<line class="st10" x1="147.8" y1="201.7" x2="170.5" y2="195.3"/>
	<path class="st9" d="M266.6,158.5c-2.9-4.8-8.6-7.1-14-5.8c-5.2,1.5-7.3,6.4-4.7,11.1c2.9,4.8,8.6,7.1,14,5.8
		C267,168.1,269.1,163.2,266.6,158.5z"/>
	<line class="st10" x1="169.6" y1="217.6" x2="158.4" y2="220.7"/>
	<line class="st10" x1="246.9" y1="195.8" x2="178.2" y2="215.2"/>
	<line class="st10" x1="190.5" y1="220.7" x2="162.8" y2="228.5"/>
	<line class="st10" x1="232.9" y1="208.8" x2="198" y2="218.6"/>
	<line class="st10" x1="251.3" y1="203.6" x2="239.4" y2="206.9"/>
	<line class="st10" x1="221" y1="221.1" x2="167.1" y2="236.3"/>
	<line class="st10" x1="255.6" y1="211.4" x2="232.9" y2="217.7"/>
	<path class="st9" d="M285.8,193.1c-2.9-4.8-8.6-7.1-14-5.8c-5.2,1.4-7.3,6.4-4.7,11c2.9,4.8,8.6,7.1,14,5.8
		C286.3,202.7,288.4,197.8,285.8,193.1z"/>
	<line class="st10" x1="255" y1="233.6" x2="266.2" y2="230.5"/>
	<line class="st10" x1="177.7" y1="255.4" x2="246.4" y2="236"/>
	<line class="st10" x1="242.8" y1="246" x2="270.5" y2="238.2"/>
	<line class="st10" x1="200.4" y1="258" x2="235.2" y2="248.1"/>
	<line class="st10" x1="182" y1="263.1" x2="193.9" y2="259.8"/>
	<line class="st10" x1="220.9" y1="261.2" x2="274.8" y2="246"/>
	<line class="st10" x1="186.3" y1="270.9" x2="209" y2="264.5"/>
	
		<ellipse transform="matrix(0.3659 -0.9307 0.9307 0.3659 -26.8625 421.2987)" class="st11" cx="295.7" cy="230.4" rx="8.5" ry="10.7"/>
	<line class="st10" x1="208.1" y1="286.9" x2="196.9" y2="290"/>
	<line class="st10" x1="285.4" y1="265.1" x2="216.7" y2="284.4"/>
	<line class="st10" x1="228.9" y1="290" x2="201.2" y2="297.8"/>
	<line class="st10" x1="271.4" y1="278" x2="236.5" y2="287.8"/>
	<line class="st10" x1="289.7" y1="272.8" x2="277.9" y2="276.2"/>
	<line class="st10" x1="259.5" y1="290.3" x2="205.6" y2="305.5"/>
	<line class="st10" x1="294" y1="280.6" x2="271.4" y2="287"/>
	<path class="st9" d="M324.3,262.4c-2.9-4.8-8.6-7.1-14-5.8c-5.2,1.5-7.3,6.4-4.7,11c2.9,4.8,8.6,7.1,14,5.8
		C324.8,272,326.9,267,324.3,262.4z"/>
	<line class="st10" x1="293.5" y1="302.8" x2="304.7" y2="299.7"/>
	<line class="st10" x1="216.2" y1="324.6" x2="284.9" y2="305.3"/>
	<line class="st10" x1="281.3" y1="315.3" x2="309" y2="307.5"/>
	<line class="st10" x1="238.8" y1="327.2" x2="273.7" y2="317.4"/>
	<line class="st10" x1="220.5" y1="332.4" x2="232.4" y2="329"/>
	<line class="st10" x1="259.3" y1="330.4" x2="313.3" y2="315.2"/>
	<line class="st10" x1="224.8" y1="340.1" x2="247.5" y2="333.8"/>
	
		<ellipse transform="matrix(0.3659 -0.9307 0.9307 0.3659 -66.8905 500.9679)" class="st11" cx="334.2" cy="299.6" rx="8.5" ry="10.7"/>
	<path class="st12" d="M210.5,125.4l-18.9,5.3c-1.4,0.1-3-0.1-3.4-0.8c-1-1.9,0.3-3.6,0.7-5.3c0.5-1.9,0.2-3.9-0.8-5.6
		c-3-4.9-8.8-7.3-14.4-5.9c-5.3,1.5-7.4,6.6-4.8,11.3c1.3,2.2,3.2,3.9,5.6,5c0,0,3.8,1.7,4.6,3.1c0.4,0.7-0.7,1.6-1.8,2.2l-20.4,5.7
		c-2.6,0.6-4.3,3.1-3.8,5.8c0.1,0.6,0.3,1.1,0.6,1.6l2.8,4.9l66.1-18.6l-2.8-4.9C217.9,126,214.1,124.5,210.5,125.4z M176.8,118.9
		c1.8-0.4,3.7,0.3,4.6,1.9c0.7,1.1,0.4,2.6-0.7,3.3c-0.2,0.2-0.5,0.3-0.8,0.3c-1.8,0.4-3.6-0.3-4.6-1.9c-0.7-1.1-0.4-2.6,0.7-3.3
		C176.3,119.1,176.6,119,176.8,118.9z"/>
	<polyline class="st13" points="251.2,159.1 259.4,164.8 267.8,145.9 	"/>
	<polyline class="st13" points="270.1,193.2 278.3,198.9 286.7,180 	"/>
</g>
<g id="freepik--Character--inject-513">
	<path class="st14" d="M403.8,188.5c0,0,2.2-4.6,0.8-8.2s-26.4-9.2-26.4-9.2s-5.7,0-5.4,3.3s21,15.8,22.6,16.9
		S403.3,194.8,403.8,188.5z"/>
	<path class="st14" d="M380.3,166.5c-1.5-0.6-3.1-1.2-4.5-1.9c-2.2-1.1,0.2,3.9,1.1,4.1s3,0.6,3,0.6L380.3,166.5z"/>
	<path class="st15" d="M305.6,214.9l-12.5,15.2l1.1,2.2l17.7-4.3l124.5-72.5c5.1-3,6.9-9.6,3.9-14.8c0-0.1-0.1-0.2-0.1-0.2l0,0
		c-3.2-5-9.8-6.6-14.9-3.4l-0.1,0.1L305.6,214.9z"/>
	<line class="st16" x1="368.2" y1="186.7" x2="364.1" y2="189.3"/>
	<line class="st16" x1="403.1" y1="164.2" x2="373.1" y2="183.5"/>
	<path class="st17" d="M294.3,229.8c0,0-3.1,1.3-2.6,2.6s4.9-1.9,4.9-1.9L294.3,229.8z"/>
	<path class="st14" d="M293.1,230.1l1.1,2.2l17.7-4.3c-9.8-3.8-6.3-13.1-6.3-13.1L293.1,230.1z"/>
	<path class="st14" d="M440.1,140.5c-3.2-5-9.8-6.6-14.9-3.4l-0.1,0.1l-21.7,14.1c-0.6,1.5-0.9,3.1-0.9,4.7
		c-0.1,6.7,5.2,12.2,11.9,12.4l22.1-12.8c5.1-3,6.9-9.6,3.8-14.8C440.2,140.6,440.2,140.5,440.1,140.5z"/>
	<path class="st18" d="M440.1,140.5c-3.2-5-9.8-6.6-14.9-3.4l-0.1,0.1L408.6,148c-0.8,1.6-1.2,3.5-1.2,5.3
		c-0.1,6.5,5.1,11.9,11.7,12l0,0c0.3,0,0.5,0,0.8,0l16.5-9.6c5.1-3,6.9-9.6,3.9-14.8C440.2,140.7,440.2,140.6,440.1,140.5z"/>
	<path class="st14" d="M366.5,171.5c0,0-2.4,0-2.4,1.1s-0.6,5,0.8,4.9s1.3-2.6,1.4-3.4S366.5,171.5,366.5,171.5z"/>
	<path class="st14" d="M369.1,167.5c0,0-2.2-0.7-2.7,0.7s-1,7.6,0.5,7.5S368.8,169.9,369.1,167.5z"/>
	<path class="st14" d="M372.5,167.9c0,0-2.5-2.2-3.3-0.3s-1,7,0,7s2.5-2.2,2.8-3.3C372.2,170.1,372.4,169,372.5,167.9z"/>
	<path class="st14" d="M376,168.9c0,0-3.2-2.7-3.7-2.2s-2.5,5.6-1,6.6s3.4-3.6,3.4-3.6L376,168.9z"/>
	<path class="st14" d="M330.3,184.6c0,0,0.4,5.3,1.8,6.6c0.9,0.7,1.6,1.6,2.3,2.5c0.2,1.4,0.3,2.7,0.4,4.1c0,1.6,1.1,1.4,2,1.4
		s2.5,3,3.4,4.4c1.7,2.1,3.7,3.9,6,5.3c1.6,0.9,4.3-2.5,4.3-2.5l1.2,3.6l12.6-8.2l-6.2-12.1c-0.4-4.2-1.6-8.3-3.7-11.9
		c-3.6-6.4-8.4-10-16.4-7.6S330.3,184.6,330.3,184.6z"/>
	<path class="st18" d="M344.9,160.9c-3,0.1-5.9,0.7-8.7,1.8c-4.7,1.6-5.8,8.1-9.9,10.5s-2.3-2-4.4-0.9s-4.1,11.4,0.3,14.3
		s10.8-0.9,10.8-0.9s-0.6,2,1.2,2.6c1.1,0.3,2.1,0.6,3.2,0.9c0,0-0.3,3.5,2.3,3.2s0.3-4.4,0.3-4.4s5,9.6,8.7,10.8s9.3-4.1,10.8-6.4
		s0.3-18.9-2.9-25.3S344.9,160.9,344.9,160.9z"/>
	<path class="st14" d="M340.1,194.2c0,0-1.8-6.8,1.1-5.9s4.5,6.9,4.3,7.6s-1.6,1.1-2.3,0.9"/>
	<path class="st14" d="M360.7,196.7c-3.3,1.9-6.5,4-9.5,6.3c-3,2.7-5.7,10.7-5.7,10.7s18.3-12.4,21.5-14.2s3.9-2.7,3.9-2.7
		S364.2,195.8,360.7,196.7z"/>
	<path class="st14" d="M385.3,185.8c1.6-2.8,4.2-4.7,7.3-5.4c5.2-1.1,12,2.4,12.8,8.2s-3.5,8.4-6.3,8.4s-5.2-3.8-5.2-3.8
		S385.3,189.9,385.3,185.8z"/>
	<path class="st14" d="M312.4,246.5l8.7-23.1c-1,0.9-2.2,1.4-3.5,1.4c-2.2,0-7.3-0.8-6-1.6s6.5-4.4,6.5-4.4s-3.8,0.8-4.9,0
		s-1.6-1.9-0.8-2.2s2.5,0,5.4-1.1s4.4-2.2,6.8-2.2s4.6,4.4,4.6,5.7s-1.9,27.2-1.9,28.3s0,2.2-7.1,3S312.1,249.5,312.4,246.5z"/>
	<line class="st16" x1="321.1" y1="223.3" x2="322.4" y2="218.3"/>
	<path class="st14" d="M320.8,240.7c0,0-8.7,2.4-10.3,6.3s-1.4,9.5,1.9,12.8s4.6,4.1,8.2,2.7s4.4-3.5,4.6-5.7
		C325.5,254.6,327.4,247.3,320.8,240.7z"/>
	<path class="st14" d="M317.3,356.1c0,0-7.6-3.5-10.6-2.2s-3,2.7,0.8,8.7s14.4,13.3,18,11.7s0.3-12.5,0.3-12.5L317.3,356.1z"/>
	<path class="st14" d="M311.9,364.5c-2.6-2.9-4.9-6.2-6.6-9.8c-1.4,1.2-0.8,3.1,2.2,7.9c3.8,6,14.4,13.3,18,11.7
		c0.9-0.6,1.5-1.6,1.5-2.7C322,373.7,316.8,370,311.9,364.5z"/>
	<path class="st18" d="M356.5,272.8l0.3,8.2c0,0-16.6,6.2-24.8,12s-13.6,10.1-14.4,15.5s-0.3,47.6-0.3,47.6s-2.5,0.5-1.6,2.2
		s2.4,7.6,4.6,8.2s4.9,1.6,5.4,0.3s2.2-9.5,3.3-12.2s3-15.5,4.6-24.5c1-5,1.5-10.1,1.6-15.2c5.7-0.8,11.4-2.2,16.9-4.1
		c9.5-3.3,23.4-9.2,23.4-9.2s11.2,28,13.6,33.5s12,17.7,13.9,21.2s13.9,18.8,13.9,18.8s4.6-4.1,7.6-4.1h4.1c0,0-4.9-13.6-9-21.8
		s-12.5-21.5-12.5-21.5s-7.6-47.6-7.9-50.9c-0.5-6.3-4.5-15.8-4.5-15.8S381.5,258.2,356.5,272.8z"/>
	<path class="st14" d="M416.9,374.9c-0.7,1.1-1.3,2.3-1.9,3.5c-0.3,0.8-6.3,1.6-5.4,4.4s7.1,4.9,10.1,5.2s9-3.8,10.1-4.9
		c0.6-0.6,1.6-4.9,1.1-8.2c-0.3-1.5-1.1-2.9-2.2-4.1C428.6,370.8,423.4,362.9,416.9,374.9z"/>
	<path class="st14" d="M430.8,374.9c-0.3-1.4-0.9-2.7-1.9-3.7c-2.3,0-4.4,1-6,2.6c-2.7,3.3-1.4,10.6-4.6,11.7
		c-2.4,0.8-6.7-2.2-8.7-3.7c-0.1,0.3-0.1,0.7,0,1c0.8,2.7,7.1,4.9,10.1,5.2s9-3.8,10.1-4.9C430.3,382.4,431.3,378.2,430.8,374.9z"/>
	<path class="st18" d="M423.7,376.8c-1.1,4.9,0.3,8.2-4.1,11.2c3,0.3,9-3.8,10.1-4.9c0.6-0.6,1.6-4.9,1.1-8.2
		c-0.1-0.7-0.3-1.3-0.7-2h-0.4C429.7,372.9,424.8,371.9,423.7,376.8z"/>
	<line class="st19" x1="378.2" y1="300.9" x2="394.3" y2="293"/>
	<line class="st19" x1="385.6" y1="297.3" x2="399.5" y2="295.4"/>
	<path class="st6" d="M391,183.9c-4.6,0.5-16.6,8.7-17.4,9.5s-4.1,2.7-5.4,3.8c0,0-28,17.4-30.5,19s-7.3,4.9-7.1,6s-14.4,25-14.4,25
		s-4.4,5.7-0.3,10.9c4.1,5.2,7.9,1.6,9.8,0.5s16.9-15.2,16.9-15.2l13.8,33c0,0,19.1-12.8,39.5-12l-13.6-53.3c0,0,18.8-14.1,19.3-19
		S395.6,183.3,391,183.9z"/>
	<g>
		<g>
			<defs>
				<path id="SVGID_1_" d="M391,183.9c-4.6,0.5-16.6,8.7-17.4,9.5s-4.1,2.7-5.4,3.8c0,0-28,17.4-30.5,19s-7.3,4.9-7.1,6
					s-14.4,25-14.4,25s-4.4,5.7-0.3,10.9c4.1,5.2,7.9,1.6,9.8,0.5s16.9-15.2,16.9-15.2l13.8,33c0,0,19.1-12.8,39.5-12l-13.6-53.3
					c0,0,18.8-14.1,19.3-19S395.6,183.3,391,183.9z"/>
			</defs>
			<clipPath id="SVGID_2_">
				<use xlink:href="#SVGID_1_"  style="overflow:visible;"/>
			</clipPath>
			<g class="st20">
				<path class="st3" d="M391,183.9c-1.9,0.2-4.9,1.7-7.9,3.4c1.4-0.3,2.8,0.3,3.6,1.5c2.2,2.9-2.6,12.2-2.6,12.2s-2-12.9-1.9-9
					s-1,15.7-1,15.7s-6.4-7.7-6.1-5.8s4.5,19.9,7.1,26.6s-1.9,25.7-4.5,31.1c-2.6,5.4-1-23.1-3.9-16s-12.5,26.6-14.8,28.6
					s0.7-26.2,1.5-29.8c-1,3.1-7.6,22.5-7.6,22.5l-9-23.1c0,0-15.4-12.5-13.8-10.3s5.5,9.3,5.5,9.3s-9.3-1.9-7.7-1.3
					s8.7,4.2,8.7,4.2S322.2,254,318,255.3c-1.1,0.3-2.3,0.5-3.4,0.6c0.3,0.8,0.7,1.6,1.3,2.3c4.1,5.2,7.9,1.6,9.8,0.5
					s16.9-15.2,16.9-15.2l13.8,33c0,0,19.1-12.8,39.5-12l-13.6-53.3c0,0,18.8-14.1,19.3-19S395.6,183.3,391,183.9z"/>
				<path class="st4" d="M391,183.9c-1.9,0.2-4.9,1.7-7.9,3.4c1.4-0.3,2.8,0.3,3.6,1.5c2.2,2.9-2.6,12.2-2.6,12.2s-2-12.9-1.9-9
					s-1,15.7-1,15.7s-6.4-7.7-6.1-5.8s4.5,19.9,7.1,26.6s-1.9,25.7-4.5,31.1c-2.6,5.4-1-23.1-3.9-16s-12.5,26.6-14.8,28.6
					s0.7-26.2,1.5-29.8c-1,3.1-7.6,22.5-7.6,22.5l-9-23.1c0,0-15.4-12.5-13.8-10.3s5.5,9.3,5.5,9.3s-9.3-1.9-7.7-1.3
					s8.7,4.2,8.7,4.2S322.2,254,318,255.3c-1.1,0.3-2.3,0.5-3.4,0.6c0.3,0.8,0.7,1.6,1.3,2.3c4.1,5.2,7.9,1.6,9.8,0.5
					s16.9-15.2,16.9-15.2l13.8,33c0,0,19.1-12.8,39.5-12l-13.6-53.3c0,0,18.8-14.1,19.3-19S395.6,183.3,391,183.9z"/>
			</g>
		</g>
	</g>
	<path class="st16" d="M391,183.9c-4.6,0.5-16.6,8.7-17.4,9.5s-4.1,2.7-5.4,3.8c0,0-28,17.4-30.5,19s-7.3,4.9-7.1,6
		s-14.4,25-14.4,25s-4.4,5.7-0.3,10.9c4.1,5.2,7.9,1.6,9.8,0.5s16.9-15.2,16.9-15.2l13.8,33c0,0,19.1-12.8,39.5-12l-13.6-53.3
		c0,0,18.8-14.1,19.3-19S395.6,183.3,391,183.9z"/>
	<path class="st14" d="M356.4,276.4c-0.8-7.5-0.4-15,1.1-22.4"/>
	<path class="st14" d="M353.8,259.7c0,0,0-4.6,5.2-19"/>
	<polyline class="st14" points="332,231.5 342.6,243.5 331.7,235.6 	"/>
	<polyline class="st14" points="382.3,195.9 382.3,211.1 385.9,191.5 	"/>
	<path class="st21" d="M360.8,242c0,0.1-0.1,0.2-0.1,0.3C360.8,242,360.9,241.9,360.8,242z"/>
</g>
</svg>
