<?xml version="1.0" encoding="utf-8"?>
<!-- Generator: Adobe Illustrator 25.0.0, SVG Export Plug-In . SVG Version: 6.00 Build 0)  -->
<svg version="1.1" id="Calque_1" xmlns="http://www.w3.org/2000/svg" xmlns:xlink="http://www.w3.org/1999/xlink" x="0px" y="0px"
	 viewBox="0 0 500 500" style="enable-background:new 0 0 500 500;" xml:space="preserve">
<style type="text/css">
	.st0{opacity:0.43;fill:#FDCF41;enable-background:new    ;}
	.st1{opacity:0.45;fill:#5770BE;enable-background:new    ;}
	.st2{fill:#5770BE;}
	.st3{fill:#FF8D7E;}
	.st4{fill:#FFFFFF;}
	.st5{fill:#263238;}
	.st6{opacity:0.75;fill:#FFFFFF;enable-background:new    ;}
	.st7{opacity:0.25;enable-background:new    ;}
	.st8{opacity:0.9;fill:#FFFFFF;enable-background:new    ;}
	.st9{fill:#FFFFFF;stroke:#263238;stroke-linecap:round;stroke-miterlimit:10;}
	.st10{clip-path:url(#SVGID_2_);}
	.st11{opacity:0.1;enable-background:new    ;}
	.st12{fill:none;stroke:#263238;stroke-linecap:round;stroke-miterlimit:10;}
	.st13{fill:none;stroke:#263238;stroke-linecap:round;stroke-linejoin:round;}
	.st14{clip-path:url(#SVGID_4_);}
	.st15{clip-path:url(#SVGID_6_);}
	.st16{fill:#263238;stroke:#263238;stroke-linecap:round;stroke-linejoin:round;}
	.st17{fill:#FFFFFF;stroke:#263238;stroke-linecap:round;stroke-linejoin:round;}
	.st18{clip-path:url(#SVGID_8_);}
	.st19{clip-path:url(#SVGID_10_);}
	.st20{clip-path:url(#SVGID_12_);}
	.st21{clip-path:url(#SVGID_14_);}
	.st22{fill:none;stroke:#263238;stroke-width:0.5;stroke-linecap:round;stroke-linejoin:round;}
	.st23{clip-path:url(#SVGID_16_);}
	.st24{clip-path:url(#SVGID_18_);}
	.st25{clip-path:url(#SVGID_20_);}
	.st26{clip-path:url(#SVGID_22_);}
	.st27{fill:none;stroke:#FFFFFF;stroke-linecap:round;stroke-linejoin:round;}
	.st28{clip-path:url(#SVGID_24_);}
	.st29{fill:#FF8D7E;stroke:#263238;stroke-linecap:round;stroke-linejoin:round;}
	.st30{fill:none;stroke:#263238;stroke-width:2;stroke-linecap:round;stroke-linejoin:round;}
</style>
<g id="freepik--background-simple--inject-483">
	<path class="st0" d="M422.7,141.4c0,0-25.6-48.1-82.2-55.3s-96.1,27.6-137.7,45.5c-21.8,9.3-46.7,5.7-69.8,10.2
		c-74,14.4-101.9,105-71,156.4c26.7,44.6,73.7,67.8,145.2,73.1s121.7,11.6,185.7-32.1S452.6,204.7,422.7,141.4z"/>
</g>
<g id="freepik--Bookshelf--inject-483">
	<polygon class="st1" points="212.4,86.9 210.4,71.1 214,84.5 214,61.8 216.5,79.2 218.9,67.5 218.9,78.8 220.1,56.1 221.3,79.2 
		225.8,69.1 223.8,81.7 228.6,76.4 221.7,89 	"/>
	<polygon class="st2" points="225.3,104 211.8,104 210.1,83.5 227,83.5 	"/>
	<polygon class="st3" points="195.6,84 204.4,104.5 191.6,104.5 187.2,96 	"/>
	<polygon class="st3" points="200.8,70.8 177.9,70.8 164.4,104.9 187.2,104.9 	"/>
	<polygon class="st4" points="196.1,75.2 179.1,75.2 169.1,100.4 186,100.4 	"/>
	<rect x="91.8" y="110.8" class="st5" width="325.2" height="260.7"/>
	<rect x="91.8" y="110.8" class="st6" width="325.2" height="260.7"/>
	<rect x="100.9" y="115.5" class="st3" width="15.2" height="46.1"/>
	<rect x="101.9" y="118.3" class="st4" width="13.1" height="2.8"/>
	<rect x="101.9" y="155.2" class="st4" width="13.1" height="2.8"/>
	<rect x="117" y="115.5" class="st3" width="15.2" height="46.1"/>
	<rect x="118" y="118.3" class="st4" width="13.1" height="2.8"/>
	<rect x="118" y="155.2" class="st4" width="13.1" height="2.8"/>
	<rect x="133.1" y="115.5" class="st3" width="15.1" height="46.1"/>
	<rect x="134.1" y="118.3" class="st4" width="13.1" height="2.8"/>
	<rect x="134.1" y="155.2" class="st4" width="13.1" height="2.8"/>
	<rect x="149.3" y="115.5" class="st3" width="15.1" height="46.1"/>
	<rect x="150.2" y="118.3" class="st4" width="13.1" height="2.8"/>
	<rect x="150.2" y="155.2" class="st4" width="13.1" height="2.8"/>
	<rect x="165.4" y="115.5" class="st3" width="15.1" height="46.1"/>
	<rect x="166.4" y="118.3" class="st4" width="13.1" height="2.8"/>
	<rect x="166.4" y="155.2" class="st4" width="13.1" height="2.8"/>
	<rect x="181.5" y="115.5" class="st3" width="15.1" height="46.1"/>
	<rect x="182.5" y="118.3" class="st4" width="13.1" height="2.8"/>
	<rect x="182.5" y="155.2" class="st4" width="13.1" height="2.8"/>
	<rect x="187.6" y="164" class="st3" width="15.1" height="46.1"/>
	<rect x="188.6" y="166.7" class="st4" width="13.1" height="2.8"/>
	<rect x="188.6" y="203.6" class="st4" width="13.1" height="2.8"/>
	<rect x="203.7" y="164" class="st3" width="15.1" height="46.1"/>
	<rect x="204.7" y="166.7" class="st4" width="13.1" height="2.8"/>
	<rect x="204.7" y="203.6" class="st4" width="13.1" height="2.8"/>
	<rect x="219.9" y="164" class="st3" width="15.1" height="46.1"/>
	<rect x="220.9" y="166.7" class="st4" width="13.1" height="2.8"/>
	<rect x="220.9" y="203.6" class="st4" width="13.1" height="2.8"/>
	<rect x="236" y="164" class="st3" width="15.1" height="46.1"/>
	<rect x="237" y="166.7" class="st4" width="13.1" height="2.8"/>
	<rect x="237" y="203.6" class="st4" width="13.1" height="2.8"/>
	<rect x="252.1" y="164" class="st3" width="15.1" height="46.1"/>
	<rect x="253.1" y="166.7" class="st4" width="13.1" height="2.8"/>
	<rect x="253.1" y="203.6" class="st4" width="13.1" height="2.8"/>
	<rect x="268.2" y="164" class="st3" width="15.1" height="46.1"/>
	<rect x="269.2" y="166.7" class="st4" width="13.1" height="2.8"/>
	<rect x="269.2" y="203.6" class="st4" width="13.1" height="2.8"/>
	<rect x="303.9" y="164" class="st3" width="15.1" height="46.1"/>
	<rect x="304.9" y="166.7" class="st4" width="13.1" height="2.8"/>
	<rect x="304.9" y="203.6" class="st4" width="13.1" height="2.8"/>
	<rect x="320.1" y="164" class="st3" width="15.1" height="46.1"/>
	<rect x="321" y="166.7" class="st4" width="13.1" height="2.8"/>
	<rect x="321" y="203.6" class="st4" width="13.1" height="2.8"/>
	<rect x="336.2" y="164" class="st3" width="15.1" height="46.1"/>
	<rect x="337.2" y="166.7" class="st4" width="13.1" height="2.8"/>
	<rect x="337.2" y="203.6" class="st4" width="13.1" height="2.8"/>
	<rect x="352.3" y="164" class="st3" width="15.1" height="46.1"/>
	<rect x="353.3" y="166.7" class="st4" width="13.1" height="2.8"/>
	<rect x="353.3" y="203.6" class="st4" width="13.1" height="2.8"/>
	<rect x="368.4" y="164" class="st3" width="15.1" height="46.1"/>
	<rect x="369.4" y="166.7" class="st4" width="13.1" height="2.8"/>
	<rect x="369.4" y="203.6" class="st4" width="13.1" height="2.8"/>
	<polygon class="st3" points="398.8,214.1 384.4,209.5 400.5,165.9 414.8,170.5 	"/>
	<polygon class="st4" points="411.9,175.4 399.5,171.5 400.5,168.8 412.9,172.7 	"/>
	<polygon class="st4" points="399,210.4 386.6,206.4 387.6,203.7 400,207.7 	"/>
	<polygon class="st3" points="348.1,354.2 333.8,349.6 349.8,306 364.1,310.6 	"/>
	<polygon class="st4" points="361.2,315.5 348.8,311.6 349.8,308.9 362.2,312.8 	"/>
	<polygon class="st4" points="348.4,350.5 336,346.5 337,343.9 349.4,347.8 	"/>
	<rect x="197.6" y="115.5" class="st3" width="15.1" height="46.1"/>
	<rect x="198.6" y="118.3" class="st4" width="13.1" height="2.8"/>
	<rect x="198.6" y="155.2" class="st4" width="13.1" height="2.8"/>
	<rect x="99.4" y="213.3" class="st3" width="15.2" height="46.1"/>
	<rect x="100.4" y="216.1" class="st4" width="13.1" height="2.8"/>
	<rect x="100.4" y="253" class="st4" width="13.1" height="2.8"/>
	<rect x="115.5" y="213.3" class="st3" width="15.2" height="46.1"/>
	<rect x="116.5" y="216.1" class="st4" width="13.1" height="2.8"/>
	<rect x="116.5" y="253" class="st4" width="13.1" height="2.8"/>
	<rect x="131.6" y="213.3" class="st3" width="15.1" height="46.1"/>
	<rect x="132.6" y="216.1" class="st4" width="13.1" height="2.8"/>
	<rect x="132.6" y="253" class="st4" width="13.1" height="2.8"/>
	<rect x="147.7" y="213.3" class="st3" width="15.1" height="46.1"/>
	<rect x="148.7" y="216.1" class="st4" width="13.1" height="2.8"/>
	<rect x="148.7" y="253" class="st4" width="13.1" height="2.8"/>
	<rect x="163.8" y="213.3" class="st3" width="15.1" height="46.1"/>
	<rect x="164.8" y="216.1" class="st4" width="13.1" height="2.8"/>
	<rect x="164.8" y="253" class="st4" width="13.1" height="2.8"/>
	<rect x="148.9" y="309.2" class="st3" width="15.1" height="46.1"/>
	<rect x="149.9" y="312" class="st4" width="13.1" height="2.8"/>
	<rect x="149.9" y="348.9" class="st4" width="13.1" height="2.8"/>
	<rect x="165" y="309.2" class="st3" width="15.1" height="46.1"/>
	<rect x="166" y="312" class="st4" width="13.1" height="2.8"/>
	<rect x="166" y="348.9" class="st4" width="13.1" height="2.8"/>
	<rect x="181.1" y="309.2" class="st3" width="15.1" height="46.1"/>
	<rect x="182.1" y="312" class="st4" width="13.1" height="2.8"/>
	<rect x="182.1" y="348.9" class="st4" width="13.1" height="2.8"/>
	<rect x="197.2" y="309.2" class="st3" width="15.1" height="46.1"/>
	<rect x="198.2" y="312" class="st4" width="13.1" height="2.8"/>
	<rect x="198.2" y="348.9" class="st4" width="13.1" height="2.8"/>
	<rect x="213.3" y="309.2" class="st3" width="15.1" height="46.1"/>
	<rect x="214.3" y="312" class="st4" width="13.1" height="2.8"/>
	<rect x="214.3" y="348.9" class="st4" width="13.1" height="2.8"/>
	<rect x="180" y="213.3" class="st3" width="15.1" height="46.1"/>
	<rect x="180.9" y="216.1" class="st4" width="13.1" height="2.8"/>
	<rect x="180.9" y="253" class="st4" width="13.1" height="2.8"/>
	<rect x="196.1" y="213.3" class="st3" width="15.1" height="46.1"/>
	<rect x="197.1" y="216.1" class="st4" width="13.1" height="2.8"/>
	<rect x="197.1" y="253" class="st4" width="13.1" height="2.8"/>
	<rect x="212.1" y="213.3" class="st3" width="15.1" height="46.1"/>
	<rect x="213" y="216.1" class="st4" width="13.1" height="2.8"/>
	<rect x="213" y="253" class="st4" width="13.1" height="2.8"/>
	<rect x="228" y="213.3" class="st3" width="15.1" height="46.1"/>
	<rect x="229" y="216.1" class="st4" width="13.1" height="2.8"/>
	<rect x="229" y="253" class="st4" width="13.1" height="2.8"/>
	<polygon class="st3" points="285.7,256.4 271.2,260.5 257,216.3 271.5,212.3 	"/>
	<polygon class="st4" points="272.2,217.9 259.7,221.4 258.8,218.7 271.3,215.2 	"/>
	<polygon class="st4" points="283.6,253.3 271.1,256.8 270.2,254.1 282.8,250.6 	"/>
	<rect x="244" y="213.3" class="st3" width="15.2" height="46.1"/>
	<rect x="245" y="216.1" class="st4" width="13.1" height="2.8"/>
	<rect x="245" y="253" class="st4" width="13.1" height="2.8"/>
	<rect x="147.3" y="261.3" class="st3" width="15.1" height="46.1"/>
	<rect x="148.3" y="264" class="st4" width="13.1" height="2.8"/>
	<rect x="148.3" y="300.9" class="st4" width="13.1" height="2.8"/>
	<rect x="163.4" y="261.3" class="st3" width="15.1" height="46.1"/>
	<rect x="164.4" y="264" class="st4" width="13.1" height="2.8"/>
	<rect x="164.4" y="300.9" class="st4" width="13.1" height="2.8"/>
	<rect x="179.6" y="261.3" class="st3" width="15.1" height="46.1"/>
	<rect x="180.6" y="264" class="st4" width="13.1" height="2.8"/>
	<rect x="180.6" y="300.9" class="st4" width="13.1" height="2.8"/>
	<rect x="195.7" y="261.3" class="st3" width="15.1" height="46.1"/>
	<rect x="196.7" y="264" class="st4" width="13.1" height="2.8"/>
	<rect x="196.7" y="300.9" class="st4" width="13.1" height="2.8"/>
	<rect x="211.8" y="261.3" class="st3" width="15.1" height="46.1"/>
	<rect x="212.8" y="264" class="st4" width="13.1" height="2.8"/>
	<rect x="212.8" y="300.9" class="st4" width="13.1" height="2.8"/>
	<rect x="227.9" y="261.3" class="st3" width="15.1" height="46.1"/>
	<rect x="228.9" y="264" class="st4" width="13.1" height="2.8"/>
	<rect x="228.9" y="300.9" class="st4" width="13.1" height="2.8"/>
	<rect x="244" y="261.3" class="st3" width="15.1" height="46.1"/>
	<rect x="245" y="264" class="st4" width="13.1" height="2.8"/>
	<rect x="245" y="300.9" class="st4" width="13.1" height="2.8"/>
	<rect x="300.4" y="261.3" class="st3" width="15.1" height="46.1"/>
	<rect x="301.4" y="264" class="st4" width="13.1" height="2.8"/>
	<rect x="301.4" y="300.9" class="st4" width="13.1" height="2.8"/>
	<rect x="316.5" y="261.3" class="st3" width="15.1" height="46.1"/>
	<rect x="317.5" y="264" class="st4" width="13.1" height="2.8"/>
	<rect x="317.5" y="300.9" class="st4" width="13.1" height="2.8"/>
	<rect x="332.6" y="261.3" class="st3" width="15.1" height="46.1"/>
	<rect x="333.6" y="264" class="st4" width="13.1" height="2.8"/>
	<rect x="333.6" y="300.9" class="st4" width="13.1" height="2.8"/>
	<rect x="348.7" y="261.3" class="st3" width="15.1" height="46.1"/>
	<rect x="349.7" y="264" class="st4" width="13.1" height="2.8"/>
	<rect x="349.7" y="300.9" class="st4" width="13.1" height="2.8"/>
	<rect x="364.8" y="261.3" class="st3" width="15.1" height="46.1"/>
	<rect x="365.8" y="264" class="st4" width="13.1" height="2.8"/>
	<rect x="365.8" y="300.9" class="st4" width="13.1" height="2.8"/>
	<rect x="381" y="261.3" class="st3" width="15.1" height="46.1"/>
	<rect x="382" y="264" class="st4" width="13.1" height="2.8"/>
	<rect x="382" y="300.9" class="st4" width="13.1" height="2.8"/>
	<rect x="397.1" y="261.3" class="st3" width="15.1" height="46.1"/>
	<rect x="398.1" y="264" class="st4" width="13.1" height="2.8"/>
	<rect x="398.1" y="300.9" class="st4" width="13.1" height="2.8"/>
	<rect x="221.2" y="115.5" class="st3" width="15.1" height="46.1"/>
	<rect x="222.2" y="118.3" class="st4" width="13.1" height="2.8"/>
	<rect x="222.2" y="155.2" class="st4" width="13.1" height="2.8"/>
	<rect x="238.4" y="115.5" class="st3" width="15.1" height="46.1"/>
	<rect x="239.4" y="118.3" class="st4" width="13.1" height="2.8"/>
	<rect x="239.4" y="155.2" class="st4" width="13.1" height="2.8"/>
	<rect x="255.6" y="115.5" class="st3" width="15.1" height="46.1"/>
	<rect x="256.6" y="118.3" class="st4" width="13.1" height="2.8"/>
	<rect x="256.6" y="155.2" class="st4" width="13.1" height="2.8"/>
	<rect x="272.8" y="115.5" class="st3" width="15.1" height="46.1"/>
	<rect x="273.8" y="118.3" class="st4" width="13.1" height="2.8"/>
	<rect x="273.8" y="155.2" class="st4" width="13.1" height="2.8"/>
	<polygon class="st3" points="167.5,209.4 161.4,210.9 148.8,167.1 154.9,165.6 	"/>
	<polygon class="st4" points="156,171 150.7,172.3 149.9,169.6 155.2,168.3 	"/>
	<polygon class="st4" points="166.1,206.1 160.8,207.4 160.1,204.7 165.3,203.4 	"/>
	<rect x="166.8" y="165.6" class="st3" width="6.3" height="45.4"/>
	<rect x="167.2" y="168.3" class="st4" width="5.5" height="2.8"/>
	<rect x="167.2" y="204.6" class="st4" width="5.5" height="2.8"/>
	<rect x="173.6" y="165.6" class="st3" width="6.3" height="45.4"/>
	<rect x="174" y="168.3" class="st4" width="5.5" height="2.8"/>
	<rect x="174" y="204.6" class="st4" width="5.5" height="2.8"/>
	<path class="st4" d="M102.2,194.6c1.7,4.2,1.7,9,0,13.2h43.9c0,0,5.4-1.4,5.4-6.6c-0.7-2.9-2.6-5.2-5.3-6.5L102.2,194.6z"/>
	<path class="st7" d="M148.1,195.8c-1.9-1.1-3.7-1-5.9-1h-4.1h-10.8l-21-0.1c-0.3,0-3.8,0.3-3.9,0c0.4,0.9,0.7,1.8,0.9,2.7h43.8v10
		c2.6-1,4.3-3.4,4.4-6.2c0.1-2.2-1-4.2-2.9-5.2L148.1,195.8z"/>
	<path class="st3" d="M144.4,209.7h-44.1c-0.8-0.1-1.4-0.7-1.3-1.5c0.1-0.7,0.6-1.2,1.3-1.3h44.1c3,0.1,5.5-2.2,5.6-5.2
		s-2.2-5.5-5.2-5.6c-0.2,0-0.3,0-0.5,0h-43.7c-0.8,0-1.4-0.6-1.4-1.4c0-0.8,0.6-1.4,1.4-1.4l0,0h43.7c4.5,0,8.2,3.7,8.2,8.2
		C152.6,206,148.9,209.6,144.4,209.7z"/>
	<path class="st4" d="M149.4,178.4c-1.7,4.2-1.7,9,0,13.2h-43.9c0,0-5.4-1.4-5.4-6.6c0.7-2.9,2.6-5.2,5.3-6.5L149.4,178.4z"/>
	<path class="st7" d="M103.4,179.5c1.9-1.1,3.7-1,5.9-1h4.2h10.8l21-0.1c0.3,0,3.8,0.3,3.9,0c-0.4,0.9-0.7,1.8-0.9,2.7h-43.8v10.1
		c-2.6-1-4.3-3.4-4.4-6.2c-0.1-2.2,1-4.2,2.9-5.2L103.4,179.5z"/>
	<path class="st3" d="M107.1,193.4h44.1c0.8-0.1,1.4-0.7,1.3-1.5c-0.1-0.7-0.6-1.2-1.3-1.3h-44.1c-3,0-5.4-2.4-5.4-5.4
		s2.4-5.4,5.4-5.4h43.7c0.8-0.1,1.4-0.7,1.3-1.5c-0.1-0.7-0.6-1.2-1.3-1.3h-43.7c-4.5,0-8.2,3.7-8.2,8.2
		C98.9,189.7,102.6,193.4,107.1,193.4z"/>
	<path class="st4" d="M362.8,243.5c1.7,4.2,1.7,9,0,13.2h43.9c0,0,5.4-1.4,5.4-6.6c-0.7-2.9-2.6-5.2-5.3-6.5L362.8,243.5z"/>
	<path class="st7" d="M408.8,244.7c-1.9-1.1-3.7-1-5.9-1h-4.1H388l-21-0.1c-0.3,0-3.8,0.3-3.9,0c0.4,0.9,0.7,1.8,0.9,2.7h43.8v10
		c2.6-1,4.3-3.4,4.4-6.2c0.1-2.2-1-4.2-2.9-5.2L408.8,244.7z"/>
	<path class="st3" d="M405.1,258.6H361c-0.8-0.1-1.4-0.7-1.3-1.5c0.1-0.7,0.6-1.2,1.3-1.3h44.1c3,0,5.4-2.4,5.4-5.4
		s-2.4-5.4-5.4-5.4h-43.7c-0.8-0.1-1.4-0.7-1.3-1.5c0.1-0.7,0.6-1.2,1.3-1.3h43.7c4.5,0,8.2,3.7,8.2,8.2
		C413.3,254.9,409.6,258.5,405.1,258.6L405.1,258.6z"/>
	<path class="st4" d="M410,227.3c-1.7,4.2-1.7,9,0,13.2h-43.9c0,0-5.4-1.4-5.4-6.6c0.7-2.9,2.6-5.2,5.3-6.5L410,227.3z"/>
	<path class="st7" d="M364,228.4c1.9-1.1,3.7-1,5.9-1h4.1h10.8l21-0.1c0.3,0,3.8,0.3,3.9,0c-0.4,0.9-0.7,1.8-0.9,2.7H365v10.1
		c-2.6-1-4.3-3.4-4.4-6.2c-0.1-2.2,1-4.2,2.9-5.2L364,228.4z"/>
	<path class="st3" d="M367.8,242.3h44.1c0.8-0.1,1.4-0.7,1.3-1.5c-0.1-0.7-0.6-1.2-1.3-1.3h-44.1c-3,0-5.4-2.4-5.4-5.4
		s2.4-5.4,5.4-5.4h43.7c0.8-0.1,1.4-0.7,1.3-1.5c-0.1-0.7-0.6-1.2-1.3-1.3h-43.7c-4.5,0-8.2,3.7-8.2,8.2
		C359.6,238.6,363.3,242.3,367.8,242.3z"/>
	<path class="st4" d="M361.8,337.1c1.7,4.2,1.7,9,0,13.2h43.9c0,0,5.4-1.4,5.4-6.6c-0.7-2.9-2.6-5.2-5.3-6.5L361.8,337.1z"/>
	<path class="st7" d="M407.8,338.2c-1.9-1.1-3.7-1-5.9-1h-4.2H387l-21-0.1c-0.4,0-3.8,0.3-3.9,0c0.4,0.9,0.7,1.8,0.9,2.7h43.8v10.1
		c2.6-1,4.3-3.4,4.4-6.2c0.1-2.2-1-4.2-2.9-5.2L407.8,338.2z"/>
	<path class="st3" d="M404.1,352.1H360c-0.8-0.1-1.4-0.7-1.3-1.5c0.1-0.7,0.6-1.2,1.3-1.3h44.1c3,0.1,5.5-2.2,5.6-5.2
		s-2.2-5.5-5.2-5.6c-0.2,0-0.3,0-0.5,0h-43.7c-0.8,0-1.4-0.6-1.4-1.4s0.6-1.4,1.4-1.4H404c4.5,0,8.2,3.7,8.2,8.2
		C412.3,348.4,408.6,352.1,404.1,352.1L404.1,352.1z"/>
	<path class="st4" d="M409,320.8c-1.7,4.2-1.7,9,0,13.2h-43.9c0,0-5.4-1.4-5.4-6.6c0.7-2.8,2.6-5.2,5.3-6.4L409,320.8z"/>
	<path class="st7" d="M363,321.9c1.9-1.1,3.7-1,5.9-1h4.1h10.8l21-0.1c0.3,0,3.8,0.3,3.9,0c-0.4,0.9-0.7,1.8-0.9,2.7H364v10.1
		c-2.6-1-4.3-3.4-4.4-6.2c-0.1-2.2,1-4.2,2.9-5.2L363,321.9z"/>
	<path class="st3" d="M366.8,335.8h44.1c0.8-0.1,1.4-0.7,1.3-1.5c-0.1-0.7-0.6-1.2-1.3-1.3h-44.1c-3,0-5.4-2.4-5.4-5.4
		s2.4-5.4,5.4-5.4l0,0h43.7c0.8-0.1,1.4-0.7,1.3-1.5c-0.1-0.7-0.6-1.2-1.3-1.3h-43.7c-4.5,0-8.2,3.7-8.2,8.2
		C358.6,332.2,362.2,335.8,366.8,335.8L366.8,335.8z"/>
	<path class="st4" d="M283.9,337.1c1.7,4.2,1.7,9,0,13.2h43.9c0,0,5.4-1.4,5.4-6.6c-0.7-2.9-2.6-5.2-5.3-6.5L283.9,337.1z"/>
	<path class="st7" d="M329.9,338.2c-1.9-1.1-3.7-1-5.9-1h-4.1h-10.8l-21-0.1c-0.4,0-3.8,0.3-3.9,0c0.4,0.9,0.7,1.8,0.9,2.7h43.8
		v10.1c2.6-1,4.3-3.4,4.4-6.2c0.1-2.2-1-4.2-2.9-5.2L329.9,338.2z"/>
	<path class="st3" d="M326.1,352.1H282c-0.8-0.1-1.4-0.7-1.3-1.5c0.1-0.7,0.6-1.2,1.3-1.3h44.1c3,0.1,5.5-2.2,5.6-5.2
		s-2.2-5.5-5.2-5.6c-0.2,0-0.3,0-0.5,0h-43.7c-0.8,0-1.4-0.6-1.4-1.4s0.6-1.4,1.4-1.4H326c4.5,0,8.2,3.7,8.2,8.2
		C334.3,348.4,330.7,352.1,326.1,352.1L326.1,352.1z"/>
	<path class="st4" d="M283.9,320.8c1.7,4.2,1.7,9,0,13.2h43.9c0,0,5.4-1.4,5.4-6.6c-0.7-2.8-2.6-5.2-5.3-6.4L283.9,320.8z"/>
	<path class="st7" d="M329.9,321.9c-1.9-1.1-3.7-1-5.9-1h-4.1h-10.8l-21-0.1c-0.4,0-3.8,0.3-3.9,0c0.4,0.9,0.7,1.8,0.9,2.7h43.8
		v10.1c2.6-1,4.3-3.4,4.4-6.2c0.1-2.2-1-4.2-2.9-5.2L329.9,321.9z"/>
	<path class="st3" d="M326.1,335.8H282c-0.8-0.1-1.4-0.7-1.3-1.5c0.1-0.7,0.6-1.2,1.3-1.3h44.1c3,0,5.4-2.4,5.4-5.4
		s-2.4-5.4-5.4-5.4l0,0h-43.7c-0.8-0.1-1.4-0.7-1.3-1.5c0.1-0.7,0.6-1.2,1.3-1.3h43.7c4.5,0,8.2,3.7,8.2,8.2
		C334.3,332.2,330.7,335.8,326.1,335.8L326.1,335.8z"/>
	<path class="st4" d="M98.6,337.1c1.7,4.2,1.7,9,0,13.2h43.9c0,0,5.4-1.4,5.4-6.6c-0.7-2.9-2.6-5.2-5.3-6.5L98.6,337.1z"/>
	<path class="st7" d="M144.6,338.2c-1.9-1.1-3.7-1-5.9-1h-4.1h-10.8l-21-0.1c-0.3,0-3.8,0.3-3.9,0c0.4,0.9,0.7,1.8,0.9,2.7h43.8
		v10.1c2.6-1,4.3-3.4,4.4-6.2c0.1-2.2-1-4.2-2.9-5.2L144.6,338.2z"/>
	<path class="st3" d="M140.8,352.1H96.7c-0.8-0.1-1.4-0.7-1.3-1.5c0.1-0.7,0.6-1.2,1.3-1.3h44.1c3,0.1,5.5-2.2,5.6-5.2
		s-2.2-5.5-5.2-5.6c-0.2,0-0.3,0-0.5,0H97.1c-0.8,0-1.4-0.6-1.4-1.4s0.6-1.4,1.4-1.4h43.7c4.5,0,8.2,3.7,8.2,8.2
		C149,348.4,145.4,352.1,140.8,352.1L140.8,352.1z"/>
	<path class="st4" d="M145.8,320.8c-1.7,4.2-1.7,9,0,13.2h-43.9c0,0-5.4-1.4-5.4-6.6c0.7-2.9,2.6-5.2,5.3-6.5L145.8,320.8z"/>
	<path class="st7" d="M99.8,321.9c1.9-1.1,3.7-1,5.9-1h4.2h10.8l21-0.1c0.3,0,3.8,0.3,3.9,0c-0.4,0.9-0.7,1.8-0.9,2.7h-43.8v10.1
		c-2.6-1-4.3-3.4-4.4-6.2c-0.1-2.2,1-4.2,2.9-5.2L99.8,321.9z"/>
	<path class="st3" d="M103.6,335.8h44.1c0.8-0.1,1.4-0.7,1.3-1.5c-0.1-0.7-0.6-1.2-1.3-1.3h-44.1c-3,0-5.4-2.4-5.4-5.4
		s2.4-5.4,5.4-5.4l0,0h43.7c0.8-0.1,1.4-0.7,1.3-1.5c-0.1-0.7-0.6-1.2-1.3-1.3h-43.7c-4.5,0-8.2,3.7-8.2,8.2
		C95.3,332.2,99,335.8,103.6,335.8L103.6,335.8z"/>
	<path class="st4" d="M308.3,243.5c1.7,4.2,1.7,9,0,13.2h43.9c0,0,5.4-1.4,5.4-6.6c-0.7-2.9-2.6-5.2-5.3-6.5L308.3,243.5z"/>
	<path class="st7" d="M354.2,244.7c-1.9-1.1-3.7-1-5.9-1h-4.1h-10.8l-21-0.1c-0.3,0-3.7,0.3-3.9,0c0.4,0.9,0.7,1.8,0.9,2.7h43.8v10
		c2.6-1,4.3-3.4,4.4-6.2c0.1-2.2-1-4.2-2.9-5.2L354.2,244.7z"/>
	<path class="st3" d="M350.5,258.6h-44.1c-0.8-0.1-1.4-0.7-1.3-1.5c0.1-0.7,0.6-1.2,1.3-1.3h44.1c3,0,5.4-2.4,5.4-5.4
		s-2.4-5.4-5.4-5.4h-43.7c-0.8-0.1-1.4-0.7-1.3-1.5c0.1-0.7,0.6-1.2,1.3-1.3h43.7c4.5,0,8.2,3.7,8.2,8.2
		C358.7,254.9,355,258.5,350.5,258.6z"/>
	<path class="st4" d="M355.5,227.3c-1.7,4.2-1.7,9,0,13.2h-43.9c0,0-5.4-1.4-5.4-6.6c0.7-2.9,2.6-5.2,5.3-6.5L355.5,227.3z"/>
	<path class="st7" d="M309.5,228.4c1.9-1.1,3.7-1,5.9-1h4.1h10.8l21-0.1c0.3,0,3.7,0.3,3.9,0c-0.4,0.9-0.7,1.8-0.9,2.7h-43.8v10.1
		c-2.6-1-4.3-3.4-4.4-6.2c-0.1-2.2,1-4.2,2.9-5.2L309.5,228.4z"/>
	<path class="st3" d="M313.2,242.3h44.1c0.8-0.1,1.4-0.7,1.3-1.5c-0.1-0.7-0.6-1.2-1.3-1.3h-44.1c-3,0-5.4-2.4-5.4-5.4
		s2.4-5.4,5.4-5.4h43.7c0.8-0.1,1.4-0.7,1.3-1.5c-0.1-0.7-0.6-1.2-1.3-1.3h-43.7c-4.5,0-8.2,3.7-8.2,8.2S308.7,242.3,313.2,242.3z"
		/>
	<path class="st5" d="M422,104H84.1v12.6h4.6v307.5H96V420h316.9v4.1h7.3V116.6h1.8L422,104L422,104z M143.4,263.1h269.4v41.8H143.4
		V263.1z M96,256.8V215h316.9v41.8H96z M96,208.8V167h316.9v41.8H96z M294.2,116.6v44.1H96v-44.1H294.2z M96,352.9v-41.8h316.9v41.8
		H96z"/>
	<path class="st8" d="M422,104H84.1v12.6h4.6v307.5H96V420h316.9v4.1h7.3V116.6h1.8L422,104L422,104z M143.4,263.1h269.4v41.8H143.4
		V263.1z M96,256.8V215h316.9v41.8H96z M96,208.8V167h316.9v41.8H96z M294.2,116.6v44.1H96v-44.1H294.2z M96,352.9v-41.8h316.9v41.8
		H96z"/>
	<ellipse class="st4" cx="347.2" cy="137.7" rx="5" ry="4.7"/>
	<ellipse class="st4" cx="366.6" cy="137.7" rx="5" ry="4.7"/>
</g>
<g id="freepik--Character--inject-483">
	<polygon class="st9" points="219.7,405.1 218,407.6 220.5,409.3 218.9,412 221.1,414 216.9,416.8 219.1,418.2 218.6,420.1 
		220.8,421.2 218.6,424.5 150.5,424.5 149.1,421.2 150.8,419.3 148.3,417.9 152.2,416.8 149.7,415.1 152.4,414 148.8,412.6 
		158,409.8 147.7,408.2 151.1,382.9 218.6,394.5 	"/>
	<path class="st7" d="M216.8,408.6c0,0-32,3.4-51.6,1l10,2.4l-18.6,1l17.5,2.8l-18.6,1.7l14.8,3.1l-17.6,1.4h63.6l-14.4-3.5l8.6-1.4
		l-7.9-1.4l14.4-1.4l-14.8-0.7l13.8-1.4l-14.8-0.7C201.3,411.7,208.9,410.3,216.8,408.6z"/>
	<path class="st4" d="M145.4,408c0,0,41.2,1.8,74.3-2.9l-1.1-16.1l-69.5-6.6L145.4,408z"/>
	<g>
		<g>
			<defs>
				<path id="SVGID_1_" d="M145.4,408c0,0,41.2,1.8,74.3-2.9l-1.1-16.1l-69.5-6.6L145.4,408z"/>
			</defs>
			<clipPath id="SVGID_2_">
				<use xlink:href="#SVGID_1_"  style="overflow:visible;"/>
			</clipPath>
			<g class="st10">
				<path class="st11" d="M145.4,408c0,0,41.2,1.8,74.3-2.9l-1.1-16.1l-69.5-6.6L145.4,408z"/>
			</g>
		</g>
	</g>
	<path class="st12" d="M145.4,408c0,0,41.2,1.8,74.3-2.9l-1.1-16.1l-69.5-6.6L145.4,408z"/>
	<line class="st13" x1="161.7" y1="386.8" x2="160.5" y2="400"/>
	<line class="st13" x1="172" y1="387.6" x2="171.6" y2="401.2"/>
	<line class="st13" x1="182.3" y1="388.9" x2="181.9" y2="402"/>
	<line class="st13" x1="191.7" y1="391.7" x2="191.7" y2="402.4"/>
	<line class="st13" x1="202.8" y1="394.2" x2="203.2" y2="402.4"/>
	<line class="st13" x1="212.6" y1="395.9" x2="213.1" y2="402.4"/>
	<path class="st4" d="M220,377.2c0,0-54.8,24.2-74.6,30.8l3.7-25.7l55.3-22.9L220,377.2z"/>
	<g>
		<g>
			<defs>
				<path id="SVGID_3_" d="M220,377.2c0,0-54.8,24.2-74.6,30.8l3.7-25.7l55.3-22.9L220,377.2z"/>
			</defs>
			<clipPath id="SVGID_4_">
				<use xlink:href="#SVGID_3_"  style="overflow:visible;"/>
			</clipPath>
			<g class="st14">
				<path class="st11" d="M174.8,396.4c21.7-7,45.1-19.2,45.1-19.2l-15.6-17.8l-36.7,12.9L174.8,396.4z"/>
			</g>
		</g>
	</g>
	<path class="st13" d="M220,377.2c0,0-54.8,24.2-74.6,30.8l3.7-25.7l55.3-22.9L220,377.2z"/>
	<polygon class="st4" points="166.9,379.4 220,377.2 209.4,354.2 157.2,354.4 	"/>
	<g>
		<g>
			<defs>
				<polygon id="SVGID_5_" points="166.9,379.4 220,377.2 209.4,354.2 157.2,354.4 				"/>
			</defs>
			<clipPath id="SVGID_6_">
				<use xlink:href="#SVGID_5_"  style="overflow:visible;"/>
			</clipPath>
			<g class="st15">
				<polygon class="st11" points="166.9,379.4 220,377.2 209.4,354.2 157.2,354.4 				"/>
			</g>
		</g>
	</g>
	<polygon class="st13" points="166.9,379.4 220,377.2 209.4,354.2 157.2,354.4 	"/>
	<line class="st13" x1="171.2" y1="358.1" x2="176.1" y2="374.5"/>
	<line class="st13" x1="180.6" y1="357.3" x2="185.6" y2="374.5"/>
	<line class="st13" x1="190.1" y1="356.8" x2="194.6" y2="373.3"/>
	<line class="st13" x1="199.9" y1="356.8" x2="204.9" y2="372.9"/>
	<path class="st16" d="M222.3,289.6l15.9,55.4l-6.4,2.1l-29-62.9C202.9,284.2,213.9,280.6,222.3,289.6z"/>
	<path class="st17" d="M238.2,345c0,0,4.1,6.9,4.1,9.2s-7.4,2-10.8,2.6s-10.6,5.4-13.6,4.1c0,0-1.8-1,0-3.1s10.1-6.1,13.9-10.7
		L238.2,345z"/>
	<path class="st5" d="M290.4,142.9c0,1-1.2,1.9-1.3,2.9s0.8,2.1,0.6,3.1s-1.5,1.7-1.8,2.6s0.4,2.3,0,3.2s-1.9,1.3-2.3,2.2
		s-0.1,2.3-0.7,3.1s-2.1,0.9-2.8,1.6s-0.6,2.2-1.3,2.9s-2.2,0.4-3,1s-1,2.1-1.9,2.6s-2.2,0-3.2,0.4s-1.4,1.8-2.4,2.1
		s-2.2-0.5-3.2-0.3s-1.8,1.5-2.8,1.6s-2-1-3-1s-2.1,1.1-3,1s-1.8-1.4-2.8-1.6s-2.2,0.6-3.2,0.3s-1.5-1.7-2.4-2.1s-2.3,0.1-3.2-0.4
		s-1.1-2-1.9-2.6s-2.3-0.4-3-1s-0.7-2.2-1.3-2.9s-2.2-0.8-2.8-1.6s-0.2-2.2-0.7-3.1s-1.9-1.2-2.3-2.2s0.3-2.2,0-3.2
		s-1.6-1.6-1.8-2.6s0.7-2.1,0.6-3.1s-1.3-1.9-1.3-2.9s1.2-2,1.3-2.9s-0.8-2.2-0.6-3.1s1.5-1.6,1.8-2.6s-0.4-2.3,0-3.2
		s1.9-1.3,2.3-2.2s0.1-2.3,0.7-3.1s2.1-0.9,2.8-1.6s0.6-2.2,1.3-2.9s2.2-0.4,3-1s1-2.1,1.9-2.6s2.2,0,3.2-0.4s1.4-1.8,2.4-2.1
		s2.2,0.5,3.2,0.3c1-0.2,1.8-1.5,2.8-1.6s2,1,3,1s2.1-1.1,3-1s1.8,1.4,2.8,1.6s2.2-0.6,3.2-0.3s1.5,1.7,2.4,2.1s2.3-0.1,3.2,0.4
		s1.1,2,1.9,2.6s2.3,0.3,3,1s0.7,2.2,1.3,2.9s2.2,0.8,2.8,1.6s0.2,2.2,0.7,3.1s1.9,1.2,2.3,2.2s-0.3,2.2,0,3.2s1.6,1.6,1.8,2.6
		s-0.7,2.1-0.6,3.1S290.4,141.9,290.4,142.9z"/>
	<path class="st17" d="M238.9,181.2c0,0-10,22.2-15,34.2s-1.2,22.2,2,23.4c3.4,1.2,27.9-7.5,33.8-9.8c5.5-2.1,5.6-2,5.6-2
		s0.4,18.6,0.4,20.8s-4,10.2-3.6,12.6s5.8,7,21.8,8.6s25.2-2.2,26.8-4.4s1.6-5,1.6-9.4c0-4.4-2.2-29.4-5.4-49s-11.6-28-15.6-30.2
		s-10.8,0.8-17.6,5.4s-10.6,13.6-11.6,16s-20.2,18.4-21.6,19.8s2.8-34.4,2.8-34.4L238.9,181.2z"/>
	<line class="st13" x1="237.3" y1="184.9" x2="242.8" y2="186.8"/>
	<path class="st17" d="M240.5,217.1c-0.3,3.2-0.8,6.4-1.6,9.6"/>
	<line class="st13" x1="265.3" y1="226.9" x2="262.9" y2="210.3"/>
	<path class="st17" d="M269.5,182.2c0,0-5.8,14-4.6,14s3.8-4.4,3.8-4.4l3.4,6.8c0,0,0.6-16,0.2-16.6S270.3,180,269.5,182.2z"/>
	<path class="st4" d="M263.5,175.6c0,0,6.2,8.6,6.8,11s1.2,14,1.8,12s12.2-22.4,12.4-23.4s-3.4-7.4-3.4-7.4s-8,5.8-11.8,6.8
		C267.4,175.1,265.5,175.5,263.5,175.6z"/>
	<g>
		<g>
			<defs>
				<path id="SVGID_7_" d="M263.5,175.6c0,0,6.2,8.6,6.8,11s1.2,14,1.8,12s12.2-22.4,12.4-23.4s-3.4-7.4-3.4-7.4s-8,5.8-11.8,6.8
					C267.4,175.1,265.5,175.5,263.5,175.6z"/>
			</defs>
			<clipPath id="SVGID_8_">
				<use xlink:href="#SVGID_7_"  style="overflow:visible;"/>
			</clipPath>
			<g class="st18">
				<path class="st11" d="M263.5,175.6c0,0,6.2,8.6,6.8,11s1.2,14,1.8,12s12.2-22.4,12.4-23.4s-3.4-7.4-3.4-7.4s-8,5.8-11.8,6.8
					C267.4,175.1,265.5,175.5,263.5,175.6z"/>
			</g>
		</g>
	</g>
	<path class="st13" d="M263.5,175.6c0,0,6.2,8.6,6.8,11s1.2,14,1.8,12s12.2-22.4,12.4-23.4s-3.4-7.4-3.4-7.4s-8,5.8-11.8,6.8
		C267.4,175.1,265.5,175.5,263.5,175.6z"/>
	<polygon class="st17" points="273.1,189.4 272.1,198.6 276.9,192.2 	"/>
	<polygon class="st17" points="273.1,189.4 277.1,195.2 291.1,175.4 285.7,170.8 	"/>
	<path class="st4" d="M278.1,152.9c0,0,1-5.2,3.2-4.8s2,4.4,0.8,7.2c-0.5,1.2-1,2.3-1.6,3.4L278.1,152.9z"/>
	<g>
		<g>
			<defs>
				<path id="SVGID_9_" d="M278.1,152.9c0,0,1-5.2,3.2-4.8s2,4.4,0.8,7.2c-0.5,1.2-1,2.3-1.6,3.4L278.1,152.9z"/>
			</defs>
			<clipPath id="SVGID_10_">
				<use xlink:href="#SVGID_9_"  style="overflow:visible;"/>
			</clipPath>
			<g class="st19">
				<path class="st11" d="M278.1,152.9c0,0,1-5.2,3.2-4.8s2,4.4,0.8,7.2c-0.5,1.2-1,2.3-1.6,3.4L278.1,152.9z"/>
			</g>
		</g>
	</g>
	<path class="st13" d="M278.1,152.9c0,0,1-5.2,3.2-4.8s2,4.4,0.8,7.2c-0.5,1.2-1,2.3-1.6,3.4L278.1,152.9z"/>
	<path class="st4" d="M251.5,160.7c0,0-3.2-3-3.8,1.2s6.2,5,6.2,5L251.5,160.7z"/>
	<g>
		<g>
			<defs>
				<path id="SVGID_11_" d="M251.5,160.7c0,0-3.2-3-3.8,1.2s6.2,5,6.2,5L251.5,160.7z"/>
			</defs>
			<clipPath id="SVGID_12_">
				<use xlink:href="#SVGID_11_"  style="overflow:visible;"/>
			</clipPath>
			<g class="st20">
				<path class="st11" d="M251.5,160.7c0,0-3.2-3-3.8,1.2s6.2,5,6.2,5L251.5,160.7z"/>
			</g>
		</g>
	</g>
	<path class="st13" d="M251.5,160.7c0,0-3.2-3-3.8,1.2s6.2,5,6.2,5L251.5,160.7z"/>
	<path class="st4" d="M246.9,148.5c0,0,8.8,24.2,12,27.8c3.2,3.6,11.8,5.6,18.8,0.2s4.8-11.4,3.2-16.2s-8.2-21.4-9.2-23.6
		s-5.8-3.4-8.2-1.6s-1.4,4-5.4,5s-8.8-0.6-11,2.4C245.8,144.2,245.8,146.6,246.9,148.5z"/>
	<g>
		<g>
			<defs>
				<path id="SVGID_13_" d="M246.9,148.5c0,0,8.8,24.2,12,27.8c3.2,3.6,11.8,5.6,18.8,0.2s4.8-11.4,3.2-16.2s-8.2-21.4-9.2-23.6
					s-5.8-3.4-8.2-1.6s-1.4,4-5.4,5s-8.8-0.6-11,2.4C245.8,144.2,245.8,146.6,246.9,148.5z"/>
			</defs>
			<clipPath id="SVGID_14_">
				<use xlink:href="#SVGID_13_"  style="overflow:visible;"/>
			</clipPath>
			<g class="st21">
				<path class="st11" d="M246.9,148.5c0,0,8.8,24.2,12,27.8c3.2,3.6,11.8,5.6,18.8,0.2s4.8-11.4,3.2-16.2s-8.2-21.4-9.2-23.6
					s-5.8-3.4-8.2-1.6s-1.4,4-5.4,5s-8.8-0.6-11,2.4C245.8,144.2,245.8,146.6,246.9,148.5z"/>
			</g>
		</g>
	</g>
	<path class="st13" d="M246.9,148.5c0,0,8.8,24.2,12,27.8c3.2,3.6,11.8,5.6,18.8,0.2s4.8-11.4,3.2-16.2s-8.2-21.4-9.2-23.6
		s-5.8-3.4-8.2-1.6s-1.4,4-5.4,5s-8.8-0.6-11,2.4C245.8,144.2,245.8,146.6,246.9,148.5z"/>
	<path class="st17" d="M250.5,155.8l9.5-3.5c0.8-0.3,1.7,0.1,1.9,0.9l0,0l1,2.8c0.6,1.6-0.2,3.4-1.9,4l-6.5,2.4
		c-1.6,0.6-3.4-0.2-4-1.9l-1-2.8C249.3,157,249.7,156.1,250.5,155.8L250.5,155.8z"/>
	<path class="st17" d="M266,150.2l9.5-3.5c0.8-0.3,1.7,0.1,1.9,0.9l0,0l1,2.8c0.6,1.6-0.2,3.4-1.9,4l-6.5,2.4
		c-1.6,0.6-3.4-0.2-4-1.9l-1-2.8C264.8,151.3,265.2,150.5,266,150.2L266,150.2L266,150.2z"/>
	<line class="st22" x1="254.1" y1="162.7" x2="256.9" y2="155.8"/>
	<line class="st22" x1="259" y1="153.7" x2="256.9" y2="159.1"/>
	<line class="st22" x1="269.8" y1="156.6" x2="272.6" y2="149.7"/>
	<line class="st22" x1="274.7" y1="147.6" x2="272.6" y2="153"/>
	<line class="st13" x1="259.9" y1="152.4" x2="266.2" y2="150.1"/>
	<path class="st13" d="M262,153.4c0.9-0.7,2-1.1,3.1-1.2"/>
	<path class="st13" d="M265.5,148c1.8-2.5,4.8-3.7,7.8-3.1"/>
	<path class="st13" d="M259.7,150.7c-2.5-2.1-6.1-1.9-8.4,0.4"/>
	<path class="st13" d="M263,161.7c0,0,0.5,2,0.9,2.2c1.5,0.6,6.5-0.6,6.4-2.9c-0.1-0.7-0.4-1.4-0.7-2.1"/>
	<path class="st13" d="M265.6,168.5c2.4,0.2,4.7-0.8,6.3-2.6"/>
	<path class="st4" d="M233.6,219.1c0,0-2.8,31.1-14.2,62.3s-62.2,73.1-62.2,73.1l9.7,25c0,0,36.4-27.5,53.6-68.1
		s17.8-91.4,17.8-91.4L233.6,219.1z"/>
	<g>
		<g>
			<defs>
				<path id="SVGID_15_" d="M233.6,219.1c0,0-2.8,31.1-14.2,62.3s-62.2,73.1-62.2,73.1l9.7,25c0,0,36.4-27.5,53.6-68.1
					s17.8-91.4,17.8-91.4L233.6,219.1z"/>
			</defs>
			<clipPath id="SVGID_16_">
				<use xlink:href="#SVGID_15_"  style="overflow:visible;"/>
			</clipPath>
			<g class="st23">
				<path class="st11" d="M217.4,286.1l7.6,13.5c12.9-38,13.3-79.7,13.3-79.7l-4.7-0.8c0,0-2.8,31.1-14.2,62.3
					C218.9,282.9,218.2,284.5,217.4,286.1z"/>
			</g>
		</g>
	</g>
	<path class="st13" d="M233.6,219.1c0,0-2.8,31.1-14.2,62.3s-62.2,73.1-62.2,73.1l9.7,25c0,0,36.4-27.5,53.6-68.1
		s17.8-91.4,17.8-91.4L233.6,219.1z"/>
	<path class="st16" d="M188,274.8c0,0-4.4,4.1-2.3,9.6s37.8,65.2,37.8,65.2l8.3-1.9c0,0-16.6-54.4-19.7-61.1s-5.6-10.8-7.7-12.3"/>
	<path class="st17" d="M223.6,349.6c0,0-10.6,7.3-15.2,9.1s-3.1,4.2,0,4.2s15-1.5,20-2.1s7.7-0.2,7.9-2.9s-4.4-10.8-4.4-10.8
		L223.6,349.6z"/>
	<path class="st4" d="M243.1,162.2c0,0,0-5.2,1.2-6.2s7-3.8,8.2-3.2s0.2,1.4-0.6,2s-4.6,3.1-4.6,3.1l0.6,5.7L243.1,162.2z"/>
	<g>
		<g>
			<defs>
				<path id="SVGID_17_" d="M243.1,162.2c0,0,0-5.2,1.2-6.2s7-3.8,8.2-3.2s0.2,1.4-0.6,2s-4.6,3.1-4.6,3.1l0.6,5.7L243.1,162.2z"/>
			</defs>
			<clipPath id="SVGID_18_">
				<use xlink:href="#SVGID_17_"  style="overflow:visible;"/>
			</clipPath>
			<g class="st24">
				<path class="st11" d="M243.1,162.2c0,0,0-5.2,1.2-6.2s7-3.8,8.2-3.2s0.2,1.4-0.6,2s-4.6,3.1-4.6,3.1l0.6,5.7L243.1,162.2z"/>
			</g>
		</g>
	</g>
	<path class="st13" d="M243.1,162.2c0,0,0-5.2,1.2-6.2s7-3.8,8.2-3.2s0.2,1.4-0.6,2s-4.6,3.1-4.6,3.1l0.6,5.7L243.1,162.2z"/>
	<path class="st4" d="M252.1,169.2c0,0,3,0,3.6-0.8s4.2-5,4.4-5.8s0-1.6-2.2-0.8c-1.3,0.5-2.3,1.5-2.8,2.8l-2.8,0.2L252.1,169.2z"/>
	<g>
		<g>
			<defs>
				<path id="SVGID_19_" d="M252.1,169.2c0,0,3,0,3.6-0.8s4.2-5,4.4-5.8s0-1.6-2.2-0.8c-1.3,0.5-2.3,1.5-2.8,2.8l-2.8,0.2
					L252.1,169.2z"/>
			</defs>
			<clipPath id="SVGID_20_">
				<use xlink:href="#SVGID_19_"  style="overflow:visible;"/>
			</clipPath>
			<g class="st25">
				<path class="st11" d="M252.1,169.2c0,0,3,0,3.6-0.8s4.2-5,4.4-5.8s0-1.6-2.2-0.8c-1.3,0.5-2.3,1.5-2.8,2.8l-2.8,0.2L252.1,169.2
					z"/>
			</g>
		</g>
	</g>
	<path class="st13" d="M252.1,169.2c0,0,3,0,3.6-0.8s4.2-5,4.4-5.8s0-1.6-2.2-0.8c-1.3,0.5-2.3,1.5-2.8,2.8l-2.8,0.2L252.1,169.2z"
		/>
	<path class="st4" d="M238.9,181.2c0,0,2.2-11.4,2.6-14.4s0-4.4,1.6-4.6c2.7,0,5.4,0.2,8,0.6c1.4,0.2,2.8,0.2,2.4,2.4s0.8,7-0.6,8.4
		c-1,0.9-2.3,1.4-3.6,1.4c0,0,0.8,2-1.6,3.2c-1,0.6-2.1,1-3.2,1.4l-1.2,3.2L238.9,181.2z"/>
	<g>
		<g>
			<defs>
				<path id="SVGID_21_" d="M238.9,181.2c0,0,2.2-11.4,2.6-14.4s0-4.4,1.6-4.6c2.7,0,5.4,0.2,8,0.6c1.4,0.2,2.8,0.2,2.4,2.4
					s0.8,7-0.6,8.4c-1,0.9-2.3,1.4-3.6,1.4c0,0,0.8,2-1.6,3.2c-1,0.6-2.1,1-3.2,1.4l-1.2,3.2L238.9,181.2z"/>
			</defs>
			<clipPath id="SVGID_22_">
				<use xlink:href="#SVGID_21_"  style="overflow:visible;"/>
			</clipPath>
			<g class="st26">
				<path class="st11" d="M238.9,181.2c0,0,2.2-11.4,2.6-14.4s0-4.4,1.6-4.6c2.7,0,5.4,0.2,8,0.6c1.4,0.2,2.8,0.2,2.4,2.4
					s0.8,7-0.6,8.4c-1,0.9-2.3,1.4-3.6,1.4c0,0,0.8,2-1.6,3.2c-1,0.6-2.1,1-3.2,1.4l-1.2,3.2L238.9,181.2z"/>
			</g>
		</g>
	</g>
	<path class="st13" d="M238.9,181.2c0,0,2.2-11.4,2.6-14.4s0-4.4,1.6-4.6c2.7,0,5.4,0.2,8,0.6c1.4,0.2,2.8,0.2,2.4,2.4
		s0.8,7-0.6,8.4c-1,0.9-2.3,1.4-3.6,1.4c0,0,0.8,2-1.6,3.2c-1,0.6-2.1,1-3.2,1.4l-1.2,3.2L238.9,181.2z"/>
	<polyline class="st13" points="249.3,175 248.9,171.2 246.3,170.8 	"/>
	<path class="st13" d="M246.6,167.1c0,0,5.3,0.3,6,0.7s0.8,4.5,0.8,4.5"/>
	<line class="st13" x1="246.4" y1="164.5" x2="253.5" y2="165.2"/>
	<path class="st16" d="M283.9,268.9c-12.9-1.3-18.9-4.5-20.9-7l-1.8,2.3l0.2,1.7c0,0-24.7-3.7-44.1-1.5s-31,8.1-31.8,15.2l10,4.6
		c14.8,8.7,47.6,10.6,59,11.4s33.2,0,41.6-1.2s12-4.8,12.9-11.6c0.7-5.7,0.8-14.4,0.8-17.3C306.8,267.5,298,270.3,283.9,268.9z"/>
	<line class="st27" x1="262.2" y1="266.9" x2="275.1" y2="278.3"/>
	<line class="st27" x1="264.3" y1="267.5" x2="273.6" y2="271"/>
	<path class="st17" d="M218.8,219.7c0,0-16,5.2-21,12L178.2,197c9.7-2.5,19.6-3.4,29.6-2.8c15.4,1.2,25.6,12,29.8,19L218.8,219.7z"
		/>
	<line class="st13" x1="193.4" y1="200.4" x2="203.2" y2="218.5"/>
	<line class="st13" x1="202.8" y1="198.8" x2="211.4" y2="215.2"/>
	<line class="st13" x1="212.2" y1="198.4" x2="219.6" y2="212.7"/>
	<path class="st17" d="M285.3,195.4c0,0-2.2,5.6-1.8,9s1.6,25.8,1.6,25.8s-18.2-1.2-25.4-3.8s-13.4-5.6-13.4-5.6l-1.6,6.4
		c0,0,12.8,11.4,23.6,15.8s31.6,8.6,34,7.6s4.6-23.2,4.4-31.8s0.2-17.8-3.8-24.2"/>
	<line class="st13" x1="250.8" y1="222.9" x2="249.1" y2="230.6"/>
	<path class="st17" d="M285.1,230.1c0,0,4.8,5.8,7.4,7.4"/>
	<path class="st4" d="M246.3,220.7c-2.4-1.5-4.5-3.3-6.4-5.4c-2.6-3-4.2-3-7.8-3.2s-7.4-3.4-8.4-3.2s-1.2,2-0.2,3s6,3.6,6,3.6
		l-10.8,4.2c0.5,0.6,1.2,1.1,2,1.4c1.4,0.6,2.8,0,3.4,0.6s4.2,1.8,6.4,2.6s9.4-0.4,9.4-0.4l4.8,3.2L246.3,220.7z"/>
	<g>
		<g>
			<defs>
				<path id="SVGID_23_" d="M246.3,220.7c-2.4-1.5-4.5-3.3-6.4-5.4c-2.6-3-4.2-3-7.8-3.2s-7.4-3.4-8.4-3.2s-1.2,2-0.2,3s6,3.6,6,3.6
					l-10.8,4.2c0.5,0.6,1.2,1.1,2,1.4c1.4,0.6,2.8,0,3.4,0.6s4.2,1.8,6.4,2.6s9.4-0.4,9.4-0.4l4.8,3.2L246.3,220.7z"/>
			</defs>
			<clipPath id="SVGID_24_">
				<use xlink:href="#SVGID_23_"  style="overflow:visible;"/>
			</clipPath>
			<g class="st28">
				<path class="st11" d="M246.3,220.7c-2.4-1.5-4.5-3.3-6.4-5.4c-2.6-3-4.2-3-7.8-3.2s-7.4-3.4-8.4-3.2s-1.2,2-0.2,3s6,3.6,6,3.6
					l-10.8,4.2c0.5,0.6,1.2,1.1,2,1.4c1.4,0.6,2.8,0,3.4,0.6s4.2,1.8,6.4,2.6s9.4-0.4,9.4-0.4l4.8,3.2L246.3,220.7z"/>
			</g>
		</g>
	</g>
	<path class="st13" d="M246.3,220.7c-2.4-1.5-4.5-3.3-6.4-5.4c-2.6-3-4.2-3-7.8-3.2s-7.4-3.4-8.4-3.2s-1.2,2-0.2,3s6,3.6,6,3.6
		l-10.8,4.2c0.5,0.6,1.2,1.1,2,1.4c1.4,0.6,2.8,0,3.4,0.6s4.2,1.8,6.4,2.6s9.4-0.4,9.4-0.4l4.8,3.2L246.3,220.7z"/>
</g>
<g id="freepik--Books--inject-483">
	<path class="st17" d="M236.4,298c3.6,8.3,3.6,17.8,0,26.1h92.2c0,0,11.4-2.8,11.4-13.1c0,0-2-9.2-11.1-12.8L236.4,298z"/>
	<path class="st7" d="M333,300.2c-4-2.2-7.7-2-12.3-2H312l-22.7-0.1l-44.1-0.1c-0.7,0-7.9,0.6-8.2,0c0.8,1.7,1.4,3.5,1.8,5.4h92.1
		v19.9c5.2-1.9,8.8-6.7,9.1-12.3c0.4-4.5-2.5-8.1-6.1-10.3C333.6,300.5,333.3,300.3,333,300.2z"/>
	<line class="st13" x1="330.9" y1="300.9" x2="330.9" y2="321.5"/>
	<line class="st13" x1="238.9" y1="304.4" x2="253" y2="304.4"/>
	<line class="st13" x1="243.3" y1="306.3" x2="259.2" y2="306.3"/>
	<line class="st13" x1="238.9" y1="315.8" x2="265.3" y2="315.8"/>
	<line class="st13" x1="330.6" y1="305.5" x2="318.6" y2="305.5"/>
	<line class="st13" x1="330" y1="308.8" x2="303.9" y2="308.8"/>
	<line class="st13" x1="301.1" y1="308.8" x2="292.2" y2="308.8"/>
	<line class="st13" x1="314.2" y1="314.4" x2="330.6" y2="314.4"/>
	<line class="st13" x1="238.3" y1="319.4" x2="248.9" y2="319.4"/>
	<path class="st5" d="M325.1,327.7h-92.7c-1.5,0.1-2.8-1.1-2.9-2.6c-0.1-1.5,1.1-2.8,2.6-2.9c0.1,0,0.2,0,0.3,0h92.7
		c6.4,0,11.5-4.8,11.5-10.7s-5.2-10.7-11.5-10.7h-91.8c-1.5,0-2.8-1.2-2.8-2.8c0-1.5,1.2-2.8,2.8-2.8h91.8c9.4,0,17.1,7.3,17.1,16.3
		S334.6,327.7,325.1,327.7z"/>
	<path class="st17" d="M335.6,330.2c-3.6,8.3-3.6,17.8,0,26.1h-92.2c0,0-11.4-2.8-11.4-13.1c0,0,1.9-9.2,11.1-12.8L335.6,330.2z"/>
	<path class="st7" d="M238.9,332.4c4-2.2,7.7-2,12.3-2h8.7l22.7-0.1l44.2-0.1c0.7,0,7.9,0.6,8.2,0c-0.8,1.7-1.4,3.5-1.8,5.4h-92.1
		v19.9c-5.2-1.9-8.8-6.7-9.2-12.2c-0.4-4.5,2.5-8.1,6.1-10.4C238.3,332.7,238.6,332.6,238.9,332.4z"/>
	<line class="st13" x1="240.8" y1="334.6" x2="240.8" y2="352.6"/>
	<line class="st13" x1="333.1" y1="336.6" x2="318.9" y2="336.6"/>
	<line class="st13" x1="328.6" y1="338.5" x2="312.8" y2="338.5"/>
	<line class="st13" x1="333.1" y1="348" x2="306.7" y2="348"/>
	<line class="st13" x1="241.4" y1="337.7" x2="253.3" y2="337.7"/>
	<line class="st13" x1="241.9" y1="341" x2="268" y2="341"/>
	<line class="st13" x1="270.8" y1="341" x2="279.7" y2="341"/>
	<line class="st13" x1="257.8" y1="346.6" x2="241.4" y2="346.6"/>
	<line class="st13" x1="333.6" y1="351.6" x2="323.1" y2="351.6"/>
	<path class="st29" d="M246.8,359.9h92.7c1.5,0,2.8-1.2,2.8-2.8c0-1.5-1.2-2.8-2.8-2.8l0,0h-92.7c-6.4,0-11.5-4.8-11.5-10.7
		s5.2-10.7,11.5-10.7h91.8c1.5,0.1,2.8-1.1,2.9-2.6s-1.1-2.8-2.6-2.9c-0.1,0-0.2,0-0.3,0h-91.8c-9.4,0-17.1,7.3-17.1,16.2
		S237.4,359.9,246.8,359.9z"/>
	<path class="st17" d="M236.4,362.6c3.6,8.3,3.6,17.8,0,26.1h92.2c0,0,11.4-2.8,11.4-13.1c0,0-2-9.2-11.1-12.8L236.4,362.6z"/>
	<path class="st7" d="M333,364.8c-4-2.2-7.7-2-12.3-2H312l-22.7-0.1l-44.2-0.1c-0.7,0-7.9,0.6-8.2,0c0.8,1.7,1.4,3.5,1.8,5.4h92.1
		v19.9c5.2-1.9,8.8-6.7,9.2-12.2c0.4-4.5-2.5-8.1-6.1-10.4C333.6,365.1,333.3,365,333,364.8z"/>
	<line class="st13" x1="330.9" y1="365.5" x2="330.9" y2="386.1"/>
	<line class="st13" x1="238.9" y1="369" x2="253" y2="369"/>
	<line class="st13" x1="243.3" y1="370.9" x2="259.2" y2="370.9"/>
	<line class="st13" x1="238.9" y1="380.4" x2="265.3" y2="380.4"/>
	<line class="st13" x1="330.6" y1="370.1" x2="318.6" y2="370.1"/>
	<line class="st13" x1="330" y1="373.4" x2="303.9" y2="373.4"/>
	<line class="st13" x1="301.1" y1="373.4" x2="292.2" y2="373.4"/>
	<line class="st13" x1="314.2" y1="379" x2="330.6" y2="379"/>
	<line class="st13" x1="238.3" y1="384" x2="248.9" y2="384"/>
	<path class="st5" d="M325.1,392.3h-92.7c-1.5,0-2.8-1.2-2.8-2.8c0-1.5,1.2-2.8,2.8-2.8l0,0h92.7c6.4,0,11.5-4.8,11.5-10.7
		s-5.2-10.7-11.5-10.7h-91.8c-1.5,0-2.8-1.2-2.8-2.8c0-1.5,1.2-2.8,2.8-2.8h91.8c9.4,0,17.1,7.3,17.1,16.2S334.6,392.3,325.1,392.3z
		"/>
	<path class="st17" d="M335.6,394.8c-3.6,8.3-3.6,17.8,0,26.1h-92.2c0,0-11.4-2.8-11.4-13.1c0,0,1.9-9.2,11.1-12.8L335.6,394.8z"/>
	<path class="st7" d="M238.9,397c4-2.2,7.7-2,12.3-2h8.7l22.7-0.1l44.2-0.1c0.7,0,7.9,0.6,8.2,0c-0.8,1.7-1.4,3.5-1.8,5.4h-92.1v20
		c-5.2-1.9-8.8-6.7-9.2-12.2c-0.4-4.5,2.5-8.1,6.1-10.4C238.3,397.3,238.6,397.2,238.9,397z"/>
	<line class="st13" x1="240.8" y1="399.2" x2="240.8" y2="417.3"/>
	<line class="st13" x1="333.1" y1="401.2" x2="318.9" y2="401.2"/>
	<line class="st13" x1="328.6" y1="403.2" x2="312.8" y2="403.2"/>
	<line class="st13" x1="333.1" y1="412.6" x2="306.7" y2="412.6"/>
	<line class="st13" x1="241.4" y1="402.3" x2="253.3" y2="402.3"/>
	<line class="st13" x1="241.9" y1="405.7" x2="268" y2="405.7"/>
	<line class="st13" x1="270.8" y1="405.7" x2="279.7" y2="405.7"/>
	<line class="st13" x1="257.8" y1="411.2" x2="241.4" y2="411.2"/>
	<line class="st13" x1="333.6" y1="416.2" x2="323.1" y2="416.2"/>
	<path class="st29" d="M246.8,424.5h92.7c1.5,0,2.8-1.2,2.8-2.8c0-1.5-1.2-2.8-2.8-2.8l0,0h-92.7c-6.4,0-11.5-4.8-11.5-10.7
		s5.2-10.7,11.5-10.7h91.8c1.5,0,2.8-1.2,2.8-2.8c0-1.5-1.2-2.8-2.8-2.8h-91.8c-9.4,0-17.1,7.3-17.1,16.3S237.4,424.5,246.8,424.5z"
		/>
</g>
<g id="freepik--Plants--inject-483">
	<path class="st2" d="M380.3,281.9c2.2,1,7.6,0.9,7.7,0.9s-1.2-3.6-1.3-3.8c-1.2-2.5-5-6.6-8-6.2c-2,0.3-3.3,2.2-3,4.2
		c0,0.1,0,0.3,0.1,0.4C376.2,279.5,378.4,281.1,380.3,281.9z"/>
	<path class="st2" d="M451.5,263.4c-3.1-0.3-6.7,3.9-7.9,6.4c-0.1,0.2-1.2,3.8-1.2,3.8h0.1c-0.6,0.7-1.2,1.4-1.9,2.2
		c-1.2,1.5-2.5,3.2-3.9,5.1c-1.5,2.1-2.8,4.2-4,6.4c-1.4,2.5-2.5,5.1-3.5,7.8v0.1c0-0.9,0-3.5,0-3.6c-0.4-2.7-2.7-7.8-5.7-8.4
		c-2-0.3-3.9,1-4.2,3c0,0.1,0,0.3,0,0.4c-0.2,2.2,1.4,4.4,2.9,5.7c1.7,1.6,6.5,3.1,6.9,3.2c-0.9,2.8-1.5,5.6-2,8.4
		c-0.3,1.7-0.5,3.3-0.8,5c0-0.8,0-1.5,0-1.6c-0.4-2.7-2.6-7.8-5.7-8.4c-2-0.3-3.9,1-4.2,3c0,0.1,0,0.3,0,0.4
		c-0.2,2.2,1.4,4.4,2.9,5.7s5.6,2.8,6.7,3.1l-0.2,1.9c-0.4,3.1-0.7,6.2-1.2,9.2c-0.2,1.1-0.4,2.1-0.5,3.2c0-0.7,0-1.3,0-1.4
		c-0.4-2.7-2.6-7.8-5.7-8.4c-2-0.3-3.9,1-4.2,3c0,0.1,0,0.3,0,0.4c-0.2,2.2,1.4,4.4,2.9,5.7s5.2,2.6,6.5,3c-0.2,1.1-0.5,2.1-0.7,3.2
		c-0.2,0.7-0.3,1.4-0.6,2.1s-0.4,1.4-0.6,2c-0.5,1.3-0.9,2.6-1.4,3.8c-0.3,0.9-0.7,1.7-1,2.5c0.2-1.1,0.5-3.1,0.5-3.3
		c0-2.4-0.7-4.8-1.9-6.9c0-0.3,0-0.5,0-0.8c-0.3-2-2.1-3.4-4.1-3.2c-0.1,0-0.3,0-0.4,0.1c-3,0.8-4.9,6-5,8.8c0,0.2,0.1,1.9,0.2,3.1
		c-0.1-0.6-0.3-1.3-0.5-2c-0.3-1.3-0.7-2.6-1-4l-0.6-2c-0.2-0.7-0.5-1.4-0.7-2.1c-0.6-1.6-1.3-3.2-2-4.8c1.2-0.3,5.3-1.3,6.9-2.6
		s3.4-3.3,3.4-5.5c0.1-2-1.5-3.7-3.6-3.8c-0.1,0-0.3,0-0.4,0c-3.1,0.3-5.7,5.2-6.3,8c0,0.2-0.2,2.1-0.3,3.2c-0.4-1-0.9-1.9-1.4-2.9
		c-1.4-2.8-2.9-5.5-4.3-8.3l-1.6-2.5c0.4-0.1,5.3-1.2,7.1-2.6c1.6-1.2,3.4-3.3,3.4-5.5c0.1-2-1.5-3.7-3.6-3.8c-0.1,0-0.3,0-0.4,0
		c-3.1,0.3-5.7,5.2-6.3,7.9c0,0.2-0.3,3.1-0.3,3.8c-1-1.9-1.9-3.7-2.8-5.6c-1.2-2.5-2.2-5.1-3-7.8c0.2,0,5.3-1.2,7.2-2.7
		c1.6-1.2,3.4-3.3,3.4-5.5c0.1-2-1.5-3.7-3.5-3.8c-0.1,0-0.3,0-0.4,0c-3.1,0.3-5.8,5.2-6.3,7.9c0,0.2-0.3,3.3-0.3,3.9l-0.2-0.5
		c-0.8-2.7-1.3-5.5-1.6-8.2c-0.2-1.5-0.2-3-0.3-4.5c1-0.1,5.4-0.7,7.3-1.8s3.7-2.9,3.9-5.1c0.3-2-1.1-3.9-3.1-4.1
		c-0.1,0-0.3,0-0.4,0c-3.1,0-6.3,4.6-7.1,7.2c0,0.1-0.4,1.6-0.6,2.8c0-0.6,0-1.3,0-2c0-2.3,0.1-4.5,0.3-6.4c0.1-1.1,0.2-2,0.3-3
		c0.9-0.6,4.5-3.1,5.6-5s2-4.3,1.1-6.3c-0.7-1.9-2.8-2.9-4.7-2.2c-0.1,0-0.2,0.1-0.3,0.1c-2.8,1.4-3.5,7-3,9.7
		c0,0.2,1.1,3.9,1.1,3.8l0,0c-0.1,0.9-0.2,1.8-0.4,2.8c-0.2,1.9-0.4,4-0.4,6.4c-0.1,2.5,0,5.1,0.2,7.6c0.2,2.8,0.7,5.6,1.4,8.4v0.1
		c-0.5-0.8-1.9-2.9-2-3c-1.8-2.1-6.5-5.1-9.4-3.9c-1.8,0.8-2.6,3-1.8,4.9c0.1,0.1,0.1,0.2,0.2,0.3c1,1.9,3.6,2.9,5.6,3.2
		c2.3,0.3,7.2-1.1,7.5-1.2c0.8,2.8,1.8,5.5,2.9,8.1c0.7,1.5,1.4,3.1,2.1,4.6c-0.4-0.6-0.8-1.2-0.9-1.3c-1.8-2.1-6.5-5.1-9.4-3.9
		c-1.8,0.8-2.6,3-1.8,4.9c0.1,0.1,0.1,0.2,0.2,0.3c1,1.9,3.6,2.9,5.6,3.2s6.2-0.8,7.3-1.1l0.9,1.8c1.4,2.8,2.8,5.6,4.1,8.4
		c0.5,1,0.9,2,1.3,2.9c-0.4-0.6-0.7-1.1-0.8-1.1c-1.8-2.1-6.5-5.1-9.4-3.9c-1.8,0.8-2.6,3-1.8,4.9c0.1,0.1,0.1,0.2,0.2,0.3
		c1,1.9,3.6,2.9,5.6,3.2s5.8-0.7,7.1-1.1c0.4,1,0.8,2,1.1,3c0.2,0.7,0.5,1.3,0.7,2s0.4,1.4,0.6,2.1c0.3,1.3,0.7,2.7,0.9,4
		c0.2,0.9,0.4,1.8,0.5,2.6c-0.4-1-1.4-2.9-1.5-3c-1.5-2.3-5.7-6-8.7-5.2c-1.9,0.6-3.1,2.6-2.5,4.5c0,0.1,0.1,0.3,0.1,0.4
		c0.8,2,3.1,3.4,5.1,4c2.2,0.7,7,0.1,7.6,0c0.3,1.4,0.5,2.8,0.8,4.2c0.8,4.6,1.3,8.5,1.6,11.1c0,0.5,0.1,0.9,0.1,1.3h-9.3l3.4,66.4
		h15.9l3.4-66.4h-8.7c0.1-0.1,0.1-0.3,0.2-0.4c1.2-2.5,2.8-6,4.6-10.4c0.6-1.4,1.1-2.9,1.7-4.4c0.6,0.1,5.4,1.1,7.6,0.6
		c2-0.5,4.5-1.6,5.4-3.6c0.9-1.8,0.2-4-1.6-4.9c-0.1-0.1-0.2-0.1-0.4-0.2c-2.9-1-7.4,2.4-9.1,4.6c-0.1,0.1-1,1.7-1.5,2.6
		c0.2-0.6,0.5-1.2,0.7-1.9c0.5-1.3,0.9-2.6,1.4-4c0.2-0.7,0.4-1.4,0.6-2s0.4-1.4,0.5-2.1c0.4-1.7,0.7-3.4,1-5.1
		c1.1,0.4,5.1,1.8,7.2,1.6s4.6-0.9,5.8-2.7c1.2-1.7,0.8-3.9-0.9-5.1c-0.1-0.1-0.2-0.1-0.3-0.2c-2.8-1.4-7.7,1.2-9.6,3.1
		c-0.1,0.1-1.4,1.7-2,2.5c0.2-1,0.3-2.1,0.5-3.1c0.4-3.1,0.7-6.2,1-9.3c0.1-1,0.2-1.9,0.3-2.9c0.4,0.1,5.1,1.9,7.4,1.7
		c2.1-0.1,4.6-0.9,5.8-2.7c1.2-1.7,0.8-3.9-0.9-5.1c-0.1-0.1-0.2-0.1-0.3-0.2c-2.8-1.4-7.7,1.2-9.6,3.1c-0.1,0.1-1.9,2.4-2.4,3
		c0.2-2.1,0.5-4.2,0.8-6.2c0.4-2.8,1-5.5,1.8-8.2c0.2,0.1,5.1,1.9,7.5,1.8c2.1-0.1,4.6-0.9,5.8-2.7c1.2-1.7,0.8-3.9-0.9-5.1
		c-0.1-0.1-0.2-0.1-0.3-0.2c-2.8-1.4-7.7,1.2-9.6,3.1c-0.2,0.2-2.1,2.6-2.4,3c0-0.1,0.1-0.3,0.1-0.5c0.8-2.7,1.9-5.3,3.2-7.7
		c0.7-1.4,1.5-2.6,2.2-3.9c0.9,0.4,4.9,2.4,7.1,2.5s4.7-0.4,6.1-2.1c1.3-1.5,1.2-3.8-0.3-5.2c-0.1-0.1-0.2-0.2-0.3-0.2
		c-2.6-1.7-7.8,0.3-9.9,2.1c-0.1,0.1-1.2,1.2-2,2c0.4-0.5,0.7-1.1,1-1.6c1.3-2,2.6-3.7,3.8-5.2c0.7-0.9,1.3-1.6,1.9-2.3
		c1.1,0,5.5-0.1,7.4-1s4-2.5,4.5-4.6c0.5-2-0.7-3.9-2.6-4.4C451.8,263.5,451.7,263.4,451.5,263.4z M417.4,346.1
		c-1.9,4.3-3.6,7.8-4.8,10.2c-0.2,0.5-0.5,0.9-0.7,1.3h-0.2c-0.1-0.5-0.1-1-0.2-1.6c-0.4-2.7-1-6.6-1.9-11.2c-0.3-1.5-0.6-3-1-4.6
		c1.4-0.6,2.9-1.3,4.2-2c1.6,1.7,5.6,3.7,6.2,4C418.5,343.6,418,344.9,417.4,346.1z"/>
	<path class="st2" d="M435.3,283.1c0,0,1-3.6,1-3.8c0.4-2.7-0.5-8.2-3.3-9.6c-1.8-0.8-4,0-4.9,1.8c-0.1,0.1-0.1,0.2-0.1,0.4
		c-0.8,2,0.2,4.6,1.3,6.3C430.7,280.2,435.3,283.1,435.3,283.1z"/>
</g>
<g id="freepik--Ground--inject-483">
	<line class="st30" x1="56" y1="424.5" x2="451" y2="424.5"/>
</g>
</svg>
