<svg width="1200" height="700" viewBox="0 0 1200 700" fill="none" xmlns="http://www.w3.org/2000/svg">
<path d="M803.293 356.42C828.619 356.42 849.15 335.873 849.15 310.526C849.15 285.18 828.619 264.633 803.293 264.633C777.967 264.633 757.436 285.18 757.436 310.526C757.436 335.873 777.967 356.42 803.293 356.42Z" fill="white"/>
<path d="M803.293 358.139C793.883 358.139 784.685 355.347 776.861 350.115C769.037 344.883 762.938 337.446 759.337 328.746C755.736 320.046 754.794 310.472 756.63 301.236C758.466 291.999 762.997 283.515 769.651 276.856C776.305 270.197 784.782 265.662 794.011 263.825C803.24 261.988 812.806 262.931 821.5 266.535C830.193 270.138 837.624 276.241 842.852 284.071C848.08 291.902 850.87 301.107 850.87 310.525C850.856 323.148 845.839 335.251 836.919 344.178C828 353.104 815.907 358.125 803.293 358.139V358.139ZM803.293 266.352C794.563 266.352 786.03 268.943 778.771 273.797C771.513 278.65 765.856 285.549 762.515 293.621C759.174 301.692 758.3 310.574 760.003 319.142C761.706 327.711 765.91 335.582 772.083 341.759C778.256 347.937 786.12 352.144 794.682 353.848C803.244 355.553 812.119 354.678 820.184 351.335C828.249 347.991 835.142 342.33 839.992 335.066C844.842 327.801 847.431 319.261 847.431 310.525C847.418 298.813 842.763 287.586 834.488 279.305C826.214 271.024 814.995 266.365 803.293 266.352V266.352Z" fill="#000091"/>
<path d="M725.26 522.373C725.26 522.373 687.146 512.833 670.185 488.016C669.881 488.118 669.563 488.172 669.243 488.175C663.372 488.275 657.5 488.257 651.627 488.216C651.611 488.802 651.409 489.369 651.05 489.833C650.691 490.297 650.194 490.634 649.631 490.797C648.394 491.136 647.166 491.525 645.939 491.927C644.614 492.63 643.295 493.485 641.933 493.818C639.546 494.401 637.338 494.265 635.434 496.045C632.002 499.253 629.677 502.536 624.705 503.405C614.31 505.221 605.933 497.069 599.479 490.06C599.199 489.763 598.983 489.411 598.845 489.027C592.161 489.265 585.475 489.469 578.786 489.508L578.745 556.277H612.049L611.839 514.178L659.454 556.277H749.335C749.973 548.69 747.905 541.122 743.497 534.915C739.09 528.709 732.629 524.266 725.26 522.373Z" fill="white"/>
<path d="M749.335 557.998H659.454C659.035 557.998 658.63 557.844 658.316 557.566L613.578 518.011L613.769 556.269C613.77 556.495 613.726 556.72 613.64 556.93C613.554 557.139 613.428 557.33 613.268 557.491C613.108 557.651 612.918 557.779 612.709 557.866C612.5 557.953 612.276 557.998 612.049 557.998H578.745C578.289 557.998 577.852 557.816 577.529 557.494C577.207 557.171 577.025 556.733 577.025 556.277L577.067 489.502C577.067 489.047 577.246 488.611 577.567 488.288C577.887 487.966 578.322 487.783 578.776 487.781C585.662 487.739 592.462 487.525 598.781 487.3C599.147 487.287 599.508 487.391 599.811 487.598C600.114 487.804 600.343 488.102 600.465 488.448C600.527 488.612 600.621 488.761 600.742 488.888C607.248 495.952 614.981 503.353 624.407 501.704C627.904 501.093 629.871 499.122 632.362 496.634C632.965 496.031 633.588 495.408 634.258 494.782C636.046 493.11 638.054 492.77 639.825 492.469C640.411 492.371 640.964 492.276 641.523 492.14C642.47 491.841 643.375 491.425 644.217 490.901C644.522 490.729 644.828 490.562 645.135 490.4C645.221 490.354 645.311 490.316 645.403 490.285C646.435 489.946 647.797 489.508 649.177 489.13C649.395 489.057 649.584 488.915 649.716 488.726C649.849 488.538 649.917 488.312 649.913 488.082C649.945 487.649 650.14 487.244 650.458 486.949C650.776 486.654 651.194 486.49 651.627 486.49H651.639C657.211 486.529 663.195 486.551 669.214 486.448C669.354 486.448 669.493 486.426 669.626 486.383C669.982 486.26 670.369 486.258 670.726 486.376C671.083 486.495 671.392 486.728 671.605 487.039C687.992 511.018 725.303 520.604 725.677 520.698L725.691 520.702C733.433 522.727 740.216 527.413 744.852 533.94C749.489 540.468 751.682 548.419 751.049 556.402C751.018 556.836 750.823 557.241 750.505 557.537C750.187 557.833 749.769 557.997 749.335 557.998ZM660.105 554.556H747.701C747.894 547.632 745.739 540.848 741.588 535.307C737.436 529.766 731.531 525.795 724.837 524.042C723.189 523.628 686.778 514.255 669.397 489.891L669.274 489.895C663.699 489.99 658.165 489.979 652.96 489.946C652.705 490.556 652.313 491.1 651.814 491.535C651.315 491.97 650.724 492.285 650.084 492.455C648.839 492.8 647.591 493.195 646.617 493.514C646.374 493.645 646.133 493.779 645.89 493.916C644.783 494.597 643.589 495.127 642.341 495.49C641.662 495.655 641.023 495.764 640.401 495.869C638.859 496.131 637.641 496.337 636.607 497.303C635.977 497.891 635.377 498.493 634.795 499.076C632.106 501.764 629.568 504.303 625 505.099C623.946 505.284 622.878 505.377 621.807 505.378C611.246 505.378 602.896 496.309 598.214 491.225C598.084 491.084 597.962 490.936 597.849 490.781C592.329 490.974 586.466 491.153 580.505 491.212L580.465 554.556H610.32L610.118 514.186C610.116 513.854 610.211 513.529 610.39 513.249C610.569 512.969 610.825 512.748 611.127 512.611C611.429 512.473 611.764 512.426 612.092 512.476C612.42 512.525 612.727 512.668 612.976 512.888L660.105 554.556Z" fill="#000091"/>
<path d="M674.319 315.117L674.357 488.529L653.234 488.616L598.69 488.763L568.367 488.873L567.698 332.901" fill="white"/>
<path d="M568.37 490.593C567.915 490.593 567.479 490.413 567.156 490.092C566.834 489.771 566.652 489.335 566.65 488.88L565.981 332.907C565.98 332.681 566.024 332.457 566.109 332.248C566.195 332.039 566.32 331.849 566.479 331.688C566.638 331.528 566.827 331.4 567.036 331.313C567.244 331.225 567.467 331.18 567.693 331.179H567.701C568.156 331.179 568.592 331.359 568.914 331.68C569.237 332.002 569.418 332.438 569.42 332.893L570.082 487.145L598.685 487.041L653.231 486.894L672.639 486.815L672.601 315.116C672.601 314.659 672.782 314.221 673.104 313.899C673.427 313.576 673.864 313.395 674.32 313.395C674.776 313.395 675.214 313.576 675.536 313.899C675.859 314.221 676.04 314.659 676.04 315.116L676.077 488.528C676.077 488.983 675.897 489.42 675.576 489.743C675.255 490.065 674.819 490.247 674.364 490.249L653.241 490.335L598.695 490.483L568.376 490.593L568.37 490.593Z" fill="#000091"/>
<path d="M407.754 522.373H406.321C403.816 522.433 401.324 521.997 398.988 521.091C396.652 520.185 394.518 518.825 392.708 517.092C390.898 515.358 389.448 513.283 388.441 510.987C387.435 508.691 386.891 506.218 386.842 503.711C386.211 503.57 305.974 446.169 305.789 446.012L254.59 521.914L282.219 540.558L307.459 501.557L341.948 556.277H431.829C432.467 548.689 430.399 541.121 425.991 534.915C421.584 528.709 415.123 524.265 407.754 522.373V522.373Z" fill="white"/>
<path d="M431.829 557.999H341.948C341.658 557.999 341.372 557.925 341.118 557.785C340.864 557.644 340.649 557.442 340.494 557.196L307.441 504.754L283.662 541.495C283.538 541.687 283.377 541.852 283.188 541.981C282.999 542.11 282.787 542.2 282.563 542.245C282.339 542.291 282.108 542.292 281.884 542.247C281.66 542.203 281.447 542.114 281.258 541.986L253.629 523.342C253.441 523.215 253.281 523.053 253.156 522.865C253.031 522.676 252.945 522.465 252.902 522.243C252.859 522.021 252.86 521.793 252.905 521.571C252.95 521.35 253.038 521.139 253.164 520.952L304.363 445.052C304.493 444.858 304.662 444.693 304.859 444.566C305.056 444.44 305.276 444.355 305.507 444.316C305.738 444.278 305.974 444.287 306.201 444.343C306.428 444.399 306.641 444.501 306.827 444.643C307.805 445.357 384.463 500.213 387.63 502.181C387.907 502.324 388.14 502.539 388.305 502.803C388.469 503.068 388.558 503.372 388.564 503.683C388.67 508.303 390.603 512.691 393.939 515.886C395.576 517.462 397.51 518.695 399.629 519.514C401.749 520.332 404.01 520.719 406.28 520.652H407.754C407.9 520.653 408.045 520.672 408.185 520.709C415.927 522.734 422.71 527.421 427.347 533.948C431.983 540.475 434.177 548.427 433.544 556.41C433.511 556.842 433.316 557.246 432.998 557.541C432.68 557.835 432.262 557.999 431.829 557.999V557.999ZM342.897 554.557H430.195C430.387 547.669 428.256 540.918 424.144 535.391C420.032 529.864 414.18 525.885 407.531 524.095H406.321C403.603 524.172 400.897 523.706 398.362 522.723C395.827 521.74 393.513 520.261 391.556 518.373C387.786 514.754 385.504 509.856 385.158 504.64C382.546 502.901 374.158 496.973 345.147 476.272C332.843 467.495 312.032 452.618 306.221 448.445L256.978 521.45L281.728 538.152L306.016 500.623C306.173 500.38 306.389 500.181 306.643 500.044C306.897 499.907 307.181 499.836 307.47 499.837C307.758 499.839 308.042 499.914 308.294 500.054C308.547 500.194 308.76 500.396 308.914 500.64L342.897 554.557Z" fill="#000091"/>
<path d="M626.494 209.325L581.038 176.052C555.484 157.349 524.649 147.264 492.991 147.254H439.224C424.463 147.259 410.309 153.129 399.872 163.575C389.435 174.02 383.569 188.185 383.564 202.957C383.564 202.974 383.564 202.99 383.564 203.007L383.507 203.014L379.838 335.073L302.282 443.496L390.844 506.944L477.858 385.269" fill="white"/>
<path d="M390.844 508.664C390.485 508.664 390.135 508.551 389.843 508.342L301.281 444.895C301.097 444.763 300.941 444.597 300.822 444.405C300.702 444.213 300.622 443.999 300.585 443.776C300.548 443.553 300.556 443.325 300.607 443.105C300.658 442.885 300.752 442.677 300.883 442.493L378.134 334.499L381.787 202.965C381.79 202.83 381.809 202.695 381.844 202.564C381.967 187.408 388.064 172.914 398.809 162.233C409.555 151.553 424.079 145.551 439.223 145.532H492.991C525.025 145.473 556.236 155.681 582.052 174.662L627.508 207.935C627.691 208.068 627.845 208.236 627.962 208.429C628.08 208.622 628.158 208.837 628.192 209.06C628.227 209.283 628.217 209.511 628.164 209.731C628.111 209.95 628.014 210.157 627.881 210.34C627.748 210.522 627.58 210.676 627.387 210.794C627.194 210.911 626.98 210.99 626.757 211.024C626.534 211.059 626.306 211.049 626.086 210.996C625.867 210.942 625.66 210.846 625.478 210.713L580.022 177.44C554.794 158.892 524.295 148.916 492.991 148.974H439.223C424.923 148.99 411.212 154.682 401.1 164.802C390.988 174.922 385.3 188.644 385.284 202.956C385.283 203.12 385.26 203.284 385.215 203.442L381.558 335.12C381.548 335.463 381.436 335.795 381.237 336.074L304.681 443.097L390.447 504.542L476.46 384.266C476.725 383.895 477.127 383.644 477.577 383.57C478.027 383.495 478.488 383.602 478.859 383.868C479.23 384.134 479.481 384.536 479.555 384.987C479.63 385.437 479.522 385.899 479.257 386.27L392.242 507.945C392.083 508.167 391.873 508.349 391.63 508.474C391.387 508.599 391.117 508.664 390.844 508.664V508.664Z" fill="#000091"/>
<path d="M667.243 289.385C672.183 290.438 676.964 292.092 681.912 293.114C685.654 293.886 689.457 295.974 693.308 296.162C693.576 296.147 693.844 296.151 694.111 296.174C694.221 296.184 694.317 296.212 694.421 296.231C694.813 295.047 695.264 293.883 695.774 292.744C696.992 290.221 698.785 288.02 701.009 286.319C705.025 283.114 710.267 279.645 715.626 280.211C718.16 280.478 720.635 281.289 723.127 281.806C725.09 282.117 726.966 282.84 728.63 283.928L694.822 167.502C692.641 160.928 688.908 154.977 683.94 150.154C678.973 145.331 672.916 141.778 666.284 139.797C659.651 137.815 652.64 137.463 645.843 138.771C639.046 140.079 632.664 143.008 627.239 147.309L561.548 210.585L607.75 272.656L632.513 252.979L640.523 283.913C649.579 284.861 658.353 287.491 667.243 289.385Z" fill="#F9CFD2"/>
<path d="M608.774 319.85C605.778 311.77 608.336 301.427 613.913 295.087C617.195 291.359 622.185 288.649 626.635 286.586C631.281 284.431 636.231 282.836 641.398 282.844C646.868 282.852 652.34 284.398 657.585 285.801C663.413 287.361 669.194 288.998 675.068 290.386C680.551 291.682 685.799 293.47 691.195 295.022C692.229 295.341 693.286 295.578 694.356 295.731C694.426 295.53 694.513 295.336 694.617 295.152C694.836 294.761 695.096 294.395 695.394 294.062C699.319 288.538 703.343 282.887 710.202 280.877C715.204 279.412 719.696 280.631 723.841 282.913C722.842 281.953 721.784 281.058 720.672 280.232L588.948 183.047C582.703 179.711 575.735 177.958 568.656 177.941H465.706C434.351 177.941 413.486 210.354 426.441 238.922L456.305 304.722C461.029 315.071 468.624 323.843 478.187 329.996C487.749 336.149 498.877 339.423 510.245 339.429H640.838C638.454 338.609 616.13 339.687 608.774 319.85Z" fill="#F9CFD2"/>
<path d="M702.053 286.24C701.698 286.24 701.352 286.13 701.062 285.926C700.772 285.721 700.553 285.432 700.433 285.098C694.85 269.458 685.128 256.427 671.532 246.37L585.623 181.541C585.443 181.404 585.291 181.234 585.177 181.039C585.062 180.845 584.987 180.629 584.956 180.405C584.924 180.182 584.937 179.954 584.994 179.735C585.05 179.516 585.15 179.311 585.285 179.13C585.421 178.95 585.592 178.798 585.786 178.683C585.981 178.569 586.196 178.493 586.42 178.462C586.643 178.431 586.871 178.444 587.09 178.5C587.308 178.557 587.514 178.656 587.694 178.792L673.589 243.611C687.405 253.757 697.88 267.8 703.672 283.94C703.765 284.2 703.794 284.478 703.757 284.752C703.719 285.025 703.617 285.285 703.458 285.511C703.3 285.736 703.089 285.92 702.844 286.048C702.6 286.175 702.328 286.241 702.053 286.241V286.24Z" fill="#000091"/>
<path d="M694.293 295.609L643.002 283.615C636.181 282.008 627.509 283.076 622.137 287.573C604.93 301.979 603.565 317.748 613.596 328.418C616.707 331.69 620.651 334.05 625.003 335.245L660.418 344.675C662.067 354.023 666.953 362.491 674.219 368.592C681.485 374.694 690.667 378.039 700.152 378.04C700.745 378.04 701.336 378.028 701.923 378.003L764.314 356.995C765.315 356.383 766.25 355.669 767.104 354.864C773.957 348.824 778.56 340.636 780.16 331.639C781.76 322.641 780.263 313.367 775.913 305.331C771.563 297.296 764.618 290.975 756.213 287.402C747.808 283.829 738.44 283.216 729.642 285.663" fill="white"/>
<path d="M700.152 379.76C690.447 379.778 681.036 376.429 673.52 370.284C666.004 364.14 660.848 355.578 658.929 346.058L624.561 336.907C619.901 335.63 615.679 333.103 612.348 329.6C607.565 324.513 605.245 318.382 605.634 311.865C606.156 303.106 611.481 294.249 621.034 286.251C627.203 281.088 636.71 280.363 643.396 281.938L694.684 293.932C695.124 294.04 695.503 294.317 695.739 294.704C695.976 295.09 696.05 295.554 695.947 295.995C695.844 296.436 695.572 296.818 695.189 297.059C694.806 297.301 694.343 297.381 693.901 297.283L642.611 285.289C636.756 283.912 628.498 284.49 623.241 288.891C614.433 296.266 609.531 304.281 609.067 312.068C608.736 317.615 610.735 322.86 614.849 327.235C617.743 330.279 621.413 332.474 625.462 333.585L660.86 343.01C661.178 343.094 661.464 343.268 661.686 343.51C661.908 343.752 662.056 344.052 662.112 344.376C663.674 353.333 668.348 361.45 675.308 367.294C682.268 373.139 691.067 376.335 700.152 376.318C700.64 376.318 701.125 376.309 701.609 376.291L763.55 355.435L763.615 355.391C764.459 354.865 765.247 354.255 765.969 353.57C772.529 347.788 776.936 339.948 778.467 331.334C779.999 322.72 778.565 313.841 774.401 306.148C770.236 298.456 763.587 292.404 755.54 288.984C747.493 285.564 738.525 284.976 730.102 287.318C729.664 287.435 729.198 287.374 728.805 287.149C728.412 286.924 728.123 286.553 728.002 286.116C727.881 285.679 727.937 285.212 728.158 284.816C728.379 284.421 728.747 284.128 729.182 284.002C738.362 281.423 748.145 282.044 756.926 285.763C765.706 289.482 772.963 296.078 777.505 304.468C782.046 312.859 783.603 322.545 781.919 331.937C780.235 341.329 775.411 349.87 768.238 356.156C767.403 356.944 766.492 357.648 765.52 358.258L765.266 358.426C765.141 358.51 765.005 358.577 764.862 358.625L702.472 379.632C702.319 379.684 702.159 379.714 701.997 379.72C701.384 379.747 700.763 379.76 700.152 379.76Z" fill="#000091"/>
<path d="M711.101 324.512V332.027L752.372 329.904C755.414 329.747 758.404 330.738 760.751 332.683C763.097 334.627 764.628 337.382 765.04 340.402L767.047 354.859" fill="white"/>
<path d="M767.047 356.582C766.632 356.582 766.231 356.431 765.919 356.158C765.606 355.886 765.403 355.509 765.345 355.098L763.339 340.642C762.976 338.053 761.66 335.694 759.649 334.026C757.638 332.358 755.077 331.502 752.468 331.625L711.191 333.748C710.958 333.761 710.725 333.726 710.505 333.645C710.286 333.564 710.086 333.439 709.918 333.277C709.749 333.116 709.615 332.922 709.523 332.708C709.431 332.493 709.383 332.262 709.383 332.029V324.514C709.383 324.058 709.564 323.62 709.887 323.297C710.209 322.974 710.647 322.793 711.103 322.793C711.559 322.793 711.996 322.974 712.319 323.297C712.641 323.62 712.823 324.058 712.823 324.514V330.217L752.286 328.188C755.755 328.023 759.16 329.161 761.834 331.377C764.509 333.593 766.261 336.729 766.746 340.17L768.753 354.626C768.814 355.078 768.694 355.536 768.419 355.9C768.143 356.263 767.735 356.502 767.284 356.564C767.205 356.576 767.126 356.582 767.047 356.582V356.582Z" fill="#000091"/>
<path d="M693.217 302.429C693.222 297.888 694.627 293.459 697.24 289.747C699.853 286.034 703.547 283.219 707.818 281.686C712.089 280.153 716.729 279.976 721.104 281.18C725.479 282.383 729.377 284.908 732.265 288.411C735.153 291.913 736.89 296.222 737.241 300.75C737.591 305.277 736.537 309.802 734.222 313.708C731.907 317.614 728.444 320.709 724.307 322.572C720.169 324.436 715.557 324.975 711.101 324.118" fill="white"/>
<path d="M715.286 326.236C713.773 326.236 712.263 326.093 710.777 325.808C710.553 325.767 710.34 325.683 710.15 325.559C709.959 325.435 709.795 325.275 709.667 325.087C709.538 324.9 709.449 324.688 709.402 324.466C709.356 324.243 709.354 324.014 709.397 323.791C709.44 323.567 709.527 323.355 709.652 323.165C709.777 322.976 709.939 322.813 710.128 322.686C710.316 322.56 710.528 322.472 710.751 322.427C710.974 322.383 711.203 322.383 711.426 322.428C715.54 323.224 719.799 322.729 723.621 321.011C727.443 319.293 730.643 316.437 732.782 312.831C734.922 309.226 735.897 305.047 735.575 300.866C735.252 296.685 733.648 292.706 730.982 289.472C728.315 286.237 724.716 283.905 720.675 282.795C716.635 281.684 712.35 281.849 708.407 283.266C704.463 284.684 701.053 287.285 698.642 290.715C696.232 294.144 694.937 298.235 694.936 302.428C694.936 302.885 694.755 303.323 694.433 303.645C694.11 303.968 693.673 304.149 693.217 304.149C692.761 304.149 692.323 303.968 692.001 303.645C691.678 303.323 691.497 302.885 691.497 302.428C691.497 297.72 692.892 293.117 695.506 289.202C698.12 285.287 701.835 282.235 706.182 280.433C710.529 278.631 715.312 278.16 719.927 279.079C724.541 279.997 728.78 282.265 732.107 285.594C735.434 288.924 737.699 293.166 738.617 297.784C739.535 302.402 739.064 307.189 737.263 311.539C735.463 315.889 732.414 319.607 728.502 322.223C724.59 324.839 719.991 326.236 715.286 326.236V326.236Z" fill="#000091"/>
<path d="M693.617 363.524C693.289 363.524 692.967 363.43 692.69 363.253C692.413 363.076 692.192 362.823 692.055 362.524L691.367 361.032C689.767 357.482 689.076 353.589 689.356 349.705C689.636 345.82 690.879 342.067 692.972 338.784L695.272 335.273C695.396 335.084 695.556 334.922 695.743 334.794C695.929 334.667 696.139 334.578 696.361 334.532C696.582 334.486 696.81 334.484 697.032 334.526C697.253 334.569 697.465 334.654 697.654 334.778C697.843 334.902 698.005 335.062 698.132 335.249C698.259 335.436 698.348 335.646 698.394 335.867C698.44 336.088 698.442 336.317 698.4 336.539C698.358 336.761 698.273 336.972 698.149 337.161L695.856 340.661C694.075 343.455 693.018 346.65 692.78 349.956C692.542 353.262 693.13 356.575 694.492 359.596L695.179 361.082C695.3 361.344 695.354 361.632 695.334 361.92C695.314 362.208 695.223 362.487 695.067 362.73C694.912 362.974 694.698 363.174 694.445 363.313C694.192 363.451 693.908 363.524 693.619 363.524H693.617Z" fill="#000091"/>
<path d="M715.228 308.739C715.196 308.739 715.165 308.739 715.133 308.739C714.803 308.721 714.485 308.608 714.217 308.413C713.949 308.219 713.743 307.951 713.623 307.642L709.496 296.972C709.332 296.546 709.343 296.072 709.527 295.654C709.712 295.237 710.055 294.909 710.48 294.745C710.906 294.58 711.38 294.591 711.797 294.776C712.215 294.96 712.542 295.304 712.706 295.73L715.458 302.843L720.123 293.836C720.338 293.439 720.699 293.142 721.13 293.01C721.561 292.877 722.027 292.919 722.427 293.127C722.828 293.334 723.131 293.691 723.271 294.12C723.411 294.549 723.377 295.016 723.176 295.42L716.756 307.812C716.611 308.092 716.391 308.326 716.122 308.49C715.852 308.653 715.543 308.74 715.228 308.739V308.739Z" fill="#000091"/>
<path d="M662.732 447.242C662.364 447.242 662.006 447.125 661.709 446.906C661.413 446.687 661.195 446.379 661.086 446.027C660.978 445.675 660.985 445.298 661.107 444.95C661.229 444.603 661.459 444.304 661.764 444.097L704.032 415.356C704.219 415.229 704.429 415.14 704.65 415.094C704.871 415.048 705.099 415.047 705.321 415.089C705.543 415.131 705.754 415.217 705.943 415.341C706.131 415.465 706.294 415.625 706.421 415.812C706.548 415.999 706.637 416.21 706.682 416.431C706.728 416.652 706.73 416.88 706.688 417.102C706.645 417.324 706.56 417.536 706.436 417.725C706.312 417.914 706.152 418.076 705.965 418.203L663.697 446.944C663.413 447.138 663.076 447.242 662.732 447.242Z" fill="#000091"/>
<path d="M740.507 433.739C763.174 433.739 781.55 415.349 781.55 392.665C781.55 369.98 763.174 351.59 740.507 351.59C717.84 351.59 699.465 369.98 699.465 392.665C699.465 415.349 717.84 433.739 740.507 433.739Z" fill="white"/>
<path d="M740.507 435.462C732.05 435.462 723.782 432.953 716.75 428.25C709.718 423.548 704.237 416.864 701 409.044C697.764 401.224 696.917 392.619 698.567 384.318C700.217 376.016 704.289 368.391 710.27 362.406C716.25 356.421 723.87 352.345 732.165 350.693C740.46 349.042 749.058 349.89 756.872 353.129C764.685 356.368 771.364 361.853 776.063 368.891C780.761 375.929 783.269 384.203 783.269 392.667C783.256 404.013 778.747 414.891 770.73 422.914C762.714 430.937 751.844 435.45 740.507 435.462V435.462ZM740.507 353.313C732.73 353.313 725.127 355.621 718.661 359.945C712.194 364.27 707.154 370.416 704.178 377.607C701.201 384.798 700.423 392.71 701.94 400.344C703.457 407.978 707.202 414.99 712.702 420.494C718.201 425.998 725.208 429.746 732.836 431.264C740.464 432.783 748.37 432.003 755.555 429.025C762.741 426.046 768.882 421.002 773.203 414.531C777.524 408.059 779.83 400.45 779.83 392.667C779.818 382.233 775.672 372.23 768.3 364.852C760.928 357.474 750.933 353.324 740.507 353.313V353.313Z" fill="#000091"/>
<path d="M713.795 377.633C713.507 377.632 713.223 377.559 712.971 377.42C712.718 377.282 712.504 377.081 712.349 376.838C712.194 376.595 712.102 376.317 712.083 376.029C712.063 375.741 712.116 375.453 712.237 375.191C713.714 372.415 715.755 369.978 718.229 368.037C720.703 366.097 723.555 364.695 726.603 363.923C726.821 363.866 727.049 363.852 727.272 363.883C727.496 363.914 727.712 363.989 727.907 364.103C728.102 364.217 728.272 364.368 728.409 364.548C728.545 364.729 728.645 364.934 728.702 365.152C728.759 365.371 728.773 365.599 728.742 365.823C728.711 366.047 728.637 366.262 728.523 366.457C728.409 366.653 728.257 366.823 728.077 366.96C727.897 367.096 727.692 367.196 727.474 367.253C724.914 367.894 722.515 369.059 720.429 370.675C718.342 372.291 716.614 374.324 715.353 376.643C715.214 376.939 714.993 377.189 714.718 377.364C714.442 377.539 714.122 377.632 713.795 377.633Z" fill="#000091"/>
<path d="M673.784 467.474L670.861 458.524L670.746 458.492L670.803 458.467C665.243 448.371 658.078 438.389 652.002 432.709C650.282 431.103 648.391 429.21 646.327 427.145C634.6 415.27 619.683 407.053 603.385 403.49C587.086 399.926 570.105 401.168 554.498 407.066L577.254 426.858C573.7 436.61 567.338 465.294 575.477 469.768C579.909 472.225 586.288 471.816 592.922 471.153C595.868 479.029 598.602 485.307 600.412 489.503C601.874 492.923 604.464 495.737 607.749 497.477L615.087 501.378C617.003 502.388 619.102 503.003 621.26 503.189C623.418 503.374 625.592 503.124 627.652 502.456C629.712 501.787 631.618 500.712 633.256 499.294C634.895 497.876 636.233 496.144 637.192 494.2C639.378 494.578 641.619 494.498 643.774 493.966C645.928 493.434 647.949 492.461 649.709 491.109C651.16 490.007 652.415 488.669 653.422 487.151C655.729 487.677 658.122 487.688 660.433 487.182C662.744 486.677 664.915 485.667 666.791 484.225C671.778 480.439 675.045 473.555 673.784 467.474Z" fill="white"/>
<path d="M622.657 504.997C619.732 504.999 616.852 504.277 614.274 502.894L606.943 498.996C603.313 497.066 600.451 493.953 598.829 490.173L598.571 489.575C596.901 485.709 594.426 479.976 591.777 472.992C585.303 473.599 579.185 473.79 574.644 471.271C564.719 465.816 572.581 435.539 575.252 427.394L553.369 408.368C553.145 408.173 552.975 407.922 552.876 407.642C552.777 407.361 552.752 407.059 552.805 406.766C552.857 406.473 552.985 406.198 553.175 405.969C553.365 405.74 553.612 405.564 553.89 405.459C569.81 399.452 587.128 398.189 603.749 401.824C620.371 405.458 635.585 413.834 647.55 425.939C649.564 427.954 651.473 429.865 653.175 431.454C659.137 437.025 666.417 446.977 672.212 457.463C672.337 457.622 672.433 457.801 672.496 457.993L675.419 466.942C675.439 467.003 675.455 467.065 675.468 467.127C676.805 473.574 673.664 481.17 667.831 485.599C665.913 487.079 663.712 488.149 661.364 488.743C659.016 489.336 656.571 489.441 654.181 489.051C652.326 491.491 649.879 493.416 647.072 494.644C644.264 495.872 641.19 496.362 638.14 496.068C636.95 498.105 635.371 499.889 633.494 501.318C630.387 503.708 626.576 505.002 622.657 504.997V504.997ZM592.923 469.43C593.273 469.43 593.615 469.537 593.902 469.737C594.19 469.937 594.41 470.22 594.532 470.548C597.325 478.01 599.974 484.147 601.728 488.208L601.991 488.818C603.304 491.877 605.621 494.396 608.56 495.957L615.893 499.858C617.607 500.76 619.483 501.31 621.412 501.474C623.341 501.639 625.283 501.416 627.124 500.818C628.966 500.219 630.669 499.258 632.133 497.991C633.597 496.723 634.793 495.175 635.65 493.438C635.814 493.105 636.081 492.834 636.412 492.666C636.743 492.498 637.119 492.441 637.484 492.504C640.253 492.967 643.096 492.617 645.671 491.497C648.245 490.377 650.441 488.535 651.992 486.194C652.185 485.903 652.462 485.678 652.786 485.548C653.11 485.419 653.466 485.391 653.806 485.469C655.865 485.944 658.003 485.956 660.067 485.505C662.131 485.055 664.07 484.151 665.743 482.861C670.464 479.276 673.131 473.008 672.121 467.913L669.384 459.538C669.24 459.349 669.137 459.133 669.08 458.903C663.47 448.795 656.501 439.268 650.83 433.967C649.085 432.338 647.155 430.407 645.113 428.363C633.962 417.081 619.869 409.162 604.439 405.508C589.009 401.854 572.864 402.612 557.844 407.696L578.384 425.56C578.647 425.788 578.834 426.091 578.921 426.429C579.008 426.766 578.991 427.122 578.871 427.449C574.47 439.527 570.047 464.819 576.307 468.261C580.292 470.47 586.361 470.079 592.753 469.441C592.809 469.435 592.866 469.432 592.923 469.432V469.43Z" fill="#000091"/>
<path d="M618.755 483.306C618.414 483.306 618.08 483.204 617.796 483.014C617.513 482.823 617.292 482.552 617.163 482.236C610.808 466.671 602.596 460.484 597.659 461.31C597.015 461.46 596.41 461.747 595.886 462.151C595.362 462.555 594.931 463.067 594.621 463.652C594.073 464.585 593.734 465.626 593.629 466.703C593.523 467.78 593.652 468.867 594.008 469.889C594.083 470.102 594.115 470.328 594.102 470.554C594.089 470.779 594.032 471 593.934 471.204C593.835 471.407 593.698 471.589 593.53 471.74C593.361 471.89 593.165 472.006 592.951 472.081C592.738 472.155 592.512 472.187 592.287 472.174C592.061 472.161 591.841 472.104 591.637 472.006C591.434 471.907 591.252 471.77 591.102 471.601C590.951 471.433 590.836 471.236 590.761 471.023C590.241 469.524 590.054 467.929 590.211 466.35C590.369 464.772 590.868 463.246 591.673 461.879C592.234 460.86 593.012 459.977 593.952 459.291C594.891 458.606 595.97 458.135 597.111 457.912C603.069 456.905 612.75 462.329 620.345 480.933C620.452 481.195 620.493 481.478 620.464 481.759C620.436 482.04 620.338 482.31 620.181 482.544C620.024 482.779 619.812 482.971 619.563 483.104C619.314 483.237 619.036 483.306 618.754 483.306H618.755Z" fill="#000091"/>
<path d="M575.42 479.922L427.988 441.659C421.263 439.917 415.059 436.571 409.908 431.906C404.758 427.24 400.813 421.395 398.413 414.871C396.013 408.347 395.228 401.338 396.126 394.443C397.024 387.549 399.578 380.976 403.569 375.285L478.718 267.895L549.167 317.345L509.557 373.966L597.03 396.683L575.42 479.922Z" fill="#F9CFD2"/>
<path d="M379.895 352.283C379.439 352.283 379.002 352.101 378.679 351.779C378.357 351.456 378.176 351.018 378.176 350.562V335.073C378.176 334.616 378.357 334.178 378.679 333.856C379.002 333.533 379.439 333.352 379.895 333.352C380.352 333.352 380.789 333.533 381.111 333.856C381.434 334.178 381.615 334.616 381.615 335.073V350.562C381.615 351.018 381.434 351.456 381.111 351.779C380.789 352.101 380.352 352.283 379.895 352.283V352.283Z" fill="#000091"/>
<path d="M455.044 303.577C454.809 303.577 454.576 303.529 454.36 303.435C454.144 303.341 453.949 303.204 453.788 303.032C453.628 302.86 453.504 302.657 453.425 302.435C453.346 302.213 453.313 301.977 453.329 301.742L454.819 279.311C454.831 279.083 454.888 278.86 454.987 278.655C455.085 278.449 455.224 278.265 455.395 278.114C455.565 277.962 455.764 277.846 455.98 277.772C456.195 277.699 456.423 277.668 456.651 277.684C456.878 277.699 457.1 277.759 457.304 277.861C457.508 277.963 457.69 278.104 457.839 278.277C457.988 278.45 458.101 278.651 458.171 278.868C458.242 279.085 458.269 279.313 458.25 279.541L457.168 295.833L463.496 286.812C463.624 286.623 463.789 286.461 463.98 286.336C464.171 286.211 464.385 286.126 464.609 286.084C464.834 286.043 465.064 286.047 465.287 286.096C465.51 286.145 465.721 286.237 465.908 286.369C466.095 286.5 466.254 286.667 466.375 286.86C466.497 287.054 466.579 287.269 466.616 287.495C466.654 287.72 466.646 287.95 466.594 288.173C466.541 288.395 466.445 288.605 466.311 288.789L456.451 302.844C456.293 303.071 456.082 303.255 455.837 303.383C455.592 303.511 455.32 303.577 455.044 303.577Z" fill="#000091"/>
<path d="M500.632 385.103C500.314 385.102 500.002 385.013 499.731 384.845C499.461 384.677 499.242 384.437 499.099 384.153C498.957 383.868 498.896 383.549 498.924 383.231C498.951 382.914 499.067 382.61 499.257 382.355L539.076 328.766C539.351 328.408 539.756 328.172 540.203 328.11C540.65 328.048 541.104 328.164 541.466 328.434C541.828 328.703 542.07 329.105 542.139 329.551C542.208 329.997 542.099 330.453 541.836 330.82L502.014 384.408C501.854 384.624 501.645 384.799 501.405 384.92C501.166 385.04 500.901 385.103 500.632 385.103V385.103Z" fill="#000091"/>
<path d="M509.558 386.989C509.101 386.989 508.664 386.808 508.342 386.485C508.019 386.163 507.838 385.725 507.838 385.268V378.29L501.75 384.73C501.596 384.898 501.41 385.034 501.202 385.129C500.995 385.225 500.771 385.278 500.543 385.286C500.315 385.295 500.088 385.257 499.875 385.177C499.661 385.096 499.466 384.974 499.301 384.817C499.135 384.66 499.002 384.472 498.91 384.263C498.817 384.054 498.768 383.829 498.763 383.601C498.758 383.373 498.799 383.146 498.883 382.933C498.967 382.721 499.092 382.528 499.252 382.364L508.309 372.784C508.545 372.534 508.851 372.361 509.187 372.286C509.523 372.212 509.874 372.241 510.193 372.368C510.513 372.495 510.787 372.716 510.981 373.001C511.174 373.286 511.277 373.622 511.277 373.967V385.268C511.277 385.494 511.233 385.718 511.146 385.927C511.06 386.135 510.933 386.325 510.774 386.485C510.614 386.645 510.424 386.772 510.216 386.858C510.007 386.945 509.783 386.989 509.558 386.989V386.989Z" fill="#000091"/>
<path d="M730.571 417.228C730.51 417.228 730.449 417.225 730.388 417.218C730.13 417.191 729.881 417.105 729.66 416.967C729.439 416.829 729.253 416.643 729.115 416.422L714.708 393.475C714.583 393.284 714.498 393.07 714.456 392.845C714.415 392.62 714.419 392.389 714.468 392.166C714.517 391.943 714.61 391.732 714.741 391.545C714.873 391.358 715.04 391.199 715.233 391.077C715.427 390.956 715.642 390.874 715.867 390.837C716.093 390.799 716.323 390.807 716.545 390.86C716.768 390.913 716.977 391.01 717.162 391.144C717.346 391.279 717.502 391.449 717.62 391.645L730.865 412.742L756.205 386.769C756.362 386.604 756.55 386.472 756.758 386.38C756.967 386.288 757.191 386.239 757.419 386.235C757.647 386.23 757.873 386.272 758.084 386.356C758.296 386.44 758.489 386.565 758.652 386.724C758.815 386.883 758.944 387.073 759.033 387.283C759.122 387.492 759.169 387.718 759.17 387.945C759.171 388.173 759.127 388.399 759.041 388.61C758.954 388.821 758.827 389.012 758.666 389.173L731.801 416.709C731.641 416.873 731.449 417.004 731.238 417.093C731.027 417.182 730.8 417.228 730.571 417.228V417.228Z" fill="#000091"/>
<path d="M705.92 415.507C705.489 415.507 705.074 415.344 704.757 415.051C704.44 414.758 704.245 414.357 704.209 413.927C704.174 413.497 704.302 413.069 704.567 412.729C704.832 412.388 705.215 412.16 705.64 412.089L706.206 411.995C712.348 410.963 718.163 408.503 723.182 404.812L723.394 404.655C723.576 404.521 723.782 404.425 724.001 404.37C724.221 404.316 724.448 404.306 724.672 404.34C724.895 404.374 725.109 404.451 725.302 404.568C725.496 404.685 725.664 404.839 725.798 405.021C725.932 405.203 726.029 405.41 726.083 405.629C726.137 405.849 726.147 406.076 726.113 406.3C726.079 406.523 726.002 406.738 725.885 406.931C725.768 407.125 725.614 407.293 725.433 407.427L725.22 407.584C719.766 411.595 713.446 414.269 706.77 415.39L706.205 415.484C706.111 415.5 706.016 415.508 705.92 415.507Z" fill="#000091"/>
<path d="M752.019 399.004C750.776 399.028 749.533 398.936 748.307 398.73C747.865 398.635 747.477 398.369 747.229 397.99C746.981 397.612 746.892 397.15 746.981 396.706C747.071 396.262 747.332 395.871 747.707 395.619C748.083 395.366 748.543 395.271 748.988 395.356C749.092 395.376 757.477 396.905 771.615 391.053C774.651 389.791 777.406 387.939 779.722 385.603C780.045 385.285 780.481 385.107 780.935 385.109C781.388 385.111 781.823 385.293 782.144 385.614C782.465 385.935 782.646 386.37 782.647 386.824C782.649 387.278 782.472 387.714 782.153 388.038C779.518 390.693 776.383 392.799 772.929 394.233C763.229 398.248 756.051 399.004 752.019 399.004Z" fill="#000091"/>
<path d="M747.405 372.481C750.729 372.481 753.423 369.784 753.423 366.457C753.423 363.13 750.729 360.434 747.405 360.434C744.08 360.434 741.386 363.13 741.386 366.457C741.386 369.784 744.08 372.481 747.405 372.481Z" fill="#000091"/>
<path d="M1173.9 557.654H32.7153C31.4059 557.654 30.4893 556.945 30.4893 555.952C30.4893 554.959 31.4059 554.25 32.7153 554.25H1173.9C1175.2 554.25 1176.12 554.959 1176.12 555.952C1176.12 556.945 1174.94 557.654 1173.9 557.654Z" fill="#000091"/>
<path d="M974.83 556.68C974.426 556.618 974.063 556.398 973.817 556.065C973.571 555.731 973.462 555.311 973.512 554.893L994.237 381.234C994.289 380.806 994.503 380.414 994.832 380.146C995.162 379.877 995.581 379.752 995.996 379.8C996.411 379.848 996.789 380.064 997.047 380.401C997.304 380.737 997.42 381.167 997.369 381.595L976.644 555.254C976.618 555.466 976.553 555.671 976.451 555.858C976.349 556.044 976.212 556.209 976.049 556.342C975.886 556.475 975.699 556.574 975.5 556.633C975.3 556.693 975.092 556.711 974.886 556.687L974.83 556.68Z" fill="#000091"/>
<path d="M992.544 407.258C992.283 407.218 992.037 407.113 991.827 406.952C991.617 406.791 991.451 406.579 991.342 406.334L983.723 389.168C983.549 388.776 983.536 388.328 983.686 387.922C983.836 387.516 984.136 387.185 984.522 387.003C984.908 386.82 985.347 386.801 985.742 386.949C986.138 387.097 986.458 387.4 986.632 387.792L993.173 402.533L1003.08 389.641C1003.21 389.469 1003.37 389.324 1003.55 389.215C1003.74 389.106 1003.94 389.035 1004.15 389.006C1004.36 388.977 1004.57 388.991 1004.77 389.047C1004.98 389.103 1005.17 389.199 1005.33 389.331C1005.5 389.463 1005.64 389.627 1005.74 389.815C1005.84 390.002 1005.9 390.209 1005.93 390.423C1005.95 390.637 1005.93 390.855 1005.87 391.062C1005.81 391.27 1005.71 391.464 1005.58 391.633L994.047 406.642C993.877 406.863 993.654 407.037 993.401 407.146C993.147 407.255 992.872 407.296 992.6 407.265L992.544 407.258Z" fill="#000091"/>
<path d="M990.6 423.518C990.338 423.478 990.091 423.372 989.88 423.21C989.67 423.047 989.503 422.834 989.396 422.587L978.42 397.566C978.334 397.371 978.286 397.161 978.28 396.947C978.274 396.732 978.309 396.518 978.384 396.317C978.459 396.116 978.572 395.931 978.716 395.773C978.861 395.616 979.034 395.489 979.225 395.399C979.417 395.309 979.624 395.259 979.834 395.251C980.044 395.243 980.253 395.277 980.449 395.352C980.645 395.426 980.824 395.54 980.975 395.686C981.127 395.832 981.249 396.008 981.334 396.203L991.234 418.773L1006.3 399.023C1006.43 398.845 1006.59 398.695 1006.77 398.581C1006.96 398.468 1007.16 398.392 1007.37 398.36C1007.58 398.328 1007.8 398.34 1008.01 398.395C1008.21 398.45 1008.41 398.546 1008.57 398.679C1008.74 398.812 1008.88 398.979 1008.98 399.169C1009.09 399.359 1009.15 399.568 1009.17 399.785C1009.2 400.002 1009.17 400.222 1009.11 400.432C1009.05 400.641 1008.94 400.836 1008.81 401.005L992.103 422.9C991.934 423.123 991.711 423.297 991.457 423.407C991.203 423.517 990.926 423.559 990.653 423.528L990.6 423.518Z" fill="#000091"/>
<path d="M988.415 442.093C988.154 442.053 987.908 441.948 987.698 441.787C987.488 441.626 987.322 441.414 987.213 441.169L972.93 408.995C972.764 408.604 972.756 408.161 972.907 407.761C973.059 407.361 973.357 407.035 973.739 406.855C974.12 406.674 974.554 406.653 974.946 406.796C975.339 406.939 975.659 407.234 975.837 407.619L989.044 437.368L1009.01 411.382C1009.14 411.21 1009.3 411.065 1009.49 410.956C1009.67 410.847 1009.87 410.776 1010.08 410.747C1010.29 410.718 1010.51 410.732 1010.71 410.788C1010.91 410.843 1011.1 410.94 1011.27 411.072C1011.43 411.204 1011.57 411.368 1011.67 411.556C1011.78 411.743 1011.84 411.95 1011.86 412.164C1011.89 412.378 1011.87 412.595 1011.81 412.803C1011.75 413.011 1011.65 413.205 1011.51 413.374L989.918 441.477C989.748 441.698 989.525 441.872 989.272 441.981C989.019 442.09 988.744 442.131 988.472 442.1L988.415 442.093Z" fill="#000091"/>
<path d="M986.28 459.985C986.02 459.945 985.775 459.84 985.565 459.679C985.356 459.518 985.19 459.306 985.081 459.062L968.2 421.071C968.11 420.876 968.059 420.665 968.05 420.449C968.041 420.233 968.074 420.017 968.147 419.814C968.22 419.61 968.332 419.422 968.476 419.262C968.621 419.102 968.794 418.973 968.987 418.882C969.18 418.79 969.389 418.739 969.6 418.73C969.812 418.722 970.022 418.757 970.22 418.832C970.417 418.908 970.597 419.023 970.75 419.171C970.902 419.319 971.024 419.497 971.108 419.695L986.913 455.263L1010.82 424.199C1011.09 423.857 1011.47 423.635 1011.89 423.58C1012.31 423.525 1012.73 423.643 1013.07 423.908C1013.4 424.172 1013.61 424.562 1013.66 424.99C1013.71 425.419 1013.59 425.852 1013.32 426.194L987.783 459.371C987.613 459.592 987.391 459.765 987.137 459.874C986.884 459.982 986.609 460.023 986.337 459.992C986.318 459.99 986.299 459.988 986.28 459.985Z" fill="#000091"/>
<path d="M1062.3 467.782L1047.79 483.708L1031.8 469.04C1029.32 466.768 1027.3 464.03 1025.87 460.984C1024.43 457.938 1023.6 454.643 1023.44 451.286C1023.27 447.93 1023.76 444.578 1024.89 441.422C1026.01 438.266 1027.75 435.368 1029.99 432.893L1030.05 432.834L1044.56 416.908L1060.54 431.576C1063.03 433.848 1065.05 436.585 1066.48 439.632C1067.92 442.678 1068.74 445.973 1068.91 449.33C1069.08 452.686 1068.59 456.038 1067.46 459.194C1066.34 462.35 1064.6 465.248 1062.35 467.723L1062.3 467.782Z" fill="white"/>
<path d="M1048.25 485.218C1047.99 485.295 1047.71 485.303 1047.45 485.241C1047.18 485.179 1046.94 485.05 1046.74 484.865L1030.75 470.196C1025.42 465.325 1022.23 458.545 1021.87 451.349C1021.51 444.153 1024.01 437.129 1028.83 431.823L1028.88 431.763L1043.39 415.835C1043.67 415.528 1044.06 415.345 1044.48 415.328C1044.9 415.311 1045.3 415.46 1045.61 415.743L1061.6 430.413C1066.93 435.284 1070.12 442.064 1070.48 449.26C1070.84 456.456 1068.34 463.48 1063.52 468.785L1063.47 468.846L1048.96 484.774C1048.77 484.984 1048.52 485.137 1048.25 485.218ZM1044.66 419.129L1031.16 433.945C1029.05 436.268 1027.42 438.988 1026.37 441.95C1025.31 444.912 1024.85 448.058 1025 451.209C1025.16 454.36 1025.94 457.454 1027.28 460.313C1028.63 463.173 1030.52 465.742 1032.86 467.875L1047.68 481.478L1061.19 466.653C1065.45 461.962 1067.66 455.754 1067.34 449.393C1067.02 443.032 1064.2 437.039 1059.49 432.733L1044.66 419.129Z" fill="#000091"/>
<path d="M1055.49 644.005C1055.37 644.042 1055.24 644.063 1055.11 644.068C1054.91 644.077 1054.7 644.045 1054.51 643.974C1054.32 643.902 1054.14 643.794 1053.99 643.654C1053.83 643.514 1053.71 643.346 1053.62 643.158C1053.53 642.971 1053.48 642.768 1053.47 642.561L1044.4 452.902C1044.38 452.485 1044.52 452.078 1044.8 451.771C1045.08 451.464 1045.47 451.282 1045.89 451.265C1046.3 451.247 1046.71 451.396 1047.02 451.679C1047.33 451.961 1047.51 452.355 1047.53 452.772L1056.61 642.43C1056.62 642.781 1056.52 643.126 1056.32 643.411C1056.12 643.697 1055.83 643.906 1055.49 644.005V644.005Z" fill="#000091"/>
<path d="M1045.18 418.477C1045.05 418.513 1044.93 418.534 1044.8 418.54C1044.59 418.548 1044.39 418.516 1044.19 418.445C1044 418.374 1043.82 418.265 1043.67 418.125C1043.51 417.985 1043.39 417.817 1043.3 417.629C1043.22 417.442 1043.17 417.239 1043.16 417.032L1042.33 399.82C1042.31 399.403 1042.46 398.996 1042.74 398.689C1043.02 398.382 1043.41 398.199 1043.82 398.182C1044.24 398.165 1044.64 398.314 1044.95 398.597C1045.26 398.879 1045.44 399.272 1045.46 399.689L1046.29 416.902C1046.31 417.252 1046.21 417.597 1046 417.883C1045.8 418.168 1045.51 418.377 1045.18 418.477V418.477Z" fill="#000091"/>
<path d="M1045.15 418.491C1044.8 418.595 1044.42 418.571 1044.08 418.423C1043.74 418.275 1043.47 418.013 1043.3 417.682L1035.57 402.299C1035.48 402.114 1035.42 401.911 1035.4 401.703C1035.38 401.495 1035.4 401.285 1035.47 401.087C1035.53 400.888 1035.63 400.705 1035.77 400.547C1035.9 400.389 1036.07 400.259 1036.25 400.166C1036.44 400.073 1036.64 400.018 1036.85 400.005C1037.06 399.991 1037.27 400.019 1037.46 400.087C1037.66 400.155 1037.84 400.262 1038 400.401C1038.15 400.54 1038.28 400.708 1038.37 400.897L1046.1 416.28C1046.2 416.486 1046.26 416.712 1046.27 416.942C1046.27 417.172 1046.23 417.4 1046.14 417.611C1046.05 417.821 1045.92 418.009 1045.74 418.161C1045.57 418.314 1045.37 418.426 1045.15 418.491V418.491Z" fill="#000091"/>
<path d="M1045.18 418.476C1044.9 418.56 1044.6 418.562 1044.32 418.482C1044.03 418.402 1043.77 418.244 1043.57 418.025C1043.37 417.805 1043.24 417.535 1043.18 417.243C1043.13 416.952 1043.16 416.651 1043.27 416.376L1049.58 400.381C1049.74 400.007 1050.04 399.712 1050.42 399.559C1050.8 399.405 1051.22 399.404 1051.6 399.557C1051.98 399.709 1052.28 400.003 1052.45 400.377C1052.62 400.75 1052.64 401.173 1052.5 401.557L1046.19 417.552C1046.11 417.773 1045.97 417.971 1045.8 418.131C1045.62 418.291 1045.41 418.409 1045.18 418.476Z" fill="#000091"/>
<path d="M1051.86 508.205C1058.45 506.25 1062.18 499.291 1060.18 492.661C1058.18 486.032 1051.21 482.243 1044.62 484.198C1038.02 486.153 1034.29 493.112 1036.29 499.742C1038.29 506.371 1045.26 510.16 1051.86 508.205Z" fill="white"/>
<path d="M1052.31 509.717C1049.65 510.506 1046.81 510.484 1044.16 509.654C1041.5 508.825 1039.14 507.225 1037.37 505.057C1035.61 502.889 1034.52 500.25 1034.25 497.474C1033.98 494.699 1034.53 491.911 1035.84 489.463C1037.15 487.015 1039.16 485.018 1041.61 483.723C1044.07 482.428 1046.85 481.894 1049.62 482.189C1052.38 482.484 1055 483.593 1057.15 485.378C1059.3 487.163 1060.88 489.542 1061.68 492.215C1062.76 495.8 1062.38 499.656 1060.62 502.937C1058.87 506.218 1055.88 508.656 1052.31 509.717ZM1045.07 485.712C1043.01 486.323 1041.18 487.537 1039.81 489.198C1038.44 490.86 1037.59 492.895 1037.38 495.046C1037.17 497.196 1037.6 499.367 1038.62 501.282C1039.63 503.198 1041.19 504.772 1043.09 505.807C1045 506.841 1047.16 507.289 1049.3 507.093C1051.45 506.898 1053.49 506.068 1055.15 504.709C1056.82 503.35 1058.05 501.522 1058.67 499.457C1059.3 497.392 1059.3 495.182 1058.67 493.108C1057.83 490.327 1055.93 487.987 1053.38 486.6C1050.83 485.213 1047.84 484.893 1045.07 485.711L1045.07 485.712Z" fill="#000091"/>
<path d="M106.009 689.998C105.555 689.998 105.119 689.825 104.789 689.516C104.46 689.206 104.262 688.784 104.237 688.334L82.6312 301.986C82.6131 301.524 82.7787 301.074 83.0925 300.732C83.4062 300.39 83.8429 300.185 84.3084 300.159C84.7739 300.133 85.2309 300.29 85.5808 300.596C85.9308 300.901 86.1456 301.33 86.179 301.791L107.785 688.139C107.811 688.606 107.649 689.063 107.335 689.411C107.021 689.759 106.58 689.969 106.109 689.995C106.078 689.997 106.042 689.998 106.009 689.998Z" fill="#000091"/>
<path d="M108.334 253.748C106.645 253.507 104.929 253.941 103.563 254.954C102.197 255.966 101.292 257.476 101.049 259.149C101.25 257.491 100.788 255.821 99.7603 254.498C98.7327 253.174 97.2222 252.304 95.5536 252.073C93.8851 251.842 92.1918 252.27 90.838 253.264C89.4842 254.258 88.578 255.739 88.3144 257.388L83.6353 289.443L74.988 258.21C74.611 256.559 73.588 255.125 72.144 254.222C70.7 253.319 68.9533 253.022 67.2883 253.396C65.6232 253.769 64.176 254.783 63.2652 256.215C62.3544 257.646 62.0545 259.377 62.4315 261.028C62.499 261.197 62.539 261.375 62.55 261.556C62.1197 259.922 61.0595 258.52 59.5974 257.653C58.1353 256.786 56.3882 256.522 54.7318 256.918C53.0831 257.345 51.6691 258.396 50.7941 259.845C49.919 261.294 49.6528 263.026 50.0527 264.668C50.0527 264.727 50.112 264.785 50.112 264.844L51.2373 268.954L58.8186 296.664C60.1163 301.464 62.7956 305.785 66.5293 309.1C70.2631 312.415 74.8898 314.581 79.8447 315.334V315.393C83.4468 315.856 87.1047 315.636 90.6243 314.747V314.747V314.688C95.4409 313.311 99.7534 310.584 103.042 306.834C106.332 303.084 108.457 298.472 109.163 293.553L113.19 265.138L113.783 260.91C113.915 260.083 113.878 259.238 113.674 258.426C113.47 257.613 113.102 256.85 112.594 256.181C112.085 255.513 111.446 254.953 110.714 254.535C109.982 254.116 109.172 253.849 108.334 253.748V253.748Z" fill="#F9CFD2"/>
<path d="M69.0638 287.094C68.6737 287.094 68.2946 286.966 67.9849 286.731C67.6752 286.496 67.4522 286.166 67.3503 285.793L60.7167 261.546C60.5934 261.096 60.6558 260.615 60.8902 260.209C61.1247 259.804 61.5119 259.508 61.9667 259.386C62.4216 259.263 62.9067 259.325 63.3156 259.558C63.7244 259.79 64.0233 260.174 64.1466 260.625L70.7779 284.874C70.9011 285.325 70.8386 285.806 70.6041 286.211C70.3696 286.617 69.9824 286.913 69.5275 287.035C69.3763 287.075 69.2203 287.095 69.0638 287.094Z" fill="#000091"/>
<path d="M97.6158 285.333C97.532 285.333 97.4483 285.327 97.3653 285.316C96.8987 285.25 96.4774 285.004 96.194 284.631C95.9107 284.257 95.7885 283.788 95.8544 283.325L99.4081 258.433C99.4741 257.97 99.7227 257.553 100.099 257.272C100.476 256.991 100.95 256.87 101.416 256.935C101.883 257.001 102.304 257.247 102.587 257.62C102.871 257.994 102.993 258.463 102.927 258.926L99.3731 283.819C99.3133 284.238 99.1025 284.623 98.7797 284.901C98.4569 285.179 98.0436 285.333 97.6158 285.333V285.333Z" fill="#000091"/>
<path d="M87.2487 355.375C86.9949 355.375 86.7441 355.321 86.5131 355.217C86.2821 355.113 86.0763 354.961 85.9095 354.771L61.5666 327.119C61.2567 326.767 61.1005 326.308 61.1325 325.841C61.1645 325.375 61.382 324.941 61.7372 324.634C62.0923 324.326 62.5561 324.172 63.0264 324.203C63.4967 324.235 63.935 324.451 64.2449 324.803L88.5879 352.455C88.8122 352.709 88.9579 353.023 89.0074 353.358C89.0569 353.692 89.0081 354.034 88.867 354.342C88.7258 354.65 88.4982 354.911 88.2113 355.094C87.9245 355.277 87.5905 355.374 87.2493 355.374L87.2487 355.375Z" fill="#000091"/>
<path d="M87.2469 355.374C86.9302 355.374 86.6194 355.29 86.3465 355.131C86.0737 354.971 85.8488 354.743 85.695 354.468C85.5413 354.194 85.4644 353.883 85.4722 353.57C85.48 353.256 85.5723 352.95 85.7396 352.683L105.285 321.509C105.407 321.309 105.567 321.136 105.757 320.999C105.947 320.861 106.163 320.763 106.391 320.709C106.62 320.654 106.857 320.646 107.089 320.683C107.321 320.72 107.543 320.803 107.743 320.926C107.942 321.049 108.115 321.21 108.252 321.4C108.388 321.589 108.485 321.804 108.537 322.031C108.589 322.258 108.595 322.494 108.555 322.723C108.515 322.953 108.429 323.172 108.303 323.369L88.7572 354.543C88.5976 354.798 88.3752 355.008 88.1109 355.153C87.8466 355.298 87.5492 355.375 87.2469 355.374V355.374Z" fill="#000091"/>
<path d="M917.067 431.909C917.423 431.595 917.755 431.246 918.055 430.855L929.404 416.047C931.926 412.757 931.307 408.011 928.021 405.446C924.736 402.882 920.028 403.47 917.506 406.76L912.614 413.143L911.566 405.114C911.026 400.974 907.259 398.034 903.153 398.547C899.046 399.06 896.156 402.831 896.696 406.971L897.744 415.001L891.366 410.022C888.08 407.458 883.373 408.046 880.851 411.336C878.329 414.626 878.948 419.371 882.234 421.936L897.022 433.479C897.604 433.934 898.231 434.284 898.882 434.543C882.725 441.037 872.378 457.916 874.759 476.164C877.589 497.848 897.319 513.249 918.828 510.562C940.337 507.876 955.479 488.119 952.65 466.435C950.198 447.647 935.058 433.586 917.067 431.909Z" fill="white"/>
<path d="M919.031 512.113C896.706 514.902 876.155 498.86 873.218 476.354C870.927 458.795 880.025 441.929 895.559 434.306L881.287 423.167C877.328 420.076 876.579 414.336 879.618 410.371C881.09 408.451 883.221 407.227 885.618 406.928C888.015 406.629 890.392 407.288 892.31 408.786L895.715 411.443L895.156 407.16C894.505 402.171 898.001 397.609 902.95 396.991C907.898 396.373 912.454 399.929 913.105 404.918L913.664 409.2L916.274 405.794C917.746 403.874 919.878 402.651 922.275 402.352C924.672 402.052 927.048 402.712 928.966 404.209C932.926 407.3 933.675 413.04 930.636 417.005L920.116 430.73C928.175 432.085 935.768 435.891 941.752 441.624C948.552 448.137 952.969 456.879 954.191 466.241C957.128 488.747 941.355 509.325 919.031 512.113ZM886.023 410.032C884.448 410.229 883.048 411.032 882.081 412.293C880.084 414.898 880.576 418.669 883.178 420.699L897.967 432.243C898.41 432.589 898.906 432.872 899.442 433.085C900.035 433.321 900.428 433.897 900.434 434.538C900.439 435.179 900.055 435.755 899.466 435.992C883.586 442.376 874.058 458.814 876.297 475.97C879.01 496.764 897.999 511.586 918.626 509.009C939.252 506.433 953.826 487.419 951.112 466.625C948.818 449.042 934.444 435.095 916.936 433.463C916.317 433.406 915.789 432.982 915.593 432.387C915.398 431.791 915.573 431.138 916.039 430.727C916.332 430.468 916.596 430.187 916.823 429.891L928.173 415.082C929.14 413.821 929.558 412.251 929.351 410.664C929.144 409.076 928.336 407.66 927.076 406.676C925.816 405.692 924.255 405.259 922.68 405.456C921.105 405.653 919.705 406.456 918.738 407.718L913.845 414.101C913.463 414.6 912.818 414.815 912.211 414.647C911.605 414.478 911.156 413.959 911.074 413.331L910.026 405.303C909.599 402.025 906.606 399.689 903.355 400.095C900.104 400.501 897.807 403.498 898.234 406.775L899.282 414.805C899.364 415.433 899.063 416.045 898.519 416.358C897.975 416.67 897.296 416.62 896.798 416.231L890.419 411.252C889.159 410.269 887.598 409.835 886.023 410.032Z" fill="#000091"/>
<path d="M934.533 643.139C933.687 643.246 932.913 642.64 932.804 641.785L911.059 471.587C910.949 470.732 911.546 469.952 912.392 469.845C913.238 469.737 914.012 470.343 914.121 471.199L935.866 641.396C935.976 642.251 935.379 643.032 934.533 643.139Z" fill="#000091"/>
<path d="M859.934 556.52C859.086 556.656 858.286 556.072 858.148 555.215L848.021 492.582C847.883 491.726 848.458 490.921 849.306 490.785C850.154 490.649 850.954 491.233 851.093 492.09L861.219 554.723C861.358 555.579 860.783 556.384 859.934 556.52Z" fill="#000091"/>
<path d="M851.361 503.231C857.337 502.285 861.381 496.642 860.393 490.626C859.405 484.61 853.759 480.501 847.783 481.447C841.807 482.393 837.763 488.037 838.751 494.052C839.739 500.068 845.384 504.178 851.361 503.231Z" fill="#F9CFD2"/>
<path d="M146.906 384.114C155.846 384.114 163.093 376.849 163.093 367.887C163.093 358.925 155.846 351.66 146.906 351.66C137.967 351.66 130.72 358.925 130.72 367.887C130.72 376.849 137.967 384.114 146.906 384.114Z" fill="white"/>
<path d="M146.906 385.777C143.377 385.777 139.927 384.728 136.993 382.762C134.058 380.796 131.771 378.003 130.421 374.734C129.07 371.465 128.717 367.869 129.405 364.399C130.094 360.929 131.793 357.741 134.289 355.239C136.784 352.738 139.964 351.034 143.425 350.344C146.887 349.654 150.474 350.008 153.735 351.362C156.995 352.716 159.782 355.008 161.743 357.95C163.704 360.892 164.75 364.35 164.75 367.888C164.745 372.631 162.863 377.178 159.518 380.531C156.173 383.885 151.637 385.771 146.906 385.777V385.777ZM146.906 353.323C144.033 353.323 141.224 354.177 138.834 355.778C136.445 357.378 134.583 359.653 133.483 362.314C132.383 364.976 132.096 367.905 132.656 370.73C133.217 373.555 134.601 376.151 136.633 378.188C138.665 380.225 141.253 381.612 144.072 382.174C146.89 382.736 149.812 382.448 152.466 381.345C155.121 380.243 157.39 378.376 158.987 375.981C160.583 373.585 161.436 370.769 161.436 367.888C161.431 364.027 159.899 360.325 157.175 357.594C154.451 354.863 150.758 353.327 146.906 353.323V353.323Z" fill="#000091"/>
<path d="M164.032 418.727C172.971 418.727 180.218 411.462 180.218 402.5C180.218 393.538 172.971 386.273 164.032 386.273C155.092 386.273 147.845 393.538 147.845 402.5C147.845 411.462 155.092 418.727 164.032 418.727Z" fill="white"/>
<path d="M164.032 420.39C160.503 420.39 157.053 419.341 154.118 417.375C151.184 415.41 148.897 412.616 147.546 409.347C146.196 406.079 145.842 402.482 146.531 399.012C147.219 395.542 148.919 392.354 151.414 389.853C153.91 387.351 157.089 385.647 160.551 384.957C164.012 384.267 167.6 384.621 170.86 385.975C174.121 387.329 176.908 389.622 178.869 392.563C180.829 395.505 181.876 398.964 181.876 402.502C181.87 407.244 179.989 411.791 176.644 415.145C173.298 418.498 168.763 420.385 164.032 420.39V420.39ZM164.032 387.936C161.158 387.936 158.349 388.79 155.96 390.391C153.571 391.991 151.708 394.266 150.609 396.928C149.509 399.589 149.221 402.518 149.782 405.343C150.342 408.169 151.726 410.764 153.758 412.801C155.79 414.838 158.379 416.225 161.197 416.787C164.016 417.349 166.937 417.061 169.592 415.958C172.247 414.856 174.516 412.989 176.112 410.594C177.709 408.199 178.561 405.382 178.561 402.502C178.557 398.64 177.025 394.938 174.301 392.207C171.577 389.477 167.884 387.941 164.032 387.936V387.936Z" fill="#000091"/>
<path d="M131.714 419.614C140.653 419.614 147.9 412.349 147.9 403.387C147.9 394.425 140.653 387.16 131.714 387.16C122.774 387.16 115.527 394.425 115.527 403.387C115.527 412.349 122.774 419.614 131.714 419.614Z" fill="white"/>
<path d="M131.714 421.277C128.185 421.277 124.735 420.228 121.8 418.262C118.866 416.296 116.579 413.503 115.228 410.234C113.878 406.965 113.524 403.369 114.213 399.899C114.902 396.429 116.601 393.241 119.096 390.739C121.592 388.238 124.771 386.534 128.233 385.844C131.694 385.154 135.282 385.508 138.543 386.862C141.803 388.216 144.59 390.508 146.551 393.45C148.511 396.392 149.558 399.85 149.558 403.388C149.552 408.131 147.671 412.678 144.326 416.031C140.98 419.385 136.445 421.271 131.714 421.277V421.277ZM131.714 388.823C128.84 388.823 126.031 389.677 123.642 391.278C121.253 392.878 119.39 395.153 118.291 397.814C117.191 400.476 116.903 403.405 117.464 406.23C118.025 409.055 119.408 411.651 121.44 413.688C123.472 415.725 126.061 417.112 128.879 417.674C131.698 418.236 134.619 417.948 137.274 416.845C139.929 415.743 142.198 413.876 143.795 411.481C145.391 409.085 146.243 406.269 146.243 403.388C146.239 399.527 144.707 395.825 141.983 393.094C139.259 390.363 135.566 388.827 131.714 388.823V388.823Z" fill="#000091"/>
<path d="M165.026 454.782C173.966 454.782 181.213 447.517 181.213 438.555C181.213 429.593 173.966 422.328 165.026 422.328C156.087 422.328 148.84 429.593 148.84 438.555C148.84 447.517 156.087 454.782 165.026 454.782Z" fill="white"/>
<path d="M165.027 456.445C161.497 456.445 158.047 455.396 155.113 453.43C152.179 451.464 149.891 448.671 148.541 445.402C147.19 442.133 146.837 438.537 147.525 435.067C148.214 431.597 149.913 428.409 152.409 425.907C154.904 423.406 158.084 421.702 161.545 421.012C165.007 420.321 168.595 420.676 171.855 422.03C175.116 423.384 177.902 425.676 179.863 428.618C181.824 431.56 182.87 435.018 182.87 438.556C182.865 443.299 180.983 447.846 177.638 451.2C174.293 454.553 169.757 456.44 165.027 456.445V456.445ZM165.027 423.991C162.153 423.991 159.344 424.845 156.954 426.446C154.565 428.046 152.703 430.321 151.603 432.982C150.504 435.644 150.216 438.573 150.776 441.398C151.337 444.223 152.721 446.819 154.753 448.856C156.785 450.893 159.374 452.28 162.192 452.842C165.01 453.404 167.932 453.116 170.587 452.013C173.241 450.911 175.511 449.044 177.107 446.649C178.704 444.253 179.556 441.437 179.556 438.556C179.551 434.695 178.019 430.992 175.295 428.262C172.572 425.531 168.879 423.995 165.027 423.991Z" fill="#000091"/>
<path d="M132.653 455.614C141.593 455.614 148.84 448.349 148.84 439.387C148.84 430.425 141.593 423.16 132.653 423.16C123.714 423.16 116.467 430.425 116.467 439.387C116.467 448.349 123.714 455.614 132.653 455.614Z" fill="white"/>
<path d="M132.653 457.277C129.124 457.277 125.674 456.228 122.739 454.262C119.805 452.296 117.518 449.503 116.167 446.234C114.817 442.965 114.463 439.369 115.152 435.899C115.84 432.429 117.54 429.241 120.035 426.739C122.531 424.238 125.71 422.534 129.172 421.844C132.633 421.154 136.221 421.508 139.482 422.862C142.742 424.216 145.529 426.508 147.49 429.45C149.45 432.392 150.497 435.85 150.497 439.388C150.491 444.131 148.61 448.678 145.265 452.031C141.919 455.385 137.384 457.271 132.653 457.277V457.277ZM132.653 424.823C129.779 424.823 126.97 425.677 124.581 427.278C122.192 428.878 120.329 431.153 119.23 433.814C118.13 436.476 117.842 439.405 118.403 442.23C118.964 445.055 120.347 447.651 122.379 449.688C124.411 451.725 127 453.112 129.818 453.674C132.637 454.236 135.558 453.948 138.213 452.845C140.868 451.743 143.137 449.876 144.734 447.481C146.33 445.085 147.182 442.269 147.182 439.388C147.178 435.527 145.646 431.825 142.922 429.094C140.198 426.363 136.505 424.827 132.653 424.823V424.823Z" fill="#000091"/>
<path d="M153.591 616C153.159 616 152.744 615.831 152.434 615.529C152.125 615.227 151.945 614.816 151.934 614.383L145.473 375.567C145.467 375.349 145.504 375.131 145.582 374.928C145.66 374.724 145.777 374.537 145.927 374.379C146.229 374.059 146.646 373.872 147.085 373.86C147.525 373.848 147.951 374.011 148.27 374.315C148.59 374.618 148.776 375.035 148.788 375.476L155.248 614.293C155.254 614.512 155.217 614.729 155.139 614.932C155.061 615.136 154.944 615.323 154.795 615.481C154.645 615.639 154.466 615.767 154.267 615.856C154.068 615.945 153.854 615.993 153.636 615.999L153.591 616Z" fill="#000091"/>
<path d="M817.955 523.715C822.089 523.715 825.44 520.299 825.44 516.086C825.44 511.873 822.089 508.457 817.955 508.457C813.821 508.457 810.469 511.873 810.469 516.086C810.469 520.299 813.821 523.715 817.955 523.715Z" fill="white"/>
<path d="M817.955 525.173C816.191 525.173 814.468 524.64 813.001 523.642C811.535 522.643 810.393 521.224 809.718 519.564C809.043 517.903 808.866 516.076 809.21 514.314C809.554 512.551 810.404 510.932 811.65 509.661C812.897 508.391 814.486 507.525 816.215 507.175C817.945 506.824 819.737 507.004 821.367 507.692C822.996 508.379 824.388 509.544 825.368 511.038C826.347 512.533 826.87 514.289 826.87 516.086C826.868 518.496 825.928 520.805 824.256 522.509C822.585 524.212 820.318 525.17 817.955 525.173V525.173ZM817.955 509.915C816.757 509.915 815.586 510.277 814.591 510.955C813.595 511.634 812.819 512.597 812.361 513.725C811.902 514.853 811.782 516.093 812.016 517.29C812.25 518.487 812.826 519.587 813.673 520.45C814.52 521.313 815.599 521.901 816.773 522.139C817.948 522.377 819.165 522.255 820.272 521.788C821.378 521.321 822.324 520.53 822.989 519.515C823.655 518.5 824.01 517.307 824.01 516.086C824.008 514.45 823.369 512.882 822.234 511.725C821.099 510.568 819.56 509.917 817.955 509.915V509.915Z" fill="#000091"/>
<path d="M795.212 531.246C798.477 531.246 801.124 528.548 801.124 525.221C801.124 521.893 798.477 519.195 795.212 519.195C791.947 519.195 789.3 521.893 789.3 525.221C789.3 528.548 791.947 531.246 795.212 531.246Z" fill="white"/>
<path d="M795.212 532.704C793.76 532.704 792.341 532.265 791.133 531.443C789.926 530.621 788.985 529.452 788.429 528.085C787.873 526.718 787.728 525.213 788.011 523.761C788.295 522.31 788.994 520.977 790.021 519.93C791.047 518.883 792.356 518.171 793.78 517.882C795.204 517.593 796.681 517.742 798.022 518.308C799.364 518.874 800.511 519.833 801.317 521.064C802.124 522.295 802.555 523.741 802.555 525.221C802.552 527.205 801.778 529.107 800.402 530.51C799.025 531.913 797.159 532.702 795.212 532.704V532.704ZM795.212 520.654C794.326 520.654 793.46 520.922 792.723 521.424C791.986 521.925 791.411 522.639 791.072 523.473C790.733 524.308 790.644 525.226 790.817 526.112C790.99 526.998 791.417 527.812 792.043 528.451C792.67 529.09 793.469 529.525 794.338 529.701C795.207 529.877 796.109 529.787 796.927 529.441C797.746 529.095 798.446 528.51 798.939 527.759C799.431 527.008 799.694 526.125 799.694 525.221C799.693 524.01 799.22 522.849 798.38 521.993C797.54 521.137 796.401 520.655 795.212 520.654V520.654Z" fill="#000091"/>
<path d="M806.894 557.001C806.672 557.001 806.454 556.949 806.255 556.848C806.057 556.748 805.884 556.602 805.751 556.421C805.618 556.241 805.527 556.032 805.487 555.81C805.446 555.588 805.457 555.36 805.518 555.143L816.579 515.687C816.629 515.501 816.715 515.328 816.831 515.176C816.948 515.025 817.093 514.898 817.257 514.804C817.422 514.71 817.603 514.649 817.791 514.627C817.979 514.605 818.169 514.62 818.35 514.673C818.532 514.726 818.701 514.815 818.849 514.935C818.997 515.055 819.12 515.204 819.211 515.372C819.302 515.541 819.359 515.727 819.379 515.918C819.4 516.109 819.383 516.303 819.329 516.488L808.268 555.943C808.183 556.248 808.003 556.516 807.755 556.707C807.507 556.898 807.204 557.001 806.894 557.001Z" fill="#000091"/>
<path d="M806.893 556.998C806.606 556.998 806.326 556.91 806.088 556.746C805.851 556.581 805.668 556.347 805.562 556.075L793.881 525.754C793.742 525.395 793.749 524.993 793.9 524.639C794.052 524.284 794.335 524.005 794.688 523.863C795.041 523.721 795.435 523.728 795.783 523.883C796.131 524.037 796.405 524.326 796.544 524.685L808.225 555.006C808.31 555.227 808.341 555.466 808.315 555.702C808.289 555.938 808.207 556.164 808.076 556.361C807.945 556.557 807.769 556.718 807.563 556.829C807.357 556.94 807.127 556.998 806.894 556.998H806.893Z" fill="#000091"/>
<path d="M261.681 235.512C255.573 228.012 254.859 217.469 259.9 209.212C264.611 201.402 267.178 192.483 267.34 183.359C267.835 158.155 250.076 136.627 226.321 131.476L239.78 118.001C242.97 114.807 242.97 109.629 239.78 106.436C236.59 103.242 231.419 103.242 228.229 106.436L222.043 112.63V103.869C222.043 99.3524 218.386 95.6914 213.875 95.6914C209.364 95.6914 205.707 99.3524 205.707 103.869V112.633L199.518 106.437C196.328 103.244 191.157 103.244 187.967 106.437C184.777 109.631 184.777 114.809 187.967 118.002L201.996 132.047C180.046 137.89 163.734 157.771 163.4 181.626C163.265 191.295 165.822 200.81 170.786 209.105C175.769 217.407 175.296 227.938 169.135 235.427C160.112 246.403 155.302 260.245 155.572 274.458C156.136 306.627 182.376 332.824 214.512 333.276C247.539 333.752 274.698 307.331 275.173 274.265C275.376 260.159 270.597 246.435 261.681 235.512Z" fill="white"/>
<path d="M215.384 334.977C215.085 334.977 214.787 334.974 214.486 334.971C198.504 334.746 183.418 328.351 172.007 316.962C160.598 305.575 154.161 290.491 153.88 274.49C153.602 259.887 158.555 245.632 167.828 234.353C173.409 227.569 174.014 217.774 169.335 209.979C164.205 201.406 161.568 191.595 161.708 181.605C162.03 158.592 177.133 138.279 198.788 131.233L186.771 119.202C182.927 115.353 182.927 109.091 186.771 105.242C190.615 101.394 196.869 101.394 200.714 105.242L204.015 108.548V103.871C204.015 98.428 208.438 94 213.874 94C219.311 94 223.733 98.428 223.733 103.871V108.544L227.033 105.24C230.877 101.392 237.132 101.392 240.976 105.24C244.82 109.089 244.82 115.351 240.976 119.2L229.637 130.552C253.112 137.054 269.514 158.804 269.031 183.394C268.865 192.801 266.207 202.033 261.348 210.089C256.685 217.728 257.347 227.511 262.991 234.442C272.145 245.657 277.072 259.809 276.864 274.291C276.38 307.937 248.886 334.976 215.384 334.977ZM193.742 105.74C192.084 105.74 190.425 106.372 189.162 107.637C186.637 110.165 186.637 114.279 189.162 116.807L203.191 130.852C203.619 131.281 203.785 131.905 203.628 132.489C203.471 133.074 203.014 133.53 202.43 133.686C180.759 139.454 165.405 159.179 165.09 181.652C164.96 191.013 167.43 200.206 172.236 208.237C177.649 217.257 176.928 228.618 170.439 236.505C161.679 247.161 156.999 260.629 157.262 274.428C157.806 305.509 183.499 331.149 214.534 331.585C214.816 331.589 215.102 331.591 215.383 331.591C247.045 331.594 273.024 306.041 273.481 274.243C273.678 260.557 269.022 247.183 260.371 236.586C260.37 236.585 260.37 236.584 260.37 236.584C253.819 228.541 253.05 217.187 258.457 208.332C263.004 200.793 265.493 192.146 265.649 183.331C266.121 159.332 249.43 138.222 225.963 133.133C225.358 133.002 224.873 132.551 224.698 131.957C224.524 131.362 224.688 130.72 225.125 130.282L238.584 116.806C239.807 115.582 240.481 113.953 240.481 112.221C240.481 110.489 239.807 108.861 238.584 107.636C237.361 106.411 235.734 105.736 234.004 105.736C232.274 105.736 230.648 106.411 229.424 107.636L223.238 113.829C222.754 114.314 222.026 114.459 221.395 114.196C220.763 113.934 220.351 113.317 220.351 112.632V103.871C220.351 100.295 217.446 97.3862 213.874 97.3862C210.303 97.3862 207.398 100.295 207.398 103.871V112.635C207.398 113.319 206.985 113.937 206.354 114.199C205.722 114.461 204.995 114.316 204.511 113.832L198.322 107.637C197.059 106.372 195.401 105.74 193.742 105.74Z" fill="#000091"/>
<path d="M215.374 557.999C214.44 557.999 213.683 557.241 213.683 556.306V193.349C213.683 192.414 214.44 191.656 215.374 191.656C216.308 191.656 217.065 192.414 217.065 193.349V556.306C217.065 557.241 216.308 557.999 215.374 557.999Z" fill="#000091"/>
<path d="M215.751 289.513C215.322 289.513 214.892 289.35 214.562 289.024C213.898 288.366 213.892 287.294 214.549 286.629L231.268 269.709C231.925 269.045 232.996 269.039 233.66 269.696C234.324 270.354 234.329 271.426 233.673 272.091L216.954 289.011C216.623 289.345 216.188 289.513 215.751 289.513Z" fill="#000091"/>
<path d="M214.996 289.509C214.563 289.509 214.13 289.344 213.8 289.013L196.901 272.094C196.24 271.432 196.24 270.361 196.901 269.699C197.561 269.038 198.632 269.038 199.292 269.699L216.192 286.619C216.853 287.28 216.853 288.352 216.192 289.013C215.862 289.344 215.429 289.509 214.996 289.509Z" fill="#000091"/>
<path d="M215.751 266.129C215.321 266.129 214.892 265.966 214.562 265.639C213.898 264.981 213.892 263.909 214.549 263.244L231.268 246.33C231.925 245.666 232.996 245.66 233.66 246.318C234.324 246.975 234.33 248.048 233.673 248.713L216.954 265.626C216.623 265.961 216.187 266.129 215.751 266.129Z" fill="#000091"/>
<path d="M214.996 266.128C214.563 266.128 214.131 265.963 213.8 265.633L196.901 248.719C196.24 248.058 196.24 246.986 196.9 246.324C197.561 245.663 198.631 245.663 199.292 246.324L216.191 263.238C216.852 263.898 216.852 264.971 216.192 265.632C215.862 265.963 215.429 266.128 214.996 266.128Z" fill="#000091"/>
<path d="M215.751 242.755C215.322 242.755 214.892 242.592 214.562 242.266C213.898 241.608 213.892 240.536 214.549 239.871L231.268 222.952C231.925 222.287 232.996 222.281 233.66 222.939C234.324 223.596 234.329 224.668 233.673 225.333L216.954 242.253C216.623 242.587 216.188 242.755 215.751 242.755Z" fill="#000091"/>
<path d="M214.996 242.755C214.563 242.755 214.13 242.59 213.8 242.259L196.901 225.34C196.24 224.678 196.24 223.607 196.901 222.945C197.561 222.284 198.632 222.284 199.292 222.945L216.192 239.865C216.853 240.526 216.853 241.598 216.192 242.259C215.862 242.59 215.429 242.755 214.996 242.755Z" fill="#000091"/>
<path d="M215.751 219.372C215.322 219.372 214.892 219.209 214.562 218.883C213.898 218.225 213.892 217.153 214.549 216.488L231.268 199.569C231.925 198.904 232.996 198.898 233.66 199.556C234.324 200.213 234.329 201.286 233.673 201.95L216.954 218.87C216.623 219.205 216.188 219.372 215.751 219.372Z" fill="#000091"/>
<path d="M214.996 219.373C214.563 219.373 214.13 219.207 213.8 218.877L196.901 201.957C196.24 201.296 196.24 200.224 196.901 199.562C197.561 198.901 198.632 198.901 199.292 199.562L216.192 216.482C216.853 217.143 216.853 218.215 216.192 218.877C215.862 219.207 215.429 219.373 214.996 219.373Z" fill="#000091"/>
<path d="M61.4138 557.31C61.3744 557.317 61.335 557.324 61.2954 557.326C60.8228 557.377 60.348 557.233 59.9754 556.928C59.6028 556.622 59.3628 556.18 59.3083 555.697L48.9013 463.39C48.8544 462.911 48.9939 462.434 49.2896 462.063C49.5853 461.692 50.0134 461.456 50.4815 461.406C50.9496 461.356 51.4201 461.496 51.7913 461.796C52.1624 462.096 52.4045 462.532 52.4652 463.009L62.8722 555.317C62.9239 555.778 62.8021 556.241 62.5313 556.611C62.2606 556.981 61.8611 557.231 61.4138 557.31V557.31Z" fill="#000091"/>
<path d="M49.0154 445.615C48.6584 445.678 48.2898 445.63 47.9576 445.478C47.6254 445.326 47.3449 445.077 47.1525 444.763C46.9601 444.449 46.8647 444.085 46.8787 443.717C46.8927 443.349 47.0154 442.996 47.2309 442.702L54.6646 432.563C54.9496 432.174 55.3766 431.918 55.8515 431.85C56.3264 431.782 56.8103 431.909 57.1969 432.202C57.5834 432.494 57.8409 432.93 57.9126 433.412C57.9843 433.894 57.8645 434.383 57.5794 434.772L50.1458 444.911C49.8729 445.284 49.4685 445.536 49.0154 445.615V445.615Z" fill="#000091"/>
<path d="M48.9921 445.643C48.7293 445.69 48.4592 445.676 48.201 445.604C47.9428 445.532 47.703 445.403 47.4988 445.226L37.9441 436.957C37.7625 436.8 37.6128 436.609 37.5036 436.394C37.3944 436.178 37.3279 435.944 37.3078 435.704C37.2672 435.219 37.4182 434.739 37.7275 434.371C38.0369 434.002 38.4793 433.775 38.9575 433.738C39.4356 433.702 39.9103 433.86 40.2771 434.178L46.345 439.43L45.4794 431.837C45.4485 431.595 45.4652 431.351 45.5285 431.117C45.5918 430.883 45.7004 430.665 45.8481 430.475C45.9958 430.285 46.1796 430.127 46.3889 430.01C46.5981 429.893 46.8285 429.82 47.0668 429.795C47.305 429.769 47.5464 429.792 47.7768 429.862C48.0071 429.932 48.2219 430.048 48.4087 430.203C48.5955 430.357 48.7505 430.547 48.8646 430.762C48.9788 430.977 49.0499 431.213 49.0739 431.455L50.4625 443.642C50.515 444.105 50.3923 444.569 50.1191 444.94C49.846 445.311 49.4429 445.561 48.9915 445.64L48.9921 445.643Z" fill="#000091"/>
<path d="M66.506 463.747L65.8717 458.197C65.3086 453.349 66.42 448.47 69.0165 444.393L70.9239 441.383L26.1973 446.117L28.7389 448.658C32.1916 452.081 34.3728 456.604 34.9075 461.45L35.5418 467C35.7762 469.059 36.408 471.055 37.4011 472.874C38.3942 474.693 39.7291 476.3 41.3296 477.602C42.9301 478.905 44.7649 479.877 46.729 480.464C48.6931 481.052 50.7482 481.242 52.7768 481.025V481.025C54.8087 480.821 56.7767 480.211 58.5677 479.231C60.3587 478.252 61.9374 476.921 63.2132 475.315C64.4889 473.71 65.4366 471.861 66.0017 469.876C66.5668 467.891 66.7381 465.808 66.506 463.747V463.747Z" fill="#F9CFD2"/>
<path d="M1155.46 320.537C1149.84 313.643 1149.18 303.951 1153.82 296.36C1158.15 289.18 1160.51 280.98 1160.66 272.593C1161.12 249.423 1144.79 229.632 1122.94 224.897L1135.32 212.509C1138.25 209.573 1138.25 204.813 1135.32 201.877C1132.38 198.941 1127.63 198.941 1124.7 201.877L1119.01 207.571V199.518C1119.01 195.366 1115.64 192 1111.5 192C1107.35 192 1103.98 195.366 1103.98 199.518V207.574L1098.29 201.879C1095.36 198.943 1090.6 198.943 1087.67 201.879C1084.74 204.815 1084.74 209.574 1087.67 212.51L1100.57 225.422C1080.39 230.794 1065.39 249.07 1065.08 271C1064.96 279.888 1067.31 288.636 1071.87 296.262C1076.45 303.893 1076.02 313.575 1070.35 320.459C1062.06 330.549 1057.63 343.275 1057.88 356.341C1058.4 385.913 1082.53 409.997 1112.08 410.412C1142.45 410.849 1167.43 386.561 1167.87 356.163C1168.05 343.195 1163.66 330.579 1155.46 320.537Z" fill="#F9CFD2"/>
<path d="M1112.87 616.999C1112.01 616.999 1111.32 616.302 1111.32 615.443V281.775C1111.32 280.916 1112.01 280.219 1112.87 280.219C1113.73 280.219 1114.43 280.916 1114.43 281.775V615.443C1114.43 616.302 1113.73 616.999 1112.87 616.999Z" fill="#000091"/>
<path d="M1113.22 370.179C1112.83 370.179 1112.43 370.029 1112.13 369.729C1111.52 369.125 1111.51 368.139 1112.12 367.528L1127.49 351.974C1128.09 351.362 1129.08 351.357 1129.69 351.962C1130.3 352.566 1130.31 353.552 1129.7 354.163L1114.33 369.717C1114.02 370.025 1113.62 370.179 1113.22 370.179Z" fill="#000091"/>
<path d="M1112.53 370.179C1112.13 370.179 1111.73 370.027 1111.43 369.723L1095.89 354.169C1095.28 353.561 1095.28 352.576 1095.89 351.968C1096.49 351.36 1097.48 351.36 1098.09 351.968L1113.63 367.522C1114.23 368.13 1114.23 369.115 1113.63 369.723C1113.32 370.027 1112.92 370.179 1112.53 370.179Z" fill="#000091"/>
<path d="M1113.22 348.682C1112.83 348.682 1112.43 348.532 1112.13 348.232C1111.52 347.627 1111.51 346.641 1112.12 346.03L1127.49 330.481C1128.09 329.87 1129.08 329.865 1129.69 330.47C1130.3 331.074 1130.31 332.06 1129.7 332.671L1114.33 348.22C1114.02 348.528 1113.62 348.682 1113.22 348.682Z" fill="#000091"/>
<path d="M1112.53 348.681C1112.13 348.681 1111.73 348.529 1111.43 348.226L1095.89 332.677C1095.28 332.069 1095.28 331.084 1095.89 330.476C1096.49 329.868 1097.48 329.868 1098.09 330.475L1113.63 346.024C1114.23 346.632 1114.23 347.617 1113.63 348.225C1113.32 348.529 1112.92 348.681 1112.53 348.681Z" fill="#000091"/>
<path d="M1113.22 327.194C1112.83 327.194 1112.43 327.045 1112.13 326.745C1111.52 326.14 1111.51 325.155 1112.12 324.543L1127.49 308.989C1128.09 308.378 1129.08 308.373 1129.69 308.977C1130.3 309.582 1130.31 310.567 1129.7 311.179L1114.33 326.733C1114.02 327.04 1113.62 327.194 1113.22 327.194Z" fill="#000091"/>
<path d="M1112.53 327.195C1112.13 327.195 1111.73 327.043 1111.43 326.739L1095.89 311.185C1095.28 310.577 1095.28 309.591 1095.89 308.983C1096.49 308.375 1097.48 308.375 1098.09 308.983L1113.63 324.538C1114.23 325.146 1114.23 326.131 1113.63 326.739C1113.32 327.043 1112.92 327.195 1112.53 327.195Z" fill="#000091"/>
<path d="M1113.22 305.698C1112.83 305.698 1112.43 305.548 1112.13 305.249C1111.52 304.644 1111.51 303.658 1112.12 303.047L1127.49 287.493C1128.09 286.882 1129.08 286.877 1129.69 287.481C1130.3 288.086 1130.31 289.071 1129.7 289.682L1114.33 305.237C1114.02 305.544 1113.62 305.698 1113.22 305.698Z" fill="#000091"/>
<path d="M1112.53 305.699C1112.13 305.699 1111.73 305.547 1111.43 305.243L1095.89 289.689C1095.28 289.081 1095.28 288.095 1095.89 287.487C1096.49 286.879 1097.48 286.879 1098.09 287.487L1113.63 303.041C1114.23 303.65 1114.23 304.635 1113.63 305.243C1113.32 305.547 1112.92 305.699 1112.53 305.699Z" fill="#000091"/>
<path d="M921.079 36.2893C920.725 36.3297 914.094 34.6656 913.043 34.346L924.415 12.059C924.52 11.8544 924.679 11.6825 924.875 11.5625C925.071 11.4425 925.297 11.3789 925.527 11.3789H925.544C925.778 11.3818 926.005 11.45 926.202 11.5757C926.398 11.7014 926.555 11.8795 926.654 12.0898L932.435 24.239C932.447 24.2638 932.458 24.2886 932.468 24.3135C933.386 26.6223 933.252 29.1959 932.573 31.7167C932.418 31.7954 924.89 35.852 921.079 36.2893Z" fill="white"/>
<path d="M921.166 37.6638C920.027 37.6638 912.709 35.6866 912.64 35.6659C912.446 35.6072 912.268 35.507 912.118 35.3723C911.968 35.2376 911.849 35.0718 911.77 34.8864C911.691 34.701 911.653 34.5005 911.66 34.2992C911.667 34.0978 911.718 33.9004 911.81 33.7208L923.182 11.4337C923.405 10.9968 923.747 10.631 924.168 10.3776C924.589 10.1242 925.072 9.9935 925.564 10.0002C926.056 10.007 926.535 10.1509 926.949 10.4158C927.363 10.6806 927.694 11.0557 927.905 11.4986L933.686 23.6487C933.709 23.6947 933.729 23.7429 933.749 23.7903C934.697 26.175 934.749 28.9574 933.91 32.0741C933.86 32.2612 933.771 32.4357 933.648 32.5862C933.526 32.7367 933.374 32.8599 933.201 32.9478L933.158 32.9703C931.277 33.9659 924.857 37.2468 921.238 37.6606C921.214 37.663 921.19 37.6641 921.166 37.6638V37.6638ZM915.048 33.4596C917.115 33.993 920.326 34.7743 921.064 34.9012C923.483 34.5669 927.868 32.6121 931.381 30.7834C931.912 28.493 931.845 26.49 931.182 24.8226L925.524 12.9305L915.048 33.4596Z" fill="#000091"/>
<path d="M934.505 44.647L953.696 37.7496C954.195 37.575 954.733 37.5428 955.25 37.6566C955.766 37.7704 956.24 38.0257 956.619 38.3937C956.998 38.7617 957.266 39.2279 957.393 39.7396C957.52 40.2514 957.502 40.7884 957.34 41.2903V41.2903C957.198 41.6996 956.968 42.0727 956.665 42.3827C956.362 42.6928 955.994 42.9321 955.587 43.0836L950.975 44.693L954.895 45.3368C955.635 45.4526 956.299 45.8568 956.74 46.4605C957.181 47.0641 957.364 47.8178 957.247 48.5556C957.131 49.2934 956.726 49.955 956.12 50.3948C955.515 50.8346 954.759 51.0166 954.019 50.9007L941.416 48.9119" fill="white"/>
<path d="M954.469 52.3171C954.246 52.3171 954.023 52.2997 953.803 52.2651L941.198 50.2759C940.839 50.2152 940.518 50.0157 940.306 49.7207C940.093 49.4258 940.006 49.0591 940.063 48.7004C940.12 48.3417 940.316 48.0198 940.61 47.8046C940.903 47.5894 941.27 47.4983 941.63 47.551L954.233 49.5397C954.456 49.5745 954.683 49.558 954.898 49.4915C955.113 49.4249 955.31 49.3101 955.474 49.1558C955.667 48.9759 955.804 48.7447 955.869 48.4895C955.935 48.2342 955.925 47.9657 955.843 47.7156C955.765 47.4529 955.614 47.2177 955.407 47.0379C955.2 46.8581 954.945 46.7411 954.674 46.7007L950.747 46.057C950.444 46.0068 950.167 45.8575 949.958 45.6326C949.75 45.4077 949.622 45.12 949.596 44.8148C949.569 44.5096 949.645 44.2043 949.812 43.9471C949.979 43.6899 950.227 43.4953 950.517 43.3941L955.103 41.7934C955.316 41.7136 955.508 41.5884 955.668 41.4268C955.827 41.2651 955.949 41.0707 956.025 40.8572C956.112 40.6038 956.123 40.331 956.058 40.0712C955.994 39.8115 955.855 39.5758 955.66 39.3922C955.468 39.1979 955.225 39.0626 954.958 39.0024C954.692 38.9422 954.414 38.9597 954.157 39.0528L934.972 45.9462C934.801 46.0098 934.618 46.039 934.435 46.0319C934.253 46.0249 934.073 45.9817 933.907 45.905C933.741 45.8283 933.592 45.7196 933.469 45.5851C933.345 45.4506 933.25 45.293 933.187 45.1214C933.125 44.9498 933.098 44.7677 933.107 44.5855C933.116 44.4033 933.161 44.2248 933.24 44.0601C933.319 43.8955 933.429 43.748 933.566 43.6263C933.702 43.5045 933.861 43.4109 934.034 43.3509L953.225 36.4534C953.969 36.1903 954.772 36.1402 955.542 36.3087C956.313 36.4772 957.021 36.8576 957.586 37.4068C958.151 37.956 958.55 38.652 958.739 39.416C958.927 40.1799 958.897 40.9812 958.652 41.7291C958.455 42.3061 958.138 42.8348 957.721 43.2803C957.304 43.7258 956.797 44.0779 956.233 44.3133C956.771 44.5618 957.251 44.9208 957.64 45.3668C958.029 45.8129 958.32 46.3359 958.493 46.9017C958.727 47.6462 958.746 48.4415 958.547 49.1962C958.349 49.951 957.941 50.6347 957.371 51.1689C956.585 51.9052 955.547 52.3157 954.469 52.3171Z" fill="#000091"/>
<path d="M897.754 39.3125L886.87 40.3701L897.524 44.6465L897.754 39.3125Z" fill="#000091"/>
<path d="M902.596 49.3365C904.569 50.2407 906.224 51.7144 907.347 53.567C908.59 55.5704 910.24 57.2931 912.189 58.6251C919.153 63.4993 928.699 62.2577 934.557 56.096L941.428 48.8307L920.813 35.5876C918.371 34.6537 916.12 33.2823 914.172 31.5411C912.292 29.8977 909.897 28.9582 907.398 28.8837C904.899 28.8092 902.452 29.6046 900.477 31.1331C898.502 32.6616 897.123 34.828 896.575 37.2603C896.028 39.6925 896.347 42.239 897.477 44.4623C898.593 46.6087 900.394 48.3235 902.596 49.3365V49.3365Z" fill="white"/>
<path d="M921.748 62.977C918.046 62.9924 914.43 61.8671 911.394 59.755C909.291 58.3188 907.512 56.4594 906.172 54.2964C905.197 52.6787 903.756 51.3905 902.037 50.5989L902.022 50.592C899.543 49.4533 897.515 47.5244 896.257 45.1094C894.97 42.6005 894.6 39.7223 895.213 36.9711C895.826 34.2198 897.382 31.7679 899.613 30.0379C901.844 28.3078 904.611 27.4082 907.436 27.4939C910.262 27.5796 912.968 28.6454 915.09 30.5075C916.912 32.1363 919.017 33.42 921.302 34.2956C921.393 34.3301 921.481 34.374 921.563 34.4267L942.178 47.6698C942.348 47.7795 942.493 47.9253 942.601 48.0969C942.708 48.2685 942.777 48.4617 942.802 48.6627C942.826 48.8637 942.806 49.0676 942.743 49.26C942.679 49.4524 942.574 49.6285 942.435 49.7758L935.563 57.0411C933.784 58.913 931.643 60.4046 929.268 61.425C926.893 62.4455 924.334 62.9735 921.748 62.977V62.977ZM903.162 48.0785C905.386 49.0933 907.253 50.7509 908.52 52.8364C909.661 54.6793 911.177 56.2633 912.969 57.4862C919.26 61.89 928.103 60.8797 933.553 55.148L939.28 49.0925L920.185 36.8256C917.64 35.8327 915.293 34.3938 913.256 32.5768C911.619 31.1471 909.533 30.3299 907.357 30.2652C905.182 30.2006 903.051 30.8925 901.331 32.2224C899.611 33.5523 898.408 35.4374 897.929 37.5545C897.45 39.6716 897.724 41.889 898.705 43.8265C899.677 45.6975 901.246 47.1932 903.164 48.0785H903.162Z" fill="#000091"/>
<path d="M903.427 43.4516C904.955 43.4516 906.194 42.2163 906.194 40.6926C906.194 39.1688 904.955 37.9336 903.427 37.9336C901.899 37.9336 900.66 39.1688 900.66 40.6926C900.66 42.2163 901.899 43.4516 903.427 43.4516Z" fill="#000091"/>
<path d="M911.478 46.5632C911.074 46.2615 910.709 45.9112 910.391 45.5203C910.365 45.4863 910.341 45.4513 910.319 45.4155C909.358 43.8622 909.032 42.0001 909.408 40.2139C909.657 39.1022 909.481 37.9377 908.914 36.9491C908.84 36.8461 908.775 36.7435 908.71 36.6405C908.672 36.5812 908.637 36.521 908.592 36.4617C908.57 36.4327 908.549 36.4023 908.529 36.3697C907.929 35.411 906.971 34.7292 905.867 34.4741C904.762 34.219 903.601 34.4114 902.639 35.0091L897.335 38.3198C897.104 38.4641 896.835 38.537 896.562 38.5292C896.289 38.5213 896.025 38.4333 895.802 38.276C895.579 38.1187 895.408 37.8992 895.31 37.6452C895.212 37.3912 895.192 37.1139 895.252 36.8484C895.884 34.0235 897.532 31.5276 899.885 29.8328C902.115 28.1878 904.844 27.3581 907.615 27.483C910.386 27.608 913.029 28.6799 915.101 30.5188C916.717 31.9878 918.573 33.1709 920.589 34.0172L945.701 14.6326C945.906 14.4746 946.151 14.377 946.408 14.3509C946.665 14.3247 946.925 14.3711 947.157 14.4847C947.39 14.5983 947.585 14.7746 947.722 14.9935C947.859 15.2125 947.932 15.4653 947.932 15.7233V30.6218C947.932 30.6522 947.932 30.6821 947.929 30.7138C947.302 40.2323 932.617 46.9329 931.064 47.6148C928.348 49.3658 925.184 50.2994 921.95 50.3039C918.13 50.3064 914.428 48.984 911.478 46.5632V46.5632Z" fill="#000091"/>
<path d="M920.018 36.7497C919.832 36.6302 919.677 36.4678 919.566 36.2761C919.456 36.0844 919.393 35.869 919.384 35.6482C919.374 35.4273 919.418 35.2074 919.512 35.007C919.605 34.8066 919.746 34.6315 919.921 34.4966L945.702 14.6319C945.906 14.4741 946.151 14.3767 946.408 14.3508C946.666 14.3248 946.925 14.3713 947.158 14.485C947.39 14.5986 947.585 14.775 947.722 14.9939C947.859 15.2128 947.931 15.4656 947.931 15.7235V21.3794C947.922 23.8998 947.253 26.3742 945.992 28.5587C944.732 30.7431 942.922 32.5624 940.741 33.8372L935.119 37.0997C932.922 38.3904 930.42 39.0718 927.87 39.0732C925.083 39.0682 922.357 38.2614 920.018 36.7497V36.7497Z" fill="#F9CFD2"/>
<path d="M982.981 326.773L975.491 325.81C972.07 325.37 968.92 327.806 968.456 331.253C968.325 332.223 968.421 333.209 968.735 334.132L975.504 354.046L987.311 336.52C989.257 333.635 988.524 329.727 985.673 327.791C984.868 327.244 983.946 326.896 982.981 326.773Z" fill="#F9CFD2"/>
<path d="M948.416 346.635L947.398 354.195C946.929 357.648 949.327 360.808 952.755 361.252C953.722 361.378 954.707 361.274 955.63 360.949L975.514 353.967L958.156 342.191C955.292 340.254 951.392 341.032 949.444 343.929C948.898 344.74 948.546 345.667 948.416 346.635Z" fill="#F9CFD2"/>
<path d="M128.809 71.7482L129.758 66.6065C130.19 64.2583 132.47 62.6993 134.851 63.1239C135.521 63.2434 136.154 63.5157 136.698 63.919L148.45 72.6039L134.35 76.6682C132.025 77.3375 129.591 76.0217 128.913 73.7286C128.723 73.0853 128.688 72.4076 128.809 71.7482Z" fill="white"/>
<path d="M131.988 78.0456C131.43 77.9337 130.887 77.7384 130.373 77.4605C129.034 76.7365 128.061 75.5412 127.634 74.0951C127.388 73.261 127.34 72.3676 127.497 71.5128C127.498 71.5124 127.498 71.512 127.498 71.512L128.447 66.3713C128.719 64.8908 129.561 63.6024 130.815 62.7442C132.07 61.8861 133.588 61.5613 135.089 61.8295C135.964 61.9855 136.793 62.3431 137.5 62.8666L149.25 71.5484C149.654 71.8474 149.852 72.3459 149.762 72.8362C149.671 73.3266 149.308 73.7246 148.822 73.8645L134.724 77.9281C133.82 78.1887 132.886 78.2253 131.988 78.0456ZM130.123 71.9811C130.039 72.437 130.064 72.9129 130.196 73.3574C130.424 74.1291 130.943 74.7665 131.657 75.1526C132.372 75.5389 133.196 75.6274 133.978 75.4024L145.515 72.0775L135.899 64.9717C135.522 64.6925 135.082 64.5033 134.613 64.4182C133.813 64.2753 133.004 64.4485 132.335 64.9061C131.666 65.3634 131.217 66.0501 131.072 66.8396L130.123 71.9811Z" fill="#000091"/>
<path d="M149.334 53.3368L154.535 54.2672C156.911 54.7005 158.48 56.9512 158.04 59.295C157.917 59.9472 157.644 60.5628 157.241 61.0941L148.441 72.6687L144.341 58.782C143.671 56.4925 145.01 54.0994 147.331 53.4368C147.983 53.251 148.668 53.2167 149.334 53.3368Z" fill="white"/>
<path d="M148.175 73.9549C147.691 73.858 147.301 73.5047 147.163 73.036L143.062 59.1476C142.188 56.163 143.938 53.0353 146.962 52.1724C147.806 51.9313 148.709 51.8862 149.573 52.0418L154.775 52.9724C157.874 53.5383 159.925 56.4791 159.351 59.5315C159.192 60.3779 158.831 61.1892 158.309 61.8784L149.506 73.4551C149.203 73.8532 148.699 74.0487 148.203 73.96C148.193 73.9586 148.184 73.9568 148.175 73.9549ZM154.347 55.5658C154.329 55.5622 154.312 55.5586 154.294 55.5555L149.096 54.6258C149.095 54.6257 149.095 54.6256 149.095 54.6255C148.633 54.5425 148.152 54.5667 147.701 54.6953C146.088 55.1556 145.155 56.8239 145.621 58.4147L148.976 69.778L156.178 60.3051C156.456 59.9386 156.648 59.5058 156.733 59.0543C157.035 57.4436 155.968 55.8904 154.347 55.5658ZM149.334 53.3337L149.338 53.3346L149.334 53.3337Z" fill="#000091"/>
<path d="M1138.05 151.936L1143.36 150.395C1145.78 149.691 1148.33 151.078 1149.04 153.494C1149.24 154.175 1149.28 154.892 1149.16 155.589L1146.47 170.622L1136.01 159.412C1134.28 157.564 1134.38 154.678 1136.23 152.966C1136.75 152.487 1137.37 152.134 1138.05 151.936Z" fill="white"/>
<path d="M1133.59 157.862C1133.43 157.29 1133.36 156.692 1133.38 156.082C1133.44 154.494 1134.11 153.025 1135.28 151.946C1135.95 151.323 1136.77 150.858 1137.66 150.601C1137.66 150.601 1137.66 150.601 1137.66 150.601L1142.96 149.06C1144.49 148.616 1146.1 148.792 1147.51 149.555C1148.91 150.319 1149.93 151.579 1150.38 153.103C1150.64 153.991 1150.69 154.932 1150.53 155.836L1147.84 170.87C1147.75 171.387 1147.37 171.807 1146.87 171.954C1146.36 172.101 1145.81 171.95 1145.45 171.564L1134.99 160.354C1134.31 159.635 1133.84 158.782 1133.59 157.862ZM1138.45 153.266C1137.98 153.403 1137.54 153.651 1137.18 153.983C1136.56 154.559 1136.2 155.343 1136.17 156.19C1136.14 157.037 1136.44 157.846 1137.02 158.468L1145.59 167.642L1147.79 155.338C1147.88 154.856 1147.85 154.357 1147.71 153.88C1147.47 153.068 1146.92 152.396 1146.18 151.989C1145.43 151.582 1144.57 151.488 1143.75 151.725L1138.45 153.266Z" fill="#000091"/>
<path d="M1165.24 162.233L1166.81 167.536C1167.52 169.962 1166.12 172.494 1163.69 173.192C1163.01 173.386 1162.3 173.422 1161.61 173.297L1146.47 170.551L1157.71 160.144C1159.57 158.433 1162.47 158.552 1164.2 160.409C1164.68 160.929 1165.04 161.554 1165.24 162.233Z" fill="white"/>
<path d="M1145.12 170.911C1144.99 170.413 1145.14 169.881 1145.52 169.53L1156.76 159.125C1159.18 156.896 1162.98 157.051 1165.22 159.468C1165.85 160.143 1166.32 160.965 1166.58 161.846L1168.15 167.148C1169.07 170.311 1167.25 173.62 1164.08 174.528C1163.2 174.78 1162.26 174.827 1161.36 174.665L1146.22 171.918C1145.7 171.823 1145.28 171.444 1145.13 170.939C1145.13 170.929 1145.13 170.92 1145.12 170.911ZM1165.48 167.975C1165.48 167.957 1165.47 167.939 1165.47 167.92L1163.9 162.623C1163.9 162.623 1163.9 162.622 1163.9 162.622C1163.76 162.152 1163.51 161.713 1163.18 161.353C1161.98 160.063 1159.95 159.981 1158.66 161.169L1149.46 169.682L1161.85 171.929C1162.33 172.015 1162.83 171.99 1163.3 171.856C1164.97 171.376 1165.94 169.643 1165.48 167.975ZM1165.24 162.234L1165.24 162.239L1165.24 162.234Z" fill="#000091"/>
</svg>
