<svg width="1200" height="700" viewBox="0 0 1200 700" fill="none" xmlns="http://www.w3.org/2000/svg">
<path d="M533.622 484.633H315.712V666.117H533.622V484.633Z" fill="#FFCBCF"/>
<path d="M426.105 247.101C420.17 251.536 413.121 256.757 408.02 260.341C395.159 269.451 353.905 284.684 350.829 274.36C348.963 268.084 360.512 266.262 380.181 257.658C361.47 262.213 347.399 264.187 346.239 257.557C345.079 250.927 364.042 246.423 378.466 243.032C368.329 240.957 354.561 238.629 354.46 233.416C354.359 225.875 366.261 227.393 374.179 227.545C391.78 227.95 394.1 219.649 401.312 211.096C403.498 208.583 406.183 206.557 409.196 205.148" fill="white"/>
<path d="M358.46 279.31C356.739 279.356 355.022 279.121 353.377 278.613C350.741 277.698 349.746 276.032 349.379 274.793C348.122 270.564 351.823 268.23 353.039 267.463C355.527 265.895 359.281 264.39 364.005 262.559C355.351 263.88 350.193 263.543 347.294 261.639C346.624 261.22 346.05 260.662 345.611 260.004C345.173 259.345 344.879 258.6 344.749 257.819C343.589 251.197 355.15 247.194 371.457 243.155C361.824 241.13 353.049 238.697 352.948 233.444C352.904 232.56 353.046 231.678 353.365 230.853C353.685 230.029 354.174 229.281 354.8 228.659C358.099 225.429 365.032 225.694 371.146 225.926C372.205 225.967 373.238 226.006 374.209 226.025C387.916 226.34 391.748 221.19 396.608 214.672C397.709 213.195 398.848 211.667 400.158 210.113C402.483 207.44 405.337 205.283 408.539 203.779C408.898 203.619 409.305 203.606 409.674 203.741C410.042 203.877 410.344 204.152 410.515 204.506C410.686 204.861 410.712 205.269 410.589 205.643C410.466 206.017 410.202 206.329 409.854 206.512C407.035 207.83 404.519 209.724 402.469 212.071C401.216 213.557 400.106 215.048 399.031 216.489C393.863 223.422 389.384 229.411 374.146 229.058C373.163 229.04 372.112 229 371.031 228.957C365.795 228.757 359.28 228.509 356.914 230.83C356.583 231.164 356.327 231.566 356.165 232.008C356.003 232.45 355.937 232.922 355.973 233.392C356.043 236.969 368.744 239.522 376.332 241.048C377.162 241.214 377.977 241.378 378.769 241.541C379.107 241.61 379.412 241.793 379.632 242.059C379.852 242.326 379.974 242.66 379.979 243.006C379.984 243.352 379.871 243.69 379.659 243.963C379.447 244.235 379.148 244.427 378.812 244.506C371.959 246.117 363.43 248.122 357.035 250.5C348.461 253.688 347.526 256.123 347.73 257.291C347.79 257.663 347.93 258.017 348.141 258.329C348.352 258.64 348.629 258.902 348.951 259.095C353.534 262.103 368.765 258.871 379.825 256.179C380.193 256.09 380.58 256.142 380.912 256.326C381.243 256.51 381.494 256.811 381.614 257.171C381.735 257.531 381.717 257.923 381.563 258.27C381.41 258.617 381.133 258.894 380.786 259.046C375.363 261.418 370.649 263.242 366.486 264.851C355.973 268.916 351.363 270.843 352.279 273.922C352.369 274.223 352.642 275.143 354.366 275.74C363.92 279.054 395.565 267.302 407.148 259.096C411.272 256.199 417.176 251.877 425.203 245.879C425.363 245.76 425.544 245.674 425.736 245.625C425.929 245.576 426.129 245.566 426.326 245.595C426.523 245.624 426.712 245.691 426.882 245.793C427.053 245.895 427.202 246.03 427.32 246.19C427.439 246.35 427.525 246.532 427.574 246.725C427.623 246.919 427.633 247.12 427.604 247.317C427.575 247.514 427.508 247.704 427.406 247.875C427.305 248.046 427.17 248.196 427.011 248.315C418.961 254.331 413.033 258.67 408.89 261.581C399.23 268.425 372.439 279.31 358.46 279.31Z" fill="#000091"/>
<path d="M406.992 225.863C402.867 230.095 399.334 235.479 394.706 240.191C384.822 250.313 379.375 257.651 380.333 260.891C382.451 268.28 400.043 250.982 416.938 241.822" fill="white"/>
<path d="M382.63 264.2C382.149 264.205 381.671 264.127 381.216 263.97C380.636 263.757 380.119 263.403 379.711 262.939C379.303 262.475 379.016 261.916 378.878 261.313C378.131 258.789 379.13 253.974 393.625 239.13C395.902 236.737 398.058 234.23 400.083 231.618C402.033 229.189 403.874 226.892 405.909 224.804C406.19 224.517 406.573 224.352 406.974 224.348C407.375 224.343 407.762 224.499 408.049 224.78C408.336 225.062 408.5 225.446 408.504 225.849C408.509 226.252 408.354 226.64 408.073 226.928C406.14 228.911 404.341 231.151 402.441 233.522C400.354 236.213 398.132 238.795 395.783 241.26C382.151 255.22 381.451 259.338 381.784 260.461C381.939 261.005 382.132 261.074 382.224 261.106C384.42 261.884 391.879 256.629 398.464 251.996C403.926 248.153 410.114 243.797 416.216 240.49C416.391 240.395 416.583 240.336 416.781 240.315C416.978 240.295 417.178 240.314 417.368 240.371C417.559 240.428 417.736 240.522 417.89 240.648C418.044 240.773 418.172 240.929 418.267 241.104C418.361 241.279 418.42 241.472 418.441 241.67C418.461 241.868 418.442 242.069 418.385 242.26C418.329 242.451 418.235 242.629 418.109 242.784C417.984 242.938 417.83 243.067 417.655 243.162C411.708 246.385 405.594 250.687 400.2 254.483C391.635 260.508 386.194 264.199 382.63 264.2Z" fill="#000091"/>
<path d="M483.161 158.453L421.916 191.852C414.865 195.698 409.624 202.197 407.348 209.92C405.071 217.643 405.945 225.957 409.778 233.034C413.61 240.11 420.086 245.369 427.782 247.654C435.478 249.938 443.763 249.061 450.815 245.215L470.605 234.423L490.274 178.32L483.161 158.453Z" fill="white"/>
<path d="M436.392 250.427C429.325 250.431 422.458 248.072 416.877 243.721C411.296 239.371 407.32 233.277 405.576 226.405C403.833 219.532 404.422 212.272 407.25 205.773C410.079 199.274 414.985 193.907 421.194 190.52L482.438 157.122C482.63 157.017 482.842 156.956 483.059 156.941C483.277 156.926 483.495 156.959 483.699 157.037C483.903 157.115 484.088 157.236 484.241 157.392C484.393 157.549 484.511 157.736 484.585 157.942L491.696 177.809C491.813 178.137 491.815 178.496 491.699 178.826L472.03 234.929C471.906 235.283 471.654 235.579 471.324 235.759L451.534 246.551C446.886 249.086 441.681 250.418 436.392 250.427V250.427ZM482.333 160.635L422.639 193.188C419.322 194.997 416.393 197.444 414.018 200.389C411.643 203.334 409.87 206.719 408.799 210.352C407.728 213.985 407.38 217.794 407.776 221.561C408.172 225.329 409.304 228.981 411.106 232.31C412.909 235.639 415.347 238.578 418.282 240.961C421.216 243.345 424.59 245.124 428.21 246.199C431.83 247.274 435.626 247.622 439.38 247.225C443.134 246.827 446.774 245.692 450.091 243.883L469.369 233.37L488.668 178.327L482.333 160.635Z" fill="#000091"/>
<path d="M592.135 95.7934C595.687 93.8502 599.593 92.6438 603.619 92.2461L636.401 117.243C636.967 120.495 636.999 123.818 636.496 127.08L584.585 149.978L592.135 95.7934Z" fill="white"/>
<path d="M584.583 151.498C584.367 151.498 584.153 151.451 583.956 151.361C583.759 151.271 583.584 151.14 583.442 150.976C583.3 150.812 583.194 150.62 583.133 150.412C583.071 150.204 583.055 149.985 583.085 149.77L590.636 95.5846C590.669 95.3494 590.756 95.1252 590.891 94.9299C591.026 94.7347 591.204 94.5739 591.412 94.4605C595.141 92.4179 599.242 91.1517 603.47 90.7376C603.85 90.7006 604.23 90.8091 604.533 91.0412L637.315 116.038C637.618 116.27 637.824 116.608 637.889 116.985C638.485 120.4 638.519 123.889 637.99 127.315C637.951 127.567 637.85 127.806 637.695 128.008C637.54 128.211 637.337 128.371 637.104 128.474L585.193 151.369C585.001 151.454 584.793 151.498 584.583 151.498V151.498ZM593.526 96.7749L586.457 147.495L635.113 126.032C635.444 123.391 635.407 120.717 635.003 118.086L603.18 93.8203C599.812 94.2213 596.543 95.2219 593.526 96.7749Z" fill="#000091"/>
<path d="M712.085 157.8C709.287 148.912 703.328 141.368 695.343 136.606C687.359 131.845 677.907 130.199 668.791 131.982L635.523 136.818L589.124 184.899L568.874 212.84L506.15 163.162C503.518 163.99 500.953 165.021 498.478 166.245C474.619 178.046 463.653 205.23 472.699 228.429L452.253 286.959C442.671 294.854 426.734 308.063 410.141 322.234C400.307 330.585 390.27 339.341 381.243 347.54C369.895 357.814 360.111 367.177 354.16 373.908L410.847 424.165C424.363 408.88 477.722 363.938 508.234 339.138C513.681 334.694 517.8 328.827 520.136 322.184L545.127 250.602C545.473 250.392 595.845 234.202 595.845 234.202L594.534 233.161L595.178 233.485L619.398 198.343L598.659 228.784L662.257 266.208L693.626 213.674L708.504 188.773C709.212 187.579 709.852 186.346 710.421 185.079C714.361 176.516 714.955 166.781 712.085 157.8V157.8Z" fill="white"/>
<path d="M411.653 423.916L393.447 447.905C392.8 448.754 392.328 449.724 392.057 450.757C391.785 451.79 391.72 452.867 391.866 453.926C392.011 454.984 392.364 456.003 392.903 456.925C393.443 457.846 394.159 458.65 395.01 459.293C395.738 459.852 396.557 460.28 397.431 460.558C411.149 463.645 415.335 471.136 414.377 485.256L356.126 485.661L340.391 472.148L344.224 420.677L317.393 452.41L301.457 438.745L355.168 375.633L411.653 423.916Z" fill="#000091"/>
<path d="M472.979 300.929C482.895 300.929 490.933 292.863 490.933 282.912C490.933 272.961 482.895 264.895 472.979 264.895C463.063 264.895 455.025 272.961 455.025 282.912C455.025 292.863 463.063 300.929 472.979 300.929Z" fill="#FFCBCF"/>
<path d="M413.217 332.711C413.229 336.428 412.178 340.071 410.189 343.206C408.2 346.342 405.355 348.838 401.994 350.4C398.632 351.961 394.895 352.522 391.225 352.015C387.556 351.508 384.108 349.955 381.292 347.54C390.32 339.341 400.356 330.585 410.191 322.234C412.161 325.372 413.21 329.003 413.217 332.711V332.711Z" fill="#FFCBCF"/>
<path d="M540.358 264.288L528.91 297.134C526.152 296.942 523.475 296.113 521.087 294.713C518.7 293.313 516.667 291.379 515.146 289.062C513.625 286.745 512.657 284.107 512.318 281.353C511.979 278.599 512.277 275.804 513.19 273.184C514.103 270.565 515.606 268.193 517.581 266.251C519.557 264.31 521.952 262.852 524.581 261.991C527.21 261.131 530.001 260.89 532.737 261.288C535.474 261.687 538.082 262.713 540.358 264.288V264.288Z" fill="#FFCBCF"/>
<path d="M586.976 213.27C586.777 213.68 560.642 230.507 558.582 232.34C559.235 234.659 560.347 236.823 561.852 238.702C563.356 240.581 565.222 242.137 567.339 243.277L591.9 235.483C593.76 231.779 594.286 227.543 593.389 223.494C592.491 219.445 590.226 215.833 586.976 213.27V213.27Z" fill="#FFCBCF"/>
<path d="M619.535 198.426C618.352 200.404 602.954 223.203 602.625 223.324C603.863 226.327 605.886 228.939 608.482 230.882C611.078 232.825 614.149 234.028 617.37 234.362C620.591 234.697 623.842 234.151 626.779 232.782C629.716 231.413 632.23 229.273 634.054 226.587C635.878 223.902 636.944 220.772 637.139 217.528C637.334 214.284 636.652 211.047 635.164 208.161C633.676 205.275 631.437 202.846 628.686 201.132C625.935 199.418 622.772 198.483 619.535 198.426V198.426Z" fill="#FFCBCF"/>
<path d="M674.512 130.875C671.334 131.077 649.011 138.586 648.779 139.116C653.116 139.218 670.148 138.251 672.589 143.226C675.309 148.771 646.753 154.5 646.581 154.607C647.058 155.603 661.126 160.774 663.001 164.184C667.083 164.696 671.217 163.786 674.711 161.606C678.205 159.425 680.847 156.107 682.195 152.206C683.543 148.306 683.515 144.058 682.117 140.176C680.718 136.293 678.033 133.009 674.512 130.875Z" fill="#FFCBCF"/>
<path d="M452.352 371.988C462.268 371.988 470.306 363.921 470.306 353.971C470.306 344.02 462.268 335.953 452.352 335.953C442.436 335.953 434.397 344.02 434.397 353.971C434.397 363.921 442.436 371.988 452.352 371.988Z" fill="#FFCBCF"/>
<path d="M710.925 184.573C710.356 185.84 709.716 187.073 709.008 188.267L694.13 213.168C691.19 212.776 688.393 211.66 685.987 209.92C683.582 208.179 681.643 205.867 680.345 203.192C679.047 200.516 678.429 197.559 678.546 194.585C678.664 191.612 679.514 188.713 681.02 186.149C682.526 183.585 684.641 181.436 687.176 179.892C689.712 178.348 692.589 177.458 695.55 177.302C698.512 177.146 701.466 177.728 704.149 178.997C706.832 180.266 709.159 182.181 710.925 184.573V184.573Z" fill="#FFCBCF"/>
<path d="M662.263 265.94L651.212 286.858C649.355 290.389 648.97 294.515 650.143 298.33C651.315 302.145 653.949 305.337 657.466 307.204C657.989 307.487 658.528 307.741 659.079 307.963V307.963C672.949 310.241 681.421 324.31 680.211 338.431L628.517 337.824L604.511 324.817L597.45 273.7L577.932 310.392L559.474 300.473L595.015 234.188L598.66 227.391L662.263 265.94Z" fill="#000091"/>
<path d="M508.31 118.002C503.065 114.003 494.365 104.055 490.38 109.318L470.459 135.231C469.511 136.48 468.817 137.905 468.418 139.423C468.019 140.941 467.922 142.524 468.132 144.08C468.343 145.635 468.858 147.134 469.646 148.491C470.435 149.847 471.482 151.034 472.729 151.983L482.667 159.581L508.31 118.002Z" fill="#000091"/>
<path d="M525.393 126.016C526.603 122.968 527.576 120.054 529.727 117.513C529.818 117.408 529.921 117.313 530.032 117.23C529.621 116.804 529.179 116.408 528.71 116.047L510.654 102.23C509.42 101.281 508.011 100.586 506.508 100.185C505.006 99.7832 503.439 99.683 501.898 99.8899C500.357 100.097 498.871 100.607 497.527 101.39C496.182 102.174 495.005 103.216 494.062 104.457L490.38 109.315L521.598 133.229C522.867 130.821 524.386 128.547 525.393 126.016Z" fill="#FFCBCF"/>
<path d="M623.472 129.92C625.766 128.791 628.385 127.725 630.984 127.447C630.082 123.552 628.731 119.776 626.958 116.195C625.016 118.385 622.953 120.462 620.839 122.485C621.18 124.454 622.274 126.269 622.917 128.142C623.119 128.729 623.299 129.324 623.472 129.92Z" fill="#000091"/>
<path d="M662.76 267.224C662.491 267.224 662.227 267.152 661.996 267.015L598.394 229.59C598.215 229.485 598.06 229.344 597.937 229.175C597.815 229.007 597.728 228.816 597.683 228.612C597.638 228.409 597.634 228.199 597.674 227.994C597.713 227.79 597.793 227.595 597.91 227.424L618.649 196.983C618.876 196.65 619.225 196.422 619.619 196.347C620.013 196.273 620.421 196.359 620.752 196.586C621.083 196.814 621.311 197.164 621.385 197.559C621.459 197.955 621.374 198.364 621.147 198.697L601.323 227.792L662.232 263.635L692.831 212.391L707.709 187.49C708.386 186.351 708.997 185.174 709.538 183.965C712.322 177.871 713.377 171.125 712.589 164.468C711.801 157.811 709.199 151.501 705.07 146.231C700.942 140.961 695.445 136.935 689.185 134.595C682.925 132.256 676.143 131.693 669.585 132.969C669.39 133.008 669.189 133.007 668.994 132.968C668.8 132.929 668.614 132.851 668.449 132.74C668.285 132.629 668.143 132.486 668.033 132.32C667.923 132.154 667.847 131.968 667.808 131.772C667.77 131.576 667.771 131.375 667.81 131.18C667.849 130.984 667.926 130.798 668.037 130.633C668.148 130.467 668.29 130.325 668.456 130.215C668.621 130.104 668.807 130.028 669.002 129.989C676.105 128.606 683.45 129.214 690.231 131.746C697.013 134.278 702.967 138.637 707.441 144.343C711.915 150.05 714.735 156.883 715.592 164.093C716.448 171.303 715.308 178.61 712.297 185.213C711.709 186.524 711.047 187.801 710.314 189.036L695.427 213.952L664.057 266.487C663.923 266.711 663.733 266.898 663.505 267.027C663.278 267.156 663.021 267.224 662.76 267.224V267.224Z" fill="#000091"/>
<path d="M692.063 289.603C685.245 289.603 657.926 282.387 654.756 281.543C654.45 281.462 654.177 281.286 653.976 281.041C653.774 280.796 653.655 280.493 653.634 280.176C653.613 279.859 653.691 279.543 653.859 279.274C654.026 279.004 654.273 278.793 654.566 278.672C657.676 277.383 685.12 266.065 690.946 265.655C692.519 265.578 694.091 265.813 695.573 266.349C697.054 266.884 698.416 267.708 699.579 268.774C701.291 270.344 702.511 272.38 703.09 274.633C703.67 276.887 703.584 279.261 702.843 281.466C702.102 283.672 700.738 285.613 698.917 287.055C697.096 288.496 694.897 289.375 692.587 289.585H692.57C692.417 289.597 692.247 289.603 692.063 289.603ZM659.929 279.757C670.422 282.455 688.452 286.825 692.35 286.558C694.071 286.395 695.708 285.734 697.062 284.656C698.416 283.578 699.429 282.128 699.979 280.483C700.529 278.838 700.591 277.069 700.158 275.389C699.725 273.71 698.816 272.192 697.541 271.021C696.676 270.227 695.664 269.612 694.561 269.212C693.459 268.812 692.289 268.634 691.118 268.688C687.264 268.958 669.973 275.689 659.929 279.757V279.757Z" fill="#000091"/>
<path d="M655.196 281.647C654.934 281.647 654.677 281.579 654.449 281.449C654.221 281.32 654.031 281.133 653.896 280.908C653.762 280.683 653.688 280.426 653.682 280.164C653.676 279.901 653.738 279.641 653.862 279.41C655.453 276.435 669.538 250.224 673.833 246.22C676.156 244.179 679.177 243.122 682.261 243.272C685.344 243.421 688.25 244.766 690.366 247.022C692.481 249.278 693.642 252.269 693.604 255.367C693.566 258.465 692.332 261.427 690.162 263.63L690.121 263.67C685.877 267.673 658.886 280.103 655.822 281.507C655.626 281.598 655.412 281.646 655.196 281.647V281.647ZM681.685 246.281C679.541 246.278 677.47 247.058 675.858 248.477C673.028 251.116 663.902 267.298 658.701 276.83C668.5 272.241 685.144 264.165 688.03 261.479C689.225 260.264 690.048 258.731 690.402 257.062C690.755 255.393 690.624 253.656 690.024 252.059C689.424 250.462 688.381 249.071 687.018 248.051C685.654 247.031 684.028 246.425 682.331 246.304C682.115 246.288 681.9 246.28 681.685 246.281H681.685Z" fill="#000091"/>
<path d="M399.749 441.578C399.45 441.577 399.156 441.487 398.908 441.319C398.659 441.151 398.465 440.912 398.352 440.634C398.238 440.355 398.21 440.049 398.27 439.754C398.33 439.459 398.477 439.189 398.69 438.978C401.088 436.608 422.27 415.751 427.538 413.185C429.662 412.152 432.044 411.773 434.382 412.097C436.72 412.421 438.91 413.434 440.675 415.007C442.44 416.579 443.701 418.642 444.298 420.934C444.895 423.225 444.802 425.643 444.03 427.882C443.526 429.371 442.731 430.745 441.693 431.923C440.654 433.101 439.393 434.06 437.981 434.745C432.716 437.309 403.279 441.137 399.94 441.565C399.877 441.573 399.813 441.577 399.749 441.578V441.578ZM432.73 415.022C431.387 415.021 430.062 415.328 428.856 415.917C425.344 417.627 411.845 430.392 404.065 437.955C414.801 436.487 433.15 433.723 436.662 432.013C438.787 430.966 440.411 429.117 441.178 426.87C441.946 424.623 441.793 422.162 440.755 420.027C440.017 418.524 438.874 417.258 437.455 416.373C436.037 415.488 434.4 415.02 432.729 415.022H432.73Z" fill="#000091"/>
<path d="M445.64 307.64C445.399 307.64 445.161 307.582 444.947 307.472C444.732 307.361 444.547 307.2 444.407 307.003C444.268 306.805 444.177 306.577 444.142 306.338C444.108 306.098 444.131 305.854 444.21 305.625L450.821 286.461C450.885 286.272 450.986 286.096 451.117 285.946C451.249 285.796 451.409 285.673 451.588 285.585C451.768 285.496 451.962 285.445 452.162 285.433C452.361 285.42 452.56 285.448 452.749 285.513C452.938 285.579 453.111 285.681 453.26 285.814C453.409 285.947 453.531 286.109 453.617 286.289C453.704 286.47 453.754 286.665 453.765 286.865C453.776 287.065 453.747 287.265 453.681 287.454L447.07 306.618C446.967 306.917 446.774 307.176 446.518 307.359C446.261 307.542 445.955 307.64 445.64 307.64V307.64Z" fill="#000091"/>
<path d="M410.847 425.685C410.478 425.685 410.122 425.549 409.846 425.304L353.159 375.047C353.01 374.915 352.888 374.755 352.801 374.575C352.713 374.396 352.662 374.201 352.65 374.002C352.638 373.803 352.665 373.603 352.73 373.414C352.795 373.225 352.897 373.051 353.029 372.902C358.498 366.716 367.649 357.804 380.23 346.414C388.727 338.696 398.734 329.934 409.164 321.077C421.804 310.281 435.869 298.498 450.966 286.057L471.089 228.455C466.764 216.962 467.03 204.212 471.852 192.485C476.872 180.422 486.101 170.61 497.811 164.884C500.355 163.627 502.992 162.567 505.699 161.714C506.081 161.594 506.496 161.63 506.852 161.817C507.208 162.003 507.476 162.323 507.596 162.708C507.716 163.092 507.68 163.508 507.494 163.866C507.309 164.223 506.989 164.491 506.606 164.612C504.048 165.418 501.556 166.419 499.15 167.608C476.333 178.894 465.334 205.367 474.111 227.877C474.243 228.215 474.249 228.59 474.129 228.933L453.681 287.461C453.589 287.723 453.427 287.956 453.213 288.132C438.005 300.663 423.844 312.527 411.122 323.391C400.713 332.229 390.734 340.968 382.258 348.665C370.511 359.301 361.791 367.742 356.306 373.785L410.73 422.035C425.725 405.776 477.447 362.208 507.282 337.96C512.513 333.695 516.468 328.061 518.708 321.682L543.699 250.102C543.815 249.769 544.042 249.487 544.343 249.305C544.541 249.185 544.841 249.002 595.384 232.755C595.765 232.635 596.179 232.672 596.533 232.856C596.888 233.041 597.156 233.359 597.278 233.741C597.4 234.123 597.366 234.538 597.184 234.895C597.002 235.252 596.687 235.523 596.307 235.647C583.497 239.764 551.274 250.136 546.313 251.795L521.564 322.686C519.139 329.595 514.857 335.697 509.192 340.317C478.711 365.089 425.372 410.029 411.979 425.173C411.837 425.334 411.663 425.463 411.468 425.551C411.273 425.639 411.061 425.685 410.847 425.685V425.685Z" fill="#000091"/>
<path d="M591.124 112.853C591.167 109.933 594.087 103.592 596.036 100.918C594.17 97.8478 592.443 95.2606 588.923 92.2128C567.779 73.8998 534.959 79.5601 518.064 101.829L485.888 145.506C480.677 152.364 478.387 161.014 479.518 169.563C480.65 178.111 485.111 185.862 491.924 191.117L529.744 117.387C533.313 110.436 539.416 105.134 546.783 102.585C554.149 100.037 562.211 100.439 569.29 103.707C576.369 106.974 581.919 112.857 584.784 120.128C587.649 127.4 587.609 135.5 584.671 142.743C588.935 141.456 593.429 141.127 597.834 141.781C598.735 135.929 598.617 129.964 597.486 124.152C596.585 119.516 591.051 117.7 591.124 112.853Z" fill="#000091"/>
<path d="M623.374 176.089C622.812 180.329 621.347 184.398 619.079 188.02C616.811 191.641 613.792 194.73 610.228 197.077L522.475 255.937C516.899 259.677 510.244 261.452 503.554 260.983C496.864 260.515 490.518 257.83 485.514 253.349C480.51 248.869 477.131 242.847 475.908 236.23C474.684 229.614 475.686 222.776 478.755 216.793L529.743 117.393C533.308 110.435 539.411 105.125 546.781 102.572C554.15 100.019 562.218 100.419 569.301 103.689C576.384 106.959 581.936 112.845 584.8 120.122C587.663 127.399 587.618 135.505 584.672 142.749C590.35 141.034 596.404 141.029 602.084 142.735L623.374 176.089Z" fill="white"/>
<path d="M505.666 262.572C500.218 262.573 494.861 261.168 490.111 258.492C485.36 255.816 481.374 251.96 478.537 247.292C475.699 242.625 474.106 237.304 473.909 231.841C473.711 226.377 474.917 220.955 477.411 216.094L528.399 116.694C532.031 109.617 538.17 104.159 545.608 101.393C553.047 98.627 561.247 98.7532 568.597 101.747C575.948 104.74 581.917 110.384 585.331 117.57C588.745 124.756 589.357 132.963 587.048 140.579C592.183 139.526 597.497 139.766 602.517 141.277C602.864 141.381 603.163 141.607 603.358 141.913L624.649 175.269C624.842 175.572 624.922 175.934 624.875 176.29C624.289 180.745 622.753 185.021 620.371 188.825C617.988 192.63 614.816 195.874 611.07 198.335L523.316 257.196C518.095 260.706 511.951 262.577 505.666 262.572ZM556.679 102.424C551.393 102.429 546.21 103.892 541.697 106.654C537.184 109.416 533.514 113.37 531.089 118.084L480.101 217.483C477.185 223.168 476.234 229.663 477.396 235.949C478.558 242.235 481.769 247.956 486.522 252.212C491.276 256.468 497.304 259.019 503.659 259.464C510.015 259.909 516.337 258.223 521.634 254.671L609.388 195.81C612.697 193.637 615.513 190.787 617.651 187.448C619.788 184.109 621.201 180.355 621.795 176.431L601.117 144.032C595.874 142.561 590.322 142.619 585.11 144.199C584.836 144.282 584.545 144.285 584.269 144.209C583.994 144.133 583.745 143.979 583.553 143.767C583.361 143.555 583.232 143.292 583.182 143.01C583.133 142.727 583.164 142.436 583.272 142.171C585.942 135.49 586.042 128.052 583.554 121.3C581.065 114.549 576.166 108.967 569.806 105.637C565.749 103.53 561.248 102.428 556.679 102.424V102.424Z" fill="#000091"/>
<path d="M527.448 178.807C527.131 178.807 526.823 178.707 526.565 178.522C526.308 178.337 526.115 178.076 526.014 177.775C525.912 177.474 525.908 177.149 526 176.845C526.093 176.541 526.278 176.274 526.529 176.081C528.033 174.93 563.595 147.807 584.216 141.291C584.407 141.228 584.608 141.204 584.808 141.219C585.008 141.235 585.202 141.29 585.381 141.382C585.559 141.474 585.718 141.6 585.847 141.754C585.976 141.908 586.074 142.086 586.134 142.278C586.194 142.47 586.216 142.672 586.197 142.872C586.179 143.072 586.121 143.267 586.027 143.445C585.933 143.623 585.805 143.78 585.65 143.907C585.495 144.035 585.316 144.13 585.124 144.188C565.007 150.543 528.727 178.217 528.363 178.496C528.1 178.697 527.778 178.807 527.448 178.807Z" fill="#000091"/>
<path d="M618.984 180.73C626.196 173.746 628.969 166.508 644.654 168.381C651.715 169.241 662.205 171.62 662.81 164.838C663.214 160.182 651.059 156.892 642.183 154.159C655.396 152.388 672.695 150.009 672.241 143.936C671.787 137.862 659.028 138.47 641.931 140.899C660.238 134.927 670.678 134.269 669.568 128.55C667.702 119.086 629.474 126.829 617.218 133.814C609.855 138.014 601.13 143.278 596.743 146.011C595.11 147.024 593.618 148.25 592.305 149.655V149.655C585.193 157.196 583.68 169.191 590.237 177.288C599.668 188.777 614.193 185.386 618.984 180.73Z" fill="white"/>
<path d="M606.396 186.583C605.959 186.583 605.518 186.571 605.074 186.546C601.973 186.382 598.942 185.557 596.183 184.128C593.423 182.698 590.998 180.696 589.069 178.254C582.267 169.853 583.188 157.113 591.206 148.612C592.607 147.113 594.199 145.805 595.941 144.724C599.914 142.249 608.655 136.953 616.471 132.494C627.263 126.344 657.663 119.66 667.434 124.152C669.987 125.325 670.813 127.031 671.053 128.256C672.033 133.314 666.899 135.214 658.102 137.715C665.226 137.432 669.458 138.207 671.752 140.06C672.333 140.508 672.811 141.076 673.156 141.725C673.5 142.374 673.703 143.089 673.75 143.823C674.204 149.922 663.801 152.54 649.158 154.716C657.414 157.333 664.724 160.276 664.318 164.97C664.273 165.791 664.057 166.594 663.684 167.326C663.31 168.058 662.787 168.702 662.149 169.218C658.823 171.873 652.578 171.003 647.069 170.236C646.172 170.111 645.3 169.989 644.476 169.889C632.393 168.446 628.736 172.457 623.674 178.007C622.542 179.248 621.372 180.531 620.038 181.823C617.521 184.268 612.418 186.583 606.396 186.583ZM657.909 125.648C645.548 125.648 625.985 130.566 617.966 135.136C610.189 139.573 601.49 144.843 597.54 147.303C596.023 148.245 594.635 149.384 593.413 150.69C586.426 158.099 585.57 169.119 591.411 176.333C593.077 178.446 595.173 180.179 597.558 181.418C599.942 182.656 602.563 183.371 605.244 183.516C610.901 183.834 615.781 181.731 617.931 179.641C619.198 178.415 620.335 177.167 621.436 175.96C626.677 170.214 631.202 165.251 644.831 166.877C645.676 166.979 646.565 167.104 647.48 167.232C652.145 167.881 657.951 168.689 660.261 166.845C660.577 166.584 660.834 166.258 661.013 165.889C661.193 165.52 661.291 165.117 661.301 164.707C661.347 164.178 660.951 162.709 656.287 160.577C652.78 158.974 648.05 157.537 643.877 156.268C643.149 156.047 642.433 155.829 641.737 155.615C641.407 155.513 641.122 155.302 640.928 155.015C640.734 154.728 640.644 154.384 640.673 154.038C640.701 153.693 640.846 153.368 641.084 153.117C641.322 152.866 641.638 152.704 641.98 152.658C648.23 151.821 656.007 150.778 661.947 149.197C667.66 147.679 670.861 145.802 670.731 144.053C670.712 143.735 670.623 143.424 670.471 143.144C670.32 142.863 670.108 142.619 669.853 142.429C666.157 139.443 653.101 140.849 642.141 142.406C641.766 142.46 641.385 142.37 641.073 142.155C640.761 141.94 640.541 141.616 640.455 141.246C640.37 140.876 640.426 140.487 640.612 140.156C640.798 139.826 641.101 139.577 641.461 139.459C646.488 137.82 650.841 136.602 654.678 135.527C664.095 132.893 668.598 131.508 668.081 128.844C668.026 128.562 667.853 127.689 666.172 126.916C664.255 126.03 661.362 125.646 657.909 125.646V125.648Z" fill="#000091"/>
<path d="M614.976 80.452L599.266 97.1739L596.038 100.919C594.677 102.423 593.615 104.176 592.912 106.081C591.566 109.616 591.493 113.511 592.705 117.094C593.918 120.676 596.339 123.721 599.552 125.702C602.764 127.683 606.565 128.476 610.298 127.943C614.03 127.41 617.46 125.585 619.994 122.783L623.575 118.937L628.174 113.862C632.702 116.528 637.824 118.011 643.071 118.174C648.318 118.337 653.522 117.174 658.205 114.794C662.888 112.413 666.901 108.891 669.874 104.549C672.847 100.208 674.687 95.1862 675.223 89.9456L674.744 80.4389C674.473 79.1204 674.119 77.8207 673.682 76.5479C675.655 71.755 676.412 66.5453 675.884 61.3864L667.8 46.2305L622.965 54.3788C614.727 55.8759 609.59 65.4388 611.041 73.6616C611.423 75.7646 612.407 77.7108 613.871 79.2637L614.976 80.452Z" fill="white"/>
<path d="M607.958 129.605C605.82 129.608 603.699 129.217 601.7 128.452C597.323 126.767 593.79 123.408 591.878 119.113C589.965 114.817 589.829 109.936 591.499 105.54C592.268 103.459 593.427 101.545 594.913 99.901L598.121 96.178C598.135 96.1618 598.15 96.1457 598.165 96.13L612.898 80.4457L612.762 80.2999C611.096 78.5326 609.979 76.3167 609.548 73.9229C608.81 69.3615 609.702 64.6852 612.066 60.7196C614.587 56.4515 618.364 53.6674 622.692 52.8809L667.53 44.7351C667.845 44.6781 668.17 44.7226 668.458 44.8622C668.745 45.0019 668.982 45.2296 669.133 45.5125L677.217 60.6679C677.31 60.8428 677.369 61.0344 677.388 61.2317C677.922 66.4472 677.204 71.7151 675.292 76.5947C675.668 77.7553 675.979 78.9358 676.225 80.1309C676.241 80.2066 676.25 80.2834 676.255 80.3606L676.733 89.8674C676.737 89.9435 676.735 90.0198 676.728 90.0956C675.055 106.855 660.77 119.703 644.017 119.703C643.729 119.703 643.442 119.699 643.153 119.692C638.025 119.555 633 118.214 628.482 115.776L624.694 119.955L621.099 123.816C619.429 125.644 617.399 127.103 615.136 128.1C612.874 129.096 610.429 129.609 607.958 129.605V129.605ZM600.388 98.1913L597.181 101.912C595.941 103.279 594.973 104.873 594.33 106.606C593.106 109.81 593.036 113.342 594.132 116.592C595.229 119.842 597.423 122.605 600.335 124.404C603.247 126.202 606.694 126.922 610.079 126.44C613.464 125.957 616.575 124.303 618.873 121.762L622.469 117.9L627.054 112.839C627.288 112.58 627.604 112.411 627.948 112.359C628.291 112.307 628.643 112.375 628.942 112.552C633.283 115.112 638.2 116.525 643.232 116.658C643.494 116.665 643.756 116.668 644.017 116.668C651.379 116.653 658.478 113.914 663.955 108.977C669.432 104.04 672.903 97.2501 673.705 89.9058L673.238 80.6329C672.983 79.4166 672.653 78.2173 672.25 77.0421C672.13 76.6928 672.141 76.3117 672.281 75.9701C674.122 71.5008 674.851 66.6492 674.405 61.834L666.985 47.9236L623.231 55.8731C615.581 57.2633 611.268 66.2721 612.529 73.3976C612.86 75.2114 613.709 76.8894 614.974 78.2269L616.083 79.4137C616.346 79.6957 616.492 80.0678 616.491 80.454C616.491 80.8403 616.343 81.2118 616.079 81.4928L600.388 98.1913Z" fill="#000091"/>
<path d="M673.049 77.082L678.496 88.4189L671.334 91.7592" fill="white"/>
<path d="M671.333 93.2764C670.988 93.277 670.654 93.1594 670.384 92.9429C670.115 92.7265 669.928 92.4242 669.853 92.0863C669.779 91.7483 669.821 91.3949 669.974 91.0847C670.127 90.7744 670.381 90.5259 670.694 90.3804L676.464 87.6894L671.686 77.7398C671.591 77.5594 671.533 77.3616 671.516 77.1582C671.499 76.9549 671.523 76.7501 671.586 76.5562C671.65 76.3623 671.752 76.1833 671.886 76.0297C672.02 75.8762 672.183 75.7513 672.366 75.6626C672.549 75.5739 672.749 75.5232 672.952 75.5134C673.155 75.5037 673.358 75.5352 673.549 75.606C673.739 75.6767 673.914 75.7854 674.062 75.9254C674.21 76.0654 674.328 76.234 674.41 76.4209L679.857 87.7577C679.944 87.939 679.994 88.1358 680.005 88.3367C680.015 88.5376 679.986 88.7387 679.919 88.9282C679.851 89.1177 679.747 89.2918 679.612 89.4405C679.477 89.5892 679.314 89.7095 679.132 89.7943L671.97 93.1346C671.771 93.2279 671.553 93.2763 671.333 93.2764V93.2764Z" fill="#000091"/>
<path d="M664.757 81.0631C665.844 80.3829 666.176 78.9469 665.498 77.8558C664.82 76.7648 663.389 76.4317 662.302 77.112C661.215 77.7923 660.883 79.2282 661.561 80.3193C662.239 81.4104 663.67 81.7434 664.757 81.0631Z" fill="#000091"/>
<path d="M668.709 102.801C667.42 102.806 666.148 102.509 664.993 101.936C663.839 101.362 662.832 100.526 662.055 99.4953L661.882 99.2786C661.754 99.1234 661.657 98.944 661.598 98.7508C661.539 98.5577 661.52 98.3547 661.54 98.1538C661.56 97.9529 661.62 97.758 661.717 97.5807C661.813 97.4034 661.944 97.2471 662.101 97.1211C662.258 96.995 662.439 96.9017 662.633 96.8467C662.826 96.7916 663.029 96.7758 663.229 96.8002C663.428 96.8247 663.621 96.8889 663.796 96.9891C663.971 97.0893 664.124 97.2235 664.246 97.3838L664.448 97.6368C665.244 98.7008 666.408 99.4274 667.712 99.6737C669.015 99.92 670.362 99.6682 671.49 98.9679C671.83 98.7539 672.241 98.6843 672.632 98.7743C673.023 98.8642 673.363 99.1065 673.576 99.4477C673.789 99.7889 673.859 100.201 673.769 100.594C673.679 100.986 673.438 101.327 673.098 101.541C671.782 102.367 670.261 102.804 668.709 102.801V102.801Z" fill="#000091"/>
<path d="M627.003 78.2394H617.975C617.574 78.2394 617.189 78.0794 616.906 77.7947C616.622 77.5099 616.462 77.1237 616.462 76.721C616.462 76.3184 616.622 75.9322 616.906 75.6474C617.189 75.3627 617.574 75.2027 617.975 75.2027H624.123L619.05 67.8135C618.835 67.4817 618.758 67.079 618.835 66.691C618.912 66.303 619.136 65.9605 619.461 65.7363C619.786 65.5121 620.185 65.4238 620.574 65.4904C620.962 65.557 621.309 65.7731 621.542 66.0927L628.249 75.8607C628.405 76.0886 628.497 76.355 628.513 76.6312C628.529 76.9074 628.47 77.1827 628.342 77.4276C628.213 77.6725 628.021 77.8775 627.785 78.0206C627.549 78.1636 627.279 78.2393 627.003 78.2394V78.2394Z" fill="#000091"/>
<path d="M627.859 115.185C627.582 115.185 627.309 115.108 627.072 114.962C622.081 111.902 617.994 107.562 615.231 102.389C615.132 102.213 615.069 102.019 615.046 101.818C615.023 101.617 615.04 101.414 615.096 101.22C615.152 101.026 615.246 100.845 615.373 100.688C615.5 100.531 615.656 100.401 615.834 100.305C616.011 100.21 616.206 100.151 616.406 100.132C616.607 100.113 616.809 100.134 617.001 100.195C617.194 100.255 617.372 100.353 617.526 100.484C617.679 100.614 617.806 100.774 617.897 100.954C620.406 105.651 624.118 109.592 628.649 112.371C628.931 112.543 629.148 112.804 629.269 113.112C629.389 113.42 629.406 113.759 629.317 114.078C629.227 114.397 629.036 114.677 628.773 114.877C628.51 115.077 628.189 115.185 627.859 115.185Z" fill="#000091"/>
<path d="M614.973 80.4454C613.74 79.1449 612.8 77.5944 612.216 75.8984C611.631 74.2025 611.416 72.4004 611.584 70.6138C611.752 68.8272 612.3 67.0975 613.19 65.5413C614.081 63.9851 615.293 62.6385 616.746 61.5924C619.097 59.9006 621.959 59.0786 624.846 59.2664C627.733 59.4541 630.465 60.6399 632.579 62.622C634.692 64.6041 636.056 67.26 636.438 70.1375C636.819 73.015 636.196 75.9364 634.672 78.4043L636.025 78.6149C643.755 78.7854 650.307 75.5534 654.992 69.5844L667.953 50.5547L675.821 61.3854C675.218 55.4217 672.932 49.7546 669.231 45.0499C665.529 40.3452 660.566 36.7985 654.926 34.8266C649.285 32.8547 643.2 32.5395 637.387 33.918C631.574 35.2966 626.274 38.3116 622.11 42.6088C619.704 45.1046 617.723 47.9795 616.245 51.119C615.517 45.9501 613.235 41.1271 609.703 37.2946C607.346 34.7599 604.508 32.7242 601.355 31.3074C598.202 29.8906 594.799 29.1214 591.345 29.045C587.739 28.9668 584.157 29.6572 580.836 31.0705C577.515 32.4838 574.531 34.588 572.08 37.244C571.249 38.1407 570.098 38.6708 568.879 38.7182C567.66 38.7656 566.471 38.3266 565.574 37.4971C565.473 37.4464 565.423 37.3452 565.372 37.2946C563.101 34.8218 560.366 32.8222 557.324 31.4101C554.283 29.9981 550.994 29.2011 547.645 29.0648C544.297 28.9285 540.954 29.4556 537.808 30.6158C534.663 31.7761 531.776 33.5468 529.312 35.8269C528.8 36.2905 528.312 36.7804 527.85 37.2946C527.012 38.1844 525.858 38.7053 524.638 38.7432C523.419 38.7811 522.235 38.3331 521.344 37.4971C521.243 37.4464 521.193 37.3452 521.142 37.2946C516.549 32.3414 510.195 29.404 503.459 29.1188C496.722 28.8335 490.144 31.2234 485.151 35.7707C475.073 44.9374 474.03 60.6713 482.712 71.1756C484.934 73.8583 487.678 76.0584 490.776 77.6413C493.874 79.2242 497.261 80.1568 500.73 80.3821C504.199 80.6073 507.678 80.1206 510.953 78.9515C514.229 77.7825 517.232 75.9556 519.78 73.5826C520.276 73.1359 520.747 72.6628 521.193 72.1655C521.604 71.7193 522.1 71.3597 522.651 71.1077C523.202 70.8556 523.798 70.7161 524.403 70.6972C525.009 70.6784 525.612 70.7806 526.178 70.9979C526.743 71.2153 527.26 71.5433 527.698 71.9631L527.9 72.1655C530.172 74.6383 532.906 76.6379 535.948 78.05C538.99 79.4621 542.279 80.259 545.627 80.3953C548.976 80.5316 552.318 80.0046 555.464 78.8443C558.609 77.6841 561.496 75.9133 563.96 73.6332C564.472 73.1696 564.961 72.6797 565.423 72.1655C565.834 71.7193 566.33 71.3597 566.881 71.1077C567.432 70.8556 568.028 70.7161 568.633 70.6972C569.239 70.6784 569.842 70.7806 570.408 70.9979C570.973 71.2153 571.49 71.5433 571.928 71.9631L572.13 72.1655C574.702 74.9497 577.857 77.1276 581.367 78.543C584.878 79.9583 588.657 80.5758 592.434 80.3513C596.21 80.1267 599.891 79.0656 603.21 77.2442C606.529 75.4227 609.406 72.8861 611.632 69.8167" fill="white"/>
<path d="M614.973 81.9652C614.768 81.9654 614.565 81.9236 614.376 81.8422C614.187 81.7608 614.017 81.6417 613.876 81.492C612.911 80.4699 612.103 79.3102 611.477 78.0505C610.823 76.7365 610.383 75.3258 610.174 73.8721C609.894 74.1551 609.608 74.4315 609.316 74.7011C604.043 79.5954 597.049 82.1886 589.871 81.911C582.694 81.6333 575.92 78.5074 571.037 73.2202L570.857 73.0385C570.562 72.7625 570.216 72.5479 569.838 72.407C569.461 72.2661 569.059 72.2017 568.656 72.2176C568.256 72.23 567.861 72.3229 567.497 72.4908C567.133 72.6586 566.805 72.898 566.535 73.1949C566.041 73.7443 565.519 74.268 564.971 74.7638C559.7 79.624 552.724 82.1903 545.572 81.9009C538.419 81.6115 531.672 78.49 526.808 73.2197L526.628 73.0385C526.334 72.7619 525.988 72.5468 525.61 72.4058C525.232 72.2649 524.83 72.2009 524.427 72.2176C524.026 72.2301 523.632 72.323 523.268 72.4909C522.903 72.6587 522.576 72.8981 522.305 73.1949C521.828 73.7278 521.323 74.2347 520.792 74.7132C518.072 77.2216 514.873 79.1509 511.39 80.3847C507.906 81.6185 504.209 82.1312 500.523 81.8919C496.863 81.6592 493.29 80.674 490.026 78.9975C486.762 77.321 483.876 74.989 481.548 72.1462C477.054 66.6967 474.853 59.7044 475.411 52.6531C475.97 45.6017 479.244 39.0463 484.54 34.3776C489.835 29.7089 496.735 27.2944 503.775 27.6464C510.815 27.9984 517.441 31.0893 522.248 36.2631C522.267 36.2849 522.288 36.3076 522.309 36.3324C522.328 36.3486 522.348 36.3653 522.367 36.3831C522.663 36.6637 523.011 36.883 523.391 37.0284C523.772 37.1739 524.177 37.2427 524.584 37.2308C524.991 37.219 525.392 37.1267 525.763 36.9594C526.135 36.792 526.47 36.5529 526.749 36.2555C527.239 35.7117 527.756 35.1932 528.298 34.7023C533.573 29.84 540.552 27.274 547.709 27.5667C554.865 27.8593 561.614 30.9867 566.476 36.2636C566.496 36.2849 566.517 36.3082 566.538 36.333C566.558 36.3491 566.577 36.3658 566.596 36.3836C566.895 36.6613 567.246 36.8769 567.628 37.0179C568.011 37.159 568.418 37.2227 568.825 37.2055C569.229 37.1924 569.626 37.0987 569.993 36.9296C570.36 36.7606 570.69 36.5197 570.963 36.2211C574.214 32.706 578.331 30.1141 582.899 28.7071C587.467 27.3 592.325 27.1278 596.98 28.2078C601.636 29.2878 605.925 31.5817 609.415 34.8578C612.904 38.1339 615.47 42.2761 616.854 46.8661C620.52 41.0763 625.892 36.5767 632.224 33.9932C638.556 31.4097 645.533 30.8708 652.185 32.4513C658.837 34.0318 664.832 37.6532 669.337 42.8119C673.843 47.9705 676.634 54.4099 677.323 61.2345C677.357 61.5664 677.281 61.9003 677.107 62.1845C676.933 62.4688 676.671 62.6875 676.36 62.807C676.05 62.9265 675.709 62.94 675.39 62.8455C675.071 62.751 674.792 62.5537 674.596 62.2842L667.989 53.1914L656.242 70.4406C656.223 70.469 656.202 70.4963 656.181 70.5231C651.107 76.9887 644.128 80.3108 635.992 80.1321C635.925 80.1309 635.859 80.1252 635.793 80.1149L634.441 79.9044C634.194 79.866 633.961 79.7669 633.761 79.6159C633.562 79.4649 633.403 79.2667 633.298 79.039C633.194 78.8113 633.147 78.5612 633.162 78.311C633.178 78.0608 633.255 77.8183 633.386 77.6051C634.394 75.9717 634.959 74.1025 635.026 72.1826C635.093 70.2626 634.659 68.3584 633.767 66.6584C632.876 64.9583 631.557 63.5214 629.942 62.4897C628.327 61.4581 626.472 60.8675 624.56 60.7763C622.647 60.6852 620.745 61.0967 619.04 61.9702C617.334 62.8436 615.886 64.1487 614.838 65.7563C613.79 67.3639 613.178 69.2183 613.063 71.136C612.949 73.0537 613.335 74.9682 614.184 76.6901C614.676 77.6816 615.312 78.5946 616.07 79.3993C616.274 79.6146 616.41 79.8851 616.463 80.1775C616.515 80.4698 616.48 80.771 616.363 81.0439C616.247 81.3168 616.053 81.5493 615.806 81.7127C615.559 81.8761 615.269 81.9632 614.973 81.9632V81.9652ZM502.362 30.6605C496.379 30.6446 490.605 32.8682 486.168 36.8968C476.781 45.4348 475.753 60.3772 483.878 70.2078C485.945 72.7323 488.507 74.8033 491.405 76.2921C494.303 77.7809 497.476 78.6558 500.725 78.8623C504.007 79.0937 507.3 78.6456 510.402 77.5458C513.504 76.446 516.347 74.718 518.755 72.4691C519.215 72.0547 519.653 71.6154 520.066 71.1532C520.608 70.556 521.264 70.0739 521.994 69.7356C522.725 69.3974 523.517 69.2098 524.321 69.184C525.131 69.1545 525.939 69.2878 526.698 69.5762C527.456 69.8646 528.149 70.3022 528.736 70.8632L528.966 71.0925C528.982 71.1077 528.996 71.1234 529.011 71.1391C533.331 75.8291 539.328 78.6082 545.688 78.8671C552.047 79.1259 558.249 76.8432 562.933 72.5197C563.41 72.0883 563.865 71.6322 564.295 71.1532C564.837 70.556 565.493 70.0739 566.223 69.7356C566.954 69.3974 567.745 69.2098 568.55 69.184C569.36 69.1544 570.169 69.2878 570.927 69.5762C571.685 69.8645 572.378 70.3021 572.966 70.8632L573.195 71.0925C573.21 71.1077 573.225 71.1234 573.24 71.1391C575.387 73.4684 577.97 75.3505 580.842 76.678C583.713 78.0055 586.817 78.7524 589.977 78.8759C593.136 78.9995 596.288 78.4973 599.254 77.3981C602.22 76.2989 604.941 74.6242 607.262 72.4696C608.379 71.4355 609.396 70.2978 610.3 69.0716C610.68 67.1505 611.457 65.3303 612.579 63.7278C613.701 62.1252 615.145 60.7757 616.817 59.7655C618.489 58.7554 620.353 58.1069 622.29 57.8617C624.226 57.6166 626.193 57.7801 628.063 58.3418C629.932 58.9035 631.665 59.851 633.149 61.1236C634.632 62.3962 635.835 63.9658 636.679 65.7319C637.523 67.498 637.99 69.4215 638.051 71.3793C638.111 73.3371 637.763 75.286 637.029 77.101C643.744 76.9836 649.516 74.0882 653.773 68.686L666.706 49.6993C666.842 49.4987 667.025 49.334 667.238 49.219C667.452 49.104 667.69 49.042 667.932 49.0383C668.174 49.0347 668.413 49.0894 668.63 49.1979C668.847 49.3064 669.034 49.4655 669.177 49.6618L672.775 54.6146C671.088 49.8022 668.204 45.5016 664.397 42.1204C660.59 38.7392 655.986 36.3891 651.021 35.2929C646.056 34.1966 640.895 34.3904 636.025 35.8559C631.155 37.3215 626.739 40.0102 623.195 43.6675C620.905 46.0428 619.019 48.7795 617.613 51.7683C617.474 52.0634 617.244 52.3057 616.956 52.4592C616.669 52.6126 616.34 52.6691 616.019 52.6203C615.697 52.5714 615.4 52.4198 615.171 52.1879C614.942 51.956 614.793 51.6562 614.747 51.333C614.065 46.4692 611.918 41.9308 608.594 38.3255C606.377 35.9378 603.706 34.0206 600.737 32.6875C597.769 31.3544 594.564 30.6324 591.313 30.5643C587.921 30.4938 584.552 31.1445 581.429 32.4737C578.305 33.8028 575.497 35.7804 573.19 38.2764C572.647 38.8705 571.991 39.3499 571.261 39.6865C570.532 40.0231 569.742 40.2101 568.939 40.2366C567.365 40.3015 565.827 39.7525 564.647 38.7046C564.491 38.5901 564.352 38.4538 564.234 38.2997C559.911 33.6209 553.917 30.8514 547.564 30.5975C541.211 30.3435 535.017 32.6259 530.337 36.9448C529.86 37.3766 529.405 37.8327 528.975 38.3113C527.885 39.4901 526.377 40.1918 524.777 40.2652C523.176 40.3386 521.611 39.7777 520.418 38.7036C520.263 38.5892 520.125 38.4528 520.008 38.2987C517.746 35.8784 515.013 33.9513 511.977 32.6372C508.941 31.3231 505.668 30.6503 502.362 30.6605V30.6605ZM564.256 38.3204C564.271 38.3376 564.288 38.3544 564.303 38.3711C564.289 38.3569 564.274 38.3422 564.261 38.327L564.256 38.3204ZM520.068 38.3655L520.073 38.3695L520.068 38.3655ZM520.027 38.3225C520.04 38.3366 520.054 38.3513 520.068 38.365C520.057 38.3538 520.046 38.3427 520.036 38.3311L520.027 38.3225ZM522.021 36.1406H522.026H522.021ZM566.251 36.1406H566.255H566.251Z" fill="#000091"/>
<path d="M248.885 577.52H30.9995V666.122H248.885V577.52Z" fill="#FFCBCF"/>
<path d="M817.718 390.562H600.826V666.128H817.718V390.562Z" fill="#FFCBCF"/>
<path d="M1101.82 302.617H886.962V663.175H1101.82V302.617Z" fill="#FFCBCF"/>
<path d="M583.181 508.225L566.988 520.324L555.035 504.579C553.177 502.139 551.831 499.353 551.074 496.379C550.317 493.404 550.165 490.301 550.625 487.245C551.085 484.19 552.149 481.242 553.757 478.57C555.364 475.898 557.483 473.555 559.993 471.674L560.053 471.629L576.246 459.53L588.199 475.275C590.058 477.715 591.404 480.501 592.16 483.475C592.917 486.45 593.07 489.553 592.609 492.609C592.149 495.664 591.085 498.612 589.478 501.284C587.87 503.955 585.751 506.299 583.242 508.18L583.181 508.225Z" fill="white"/>
<path d="M567.142 521.744C566.89 521.773 566.636 521.737 566.405 521.64C566.174 521.543 565.974 521.387 565.823 521.189L553.87 505.446C549.885 500.215 548.201 493.596 549.186 487.047C550.172 480.497 553.748 474.553 559.127 470.521L559.188 470.476L575.378 458.38C575.691 458.147 576.082 458.044 576.466 458.093C576.85 458.143 577.195 458.342 577.426 458.645L589.38 474.39C593.364 479.621 595.048 486.239 594.063 492.788C593.077 499.338 589.501 505.282 584.122 509.313L584.061 509.359L567.871 521.455C567.658 521.614 567.406 521.714 567.142 521.744ZM575.94 461.552L560.877 472.803C558.521 474.567 556.532 476.765 555.023 479.272C553.515 481.779 552.516 484.545 552.084 487.413C551.652 490.281 551.795 493.193 552.505 495.985C553.216 498.776 554.48 501.392 556.225 503.682L567.309 518.281L582.379 507.024C587.134 503.46 590.294 498.205 591.165 492.415C592.036 486.626 590.547 480.776 587.024 476.152L575.94 461.552Z" fill="#000091"/>
<path d="M545.778 667.366C545.657 667.379 545.535 667.378 545.414 667.362C545.222 667.337 545.037 667.274 544.871 667.178C544.704 667.083 544.559 666.955 544.443 666.804C544.328 666.652 544.244 666.479 544.197 666.295C544.15 666.11 544.141 665.918 544.17 665.729L570.739 492.059C570.797 491.677 571.008 491.331 571.324 491.097C571.64 490.864 572.036 490.761 572.424 490.812C572.813 490.864 573.162 491.064 573.396 491.371C573.629 491.677 573.727 492.063 573.669 492.445L547.1 666.115C547.052 666.436 546.895 666.733 546.655 666.96C546.416 667.187 546.107 667.33 545.778 667.366V667.366Z" fill="#000091"/>
<path d="M576.037 460.826C575.916 460.84 575.794 460.838 575.674 460.822C575.483 460.797 575.299 460.735 575.133 460.639C574.968 460.544 574.823 460.416 574.708 460.265C574.593 460.113 574.51 459.941 574.463 459.757C574.416 459.572 574.407 459.38 574.436 459.191L576.828 443.449C576.886 443.067 577.095 442.722 577.409 442.488C577.724 442.255 578.117 442.152 578.504 442.203C578.89 442.254 579.238 442.455 579.47 442.761C579.702 443.067 579.8 443.453 579.742 443.834L577.35 459.577C577.302 459.897 577.146 460.194 576.908 460.421C576.67 460.647 576.363 460.79 576.037 460.826V460.826Z" fill="#000091"/>
<path d="M576.089 460.807C575.744 460.844 575.398 460.762 575.112 460.573C574.826 460.384 574.618 460.101 574.525 459.774L570.204 444.569C570.149 444.385 570.131 444.192 570.152 444C570.174 443.808 570.234 443.622 570.329 443.452C570.424 443.282 570.552 443.132 570.706 443.01C570.86 442.888 571.036 442.797 571.225 442.743C571.414 442.688 571.612 442.671 571.806 442.692C572.001 442.713 572.188 442.772 572.358 442.866C572.528 442.959 572.677 443.085 572.796 443.237C572.915 443.388 573.001 443.562 573.051 443.747L577.372 458.953C577.43 459.156 577.441 459.37 577.406 459.58C577.37 459.79 577.289 459.99 577.166 460.167C577.044 460.344 576.884 460.493 576.698 460.603C576.512 460.714 576.304 460.783 576.089 460.807V460.807Z" fill="#000091"/>
<path d="M576.034 460.826C575.761 460.856 575.486 460.81 575.24 460.693C574.994 460.575 574.788 460.391 574.645 460.161C574.502 459.931 574.428 459.666 574.432 459.394C574.435 459.122 574.516 458.856 574.664 458.625L583.32 445.197C583.536 444.885 583.865 444.667 584.237 444.589C584.608 444.51 584.994 444.577 585.313 444.775C585.631 444.973 585.857 445.288 585.944 445.651C586.03 446.015 585.97 446.4 585.775 446.725L577.122 460.153C577.003 460.338 576.843 460.495 576.654 460.612C576.466 460.728 576.254 460.802 576.034 460.826Z" fill="#000091"/>
<path d="M566.768 543.321C573.139 542.592 577.805 536.916 577.189 530.644C576.573 524.371 570.908 519.877 564.537 520.606C558.166 521.335 553.5 527.011 554.116 533.283C554.732 539.556 560.396 544.05 566.768 543.321Z" fill="white"/>
<path d="M566.913 544.749C564.344 545.043 561.759 544.58 559.484 543.418C557.21 542.257 555.348 540.45 554.135 538.226C552.922 536.001 552.412 533.459 552.669 530.921C552.926 528.383 553.939 525.963 555.58 523.967C557.22 521.971 559.415 520.489 561.887 519.708C564.358 518.927 566.995 518.882 569.464 519.578C571.933 520.275 574.123 521.683 575.757 523.623C577.391 525.563 578.397 527.948 578.645 530.477C578.975 533.868 577.925 537.275 575.725 539.951C573.526 542.626 570.357 544.352 566.913 544.749ZM564.678 522.036C562.684 522.263 560.792 523.068 559.242 524.348C557.691 525.628 556.551 527.326 555.967 529.227C555.382 531.127 555.379 533.146 555.957 535.027C556.536 536.908 557.67 538.566 559.216 539.793C560.763 541.021 562.652 541.761 564.646 541.92C566.639 542.08 568.647 541.652 570.415 540.69C572.184 539.729 573.633 538.277 574.58 536.518C575.528 534.759 575.93 532.773 575.737 530.81C575.475 528.178 574.164 525.777 572.091 524.132C570.018 522.487 567.352 521.732 564.678 522.035L564.678 522.036Z" fill="#000091"/>
<path d="M267.785 666.628C267.429 666.514 267.126 666.278 266.932 665.964C266.739 665.649 266.669 665.279 266.737 664.923L279.089 599.928C279.165 599.547 279.392 599.215 279.722 599.003C280.051 598.791 280.456 598.716 280.849 598.796C281.241 598.875 281.588 599.102 281.816 599.426C282.044 599.751 282.133 600.147 282.064 600.529L269.712 665.525C269.64 665.908 269.413 666.244 269.082 666.459C268.752 666.674 268.345 666.75 267.95 666.67C267.894 666.659 267.839 666.645 267.785 666.628V666.628Z" fill="#000091"/>
<path d="M265.802 597.578C263.941 596.972 262.279 595.861 261.006 594.372C259.733 592.883 258.902 591.078 258.607 589.163C258.312 587.248 258.566 585.302 259.34 583.547C260.114 581.793 261.376 580.301 262.981 579.245C264.1 578.504 265.362 577.994 266.692 577.745C268.023 577.495 269.395 577.512 270.731 577.793L299.013 583.637C301.709 584.197 304.093 585.792 305.643 588.071C307.192 590.35 307.78 593.126 307.276 595.79C306.767 598.45 305.211 600.779 302.949 602.265C300.687 603.751 297.904 604.274 295.209 603.719V603.719L266.928 597.874C266.548 597.796 266.172 597.697 265.802 597.578ZM299.276 586.71C299.012 586.625 298.744 586.554 298.473 586.499L270.191 580.654C268.268 580.262 266.284 580.64 264.672 581.703C263.061 582.766 261.954 584.429 261.594 586.327C261.233 588.226 261.649 590.205 262.749 591.833C263.849 593.461 265.545 594.604 267.465 595.012L295.747 600.857C297.185 601.156 298.671 601.027 300.016 600.487C301.361 599.946 302.506 599.018 303.305 597.819C304.104 596.621 304.521 595.206 304.504 593.755C304.487 592.303 304.036 590.879 303.208 589.664C302.266 588.27 300.878 587.227 299.276 586.71V586.71ZM265.814 590.705C265.06 590.463 264.407 589.971 263.966 589.314C263.58 588.743 263.37 588.076 263.363 587.395C263.356 586.715 263.553 586.052 263.929 585.491C264.304 584.93 264.841 584.496 265.472 584.244C266.103 583.991 266.8 583.932 267.474 584.073V584.073L299.575 590.706C300.023 590.799 300.45 590.978 300.831 591.233C301.213 591.488 301.542 591.814 301.799 592.193C302.056 592.572 302.236 592.995 302.33 593.44C302.423 593.884 302.427 594.34 302.342 594.783C302.171 595.674 301.649 596.454 300.891 596.952C300.133 597.45 299.2 597.625 298.296 597.438L266.195 590.805C266.066 590.779 265.939 590.745 265.814 590.705V590.705ZM266.935 586.934C266.796 586.904 266.652 586.93 266.535 587.006C266.479 587.042 266.431 587.089 266.395 587.144C266.358 587.199 266.333 587.261 266.322 587.326C266.308 587.394 266.308 587.465 266.322 587.533C266.336 587.601 266.363 587.667 266.403 587.725C266.44 587.782 266.488 587.83 266.545 587.868C266.601 587.906 266.665 587.932 266.731 587.944L298.833 594.577C298.9 594.592 298.969 594.594 299.037 594.583C299.104 594.571 299.168 594.547 299.225 594.51C299.283 594.474 299.332 594.426 299.369 594.37C299.407 594.314 299.433 594.251 299.446 594.184C299.473 594.047 299.444 593.904 299.365 593.786C299.328 593.729 299.279 593.681 299.223 593.643C299.166 593.605 299.103 593.579 299.036 593.567L266.935 586.934Z" fill="#000091"/>
<path d="M289.406 633.672C287.499 633.056 284.711 631.228 280.916 628.109C277.932 625.656 275.476 623.342 275.374 623.246C275.192 623.074 275.055 622.861 274.977 622.625C274.898 622.389 274.881 622.139 274.926 621.897C274.971 621.655 275.077 621.43 275.234 621.242C275.391 621.055 275.594 620.911 275.825 620.823C277.155 620.321 288.938 615.941 293.179 616.818C295.467 617.292 297.491 618.644 298.809 620.576C300.127 622.508 300.631 624.863 300.21 627.125C299.772 629.373 298.453 631.34 296.54 632.596C294.627 633.851 292.274 634.295 289.995 633.83V633.83C289.796 633.788 289.599 633.735 289.406 633.672V633.672ZM279.145 622.761C282.977 626.196 288.326 630.503 290.535 630.96C291.288 631.115 292.061 631.122 292.809 630.978C293.558 630.835 294.267 630.544 294.895 630.124C295.521 629.718 296.056 629.191 296.47 628.574C296.884 627.956 297.169 627.261 297.308 626.527C297.588 625.025 297.254 623.462 296.378 622.179C295.503 620.896 294.158 619.999 292.64 619.685C290.444 619.232 283.93 621.099 279.145 622.761Z" fill="#000091"/>
<path d="M258.746 627.446C256.831 626.831 255.171 625.587 254.044 623.923C253.397 622.977 252.943 621.916 252.708 620.804C252.474 619.691 252.463 618.548 252.677 617.441C253.106 615.182 254.423 613.203 256.34 611.938C258.257 610.673 260.617 610.225 262.905 610.692C264.807 611.084 267.778 612.956 271.984 616.412C274.969 618.865 277.425 621.18 277.528 621.276C277.71 621.448 277.847 621.661 277.925 621.897C278.003 622.133 278.02 622.384 277.975 622.625C277.93 622.867 277.824 623.092 277.666 623.279C277.509 623.467 277.306 623.611 277.075 623.698C275.746 624.2 263.962 628.58 259.721 627.703C259.392 627.635 259.066 627.55 258.746 627.446ZM262.691 613.647C262.584 613.612 262.476 613.583 262.365 613.559C260.846 613.25 259.279 613.549 258.007 614.389C256.735 615.23 255.861 616.544 255.578 618.044C255.436 618.775 255.443 619.529 255.598 620.263C255.752 620.997 256.052 621.696 256.478 622.321C256.915 622.964 257.474 623.517 258.123 623.949C258.772 624.38 259.498 624.682 260.259 624.835V624.835C262.456 625.29 268.971 623.422 273.755 621.758C270.102 618.482 265.057 614.412 262.691 613.647Z" fill="#000091"/>
<path d="M564.633 666.299C565.027 666.386 565.433 666.345 565.761 666.185C566.089 666.024 566.313 665.757 566.382 665.442L578.734 609.722C578.804 609.407 578.714 609.07 578.485 608.786C578.255 608.502 577.905 608.293 577.511 608.205C577.117 608.118 576.711 608.159 576.383 608.32C576.055 608.48 575.831 608.747 575.761 609.062L563.41 664.783C563.34 665.097 563.43 665.434 563.659 665.718C563.888 666.003 564.239 666.212 564.633 666.299Z" fill="#000091"/>
<path d="M575.002 620.041C577.083 620.521 579.25 620.38 581.23 619.635C583.209 618.89 584.911 617.574 586.121 615.855C587.33 614.135 587.993 612.089 588.026 609.975C588.059 607.86 587.46 605.773 586.304 603.976C585.149 602.18 583.489 600.755 581.535 599.881C579.581 599.008 577.42 598.726 575.326 599.071C573.232 599.415 571.298 600.371 569.77 601.817C568.242 603.263 567.187 605.134 566.74 607.195C566.143 609.957 566.678 612.861 568.227 615.269C569.776 617.678 572.212 619.394 575.002 620.041V620.041ZM578.911 602.035C580.427 602.385 581.813 603.173 582.893 604.298C583.972 605.422 584.698 606.834 584.977 608.355C585.256 609.876 585.077 611.437 584.461 612.84C583.846 614.244 582.822 615.428 581.52 616.241C580.217 617.055 578.694 617.463 577.143 617.412C575.592 617.362 574.084 616.855 572.807 615.958C571.531 615.06 570.545 613.811 569.974 612.368C569.402 610.926 569.271 609.355 569.597 607.854C570.036 605.843 571.263 604.1 573.01 603.01C574.756 601.919 576.878 601.568 578.911 602.035Z" fill="#000091"/>
<path d="M541.986 666.477C542.343 666.391 542.654 666.176 542.853 665.877C543.053 665.579 543.126 665.22 543.056 664.877L514.184 522.287C514.112 521.935 513.898 521.628 513.587 521.433C513.277 521.239 512.896 521.172 512.528 521.247C512.16 521.323 511.835 521.536 511.625 521.838C511.416 522.14 511.338 522.507 511.409 522.859L540.281 665.448C540.316 665.622 540.387 665.787 540.489 665.934C540.592 666.08 540.723 666.205 540.877 666.302C541.031 666.398 541.203 666.464 541.385 666.496C541.567 666.528 541.754 666.525 541.936 666.488L541.986 666.477Z" fill="#000091"/>
<path d="M516.81 543.667C517.028 543.612 517.23 543.504 517.399 543.353C517.567 543.202 517.696 543.014 517.774 542.803L523.242 528.047C523.367 527.71 523.353 527.342 523.203 527.022C523.053 526.702 522.78 526.457 522.443 526.342C522.106 526.226 521.734 526.249 521.407 526.405C521.081 526.561 520.827 526.838 520.703 527.175L516.007 539.846L506.89 530.146C506.771 530.016 506.626 529.911 506.465 529.838C506.303 529.764 506.128 529.724 505.949 529.719C505.77 529.714 505.591 529.744 505.422 529.808C505.253 529.871 505.098 529.967 504.965 530.09C504.833 530.213 504.725 530.36 504.65 530.523C504.574 530.686 504.531 530.861 504.524 531.039C504.517 531.217 504.545 531.393 504.608 531.558C504.67 531.723 504.766 531.873 504.888 532L515.503 543.295C515.659 543.461 515.857 543.584 516.078 543.651C516.298 543.718 516.534 543.728 516.762 543.678L516.81 543.667Z" fill="#000091"/>
<path d="M519.545 556.979C519.765 556.924 519.968 556.815 520.137 556.663C520.305 556.511 520.434 556.321 520.511 556.11L528.372 534.612C528.434 534.445 528.463 534.268 528.456 534.092C528.449 533.916 528.406 533.743 528.332 533.585C528.257 533.426 528.151 533.284 528.02 533.168C527.889 533.051 527.735 532.962 527.567 532.906C527.4 532.849 527.222 532.826 527.044 532.838C526.866 532.85 526.691 532.896 526.53 532.975C526.368 533.054 526.223 533.163 526.103 533.296C525.983 533.429 525.89 533.584 525.829 533.752L518.738 553.143L504.861 538.271C504.743 538.136 504.599 538.027 504.437 537.95C504.275 537.873 504.098 537.83 503.917 537.822C503.736 537.814 503.555 537.843 503.383 537.906C503.212 537.97 503.054 538.066 502.919 538.19C502.785 538.314 502.676 538.463 502.6 538.628C502.523 538.793 502.481 538.97 502.475 539.15C502.469 539.33 502.499 539.509 502.564 539.675C502.63 539.841 502.728 539.992 502.854 540.118L518.238 556.605C518.394 556.773 518.592 556.897 518.814 556.964C519.035 557.032 519.271 557.042 519.5 556.992L519.545 556.979Z" fill="#000091"/>
<path d="M522.652 572.197C522.87 572.142 523.072 572.034 523.241 571.883C523.409 571.732 523.538 571.543 523.615 571.333L533.867 543.68C533.985 543.345 533.966 542.981 533.816 542.666C533.665 542.351 533.394 542.11 533.061 541.996C532.728 541.881 532.359 541.902 532.035 542.054C531.711 542.206 531.458 542.477 531.329 542.808L521.849 568.377L503.471 548.826C503.352 548.696 503.208 548.591 503.046 548.518C502.885 548.444 502.709 548.404 502.53 548.399C502.351 548.394 502.172 548.424 502.003 548.488C501.835 548.551 501.679 548.647 501.547 548.77C501.414 548.893 501.307 549.04 501.231 549.203C501.156 549.366 501.113 549.541 501.106 549.719C501.099 549.896 501.127 550.073 501.19 550.238C501.252 550.403 501.347 550.553 501.47 550.68L521.345 571.825C521.501 571.991 521.699 572.114 521.92 572.181C522.14 572.248 522.375 572.258 522.603 572.208L522.652 572.197Z" fill="#000091"/>
<path d="M525.675 586.859C525.893 586.804 526.094 586.696 526.262 586.545C526.43 586.395 526.559 586.206 526.637 585.997L538.754 553.344C538.819 553.176 538.85 552.998 538.846 552.82C538.841 552.643 538.801 552.468 538.727 552.308C538.654 552.147 538.548 552.003 538.417 551.885C538.286 551.766 538.131 551.675 537.963 551.618C537.795 551.56 537.615 551.536 537.436 551.548C537.256 551.559 537.08 551.606 536.917 551.686C536.755 551.765 536.609 551.876 536.488 552.011C536.368 552.146 536.275 552.302 536.216 552.472L524.87 583.042L502.869 559.675C502.627 559.418 502.289 559.269 501.931 559.261C501.572 559.253 501.221 559.387 500.956 559.634C500.691 559.88 500.532 560.218 500.516 560.574C500.5 560.93 500.627 561.274 500.869 561.531L524.368 586.488C524.525 586.654 524.723 586.777 524.943 586.844C525.164 586.911 525.399 586.92 525.627 586.87C525.644 586.867 525.659 586.863 525.675 586.859Z" fill="#000091"/>
<path d="M1163.82 550.594C1161.05 548.916 1157.44 549.802 1155.77 552.571C1155.76 552.574 1155.76 552.576 1155.76 552.578C1157.44 549.802 1156.55 546.191 1153.77 544.512C1151 542.834 1147.39 543.724 1145.71 546.5L1130.26 571.895L1134.29 542.442C1134.69 539.226 1132.4 536.298 1129.19 535.902C1126.04 535.514 1123.16 537.691 1122.67 540.82C1123.16 537.617 1120.96 534.623 1117.76 534.134C1114.56 533.645 1111.56 535.846 1111.07 539.049C1111.07 539.097 1111.06 539.145 1111.05 539.193L1110.51 543.064L1106.85 569.18C1105.56 578.415 1109.82 587.547 1117.73 592.486L1117.69 592.546C1120.53 594.244 1123.69 595.365 1126.97 595.845V595.772C1136.21 596.932 1145.28 592.542 1150.1 584.567L1163.75 562.006L1165.77 558.661C1167.46 555.897 1166.59 552.289 1163.83 550.601C1163.82 550.599 1163.82 550.596 1163.82 550.594Z" fill="white"/>
<path d="M1129.9 597.326C1129.02 597.326 1128.14 597.28 1127.25 597.185C1127.1 597.219 1126.93 597.225 1126.77 597.201C1123.29 596.693 1120 595.522 1116.99 593.723C1116.84 593.638 1116.72 593.53 1116.62 593.405C1108.51 588.131 1104.15 578.6 1105.5 568.99L1109.72 538.843C1110.32 534.897 1114.02 532.178 1117.96 532.778C1120.35 533.142 1122.28 534.636 1123.31 536.632C1124.83 535.088 1127.03 534.255 1129.35 534.541C1133.31 535.028 1136.14 538.648 1135.65 542.609L1132.51 565.557L1144.54 545.787C1146.6 542.372 1151.06 541.273 1154.48 543.339C1156.55 544.587 1157.77 546.71 1157.95 548.949C1158.31 548.799 1158.67 548.677 1159.05 548.584C1160.93 548.123 1162.87 548.421 1164.53 549.422C1164.53 549.425 1164.54 549.427 1164.54 549.43C1164.54 549.431 1164.54 549.433 1164.55 549.434L1164.55 549.434C1167.95 551.544 1169.01 555.984 1166.94 559.375L1151.27 585.276C1146.72 592.808 1138.56 597.326 1129.9 597.326ZM1126.97 594.401C1127.02 594.401 1127.08 594.404 1127.14 594.411C1135.84 595.502 1144.39 591.359 1148.93 583.857L1164.6 557.95C1165.89 555.832 1165.22 553.061 1163.11 551.77L1163.82 550.594L1163.11 551.767C1162.08 551.145 1160.87 550.96 1159.71 551.246C1158.55 551.532 1157.56 552.253 1156.94 553.276C1156.94 553.28 1156.94 553.284 1156.93 553.287C1156.54 553.934 1155.7 554.143 1155.05 553.753C1154.46 553.393 1154.23 552.652 1154.51 552.03C1154.53 551.975 1154.56 551.921 1154.59 551.868C1155.87 549.743 1155.19 546.97 1153.07 545.685C1150.94 544.4 1148.17 545.084 1146.88 547.209L1131.43 572.607C1131.09 573.162 1130.41 573.405 1129.8 573.186C1129.19 572.969 1128.81 572.352 1128.9 571.708L1132.93 542.256C1133.08 541.082 1132.75 539.904 1132.01 538.958C1131.27 538.011 1130.21 537.409 1129.02 537.262C1126.6 536.962 1124.4 538.619 1124.03 541.031C1123.91 541.779 1123.21 542.29 1122.46 542.175C1121.72 542.06 1121.2 541.361 1121.32 540.613C1121.69 538.162 1120 535.863 1117.55 535.49C1115.1 535.114 1112.8 536.805 1112.43 539.257L1111.87 543.255L1108.21 569.371C1106.99 578.06 1111.01 586.677 1118.45 591.325C1118.57 591.397 1118.67 591.486 1118.76 591.587C1121.24 593.006 1123.92 593.958 1126.73 594.423C1126.81 594.407 1126.89 594.401 1126.97 594.401Z" fill="#000091"/>
<path d="M1144.06 573.288C1143.82 573.288 1143.58 573.224 1143.36 573.09C1142.71 572.698 1142.5 571.855 1142.89 571.207L1154.83 551.47C1155.22 550.822 1156.07 550.615 1156.71 551.007C1157.36 551.399 1157.57 552.241 1157.18 552.889L1145.24 572.626C1144.98 573.052 1144.53 573.288 1144.06 573.288Z" fill="#000091"/>
<path d="M1097.08 666.661C1096.93 666.661 1096.77 666.635 1096.62 666.581C1095.91 666.327 1095.53 665.544 1095.79 664.83L1124.36 584.424C1124.61 583.711 1125.4 583.338 1126.11 583.591C1126.82 583.845 1127.2 584.629 1126.94 585.342L1098.37 665.748C1098.17 666.31 1097.64 666.661 1097.08 666.661Z" fill="#000091"/>
<path d="M1119.56 564.571C1119.5 564.571 1119.43 564.566 1119.37 564.558C1118.62 564.453 1118.09 563.76 1118.2 563.01L1121.39 540.165C1121.5 539.416 1122.19 538.894 1122.94 538.997C1123.69 539.102 1124.21 539.795 1124.11 540.545L1120.91 563.39C1120.82 564.075 1120.23 564.571 1119.56 564.571Z" fill="#000091"/>
<path d="M1122.19 596.015C1122.03 596.015 1121.88 595.989 1121.73 595.935C1121.01 595.682 1120.64 594.897 1120.89 594.184L1128.98 571.436C1129.23 570.722 1130.02 570.349 1130.73 570.603C1131.44 570.857 1131.82 571.641 1131.56 572.354L1123.48 595.103C1123.28 595.664 1122.75 596.015 1122.19 596.015Z" fill="#000091"/>
<path d="M519.587 664.618C519.254 664.618 518.93 664.505 518.67 664.298C518.409 664.091 518.227 663.802 518.154 663.479L512.492 638.534C512.45 638.347 512.445 638.153 512.478 637.965C512.511 637.776 512.581 637.595 512.684 637.433C512.787 637.271 512.922 637.131 513.08 637.021C513.237 636.91 513.416 636.832 513.604 636.79C513.984 636.705 514.383 636.773 514.713 636.98C515.042 637.187 515.276 637.515 515.361 637.893L521.021 662.838C521.07 663.052 521.069 663.273 521.02 663.487C520.97 663.7 520.873 663.899 520.735 664.07C520.597 664.241 520.423 664.379 520.224 664.474C520.025 664.569 519.808 664.618 519.587 664.618V664.618Z" fill="#000091"/>
<path d="M512.236 638.402C516.486 638.402 519.931 634.983 519.931 630.766C519.931 626.548 516.486 623.129 512.236 623.129C507.987 623.129 504.542 626.548 504.542 630.766C504.542 634.983 507.987 638.402 512.236 638.402Z" fill="white"/>
<path d="M512.236 639.864C510.424 639.864 508.652 639.33 507.145 638.331C505.638 637.331 504.463 635.911 503.769 634.249C503.076 632.587 502.894 630.758 503.248 628.993C503.601 627.229 504.474 625.608 505.756 624.336C507.038 623.064 508.671 622.198 510.448 621.847C512.226 621.496 514.069 621.676 515.743 622.364C517.418 623.053 518.849 624.219 519.856 625.714C520.863 627.21 521.401 628.969 521.401 630.768C521.398 633.179 520.431 635.491 518.713 637.197C516.995 638.902 514.666 639.861 512.236 639.864ZM512.236 624.59C511.005 624.59 509.802 624.953 508.778 625.631C507.755 626.31 506.957 627.275 506.486 628.404C506.015 629.533 505.892 630.775 506.132 631.973C506.372 633.171 506.965 634.272 507.835 635.136C508.706 636 509.815 636.588 511.022 636.826C512.229 637.065 513.481 636.942 514.618 636.475C515.755 636.007 516.727 635.216 517.411 634.2C518.095 633.184 518.46 631.99 518.46 630.768C518.458 629.13 517.802 627.56 516.635 626.402C515.468 625.244 513.886 624.592 512.236 624.59V624.59Z" fill="#000091"/>
<path d="M1082.18 469.901C1079.14 470.24 1076.85 472.261 1077.06 474.414C1077.06 474.415 1077.06 474.416 1077.06 474.417C1076.85 472.265 1074.22 470.795 1071.18 471.136C1071.18 471.136 1071.18 471.137 1071.18 471.137C1068.14 471.477 1065.85 473.499 1066.06 475.652C1065.85 473.499 1063.22 472.03 1060.18 472.371C1060.18 472.371 1060.18 472.371 1060.18 472.371C1057.14 472.71 1054.85 474.731 1055.05 476.884C1055.05 476.885 1055.05 476.887 1055.05 476.888C1054.85 474.737 1052.22 473.269 1049.19 473.605C1046.15 473.932 1043.84 475.944 1044.03 478.1C1044.03 478.108 1044.03 478.116 1044.04 478.125C1043.83 475.972 1041.2 474.503 1038.16 474.843C1035.12 475.182 1032.83 477.203 1033.04 479.356C1033.04 479.357 1033.04 479.358 1033.04 479.359L1034.62 495.684C1035.67 506.456 1048.82 513.807 1064.01 512.104C1064.02 512.103 1064.02 512.103 1064.02 512.103C1079.21 510.397 1090.68 500.281 1089.63 489.509L1088.05 473.184C1087.84 471.034 1085.21 469.565 1082.18 469.901Z" fill="white"/>
<path d="M1064.14 513.171C1056.38 514.04 1048.89 512.715 1043.03 509.443C1037.17 506.17 1033.65 501.342 1033.12 495.847L1031.53 479.523C1031.27 476.78 1034.19 474.202 1038.05 473.77C1038.05 473.769 1038.06 473.769 1038.06 473.769C1040.29 473.519 1042.35 474.038 1043.74 475.047C1044.92 473.738 1046.86 472.775 1049.1 472.532C1051.31 472.287 1053.36 472.805 1054.76 473.811C1055.93 472.514 1057.84 471.552 1060.07 471.302C1060.07 471.302 1060.08 471.302 1060.08 471.301C1062.31 471.052 1064.37 471.569 1065.76 472.577C1066.93 471.281 1068.85 470.318 1071.07 470.069C1073.3 469.819 1075.36 470.337 1076.76 471.344C1077.93 470.048 1079.85 469.086 1082.07 468.836C1082.08 468.836 1082.08 468.836 1082.08 468.836C1085.94 468.408 1089.29 470.286 1089.56 473.02L1091.15 489.344C1092.25 500.69 1080.14 511.378 1064.14 513.171ZM1038.26 475.909C1036.06 476.156 1034.4 477.623 1034.55 479.182L1036.14 495.509C1036.62 500.433 1039.77 504.759 1045.02 507.691C1050.26 510.623 1056.98 511.809 1063.92 511.032C1078.26 509.425 1089.12 499.848 1088.13 489.682L1086.54 473.358C1086.39 471.801 1084.48 470.733 1082.28 470.976C1082.28 470.976 1082.28 470.976 1082.28 470.976C1080.08 471.223 1078.42 472.69 1078.57 474.249L1078.57 474.249C1078.57 474.25 1078.57 474.251 1078.57 474.252C1078.63 474.843 1078 475.397 1077.17 475.491C1076.34 475.583 1075.63 475.191 1075.55 474.614C1075.55 474.614 1075.55 474.613 1075.55 474.612C1075.55 474.612 1075.55 474.611 1075.55 474.611C1075.55 474.611 1075.55 474.611 1075.55 474.61C1075.55 474.609 1075.55 474.609 1075.55 474.608C1075.55 474.607 1075.55 474.607 1075.55 474.606C1075.55 474.605 1075.55 474.605 1075.55 474.604C1075.55 474.604 1075.55 474.604 1075.55 474.604C1075.55 474.601 1075.55 474.598 1075.55 474.596C1075.55 474.594 1075.55 474.592 1075.55 474.59C1075.4 473.03 1073.49 471.962 1071.29 472.208C1069.08 472.455 1067.42 473.925 1067.57 475.484C1067.63 476.075 1067 476.63 1066.17 476.723C1065.33 476.817 1064.61 476.413 1064.55 475.822C1064.4 474.263 1062.49 473.195 1060.29 473.441C1060.29 473.441 1060.29 473.441 1060.29 473.441C1058.08 473.688 1056.42 475.156 1056.57 476.715L1056.57 476.715C1056.57 476.716 1056.57 476.717 1056.57 476.717C1056.62 477.308 1056 477.863 1055.16 477.956C1054.34 478.049 1053.62 477.657 1053.55 477.078C1053.55 477.078 1053.55 477.077 1053.55 477.076C1053.55 477.076 1053.55 477.075 1053.55 477.075C1053.55 477.075 1053.55 477.075 1053.55 477.075C1053.55 477.073 1053.55 477.072 1053.55 477.07C1053.55 477.07 1053.55 477.07 1053.55 477.069C1053.55 477.069 1053.55 477.068 1053.55 477.067C1053.55 477.066 1053.55 477.066 1053.55 477.065C1053.55 477.064 1053.55 477.063 1053.55 477.062C1053.55 477.059 1053.55 477.058 1053.55 477.055C1053.4 475.499 1051.49 474.43 1049.29 474.673C1049.28 474.674 1049.27 474.675 1049.27 474.676C1047.07 474.922 1045.41 476.379 1045.55 477.934C1045.55 477.934 1045.55 477.934 1045.55 477.935C1045.55 477.94 1045.55 477.946 1045.55 477.952C1045.6 478.543 1044.98 479.098 1044.14 479.191C1043.32 479.283 1042.6 478.888 1042.53 478.305C1042.53 478.305 1042.53 478.304 1042.53 478.304C1042.53 478.304 1042.53 478.303 1042.53 478.302C1042.53 478.301 1042.53 478.301 1042.53 478.3L1042.53 478.3C1042.53 478.299 1042.53 478.298 1042.53 478.297C1042.53 478.297 1042.53 478.296 1042.53 478.296C1042.53 478.296 1042.53 478.295 1042.53 478.295C1042.53 478.294 1042.53 478.292 1042.53 478.29C1042.38 476.731 1040.47 475.663 1038.27 475.909C1038.26 475.909 1038.26 475.909 1038.26 475.909Z" fill="#000091"/>
<path d="M1079.88 666.284C1078.99 666.373 1078.22 665.961 1078.16 665.362L1062.74 513.165C1062.68 512.567 1063.35 512.01 1064.24 511.92C1065.13 511.831 1065.9 512.244 1065.96 512.842L1081.38 665.039C1081.44 665.637 1080.77 666.195 1079.88 666.284Z" fill="#000091"/>
<path d="M1078.49 490.655C1077.63 490.748 1076.89 490.338 1076.83 489.74L1075.32 474.231C1075.26 473.633 1075.91 473.074 1076.77 472.981C1077.62 472.889 1078.36 473.298 1078.42 473.896L1079.93 489.406C1079.99 490.003 1079.34 490.563 1078.49 490.655Z" fill="#000091"/>
<path d="M1067.54 491.792C1066.69 491.884 1065.94 491.475 1065.89 490.877L1064.38 475.367C1064.32 474.77 1064.96 474.21 1065.82 474.118C1066.68 474.025 1067.42 474.435 1067.48 475.033L1068.99 490.543C1069.04 491.14 1068.4 491.7 1067.54 491.792Z" fill="#000091"/>
<path d="M1056.6 492.929C1055.74 493.021 1055 492.611 1054.94 492.014L1053.43 476.504C1053.37 475.906 1054.02 475.347 1054.88 475.255C1055.73 475.162 1056.48 475.572 1056.53 476.169L1058.04 491.679C1058.1 492.277 1057.45 492.836 1056.6 492.929Z" fill="#000091"/>
<path d="M1045.65 494.065C1044.79 494.158 1044.05 493.748 1043.99 493.151L1042.48 477.641C1042.43 477.043 1043.07 476.484 1043.93 476.391C1044.78 476.299 1045.53 476.708 1045.58 477.306L1047.09 492.816C1047.15 493.414 1046.51 493.973 1045.65 494.065Z" fill="#000091"/>
<path d="M847.34 462.241C855.638 463.508 863.212 458.24 864.258 450.474C865.303 442.708 859.424 435.386 851.126 434.119C842.827 432.851 835.253 438.12 834.208 445.885C833.162 453.651 839.042 460.974 847.34 462.241Z" fill="white"/>
<path d="M847.151 463.672C843.874 463.172 840.794 461.774 838.3 459.656C835.805 457.538 834.008 454.793 833.136 451.77C832.264 448.747 832.356 445.581 833.401 442.672C834.445 439.763 836.396 437.242 839.005 435.428C841.614 433.614 844.764 432.588 848.058 432.48C851.352 432.372 854.642 433.187 857.51 434.822C860.379 436.456 862.699 438.837 864.175 441.664C865.652 444.49 866.219 447.634 865.806 450.7C865.247 454.808 862.969 458.481 859.472 460.913C855.974 463.345 851.543 464.337 847.151 463.672V463.672ZM850.942 435.554C848.274 435.147 845.567 435.489 843.162 436.538C840.756 437.586 838.762 439.293 837.43 441.443C836.098 443.594 835.489 446.09 835.679 448.618C835.87 451.145 836.851 453.589 838.5 455.642C840.148 457.694 842.389 459.263 844.94 460.149C847.491 461.035 850.237 461.199 852.83 460.619C855.424 460.04 857.748 458.744 859.51 456.895C861.272 455.045 862.392 452.726 862.729 450.23C863.176 446.884 862.186 443.46 859.976 440.708C857.767 437.957 854.518 436.103 850.942 435.554V435.554Z" fill="#000091"/>
<path d="M858.794 494.827C867.092 496.094 874.666 490.826 875.712 483.06C876.757 475.294 870.878 467.972 862.58 466.705C854.282 465.437 846.708 470.705 845.662 478.471C844.617 486.237 850.496 493.559 858.794 494.827Z" fill="white"/>
<path d="M858.603 496.258C855.326 495.758 852.246 494.36 849.751 492.242C847.257 490.124 845.46 487.379 844.588 484.356C843.716 481.333 843.808 478.167 844.853 475.258C845.897 472.349 847.847 469.828 850.456 468.014C853.065 466.2 856.216 465.174 859.51 465.066C862.804 464.958 866.093 465.773 868.962 467.407C871.831 469.042 874.15 471.423 875.627 474.249C877.103 477.076 877.671 480.22 877.258 483.286C876.699 487.394 874.421 491.067 870.923 493.499C867.426 495.931 862.995 496.923 858.603 496.258V496.258ZM862.394 468.14C859.726 467.733 857.018 468.075 854.613 469.124C852.208 470.172 850.214 471.879 848.882 474.029C847.55 476.18 846.941 478.676 847.131 481.204C847.322 483.731 848.303 486.175 849.951 488.228C851.6 490.28 853.841 491.849 856.392 492.735C858.943 493.621 861.688 493.784 864.282 493.205C866.875 492.626 869.2 491.33 870.962 489.481C872.724 487.631 873.844 485.312 874.18 482.816C874.627 479.47 873.637 476.045 871.428 473.294C869.218 470.543 865.969 468.689 862.394 468.14V468.14Z" fill="#000091"/>
<path d="M828.941 491.334C837.239 492.602 844.813 487.334 845.859 479.568C846.904 471.802 841.025 464.48 832.727 463.212C824.429 461.945 816.854 467.213 815.809 474.979C814.763 482.745 820.643 490.067 828.941 491.334Z" fill="white"/>
<path d="M828.751 492.766C825.475 492.266 822.395 490.869 819.9 488.75C817.406 486.632 815.609 483.887 814.737 480.864C813.865 477.841 813.957 474.675 815.001 471.766C816.046 468.857 817.996 466.336 820.605 464.522C823.214 462.707 826.364 461.682 829.658 461.574C832.952 461.466 836.242 462.281 839.111 463.915C841.979 465.55 844.299 467.931 845.775 470.758C847.252 473.584 847.82 476.729 847.406 479.794C846.847 483.902 844.569 487.575 841.072 490.007C837.575 492.439 833.144 493.431 828.751 492.766V492.766ZM832.542 464.648C829.874 464.241 827.167 464.583 824.762 465.632C822.357 466.68 820.362 468.387 819.03 470.537C817.699 472.688 817.089 475.184 817.28 477.711C817.47 480.239 818.452 482.683 820.1 484.736C821.749 486.789 823.99 488.357 826.541 489.243C829.092 490.129 831.837 490.293 834.431 489.713C837.024 489.134 839.349 487.838 841.111 485.989C842.873 484.14 843.993 481.82 844.329 479.325C844.776 475.978 843.786 472.554 841.576 469.802C839.367 467.051 836.118 465.197 832.542 464.648V464.648Z" fill="#000091"/>
<path d="M855.217 526.545C863.515 527.812 871.09 522.543 872.136 514.778C873.181 507.012 867.302 499.69 859.004 498.423C850.706 497.156 843.131 502.424 842.086 510.19C841.04 517.955 846.919 525.278 855.217 526.545Z" fill="white"/>
<path d="M855.026 527.979C851.75 527.479 848.67 526.082 846.176 523.964C843.681 521.845 841.885 519.101 841.013 516.077C840.141 513.054 840.234 509.887 841.278 506.978C842.323 504.069 844.273 501.547 846.882 499.733C849.491 497.918 852.641 496.892 855.935 496.784C859.228 496.676 862.518 497.49 865.386 499.125C868.254 500.76 870.573 503.141 872.05 505.967C873.526 508.794 874.093 511.939 873.68 515.004C873.121 519.113 870.843 522.787 867.346 525.219C863.848 527.651 859.418 528.644 855.026 527.979V527.979ZM858.818 499.858C856.151 499.451 853.443 499.794 851.038 500.843C848.633 501.891 846.639 503.599 845.307 505.749C843.975 507.9 843.366 510.397 843.556 512.924C843.746 515.452 844.728 517.896 846.376 519.949C848.024 522.002 850.265 523.57 852.816 524.456C855.366 525.342 858.112 525.505 860.705 524.926C863.298 524.346 865.623 523.05 867.384 521.2C869.146 519.351 870.266 517.031 870.603 514.535C871.05 511.189 870.061 507.764 867.851 505.012C865.642 502.261 862.393 500.407 858.818 499.858Z" fill="#000091"/>
<path d="M825.318 522.99C833.616 524.257 841.191 518.989 842.237 511.223C843.282 503.457 837.403 496.135 829.105 494.868C820.807 493.601 813.232 498.87 812.187 506.635C811.141 514.401 817.02 521.723 825.318 522.99Z" fill="white"/>
<path d="M825.125 524.428C821.849 523.929 818.769 522.531 816.275 520.413C813.781 518.294 811.984 515.55 811.112 512.526C810.241 509.503 810.333 506.336 811.377 503.427C812.422 500.518 814.372 497.997 816.981 496.182C819.59 494.367 822.74 493.341 826.034 493.233C829.328 493.125 832.617 493.94 835.485 495.574C838.354 497.209 840.673 499.59 842.149 502.417C843.625 505.243 844.193 508.388 843.779 511.454C843.22 515.562 840.942 519.236 837.445 521.668C833.948 524.101 829.517 525.093 825.125 524.428V524.428ZM828.917 496.307C826.25 495.901 823.542 496.243 821.137 497.292C818.733 498.34 816.738 500.048 815.406 502.198C814.074 504.349 813.465 506.846 813.655 509.373C813.846 511.901 814.827 514.346 816.475 516.398C818.123 518.451 820.364 520.019 822.915 520.905C825.465 521.791 828.211 521.955 830.804 521.375C833.397 520.796 835.722 519.499 837.484 517.65C839.246 515.8 840.366 513.481 840.702 510.985C841.149 507.638 840.16 504.213 837.95 501.461C835.741 498.71 832.492 496.856 828.917 496.307V496.307Z" fill="#000091"/>
<path d="M825.027 666.43C824.601 666.37 824.213 666.165 823.945 665.857C823.676 665.55 823.549 665.165 823.591 664.784L846.334 454.718C846.354 454.526 846.417 454.341 846.519 454.173C846.62 454.006 846.758 453.859 846.925 453.74C847.262 453.502 847.695 453.396 848.13 453.446C848.565 453.497 848.965 453.699 849.243 454.009C849.52 454.318 849.653 454.71 849.611 455.098L826.868 665.165C826.847 665.356 826.784 665.541 826.683 665.709C826.581 665.877 826.443 666.024 826.276 666.142C826.109 666.26 825.917 666.347 825.71 666.397C825.504 666.447 825.287 666.46 825.071 666.435L825.027 666.43Z" fill="#000091"/>
<path d="M213.991 636.183L213.732 632.282C213.513 628.874 212.113 625.646 209.771 623.151L208.048 621.308L240.086 619.207L238.621 621.265C236.623 624.054 235.664 627.45 235.909 630.867L236.167 634.768C236.263 636.215 236.073 637.666 235.606 639.039C235.139 640.413 234.405 641.681 233.446 642.771C232.486 643.862 231.321 644.754 230.015 645.396C228.71 646.039 227.29 646.418 225.837 646.514H225.832C222.893 646.714 219.995 645.744 217.775 643.816C215.555 641.889 214.195 639.162 213.994 636.236L213.991 636.183Z" fill="white"/>
<path d="M225.057 647.828C221.918 647.823 218.898 646.633 216.606 644.498C214.313 642.363 212.919 639.442 212.705 636.325L212.701 636.269L212.443 632.367C212.24 629.256 210.962 626.31 208.826 624.03L207.103 622.185C206.937 622.006 206.825 621.785 206.78 621.546C206.734 621.307 206.758 621.06 206.849 620.834C206.939 620.608 207.091 620.412 207.289 620.269C207.486 620.126 207.721 620.041 207.965 620.025L240.002 617.925C240.245 617.909 240.489 617.962 240.703 618.078C240.918 618.194 241.095 618.368 241.214 618.58C241.334 618.792 241.39 619.033 241.377 619.276C241.364 619.519 241.282 619.753 241.141 619.952L239.677 622.009C237.854 624.557 236.978 627.656 237.198 630.777L237.457 634.685C237.674 637.945 236.582 641.157 234.421 643.615C232.261 646.074 229.208 647.578 225.934 647.797H225.92C225.632 647.818 225.344 647.828 225.057 647.828ZM215.279 636.098V636.126C215.364 637.408 215.702 638.66 216.273 639.812C216.845 640.964 217.639 641.992 218.61 642.838C219.581 643.684 220.71 644.331 221.932 644.742C223.155 645.153 224.447 645.32 225.734 645.233H225.751C227.035 645.148 228.289 644.813 229.443 644.245C230.596 643.678 231.626 642.89 232.474 641.926C233.321 640.962 233.97 639.842 234.382 638.629C234.795 637.415 234.963 636.133 234.878 634.855L234.62 630.954C234.362 627.304 235.365 623.675 237.464 620.67L210.844 622.414C213.311 625.111 214.784 628.561 215.021 632.201L215.279 636.098Z" fill="#000091"/>
<path d="M227.037 666.662C226.709 666.662 226.394 666.538 226.155 666.315C225.916 666.092 225.771 665.787 225.749 665.462L223.639 634.039C223.625 633.869 223.645 633.698 223.698 633.536C223.751 633.374 223.836 633.224 223.948 633.095C224.06 632.966 224.196 632.86 224.349 632.784C224.503 632.708 224.67 632.663 224.84 632.651C225.011 632.64 225.183 632.662 225.345 632.718C225.507 632.773 225.656 632.86 225.784 632.973C225.912 633.086 226.016 633.223 226.091 633.377C226.165 633.531 226.208 633.697 226.217 633.868L228.327 665.29C228.349 665.631 228.236 665.966 228.01 666.223C227.784 666.479 227.466 666.636 227.124 666.659C227.093 666.662 227.065 666.662 227.037 666.662Z" fill="#000091"/>
<path d="M224.067 621.354C223.747 621.354 223.439 621.236 223.202 621.022L216.657 615.145C216.528 615.033 216.423 614.896 216.347 614.743C216.272 614.59 216.228 614.423 216.218 614.253C216.207 614.083 216.231 613.912 216.288 613.751C216.345 613.59 216.433 613.442 216.548 613.315C216.663 613.189 216.802 613.086 216.957 613.013C217.111 612.941 217.279 612.899 217.451 612.892C217.622 612.884 217.793 612.911 217.954 612.97C218.114 613.029 218.262 613.119 218.387 613.235L224.932 619.112C225.126 619.287 225.263 619.515 225.324 619.768C225.384 620.021 225.367 620.286 225.273 620.529C225.179 620.772 225.014 620.981 224.799 621.128C224.583 621.275 224.328 621.354 224.067 621.354V621.354Z" fill="#000091"/>
<path d="M224.067 621.352C223.74 621.352 223.426 621.229 223.187 621.007C222.948 620.786 222.802 620.482 222.778 620.158L222.176 611.794C222.161 611.625 222.18 611.454 222.233 611.291C222.285 611.129 222.369 610.979 222.48 610.849C222.591 610.72 222.727 610.613 222.88 610.537C223.033 610.46 223.199 610.414 223.37 610.402C223.541 610.39 223.712 610.411 223.874 610.466C224.037 610.52 224.186 610.606 224.315 610.718C224.444 610.831 224.549 610.967 224.624 611.12C224.699 611.273 224.742 611.44 224.752 611.61L225.127 616.805L228.674 612.591C228.894 612.329 229.21 612.166 229.551 612.136C229.892 612.106 230.232 612.212 230.495 612.431C230.757 612.65 230.922 612.964 230.952 613.304C230.982 613.644 230.875 613.982 230.655 614.243L225.057 620.892C224.936 621.036 224.784 621.152 224.613 621.231C224.442 621.311 224.256 621.352 224.067 621.352Z" fill="#000091"/>
<path d="M793.343 665.849C792.942 665.923 792.529 665.843 792.195 665.627C791.862 665.412 791.635 665.078 791.565 664.7L778.637 594.81C778.567 594.432 778.659 594.039 778.893 593.719C779.128 593.4 779.485 593.179 779.887 593.105C780.289 593.031 780.702 593.111 781.035 593.327C781.369 593.542 781.595 593.876 781.665 594.255L794.594 664.144C794.664 664.522 794.571 664.915 794.337 665.235C794.102 665.554 793.745 665.775 793.343 665.849V665.849Z" fill="#000091"/>
<path d="M798.541 590.235L761.13 597.581C758.098 598.114 755 597.448 752.501 595.728C750.003 594.007 748.302 591.368 747.765 588.377C747.228 585.386 747.897 582.282 749.629 579.73C751.36 577.179 754.016 575.384 757.027 574.73L794.438 567.384C797.488 566.721 800.655 567.284 803.241 568.949C805.827 570.614 807.62 573.245 808.227 576.263C808.833 579.281 808.203 582.439 806.475 585.041C804.747 587.644 802.062 589.479 799.012 590.142L798.541 590.235ZM758.668 583.87C758.056 583.991 757.512 584.347 757.155 584.86C756.799 585.374 756.661 586.003 756.769 586.609C756.878 587.215 757.226 587.748 757.736 588.092C758.246 588.435 758.876 588.561 759.488 588.441L796.9 581.094C797.512 580.974 798.056 580.618 798.412 580.104C798.768 579.591 798.907 578.962 798.798 578.356C798.689 577.75 798.342 577.216 797.832 576.873C797.322 576.529 796.691 576.404 796.079 576.524L758.668 583.87Z" fill="white"/>
<path d="M798.802 591.644L761.381 598.995C757.944 599.675 754.404 598.975 751.538 597.049C748.673 595.123 746.717 592.129 746.101 588.727C745.485 585.324 746.26 581.79 748.255 578.904C750.25 576.017 753.301 574.013 756.738 573.334L794.191 565.976C797.612 565.244 801.158 565.882 804.055 567.752C806.951 569.622 808.961 572.571 809.646 575.953C810.323 579.342 809.615 582.887 807.676 585.81C805.738 588.732 802.727 590.795 799.305 591.545L798.802 591.644ZM794.954 568.723C794.878 568.737 794.803 568.752 794.726 568.767L757.272 576.125C754.638 576.711 752.319 578.293 750.809 580.533C749.3 582.774 748.721 585.495 749.196 588.115C749.671 590.735 751.162 593.046 753.351 594.554C755.539 596.063 758.252 596.648 760.908 596.186L798.77 588.748C801.405 588.145 803.717 586.544 805.212 584.289C806.706 582.033 807.263 579.304 806.764 576.684C806.265 574.065 804.749 571.764 802.541 570.276C800.333 568.788 797.609 568.23 794.954 568.723V568.723ZM797.159 582.497L759.738 589.848C758.75 590.042 757.733 589.84 756.911 589.286C756.088 588.731 755.528 587.871 755.352 586.893C755.176 585.915 755.4 584.9 755.974 584.072C756.548 583.243 757.425 582.669 758.413 582.475L795.835 575.123C796.822 574.929 797.839 575.132 798.661 575.686C799.484 576.24 800.045 577.101 800.22 578.079C800.396 579.056 800.172 580.071 799.598 580.9C799.024 581.728 798.147 582.303 797.159 582.497V582.497ZM758.916 585.275C758.678 585.321 758.467 585.46 758.329 585.659C758.191 585.858 758.138 586.102 758.18 586.337C758.222 586.573 758.357 586.78 758.555 586.913C758.752 587.046 758.997 587.095 759.235 587.048L796.656 579.697C796.894 579.65 797.105 579.512 797.243 579.313C797.381 579.113 797.435 578.869 797.392 578.634C797.35 578.399 797.215 578.192 797.017 578.059C796.82 577.925 796.575 577.877 796.338 577.923L758.916 585.275Z" fill="#000091"/>
<path d="M802.318 623.548C797.785 624.44 785.174 619.604 783.75 619.05C783.526 618.962 783.329 618.819 783.176 618.634C783.024 618.449 782.921 618.228 782.878 617.991C782.835 617.754 782.853 617.509 782.931 617.278C783.008 617.047 783.142 616.839 783.32 616.672C784.456 615.608 794.516 606.26 799.052 605.367C801.455 604.932 803.916 605.454 805.904 606.82C807.892 608.186 809.248 610.286 809.681 612.669C810.113 615.052 809.587 617.526 808.216 619.56C806.845 621.594 804.739 623.023 802.35 623.541L802.318 623.548ZM786.988 617.175C792.153 619.044 799.345 621.2 801.794 620.732C803.433 620.366 804.875 619.378 805.812 617.978C806.75 616.579 807.109 614.879 806.813 613.242C806.517 611.605 805.589 610.161 804.227 609.217C802.865 608.274 801.178 607.906 799.525 608.192C797.12 608.666 791.16 613.444 786.991 617.176L786.988 617.175Z" fill="#000091"/>
<path d="M769.29 629.92C769.274 629.923 769.259 629.926 769.243 629.929C766.801 630.347 764.311 629.784 762.321 628.363C760.33 626.941 759.002 624.778 758.628 622.349C758.254 619.921 758.866 617.425 760.328 615.412C761.79 613.398 763.983 612.032 766.424 611.613C770.927 610.727 783.547 615.606 784.971 616.166C785.195 616.253 785.392 616.397 785.544 616.582C785.696 616.768 785.797 616.989 785.84 617.227C785.882 617.464 785.863 617.709 785.786 617.939C785.708 618.17 785.573 618.378 785.395 618.544C784.262 619.603 774.194 628.905 769.659 629.798L769.645 629.801C769.532 629.856 769.413 629.896 769.29 629.92V629.92ZM766.758 614.466C765.087 614.765 763.588 615.707 762.589 617.089C761.589 618.47 761.168 620.179 761.417 621.845C761.666 623.511 762.566 624.999 763.92 625.987C765.274 626.974 766.975 627.382 768.652 627.121C768.815 627.059 768.983 627.012 769.154 626.981C771.588 626.502 777.556 621.745 781.731 618.032C776.552 616.143 769.336 613.959 766.901 614.439C766.852 614.444 766.805 614.454 766.758 614.463L766.758 614.466Z" fill="#000091"/>
<path d="M1050.2 666.274C1049.79 666.365 1049.38 666.342 1049.04 666.211C1048.71 666.079 1048.48 665.848 1048.4 665.567L1016.19 548.902C1016.11 548.614 1016.2 548.297 1016.43 548.021C1016.67 547.744 1017.03 547.531 1017.45 547.427C1017.86 547.324 1018.29 547.339 1018.63 547.469C1018.98 547.599 1019.22 547.834 1019.3 548.122L1051.51 664.786C1051.55 664.929 1051.55 665.08 1051.51 665.231C1051.47 665.382 1051.38 665.53 1051.27 665.667C1051.15 665.804 1051 665.927 1050.83 666.029C1050.65 666.131 1050.46 666.209 1050.26 666.26L1050.2 666.274Z" fill="#000091"/>
<path d="M1023.8 572.274C1023.55 572.332 1023.29 572.329 1023.05 572.266C1022.81 572.202 1022.59 572.079 1022.4 571.909L1009.74 559.931C1009.45 559.658 1009.28 559.28 1009.28 558.88C1009.28 558.48 1009.44 558.091 1009.72 557.799C1010.01 557.507 1010.4 557.336 1010.8 557.322C1011.21 557.309 1011.6 557.455 1011.89 557.728L1022.77 568.014L1027.33 553.499C1027.39 553.306 1027.48 553.125 1027.61 552.967C1027.74 552.809 1027.9 552.677 1028.08 552.578C1028.26 552.479 1028.45 552.416 1028.65 552.392C1028.86 552.368 1029.06 552.383 1029.25 552.438C1029.45 552.492 1029.63 552.584 1029.78 552.708C1029.94 552.832 1030.07 552.986 1030.16 553.161C1030.25 553.336 1030.31 553.528 1030.32 553.727C1030.34 553.925 1030.32 554.126 1030.25 554.317L1024.94 571.217C1024.87 571.466 1024.72 571.693 1024.53 571.875C1024.34 572.058 1024.11 572.191 1023.85 572.26L1023.8 572.274Z" fill="#000091"/>
<path d="M1027.66 587.041C1027.41 587.1 1027.15 587.097 1026.9 587.032C1026.66 586.968 1026.44 586.844 1026.26 586.671L1007.91 569.167C1007.77 569.031 1007.65 568.868 1007.57 568.687C1007.5 568.507 1007.45 568.311 1007.45 568.113C1007.45 567.914 1007.49 567.717 1007.57 567.531C1007.65 567.345 1007.76 567.175 1007.9 567.031C1008.04 566.887 1008.21 566.771 1008.4 566.689C1008.59 566.608 1008.78 566.564 1008.99 566.559C1009.19 566.553 1009.39 566.587 1009.57 566.658C1009.76 566.73 1009.93 566.837 1010.07 566.974L1026.62 582.763L1033.51 560.563C1033.57 560.367 1033.66 560.182 1033.79 560.02C1033.91 559.858 1034.07 559.721 1034.25 559.619C1034.43 559.517 1034.63 559.451 1034.83 559.425C1035.04 559.399 1035.25 559.413 1035.44 559.468C1035.64 559.522 1035.82 559.615 1035.98 559.741C1036.13 559.867 1036.26 560.023 1036.36 560.201C1036.45 560.378 1036.5 560.574 1036.52 560.775C1036.53 560.976 1036.51 561.179 1036.44 561.372L1028.8 585.982C1028.72 586.232 1028.58 586.46 1028.39 586.644C1028.2 586.828 1027.96 586.961 1027.71 587.031L1027.66 587.041Z" fill="#000091"/>
<path d="M1032.1 603.917C1031.85 603.976 1031.6 603.973 1031.35 603.909C1031.11 603.846 1030.89 603.723 1030.71 603.552L1006.96 581.108C1006.68 580.833 1006.53 580.457 1006.53 580.062C1006.53 579.666 1006.69 579.283 1006.97 578.994C1007.25 578.705 1007.64 578.534 1008.04 578.517C1008.44 578.5 1008.83 578.64 1009.12 578.905L1031.07 599.658L1040.27 570.403C1040.32 570.21 1040.42 570.03 1040.55 569.872C1040.68 569.714 1040.83 569.581 1041.01 569.483C1041.19 569.384 1041.39 569.321 1041.59 569.297C1041.79 569.273 1042 569.288 1042.19 569.342C1042.38 569.396 1042.56 569.488 1042.72 569.612C1042.87 569.737 1043 569.89 1043.1 570.065C1043.19 570.24 1043.24 570.432 1043.26 570.631C1043.28 570.829 1043.25 571.03 1043.19 571.222L1033.25 602.86C1033.17 603.109 1033.03 603.336 1032.84 603.519C1032.65 603.701 1032.41 603.834 1032.16 603.903L1032.1 603.917Z" fill="#000091"/>
<path d="M1036.36 620.189C1036.11 620.247 1035.86 620.244 1035.62 620.181C1035.37 620.117 1035.15 619.995 1034.97 619.824L1006.92 593.329C1006.78 593.195 1006.66 593.032 1006.58 592.851C1006.5 592.67 1006.45 592.474 1006.45 592.274C1006.45 592.074 1006.48 591.874 1006.56 591.686C1006.64 591.499 1006.75 591.327 1006.89 591.181C1007.03 591.034 1007.2 590.917 1007.39 590.835C1007.58 590.753 1007.78 590.708 1007.98 590.703C1008.19 590.698 1008.39 590.733 1008.58 590.806C1008.76 590.878 1008.93 590.987 1009.08 591.126L1035.34 615.931L1046.36 580.948C1046.48 580.563 1046.75 580.237 1047.11 580.042C1047.47 579.847 1047.89 579.799 1048.28 579.908C1048.67 580.017 1048.99 580.274 1049.18 580.623C1049.37 580.973 1049.41 581.385 1049.29 581.77L1037.51 619.134C1037.43 619.383 1037.29 619.609 1037.1 619.792C1036.91 619.974 1036.67 620.106 1036.42 620.176C1036.4 620.181 1036.38 620.185 1036.36 620.189Z" fill="#000091"/>
<path d="M991.205 623.715C998.477 623.715 1004.37 617.861 1004.37 610.641C1004.37 603.42 998.477 597.566 991.205 597.566C983.934 597.566 978.039 603.42 978.039 610.641C978.039 617.861 983.934 623.715 991.205 623.715Z" fill="white"/>
<path d="M991.206 625.18C983.135 625.18 976.569 618.658 976.569 610.643C976.569 602.627 983.135 596.105 991.206 596.105C999.276 596.105 1005.84 602.627 1005.84 610.643C1005.84 618.658 999.276 625.18 991.206 625.18ZM991.206 599.031C984.757 599.031 979.51 604.24 979.51 610.643C979.51 617.045 984.757 622.254 991.206 622.254C997.654 622.254 1002.9 617.045 1002.9 610.643C1002.9 604.24 997.654 599.031 991.206 599.031Z" fill="#000091"/>
<path d="M1005.64 666.128C1004.92 666.128 1004.29 665.853 1004.19 665.475L989.748 610.036C989.641 609.624 990.207 609.245 991.012 609.19C991.815 609.135 992.556 609.425 992.664 609.837L1007.1 665.276C1007.21 665.688 1006.65 666.067 1005.84 666.122C1005.78 666.126 1005.71 666.128 1005.64 666.128Z" fill="#000091"/>
<path d="M743.609 665.642C743.275 665.641 742.952 665.528 742.691 665.321C742.431 665.114 742.249 664.826 742.176 664.502L736.514 639.557C736.472 639.37 736.467 639.177 736.5 638.988C736.532 638.799 736.602 638.619 736.706 638.457C736.809 638.295 736.943 638.154 737.101 638.044C737.259 637.934 737.437 637.855 737.625 637.813C738.006 637.728 738.405 637.796 738.734 638.003C739.064 638.21 739.297 638.539 739.383 638.916L745.043 663.862C745.091 664.075 745.091 664.297 745.041 664.51C744.992 664.723 744.895 664.923 744.757 665.094C744.619 665.265 744.444 665.403 744.246 665.497C744.047 665.592 743.829 665.642 743.609 665.642V665.642Z" fill="#000091"/>
<path d="M736.258 639.426C740.507 639.426 743.952 636.007 743.952 631.789C743.952 627.571 740.507 624.152 736.258 624.152C732.009 624.152 728.564 627.571 728.564 631.789C728.564 636.007 732.009 639.426 736.258 639.426Z" fill="white"/>
<path d="M736.258 640.887C734.446 640.887 732.674 640.354 731.167 639.354C729.66 638.355 728.485 636.934 727.791 635.272C727.098 633.61 726.916 631.781 727.27 630.017C727.623 628.252 728.496 626.632 729.778 625.359C731.06 624.087 732.693 623.221 734.47 622.87C736.248 622.519 738.091 622.699 739.765 623.388C741.44 624.076 742.871 625.242 743.878 626.738C744.885 628.234 745.422 629.992 745.422 631.791C745.42 634.203 744.453 636.515 742.735 638.22C741.017 639.925 738.688 640.884 736.258 640.887ZM736.258 625.614C735.027 625.614 733.824 625.976 732.8 626.655C731.777 627.334 730.979 628.298 730.508 629.427C730.037 630.556 729.914 631.798 730.154 632.996C730.394 634.195 730.987 635.295 731.857 636.159C732.728 637.023 733.837 637.612 735.044 637.85C736.251 638.088 737.503 637.966 738.64 637.498C739.777 637.031 740.749 636.239 741.433 635.223C742.117 634.207 742.482 633.013 742.482 631.791C742.48 630.153 741.824 628.583 740.657 627.425C739.49 626.267 737.908 625.616 736.258 625.614V625.614Z" fill="#000091"/>
<path d="M784.37 510.452L784.272 505.87C784.227 503.778 785.916 502.046 788.046 502.001C788.645 501.988 789.24 502.113 789.781 502.366L801.469 507.805L790.028 513.726C788.141 514.701 785.807 513.99 784.813 512.136C784.535 511.616 784.384 511.04 784.37 510.452Z" fill="white"/>
<path d="M788.235 515.324C787.734 515.324 787.23 515.25 786.737 515.099C785.452 514.708 784.4 513.848 783.774 512.678C783.412 512.004 783.212 511.244 783.195 510.483C783.195 510.482 783.195 510.482 783.195 510.482L783.097 505.9C783.069 504.581 783.565 503.329 784.494 502.375C785.424 501.421 786.676 500.881 788.019 500.853C788.802 500.836 789.581 501.001 790.284 501.329L801.971 506.767C802.373 506.955 802.633 507.349 802.642 507.786C802.652 508.223 802.409 508.628 802.015 508.831L790.575 514.752C789.841 515.131 789.041 515.324 788.235 515.324ZM785.544 510.433C785.553 510.839 785.66 511.244 785.853 511.603C786.187 512.227 786.748 512.686 787.433 512.895C788.119 513.103 788.846 513.038 789.481 512.71L798.842 507.865L789.278 503.414C788.903 503.239 788.49 503.152 788.07 503.16C787.354 503.175 786.687 503.463 786.191 503.971C785.695 504.48 785.431 505.147 785.446 505.851L785.544 510.433Z" fill="#000091"/>
<path d="M798.786 491.003L803.449 490.907C805.581 490.87 807.34 492.538 807.377 494.632C807.388 495.215 807.261 495.792 807.008 496.319L801.468 507.806L795.442 496.554C794.453 494.698 795.183 492.406 797.072 491.435C797.602 491.162 798.188 491.015 798.786 491.003Z" fill="white"/>
<path d="M801.468 508.962C801.032 508.962 800.632 508.725 800.428 508.345L794.403 497.093C793.114 494.674 794.068 491.678 796.528 490.414C797.214 490.06 797.987 489.866 798.761 489.851L803.425 489.755C806.204 489.707 808.503 491.886 808.552 494.613C808.566 495.37 808.399 496.13 808.07 496.814L802.529 508.302C802.338 508.697 801.937 508.952 801.492 508.961C801.484 508.962 801.476 508.962 801.468 508.962ZM803.518 492.062C803.502 492.062 803.486 492.062 803.47 492.062L798.811 492.158C798.81 492.158 798.81 492.158 798.81 492.158C798.396 492.166 797.984 492.27 797.618 492.459C796.305 493.133 795.797 494.731 796.483 496.02L801.414 505.227L805.947 495.827C806.122 495.463 806.211 495.058 806.204 494.654C806.177 493.215 804.977 492.062 803.518 492.062ZM798.786 491.005H798.79H798.786Z" fill="#000091"/>
<path d="M170.596 400.236C170.277 400.191 169.977 400.052 169.736 399.838C169.494 399.624 169.321 399.344 169.24 399.035C169.158 398.725 169.172 398.401 169.279 398.103C169.386 397.805 169.582 397.547 169.84 397.363C186.836 385.259 198.745 374.983 205.234 366.82C205.588 366.376 205.919 365.945 206.228 365.529C200.489 365.331 196.799 363.771 195.101 360.852C193.104 357.422 194.232 353.854 198.045 351.541C202.652 348.747 209.849 348.621 212.589 352.629C214.214 355.01 214.039 358.197 212.135 362.102C232.086 360.022 268.985 346.915 302.648 331.583C303.033 331.407 303.475 331.392 303.878 331.539C304.28 331.687 304.61 331.986 304.794 332.37C304.978 332.754 305.002 333.192 304.861 333.587C304.719 333.983 304.423 334.304 304.038 334.479C287.964 341.8 263.244 351.959 242.07 358.515C228.537 362.706 217.94 365.023 210.183 365.471C204.35 374.277 191.331 386.015 171.752 399.958C171.42 400.195 171.006 400.295 170.596 400.236V400.236ZM206.852 352.779C204.375 352.505 201.889 353.026 199.763 354.265C198.14 355.249 196.497 356.922 197.882 359.303C199.225 361.609 202.911 362.545 208.348 362.372C211.239 357.473 210.502 355.214 209.93 354.378C209.319 353.483 208.192 352.969 206.852 352.779Z" fill="#000091"/>
<path d="M253.956 377.124C253.58 377.071 253.232 376.889 252.975 376.609C252.717 376.33 252.566 375.971 252.548 375.596C252.53 375.222 252.646 374.855 252.876 374.562C253.106 374.268 253.436 374.066 253.805 373.992C277.192 369.263 318.181 346.743 318.589 346.516C318.958 346.312 319.397 346.263 319.809 346.38C320.221 346.497 320.572 346.77 320.785 347.139C320.998 347.508 321.056 347.943 320.945 348.348C320.834 348.754 320.565 349.096 320.195 349.3C318.499 350.234 278.368 372.282 254.503 377.107C254.324 377.144 254.139 377.15 253.956 377.124Z" fill="#000091"/>
</svg>
