<svg width="113" height="148" viewBox="0 0 113 148" fill="none" xmlns="http://www.w3.org/2000/svg">
<path d="M48.6004 148C42.8671 148 37.6004 147.267 32.8004 145.8C28.1337 144.333 24.2671 142.267 21.2004 139.6C18.5337 137.467 16.4004 135 14.8004 132.2C13.2004 129.4 12.4004 126.267 12.4004 122.8C12.4004 118.4 13.1337 115.467 14.6004 114C16.2004 112.4 18.4004 111.6 21.2004 111.6H35.6004L37.2004 114.2L36.0004 121.4C34.9337 127.667 35.8004 132.067 38.6004 134.6C41.4004 137 45.0671 138.2 49.6004 138.2C56.5337 138.2 62.0671 135.2 66.2004 129.2C70.4671 123.2 72.6004 114.467 72.6004 103C72.6004 96.7333 70.8004 91.8 67.2004 88.2C63.7337 84.6 57.7337 82.8 49.2004 82.8H37.6004L39.2004 72.8H45.0004C51.0004 72.8 56.4004 71.3333 61.2004 68.4C66.1337 65.3333 70.0004 61.1333 72.8004 55.8C75.7337 50.3333 77.2004 44.0667 77.2004 37C77.2004 31.8 76.4004 28 74.8004 25.6C73.3337 23.0667 70.7337 21.8 67.0004 21.8C58.0671 21.8 52.6671 27.8667 50.8004 40L49.4004 49.2L47.0004 51.8H32.6004C30.6004 51.8 29.0671 51.4667 28.0004 50.8C26.9337 50.1333 26.4004 48.6667 26.4004 46.4C26.4004 42.1333 27.5337 38.2667 29.8004 34.8C32.2004 31.3333 35.4671 27.9333 39.6004 24.6C44.6671 20.4667 49.8004 17.3333 55.0004 15.2C60.2004 13.0667 66.4004 12 73.6004 12C85.4671 12 94.8671 14.5333 101.8 19.6C108.867 24.6667 112.4 31.0667 112.4 38.8C112.4 45.7333 110.534 51.6667 106.8 56.6C103.067 61.4 97.9337 65.2667 91.4004 68.2C85.0004 71.1333 77.7337 73.0667 69.6004 74C82.6671 75.4667 92.3337 78.8 98.6004 84C105 89.2 108.2 95.8667 108.2 104C108.2 110.533 106.6 116.533 103.4 122C100.2 127.333 95.8004 131.933 90.2004 135.8C84.7337 139.667 78.4004 142.667 71.2004 144.8C64.0004 146.933 56.4671 148 48.6004 148Z" fill="#E3E3FD"/>
<path d="M24.2007 139.708L24.2083 139.71L24.216 139.713C29.2301 141.245 34.6966 142 40.6004 142C48.6502 142 56.3755 140.908 63.7686 138.718C71.1492 136.531 77.6826 133.444 83.3461 129.439C89.154 125.427 93.7571 120.626 97.1154 115.029L97.1209 115.02L97.1264 115.01C100.512 109.227 102.2 102.877 102.2 96C102.2 87.2581 98.7241 80.027 91.8695 74.4542C87.2253 70.6033 80.9401 67.7874 73.1128 65.9273C77.0505 64.9122 80.7563 63.6114 84.2268 62.0213C91.0019 58.9783 96.4137 54.9263 100.379 49.8279L100.387 49.8174L100.395 49.8069C104.423 44.4845 106.4 38.1138 106.4 30.8C106.4 22.3373 102.484 15.3674 94.9731 9.97982C87.5891 4.58694 77.7289 2 65.6004 2C58.2101 2 51.7395 3.094 46.2413 5.34966C40.8336 7.56818 35.5342 10.8104 30.3406 15.0466C26.097 18.4694 22.688 22.0042 20.156 25.6616L20.1409 25.6833L20.1265 25.7055C17.6404 29.5078 16.4004 33.757 16.4004 38.4C16.4004 40.8106 16.9415 43.2467 18.9404 44.496C20.4608 45.4463 22.427 45.8 24.6004 45.8H39.0004H39.8761L40.47 45.1566L42.87 42.5566L43.2855 42.1065L43.3776 41.5009L44.7771 32.3041C44.7773 32.3032 44.7774 32.3023 44.7775 32.3015C45.6803 26.4356 47.4009 22.3124 49.7443 19.6797C52.0243 17.1183 55.0407 15.8 59.0004 15.8C62.2473 15.8 64.0613 16.8606 65.0695 18.6021L65.1012 18.6568L65.1363 18.7094C66.4028 20.6092 67.2004 23.9197 67.2004 29C67.2004 35.7831 65.7948 41.7168 63.0381 46.8544L63.0338 46.8623L63.0296 46.8703C60.39 51.8981 56.7673 55.8262 52.1511 58.6973C47.6878 61.4233 42.6552 62.8 37.0004 62.8H31.2004H29.495L29.2255 64.484L27.6255 74.484L27.255 76.8H29.6004H41.2004C49.552 76.8 54.8632 78.5793 57.7598 81.5873L57.7728 81.6009L57.7862 81.6142C60.9282 84.7562 62.6004 89.1337 62.6004 95C62.6004 106.267 60.496 114.521 56.5705 120.041L56.5618 120.053L56.5534 120.065C52.7708 125.556 47.837 128.2 41.6004 128.2C37.4432 128.2 34.2805 127.111 31.923 125.099C29.9157 123.267 28.9437 119.777 29.972 113.736L29.9732 113.729L31.1732 106.529L31.2963 105.79L30.9037 105.152L29.3037 102.552L28.718 101.6H27.6004H13.2004C10.0034 101.6 7.24612 102.526 5.18618 104.586C4.10511 105.667 3.4269 107.148 3.01011 108.815C2.59029 110.494 2.40039 112.503 2.40039 114.8C2.40039 118.588 3.27832 122.068 5.0639 125.192C6.78972 128.212 9.082 130.86 11.919 133.136C15.2258 136.003 19.3392 138.18 24.2007 139.708Z" stroke="#000091" stroke-width="4"/>
</svg>
