<svg width="281" height="208" viewBox="0 0 281 208" fill="none" xmlns="http://www.w3.org/2000/svg">
<path d="M57.1195 82.3885C51.3593 82.3885 46.4115 80.8746 42.276 77.8468C38.2143 74.819 35.0758 70.4989 32.8603 64.8864C30.7187 59.2001 29.6479 52.4799 29.6479 44.7259C29.6479 37.4888 30.7926 31.064 33.0819 25.4515C35.445 19.7652 38.6943 15.2974 42.8298 12.0481C46.9653 8.72491 51.7286 7.06332 57.1195 7.06332C62.8796 7.06332 67.8275 8.57721 71.963 11.605C76.0984 14.6328 79.237 18.9898 81.3786 24.6761C83.594 30.2886 84.7018 36.9718 84.7018 44.7259C84.7018 51.963 83.5202 58.4247 81.157 64.111C78.7939 69.7235 75.5446 74.1913 71.4091 77.5145C67.2736 80.7638 62.5104 82.3885 57.1195 82.3885ZM59.0026 76.9606C60.9226 76.9606 62.5104 75.7421 63.7658 73.3051C65.0212 70.7943 65.9443 67.3973 66.5351 63.1141C67.1259 58.757 67.4213 53.7723 67.4213 48.1598C67.4213 41.5873 67.0151 35.6056 66.2028 30.2147C65.4643 24.8238 64.2458 20.5037 62.5473 17.2544C60.8488 14.0051 58.5595 12.3804 55.6794 12.3804C52.7255 12.3804 50.5101 15.002 49.0331 20.2452C47.63 25.4146 46.9284 32.3563 46.9284 41.0704C46.9284 47.6429 47.3346 53.6615 48.1469 59.1263C48.9592 64.5172 50.2516 68.8373 52.0239 72.0866C53.7963 75.336 56.1225 76.9606 59.0026 76.9606Z" fill="#E3E3FD"/>
<path d="M93.9564 81.2807V77.1822C99.9381 70.6835 104.886 65.2557 108.8 60.8986C112.714 56.4677 115.815 52.7015 118.105 49.5999C120.468 46.4982 122.203 43.7289 123.311 41.2919C124.493 38.7811 125.231 36.3072 125.527 33.8702C125.896 31.3594 126.08 28.4793 126.08 25.23C126.08 21.6853 125.268 18.6944 123.643 16.2574C122.019 13.8204 119.545 12.6019 116.222 12.6019C112.677 12.6019 109.981 13.7097 108.135 15.9251C106.363 18.1405 105.477 21.2791 105.477 25.3407V30.547L104.701 31.544H97.1688C95.6919 31.544 94.5841 31.2855 93.8457 30.7686C93.1072 30.2516 92.7379 28.9593 92.7379 26.8916C92.7379 24.75 93.4026 22.6084 94.7318 20.4668C96.0611 18.2513 98.2766 16.0359 101.378 13.8204C104.258 11.6788 107.101 10.0172 109.908 8.83568C112.714 7.65411 116.406 7.06332 120.985 7.06332C125.416 7.06332 129.33 7.9495 132.727 9.72186C136.124 11.4204 138.745 13.7835 140.592 16.8113C142.512 19.7652 143.472 23.0514 143.472 26.67C143.472 28.9593 143.176 31.1009 142.585 33.0948C142.069 35.0887 141.108 37.1565 139.705 39.298C138.302 41.3658 136.308 43.7659 133.724 46.4982C131.139 49.1568 127.779 52.2953 123.643 55.9139C119.582 59.5324 114.56 63.8526 108.578 68.8742H137.933L144.358 57.797H146.13L145.022 81.2807H93.9564Z" fill="#E3E3FD"/>
<path d="M39.0927 72.5785L39.0965 72.5813C43.3385 75.6871 48.4046 77.2299 54.2672 77.2299C59.7788 77.2299 64.6633 75.5657 68.899 72.2376L68.9037 72.2338C73.1209 68.8451 76.4217 64.2981 78.8152 58.6136L78.8162 58.6112C81.2118 52.8468 82.4033 46.311 82.4033 39.0135C82.4033 31.2106 81.2891 24.4562 79.043 18.7643C76.8707 12.9983 73.6741 8.5473 69.4378 5.44573C65.1958 2.33995 60.1297 0.797091 54.2672 0.797091C48.7533 0.797091 43.868 2.49975 39.633 5.90205C35.4122 9.21912 32.111 13.7688 29.7181 19.5266L29.7168 19.53C27.3957 25.2204 26.2418 31.7183 26.2418 39.0135C26.2418 46.8167 27.3191 53.606 29.4897 59.3693L29.4897 59.3693L29.4929 59.3774C31.7388 65.0672 34.9339 69.4783 39.0927 72.5785ZM62.8018 24.5775L62.8017 24.5775L62.8028 24.5849C63.6103 29.9436 64.0151 35.8972 64.0151 42.4475C64.0151 48.041 63.7207 52.9997 63.1341 57.3262C62.5479 61.5765 61.6368 64.9066 60.4196 67.3421C59.2134 69.682 57.778 70.6944 56.1503 70.6944C53.5324 70.6944 51.3655 69.2396 49.6579 66.109C47.9276 62.9368 46.6493 58.6862 45.8424 53.3323C45.0348 47.899 44.63 41.9081 44.63 35.358C44.63 26.6679 45.3303 19.7821 46.7146 14.6805C47.4427 12.0965 48.3381 10.2165 49.3731 8.99172C50.3946 7.78302 51.5404 7.22188 52.8271 7.22188C55.4421 7.22188 57.5704 8.67314 59.2042 11.7986C60.8624 14.9708 62.0682 19.2223 62.8018 24.5775ZM90.5503 75.5684V76.1222H91.1041H142.17H142.698L142.723 75.5945L143.831 52.1107L143.858 51.5308H143.278H141.506H141.186L141.026 51.8068L134.762 62.608H107.246C112.72 57.9997 117.357 54.0025 121.157 50.6169C125.299 46.9933 128.67 43.8446 131.269 41.172L131.274 41.1665C133.87 38.4221 135.885 35.9981 137.311 33.8967L137.311 33.8967L137.316 33.8892C138.743 31.7122 139.731 29.5925 140.267 27.5308C140.872 25.4836 141.173 23.2915 141.173 20.9576C141.173 17.2378 140.185 13.8484 138.208 10.8038C136.305 7.68541 133.605 5.25636 130.126 3.51618C126.64 1.69805 122.637 0.797091 118.133 0.797091C113.514 0.797091 109.74 1.39196 106.84 2.61285C103.988 3.81387 101.108 5.49841 98.1996 7.66049C95.0669 9.89873 92.7887 12.1642 91.4068 14.4658C90.0343 16.6782 89.3318 18.9185 89.3318 21.1792C89.3318 22.24 89.4258 23.1367 89.63 23.8514C89.8331 24.5621 90.162 25.1503 90.6757 25.51C91.5497 26.1217 92.7919 26.3855 94.3165 26.3855H101.849H102.12L102.286 26.1717L103.062 25.1747L103.178 25.0247V24.8347V19.6284C103.178 15.6423 104.048 12.6455 105.712 10.5631C107.429 8.50527 109.95 7.44343 113.369 7.44343C116.536 7.44343 118.824 8.59214 120.33 10.8523C121.883 13.1807 122.674 16.059 122.674 19.5176C122.674 22.747 122.491 25.5993 122.126 28.0773L122.126 28.0772L122.124 28.0912C121.837 30.4625 121.117 32.8795 119.958 35.3437L119.955 35.3504C118.87 37.7368 117.16 40.4697 114.812 43.5518L114.812 43.5518L114.807 43.5586C112.531 46.642 109.441 50.3945 105.534 54.8183C101.622 59.1727 96.6765 64.5981 90.6966 71.0947L90.5503 71.2537V71.4698V75.5684Z" stroke="#000091" stroke-width="1.10772"/>
<g clip-path="url(#clip0_2051_141865)">
<path d="M203.381 60.7543H198.782C198.533 60.7543 198.336 60.9514 198.336 61.2004H199.465C203.982 61.2004 207.648 64.8727 207.648 69.3957V183.922C207.648 188.445 203.982 192.117 199.465 192.117H198.336C198.336 192.366 198.533 192.563 198.782 192.563H203.381C208.135 192.563 212.009 188.683 212.009 183.922V69.3957C212.009 64.6341 208.135 60.7543 203.381 60.7543Z" fill="#000091"/>
<path d="M207.653 69.3961V183.922C207.653 188.445 203.996 192.117 199.47 192.117H148.911C144.394 192.117 140.728 188.466 140.728 183.943C140.728 183.933 140.728 183.933 140.728 183.922V69.3961C140.728 64.8731 144.394 61.2008 148.911 61.2008H199.47C203.986 61.2008 207.653 64.8731 207.653 69.3961Z" fill="white"/>
<path d="M148.899 192.428C144.227 192.428 140.415 188.621 140.415 183.943V69.3958C140.415 64.7068 144.227 60.8893 148.909 60.8893H199.468C204.15 60.8893 207.962 64.7068 207.962 69.3958V183.922C207.962 188.611 204.15 192.428 199.468 192.428H148.899C148.909 192.428 148.899 192.428 148.899 192.428ZM148.909 61.5117C144.569 61.5117 141.037 65.0492 141.037 69.3958V183.932C141.037 188.268 144.569 191.795 148.899 191.795H148.909H199.468C203.809 191.795 207.341 188.258 207.341 183.911V69.3958C207.341 65.0492 203.809 61.5117 199.468 61.5117H148.909Z" fill="#000091"/>
<path d="M186.913 66.8024H161.483C159.857 66.8024 158.531 65.4746 158.531 63.8459C158.531 62.5596 157.485 61.5118 156.2 61.5118C156.024 61.5118 155.89 61.377 155.89 61.2006C155.89 61.0243 156.024 60.8894 156.2 60.8894C157.827 60.8894 159.152 62.2172 159.152 63.8459C159.152 65.1323 160.199 66.18 161.483 66.18H186.913C187.534 66.18 188.125 65.9414 188.56 65.4953C188.995 65.0493 189.243 64.4683 189.243 63.8459C189.243 63.0575 189.554 62.3106 190.114 61.7504C190.673 61.1902 191.408 60.8894 192.206 60.8894C192.382 60.8894 192.517 61.0243 192.517 61.2006C192.517 61.377 192.382 61.5118 192.206 61.5118C191.584 61.5118 190.994 61.7504 190.559 62.1965C190.114 62.6426 189.875 63.2235 189.875 63.8459C189.865 65.4746 188.539 66.8024 186.913 66.8024Z" fill="#000091"/>
<path d="M198.194 144.437C198.201 147.085 196.061 149.241 193.415 149.252C193.411 149.252 193.407 149.252 193.404 149.252L159.945 149.35C157.296 149.39 155.12 147.273 155.084 144.621C155.048 141.97 157.167 139.788 159.816 139.747C159.855 139.747 193.388 139.649 193.388 139.649C196.037 139.639 198.189 141.781 198.194 144.433C198.194 144.434 198.194 144.436 198.194 144.437Z" fill="#F9CFD2"/>
<path d="M93.2116 192.344C93.1831 192.344 93.1541 192.34 93.1253 192.333C92.9464 192.285 92.8401 192.103 92.8876 191.925L103.308 152.929C103.355 152.751 103.539 152.645 103.718 152.692C103.897 152.739 104.003 152.922 103.955 153.1L93.5352 192.096C93.4953 192.245 93.3597 192.344 93.2116 192.344Z" fill="#000091"/>
<path d="M125.753 192.344C125.59 192.344 125.447 192.226 125.422 192.061L119.453 153.065C119.425 152.882 119.551 152.712 119.734 152.685C119.917 152.657 120.088 152.782 120.116 152.964L126.084 191.96C126.112 192.142 125.986 192.312 125.803 192.34C125.786 192.343 125.769 192.344 125.753 192.344Z" fill="#000091"/>
<path d="M101.976 153.014C101.976 153.014 107.368 127.724 107.491 127.047C107.876 124.927 108.684 122.901 110.843 122.474C111.113 122.421 111.386 122.394 111.661 122.394H113.901H121.669H123.909C124.184 122.394 124.457 122.421 124.727 122.474C127 122.923 128.477 125.122 128.235 127.371L123.062 153.216" fill="white"/>
<path d="M123.056 153.549C123.034 153.549 123.012 153.547 122.99 153.543C122.809 153.507 122.691 153.331 122.727 153.151L127.897 127.321C128.119 125.189 126.698 123.205 124.655 122.801C124.408 122.752 124.155 122.727 123.903 122.727H111.655C111.403 122.727 111.15 122.752 110.902 122.801C109.271 123.124 108.29 124.492 107.814 127.106C107.692 127.78 102.518 152.05 102.298 153.083C102.259 153.264 102.081 153.379 101.9 153.34C101.719 153.302 101.604 153.125 101.642 152.945C101.696 152.692 107.034 127.652 107.155 126.987C107.489 125.15 108.227 122.65 110.772 122.147C111.062 122.09 111.359 122.06 111.655 122.06H123.903C124.198 122.06 124.496 122.089 124.786 122.147C127.17 122.618 128.829 124.929 128.562 127.407C128.561 127.417 128.559 127.427 128.557 127.437L123.384 153.281C123.353 153.44 123.213 153.549 123.056 153.549Z" fill="#000091"/>
<path d="M89.5018 152.681L123.407 152.677V153.122C123.407 153.986 122.703 154.687 121.834 154.687H87.8658L89.5018 152.681Z" fill="#000091"/>
<path d="M195.366 142.324C195.373 144.978 193.223 147.131 190.563 147.133C190.56 147.133 190.556 147.133 190.552 147.133L156.919 147.117C154.256 147.149 152.067 145.019 152.031 142.362C151.994 139.704 154.123 137.525 156.786 137.494C156.825 137.493 190.533 137.509 190.533 137.509C193.196 137.509 195.36 139.663 195.366 142.32C195.366 142.322 195.366 142.323 195.366 142.324Z" fill="white"/>
<path d="M195.294 144.291C194.523 146.138 192.696 147.439 190.567 147.441C190.567 147.441 190.555 147.441 190.555 147.441L156.917 147.43C155.549 147.446 154.251 146.928 153.268 145.972C152.284 145.015 151.732 143.735 151.714 142.366C151.675 139.54 153.948 137.214 156.781 137.18C156.821 137.18 187.086 137.189 190.537 137.191C193.37 137.19 195.679 139.488 195.685 142.314L195.371 142.318L195.685 142.318C195.687 143.016 195.547 143.683 195.294 144.291ZM190.565 146.813C193.048 146.811 195.062 144.795 195.056 142.318C195.056 142.318 195.056 142.317 195.056 142.317C195.051 139.834 193.024 137.817 190.538 137.818C190.202 137.818 156.933 137.807 156.787 137.808C154.303 137.837 152.309 139.879 152.343 142.358C152.359 143.56 152.844 144.684 153.707 145.523C154.57 146.362 155.708 146.817 156.912 146.802L190.554 146.813L190.566 147.127L190.565 146.813Z" fill="#000091"/>
<path d="M158.097 81.4043L159.096 84.6857C159.179 84.9663 159.33 85.2217 159.536 85.4286C159.743 85.6356 159.997 85.7875 160.277 85.8707L163.527 86.8734C163.58 86.8874 163.628 86.912 163.671 86.9457C163.713 86.9795 163.748 87.0215 163.774 87.0694C163.799 87.1172 163.815 87.1698 163.819 87.2239C163.824 87.278 163.817 87.3324 163.8 87.3838C163.78 87.4484 163.745 87.507 163.698 87.5547C163.65 87.6024 163.592 87.6376 163.527 87.6573L160.277 88.6417C159.997 88.7249 159.743 88.8769 159.536 89.0838C159.33 89.2907 159.179 89.5461 159.096 89.8267L158.097 93.1081C158.064 93.2106 157.992 93.2962 157.898 93.3471C157.803 93.3981 157.692 93.4104 157.589 93.3816C157.524 93.362 157.466 93.3267 157.418 93.279C157.371 93.2314 157.336 93.1727 157.316 93.1081L156.336 89.8267C156.25 89.5476 156.097 89.2937 155.892 89.0872C155.686 88.8807 155.433 88.7278 155.155 88.6417L151.886 87.6573C151.784 87.6237 151.699 87.5519 151.648 87.4569C151.597 87.3618 151.585 87.2508 151.614 87.1468C151.633 87.0823 151.668 87.0236 151.716 86.9759C151.763 86.9282 151.822 86.893 151.886 86.8734L155.155 85.8707C155.435 85.7875 155.689 85.6356 155.895 85.4286C156.101 85.2217 156.253 84.9663 156.336 84.6857L157.316 81.4043C157.348 81.3005 157.419 81.2135 157.514 81.1622C157.61 81.111 157.721 81.0997 157.825 81.1308C157.89 81.1476 157.951 81.1818 157.998 81.2299C158.046 81.2781 158.081 81.3383 158.097 81.4043Z" fill="#F9CFD2"/>
<path d="M157.416 107.915C160.325 107.915 162.683 105.549 162.683 102.629C162.683 99.7089 160.325 97.3419 157.416 97.3419C154.508 97.3419 152.15 99.7089 152.15 102.629C152.15 105.549 154.508 107.915 157.416 107.915Z" fill="white"/>
<path d="M157.417 108.462C156.267 108.462 155.143 108.12 154.188 107.479C153.232 106.838 152.487 105.927 152.047 104.861C151.607 103.795 151.492 102.622 151.717 101.491C151.941 100.359 152.494 99.3195 153.307 98.5036C154.12 97.6878 155.155 97.1322 156.283 96.9071C157.41 96.682 158.579 96.7975 159.641 97.239C160.702 97.6806 161.61 98.4283 162.249 99.3877C162.887 100.347 163.228 101.475 163.228 102.629C163.226 104.175 162.613 105.658 161.524 106.752C160.434 107.845 158.957 108.461 157.417 108.462ZM157.417 97.8888C156.483 97.8888 155.57 98.1668 154.793 98.6876C154.017 99.2084 153.411 99.9487 153.054 100.815C152.697 101.681 152.603 102.634 152.785 103.553C152.967 104.473 153.417 105.317 154.078 105.98C154.738 106.643 155.579 107.095 156.495 107.277C157.411 107.46 158.361 107.366 159.224 107.008C160.086 106.649 160.824 106.041 161.343 105.262C161.862 104.483 162.138 103.566 162.138 102.629C162.137 101.372 161.639 100.167 160.754 99.2786C159.869 98.39 158.668 97.8902 157.417 97.8888Z" fill="#000091"/>
<path d="M157.416 123.047C160.325 123.047 162.683 120.68 162.683 117.76C162.683 114.84 160.325 112.473 157.416 112.473C154.508 112.473 152.15 114.84 152.15 117.76C152.15 120.68 154.508 123.047 157.416 123.047Z" fill="white"/>
<path d="M157.417 123.594C156.267 123.594 155.143 123.251 154.188 122.61C153.232 121.969 152.487 121.058 152.047 119.992C151.607 118.926 151.492 117.753 151.717 116.622C151.941 115.49 152.494 114.451 153.307 113.635C154.12 112.819 155.155 112.263 156.283 112.038C157.41 111.813 158.579 111.929 159.641 112.37C160.702 112.812 161.61 113.559 162.249 114.519C162.887 115.478 163.228 116.606 163.228 117.76C163.226 119.306 162.613 120.789 161.524 121.883C160.434 122.977 158.957 123.592 157.417 123.594ZM157.417 113.02C156.483 113.02 155.57 113.298 154.793 113.819C154.017 114.34 153.411 115.08 153.054 115.946C152.697 116.812 152.603 117.765 152.785 118.685C152.967 119.604 153.417 120.449 154.078 121.111C154.738 121.774 155.579 122.226 156.495 122.409C157.411 122.591 158.361 122.498 159.224 122.139C160.086 121.78 160.824 121.173 161.343 120.393C161.862 119.614 162.138 118.697 162.138 117.76C162.137 116.503 161.639 115.298 160.754 114.41C159.869 113.521 158.668 113.021 157.417 113.02Z" fill="#000091"/>
<path d="M195.723 87.7195H172.114C171.969 87.7195 171.831 87.6618 171.728 87.5593C171.626 87.4567 171.569 87.3176 171.569 87.1725C171.569 87.0275 171.626 86.8884 171.728 86.7858C171.831 86.6833 171.969 86.6256 172.114 86.6256H195.723C195.868 86.6256 196.007 86.6833 196.109 86.7858C196.211 86.8884 196.268 87.0275 196.268 87.1725C196.268 87.3176 196.211 87.4567 196.109 87.5593C196.007 87.6618 195.868 87.7195 195.723 87.7195Z" fill="#000091"/>
<path d="M195.723 103.215H172.114C171.969 103.215 171.831 103.158 171.728 103.055C171.626 102.952 171.569 102.813 171.569 102.668C171.569 102.523 171.626 102.384 171.728 102.282C171.831 102.179 171.969 102.121 172.114 102.121H195.723C195.868 102.121 196.007 102.179 196.109 102.282C196.211 102.384 196.268 102.523 196.268 102.668C196.268 102.813 196.211 102.952 196.109 103.055C196.007 103.158 195.868 103.215 195.723 103.215Z" fill="#000091"/>
<path d="M195.723 118.893H172.114C171.969 118.893 171.831 118.836 171.728 118.733C171.626 118.631 171.569 118.491 171.569 118.346C171.569 118.201 171.626 118.062 171.728 117.96C171.831 117.857 171.969 117.8 172.114 117.8H195.723C195.868 117.8 196.007 117.857 196.109 117.96C196.211 118.062 196.268 118.201 196.268 118.346C196.268 118.491 196.211 118.631 196.109 118.733C196.007 118.836 195.868 118.893 195.723 118.893Z" fill="#000091"/>
<path d="M202.123 67.652H193.919C193.766 67.652 193.642 67.5293 193.642 67.378C193.642 67.2266 193.766 67.1039 193.919 67.1039H202.123C202.276 67.1039 202.4 67.2266 202.4 67.378C202.4 67.5293 202.276 67.652 202.123 67.652Z" fill="#000091"/>
<path d="M202.123 69.677H193.919C193.766 69.677 193.642 69.5544 193.642 69.403C193.642 69.2517 193.766 69.129 193.919 69.129H202.123C202.276 69.129 202.4 69.2517 202.4 69.403C202.4 69.5544 202.276 69.677 202.123 69.677Z" fill="#000091"/>
<path d="M202.123 71.7018H193.919C193.766 71.7018 193.642 71.5791 193.642 71.4278C193.642 71.2764 193.766 71.1538 193.919 71.1538H202.123C202.276 71.1538 202.4 71.2764 202.4 71.4278C202.4 71.5791 202.276 71.7018 202.123 71.7018Z" fill="#000091"/>
<path d="M193.728 155.991V153.71H201.576V155.991" fill="white"/>
<path d="M201.576 156.236C201.51 156.236 201.448 156.211 201.402 156.165C201.355 156.119 201.33 156.056 201.33 155.991V153.956H193.973V155.991C193.973 156.056 193.947 156.119 193.901 156.165C193.855 156.211 193.793 156.236 193.727 156.236C193.662 156.236 193.599 156.211 193.553 156.165C193.507 156.119 193.481 156.056 193.481 155.991V153.71C193.481 153.645 193.507 153.583 193.553 153.537C193.599 153.491 193.662 153.465 193.727 153.465H201.576C201.641 153.465 201.703 153.491 201.749 153.537C201.796 153.583 201.822 153.645 201.822 153.71V155.991C201.822 156.056 201.796 156.119 201.749 156.165C201.703 156.211 201.641 156.236 201.576 156.236Z" fill="#000091"/>
<path d="M212.591 155.991V154.283H210.491V153.424H207.998V154.283H205.891V155.991" fill="white"/>
<path d="M212.59 156.237C212.525 156.237 212.462 156.211 212.416 156.165C212.37 156.119 212.344 156.056 212.344 155.991V154.528H210.491C210.425 154.528 210.363 154.502 210.317 154.456C210.27 154.41 210.244 154.348 210.244 154.283V153.67H208.243V154.283C208.243 154.348 208.218 154.41 208.171 154.456C208.125 154.502 208.063 154.528 207.997 154.528H206.136V155.991C206.136 156.056 206.11 156.119 206.064 156.165C206.018 156.211 205.955 156.237 205.89 156.237C205.825 156.237 205.762 156.211 205.716 156.165C205.67 156.119 205.644 156.056 205.644 155.991V154.283C205.644 154.218 205.67 154.155 205.716 154.109C205.762 154.063 205.825 154.038 205.89 154.038H207.751V153.424C207.751 153.359 207.777 153.297 207.823 153.251C207.87 153.205 207.932 153.179 207.997 153.179H210.491C210.556 153.179 210.618 153.205 210.664 153.251C210.711 153.297 210.737 153.359 210.737 153.424V154.038H212.59C212.655 154.038 212.718 154.063 212.764 154.109C212.81 154.155 212.836 154.218 212.836 154.283V155.991C212.836 156.056 212.81 156.119 212.764 156.165C212.718 156.211 212.655 156.237 212.59 156.237Z" fill="#000091"/>
<path d="M230.659 155.991V150.113H243.78V155.991" fill="white"/>
<path d="M243.779 156.236C243.714 156.236 243.651 156.211 243.605 156.165C243.559 156.119 243.533 156.056 243.533 155.991V150.358H230.904V155.991C230.904 156.056 230.878 156.119 230.832 156.165C230.786 156.211 230.723 156.236 230.658 156.236C230.592 156.236 230.53 156.211 230.484 156.165C230.438 156.119 230.412 156.056 230.412 155.991V150.113C230.412 150.048 230.438 149.986 230.484 149.94C230.53 149.894 230.592 149.868 230.658 149.868H243.779C243.844 149.868 243.907 149.894 243.953 149.94C243.999 149.986 244.025 150.048 244.025 150.113V155.991C244.025 156.056 243.999 156.119 243.953 156.165C243.907 156.211 243.844 156.236 243.779 156.236Z" fill="#000091"/>
<path d="M188.645 155.991H247.7V191.88L188.653 191.879L188.645 155.991H247.7V163.684L228.345 163.674" fill="white"/>
<path d="M247.699 192.125L188.652 192.124C188.587 192.124 188.524 192.098 188.478 192.052C188.432 192.006 188.406 191.944 188.406 191.879L188.398 155.991V155.989C188.399 155.928 188.422 155.87 188.463 155.825L188.464 155.824C188.466 155.822 188.468 155.82 188.47 155.818L188.475 155.813H188.475C188.521 155.77 188.581 155.746 188.643 155.746H247.699C247.764 155.746 247.826 155.771 247.873 155.817C247.919 155.863 247.945 155.926 247.945 155.991V191.88C247.945 191.945 247.919 192.007 247.873 192.053C247.826 192.099 247.764 192.125 247.699 192.125ZM188.898 191.634L247.453 191.635V163.929L228.345 163.92C228.279 163.92 228.217 163.894 228.171 163.848C228.124 163.802 228.099 163.739 228.099 163.674C228.099 163.609 228.124 163.547 228.171 163.501C228.217 163.455 228.279 163.429 228.345 163.429L247.453 163.438V156.236H188.89L188.898 191.634Z" fill="#000091"/>
<path d="M222.41 189.099C215.808 189.099 210.437 183.745 210.437 177.164C210.437 170.582 215.808 165.228 222.41 165.228C229.012 165.228 234.383 170.583 234.383 177.164C234.383 183.745 229.012 189.099 222.41 189.099ZM222.41 165.718C216.079 165.718 210.929 170.852 210.929 177.164C210.929 183.475 216.079 188.609 222.41 188.609C228.741 188.609 233.891 183.475 233.891 177.164C233.891 170.852 228.741 165.718 222.41 165.718Z" fill="#000091"/>
<path d="M222.409 192.125C214.133 192.125 207.401 185.413 207.401 177.164C207.401 168.915 214.133 162.203 222.409 162.203C230.684 162.203 237.416 168.915 237.416 177.164C237.416 185.413 230.684 192.125 222.409 192.125ZM222.409 162.694C214.404 162.694 207.893 169.185 207.893 177.164C207.893 185.143 214.404 191.634 222.409 191.634C230.413 191.634 236.924 185.143 236.924 177.164C236.924 169.185 230.412 162.694 222.409 162.694Z" fill="#000091"/>
<path d="M242.415 155.1H232.041C231.976 155.1 231.914 155.074 231.867 155.028C231.821 154.982 231.795 154.92 231.795 154.855V151.347C231.795 151.282 231.821 151.22 231.867 151.174C231.914 151.128 231.976 151.102 232.041 151.102H242.415C242.481 151.102 242.543 151.128 242.589 151.174C242.636 151.22 242.662 151.282 242.662 151.347V154.855C242.662 154.92 242.636 154.982 242.589 155.028C242.543 155.074 242.481 155.1 242.415 155.1ZM232.287 154.609H242.169V151.593H232.287V154.609Z" fill="#000091"/>
<path d="M216.375 163.92H188.656C188.591 163.92 188.528 163.894 188.482 163.848C188.436 163.802 188.41 163.74 188.41 163.675C188.41 163.609 188.436 163.547 188.482 163.501C188.528 163.455 188.591 163.429 188.656 163.429H216.375C216.44 163.429 216.503 163.455 216.549 163.501C216.595 163.547 216.621 163.609 216.621 163.675C216.621 163.74 216.595 163.802 216.549 163.848C216.503 163.894 216.44 163.92 216.375 163.92Z" fill="#000091"/>
<path d="M217.044 170.968C216.81 170.969 216.579 170.915 216.369 170.813C216.158 170.71 215.975 170.56 215.832 170.375C215.71 170.217 215.619 170.037 215.567 169.845C215.514 169.653 215.5 169.452 215.525 169.254C215.551 169.056 215.616 168.865 215.715 168.693C215.815 168.52 215.948 168.369 216.107 168.247C217.124 167.463 218.302 166.915 219.558 166.641C219.753 166.599 219.955 166.595 220.152 166.631C220.349 166.666 220.537 166.74 220.705 166.848C220.874 166.955 221.019 167.094 221.133 167.258C221.247 167.422 221.327 167.606 221.368 167.801C221.456 168.192 221.385 168.603 221.17 168.942C220.956 169.282 220.615 169.523 220.223 169.613C219.404 169.788 218.636 170.144 217.974 170.655C217.706 170.857 217.38 170.966 217.044 170.968ZM219.882 167.097C219.808 167.097 219.734 167.105 219.662 167.12C218.478 167.379 217.365 167.897 216.406 168.636C216.299 168.718 216.209 168.82 216.142 168.937C216.074 169.054 216.03 169.183 216.013 169.316C215.996 169.45 216.005 169.586 216.041 169.716C216.077 169.846 216.138 169.967 216.221 170.074C216.318 170.2 216.442 170.301 216.585 170.372C216.728 170.442 216.885 170.478 217.044 170.478C217.272 170.476 217.493 170.402 217.675 170.265C218.393 169.711 219.228 169.324 220.116 169.135C220.381 169.073 220.611 168.91 220.755 168.68C220.9 168.45 220.948 168.172 220.888 167.908L220.887 167.905C220.859 167.773 220.805 167.649 220.728 167.538C220.651 167.427 220.553 167.333 220.439 167.261C220.273 167.154 220.08 167.097 219.882 167.097Z" fill="#000091"/>
<path d="M247.697 192.109H244.335C243.683 192.108 243.04 191.966 242.449 191.693C241.859 191.42 241.335 191.021 240.914 190.526C240.493 190.031 240.185 189.45 240.012 188.824C239.838 188.199 239.803 187.543 239.909 186.902L243.19 167.184C243.359 166.136 243.898 165.184 244.709 164.497C245.52 163.81 246.551 163.435 247.615 163.439H247.705C247.77 163.439 247.833 163.464 247.879 163.51C247.925 163.556 247.951 163.619 247.951 163.684L247.943 191.864C247.943 191.929 247.917 191.991 247.871 192.037C247.825 192.083 247.762 192.109 247.697 192.109ZM247.459 163.932C246.539 163.965 245.659 164.315 244.969 164.922C244.279 165.53 243.822 166.357 243.675 167.263L240.395 186.982C240.301 187.553 240.332 188.137 240.486 188.694C240.64 189.251 240.914 189.768 241.289 190.209C241.664 190.65 242.13 191.004 242.656 191.248C243.182 191.491 243.755 191.618 244.335 191.619H247.451L247.459 163.932Z" fill="#000091"/>
<path d="M192.041 192.109H188.678C188.613 192.109 188.551 192.083 188.505 192.037C188.458 191.991 188.432 191.929 188.432 191.864L188.424 163.684C188.424 163.619 188.45 163.556 188.496 163.51C188.542 163.464 188.605 163.439 188.67 163.439H188.76C189.825 163.435 190.855 163.81 191.667 164.497C192.478 165.184 193.017 166.137 193.186 167.184L196.466 186.902C196.572 187.543 196.538 188.199 196.364 188.824C196.191 189.45 195.883 190.031 195.462 190.526C195.041 191.021 194.517 191.42 193.926 191.693C193.335 191.966 192.692 192.108 192.041 192.109ZM188.925 191.619H192.041C192.621 191.618 193.193 191.491 193.719 191.248C194.245 191.004 194.712 190.65 195.086 190.209C195.461 189.768 195.735 189.251 195.89 188.694C196.044 188.137 196.075 187.553 195.981 186.982L192.7 167.264C192.554 166.358 192.097 165.53 191.407 164.922C190.717 164.315 189.836 163.965 188.916 163.932L188.925 191.619Z" fill="#000091"/>
<path d="M222.407 181.17C224.627 181.17 226.426 179.376 226.426 177.164C226.426 174.951 224.627 173.158 222.407 173.158C220.188 173.158 218.389 174.951 218.389 177.164C218.389 179.376 220.188 181.17 222.407 181.17Z" fill="#F9CFD2"/>
<path d="M92.0363 182.245C91.9949 183.949 91.1795 185.39 89.0513 186.221L85.7623 186.997C84.6014 187.294 83.5835 187.995 82.89 188.974C82.1965 189.953 81.8725 191.148 81.9758 192.344H94.966L100.286 190.89L102 184.531L103.741 190.045L108.703 188.604L104.736 174.668" fill="#F9CFD2"/>
<path d="M55.9452 178.644C54.7429 180.043 52.9602 180.943 50.9702 181.165C49.5607 181.317 46.7691 181.774 45.4148 182.204C43.8532 182.703 40.8959 184.171 40.5919 186.637L53.3057 189.352L58.7644 190.516L64.0019 185.917L62.772 191.375L67.2633 192.344L69.1151 183.617" fill="#F9CFD2"/>
<path d="M77.728 162.27L69.768 183.783L53.5164 177.743L63.729 150.148C64.1828 148.922 64.9069 147.814 65.8473 146.908C66.7876 146.001 67.92 145.319 69.16 144.912" fill="white"/>
<path d="M69.7674 184.199C69.8521 184.199 69.9347 184.173 70.0042 184.125C70.0737 184.076 70.1267 184.007 70.1561 183.928L78.1161 162.414C78.135 162.363 78.1437 162.308 78.1417 162.254C78.1396 162.199 78.1269 162.146 78.1042 162.096C78.0815 162.047 78.0492 162.002 78.0093 161.965C77.9694 161.928 77.9226 161.899 77.8715 161.88C77.8205 161.861 77.7662 161.852 77.7118 161.854C77.6574 161.856 77.6039 161.869 77.5544 161.892C77.5049 161.915 77.4604 161.947 77.4234 161.987C77.3864 162.027 77.3576 162.074 77.3386 162.125L69.5229 183.249L54.0488 177.498L64.1175 150.293C64.5466 149.123 65.235 148.067 66.1307 147.203C67.0264 146.34 68.1061 145.691 69.2883 145.307C69.3928 145.273 69.4796 145.198 69.5294 145.1C69.5793 145.002 69.5882 144.888 69.5541 144.783C69.52 144.678 69.4458 144.591 69.3478 144.541C69.2498 144.491 69.1359 144.482 69.0314 144.516C67.7303 144.939 66.5421 145.653 65.5562 146.603C64.5704 147.554 63.8127 148.716 63.3403 150.003L53.1277 177.598C53.0895 177.702 53.0938 177.816 53.1397 177.916C53.1856 178.016 53.2693 178.094 53.3723 178.132L69.6239 184.172C69.6698 184.19 69.7184 184.199 69.7674 184.199Z" fill="#000091"/>
<path d="M116.217 120.502C116.231 120.516 116.245 120.529 116.259 120.529L116.217 120.502Z" fill="#000091"/>
<path d="M109.28 118.895L100.698 119.172L99.1088 119.228C98.0241 119.262 96.9589 119.525 95.9826 120C95.0063 120.475 94.1409 121.151 93.4429 121.984L88.4679 128.717L99.6754 134.937L104.001 129.562C104.001 129.562 107.276 126.334 111.505 129.257C115.692 132.153 113.44 136.863 113.44 136.863L116.535 136.835L115.886 128.343C115.913 128.26 113.578 123.73 112.223 121.112C111.931 120.544 111.514 120.05 111.004 119.666C110.495 119.282 109.905 119.019 109.28 118.895Z" fill="#000091"/>
<path d="M93.3782 131.793C93.4882 131.793 93.5936 131.749 93.6714 131.671C93.7491 131.593 93.7928 131.487 93.7928 131.377V128.343C93.7928 128.233 93.7491 128.127 93.6714 128.049C93.5936 127.971 93.4882 127.928 93.3782 127.928C93.2682 127.928 93.1628 127.971 93.085 128.049C93.0073 128.127 92.9636 128.233 92.9636 128.343V131.377C92.9636 131.487 93.0073 131.593 93.085 131.671C93.1628 131.749 93.2682 131.793 93.3782 131.793Z" fill="#000091"/>
<path d="M113.324 136.849H116.309L116.53 142.723C116.654 146.006 115.065 149.151 112.287 150.896C110.824 151.811 109.134 152.296 107.409 152.295H104.369L91.5166 150.896L105.143 174.239L90.3005 183.201L70.3868 150.023C69.5976 148.706 69.1713 147.202 69.1512 145.665C69.1311 144.128 69.5181 142.614 70.2725 141.276C71.0269 139.938 72.1219 138.825 73.4457 138.049C74.7694 137.274 76.2747 136.865 77.8078 136.863L83.4323 136.877" fill="white"/>
<path d="M90.2997 183.617C90.3751 183.617 90.4491 183.596 90.5137 183.557L105.356 174.594C105.449 174.538 105.517 174.447 105.544 174.341C105.571 174.235 105.555 174.123 105.5 174.028L92.2895 151.398L104.323 152.708C104.338 152.71 104.353 152.711 104.368 152.711H107.408C109.21 152.71 110.976 152.203 112.505 151.249C115.375 149.446 117.075 146.173 116.943 142.707L116.722 136.833C116.718 136.725 116.673 136.624 116.596 136.549C116.518 136.475 116.415 136.433 116.308 136.433H113.323C113.213 136.433 113.107 136.477 113.03 136.555C112.952 136.633 112.908 136.738 112.908 136.849C112.908 136.959 112.952 137.065 113.03 137.143C113.107 137.22 113.213 137.264 113.323 137.264H115.909L116.115 142.738C116.235 145.908 114.684 148.899 112.066 150.543C110.668 151.416 109.055 151.878 107.408 151.879H104.39L91.5606 150.482C91.4842 150.474 91.4071 150.487 91.3377 150.52C91.2683 150.553 91.2094 150.605 91.1677 150.67C91.1259 150.734 91.1029 150.809 91.1012 150.886C91.0995 150.963 91.1192 151.039 91.1581 151.106L104.577 174.094L90.4413 182.631L70.7413 149.809C69.99 148.554 69.5842 147.122 69.5651 145.659C69.546 144.196 69.9144 142.754 70.6327 141.48C71.351 140.206 72.3935 139.146 73.6538 138.408C74.9142 137.67 76.3473 137.28 77.807 137.278L83.4305 137.292H83.4316C83.5416 137.292 83.6471 137.249 83.7249 137.171C83.8028 137.093 83.8466 136.987 83.8467 136.877C83.8468 136.767 83.8033 136.661 83.7256 136.583C83.648 136.505 83.5426 136.461 83.4326 136.461L77.8081 136.447C76.2003 136.446 74.6209 136.873 73.2318 137.684C71.8427 138.496 70.6937 139.663 69.9024 141.066C69.1112 142.469 68.7061 144.058 68.7287 145.669C68.7513 147.281 69.2007 148.857 70.031 150.238L89.9447 183.416C89.9816 183.477 90.0337 183.528 90.096 183.563C90.1582 183.599 90.2285 183.617 90.3 183.617L90.2997 183.617Z" fill="#000091"/>
<path d="M103.524 130.462C103.587 130.462 103.649 130.448 103.706 130.421C103.762 130.393 103.812 130.353 103.851 130.303L107.016 126.258C107.08 126.171 107.108 126.062 107.094 125.955C107.08 125.847 107.024 125.75 106.939 125.683C106.854 125.616 106.746 125.585 106.638 125.597C106.531 125.609 106.432 125.662 106.363 125.746L103.198 129.791C103.15 129.852 103.121 129.926 103.112 130.003C103.104 130.081 103.118 130.159 103.152 130.229C103.186 130.299 103.239 130.358 103.305 130.399C103.371 130.441 103.447 130.463 103.524 130.463V130.462Z" fill="#000091"/>
<path d="M82.2293 135.893C82.8788 136.004 82.8788 136.433 83.6803 137.126C83.7218 137.153 97.3062 148.07 97.3891 148.125C97.967 148.579 98.6285 148.915 99.3358 149.113C100.043 149.311 100.782 149.367 101.512 149.278C102.241 149.189 102.945 148.958 103.584 148.596C104.224 148.234 104.786 147.749 105.239 147.169C105.239 147.169 112.48 137.915 112.535 137.832C113.481 136.565 113.885 134.973 113.66 133.406C113.434 131.839 112.597 130.427 111.333 129.479C110.068 128.531 108.48 128.125 106.917 128.351C105.355 128.577 103.945 129.417 103 130.684L99.5035 135.159C99.5035 135.159 92.5385 131.391 89.9405 129.881C86.002 127.581 85.3801 127.47 83.7632 127.082C83.2104 126.944 82.4918 126.819 81.6765 126.694C81.6765 126.694 78.346 126.293 77.1299 126.099C74.0343 125.586 65.3419 126.459 65.6874 128.578C65.8947 129.867 68.1196 129.188 72.3898 129.008C68.6448 129.825 65.9638 130.698 66.3231 131.986C66.6962 133.275 70.4689 132.43 73.3434 131.778C71.7127 133.039 69.4463 134.646 69.8747 135.588C70.5104 136.946 72.5142 135.63 73.91 134.923C77.0193 133.316 78.1525 134.605 80.184 135.505C80.7506 135.727 82.2293 135.893 82.2293 135.893Z" fill="white"/>
<path d="M100.825 149.736C101.071 149.736 101.317 149.721 101.561 149.691C102.345 149.597 103.102 149.349 103.789 148.96C104.476 148.571 105.08 148.05 105.565 147.426C108.781 143.316 112.607 138.424 112.867 138.081C113.368 137.409 113.732 136.646 113.938 135.833C114.144 135.021 114.189 134.176 114.069 133.346C113.95 132.516 113.669 131.718 113.241 130.998C112.814 130.277 112.25 129.648 111.58 129.146C110.91 128.644 110.148 128.279 109.338 128.072C108.528 127.865 107.685 127.82 106.857 127.94C106.029 128.06 105.233 128.342 104.514 128.77C103.795 129.198 103.167 129.764 102.667 130.436L99.3926 134.626C98.0163 133.88 92.4 130.83 90.1474 129.52C86.2642 127.253 85.5508 127.082 83.9884 126.708L83.8588 126.677C83.3627 126.553 82.7073 126.431 81.738 126.283C81.6918 126.277 78.3885 125.878 77.1941 125.687C74.4613 125.234 67.4117 125.792 65.6963 127.509C65.2679 127.938 65.2319 128.363 65.2776 128.645C65.4519 129.727 66.4745 129.836 68.1843 129.725C67.0299 130.158 66.3659 130.6 66.0642 131.103C65.9728 131.25 65.913 131.414 65.8887 131.585C65.8644 131.757 65.8762 131.931 65.9233 132.098C66.3026 133.408 68.5502 133.211 71.6307 132.577C70.2186 133.702 69.069 134.819 69.497 135.76C69.5718 135.936 69.6828 136.094 69.8227 136.225C69.9627 136.355 70.1284 136.454 70.3091 136.515C71.2212 136.82 72.4539 136.164 73.5416 135.585C73.7336 135.482 73.9199 135.383 74.0962 135.294C76.4626 134.071 77.5155 134.617 78.9729 135.372C79.3013 135.543 79.641 135.719 80.0157 135.885L80.0327 135.892C80.6187 136.121 81.9621 136.28 82.1698 136.304C82.3968 136.345 82.4698 136.423 82.7032 136.705C82.9158 136.971 83.1521 137.217 83.409 137.44C83.4159 137.446 83.4228 137.452 83.4298 137.457C83.543 137.546 85.9698 139.495 88.5382 141.558C95.4785 147.131 96.9307 148.295 97.1331 148.452C98.1849 149.284 99.4855 149.736 100.825 149.736ZM112.199 137.59C112.04 137.801 107.368 143.775 104.913 146.913C104.065 147.995 102.824 148.696 101.461 148.862C100.099 149.028 98.7265 148.645 97.6452 147.798C97.6417 147.795 97.6381 147.793 97.6345 147.79C97.4452 147.644 92.7959 143.911 89.0574 140.909C84.8478 137.529 84.0998 136.928 83.9511 136.811C83.7291 136.618 83.525 136.404 83.3415 136.174C83.087 135.867 82.8466 135.577 82.299 135.483C82.2912 135.482 82.2834 135.481 82.2756 135.48C81.8816 135.436 80.7715 135.285 80.3428 135.121C79.9946 134.966 79.6691 134.798 79.3545 134.634C77.8679 133.864 76.4639 133.136 73.72 134.554C73.542 134.644 73.3506 134.746 73.1534 134.851C72.3067 135.302 71.1466 135.92 70.5721 135.727C70.4987 135.701 70.4318 135.66 70.3762 135.605C70.3205 135.551 70.2775 135.485 70.2501 135.412C69.9998 134.861 72.1177 133.241 73.1356 132.462C73.2929 132.341 73.4475 132.223 73.5968 132.108C73.6714 132.05 73.7241 131.968 73.7462 131.876C73.7683 131.784 73.7585 131.688 73.7183 131.602C73.6781 131.516 73.61 131.447 73.5253 131.406C73.4405 131.364 73.3442 131.353 73.2521 131.374C71.891 131.682 70.1971 132.066 68.8553 132.196C67.0146 132.376 66.7567 131.993 66.7213 131.871C66.7051 131.814 66.7015 131.754 66.7108 131.695C66.7202 131.637 66.7422 131.581 66.7754 131.532C67.3786 130.527 71.0834 129.719 72.4781 129.414C72.5795 129.392 72.669 129.333 72.7289 129.248C72.7887 129.163 72.8146 129.058 72.8013 128.955C72.788 128.852 72.7366 128.757 72.6572 128.69C72.5778 128.623 72.4762 128.589 72.3725 128.593C71.1995 128.643 70.2 128.728 69.3184 128.803C67.2034 128.983 66.1829 129.046 66.0972 128.513C66.0884 128.458 66.0653 128.317 66.2831 128.099C67.6439 126.737 74.3213 126.055 77.0623 126.509C78.2746 126.703 81.4905 127.091 81.6268 127.107C82.5566 127.25 83.1884 127.367 83.6625 127.486L83.7967 127.518C85.2773 127.872 85.9532 128.034 89.7316 130.24C92.3062 131.736 99.2367 135.487 99.3065 135.525C99.3926 135.571 99.4923 135.586 99.5881 135.566C99.6838 135.546 99.7694 135.492 99.8297 135.415L103.326 130.941C103.76 130.354 104.306 129.859 104.931 129.484C105.557 129.108 106.25 128.861 106.971 128.755C107.692 128.648 108.427 128.686 109.133 128.865C109.84 129.044 110.504 129.362 111.088 129.799C111.673 130.236 112.165 130.784 112.537 131.412C112.909 132.04 113.154 132.736 113.258 133.459C113.361 134.183 113.322 134.919 113.141 135.627C112.96 136.335 112.641 137 112.203 137.584C112.202 137.585 112.2 137.588 112.199 137.59Z" fill="#000091"/>
<path d="M104.756 112.829C104.709 109.187 107.616 106.198 111.249 106.151C114.882 106.104 117.864 109.019 117.911 112.66C117.957 116.302 115.05 119.291 111.417 119.338C107.785 119.385 104.802 116.47 104.756 112.829Z" fill="white"/>
<path d="M111.336 119.754C112.719 119.754 114.071 119.343 115.221 118.573C116.371 117.803 117.268 116.708 117.797 115.427C118.326 114.146 118.464 112.737 118.195 111.377C117.925 110.017 117.259 108.768 116.281 107.788C115.303 106.808 114.057 106.14 112.701 105.87C111.344 105.599 109.938 105.738 108.66 106.268C107.383 106.799 106.291 107.697 105.522 108.85C104.754 110.003 104.344 111.358 104.344 112.744C104.346 114.603 105.083 116.385 106.394 117.699C107.705 119.013 109.482 119.752 111.336 119.754ZM111.336 106.566C112.555 106.566 113.747 106.928 114.761 107.607C115.774 108.286 116.564 109.251 117.031 110.38C117.497 111.509 117.619 112.751 117.381 113.95C117.144 115.148 116.557 116.249 115.695 117.113C114.833 117.977 113.734 118.566 112.539 118.804C111.343 119.043 110.104 118.92 108.978 118.453C107.852 117.985 106.889 117.193 106.212 116.177C105.534 115.161 105.173 113.966 105.173 112.744C105.175 111.106 105.825 109.536 106.98 108.378C108.136 107.22 109.702 106.568 111.336 106.566V106.566Z" fill="#000091"/>
<path d="M108.334 110.376C108.35 110.92 108.303 111.463 108.196 111.997C108.107 112.422 107.982 112.839 107.822 113.243L108.624 117.898L108.776 119.006C108.85 119.457 108.84 119.917 108.748 120.364C108.574 121.195 108.116 121.94 107.454 122.47C106.791 122.999 105.965 123.281 105.118 123.266C104.27 123.251 103.455 122.941 102.811 122.389C102.167 121.836 101.735 121.076 101.59 120.239L101.521 119.824L101.134 117.676C100.702 117.665 100.273 117.618 99.8487 117.538C98.9409 117.349 98.0791 116.983 97.3125 116.461C96.546 115.938 95.8898 115.269 95.3815 114.492C94.8732 113.715 94.5228 112.845 94.3503 111.932C94.1778 111.019 94.1866 110.08 94.3762 109.171C94.5512 108.335 94.8741 107.537 95.3297 106.816C95.2031 105.974 95.2218 105.116 95.385 104.28C95.4439 103.985 95.5224 103.693 95.6199 103.408L97.1677 101.233L98.2871 100.568" fill="white"/>
<path d="M105.189 123.685C106.119 123.68 107.019 123.357 107.74 122.768C108.461 122.18 108.96 121.362 109.153 120.45C109.256 119.953 109.267 119.442 109.185 118.942L109.034 117.841C109.034 117.837 109.033 117.832 109.032 117.828L108.25 113.284C108.608 112.354 108.777 111.362 108.747 110.365C108.746 110.311 108.734 110.257 108.711 110.207C108.689 110.157 108.658 110.112 108.618 110.074C108.579 110.037 108.532 110.007 108.481 109.988C108.43 109.968 108.376 109.959 108.322 109.96C108.267 109.962 108.214 109.974 108.164 109.996C108.114 110.018 108.069 110.05 108.032 110.09C107.994 110.129 107.965 110.176 107.945 110.227C107.926 110.278 107.917 110.332 107.918 110.387C107.933 110.899 107.889 111.411 107.788 111.913C107.704 112.317 107.586 112.713 107.433 113.096C107.407 113.166 107.4 113.241 107.413 113.314L108.213 117.962L108.364 119.063C108.431 119.465 108.423 119.876 108.342 120.275C108.188 121.013 107.783 121.673 107.196 122.143C106.608 122.613 105.876 122.864 105.124 122.851C104.373 122.838 103.649 122.563 103.079 122.073C102.508 121.583 102.125 120.908 101.997 120.166L101.928 119.755L101.54 117.603C101.524 117.509 101.475 117.424 101.403 117.362C101.331 117.3 101.241 117.264 101.146 117.261C100.736 117.25 100.329 117.206 99.9262 117.13C99.0724 116.952 98.262 116.607 97.5413 116.115C96.8206 115.623 96.2038 114.993 95.726 114.262C95.2482 113.531 94.9188 112.712 94.7567 111.853C94.5946 110.994 94.603 110.112 94.7813 109.256C94.9465 108.469 95.2507 107.718 95.6796 107.038C95.7331 106.954 95.7544 106.853 95.7396 106.754C95.6196 105.959 95.6372 105.149 95.7917 104.361C95.8429 104.102 95.9104 103.847 95.9939 103.598L97.4539 101.546L98.4978 100.925C98.5914 100.869 98.6589 100.777 98.6856 100.671C98.7123 100.565 98.696 100.452 98.6403 100.358C98.5845 100.263 98.4939 100.195 98.388 100.167C98.2822 100.14 98.1697 100.155 98.0752 100.21L96.9558 100.875C96.9062 100.905 96.8632 100.944 96.8296 100.991L95.2819 103.166C95.2582 103.2 95.2395 103.237 95.2266 103.276C95.1232 103.579 95.0401 103.889 94.9778 104.203C94.8153 105.033 94.7885 105.885 94.8985 106.724C94.4595 107.453 94.1459 108.25 93.9708 109.084C93.7698 110.047 93.7603 111.04 93.9428 112.007C94.1253 112.974 94.4963 113.896 95.0345 114.719C95.5727 115.542 96.2676 116.25 97.0793 116.804C97.891 117.357 98.8037 117.745 99.765 117.944C100.102 118.009 100.442 118.053 100.785 118.075L101.181 120.307C101.347 121.252 101.839 122.109 102.572 122.726C103.305 123.344 104.231 123.683 105.189 123.684L105.189 123.685Z" fill="#000091"/>
<path d="M103.54 106.927C102.615 106.482 101.802 105.834 101.163 105.029C100.389 104.087 97.9156 101.385 97.9156 101.385L95.6354 103.353C96.202 101.732 96.9759 100.333 98.4269 99.446C99.2604 98.9452 100.184 98.6143 101.146 98.4722C102.107 98.33 103.087 98.3793 104.029 98.6174C104.971 98.8555 105.858 99.2776 106.637 99.8595C107.416 100.441 108.073 101.172 108.57 102.009C109.345 103.32 109.702 104.838 109.593 106.359C109.543 106.678 109.43 106.984 109.261 107.259" fill="white"/>
<path d="M109.26 107.675C109.326 107.675 109.391 107.659 109.449 107.629C109.508 107.599 109.558 107.555 109.597 107.502C109.805 107.173 109.943 106.805 110.002 106.42C110.004 106.41 110.005 106.399 110.005 106.389C110.122 104.784 109.745 103.182 108.926 101.798C108.402 100.913 107.708 100.142 106.885 99.5269C106.062 98.9121 105.126 98.4661 104.13 98.2145C103.135 97.9629 102.1 97.9106 101.085 98.0608C100.069 98.2109 99.0934 98.5604 98.213 99.0893C96.4909 100.141 95.7215 101.846 95.243 103.215C95.2129 103.301 95.212 103.395 95.2405 103.482C95.269 103.569 95.3253 103.644 95.4008 103.696C95.4762 103.747 95.5665 103.772 95.6576 103.767C95.7488 103.762 95.8357 103.727 95.9049 103.667L97.8802 101.963C98.5435 102.691 100.235 104.554 100.842 105.293C101.521 106.147 102.384 106.835 103.367 107.305C103.467 107.351 103.582 107.355 103.685 107.316C103.787 107.277 103.871 107.199 103.916 107.099C103.962 106.998 103.966 106.884 103.927 106.781C103.889 106.677 103.811 106.594 103.711 106.548C102.842 106.13 102.08 105.52 101.481 104.763C100.71 103.825 98.3213 101.215 98.2197 101.104C98.1469 101.025 98.0461 100.977 97.9387 100.971C97.8312 100.964 97.7255 101 97.6439 101.07L96.7471 101.844C97.1866 101.007 97.8403 100.301 98.6414 99.8008C99.4281 99.3287 100.3 99.0167 101.207 98.8829C102.114 98.749 103.039 98.7958 103.928 99.0207C104.817 99.2455 105.653 99.6439 106.388 100.193C107.124 100.742 107.744 101.431 108.213 102.221C108.943 103.454 109.28 104.881 109.18 106.311C109.141 106.56 109.054 106.8 108.924 107.016C108.88 107.078 108.853 107.152 108.847 107.228C108.842 107.304 108.857 107.38 108.892 107.448C108.926 107.517 108.979 107.574 109.044 107.614C109.109 107.654 109.184 107.675 109.26 107.675L109.26 107.675Z" fill="#000091"/>
<path d="M103.326 108.312C103.282 107.732 103.405 107.152 103.68 106.64C103.954 106.128 104.369 105.706 104.876 105.423C105.383 105.14 105.959 105.009 106.538 105.044C107.117 105.08 107.674 105.281 108.142 105.623C108.611 105.966 108.971 106.436 109.182 106.977C109.392 107.519 109.443 108.11 109.329 108.68C109.215 109.25 108.94 109.775 108.538 110.194C108.135 110.612 107.622 110.906 107.057 111.041" fill="white"/>
<path d="M107.056 111.456C107.088 111.457 107.121 111.453 107.152 111.445C107.771 111.298 108.337 110.982 108.787 110.531C109.109 110.213 109.364 109.833 109.537 109.415C109.71 108.996 109.798 108.547 109.795 108.094C109.794 107.179 109.433 106.3 108.789 105.651C108.472 105.329 108.096 105.073 107.68 104.898C107.264 104.724 106.818 104.634 106.367 104.634H106.357C105.882 104.635 105.413 104.733 104.978 104.924C104.544 105.114 104.152 105.392 103.829 105.74C103.506 106.088 103.258 106.499 103.1 106.948C102.943 107.396 102.878 107.872 102.912 108.347C102.916 108.402 102.93 108.456 102.955 108.505C102.979 108.555 103.013 108.599 103.055 108.635C103.096 108.671 103.145 108.698 103.197 108.715C103.25 108.732 103.305 108.739 103.36 108.734C103.415 108.73 103.468 108.714 103.517 108.689C103.566 108.664 103.609 108.629 103.644 108.586C103.68 108.544 103.706 108.495 103.722 108.442C103.738 108.389 103.744 108.334 103.738 108.279C103.714 107.919 103.764 107.558 103.885 107.218C104.005 106.879 104.194 106.567 104.439 106.304C104.685 106.04 104.982 105.83 105.311 105.685C105.641 105.541 105.997 105.467 106.357 105.466H106.365C106.706 105.466 107.044 105.534 107.359 105.666C107.674 105.798 107.959 105.992 108.199 106.236C108.689 106.73 108.965 107.399 108.966 108.096C108.965 108.684 108.768 109.254 108.404 109.715C108.04 110.176 107.532 110.501 106.962 110.636C106.863 110.66 106.776 110.719 106.718 110.802C106.659 110.886 106.633 110.988 106.645 111.089C106.657 111.19 106.705 111.284 106.781 111.351C106.857 111.419 106.955 111.457 107.057 111.456H107.056Z" fill="#000091"/>
<path d="M105.272 108.991C105.288 108.991 105.303 108.99 105.319 108.988L107.751 108.711C107.806 108.705 107.859 108.689 107.907 108.663C107.955 108.637 107.998 108.601 108.033 108.558C108.067 108.515 108.093 108.466 108.108 108.413C108.123 108.36 108.128 108.305 108.122 108.25C108.116 108.196 108.099 108.143 108.072 108.095C108.045 108.047 108.009 108.004 107.966 107.97C107.923 107.936 107.873 107.911 107.82 107.897C107.767 107.882 107.712 107.878 107.657 107.885L106.315 108.037L107.128 107.135C107.165 107.095 107.193 107.048 107.212 106.996C107.231 106.945 107.239 106.89 107.237 106.835C107.234 106.78 107.221 106.726 107.197 106.677C107.174 106.627 107.141 106.582 107.1 106.546C107.06 106.509 107.012 106.48 106.961 106.462C106.909 106.444 106.854 106.436 106.8 106.439C106.745 106.442 106.691 106.456 106.642 106.48C106.593 106.504 106.549 106.537 106.512 106.578L104.964 108.296C104.911 108.356 104.875 108.43 104.863 108.509C104.85 108.589 104.861 108.67 104.893 108.743C104.926 108.817 104.979 108.879 105.046 108.923C105.113 108.967 105.192 108.99 105.272 108.99V108.991Z" fill="#000091"/>
<path d="M96.451 111.318C96.5373 111.318 96.6215 111.291 96.6918 111.241C96.7622 111.191 96.8151 111.12 96.8433 111.038C96.8714 110.956 96.8734 110.868 96.849 110.785C96.8245 110.702 96.7748 110.628 96.7068 110.575L95.6296 109.73L97.2677 107.521C97.3015 107.478 97.3262 107.428 97.3404 107.374C97.3546 107.321 97.3581 107.265 97.3506 107.21C97.3431 107.156 97.3247 107.103 97.2967 107.055C97.2686 107.008 97.2314 106.966 97.1871 106.933C97.1429 106.9 97.0925 106.877 97.039 106.863C96.9855 106.85 96.9299 106.848 96.8754 106.856C96.8209 106.865 96.7687 106.884 96.7219 106.914C96.675 106.943 96.6343 106.981 96.6023 107.026L94.7229 109.561C94.6584 109.648 94.6303 109.757 94.6448 109.864C94.6592 109.972 94.715 110.069 94.8001 110.136L96.1959 111.23C96.2688 111.287 96.3586 111.318 96.451 111.318Z" fill="#000091"/>
<path d="M98.7678 108.609C98.5627 108.403 98.5627 108.07 98.7678 107.864C98.9729 107.658 99.3054 107.658 99.5104 107.864C99.7155 108.07 99.7155 108.403 99.5104 108.609C99.3054 108.814 98.9729 108.814 98.7678 108.609Z" fill="#000091"/>
<path d="M94.9332 108.159C94.7281 107.954 94.7281 107.62 94.9332 107.415C95.1383 107.209 95.4708 107.209 95.6759 107.415C95.8809 107.62 95.8809 107.954 95.6759 108.159C95.4708 108.365 95.1383 108.365 94.9332 108.159Z" fill="#000091"/>
<path d="M96.9768 113.528C97.4672 113.529 97.9395 113.343 98.2979 113.007C98.3015 113.004 98.3053 113 98.3087 112.997L98.4193 112.886C98.433 112.872 98.4457 112.857 98.4574 112.842L98.4989 112.786C98.5315 112.743 98.5553 112.693 98.5688 112.64C98.5823 112.587 98.5853 112.532 98.5776 112.478C98.5621 112.369 98.5039 112.271 98.416 112.204C98.328 112.138 98.2174 112.11 98.1086 112.126C97.9997 112.141 97.9015 112.199 97.8355 112.288L97.7772 112.354L97.7275 112.404C97.5142 112.602 97.2315 112.707 96.941 112.697C96.6505 112.687 96.3757 112.563 96.1764 112.351L95.9829 112.143C95.9079 112.062 95.804 112.015 95.6941 112.011C95.5842 112.007 95.4773 112.047 95.3969 112.123C95.3165 112.198 95.2692 112.302 95.2654 112.412C95.2616 112.522 95.3016 112.63 95.3767 112.71L95.5701 112.918C95.75 113.111 95.9678 113.265 96.2099 113.37C96.4519 113.475 96.713 113.529 96.9768 113.528Z" fill="#000091"/>
<path d="M101.223 118.091C102.52 118.071 103.792 117.725 104.921 117.083C105.017 117.029 105.087 116.94 105.117 116.834C105.147 116.728 105.133 116.615 105.08 116.519C105.027 116.423 104.938 116.352 104.832 116.322C104.727 116.291 104.614 116.304 104.518 116.357C103.478 116.951 102.301 117.262 101.105 117.259C100.995 117.257 100.888 117.298 100.809 117.374C100.729 117.451 100.683 117.555 100.681 117.666C100.679 117.776 100.72 117.882 100.796 117.962C100.872 118.042 100.977 118.088 101.086 118.09C101.132 118.091 101.177 118.091 101.223 118.091Z" fill="#000091"/>
<path d="M117.571 112.343C119.229 112.783 120.719 113.706 121.854 114.995C122.988 116.283 123.716 117.881 123.945 119.584C124.174 121.288 123.894 123.021 123.141 124.565C122.387 126.109 121.194 127.395 119.711 128.259C118.229 129.123 116.524 129.527 114.813 129.42C113.101 129.312 111.46 128.699 110.096 127.657C108.733 126.615 107.708 125.19 107.152 123.564C106.596 121.938 106.533 120.184 106.971 118.522C107.293 117.294 107.883 116.154 108.699 115.183" fill="white"/>
<path d="M115.372 129.857C117.577 129.852 119.705 129.043 121.359 127.581C123.013 126.12 124.08 124.105 124.362 121.913C124.644 119.721 124.122 117.501 122.892 115.666C121.662 113.832 119.809 112.508 117.677 111.942C117.571 111.913 117.458 111.928 117.363 111.984C117.268 112.039 117.198 112.13 117.17 112.237C117.142 112.343 117.157 112.457 117.212 112.552C117.267 112.647 117.358 112.717 117.464 112.745C119.043 113.164 120.463 114.042 121.543 115.269C122.624 116.497 123.317 118.017 123.536 119.64C123.754 121.262 123.488 122.913 122.77 124.383C122.052 125.854 120.916 127.078 119.504 127.901C118.093 128.724 116.469 129.109 114.839 129.007C113.209 128.905 111.646 128.321 110.348 127.328C109.049 126.335 108.073 124.979 107.544 123.431C107.014 121.882 106.954 120.211 107.372 118.629C107.677 117.459 108.239 116.373 109.017 115.45C109.052 115.408 109.078 115.36 109.094 115.308C109.111 115.256 109.117 115.201 109.112 115.147C109.107 115.092 109.092 115.039 109.067 114.991C109.041 114.943 109.007 114.9 108.965 114.865C108.923 114.83 108.875 114.803 108.823 114.787C108.771 114.77 108.717 114.764 108.662 114.769C108.608 114.774 108.555 114.789 108.507 114.815C108.459 114.84 108.416 114.874 108.381 114.916C107.524 115.933 106.906 117.129 106.571 118.417C106.265 119.573 106.19 120.778 106.35 121.963C106.509 123.148 106.9 124.29 107.499 125.324C108.099 126.358 108.896 127.263 109.845 127.988C110.794 128.713 111.876 129.243 113.029 129.549C113.793 129.753 114.581 129.857 115.372 129.857Z" fill="#000091"/>
<path d="M82.5192 137.695H76.4332H46.6156L43.8406 119.505C43.8192 119.365 43.8085 119.224 43.8085 119.082C43.8088 117.534 45.0681 116.279 46.6214 116.279H70.749C72.1396 116.278 73.322 117.291 73.531 118.661L76.132 135.72H82.3195L82.5192 137.695Z" fill="white"/>
<path d="M82.5209 138.044H46.6172C46.4442 138.044 46.297 137.918 46.271 137.747L43.496 119.558C43.472 119.401 43.4599 119.241 43.4599 119.082C43.46 118.24 43.7891 117.448 44.3866 116.853C44.9839 116.258 45.778 115.93 46.6225 115.93C46.6227 115.93 46.6229 115.93 46.6231 115.93H70.7505C70.7511 115.93 70.7518 115.93 70.7524 115.93C72.3274 115.93 73.642 117.056 73.8788 118.609L76.4348 135.371H82.3212C82.5011 135.371 82.6517 135.507 82.6696 135.685L82.8693 137.66C82.8792 137.758 82.847 137.856 82.7805 137.929C82.7142 138.002 82.6199 138.044 82.5209 138.044ZM46.9182 137.346H82.1337L82.0045 136.069H76.1338C75.9607 136.069 75.8136 135.943 75.7876 135.772L73.1864 118.714C73.0022 117.505 71.9784 116.628 70.7523 116.628C70.7518 116.628 70.7514 116.628 70.7509 116.628H46.6231C46.623 116.628 46.6227 116.628 46.6226 116.628C45.9651 116.628 45.347 116.883 44.8818 117.347C44.4167 117.81 44.1605 118.427 44.1604 119.082C44.1604 119.206 44.1698 119.33 44.1885 119.453L46.9182 137.346Z" fill="#000091"/>
<path d="M60.7954 129.705C61.5382 128.987 61.4343 127.679 60.5633 126.784C59.6924 125.889 58.3842 125.746 57.6414 126.464C56.8986 127.182 57.0024 128.49 57.8734 129.385C58.7444 130.28 60.0526 130.424 60.7954 129.705Z" fill="#F9CFD2"/>
<path d="M13.8202 138.422C13.7151 138.422 13.6143 138.381 13.54 138.306C13.4657 138.232 13.424 138.131 13.424 138.026C13.424 137.92 13.4657 137.819 13.54 137.745C13.6143 137.671 13.7151 137.629 13.8202 137.629L82.6547 137.607C82.7598 137.607 82.8605 137.648 82.9348 137.723C83.0091 137.797 83.0509 137.898 83.0509 138.003C83.0509 138.109 83.0091 138.21 82.9348 138.284C82.8605 138.358 82.7598 138.4 82.6547 138.4L13.8202 138.422Z" fill="#000091"/>
<path d="M48.9702 192.782C48.8651 192.782 48.7643 192.74 48.69 192.666C48.6157 192.592 48.574 192.491 48.574 192.385V138.264C48.574 138.158 48.6157 138.057 48.69 137.983C48.7643 137.909 48.8651 137.867 48.9702 137.867C49.0753 137.867 49.176 137.909 49.2503 137.983C49.3246 138.057 49.3664 138.158 49.3664 138.264V192.385C49.3664 192.491 49.3246 192.592 49.2503 192.666C49.176 192.74 49.0753 192.782 48.9702 192.782Z" fill="#000091"/>
<path d="M254.859 192.554C254.838 192.557 254.818 192.559 254.797 192.559L22.7547 193.381C22.6472 193.382 22.5438 193.339 22.4674 193.263C22.391 193.187 22.3477 193.084 22.3472 192.976C22.3467 192.868 22.3888 192.764 22.4645 192.687C22.5402 192.611 22.6431 192.567 22.7506 192.567L254.793 191.745C254.895 191.744 254.994 191.782 255.069 191.852C255.145 191.921 255.191 192.017 255.2 192.119C255.208 192.221 255.178 192.323 255.114 192.404C255.051 192.484 254.96 192.538 254.859 192.554Z" fill="#000091"/>
</g>
<defs>
<clipPath id="clip0_2051_141865">
<rect width="280.258" height="157.645" fill="white" transform="translate(0.742188 50.0259)"/>
</clipPath>
</defs>
</svg>
