<svg width="262" height="102" viewBox="0 0 262 102" fill="none" xmlns="http://www.w3.org/2000/svg">
<path d="M21.7524 91.7501C18.0529 91.7501 14.875 90.7777 12.2189 88.8331C9.61029 86.8885 7.59451 84.1138 6.1716 80.5091C4.79613 76.857 4.10839 72.5408 4.10839 67.5607C4.10839 62.9125 4.84356 58.7861 6.31389 55.1814C7.83166 51.5293 9.91859 48.6598 12.5747 46.5728C15.2308 44.4385 18.29 43.3713 21.7524 43.3713C25.452 43.3713 28.6298 44.3436 31.2859 46.2883C33.942 48.2329 35.9577 51.0313 37.3332 54.6834C38.7561 58.2881 39.4676 62.5805 39.4676 67.5607C39.4676 72.2088 38.7087 76.359 37.1909 80.0111C35.6732 83.6158 33.5862 86.4853 30.9301 88.6197C28.2741 90.7066 25.2148 91.7501 21.7524 91.7501ZM22.9619 88.2639C24.1951 88.2639 25.2148 87.4813 26.0211 85.9162C26.8274 84.3035 27.4203 82.1217 27.7998 79.3708C28.1792 76.5724 28.3689 73.3709 28.3689 69.7662C28.3689 65.5449 28.1081 61.7031 27.5863 58.2407C27.112 54.7782 26.3294 52.0036 25.2385 49.9167C24.1476 47.8297 22.6773 46.7863 20.8275 46.7863C18.9303 46.7863 17.5074 48.47 16.5588 51.8376C15.6576 55.1577 15.207 59.6161 15.207 65.2129C15.207 69.4342 15.4679 73.2997 15.9896 76.8096C16.5114 80.272 17.3414 83.0466 18.4797 85.1336C19.6181 87.2205 21.1121 88.2639 22.9619 88.2639ZM45.4115 91.0386V88.4062C49.2534 84.2324 52.4312 80.7463 54.945 77.9479C57.4588 75.1021 59.4509 72.6831 60.9212 70.6911C62.439 68.699 63.5536 66.9204 64.265 65.3552C65.0239 63.7426 65.4982 62.1536 65.6879 60.5884C65.9251 58.9758 66.0437 57.126 66.0437 55.0391C66.0437 52.7625 65.5219 50.8415 64.4785 49.2764C63.435 47.7112 61.8461 46.9286 59.7117 46.9286C57.4351 46.9286 55.7039 47.64 54.5181 49.0629C53.3798 50.4858 52.8106 52.5016 52.8106 55.1103V58.4541L52.3126 59.0944H47.4748C46.5261 59.0944 45.8147 58.9284 45.3404 58.5964C44.8661 58.2644 44.6289 57.4343 44.6289 56.1063C44.6289 54.7308 45.0558 53.3553 45.9096 51.9799C46.7633 50.557 48.1862 49.1341 50.1783 47.7112C52.028 46.3357 53.8541 45.2685 55.6565 44.5096C57.4588 43.7507 59.8303 43.3713 62.771 43.3713C65.6168 43.3713 68.1306 43.9405 70.3124 45.0788C72.4942 46.1697 74.1779 47.6874 75.3637 49.6321C76.5969 51.5293 77.2135 53.6399 77.2135 55.964C77.2135 57.4343 77.0237 58.8098 76.6443 60.0904C76.3123 61.371 75.6957 62.6991 74.7945 64.0746C73.8934 65.4026 72.6127 66.9441 70.9527 68.699C69.2926 70.4065 67.1346 72.4223 64.4785 74.7463C61.8698 77.0704 58.6446 79.8451 54.8027 83.0703H73.6562L77.7826 75.9558H78.921L78.2095 91.0386H45.4115Z" fill="#E3E3FD"/>
<path d="M10.3872 85.1641L9.96198 85.7346L9.96692 85.7382L10.3872 85.1641ZM4.33986 76.8401L3.67398 77.0909L3.6781 77.1014L4.33986 76.8401ZM4.48215 51.5124L3.82516 51.2394L3.82339 51.2437L4.48215 51.5124ZM10.7429 42.9039L11.1825 43.4633L11.1886 43.4584L10.7429 42.9039ZM29.4541 42.6193L29.8744 42.0452L29.4541 42.6193ZM35.5015 51.0144L34.8356 51.2652L34.8397 51.2756L35.5015 51.0144ZM35.3592 76.3421L36.0149 76.6182L36.0162 76.6152L35.3592 76.3421ZM29.0984 84.9507L29.538 85.5102L29.5441 85.5053L29.0984 84.9507ZM24.1894 82.2472L24.8219 82.573L24.8257 82.5654L24.1894 82.2472ZM25.968 75.7018L26.6728 75.799L26.673 75.7974L25.968 75.7018ZM25.7546 54.5717L25.0496 54.6682L25.0511 54.6777L25.7546 54.5717ZM23.4068 46.2477L22.7763 46.5773L23.4068 46.2477ZM14.7271 48.1686L14.0422 47.9757L14.0405 47.9822L14.7271 48.1686ZM14.1579 73.1406L13.4542 73.2452L13.4544 73.2466L14.1579 73.1406ZM16.648 81.4646L17.2726 81.1239L16.648 81.4646ZM19.9207 87.3696C16.3527 87.3696 13.3267 86.4345 10.8075 84.5901L9.96692 85.7382C12.7599 87.783 16.0896 88.7925 19.9207 88.7925V87.3696ZM10.8124 84.5937C8.32857 82.7421 6.38532 80.0843 5.00162 76.5789L3.6781 77.1014C5.14021 80.8054 7.22852 83.6969 9.962 85.7345L10.8124 84.5937ZM5.00566 76.5894C3.66742 73.0361 2.9881 68.8088 2.9881 63.8917H1.5652C1.5652 68.9349 2.26135 73.3399 3.67406 77.0909L5.00566 76.5894ZM2.9881 63.8917C2.9881 59.3182 3.71142 55.2857 5.14091 51.7811L3.82339 51.2437C2.31221 54.9486 1.5652 59.1689 1.5652 63.8917H2.9881ZM5.13913 51.7855C6.61817 48.2265 8.63742 45.463 11.1825 43.4633L10.3034 42.3444C7.53627 44.5186 5.38166 47.4941 3.82517 51.2394L5.13913 51.7855ZM11.1886 43.4584C13.7161 41.4274 16.6175 40.4138 19.9207 40.4138V38.9909C16.299 38.9909 13.0819 40.1116 10.2973 42.3493L11.1886 43.4584ZM19.9207 40.4138C23.4887 40.4138 26.5146 41.3489 29.0339 43.1933L29.8744 42.0452C27.0815 40.0004 23.7518 38.9909 19.9207 38.9909V40.4138ZM29.0339 43.1933C31.5591 45.0422 33.4997 47.718 34.8357 51.2652L36.1673 50.7637C34.7523 47.0066 32.6613 44.0856 29.8744 42.0452L29.0339 43.1933ZM34.8397 51.2756C36.2219 54.7772 36.9244 58.9766 36.9244 63.8917H38.3473C38.3473 58.8465 37.6269 54.461 36.1632 50.7532L34.8397 51.2756ZM36.9244 63.8917C36.9244 68.4623 36.1783 72.5173 34.7022 76.0691L36.0162 76.6152C37.5756 72.8627 38.3473 68.6174 38.3473 63.8917H36.9244ZM34.7035 76.066C33.2247 79.5781 31.204 82.346 28.6528 84.3961L29.5441 85.5053C32.305 83.2867 34.4581 80.3155 36.0149 76.6182L34.7035 76.066ZM28.6589 84.3913C26.1315 86.3771 23.228 87.3696 19.9207 87.3696V88.7925C23.5382 88.7925 26.7532 87.6982 29.538 85.5101L28.6589 84.3913ZM21.1301 85.3064C22.738 85.3064 23.9527 84.2602 24.8218 82.573L23.5569 81.9214C22.8135 83.3645 21.9887 83.8835 21.1301 83.8835V85.3064ZM24.8257 82.5654C25.6802 80.8564 26.2878 78.59 26.6728 75.799L25.2632 75.6046C24.8893 78.3156 24.3112 80.4127 23.553 81.929L24.8257 82.5654ZM26.673 75.7974C27.0577 72.9601 27.2486 69.7256 27.2486 66.0972H25.8257C25.8257 69.6782 25.6372 72.8468 25.263 75.6062L26.673 75.7974ZM27.2486 66.0972C27.2486 61.8474 26.9861 57.9694 26.4581 54.4657L25.0511 54.6777C25.5666 58.0987 25.8257 61.9045 25.8257 66.0972H27.2486ZM26.4595 54.4751C25.9789 50.9669 25.1799 48.104 24.0373 45.9181L22.7763 46.5773C23.8154 48.5652 24.5817 51.2516 25.0497 54.6682L26.4595 54.4751ZM24.0373 45.9181C22.8632 43.672 21.1861 42.4058 18.9958 42.4058V43.8287C20.505 43.8287 21.7686 44.6495 22.7763 46.5773L24.0373 45.9181ZM18.9958 42.4058C17.8028 42.4058 16.7846 42.9479 15.9623 43.9209C15.1579 44.8727 14.5297 46.2452 14.0423 47.9757L15.4119 48.3615C15.873 46.7245 16.4306 45.5713 17.0491 44.8393C17.6497 44.1286 18.2916 43.8287 18.9958 43.8287V42.4058ZM14.0405 47.9822C13.1158 51.389 12.6639 55.9183 12.6639 61.5439H14.0868C14.0868 55.976 14.536 51.5885 15.4137 48.355L14.0405 47.9822ZM12.6639 61.5439C12.6639 65.7939 12.9264 69.695 13.4542 73.2452L14.8616 73.036C14.3459 69.5665 14.0868 65.7365 14.0868 61.5439H12.6639ZM13.4544 73.2466C13.9832 76.756 14.8312 79.6195 16.0234 81.8053L17.2726 81.1239C16.1882 79.1358 15.3761 76.45 14.8614 73.0346L13.4544 73.2466ZM16.0234 81.8053C17.245 84.0448 18.9436 85.3064 21.1301 85.3064V83.8835C19.6171 83.8835 18.3277 83.0583 17.2726 81.1239L16.0234 81.8053ZM43.5798 87.3696H42.8683V88.0811H43.5798V87.3696ZM43.5798 84.7373L43.0563 84.2554L42.8683 84.4597V84.7373H43.5798ZM53.1133 74.2789L53.6425 74.7544L53.6465 74.7499L53.1133 74.2789ZM59.0895 67.0221L58.5235 66.5909L58.517 66.5996L59.0895 67.0221ZM62.4333 61.6862L61.7895 61.3832L61.7856 61.3918L62.4333 61.6862ZM63.8562 56.9195L63.1523 56.816L63.151 56.8249L63.1499 56.8339L63.8562 56.9195ZM62.6467 45.6074L63.2387 45.2127V45.2127L62.6467 45.6074ZM52.6864 45.3939L52.1398 44.9385L52.1353 44.9439L52.1308 44.9495L52.6864 45.3939ZM50.9789 54.7851L51.5405 55.2219L51.6904 55.0292V54.7851H50.9789ZM50.4809 55.4254V56.1369H50.8288L51.0425 55.8622L50.4809 55.4254ZM44.0778 48.3109L44.6824 48.6861L44.6879 48.6769L44.0778 48.3109ZM48.3465 44.0422L48.7601 44.6212L48.7711 44.6131L48.3465 44.0422ZM53.8247 40.8406L53.5486 40.1849V40.1849L53.8247 40.8406ZM68.4806 41.4098L68.1515 42.0407L68.1625 42.0462L68.4806 41.4098ZM73.532 45.9631L72.9245 46.3335L72.9298 46.3422L72.9354 46.3508L73.532 45.9631ZM74.8126 56.4215L74.1304 56.2193L74.127 56.2311L74.1239 56.2429L74.8126 56.4215ZM72.9628 60.4056L73.5516 60.8051L73.5579 60.7955L72.9628 60.4056ZM69.1209 65.03L69.6311 65.526L69.6378 65.5189L69.1209 65.03ZM62.6467 71.0774L62.1782 70.5419L62.1735 70.5462L62.6467 71.0774ZM52.971 79.4014L52.5135 78.8565L51.017 80.1128H52.971V79.4014ZM71.8245 79.4014V80.1128H72.2343L72.4399 79.7583L71.8245 79.4014ZM75.9509 72.2869V71.5754H75.5411L75.3355 71.9299L75.9509 72.2869ZM77.0892 72.2869L77.7999 72.3204L77.835 71.5754H77.0892V72.2869ZM76.3778 87.3696V88.0811H77.0564L77.0884 87.4032L76.3778 87.3696ZM44.2913 87.3696V84.7373H42.8683V87.3696H44.2913ZM44.1033 85.2191C47.9462 81.0441 51.1261 77.5557 53.6425 74.7544L52.584 73.8035C50.0728 76.5989 46.8971 80.0828 43.0563 84.2554L44.1033 85.2191ZM53.6465 74.7499C56.1676 71.8958 58.1745 69.4597 59.6619 67.4446L58.517 66.5996C57.0637 68.5686 55.0865 70.9704 52.58 73.8079L53.6465 74.7499ZM59.6554 67.4533C61.1922 65.4362 62.34 63.6108 63.081 61.9806L61.7856 61.3918C61.1037 62.892 60.0223 64.6239 58.5236 66.5909L59.6554 67.4533ZM63.077 61.9891C63.8641 60.3167 64.3625 58.6547 64.5625 57.0051L63.1499 56.8339C62.9704 58.3146 62.5203 59.8305 61.7896 61.3833L63.077 61.9891ZM64.5601 57.023C64.8034 55.3681 64.9234 53.4826 64.9234 51.3701H63.5005C63.5005 53.4315 63.3833 55.2456 63.1523 56.816L64.5601 57.023ZM64.9234 51.3701C64.9234 48.9829 64.3751 46.9174 63.2387 45.2127L62.0548 46.002C63.0052 47.4277 63.5005 49.2041 63.5005 51.3701H64.9234ZM63.2387 45.2127C62.0438 43.4204 60.2148 42.5481 57.88 42.5481V43.971C59.8139 43.971 61.1627 44.664 62.0548 46.002L63.2387 45.2127ZM57.88 42.5481C55.4452 42.5481 53.4914 43.3167 52.1398 44.9385L53.2329 45.8494C54.2529 44.6254 55.7615 43.971 57.88 43.971V42.5481ZM52.1308 44.9495C50.856 46.543 50.2675 48.7391 50.2675 51.4413H51.6904C51.6904 48.9262 52.2401 47.0907 53.2419 45.8384L52.1308 44.9495ZM50.2675 51.4413V54.7851H51.6904V51.4413H50.2675ZM50.4173 54.3483L49.9193 54.9886L51.0425 55.8622L51.5405 55.2219L50.4173 54.3483ZM50.4809 54.714H45.643V56.1369H50.4809V54.714ZM45.643 54.714C44.7556 54.714 44.2169 54.5547 43.9166 54.3446L43.1007 55.5103C43.749 55.9641 44.6332 56.1369 45.643 56.1369V54.714ZM43.9166 54.3446C43.8651 54.3085 43.7541 54.1926 43.6591 53.8604C43.5657 53.5334 43.5087 53.0667 43.5087 52.4373H42.0857C42.0857 53.136 42.1473 53.7483 42.291 54.2513C42.4332 54.7492 42.6779 55.2143 43.1007 55.5103L43.9166 54.3446ZM43.5087 52.4373C43.5087 51.2164 43.8859 49.9691 44.6823 48.6861L43.4733 47.9357C42.5622 49.4036 42.0857 50.9073 42.0857 52.4373H43.5087ZM44.6879 48.6769C45.4734 47.3677 46.8129 46.0119 48.7601 44.6211L47.933 43.4633C45.896 44.9183 44.3897 46.4083 43.4678 47.9449L44.6879 48.6769ZM48.7711 44.6131C50.5829 43.2659 52.3595 42.2295 54.1008 41.4963L53.5486 40.1849C51.6852 40.9696 49.8097 42.0676 47.922 43.4713L48.7711 44.6131ZM54.1008 41.4963C55.7832 40.788 58.0502 40.4138 60.9392 40.4138V38.9909C57.947 38.9909 55.4709 39.3756 53.5486 40.1849L54.1008 41.4963ZM60.9392 40.4138C63.6884 40.4138 66.0862 40.963 68.1515 42.0406L68.8097 40.779C66.5115 39.58 63.8816 38.9909 60.9392 38.9909V40.4138ZM68.1625 42.0462C70.2336 43.0817 71.8133 44.5111 72.9245 46.3335L74.1394 45.5927C72.8791 43.5259 71.0912 41.9197 68.7988 40.7735L68.1625 42.0462ZM72.9354 46.3508C74.0915 48.1294 74.6703 50.1047 74.6703 52.295H76.0932C76.0932 49.8373 75.4388 47.5912 74.1285 45.5754L72.9354 46.3508ZM74.6703 52.295C74.6703 53.7038 74.4886 55.0106 74.1304 56.2193L75.4947 56.6236C75.8954 55.2711 76.0932 53.827 76.0932 52.295H74.6703ZM74.1239 56.2429C73.8154 57.4328 73.2363 58.69 72.3677 60.0157L73.5579 60.7955C74.4917 59.3703 75.1457 57.9714 75.5013 56.6L74.1239 56.2429ZM72.3741 60.0061C71.5023 61.2909 70.2496 62.8016 68.6041 64.5411L69.6378 65.5189C71.3124 63.7486 72.621 62.1764 73.5515 60.8051L72.3741 60.0061ZM68.6108 64.5341C66.9688 66.2231 64.8261 68.2251 62.1782 70.542L63.1152 71.6128C65.7796 69.2815 67.953 67.252 69.6311 65.526L68.6108 64.5341ZM62.1735 70.5462C59.5717 72.8641 56.3521 75.634 52.5135 78.8565L53.4284 79.9463C57.2735 76.7183 60.5044 73.9388 63.12 71.6086L62.1735 70.5462ZM52.971 80.1128H71.8245V78.6899H52.971V80.1128ZM72.4399 79.7583L76.5663 72.6438L75.3355 71.9299L71.209 79.0444L72.4399 79.7583ZM75.9509 72.9983H77.0892V71.5754H75.9509V72.9983ZM76.3785 72.2533L75.6671 87.3361L77.0884 87.4032L77.7999 72.3204L76.3785 72.2533ZM76.3778 86.6582H43.5798V88.0811H76.3778V86.6582Z" fill="#000091"/>
<g clip-path="url(#clip0_4490_264018)">
<path d="M212.148 7.39928H209.194C209.034 7.39928 208.908 7.52587 208.908 7.68577H209.633C212.534 7.68577 214.889 10.0444 214.889 12.9493V86.5055C214.889 89.4104 212.534 91.769 209.633 91.769H208.908C208.908 91.9289 209.034 92.0555 209.194 92.0555H212.148C215.202 92.0555 217.69 89.5637 217.69 86.5055V12.9493C217.69 9.89113 215.202 7.39928 212.148 7.39928Z" fill="#000091"/>
<path d="M214.892 12.9496V86.5058C214.892 89.4108 212.543 91.7693 209.636 91.7693H177.163C174.263 91.7693 171.908 89.4241 171.908 86.5191C171.908 86.5125 171.908 86.5125 171.908 86.5058V12.9496C171.908 10.0447 174.263 7.68608 177.163 7.68608H209.636C212.537 7.68608 214.892 10.0447 214.892 12.9496Z" fill="white"/>
<path d="M177.156 91.9694C174.156 91.9694 171.707 89.5241 171.707 86.5193V12.9497C171.707 9.9382 174.156 7.48633 177.163 7.48633H209.635C212.642 7.48633 215.091 9.9382 215.091 12.9497V86.5059C215.091 89.5175 212.642 91.9694 209.635 91.9694H177.156C177.163 91.9694 177.156 91.9694 177.156 91.9694ZM177.163 7.88609C174.375 7.88609 172.107 10.1581 172.107 12.9497V86.5126C172.107 89.2976 174.375 91.5629 177.156 91.5629H177.163H209.635C212.423 91.5629 214.691 89.2909 214.691 86.4993V12.9497C214.691 10.1581 212.423 7.88609 209.635 7.88609H177.163Z" fill="#000091"/>
<path d="M201.571 11.2841H185.239C184.194 11.2841 183.342 10.4312 183.342 9.3852C183.342 8.55902 182.671 7.88609 181.846 7.88609C181.733 7.88609 181.646 7.79947 181.646 7.68621C181.646 7.57294 181.733 7.48633 181.846 7.48633C182.89 7.48633 183.742 8.33915 183.742 9.3852C183.742 10.2114 184.414 10.8843 185.239 10.8843H201.571C201.97 10.8843 202.35 10.7311 202.629 10.4446C202.908 10.1581 203.068 9.78496 203.068 9.3852C203.068 8.87883 203.268 8.39912 203.627 8.03933C203.986 7.67955 204.459 7.48633 204.971 7.48633C205.084 7.48633 205.17 7.57294 205.17 7.68621C205.17 7.79947 205.084 7.88609 204.971 7.88609C204.572 7.88609 204.192 8.03933 203.913 8.32583C203.627 8.61232 203.474 8.98544 203.474 9.3852C203.467 10.4312 202.616 11.2841 201.571 11.2841Z" fill="#000091"/>
<path d="M208.817 61.1454C208.821 62.8464 207.447 64.231 205.747 64.2378C205.745 64.2378 205.742 64.2378 205.74 64.2378L184.251 64.3009C182.549 64.3267 181.151 62.967 181.128 61.2639C181.105 59.5609 182.466 58.1593 184.167 58.1335C184.193 58.1331 205.73 58.07 205.73 58.07C207.431 58.0639 208.813 59.4397 208.817 61.143C208.817 61.1438 208.817 61.1446 208.817 61.1454Z" fill="#F9CFD2"/>
<path d="M141.39 91.9148C141.371 91.9148 141.353 91.9125 141.334 91.9076C141.219 91.8771 141.151 91.7598 141.182 91.6455L147.874 66.5997C147.905 66.4854 148.023 66.4172 148.137 66.4477C148.252 66.4782 148.321 66.5955 148.29 66.7098L141.598 91.7556C141.572 91.8515 141.485 91.9148 141.39 91.9148Z" fill="#000091"/>
<path d="M162.29 91.9148C162.186 91.9148 162.094 91.8388 162.078 91.7328L158.244 66.6869C158.226 66.57 158.307 66.4607 158.425 66.4429C158.542 66.4253 158.652 66.5054 158.67 66.6224L162.503 91.6682C162.521 91.7852 162.44 91.8944 162.323 91.9123C162.312 91.914 162.301 91.9148 162.29 91.9148Z" fill="#000091"/>
<path d="M147.019 66.6546C147.019 66.6546 150.482 50.4114 150.561 49.9766C150.808 48.6152 151.327 47.3139 152.714 47.0396C152.887 47.0054 153.063 46.9882 153.239 46.9882H154.678H159.667H161.106C161.282 46.9882 161.458 47.0054 161.631 47.0396C163.091 47.3283 164.04 48.7406 163.884 50.1851L160.562 66.784" fill="white"/>
<path d="M160.558 66.9981C160.544 66.9981 160.53 66.9968 160.515 66.994C160.399 66.9709 160.323 66.8581 160.346 66.7421L163.667 50.1528C163.81 48.7831 162.897 47.509 161.585 47.2496C161.426 47.2182 161.263 47.2023 161.102 47.2023H153.235C153.073 47.2023 152.911 47.2182 152.752 47.2496C151.704 47.4567 151.074 48.3353 150.768 50.0146C150.69 50.4476 147.367 66.0355 147.225 66.6989C147.201 66.8146 147.086 66.8885 146.97 66.864C146.854 66.8394 146.78 66.7257 146.804 66.61C146.839 66.4476 150.267 50.3651 150.345 49.9383C150.559 48.7585 151.034 47.1525 152.668 46.8294C152.854 46.7926 153.045 46.7739 153.235 46.7739H161.102C161.291 46.7739 161.482 46.7925 161.668 46.8294C163.2 47.1321 164.265 48.6161 164.094 50.2078C164.093 50.2141 164.092 50.2205 164.091 50.2268L160.768 66.8258C160.748 66.9277 160.658 66.9981 160.558 66.9981Z" fill="#000091"/>
<path d="M139.007 66.44L160.783 66.4379V66.7235C160.783 67.2787 160.331 67.7288 159.773 67.7288H137.956L139.007 66.44Z" fill="#000091"/>
<path d="M207 59.7885C207.005 61.4932 205.624 62.8761 203.916 62.8771C203.913 62.8771 203.911 62.8771 203.908 62.8771L182.307 62.867C180.597 62.8871 179.191 61.5196 179.167 59.8128C179.144 58.1059 180.511 56.706 182.221 56.686C182.247 56.6856 203.896 56.6959 203.896 56.6959C205.607 56.6956 206.996 58.0791 207 59.7861C207 59.7869 207 59.7877 207 59.7885Z" fill="white"/>
<path d="M206.954 61.0514C206.459 62.2376 205.285 63.0735 203.918 63.0745C203.918 63.0745 203.911 63.0745 203.911 63.0745L182.306 63.0676C181.427 63.0781 180.594 62.7455 179.962 62.1312C179.33 61.5169 178.976 60.6944 178.964 59.8152C178.939 58.0003 180.399 56.5061 182.218 56.4845C182.244 56.4842 201.683 56.4905 203.899 56.4913C205.718 56.4906 207.201 57.9669 207.205 59.7819L207.003 59.7844L207.205 59.7843C207.206 60.233 207.117 60.6613 206.954 61.0514ZM203.917 62.6714C205.511 62.6702 206.805 61.3751 206.801 59.7845C206.801 59.7842 206.801 59.7838 206.801 59.7835C206.798 58.1892 205.496 56.8937 203.9 56.8942C203.684 56.8943 182.316 56.8873 182.222 56.8876C180.627 56.9065 179.346 58.2178 179.368 59.8104C179.379 60.5819 179.69 61.3037 180.244 61.8428C180.798 62.3819 181.529 62.6737 182.303 62.6646L203.91 62.6715L203.918 62.873L203.917 62.6714Z" fill="#000091"/>
<path d="M183.064 20.6622L183.706 22.7698C183.759 22.95 183.856 23.114 183.988 23.2469C184.121 23.3798 184.284 23.4774 184.464 23.5308L186.552 24.1748C186.585 24.1838 186.617 24.1996 186.644 24.2213C186.671 24.2429 186.694 24.2699 186.71 24.3007C186.726 24.3314 186.736 24.3652 186.739 24.3999C186.742 24.4347 186.738 24.4696 186.727 24.5026C186.714 24.5441 186.692 24.5818 186.661 24.6124C186.631 24.643 186.593 24.6657 186.552 24.6783L184.464 25.3105C184.284 25.364 184.121 25.4616 183.988 25.5945C183.856 25.7274 183.759 25.8914 183.706 26.0716L183.064 28.1792C183.043 28.245 182.997 28.3 182.936 28.3327C182.875 28.3654 182.804 28.3733 182.737 28.3548C182.696 28.3422 182.659 28.3196 182.628 28.2889C182.598 28.2583 182.575 28.2206 182.562 28.1792L181.933 26.0716C181.878 25.8923 181.78 25.7293 181.648 25.5967C181.515 25.464 181.353 25.3658 181.174 25.3105L179.075 24.6783C179.009 24.6567 178.954 24.6106 178.922 24.5495C178.889 24.4885 178.881 24.4172 178.9 24.3504C178.912 24.309 178.935 24.2713 178.965 24.2407C178.996 24.21 179.034 24.1874 179.075 24.1748L181.174 23.5308C181.354 23.4774 181.517 23.3798 181.65 23.2469C181.782 23.114 181.879 22.95 181.933 22.7698L182.562 20.6622C182.583 20.5955 182.628 20.5396 182.69 20.5067C182.751 20.4738 182.823 20.4666 182.889 20.4866C182.931 20.4973 182.97 20.5193 183.001 20.5502C183.031 20.5811 183.053 20.6198 183.064 20.6622Z" fill="#F9CFD2"/>
<path d="M182.627 37.6892C184.495 37.6892 186.009 36.169 186.009 34.2937C186.009 32.4184 184.495 30.8982 182.627 30.8982C180.758 30.8982 179.244 32.4184 179.244 34.2937C179.244 36.169 180.758 37.6892 182.627 37.6892Z" fill="white"/>
<path d="M182.627 38.0407C181.889 38.0407 181.167 37.8209 180.553 37.4092C179.939 36.9975 179.461 36.4124 179.178 35.7277C178.896 35.0431 178.822 34.2897 178.966 33.5629C179.11 32.8361 179.465 32.1685 179.987 31.6445C180.509 31.1205 181.174 30.7637 181.899 30.6191C182.623 30.4745 183.373 30.5487 184.055 30.8323C184.737 31.1159 185.32 31.5961 185.73 32.2123C186.14 32.8284 186.359 33.5529 186.359 34.2939C186.358 35.2873 185.965 36.2396 185.265 36.942C184.565 37.6444 183.616 38.0395 182.627 38.0407ZM182.627 31.2496C182.027 31.2496 181.441 31.4282 180.942 31.7627C180.443 32.0972 180.054 32.5726 179.825 33.1289C179.595 33.6852 179.535 34.2973 179.652 34.8878C179.769 35.4783 180.058 36.0208 180.482 36.4465C180.906 36.8723 181.447 37.1622 182.035 37.2797C182.623 37.3971 183.233 37.3368 183.787 37.1064C184.342 36.876 184.815 36.4858 185.148 35.9852C185.482 35.4846 185.66 34.896 185.66 34.2939C185.659 33.4868 185.339 32.713 184.77 32.1423C184.202 31.5716 183.431 31.2505 182.627 31.2496Z" fill="#000091"/>
<path d="M182.627 47.4074C184.495 47.4074 186.009 45.8872 186.009 44.0119C186.009 42.1366 184.495 40.6164 182.627 40.6164C180.758 40.6164 179.244 42.1366 179.244 44.0119C179.244 45.8872 180.758 47.4074 182.627 47.4074Z" fill="white"/>
<path d="M182.627 47.7587C181.889 47.7587 181.167 47.5389 180.553 47.1272C179.939 46.7155 179.461 46.1304 179.178 45.4457C178.896 44.7611 178.822 44.0077 178.966 43.2809C179.11 42.5541 179.465 41.8865 179.987 41.3625C180.509 40.8385 181.174 40.4817 181.899 40.3371C182.623 40.1925 183.373 40.2667 184.055 40.5503C184.737 40.8339 185.32 41.3141 185.73 41.9303C186.14 42.5465 186.359 43.2709 186.359 44.0119C186.358 45.0053 185.965 45.9576 185.265 46.66C184.565 47.3624 183.616 47.7575 182.627 47.7587ZM182.627 40.9676C182.027 40.9676 181.441 41.1462 180.942 41.4807C180.443 41.8152 180.054 42.2906 179.825 42.8469C179.595 43.4032 179.535 44.0153 179.652 44.6058C179.769 45.1963 180.058 45.7388 180.482 46.1645C180.906 46.5903 181.447 46.8802 182.035 46.9977C182.623 47.1151 183.233 47.0548 183.787 46.8244C184.342 46.594 184.815 46.2038 185.148 45.7032C185.482 45.2026 185.66 44.614 185.66 44.0119C185.659 43.2048 185.339 42.431 184.77 41.8603C184.202 41.2896 183.431 40.9685 182.627 40.9676Z" fill="#000091"/>
<path d="M207.23 24.7181H192.066C191.973 24.7181 191.884 24.6811 191.818 24.6152C191.753 24.5493 191.716 24.46 191.716 24.3668C191.716 24.2737 191.753 24.1843 191.818 24.1184C191.884 24.0526 191.973 24.0156 192.066 24.0156H207.23C207.322 24.0156 207.411 24.0526 207.477 24.1184C207.543 24.1843 207.58 24.2737 207.58 24.3668C207.58 24.46 207.543 24.5493 207.477 24.6152C207.411 24.6811 207.322 24.7181 207.23 24.7181Z" fill="#000091"/>
<path d="M207.23 34.6703H192.066C191.973 34.6703 191.884 34.6333 191.818 34.5675C191.753 34.5016 191.716 34.4122 191.716 34.3191C191.716 34.2259 191.753 34.1366 191.818 34.0707C191.884 34.0048 191.973 33.9678 192.066 33.9678H207.23C207.322 33.9678 207.411 34.0048 207.477 34.0707C207.543 34.1366 207.58 34.2259 207.58 34.3191C207.58 34.4122 207.543 34.5016 207.477 34.5675C207.411 34.6333 207.322 34.6703 207.23 34.6703Z" fill="#000091"/>
<path d="M207.23 44.7399H192.066C191.973 44.7399 191.884 44.7029 191.818 44.637C191.753 44.5711 191.716 44.4818 191.716 44.3886C191.716 44.2955 191.753 44.2061 191.818 44.1403C191.884 44.0744 191.973 44.0374 192.066 44.0374H207.23C207.322 44.0374 207.411 44.0744 207.477 44.1403C207.543 44.2061 207.58 44.2955 207.58 44.3886C207.58 44.4818 207.543 44.5711 207.477 44.637C207.411 44.7029 207.322 44.7399 207.23 44.7399Z" fill="#000091"/>
<path d="M211.34 11.8292H206.071C205.973 11.8292 205.893 11.7504 205.893 11.6532C205.893 11.556 205.973 11.4772 206.071 11.4772H211.34C211.438 11.4772 211.518 11.556 211.518 11.6532C211.518 11.7504 211.438 11.8292 211.34 11.8292Z" fill="#000091"/>
<path d="M211.34 13.13H206.071C205.973 13.13 205.893 13.0512 205.893 12.954C205.893 12.8568 205.973 12.778 206.071 12.778H211.34C211.438 12.778 211.518 12.8568 211.518 12.954C211.518 13.0512 211.438 13.13 211.34 13.13Z" fill="#000091"/>
<path d="M211.34 14.4303H206.071C205.973 14.4303 205.893 14.3515 205.893 14.2543C205.893 14.1571 205.973 14.0783 206.071 14.0783H211.34C211.438 14.0783 211.518 14.1571 211.518 14.2543C211.518 14.3515 211.438 14.4303 211.34 14.4303Z" fill="#000091"/>
<path d="M205.948 68.5667V67.1018H210.989V68.5667" fill="white"/>
<path d="M210.988 68.7246C210.946 68.7246 210.906 68.708 210.876 68.6785C210.847 68.6489 210.83 68.6088 210.83 68.5671V67.2597H206.105V68.5671C206.105 68.6088 206.089 68.6489 206.059 68.6785C206.029 68.708 205.989 68.7246 205.947 68.7246C205.905 68.7246 205.865 68.708 205.836 68.6785C205.806 68.6489 205.789 68.6088 205.789 68.5671V67.1021C205.789 67.0604 205.806 67.0203 205.836 66.9908C205.865 66.9612 205.905 66.9446 205.947 66.9446H210.988C211.03 66.9446 211.07 66.9612 211.1 66.9908C211.129 67.0203 211.146 67.0604 211.146 67.1021V68.5671C211.146 68.6088 211.129 68.6489 211.1 68.6785C211.07 68.708 211.03 68.7246 210.988 68.7246Z" fill="#000091"/>
<path d="M218.063 68.5668V67.4694H216.714V66.9181H215.113V67.4694H213.76V68.5668" fill="white"/>
<path d="M218.062 68.7243C218.02 68.7243 217.98 68.7077 217.951 68.6781C217.921 68.6486 217.904 68.6085 217.904 68.5668V67.6269H216.714C216.672 67.6269 216.632 67.6103 216.602 67.5808C216.572 67.5512 216.556 67.5112 216.556 67.4694V67.0756H215.271V67.4694C215.271 67.5112 215.254 67.5512 215.224 67.5808C215.195 67.6103 215.155 67.6269 215.113 67.6269H213.917V68.5668C213.917 68.6085 213.9 68.6486 213.871 68.6781C213.841 68.7077 213.801 68.7243 213.759 68.7243C213.717 68.7243 213.677 68.7077 213.647 68.6781C213.618 68.6486 213.601 68.6085 213.601 68.5668V67.4694C213.601 67.4276 213.618 67.3875 213.647 67.358C213.677 67.3285 213.717 67.3119 213.759 67.3119H214.955V66.9181C214.955 66.8763 214.971 66.8362 215.001 66.8067C215.031 66.7771 215.071 66.7605 215.113 66.7605H216.714C216.756 66.7605 216.796 66.7771 216.826 66.8067C216.855 66.8362 216.872 66.8763 216.872 66.9181V67.3119H218.062C218.104 67.3119 218.144 67.3285 218.174 67.358C218.204 67.3875 218.22 67.4276 218.22 67.4694V68.5668C218.22 68.6085 218.204 68.6486 218.174 68.6781C218.144 68.7077 218.104 68.7243 218.062 68.7243Z" fill="#000091"/>
<path d="M229.668 68.5669V64.7916H238.095V68.5669" fill="white"/>
<path d="M238.094 68.7245C238.052 68.7245 238.012 68.7079 237.983 68.6784C237.953 68.6488 237.936 68.6088 237.936 68.567V64.9493H229.825V68.567C229.825 68.6088 229.808 68.6488 229.779 68.6784C229.749 68.7079 229.709 68.7245 229.667 68.7245C229.625 68.7245 229.585 68.7079 229.555 68.6784C229.526 68.6488 229.509 68.6088 229.509 68.567V64.7918C229.509 64.75 229.526 64.7099 229.555 64.6804C229.585 64.6509 229.625 64.6343 229.667 64.6343H238.094C238.136 64.6343 238.176 64.6509 238.206 64.6804C238.236 64.7099 238.252 64.75 238.252 64.7918V68.567C238.252 68.6088 238.236 68.6488 238.206 68.6784C238.176 68.7079 238.136 68.7245 238.094 68.7245Z" fill="#000091"/>
<path d="M202.683 68.5668H240.612V91.6172L202.689 91.6164L202.683 68.5668H240.612V73.5077L228.181 73.5017" fill="white"/>
<path d="M240.611 91.7745L202.688 91.7738C202.646 91.7738 202.606 91.7572 202.576 91.7276C202.547 91.6981 202.53 91.658 202.53 91.6163L202.525 68.5666V68.5652C202.525 68.5262 202.54 68.4888 202.567 68.4601L202.567 68.4596C202.568 68.4582 202.569 68.4568 202.571 68.4555L202.574 68.4523H202.574C202.603 68.4247 202.642 68.4092 202.682 68.4091H240.611C240.653 68.4091 240.694 68.4257 240.723 68.4552C240.753 68.4848 240.769 68.5248 240.769 68.5666V91.617C240.769 91.6588 240.753 91.6988 240.723 91.7284C240.694 91.7579 240.653 91.7745 240.611 91.7745ZM202.846 91.4587L240.453 91.4595V73.665L228.181 73.6591C228.139 73.6591 228.099 73.6425 228.069 73.6129C228.04 73.5834 228.023 73.5433 228.023 73.5016C228.023 73.4598 228.04 73.4197 228.069 73.3902C228.099 73.3606 228.139 73.344 228.181 73.344L240.453 73.35V68.7241H202.841L202.846 91.4587Z" fill="#000091"/>
<path d="M224.369 89.831C220.129 89.831 216.679 86.3921 216.679 82.165C216.679 77.938 220.129 74.4991 224.369 74.4991C228.609 74.4991 232.059 77.9383 232.059 82.165C232.059 86.3918 228.61 89.831 224.369 89.831ZM224.369 74.8141C220.303 74.8141 216.995 78.1115 216.995 82.165C216.995 86.2185 220.303 89.516 224.369 89.516C228.436 89.516 231.743 86.2185 231.743 82.165C231.743 78.1115 228.435 74.8141 224.369 74.8141Z" fill="#000091"/>
<path d="M224.369 91.7743C219.054 91.7743 214.73 87.4639 214.73 82.1656C214.73 76.8673 219.054 72.5569 224.369 72.5569C229.684 72.5569 234.008 76.8674 234.008 82.1656C234.008 87.4638 229.684 91.7743 224.369 91.7743ZM224.369 72.8719C219.228 72.8719 215.046 77.0409 215.046 82.1656C215.046 87.2902 219.228 91.4592 224.369 91.4592C229.509 91.4592 233.691 87.2902 233.691 82.1656C233.691 77.0409 229.509 72.8719 224.369 72.8719Z" fill="#000091"/>
<path d="M237.219 67.9946H230.556C230.514 67.9946 230.473 67.978 230.444 67.9484C230.414 67.9189 230.398 67.8788 230.398 67.8371V65.5845C230.398 65.5428 230.414 65.5027 230.444 65.4731C230.473 65.4436 230.514 65.427 230.556 65.427H237.219C237.26 65.427 237.301 65.4436 237.33 65.4731C237.36 65.5027 237.377 65.5428 237.377 65.5845V67.8371C237.377 67.8788 237.36 67.9189 237.33 67.9484C237.301 67.978 237.26 67.9946 237.219 67.9946ZM230.714 67.6795H237.061V65.742H230.714V67.6795Z" fill="#000091"/>
<path d="M220.493 73.6591H202.69C202.649 73.6591 202.608 73.6425 202.579 73.613C202.549 73.5835 202.532 73.5434 202.532 73.5016C202.532 73.4598 202.549 73.4198 202.579 73.3902C202.608 73.3607 202.649 73.3441 202.69 73.3441H220.493C220.535 73.3441 220.576 73.3607 220.605 73.3902C220.635 73.4198 220.651 73.4598 220.651 73.5016C220.651 73.5434 220.635 73.5835 220.605 73.613C220.576 73.6425 220.535 73.6591 220.493 73.6591Z" fill="#000091"/>
<path d="M220.923 78.1859C220.772 78.1863 220.624 78.152 220.489 78.0859C220.354 78.0198 220.236 77.9235 220.145 77.8046C220.066 77.7036 220.008 77.5879 219.974 77.4644C219.94 77.3409 219.931 77.2119 219.948 77.0849C219.964 76.9579 220.005 76.8354 220.07 76.7244C220.134 76.6134 220.219 76.5162 220.321 76.4384C220.974 75.9349 221.731 75.5825 222.537 75.4068C222.663 75.3795 222.793 75.3772 222.919 75.4C223.046 75.4228 223.166 75.4702 223.274 75.5396C223.382 75.6083 223.476 75.6978 223.549 75.8029C223.622 75.908 223.673 76.0265 223.7 76.1516C223.756 76.4031 223.711 76.6666 223.573 76.8847C223.435 77.1028 223.217 77.2577 222.965 77.3156C222.439 77.4278 221.945 77.6565 221.52 77.9848C221.348 78.1142 221.138 78.1848 220.923 78.1859ZM222.746 75.6996C222.698 75.6997 222.651 75.7047 222.604 75.7146C221.844 75.8806 221.129 76.2131 220.513 76.6882C220.444 76.7408 220.387 76.8065 220.343 76.8814C220.3 76.9564 220.272 77.0392 220.261 77.125C220.25 77.2108 220.256 77.298 220.279 77.3814C220.302 77.4649 220.341 77.543 220.394 77.6113C220.456 77.6922 220.536 77.7577 220.628 77.8027C220.72 77.8477 220.821 77.8711 220.923 77.8709C221.069 77.87 221.211 77.8222 221.328 77.7344C221.79 77.3783 222.325 77.1301 222.896 77.0082C223.066 76.9687 223.214 76.8637 223.307 76.7161C223.399 76.5684 223.43 76.3902 223.392 76.2202L223.391 76.2185C223.373 76.1339 223.339 76.0538 223.289 75.9827C223.24 75.9117 223.177 75.8512 223.104 75.8048C222.997 75.7362 222.873 75.6997 222.746 75.6996Z" fill="#000091"/>
<path d="M240.61 91.7644H238.451C238.033 91.7639 237.619 91.6727 237.24 91.4972C236.861 91.3216 236.524 91.0659 236.254 90.7478C235.983 90.4297 235.786 90.0567 235.674 89.6548C235.563 89.2529 235.541 88.8317 235.609 88.4203L237.716 75.7558C237.824 75.0831 238.17 74.4712 238.691 74.0302C239.212 73.5892 239.874 73.3481 240.558 73.3504H240.616C240.658 73.3504 240.698 73.367 240.727 73.3965C240.757 73.4261 240.774 73.4661 240.774 73.5079L240.768 91.6069C240.768 91.6487 240.752 91.6887 240.722 91.7183C240.693 91.7478 240.652 91.7644 240.61 91.7644ZM240.458 73.6673C239.867 73.6883 239.301 73.9131 238.858 74.3033C238.415 74.6935 238.121 75.2249 238.028 75.8069L235.921 88.4718C235.86 88.838 235.88 89.2131 235.979 89.5709C236.078 89.9287 236.254 90.2607 236.495 90.544C236.736 90.8272 237.035 91.0549 237.373 91.2113C237.711 91.3676 238.078 91.4489 238.451 91.4494H240.452L240.458 73.6673Z" fill="#000091"/>
<path d="M204.864 91.7644H202.705C202.663 91.7644 202.623 91.7478 202.593 91.7183C202.564 91.6887 202.547 91.6487 202.547 91.6069L202.542 73.5079C202.542 73.4661 202.558 73.4261 202.588 73.3965C202.618 73.367 202.658 73.3504 202.7 73.3504H202.758C203.441 73.3481 204.103 73.5892 204.624 74.0302C205.145 74.4713 205.491 75.0832 205.6 75.756L207.707 88.4202C207.775 88.8316 207.753 89.2529 207.641 89.6548C207.53 90.0567 207.332 90.4296 207.062 90.7478C206.791 91.0659 206.455 91.3216 206.075 91.4972C205.696 91.6727 205.283 91.7639 204.864 91.7644ZM202.863 91.4494H204.864C205.237 91.4489 205.605 91.3676 205.943 91.2113C206.28 91.055 206.58 90.8273 206.821 90.544C207.061 90.2607 207.237 89.9287 207.337 89.5708C207.436 89.213 207.456 88.838 207.395 88.4717L205.288 75.8071C205.194 75.2251 204.9 74.6936 204.457 74.3034C204.014 73.9131 203.449 73.6883 202.858 73.6673L202.863 91.4494Z" fill="#000091"/>
<path d="M224.368 84.7383C225.793 84.7383 226.949 83.5865 226.949 82.1655C226.949 80.7446 225.793 79.5927 224.368 79.5927C222.942 79.5927 221.787 80.7446 221.787 82.1655C221.787 83.5865 222.942 84.7383 224.368 84.7383Z" fill="#F9CFD2"/>
<path d="M140.635 85.4284C140.609 86.5228 140.085 87.4481 138.718 87.9819L136.606 88.4802C135.86 88.6709 135.207 89.1209 134.761 89.7499C134.316 90.3789 134.108 91.1461 134.174 91.9146H142.517L145.934 90.9803L147.035 86.8965L148.153 90.4376L151.34 89.5123L148.792 80.5615" fill="#F9CFD2"/>
<path d="M117.455 83.1154C116.683 84.014 115.538 84.5923 114.26 84.7347C113.355 84.8325 111.562 85.1262 110.692 85.402C109.689 85.7223 107.79 86.6654 107.594 88.2491L115.76 89.993L119.266 90.7404L122.63 87.7865L121.84 91.292L124.725 91.9148L125.914 86.3095" fill="#F9CFD2"/>
<path d="M131.446 72.5988L126.333 86.4164L115.896 82.5371L122.455 64.8136C122.746 64.026 123.211 63.3145 123.815 62.7322C124.419 62.1499 125.146 61.7117 125.943 61.4504" fill="white"/>
<path d="M126.333 86.6834C126.387 86.6834 126.441 86.6667 126.485 86.6356C126.53 86.6044 126.564 86.5603 126.583 86.5092L131.695 72.6916C131.707 72.6587 131.713 72.6238 131.712 72.5888C131.71 72.5537 131.702 72.5193 131.687 72.4875C131.673 72.4556 131.652 72.4269 131.627 72.4031C131.601 72.3793 131.571 72.3607 131.538 72.3485C131.505 72.3363 131.47 72.3308 131.435 72.3321C131.401 72.3334 131.366 72.3416 131.334 72.3562C131.303 72.3708 131.274 72.3916 131.25 72.4173C131.226 72.443 131.208 72.4731 131.196 72.506L126.176 86.0733L116.238 82.3797L122.704 64.9065C122.98 64.1555 123.422 63.4771 123.997 62.9224C124.573 62.3677 125.266 61.9512 126.025 61.7043C126.093 61.6823 126.148 61.6345 126.18 61.5714C126.212 61.5083 126.218 61.435 126.196 61.3677C126.174 61.3004 126.127 61.2445 126.064 61.2124C126.001 61.1803 125.928 61.1746 125.86 61.1966C125.025 61.4683 124.262 61.9266 123.628 62.537C122.995 63.1475 122.509 63.894 122.205 64.7205L115.646 82.444C115.621 82.5104 115.624 82.5838 115.654 82.6481C115.683 82.7124 115.737 82.7624 115.803 82.787L126.241 86.6663C126.27 86.6774 126.302 86.6832 126.333 86.6834Z" fill="#000091"/>
<path d="M156.166 45.7734C156.175 45.7823 156.184 45.7912 156.193 45.7912L156.166 45.7734Z" fill="#000091"/>
<path d="M151.71 44.741L146.199 44.9189L145.178 44.9545C144.481 44.9766 143.797 45.1457 143.17 45.4508C142.543 45.7558 141.987 46.1901 141.539 46.7251L138.344 51.0492L145.542 55.0441L148.32 51.5919C148.32 51.5919 150.423 49.5189 153.139 51.3962C155.829 53.2557 154.382 56.2808 154.382 56.2808L156.37 56.2631L155.953 50.809C155.971 50.7556 154.471 47.8461 153.601 46.1645C153.413 45.8 153.145 45.4826 152.818 45.2361C152.491 44.9897 152.112 44.8204 151.71 44.741Z" fill="#000091"/>
<path d="M141.497 53.0245C141.568 53.0245 141.636 52.9964 141.686 52.9463C141.736 52.8962 141.764 52.8283 141.764 52.7576V50.809C141.764 50.7382 141.736 50.6703 141.686 50.6203C141.636 50.5702 141.568 50.5421 141.497 50.5421C141.427 50.5421 141.359 50.5702 141.309 50.6203C141.259 50.6703 141.231 50.7382 141.231 50.809V52.7576C141.231 52.8283 141.259 52.8962 141.309 52.9463C141.359 52.9964 141.427 53.0245 141.497 53.0245Z" fill="#000091"/>
<path d="M154.308 56.2721H156.225L156.367 60.0446C156.447 62.1533 155.426 64.173 153.642 65.2941C152.702 65.8815 151.617 66.1929 150.509 66.1927H148.556L140.302 65.2941L149.053 80.2861L139.521 86.0427L126.731 64.7335C126.224 63.8873 125.95 62.9214 125.937 61.9344C125.925 60.9474 126.173 59.9746 126.658 59.1153C127.142 58.256 127.845 57.5409 128.696 57.043C129.546 56.5451 130.513 56.2822 131.497 56.281L135.11 56.2899" fill="white"/>
<path d="M139.52 86.3095C139.569 86.3095 139.616 86.2963 139.658 86.2712L149.19 80.5146C149.25 80.4784 149.294 80.42 149.311 80.3519C149.328 80.2839 149.318 80.2118 149.283 80.1512L140.798 65.6165L148.527 66.458C148.537 66.459 148.546 66.4596 148.556 66.4596H150.509C151.666 66.459 152.8 66.1338 153.782 65.5206C155.625 64.3626 156.717 62.2606 156.633 60.0343L156.491 56.2618C156.488 56.1928 156.459 56.1275 156.409 56.0796C156.36 56.0317 156.293 56.0049 156.224 56.005H154.307C154.237 56.005 154.169 56.0331 154.119 56.0832C154.069 56.1332 154.041 56.2011 154.041 56.2719C154.041 56.3427 154.069 56.4106 154.119 56.4606C154.169 56.5107 154.237 56.5388 154.307 56.5388H155.969L156.101 60.0543C156.178 62.0903 155.182 64.0113 153.5 65.0676C152.602 65.6279 151.566 65.9251 150.509 65.9255H148.57L140.33 65.0284C140.281 65.0231 140.232 65.0315 140.187 65.0527C140.142 65.074 140.105 65.1072 140.078 65.1487C140.051 65.1902 140.036 65.2384 140.035 65.2879C140.034 65.3373 140.047 65.3861 140.072 65.4288L148.69 80.1934L139.611 85.6762L126.959 64.5958C126.476 63.79 126.215 62.8704 126.203 61.9307C126.191 60.9909 126.428 60.0648 126.889 59.2466C127.35 58.4285 128.02 57.7476 128.829 57.2735C129.639 56.7994 130.559 56.549 131.497 56.5478L135.108 56.5567H135.109C135.18 56.5568 135.248 56.5287 135.298 56.4787C135.348 56.4287 135.376 56.3609 135.376 56.2901C135.376 56.2193 135.348 56.1514 135.298 56.1013C135.248 56.0511 135.18 56.0229 135.11 56.0229L131.497 56.014C130.465 56.0131 129.45 56.2873 128.558 56.8085C127.666 57.3298 126.928 58.0793 126.42 58.9805C125.912 59.8816 125.651 60.902 125.666 61.937C125.68 62.9721 125.969 63.9847 126.502 64.8712L139.292 86.1804C139.316 86.2198 139.349 86.2525 139.389 86.2751C139.429 86.2978 139.475 86.3097 139.521 86.3097L139.52 86.3095Z" fill="#000091"/>
<path d="M148.014 52.1702C148.054 52.1702 148.094 52.161 148.131 52.1433C148.167 52.1256 148.199 52.0999 148.224 52.068L150.256 49.47C150.298 49.4141 150.316 49.3442 150.307 49.2752C150.297 49.2062 150.262 49.1435 150.207 49.1005C150.152 49.0576 150.083 49.0377 150.014 49.0452C149.945 49.0528 149.881 49.0871 149.837 49.1408L147.805 51.7388C147.774 51.7782 147.755 51.8255 147.749 51.8752C147.744 51.925 147.753 51.9752 147.775 52.0202C147.797 52.0652 147.831 52.1032 147.873 52.1297C147.915 52.1563 147.964 52.1704 148.014 52.1704V52.1702Z" fill="#000091"/>
<path d="M134.337 55.6581C134.754 55.7293 134.754 56.0051 135.269 56.45C135.296 56.4678 144.02 63.4789 144.074 63.5145C144.445 63.8063 144.87 64.0219 145.324 64.149C145.778 64.2761 146.253 64.3121 146.721 64.2551C147.19 64.1981 147.642 64.0491 148.053 63.8167C148.463 63.5843 148.824 63.273 149.115 62.9006C149.115 62.9006 153.766 56.9572 153.802 56.9038C154.409 56.0897 154.669 55.0671 154.524 54.0609C154.379 53.0547 153.841 52.1475 153.029 51.5387C152.217 50.9299 151.197 50.6694 150.193 50.8145C149.19 50.9597 148.285 51.4986 147.677 52.3127L145.432 55.1866C145.432 55.1866 140.958 52.7665 139.29 51.7967C136.76 50.3197 136.361 50.2485 135.322 49.9994C134.967 49.9104 134.506 49.8304 133.982 49.7503C133.982 49.7503 131.843 49.4923 131.062 49.3677C129.074 49.0385 123.491 49.599 123.713 50.9603C123.846 51.7878 125.275 51.3518 128.017 51.2362C125.612 51.7611 123.89 52.3216 124.121 53.1491C124.361 53.9765 126.784 53.4338 128.63 53.0156C127.583 53.8253 126.127 54.8574 126.402 55.4624C126.81 56.3343 128.097 55.4891 128.994 55.0353C130.991 54.0032 131.719 54.8307 133.023 55.409C133.387 55.5514 134.337 55.6581 134.337 55.6581Z" fill="white"/>
<path d="M146.28 64.5488C146.438 64.5487 146.596 64.5391 146.753 64.5199C147.256 64.4598 147.743 64.3003 148.184 64.0505C148.625 63.8008 149.013 63.4659 149.324 63.0651C151.39 60.4258 153.847 57.2836 154.014 57.0632C154.336 56.632 154.57 56.1415 154.702 55.6198C154.835 55.098 154.863 54.5552 154.787 54.0223C154.71 53.4894 154.529 52.9769 154.255 52.514C153.98 52.0512 153.618 51.647 153.188 51.3246C152.758 51.0022 152.268 50.7678 151.748 50.635C151.227 50.5021 150.686 50.4734 150.154 50.5503C149.623 50.6272 149.111 50.8084 148.65 51.0834C148.188 51.3584 147.785 51.7218 147.463 52.153L145.36 54.8442C144.476 54.365 140.869 52.4064 139.422 51.5652C136.928 50.109 136.47 49.9993 135.467 49.759L135.383 49.7391C135.065 49.659 134.644 49.5809 134.021 49.4856C133.992 49.4819 131.87 49.2257 131.103 49.103C129.348 48.8124 124.82 49.1703 123.718 50.2732C123.443 50.549 123.42 50.8219 123.449 51.0028C123.561 51.6981 124.218 51.768 125.316 51.6968C124.575 51.975 124.148 52.2588 123.954 52.5815C123.896 52.6758 123.857 52.7814 123.842 52.8915C123.826 53.0016 123.834 53.1137 123.864 53.2207C124.108 54.0618 125.551 53.9356 127.53 53.5284C126.623 54.251 125.884 54.9684 126.159 55.5728C126.207 55.6859 126.279 55.7875 126.368 55.8711C126.458 55.9546 126.565 56.0182 126.681 56.0577C127.267 56.2535 128.058 55.8319 128.757 55.4601C128.88 55.3944 129 55.3307 129.113 55.2733C130.633 54.4878 131.309 54.8384 132.245 55.3238C132.456 55.4331 132.674 55.5462 132.915 55.653L132.926 55.6575C133.302 55.8047 134.165 55.9067 134.299 55.9222C134.444 55.9484 134.491 55.9987 134.641 56.1795C134.778 56.3503 134.929 56.5085 135.094 56.652C135.099 56.6557 135.103 56.6594 135.108 56.6628C135.181 56.7198 136.739 57.9714 138.389 59.2964C142.846 62.8758 143.779 63.6236 143.909 63.7244C144.584 64.2586 145.42 64.549 146.28 64.5488ZM153.585 56.7479C153.483 56.8839 150.482 60.7204 148.905 62.7358C148.361 63.4309 147.564 63.8811 146.689 63.9877C145.814 64.0943 144.932 63.8486 144.238 63.3045C144.236 63.3026 144.233 63.301 144.231 63.2992C144.109 63.2056 141.123 60.808 138.722 58.8795C136.019 56.7086 135.538 56.323 135.443 56.2478C135.3 56.1235 135.169 55.9865 135.051 55.8385C134.888 55.6413 134.733 55.4549 134.382 55.395C134.377 55.3942 134.371 55.3935 134.367 55.3928C134.113 55.3644 133.4 55.2677 133.125 55.1623C132.901 55.0629 132.692 54.9546 132.49 54.8497C131.536 54.355 130.634 53.8872 128.872 54.7981C128.757 54.856 128.634 54.9214 128.508 54.9888C127.964 55.2783 127.219 55.6753 126.85 55.5514C126.803 55.5349 126.76 55.5082 126.724 55.4732C126.688 55.4383 126.661 55.3958 126.643 55.349C126.482 54.9955 127.842 53.9546 128.496 53.4544C128.597 53.3771 128.697 53.3011 128.792 53.227C128.84 53.1898 128.874 53.1374 128.888 53.0783C128.903 53.0193 128.896 52.9571 128.87 52.9022C128.845 52.8472 128.801 52.8027 128.746 52.776C128.692 52.7493 128.63 52.7421 128.571 52.7554C127.697 52.9535 126.609 53.2003 125.747 53.2839C124.565 53.3996 124.399 53.153 124.377 53.0747C124.366 53.0381 124.364 52.9996 124.37 52.962C124.376 52.9244 124.39 52.8886 124.411 52.8571C124.799 52.2119 127.178 51.6926 128.074 51.4971C128.139 51.483 128.197 51.4448 128.235 51.3902C128.273 51.3356 128.29 51.2685 128.281 51.2022C128.273 51.1359 128.24 51.0752 128.189 51.0321C128.138 50.9891 128.073 50.9668 128.006 50.9696C127.253 51.0014 126.611 51.056 126.045 51.1042C124.686 51.2199 124.031 51.2603 123.976 50.918C123.97 50.8831 123.955 50.7922 124.095 50.6521C124.969 49.7775 129.258 49.3395 131.018 49.6312C131.797 49.7557 133.862 50.0049 133.95 50.0155C134.547 50.1069 134.953 50.1823 135.257 50.2585L135.343 50.2792C136.294 50.5067 136.729 50.6105 139.155 52.0275C140.809 52.9884 145.26 55.3975 145.305 55.4216C145.36 55.4515 145.424 55.4608 145.486 55.448C145.547 55.4351 145.602 55.4009 145.641 55.3513L147.886 52.4774C148.165 52.1005 148.516 51.7825 148.917 51.5415C149.319 51.3006 149.764 51.1415 150.227 51.0734C150.691 51.0052 151.163 51.0294 151.616 51.1445C152.07 51.2595 152.497 51.4633 152.872 51.744C153.247 52.0247 153.563 52.3769 153.802 52.7803C154.042 53.1838 154.199 53.6305 154.265 54.095C154.332 54.5595 154.306 55.0326 154.19 55.4872C154.074 55.9417 153.869 56.3688 153.588 56.744C153.587 56.745 153.586 56.7465 153.585 56.7479Z" fill="#000091"/>
<path d="M148.804 40.8447C148.774 38.5058 150.642 36.5856 152.975 36.5556C155.308 36.5256 157.223 38.3973 157.253 40.7362C157.283 43.075 155.416 44.9952 153.083 45.0252C150.75 45.0552 148.834 43.1835 148.804 40.8447Z" fill="white"/>
<path d="M153.031 45.2925C153.92 45.2925 154.788 45.0285 155.526 44.5338C156.265 44.0391 156.841 43.336 157.181 42.5133C157.52 41.6907 157.609 40.7855 157.436 39.9121C157.263 39.0388 156.835 38.2366 156.207 37.607C155.579 36.9774 154.779 36.5486 153.907 36.3749C153.036 36.2012 152.133 36.2903 151.313 36.6311C150.492 36.9718 149.791 37.5489 149.297 38.2892C148.804 39.0296 148.54 39.9 148.54 40.7905C148.541 41.9841 149.015 43.1284 149.857 43.9724C150.699 44.8164 151.841 45.2912 153.031 45.2925ZM153.031 36.8222C153.814 36.8222 154.58 37.055 155.231 37.491C155.882 37.927 156.389 38.5468 156.689 39.2719C156.988 39.997 157.067 40.7949 156.914 41.5646C156.761 42.3344 156.384 43.0414 155.83 43.5964C155.277 44.1514 154.571 44.5293 153.804 44.6824C153.036 44.8355 152.24 44.757 151.516 44.4566C150.793 44.1563 150.175 43.6477 149.74 42.9951C149.305 42.3425 149.073 41.5753 149.073 40.7905C149.074 39.7384 149.491 38.7298 150.233 37.9859C150.976 37.2419 151.982 36.8235 153.031 36.8223V36.8222Z" fill="#000091"/>
<path d="M151.103 39.2692C151.113 39.6185 151.083 39.9677 151.014 40.3102C150.957 40.5835 150.877 40.8514 150.775 41.111L151.289 44.1005L151.387 44.8123C151.434 45.1016 151.428 45.3971 151.369 45.6842C151.257 46.2182 150.963 46.6964 150.538 47.0366C150.112 47.3768 149.582 47.5577 149.038 47.5482C148.493 47.5388 147.969 47.3395 147.556 46.9847C147.142 46.6299 146.865 46.1417 146.772 45.6041L146.727 45.3372L146.479 43.9581C146.202 43.9505 145.926 43.9207 145.653 43.8691C145.07 43.7481 144.517 43.513 144.024 43.1773C143.532 42.8417 143.111 42.4119 142.784 41.9128C142.458 41.4136 142.233 40.8548 142.122 40.2684C142.011 39.682 142.017 39.0794 142.139 38.4951C142.251 37.9583 142.458 37.4461 142.751 36.9826C142.67 36.4418 142.682 35.8911 142.786 35.3544C142.824 35.1644 142.875 34.9771 142.937 34.7938L143.931 33.3969L144.65 32.9699" fill="white"/>
<path d="M149.083 47.817C149.68 47.814 150.258 47.6063 150.721 47.2284C151.185 46.8504 151.505 46.3249 151.629 45.7393C151.695 45.4205 151.702 45.0923 151.649 44.771L151.552 44.064C151.552 44.0611 151.551 44.058 151.551 44.0551L151.048 41.1368C151.279 40.5396 151.387 39.9022 151.368 39.2623C151.367 39.2272 151.359 39.1927 151.345 39.1606C151.331 39.1286 151.311 39.0997 151.285 39.0755C151.26 39.0514 151.23 39.0325 151.197 39.0199C151.165 39.0073 151.13 39.0013 151.095 39.0022C151.06 39.0031 151.025 39.0109 150.994 39.0251C150.962 39.0394 150.933 39.0598 150.909 39.0852C150.885 39.1106 150.866 39.1406 150.853 39.1733C150.841 39.206 150.835 39.2409 150.835 39.276C150.845 39.605 150.817 39.9339 150.752 40.2566C150.698 40.5159 150.622 40.7701 150.524 41.0162C150.507 41.0609 150.503 41.1093 150.511 41.1563L151.025 44.1413L151.122 44.8486C151.165 45.1067 151.16 45.3706 151.108 45.6271C151.009 46.1007 150.749 46.5251 150.372 46.827C149.994 47.1289 149.524 47.2896 149.041 47.2813C148.559 47.273 148.094 47.0962 147.727 46.7815C147.361 46.4668 147.115 46.0337 147.032 45.557L146.989 45.2933L146.739 43.9106C146.729 43.8505 146.697 43.7959 146.651 43.756C146.605 43.7161 146.547 43.6932 146.486 43.6913C146.223 43.6843 145.961 43.6561 145.703 43.607C145.154 43.4927 144.634 43.2712 144.171 42.9551C143.708 42.639 143.312 42.2346 143.005 41.7649C142.698 41.2953 142.487 40.7696 142.382 40.218C142.278 39.6663 142.284 39.0995 142.398 38.5499C142.504 38.0445 142.7 37.562 142.975 37.1255C143.01 37.0713 143.023 37.0064 143.014 36.9429C142.937 36.4324 142.948 35.9124 143.047 35.4057C143.08 35.2398 143.123 35.0761 143.177 34.9157L144.115 33.5977L144.785 33.1993C144.845 33.163 144.889 33.1042 144.906 33.0359C144.923 32.9677 144.913 32.8953 144.877 32.8348C144.841 32.7742 144.783 32.7302 144.715 32.7125C144.647 32.6948 144.575 32.7047 144.514 32.7401L143.795 33.1671C143.763 33.1861 143.735 33.2115 143.714 33.2418L142.72 34.6387C142.705 34.6603 142.693 34.6841 142.684 34.7093C142.618 34.9039 142.564 35.1026 142.524 35.3043C142.42 35.8377 142.403 36.3846 142.474 36.9236C142.192 37.3917 141.99 37.904 141.878 38.4391C141.749 39.0578 141.743 39.6959 141.86 40.3169C141.977 40.938 142.215 41.5297 142.561 42.0584C142.907 42.587 143.353 43.0421 143.874 43.3976C144.396 43.7531 144.982 44.002 145.599 44.1301C145.815 44.1718 146.034 44.1997 146.254 44.2138L146.509 45.6476C146.615 46.2547 146.931 46.8048 147.402 47.2015C147.873 47.5981 148.468 47.8159 149.083 47.8166L149.083 47.817Z" fill="#000091"/>
<path d="M148.024 37.0537C147.43 36.7684 146.908 36.3517 146.497 35.8348C146 35.2297 144.412 33.4948 144.412 33.4948L142.947 34.7582C143.311 33.7172 143.808 32.8186 144.74 32.2491C145.275 31.9275 145.869 31.715 146.486 31.6237C147.104 31.5324 147.733 31.5641 148.338 31.717C148.943 31.8699 149.512 32.141 150.013 32.5148C150.513 32.8885 150.935 33.3576 151.255 33.8951C151.752 34.7376 151.982 35.7123 151.912 36.6889C151.879 36.8939 151.807 37.0905 151.698 37.2672" fill="white"/>
<path d="M151.698 37.5342C151.74 37.5343 151.782 37.5243 151.819 37.505C151.857 37.4857 151.889 37.4576 151.914 37.4232C152.048 37.2123 152.136 36.9757 152.174 36.7285C152.175 36.7218 152.176 36.7151 152.176 36.7083C152.251 35.6775 152.009 34.6485 151.483 33.7596C151.146 33.1917 150.701 32.6961 150.172 32.3012C149.643 31.9063 149.042 31.6199 148.403 31.4583C147.764 31.2967 147.099 31.2631 146.447 31.3595C145.795 31.456 145.168 31.6804 144.603 32.0201C143.496 32.6957 143.002 33.7907 142.695 34.67C142.676 34.7254 142.675 34.7858 142.693 34.8416C142.712 34.8974 142.748 34.9456 142.796 34.9787C142.845 35.0118 142.903 35.028 142.961 35.0247C143.02 35.0214 143.076 34.9988 143.12 34.9605L144.389 33.8661C144.815 34.3332 145.901 35.5299 146.291 36.0046C146.727 36.5528 147.282 36.9947 147.913 37.2968C147.977 37.3261 148.051 37.3286 148.117 37.3038C148.183 37.2789 148.236 37.2287 148.266 37.1643C148.295 37.0998 148.297 37.0264 148.273 36.9601C148.248 36.8938 148.198 36.8401 148.133 36.8107C147.576 36.5421 147.086 36.1501 146.702 35.6643C146.206 35.0615 144.672 33.3853 144.607 33.3143C144.56 33.2633 144.495 33.2325 144.426 33.2284C144.357 33.2243 144.289 33.2473 144.237 33.2926L143.661 33.7895C143.943 33.2516 144.363 32.7986 144.878 32.4771C145.383 32.1739 145.943 31.9735 146.526 31.8876C147.108 31.8016 147.702 31.8317 148.273 31.9761C148.844 32.1205 149.381 32.3763 149.853 32.7291C150.326 33.0818 150.724 33.5244 151.025 34.0317C151.494 34.8236 151.71 35.7399 151.646 36.6584C151.621 36.8186 151.565 36.9723 151.482 37.1114C151.453 37.1512 151.436 37.1982 151.433 37.2472C151.429 37.2962 151.439 37.3452 151.461 37.3889C151.483 37.4327 151.517 37.4694 151.559 37.495C151.601 37.5206 151.649 37.5342 151.698 37.5343L151.698 37.5342Z" fill="#000091"/>
<path d="M147.886 37.9435C147.858 37.5713 147.937 37.1987 148.113 36.8698C148.29 36.541 148.556 36.2697 148.882 36.088C149.207 35.9064 149.578 35.8219 149.949 35.8447C150.321 35.8675 150.678 35.9966 150.979 36.2166C151.28 36.4367 151.512 36.7385 151.647 37.0865C151.782 37.4344 151.815 37.8138 151.742 38.1799C151.668 38.546 151.492 38.8833 151.234 39.152C150.975 39.4208 150.645 39.6097 150.283 39.6963" fill="white"/>
<path d="M150.282 39.9634C150.303 39.9634 150.323 39.9609 150.344 39.9561C150.741 39.8618 151.105 39.6585 151.394 39.3688C151.6 39.1646 151.764 38.9209 151.875 38.6521C151.987 38.3833 152.043 38.0949 152.041 37.8039C152.041 37.2158 151.808 36.6518 151.395 36.2347C151.192 36.0278 150.95 35.8635 150.683 35.7514C150.416 35.6392 150.129 35.5815 149.839 35.5816H149.833C149.528 35.5821 149.227 35.6453 148.948 35.7675C148.668 35.8897 148.417 36.0682 148.21 36.2918C148.002 36.5155 147.843 36.7795 147.741 37.0676C147.64 37.3556 147.599 37.6614 147.62 37.9661C147.623 38.0015 147.632 38.036 147.648 38.0678C147.663 38.0995 147.685 38.1278 147.712 38.151C147.739 38.1742 147.77 38.1918 147.804 38.2028C147.837 38.2138 147.873 38.218 147.908 38.2151C147.943 38.2122 147.978 38.2023 148.009 38.1859C148.04 38.1696 148.068 38.1471 148.091 38.1199C148.113 38.0927 148.13 38.0612 148.141 38.0273C148.151 37.9934 148.155 37.9578 148.151 37.9225C148.136 37.6914 148.168 37.4596 148.245 37.2413C148.322 37.0231 148.444 36.8232 148.601 36.6538C148.759 36.4845 148.95 36.3494 149.161 36.2568C149.373 36.1643 149.602 36.1163 149.833 36.1159H149.838C150.057 36.1158 150.274 36.1595 150.477 36.2444C150.679 36.3293 150.862 36.4538 151.016 36.6105C151.331 36.9279 151.508 37.3574 151.508 37.8051C151.508 38.1826 151.381 38.5489 151.148 38.845C150.914 39.141 150.588 39.3495 150.222 39.4366C150.158 39.4517 150.102 39.4896 150.065 39.5432C150.027 39.5967 150.011 39.6623 150.018 39.7273C150.026 39.7923 150.057 39.8523 150.106 39.8958C150.154 39.9393 150.217 39.9634 150.283 39.9634H150.282Z" fill="#000091"/>
<path d="M149.136 38.3794C149.146 38.3794 149.156 38.3789 149.166 38.3777L150.729 38.1998C150.764 38.1963 150.798 38.1858 150.829 38.169C150.86 38.1522 150.887 38.1293 150.909 38.1018C150.931 38.0743 150.948 38.0427 150.958 38.0087C150.968 37.9747 150.971 37.9392 150.967 37.904C150.963 37.8689 150.952 37.8349 150.935 37.804C150.917 37.7732 150.894 37.746 150.866 37.7242C150.839 37.7024 150.807 37.6863 150.773 37.6769C150.739 37.6675 150.703 37.6649 150.668 37.6694L149.806 37.7673L150.328 37.188C150.352 37.162 150.37 37.1316 150.382 37.0985C150.394 37.0654 150.4 37.0302 150.398 36.9949C150.396 36.9597 150.388 36.9251 150.373 36.8933C150.358 36.8614 150.337 36.8328 150.311 36.8091C150.284 36.7855 150.254 36.7673 150.221 36.7555C150.188 36.7438 150.152 36.7387 150.117 36.7407C150.082 36.7426 150.048 36.7515 150.016 36.7669C149.984 36.7823 149.956 36.8037 149.933 36.8301L148.939 37.9334C148.904 37.9717 148.882 38.0193 148.873 38.0702C148.865 38.1212 148.872 38.1735 148.893 38.2207C148.914 38.2678 148.948 38.3079 148.991 38.3361C149.034 38.3642 149.085 38.3792 149.136 38.3793V38.3794Z" fill="#000091"/>
<path d="M143.471 39.8742C143.526 39.8742 143.58 39.8569 143.625 39.8247C143.671 39.7925 143.705 39.7469 143.723 39.6943C143.741 39.6418 143.742 39.5849 143.726 39.5316C143.711 39.4783 143.679 39.4313 143.635 39.397L142.943 38.8543L143.995 37.4358C144.017 37.4077 144.033 37.3756 144.042 37.3413C144.051 37.307 144.053 37.2712 144.048 37.2361C144.044 37.2009 144.032 37.1671 144.014 37.1365C143.996 37.106 143.972 37.0793 143.943 37.0582C143.915 37.037 143.883 37.0217 143.848 37.0132C143.814 37.0048 143.778 37.0032 143.743 37.0087C143.708 37.0143 143.675 37.0267 143.645 37.0454C143.615 37.064 143.588 37.0885 143.568 37.1174L142.361 38.7456C142.319 38.8015 142.301 38.8715 142.311 38.9405C142.32 39.0095 142.356 39.0721 142.41 39.1151L143.307 39.818C143.354 39.8545 143.411 39.8743 143.471 39.8742Z" fill="#000091"/>
<path d="M144.959 38.134C144.827 38.0019 144.827 37.7879 144.959 37.6558C145.09 37.5238 145.304 37.5238 145.436 37.6558C145.567 37.7879 145.567 38.0019 145.436 38.134C145.304 38.266 145.09 38.266 144.959 38.134Z" fill="#000091"/>
<path d="M142.496 37.8455C142.364 37.7135 142.364 37.4994 142.496 37.3673C142.628 37.2353 142.841 37.2353 142.973 37.3673C143.105 37.4994 143.105 37.7135 142.973 37.8455C142.841 37.9775 142.628 37.9775 142.496 37.8455Z" fill="#000091"/>
<path d="M143.808 41.2939C144.123 41.2942 144.427 41.1745 144.657 40.9591C144.659 40.9568 144.662 40.9546 144.664 40.9523L144.735 40.8811C144.744 40.8723 144.752 40.8628 144.759 40.8528L144.786 40.8172C144.807 40.7892 144.822 40.7573 144.831 40.7233C144.84 40.6894 144.842 40.654 144.837 40.6193C144.827 40.5493 144.789 40.486 144.733 40.4435C144.676 40.4011 144.605 40.3828 144.535 40.3928C144.465 40.4029 144.402 40.4403 144.36 40.4969L144.323 40.5396L144.291 40.5717C144.154 40.6988 143.972 40.7665 143.785 40.7601C143.599 40.7537 143.422 40.6737 143.294 40.5375L143.17 40.404C143.122 40.3523 143.055 40.3218 142.985 40.3194C142.914 40.3169 142.845 40.3427 142.794 40.391C142.742 40.4393 142.712 40.5062 142.709 40.577C142.707 40.6477 142.733 40.7165 142.781 40.7683L142.905 40.9018C143.021 41.026 143.16 41.1249 143.316 41.1924C143.471 41.2598 143.639 41.2944 143.808 41.2939Z" fill="#000091"/>
<path d="M146.535 44.2247C147.369 44.2119 148.186 43.9892 148.911 43.5773C148.972 43.5426 149.017 43.4851 149.036 43.4171C149.056 43.3492 149.047 43.2765 149.013 43.2148C148.979 43.1532 148.921 43.1076 148.854 43.0882C148.786 43.0687 148.713 43.0768 148.652 43.1109C147.984 43.4922 147.228 43.6919 146.459 43.6902C146.389 43.6886 146.32 43.7153 146.269 43.7642C146.218 43.8132 146.189 43.8805 146.187 43.9513C146.186 44.022 146.212 44.0906 146.261 44.1417C146.31 44.1929 146.377 44.2225 146.448 44.224C146.477 44.2247 146.506 44.2247 146.535 44.2247Z" fill="#000091"/>
<path d="M157.035 40.533C158.1 40.8155 159.057 41.408 159.786 42.2358C160.515 43.0636 160.982 44.0894 161.129 45.1836C161.277 46.2777 161.097 47.391 160.613 48.3827C160.129 49.3743 159.362 50.1999 158.41 50.7548C157.458 51.3098 156.363 51.5693 155.264 51.5005C154.165 51.4317 153.111 51.0377 152.235 50.3683C151.359 49.699 150.701 48.7843 150.344 47.7399C149.986 46.6956 149.946 45.5685 150.228 44.5013C150.434 43.7127 150.813 42.9802 151.337 42.357" fill="white"/>
<path d="M155.623 51.7814C157.039 51.7778 158.406 51.2583 159.468 50.3195C160.53 49.3808 161.216 48.0869 161.397 46.679C161.578 45.271 161.243 43.8451 160.453 42.6668C159.663 41.4886 158.473 40.6384 157.104 40.2747C157.035 40.2565 156.963 40.2663 156.902 40.3018C156.841 40.3373 156.796 40.3957 156.778 40.4642C156.76 40.5326 156.77 40.6054 156.805 40.6667C156.84 40.7279 156.899 40.7726 156.967 40.7907C157.981 41.0596 158.893 41.6237 159.587 42.412C160.281 43.2002 160.726 44.1771 160.866 45.219C161.007 46.2609 160.835 47.3212 160.374 48.2656C159.914 49.21 159.184 49.9962 158.277 50.5248C157.37 51.0534 156.328 51.3005 155.281 51.235C154.234 51.1695 153.23 50.7943 152.396 50.1569C151.562 49.5194 150.935 48.6483 150.595 47.6538C150.255 46.6593 150.217 45.5859 150.485 44.5695C150.681 43.8186 151.042 43.1211 151.541 42.5282C151.564 42.5013 151.581 42.4703 151.591 42.4368C151.602 42.4034 151.605 42.3682 151.602 42.3333C151.599 42.2984 151.589 42.2644 151.573 42.2333C151.557 42.2022 151.535 42.1746 151.508 42.1521C151.481 42.1296 151.45 42.1126 151.417 42.102C151.384 42.0915 151.349 42.0877 151.314 42.0908C151.279 42.0938 151.245 42.1038 151.214 42.12C151.183 42.1362 151.155 42.1583 151.133 42.1852C150.583 42.8383 150.186 43.6066 149.97 44.4337C149.774 45.1761 149.726 45.9501 149.828 46.7112C149.931 47.4724 150.182 48.2059 150.567 48.8698C150.952 49.5337 151.464 50.1151 152.073 50.5807C152.683 51.0462 153.377 51.3869 154.118 51.5832C154.609 51.7145 155.115 51.7811 155.623 51.7814Z" fill="#000091"/>
<path d="M134.523 56.8155H130.614H111.463L109.681 45.1329C109.667 45.043 109.66 44.9522 109.66 44.8612C109.66 43.8668 110.469 43.0607 111.467 43.0609H126.963C127.856 43.0604 128.616 43.7107 128.75 44.591L130.42 55.5471H134.394L134.523 56.8155Z" fill="white"/>
<path d="M134.524 57.0399H111.464C111.353 57.0399 111.258 56.9589 111.242 56.8494L109.459 45.1668C109.444 45.0661 109.436 44.9633 109.436 44.8613C109.436 44.3205 109.648 43.8119 110.031 43.4296C110.415 43.0473 110.925 42.8368 111.467 42.8368C111.467 42.8368 111.468 42.8368 111.468 42.8368H126.964C126.964 42.8368 126.965 42.8368 126.965 42.8368C127.977 42.8368 128.821 43.5602 128.973 44.5574L130.615 55.3229H134.395C134.511 55.3229 134.608 55.4101 134.619 55.5246L134.747 56.7931C134.754 56.8562 134.733 56.9189 134.69 56.966C134.648 57.0131 134.587 57.0399 134.524 57.0399ZM111.657 56.5914H134.275L134.192 55.7715H130.421C130.31 55.7715 130.216 55.6905 130.199 55.5809L128.528 44.6248C128.41 43.8485 127.753 43.2853 126.965 43.2853C126.965 43.2853 126.965 43.2853 126.964 43.2853H111.468C111.468 43.2853 111.467 43.2853 111.467 43.2853C111.045 43.2853 110.648 43.4491 110.349 43.7468C110.051 44.0444 109.886 44.4403 109.886 44.8614C109.886 44.9408 109.892 45.0208 109.904 45.0992L111.657 56.5914Z" fill="#000091"/>
<path d="M120.57 51.6839C121.047 51.2226 120.981 50.3825 120.421 49.8076C119.862 49.2328 119.022 49.1407 118.544 49.6021C118.067 50.0635 118.134 50.9035 118.694 51.4784C119.253 52.0533 120.093 52.1453 120.57 51.6839Z" fill="#F9CFD2"/>
<path d="M90.3995 57.2825C90.332 57.2825 90.2673 57.2557 90.2196 57.2079C90.1719 57.1601 90.1451 57.0953 90.1451 57.0277C90.1451 56.9601 90.1719 56.8953 90.2196 56.8475C90.2673 56.7997 90.332 56.7728 90.3995 56.7728L134.61 56.7586C134.677 56.7586 134.742 56.7855 134.79 56.8333C134.837 56.8811 134.864 56.9459 134.864 57.0135C134.864 57.0811 134.837 57.1459 134.79 57.1937C134.742 57.2415 134.677 57.2683 134.61 57.2683L90.3995 57.2825Z" fill="#000091"/>
<path d="M112.975 92.196C112.908 92.196 112.843 92.1691 112.795 92.1213C112.748 92.0735 112.721 92.0087 112.721 91.9411V57.1804C112.721 57.1128 112.748 57.048 112.795 57.0002C112.843 56.9524 112.908 56.9256 112.975 56.9256C113.043 56.9256 113.107 56.9524 113.155 57.0002C113.203 57.048 113.23 57.1128 113.23 57.1804V91.9411C113.23 92.0087 113.203 92.0735 113.155 92.1213C113.107 92.1691 113.043 92.196 112.975 92.196Z" fill="#000091"/>
<path d="M245.211 92.0495C245.198 92.0517 245.184 92.0527 245.171 92.0527L96.138 92.5807C96.069 92.581 96.0026 92.5537 95.9535 92.5048C95.9044 92.456 95.8767 92.3896 95.8763 92.3202C95.876 92.2508 95.9031 92.1842 95.9517 92.135C96.0003 92.0858 96.0664 92.058 96.1354 92.0577L245.168 91.5297C245.234 91.5293 245.297 91.5538 245.346 91.5984C245.394 91.643 245.424 91.7043 245.43 91.7701C245.435 91.8358 245.415 91.9012 245.375 91.953C245.334 92.0048 245.276 92.0393 245.211 92.0495Z" fill="#000091"/>
</g>
<defs>
<clipPath id="clip0_4490_264018">
<rect width="180" height="101.25" fill="white" transform="translate(82 0.508804)"/>
</clipPath>
</defs>
</svg>
