<svg width="280" height="215" viewBox="0 0 280 215" fill="none" xmlns="http://www.w3.org/2000/svg">
<path d="M31.9299 83.0937C26.1697 83.0937 21.2219 81.5799 17.0864 78.5521C13.0248 75.5243 9.88621 71.2042 7.67077 65.5917C5.52917 59.9054 4.45837 53.1852 4.45837 45.4312C4.45837 38.1941 5.60302 31.7693 7.89231 26.1568C10.2555 20.4705 13.5048 16.0027 17.6403 12.7534C21.7758 9.4302 26.539 7.76862 31.9299 7.76862C37.69 7.76862 42.6379 9.2825 46.7734 12.3103C50.9089 15.3381 54.0474 19.6951 56.189 25.3814C58.4045 30.9939 59.5122 37.6771 59.5122 45.4312C59.5122 52.6683 58.3306 59.13 55.9675 64.8163C53.6043 70.4288 50.355 74.8966 46.2195 78.2198C42.084 81.4691 37.3208 83.0937 31.9299 83.0937ZM33.813 77.6659C35.7331 77.6659 37.3208 76.4474 38.5762 74.0104C39.8316 71.4996 40.7547 68.1026 41.3455 63.8194C41.9363 59.4623 42.2317 54.4776 42.2317 48.8651C42.2317 42.2926 41.8255 36.3109 41.0132 30.92C40.2747 25.5291 39.0562 21.209 37.3577 17.9597C35.6592 14.7103 33.3699 13.0857 30.4899 13.0857C27.5359 13.0857 25.3205 15.7073 23.8435 20.9505C22.4404 26.1199 21.7388 33.0616 21.7388 41.7757C21.7388 48.3482 22.145 54.3668 22.9573 59.8316C23.7697 65.2225 25.062 69.5426 26.8344 72.7919C28.6067 76.0412 30.9329 77.6659 33.813 77.6659Z" fill="#E3E3FD"/>
<path d="M79.401 81.986V80.2137L89.9244 76.3366V21.6151L71.5362 29.9231V25.4922L99.1185 8.87634H106.097V76.3366L115.513 80.2137V81.986H79.401Z" fill="#E3E3FD"/>
<path d="M14.3573 73.0101L14.3612 73.013C18.6032 76.1187 23.6692 77.6616 29.5318 77.6616C35.0435 77.6616 39.9279 75.9973 44.1637 72.6693L44.1684 72.6655C48.3855 69.2767 51.6864 64.7298 54.0799 59.0452L54.0808 59.0429C56.4764 53.2785 57.668 46.7426 57.668 39.4452C57.668 31.6422 56.5538 24.8879 54.3077 19.1959C52.1353 13.43 48.9388 8.97894 44.7025 5.87737C40.4605 2.77159 35.3944 1.22873 29.5318 1.22873C24.018 1.22873 19.1327 2.93139 14.8976 6.3337C10.6769 9.65076 7.37563 14.2005 4.98278 19.9582L4.9814 19.9616C2.66031 25.652 1.50644 32.1499 1.50644 39.4452C1.50644 47.2483 2.58379 54.0376 4.75438 59.8009L4.75431 59.8009L4.75752 59.8091C7.00348 65.4988 10.1985 69.9099 14.3573 73.0101ZM38.0664 25.0092L38.0664 25.0092L38.0675 25.0165C38.8749 30.3752 39.2798 36.3288 39.2798 42.8791C39.2798 48.4726 38.9853 53.4314 38.3988 57.7579C37.8125 62.0081 36.9014 65.3382 35.6842 67.7738C34.4781 70.1136 33.0426 71.126 31.415 71.126C28.797 71.126 26.6301 69.6712 24.9225 66.5407C23.1922 63.3685 21.9139 59.1178 21.1071 53.7639C20.2994 48.3307 19.8946 42.3398 19.8946 35.7897C19.8946 27.0995 20.5949 20.2138 21.9793 15.1121C22.7074 12.5282 23.6027 10.6482 24.6378 9.42336C25.6592 8.21466 26.8051 7.65352 28.0918 7.65352C30.7068 7.65352 32.8351 9.10478 34.4688 12.2302C36.127 15.4025 37.3328 19.6539 38.0664 25.0092ZM76.4491 76V76.5539H77.0029H113.115H113.669V76V74.2276V73.8567L113.326 73.7155L104.253 69.9797V2.89031V2.33645H103.699H96.7204H96.5664L96.4346 2.41589L68.8523 19.0317L68.5842 19.1932V19.5061V23.937V24.795L69.3661 24.4418L86.9724 16.4871V69.9644L76.8114 73.7079L76.4491 73.8414V74.2276V76Z" stroke="#000091" stroke-width="1.10772"/>
<g clip-path="url(#clip0_2051_142231)">
<path d="M193.344 150.097C198.804 150.097 203.23 145.691 203.23 140.255C203.23 134.82 198.804 130.414 193.344 130.414C187.884 130.414 183.458 134.82 183.458 140.255C183.458 145.691 187.884 150.097 193.344 150.097Z" fill="white"/>
<path d="M193.35 150.466C191.321 150.466 189.338 149.868 187.651 148.746C185.964 147.624 184.65 146.029 183.874 144.163C183.097 142.297 182.894 140.244 183.29 138.264C183.686 136.283 184.662 134.464 186.097 133.036C187.531 131.608 189.359 130.635 191.349 130.241C193.338 129.847 195.4 130.049 197.275 130.822C199.149 131.595 200.751 132.904 201.878 134.583C203.005 136.262 203.606 138.236 203.606 140.256C203.603 142.963 202.522 145.558 200.599 147.472C198.676 149.387 196.069 150.463 193.35 150.466ZM193.35 130.783C191.468 130.783 189.628 131.339 188.063 132.379C186.498 133.42 185.279 134.9 184.559 136.631C183.838 138.362 183.65 140.266 184.017 142.104C184.384 143.941 185.29 145.629 186.621 146.954C187.952 148.279 189.647 149.181 191.493 149.546C193.339 149.912 195.252 149.724 196.991 149.007C198.73 148.29 200.216 147.076 201.261 145.518C202.307 143.961 202.865 142.129 202.865 140.256C202.862 137.744 201.859 135.336 200.075 133.561C198.291 131.785 195.872 130.786 193.35 130.783Z" fill="#000091"/>
<path d="M176.507 185.686C176.507 185.686 168.291 183.64 164.634 178.318C164.569 178.34 164.5 178.351 164.431 178.352C163.165 178.373 161.899 178.37 160.633 178.361C160.63 178.487 160.586 178.608 160.509 178.708C160.432 178.807 160.324 178.879 160.203 178.914C159.936 178.987 159.672 179.07 159.407 179.157C159.121 179.307 158.837 179.491 158.543 179.562C158.029 179.687 157.553 179.658 157.142 180.04C156.403 180.728 155.901 181.432 154.829 181.618C152.588 182.008 150.782 180.259 149.391 178.756C149.331 178.692 149.284 178.617 149.254 178.535C147.813 178.586 146.372 178.629 144.93 178.638L144.921 192.956H152.101L152.056 183.928L162.321 192.956H181.697C181.835 191.329 181.389 189.706 180.439 188.375C179.489 187.044 178.096 186.092 176.507 185.686Z" fill="white"/>
<path d="M181.703 193.326H162.326C162.236 193.325 162.148 193.293 162.081 193.233L152.436 184.751L152.477 192.955C152.477 193.003 152.468 193.052 152.449 193.096C152.431 193.141 152.404 193.182 152.369 193.217C152.335 193.251 152.294 193.279 152.249 193.297C152.204 193.316 152.155 193.326 152.106 193.326H144.927C144.828 193.326 144.734 193.287 144.664 193.217C144.595 193.148 144.556 193.054 144.556 192.956L144.565 178.637C144.565 178.539 144.604 178.446 144.673 178.377C144.742 178.307 144.835 178.268 144.933 178.268C146.418 178.259 147.884 178.213 149.246 178.165C149.325 178.162 149.403 178.184 149.468 178.228C149.533 178.273 149.583 178.337 149.609 178.411C149.622 178.446 149.643 178.478 149.669 178.505C151.071 180.02 152.738 181.607 154.771 181.253C155.524 181.122 155.948 180.7 156.486 180.166C156.615 180.037 156.75 179.903 156.894 179.769C157.28 179.411 157.712 179.338 158.094 179.273C158.221 179.252 158.34 179.232 158.46 179.202C158.664 179.138 158.86 179.049 159.041 178.937C159.107 178.9 159.173 178.864 159.239 178.829C159.258 178.82 159.277 178.811 159.297 178.805C159.519 178.732 159.813 178.638 160.11 178.557C160.157 178.541 160.198 178.511 160.227 178.47C160.255 178.43 160.27 178.382 160.269 178.332C160.276 178.239 160.318 178.153 160.387 178.089C160.455 178.026 160.545 177.991 160.639 177.991H160.641C161.842 177.999 163.133 178.004 164.43 177.982C164.46 177.982 164.49 177.977 164.519 177.968C164.596 177.942 164.679 177.941 164.756 177.967C164.833 177.992 164.9 178.042 164.945 178.109C168.478 183.251 176.522 185.307 176.603 185.327L176.606 185.327C178.275 185.762 179.737 186.767 180.736 188.166C181.736 189.566 182.209 191.271 182.072 192.983C182.065 193.076 182.024 193.163 181.955 193.227C181.886 193.29 181.796 193.325 181.703 193.326ZM162.466 192.587H181.35C181.392 191.103 180.928 189.648 180.033 188.46C179.137 187.271 177.865 186.42 176.421 186.044C176.066 185.955 168.217 183.945 164.47 178.72L164.443 178.721C163.241 178.741 162.048 178.739 160.926 178.732C160.871 178.863 160.786 178.98 160.679 179.073C160.571 179.166 160.444 179.234 160.306 179.27C160.038 179.344 159.769 179.429 159.559 179.497C159.506 179.525 159.454 179.554 159.402 179.583C159.163 179.729 158.906 179.843 158.637 179.921C158.49 179.956 158.353 179.98 158.219 180.002C157.886 180.058 157.624 180.103 157.401 180.31C157.265 180.436 157.135 180.565 157.01 180.69C156.43 181.266 155.883 181.811 154.898 181.982C154.671 182.021 154.441 182.041 154.21 182.041C151.933 182.041 150.133 180.097 149.124 179.006C149.096 178.976 149.069 178.944 149.045 178.911C147.855 178.953 146.591 178.991 145.306 179.004L145.297 192.587H151.734L151.69 183.93C151.69 183.859 151.71 183.789 151.749 183.729C151.787 183.669 151.842 183.622 151.908 183.592C151.973 183.563 152.045 183.553 152.116 183.563C152.186 183.574 152.253 183.605 152.306 183.652L162.466 192.587Z" fill="#000091"/>
<path d="M165.524 141.24L165.532 178.428L160.978 178.446L149.219 178.478L142.682 178.501L142.538 145.054" fill="white"/>
<path d="M142.688 178.871C142.59 178.871 142.496 178.832 142.426 178.763C142.357 178.694 142.317 178.601 142.317 178.503L142.173 145.055C142.173 145.007 142.182 144.959 142.2 144.914C142.219 144.869 142.246 144.828 142.28 144.794C142.314 144.759 142.355 144.732 142.4 144.713C142.445 144.695 142.493 144.685 142.542 144.685H142.543C142.642 144.685 142.736 144.723 142.805 144.792C142.875 144.861 142.914 144.955 142.914 145.052L143.057 178.131L149.223 178.109L160.982 178.077L165.166 178.06L165.158 141.24C165.158 141.142 165.197 141.048 165.267 140.979C165.336 140.91 165.43 140.871 165.529 140.871C165.627 140.871 165.721 140.91 165.791 140.979C165.86 141.048 165.899 141.142 165.899 141.24L165.907 178.428C165.907 178.525 165.869 178.619 165.799 178.688C165.73 178.757 165.636 178.796 165.538 178.797L160.984 178.815L149.225 178.847L142.689 178.87L142.688 178.871Z" fill="#000091"/>
<path d="M108.059 185.686H107.75C107.21 185.698 106.673 185.605 106.169 185.411C105.665 185.216 105.205 184.925 104.815 184.553C104.425 184.181 104.112 183.736 103.895 183.244C103.678 182.752 103.561 182.221 103.55 181.684C103.414 181.653 86.1169 169.344 86.0768 169.31L75.0393 185.587L80.9956 189.585L86.437 181.222L93.8722 192.956H113.249C113.386 191.329 112.94 189.706 111.99 188.375C111.04 187.044 109.647 186.091 108.059 185.686Z" fill="white"/>
<path d="M113.254 193.325H93.8776C93.815 193.325 93.7534 193.31 93.6986 193.28C93.6438 193.249 93.5975 193.206 93.5641 193.153L86.4384 181.907L81.3122 189.786C81.2854 189.827 81.2507 189.863 81.21 189.89C81.1693 189.918 81.1235 189.937 81.0752 189.947C81.0269 189.957 80.9772 189.957 80.9289 189.948C80.8806 189.938 80.8347 189.919 80.7938 189.892L74.8375 185.893C74.7971 185.866 74.7625 185.832 74.7356 185.791C74.7087 185.751 74.6901 185.705 74.6808 185.658C74.6715 185.61 74.6717 185.561 74.6814 185.514C74.6911 185.466 74.7101 185.421 74.7374 185.381L85.7748 169.104C85.803 169.063 85.8394 169.027 85.8818 169C85.9242 168.973 85.9717 168.955 86.0215 168.947C86.0712 168.938 86.1221 168.94 86.1711 168.952C86.22 168.964 86.266 168.986 86.3061 169.017C86.517 169.17 103.043 180.933 103.726 181.356C103.786 181.386 103.836 181.432 103.871 181.489C103.907 181.546 103.926 181.611 103.927 181.678C103.95 182.668 104.367 183.609 105.086 184.294C105.439 184.632 105.856 184.897 106.313 185.072C106.769 185.248 107.257 185.331 107.746 185.317H108.064C108.095 185.317 108.127 185.321 108.157 185.329C109.826 185.763 111.288 186.768 112.288 188.168C113.287 189.568 113.76 191.273 113.624 192.985C113.617 193.077 113.575 193.164 113.506 193.227C113.438 193.29 113.348 193.325 113.254 193.325ZM94.0821 192.587H112.902C112.943 191.11 112.484 189.662 111.597 188.477C110.711 187.292 109.449 186.439 108.016 186.055H107.755C107.169 186.071 106.586 185.971 106.039 185.761C105.493 185.55 104.994 185.233 104.572 184.828C103.759 184.052 103.267 183.001 103.193 181.883C102.63 181.51 100.821 180.239 94.5672 175.799C91.9147 173.917 87.4282 170.727 86.1754 169.832L75.5595 185.488L80.8952 189.069L86.1313 181.021C86.1651 180.969 86.2116 180.927 86.2663 180.897C86.3211 180.868 86.3824 180.853 86.4446 180.853C86.5069 180.853 86.568 180.869 86.6224 180.899C86.6768 180.929 86.7228 180.973 86.756 181.025L94.0821 192.587Z" fill="#000091"/>
<path d="M155.222 118.553L145.422 111.417C139.913 107.407 133.266 105.244 126.441 105.242H114.849C111.667 105.243 108.616 106.502 106.366 108.742C104.116 110.982 102.851 114.019 102.85 117.187C102.85 117.191 102.85 117.194 102.85 117.198L102.838 117.199L102.047 145.519L85.3273 168.77L104.42 182.376L123.178 156.283" fill="white"/>
<path d="M104.425 182.745C104.348 182.745 104.272 182.721 104.209 182.676L85.1169 169.07C85.0773 169.042 85.0436 169.006 85.0179 168.965C84.9922 168.924 84.9748 168.878 84.9669 168.83C84.9589 168.783 84.9605 168.734 84.9716 168.687C84.9826 168.639 85.0029 168.595 85.0312 168.555L101.685 145.396L102.473 117.189C102.473 117.16 102.477 117.131 102.485 117.103C102.511 113.853 103.826 110.745 106.142 108.454C108.459 106.164 111.59 104.877 114.855 104.873H126.446C133.352 104.86 140.081 107.049 145.646 111.12L155.446 118.255C155.485 118.283 155.518 118.319 155.543 118.361C155.569 118.402 155.586 118.448 155.593 118.496C155.601 118.544 155.598 118.593 155.587 118.64C155.575 118.687 155.555 118.731 155.526 118.771C155.497 118.81 155.461 118.843 155.419 118.868C155.378 118.893 155.332 118.91 155.284 118.917C155.235 118.925 155.186 118.923 155.139 118.911C155.092 118.9 155.047 118.879 155.008 118.851L145.208 111.715C139.77 107.738 133.195 105.599 126.446 105.611H114.855C111.772 105.614 108.816 106.835 106.636 109.005C104.456 111.175 103.23 114.118 103.226 117.187C103.226 117.222 103.221 117.258 103.212 117.291L102.423 145.529C102.421 145.603 102.397 145.674 102.354 145.734L85.8499 168.685L104.339 181.861L122.882 156.069C122.939 155.989 123.026 155.935 123.123 155.919C123.22 155.903 123.32 155.926 123.4 155.983C123.48 156.04 123.534 156.127 123.55 156.223C123.566 156.32 123.543 156.419 123.485 156.498L104.727 182.591C104.692 182.639 104.647 182.678 104.595 182.705C104.542 182.732 104.484 182.745 104.425 182.745V182.745Z" fill="#000091"/>
<path d="M164.01 135.722C165.075 135.948 166.106 136.302 167.173 136.522C167.979 136.687 168.799 137.135 169.63 137.175C169.687 137.172 169.745 137.173 169.803 137.178C169.826 137.18 169.847 137.186 169.869 137.19C169.954 136.936 170.051 136.687 170.161 136.442C170.424 135.901 170.81 135.429 171.29 135.064C172.155 134.377 173.286 133.633 174.441 133.755C174.987 133.812 175.521 133.986 176.058 134.097C176.481 134.163 176.885 134.318 177.244 134.552L169.956 109.585C169.486 108.175 168.681 106.899 167.61 105.864C166.539 104.83 165.233 104.068 163.803 103.643C162.374 103.218 160.862 103.143 159.397 103.423C157.932 103.704 156.556 104.332 155.386 105.254L141.224 118.824L151.185 132.134L156.523 127.915L158.25 134.549C160.202 134.752 162.094 135.316 164.01 135.722Z" fill="#F9CFD2"/>
<path d="M151.403 142.255C150.757 140.523 151.309 138.305 152.511 136.945C153.219 136.146 154.295 135.564 155.254 135.122C156.255 134.66 157.323 134.318 158.437 134.32C159.616 134.321 160.795 134.653 161.926 134.954C163.182 135.288 164.429 135.639 165.695 135.937C166.877 136.215 168.009 136.598 169.172 136.931C169.395 137 169.622 137.05 169.853 137.083C169.868 137.04 169.887 136.999 169.91 136.959C169.957 136.875 170.013 136.797 170.077 136.725C170.923 135.541 171.791 134.329 173.269 133.898C174.348 133.584 175.316 133.845 176.21 134.334C175.994 134.129 175.766 133.937 175.527 133.759L147.129 112.918C145.783 112.203 144.281 111.827 142.755 111.824H120.56C113.801 111.824 109.303 118.774 112.096 124.901L118.534 139.011C119.552 141.231 121.19 143.112 123.251 144.431C125.313 145.751 127.711 146.453 130.162 146.454H158.316C157.802 146.278 152.989 146.509 151.403 142.255Z" fill="#F9CFD2"/>
<path d="M171.51 135.047C171.434 135.047 171.359 135.024 171.297 134.98C171.234 134.936 171.187 134.874 171.161 134.802C169.957 131.448 167.862 128.654 164.931 126.497L146.41 112.595C146.371 112.566 146.339 112.529 146.314 112.487C146.289 112.446 146.273 112.399 146.266 112.351C146.26 112.303 146.262 112.255 146.275 112.208C146.287 112.161 146.308 112.117 146.337 112.078C146.367 112.039 146.403 112.007 146.445 111.982C146.487 111.957 146.534 111.941 146.582 111.935C146.63 111.928 146.679 111.931 146.726 111.943C146.773 111.955 146.818 111.976 146.857 112.005L165.374 125.906C168.353 128.082 170.611 131.093 171.859 134.554C171.879 134.61 171.886 134.67 171.878 134.728C171.87 134.787 171.848 134.843 171.813 134.891C171.779 134.939 171.734 134.979 171.681 135.006C171.628 135.033 171.57 135.048 171.51 135.048V135.047Z" fill="#000091"/>
<path d="M169.831 137.056L158.774 134.484C157.304 134.14 155.434 134.369 154.276 135.333C150.567 138.422 150.272 141.804 152.435 144.092C153.105 144.794 153.956 145.3 154.894 145.556L162.529 147.578C162.884 149.583 163.938 151.399 165.504 152.707C167.07 154.016 169.05 154.733 171.095 154.733C171.223 154.733 171.35 154.731 171.477 154.725L184.927 150.22C185.143 150.089 185.344 149.936 185.528 149.763C187.006 148.468 187.998 146.712 188.343 144.783C188.688 142.853 188.365 140.864 187.427 139.141C186.49 137.418 184.992 136.062 183.18 135.296C181.368 134.53 179.349 134.399 177.452 134.923" fill="white"/>
<path d="M171.1 155.103C169.008 155.106 166.979 154.388 165.359 153.071C163.738 151.753 162.627 149.917 162.213 147.875L154.804 145.913C153.799 145.639 152.889 145.097 152.171 144.346C151.14 143.255 150.64 141.94 150.724 140.543C150.836 138.664 151.984 136.765 154.043 135.05C155.373 133.943 157.423 133.787 158.864 134.125L169.921 136.697C170.016 136.72 170.098 136.78 170.149 136.862C170.2 136.945 170.216 137.045 170.193 137.139C170.171 137.234 170.113 137.316 170.03 137.368C169.947 137.419 169.848 137.437 169.752 137.416L158.695 134.843C157.433 134.548 155.653 134.672 154.519 135.616C152.62 137.198 151.564 138.916 151.464 140.586C151.392 141.776 151.823 142.9 152.71 143.839C153.334 144.491 154.125 144.962 154.998 145.2L162.629 147.222C162.698 147.24 162.759 147.277 162.807 147.329C162.855 147.381 162.887 147.445 162.899 147.514C163.236 149.435 164.243 151.176 165.744 152.429C167.244 153.683 169.141 154.368 171.1 154.364C171.205 154.364 171.31 154.363 171.414 154.359L184.767 149.886L184.781 149.877C184.963 149.764 185.133 149.633 185.289 149.486C186.703 148.246 187.653 146.565 187.983 144.718C188.314 142.871 188.004 140.966 187.107 139.317C186.209 137.667 184.775 136.369 183.041 135.636C181.306 134.902 179.372 134.776 177.557 135.279C177.462 135.304 177.362 135.291 177.277 135.242C177.192 135.194 177.13 135.115 177.104 135.021C177.078 134.927 177.09 134.827 177.137 134.742C177.185 134.657 177.264 134.595 177.358 134.568C179.337 134.015 181.446 134.148 183.339 134.945C185.232 135.743 186.797 137.157 187.776 138.957C188.755 140.756 189.09 142.833 188.727 144.847C188.364 146.861 187.324 148.693 185.778 150.041C185.598 150.21 185.402 150.361 185.192 150.491L185.137 150.528C185.11 150.546 185.081 150.56 185.05 150.57L171.6 155.075C171.567 155.086 171.533 155.093 171.498 155.094C171.366 155.1 171.232 155.103 171.1 155.103Z" fill="#000091"/>
<path d="M173.461 143.255V144.867L182.359 144.412C183.015 144.378 183.659 144.591 184.165 145.008C184.671 145.425 185.001 146.015 185.09 146.663L185.522 149.763" fill="white"/>
<path d="M185.527 150.133C185.438 150.132 185.351 150.1 185.284 150.042C185.217 149.983 185.173 149.902 185.16 149.814L184.728 146.714C184.65 146.159 184.366 145.653 183.932 145.295C183.499 144.938 182.947 144.754 182.384 144.781L173.486 145.236C173.436 145.239 173.385 145.231 173.338 145.214C173.291 145.196 173.248 145.17 173.211 145.135C173.175 145.1 173.146 145.059 173.126 145.013C173.106 144.967 173.096 144.917 173.096 144.867V143.256C173.096 143.158 173.135 143.064 173.205 142.995C173.274 142.925 173.368 142.887 173.467 142.887C173.565 142.887 173.659 142.925 173.729 142.995C173.798 143.064 173.838 143.158 173.838 143.256V144.479L182.345 144.043C183.093 144.008 183.827 144.252 184.404 144.727C184.98 145.203 185.358 145.875 185.463 146.613L185.895 149.713C185.908 149.81 185.882 149.908 185.823 149.986C185.764 150.064 185.676 150.115 185.578 150.129C185.561 150.131 185.544 150.132 185.527 150.133Z" fill="#000091"/>
<path d="M169.596 138.519C169.597 137.546 169.9 136.596 170.464 135.8C171.027 135.004 171.823 134.4 172.744 134.071C173.665 133.742 174.665 133.704 175.608 133.963C176.551 134.221 177.392 134.762 178.014 135.513C178.637 136.264 179.011 137.188 179.087 138.159C179.162 139.13 178.935 140.101 178.436 140.938C177.937 141.776 177.191 142.44 176.299 142.839C175.407 143.239 174.412 143.354 173.452 143.171" fill="white"/>
<path d="M174.359 143.625C174.033 143.625 173.708 143.594 173.387 143.533C173.339 143.524 173.293 143.506 173.252 143.48C173.211 143.453 173.176 143.419 173.148 143.379C173.12 143.338 173.101 143.293 173.091 143.245C173.081 143.198 173.081 143.148 173.09 143.101C173.099 143.053 173.118 143.007 173.145 142.966C173.172 142.926 173.207 142.891 173.247 142.864C173.288 142.837 173.334 142.818 173.382 142.808C173.43 142.799 173.479 142.799 173.527 142.808C174.414 142.979 175.332 142.873 176.156 142.504C176.98 142.136 177.67 141.524 178.131 140.75C178.592 139.977 178.803 139.081 178.733 138.184C178.664 137.288 178.318 136.435 177.743 135.741C177.168 135.047 176.392 134.547 175.521 134.309C174.65 134.071 173.726 134.106 172.876 134.41C172.026 134.714 171.291 135.272 170.771 136.007C170.252 136.743 169.972 137.62 169.972 138.519C169.972 138.617 169.933 138.711 169.864 138.78C169.794 138.85 169.7 138.889 169.602 138.889C169.503 138.889 169.409 138.85 169.339 138.78C169.27 138.711 169.231 138.617 169.231 138.519C169.231 137.51 169.532 136.523 170.095 135.683C170.659 134.843 171.46 134.189 172.397 133.803C173.334 133.416 174.365 133.315 175.36 133.512C176.355 133.709 177.268 134.195 177.986 134.909C178.703 135.623 179.191 136.533 179.389 137.523C179.587 138.514 179.485 139.54 179.097 140.473C178.709 141.406 178.052 142.203 177.208 142.764C176.365 143.325 175.374 143.625 174.359 143.625Z" fill="#000091"/>
<path d="M169.692 151.621C169.621 151.621 169.551 151.601 169.492 151.563C169.432 151.525 169.384 151.471 169.355 151.407L169.206 151.087C168.861 150.325 168.712 149.491 168.773 148.658C168.833 147.825 169.101 147.02 169.552 146.316L170.048 145.563C170.075 145.522 170.11 145.487 170.15 145.46C170.19 145.433 170.235 145.414 170.283 145.404C170.331 145.394 170.38 145.394 170.428 145.403C170.475 145.412 170.521 145.43 170.562 145.457C170.602 145.483 170.638 145.518 170.665 145.558C170.692 145.598 170.712 145.643 170.721 145.69C170.731 145.738 170.732 145.787 170.723 145.834C170.714 145.882 170.695 145.927 170.668 145.968L170.174 146.718C169.79 147.317 169.562 148.003 169.511 148.711C169.46 149.42 169.587 150.131 169.88 150.779L170.028 151.097C170.054 151.154 170.066 151.215 170.062 151.277C170.057 151.339 170.038 151.399 170.004 151.451C169.971 151.503 169.925 151.546 169.87 151.576C169.815 151.606 169.754 151.621 169.692 151.621H169.692Z" fill="#000091"/>
<path d="M174.351 139.872C174.344 139.872 174.337 139.872 174.33 139.872C174.259 139.869 174.191 139.844 174.133 139.803C174.075 139.761 174.031 139.703 174.005 139.637L173.115 137.349C173.08 137.258 173.082 137.156 173.122 137.066C173.162 136.977 173.236 136.907 173.327 136.871C173.419 136.836 173.521 136.838 173.611 136.878C173.701 136.918 173.772 136.991 173.807 137.083L174.4 138.608L175.406 136.677C175.452 136.591 175.53 136.528 175.623 136.499C175.716 136.471 175.817 136.48 175.903 136.524C175.989 136.569 176.055 136.645 176.085 136.737C176.115 136.829 176.108 136.93 176.064 137.016L174.68 139.673C174.649 139.734 174.602 139.784 174.544 139.819C174.485 139.854 174.419 139.872 174.351 139.872Z" fill="#000091"/>
<path d="M163.035 169.574C162.955 169.574 162.878 169.549 162.814 169.502C162.75 169.455 162.703 169.389 162.68 169.313C162.657 169.238 162.658 169.157 162.685 169.082C162.711 169.008 162.76 168.944 162.826 168.899L171.938 162.736C171.979 162.709 172.024 162.69 172.071 162.68C172.119 162.67 172.168 162.67 172.216 162.679C172.264 162.688 172.31 162.706 172.35 162.733C172.391 162.759 172.426 162.794 172.453 162.834C172.481 162.874 172.5 162.919 172.51 162.966C172.52 163.014 172.52 163.063 172.511 163.11C172.502 163.158 172.483 163.203 172.456 163.244C172.43 163.284 172.395 163.319 172.355 163.346L163.243 169.51C163.181 169.551 163.109 169.574 163.035 169.574Z" fill="#000091"/>
<path d="M179.796 166.679C184.682 166.679 188.644 162.735 188.644 157.871C188.644 153.006 184.682 149.062 179.796 149.062C174.909 149.062 170.948 153.006 170.948 157.871C170.948 162.735 174.909 166.679 179.796 166.679Z" fill="white"/>
<path d="M179.801 167.048C177.978 167.048 176.196 166.51 174.68 165.501C173.164 164.493 171.982 163.06 171.284 161.383C170.587 159.706 170.404 157.861 170.76 156.08C171.115 154.3 171.993 152.665 173.283 151.381C174.572 150.098 176.215 149.224 178.003 148.87C179.791 148.516 181.645 148.697 183.329 149.392C185.014 150.087 186.453 151.263 187.466 152.772C188.479 154.281 189.02 156.056 189.02 157.871C189.017 160.304 188.045 162.637 186.317 164.357C184.589 166.078 182.245 167.045 179.801 167.048ZM179.801 149.431C178.125 149.431 176.486 149.926 175.092 150.854C173.697 151.781 172.611 153.099 171.969 154.641C171.328 156.183 171.16 157.88 171.487 159.517C171.814 161.154 172.621 162.658 173.807 163.838C174.992 165.018 176.503 165.822 178.147 166.148C179.792 166.474 181.496 166.306 183.045 165.668C184.594 165.029 185.918 163.947 186.85 162.559C187.781 161.172 188.279 159.54 188.279 157.871C188.276 155.633 187.382 153.488 185.793 151.906C184.204 150.324 182.049 149.434 179.801 149.431V149.431Z" fill="#000091"/>
<path d="M174.046 154.647C173.984 154.647 173.923 154.631 173.868 154.601C173.814 154.571 173.768 154.528 173.734 154.476C173.701 154.424 173.681 154.365 173.677 154.303C173.673 154.241 173.684 154.179 173.71 154.123C174.029 153.528 174.469 153.005 175.002 152.589C175.535 152.173 176.15 151.872 176.807 151.707C176.854 151.694 176.903 151.692 176.952 151.698C177 151.705 177.046 151.721 177.088 151.745C177.13 151.77 177.167 151.802 177.197 151.841C177.226 151.879 177.248 151.923 177.26 151.97C177.272 152.017 177.275 152.066 177.268 152.114C177.262 152.162 177.246 152.208 177.221 152.25C177.197 152.292 177.164 152.329 177.125 152.358C177.086 152.387 177.042 152.409 176.995 152.421C176.443 152.558 175.926 152.808 175.476 153.155C175.026 153.501 174.654 153.937 174.382 154.434C174.352 154.498 174.305 154.552 174.245 154.589C174.186 154.627 174.117 154.647 174.046 154.647Z" fill="#000091"/>
<path d="M165.407 173.912L164.777 171.993L164.752 171.986L164.764 171.981C163.566 169.816 162.021 167.675 160.711 166.457C160.34 166.113 159.932 165.707 159.488 165.264C156.959 162.717 153.744 160.955 150.23 160.191C146.716 159.427 143.055 159.693 139.691 160.958L144.597 165.202C143.831 167.294 142.459 173.445 144.214 174.404C145.169 174.931 146.544 174.843 147.974 174.701C148.61 176.39 149.199 177.737 149.589 178.636C149.904 179.37 150.463 179.973 151.171 180.346L152.753 181.183C153.166 181.4 153.618 181.532 154.084 181.571C154.549 181.611 155.017 181.558 155.462 181.414C155.906 181.271 156.317 181.04 156.67 180.736C157.023 180.432 157.311 180.061 157.518 179.644C157.99 179.725 158.473 179.708 158.937 179.593C159.402 179.479 159.837 179.271 160.217 178.981C160.529 178.745 160.8 178.458 161.017 178.132C161.514 178.245 162.03 178.247 162.529 178.139C163.027 178.03 163.495 177.814 163.899 177.505C164.974 176.693 165.679 175.216 165.407 173.912Z" fill="white"/>
<path d="M154.39 181.959C153.759 181.96 153.139 181.805 152.583 181.508L151.002 180.673C150.22 180.259 149.603 179.591 149.253 178.78L149.198 178.652C148.838 177.823 148.304 176.594 147.733 175.096C146.337 175.226 145.018 175.267 144.039 174.727C141.9 173.557 143.595 167.064 144.17 165.318L139.453 161.238C139.405 161.196 139.368 161.142 139.347 161.082C139.325 161.022 139.32 160.957 139.331 160.894C139.343 160.831 139.37 160.772 139.411 160.723C139.452 160.674 139.505 160.636 139.565 160.614C142.997 159.326 146.731 159.055 150.314 159.834C153.897 160.614 157.177 162.41 159.757 165.006C160.191 165.438 160.602 165.847 160.969 166.188C162.255 167.383 163.824 169.517 165.073 171.766C165.1 171.8 165.121 171.838 165.134 171.879L165.765 173.799C165.769 173.812 165.772 173.825 165.775 173.838C166.063 175.221 165.386 176.85 164.129 177.8C163.715 178.117 163.241 178.346 162.735 178.474C162.228 178.601 161.701 178.623 161.186 178.54C160.786 179.063 160.259 179.476 159.653 179.739C159.048 180.003 158.386 180.108 157.728 180.044C157.471 180.481 157.131 180.864 156.726 181.171C156.056 181.683 155.235 181.96 154.39 181.959ZM147.98 174.332C148.055 174.332 148.129 174.355 148.191 174.398C148.253 174.441 148.3 174.502 148.327 174.572C148.929 176.172 149.5 177.488 149.878 178.359L149.935 178.49C150.218 179.146 150.718 179.686 151.351 180.021L152.932 180.857C153.301 181.051 153.706 181.169 154.122 181.204C154.538 181.239 154.956 181.191 155.353 181.063C155.75 180.935 156.117 180.729 156.433 180.457C156.749 180.185 157.006 179.853 157.191 179.481C157.227 179.409 157.284 179.351 157.355 179.315C157.427 179.279 157.508 179.267 157.587 179.28C158.183 179.379 158.796 179.304 159.351 179.064C159.906 178.824 160.38 178.429 160.714 177.927C160.756 177.865 160.816 177.816 160.885 177.789C160.955 177.761 161.032 177.755 161.105 177.772C161.549 177.873 162.01 177.876 162.455 177.779C162.9 177.683 163.318 177.489 163.679 177.212C164.696 176.444 165.271 175.1 165.054 174.007L164.464 172.211C164.433 172.17 164.41 172.124 164.398 172.075C163.189 169.907 161.686 167.864 160.464 166.727C160.087 166.378 159.672 165.964 159.231 165.525C156.827 163.106 153.789 161.408 150.463 160.624C147.136 159.841 143.656 160.003 140.418 161.093L144.846 164.924C144.902 164.973 144.943 165.038 144.961 165.111C144.98 165.183 144.976 165.259 144.951 165.329C144.002 167.919 143.048 173.343 144.398 174.081C145.257 174.555 146.565 174.471 147.943 174.335C147.955 174.333 147.968 174.332 147.98 174.332V174.332Z" fill="#000091"/>
<path d="M153.554 177.308C153.481 177.308 153.409 177.286 153.348 177.245C153.286 177.204 153.239 177.146 153.211 177.078C151.841 173.741 150.071 172.414 149.006 172.591C148.867 172.623 148.737 172.685 148.624 172.771C148.511 172.858 148.418 172.968 148.351 173.093C148.233 173.293 148.16 173.517 148.137 173.748C148.115 173.978 148.143 174.212 148.219 174.431C148.235 174.476 148.242 174.525 148.239 174.573C148.237 174.622 148.224 174.669 148.203 174.713C148.182 174.756 148.152 174.795 148.116 174.828C148.08 174.86 148.037 174.885 147.991 174.901C147.945 174.917 147.897 174.924 147.848 174.921C147.8 174.918 147.752 174.906 147.708 174.885C147.664 174.864 147.625 174.834 147.593 174.798C147.56 174.762 147.535 174.72 147.519 174.674C147.407 174.352 147.367 174.011 147.401 173.672C147.435 173.333 147.542 173.006 147.716 172.713C147.837 172.495 148.005 172.305 148.207 172.158C148.41 172.011 148.642 171.91 148.888 171.862C150.173 171.646 152.26 172.81 153.897 176.799C153.92 176.855 153.929 176.916 153.923 176.976C153.917 177.037 153.896 177.094 153.862 177.145C153.828 177.195 153.782 177.236 153.728 177.265C153.675 177.293 153.615 177.308 153.554 177.308H153.554Z" fill="#000091"/>
<path d="M144.215 176.582L112.432 168.377C110.982 168.003 109.644 167.286 108.534 166.285C107.424 165.285 106.573 164.031 106.056 162.632C105.538 161.233 105.369 159.73 105.563 158.251C105.756 156.773 106.307 155.363 107.167 154.143L123.368 131.113L138.556 141.718L130.016 153.86L148.874 158.732L144.215 176.582Z" fill="#F9CFD2"/>
<path d="M102.058 149.21C101.96 149.21 101.865 149.171 101.796 149.102C101.726 149.033 101.687 148.939 101.687 148.841V145.519C101.687 145.421 101.726 145.328 101.796 145.258C101.865 145.189 101.96 145.15 102.058 145.15C102.156 145.15 102.251 145.189 102.32 145.258C102.39 145.328 102.429 145.421 102.429 145.519V148.841C102.429 148.939 102.39 149.033 102.32 149.102C102.251 149.171 102.156 149.21 102.058 149.21Z" fill="#000091"/>
<path d="M118.261 138.765C118.21 138.765 118.16 138.755 118.113 138.735C118.067 138.715 118.025 138.685 117.99 138.648C117.956 138.611 117.929 138.568 117.912 138.52C117.895 138.473 117.888 138.422 117.891 138.372L118.212 133.561C118.215 133.513 118.227 133.465 118.249 133.421C118.27 133.377 118.3 133.337 118.336 133.305C118.373 133.272 118.416 133.247 118.463 133.231C118.509 133.216 118.558 133.209 118.607 133.212C118.656 133.216 118.704 133.229 118.748 133.25C118.792 133.272 118.831 133.303 118.863 133.34C118.896 133.377 118.92 133.42 118.935 133.466C118.95 133.513 118.956 133.562 118.952 133.611L118.719 137.104L120.083 135.17C120.111 135.129 120.146 135.095 120.187 135.068C120.228 135.041 120.275 135.023 120.323 135.014C120.371 135.005 120.421 135.006 120.469 135.016C120.517 135.027 120.563 135.047 120.603 135.075C120.643 135.103 120.678 135.139 120.704 135.18C120.73 135.222 120.748 135.268 120.756 135.316C120.764 135.365 120.762 135.414 120.751 135.462C120.739 135.509 120.719 135.554 120.69 135.594L118.564 138.608C118.53 138.657 118.485 138.696 118.432 138.724C118.379 138.751 118.32 138.765 118.261 138.765Z" fill="#000091"/>
<path d="M128.093 156.249C128.024 156.248 127.957 156.229 127.899 156.193C127.84 156.157 127.793 156.106 127.763 156.045C127.732 155.984 127.719 155.915 127.725 155.847C127.731 155.779 127.756 155.714 127.796 155.659L136.381 144.167C136.44 144.091 136.527 144.04 136.624 144.027C136.72 144.013 136.818 144.038 136.896 144.096C136.974 144.154 137.026 144.24 137.041 144.336C137.056 144.431 137.033 144.529 136.976 144.608L128.391 156.1C128.356 156.146 128.311 156.183 128.26 156.209C128.208 156.235 128.151 156.249 128.093 156.249Z" fill="#000091"/>
<path d="M130.012 156.653C129.914 156.653 129.82 156.614 129.75 156.545C129.681 156.475 129.642 156.381 129.642 156.284V154.787L128.329 156.168C128.296 156.204 128.256 156.233 128.211 156.254C128.166 156.274 128.118 156.286 128.069 156.287C128.02 156.289 127.971 156.281 127.925 156.264C127.879 156.247 127.837 156.22 127.801 156.187C127.765 156.153 127.737 156.113 127.717 156.068C127.697 156.023 127.686 155.975 127.685 155.926C127.684 155.877 127.693 155.828 127.711 155.783C127.729 155.737 127.756 155.696 127.791 155.661L129.743 153.606C129.794 153.553 129.86 153.516 129.932 153.5C130.005 153.484 130.081 153.49 130.149 153.517C130.218 153.544 130.277 153.592 130.319 153.653C130.361 153.714 130.383 153.786 130.383 153.86V156.283C130.383 156.332 130.374 156.38 130.355 156.425C130.336 156.47 130.309 156.51 130.275 156.545C130.24 156.579 130.199 156.606 130.154 156.625C130.109 156.643 130.061 156.653 130.012 156.653Z" fill="#000091"/>
<path d="M177.658 163.138C177.645 163.138 177.632 163.137 177.619 163.136C177.563 163.13 177.51 163.111 177.462 163.082C177.415 163.052 177.374 163.012 177.345 162.965L174.239 158.044C174.212 158.003 174.193 157.957 174.185 157.909C174.176 157.861 174.177 157.811 174.187 157.763C174.198 157.715 174.218 157.67 174.246 157.63C174.274 157.59 174.31 157.556 174.352 157.53C174.394 157.504 174.44 157.486 174.489 157.478C174.537 157.47 174.587 157.472 174.635 157.483C174.683 157.495 174.728 157.515 174.768 157.544C174.807 157.573 174.841 157.61 174.867 157.652L177.722 162.176L183.185 156.606C183.219 156.57 183.259 156.542 183.304 156.522C183.349 156.503 183.397 156.492 183.446 156.491C183.496 156.49 183.544 156.499 183.59 156.517C183.636 156.535 183.677 156.562 183.712 156.596C183.747 156.63 183.775 156.671 183.795 156.716C183.814 156.761 183.824 156.809 183.824 156.858C183.824 156.907 183.815 156.955 183.796 157.001C183.777 157.046 183.75 157.087 183.715 157.121L177.924 163.026C177.889 163.062 177.848 163.09 177.802 163.109C177.757 163.128 177.708 163.138 177.658 163.138Z" fill="#000091"/>
<path d="M172.349 162.768C172.256 162.768 172.167 162.733 172.098 162.671C172.03 162.608 171.988 162.522 171.98 162.43C171.973 162.337 172 162.246 172.057 162.173C172.114 162.1 172.197 162.051 172.289 162.035L172.411 162.015C173.735 161.794 174.988 161.266 176.07 160.475L176.116 160.441C176.155 160.412 176.2 160.392 176.247 160.38C176.294 160.369 176.343 160.366 176.392 160.374C176.44 160.381 176.486 160.398 176.528 160.423C176.569 160.448 176.606 160.481 176.634 160.52C176.663 160.559 176.684 160.603 176.696 160.65C176.707 160.697 176.71 160.746 176.702 160.794C176.695 160.842 176.678 160.888 176.653 160.929C176.628 160.971 176.595 161.007 176.556 161.036L176.51 161.069C175.334 161.929 173.971 162.503 172.532 162.743L172.41 162.763C172.39 162.767 172.37 162.769 172.349 162.768Z" fill="#000091"/>
<path d="M182.281 159.229C182.013 159.235 181.745 159.215 181.481 159.171C181.386 159.15 181.302 159.093 181.249 159.012C181.195 158.931 181.176 158.832 181.195 158.737C181.215 158.642 181.271 158.558 181.352 158.504C181.433 158.449 181.532 158.429 181.628 158.447C181.65 158.452 183.458 158.779 186.506 157.525C187.16 157.254 187.754 156.857 188.253 156.356C188.323 156.288 188.417 156.249 188.515 156.25C188.613 156.25 188.706 156.289 188.776 156.358C188.845 156.427 188.884 156.52 188.884 156.617C188.885 156.715 188.846 156.808 188.778 156.878C188.21 157.447 187.534 157.899 186.789 158.206C184.698 159.067 183.15 159.229 182.281 159.229Z" fill="#000091"/>
<path d="M181.291 153.542C182.007 153.542 182.588 152.964 182.588 152.25C182.588 151.537 182.007 150.959 181.291 150.959C180.574 150.959 179.993 151.537 179.993 152.25C179.993 152.964 180.574 153.542 181.291 153.542Z" fill="#000091"/>
<path d="M273.246 193.25H27.2283C26.946 193.25 26.7484 193.098 26.7484 192.885C26.7484 192.672 26.946 192.52 27.2283 192.52H273.246C273.528 192.52 273.726 192.672 273.726 192.885C273.726 193.098 273.472 193.25 273.246 193.25Z" fill="#000091"/>
<path d="M230.327 193.04C230.24 193.027 230.161 192.98 230.107 192.908C230.054 192.836 230.03 192.746 230.041 192.657L234.485 155.417C234.496 155.325 234.543 155.241 234.614 155.184C234.686 155.126 234.777 155.1 234.867 155.11C234.957 155.121 235.039 155.167 235.095 155.24C235.151 155.312 235.176 155.404 235.165 155.496L230.721 192.735C230.715 192.781 230.701 192.825 230.679 192.865C230.657 192.905 230.627 192.94 230.592 192.968C230.557 192.997 230.516 193.018 230.473 193.031C230.429 193.043 230.384 193.047 230.339 193.042L230.327 193.04Z" fill="#000091"/>
<path d="M234.132 160.995C234.076 160.986 234.022 160.963 233.977 160.929C233.932 160.894 233.896 160.849 233.872 160.796L232.22 157.118C232.182 157.034 232.179 156.938 232.211 156.851C232.243 156.764 232.308 156.694 232.391 156.655C232.474 156.616 232.569 156.612 232.654 156.644C232.74 156.676 232.809 156.741 232.847 156.824L234.266 159.983L236.398 157.228C236.426 157.191 236.461 157.16 236.5 157.136C236.54 157.113 236.584 157.098 236.629 157.092C236.674 157.086 236.72 157.089 236.764 157.101C236.808 157.113 236.849 157.134 236.885 157.162C236.92 157.19 236.95 157.226 236.972 157.266C236.994 157.306 237.008 157.35 237.013 157.396C237.019 157.442 237.015 157.488 237.002 157.533C236.989 157.577 236.968 157.619 236.939 157.655L234.456 160.863C234.419 160.911 234.372 160.948 234.317 160.971C234.262 160.994 234.203 161.003 234.144 160.996L234.132 160.995Z" fill="#000091"/>
<path d="M233.716 164.48C233.659 164.471 233.606 164.449 233.56 164.414C233.515 164.379 233.479 164.333 233.455 164.28L231.074 158.919C231.056 158.877 231.045 158.832 231.044 158.786C231.043 158.74 231.05 158.694 231.066 158.651C231.082 158.608 231.106 158.569 231.138 158.535C231.169 158.501 231.206 158.474 231.247 158.455C231.289 158.436 231.333 158.425 231.379 158.424C231.424 158.422 231.469 158.429 231.511 158.446C231.554 158.462 231.592 158.486 231.625 158.517C231.658 158.549 231.684 158.586 231.703 158.628L233.85 163.464L237.094 159.243C237.122 159.205 237.156 159.173 237.196 159.148C237.235 159.124 237.279 159.108 237.325 159.101C237.371 159.094 237.417 159.097 237.462 159.109C237.506 159.121 237.548 159.142 237.584 159.17C237.621 159.199 237.651 159.234 237.673 159.275C237.696 159.316 237.71 159.361 237.714 159.407C237.719 159.454 237.715 159.501 237.701 159.545C237.688 159.59 237.666 159.632 237.636 159.668L234.04 164.348C234.003 164.396 233.955 164.433 233.901 164.457C233.846 164.48 233.786 164.489 233.727 164.482L233.716 164.48Z" fill="#000091"/>
<path d="M233.249 168.462C233.192 168.454 233.139 168.431 233.094 168.396C233.048 168.362 233.012 168.316 232.989 168.264L229.891 161.37C229.855 161.286 229.853 161.191 229.885 161.106C229.918 161.02 229.982 160.95 230.064 160.912C230.147 160.873 230.24 160.869 230.325 160.9C230.41 160.931 230.479 160.994 230.518 161.076L233.382 167.451L237.682 161.896C237.709 161.859 237.744 161.828 237.784 161.805C237.823 161.782 237.867 161.767 237.912 161.761C237.957 161.755 238.003 161.758 238.047 161.77C238.091 161.782 238.132 161.802 238.168 161.831C238.204 161.859 238.233 161.894 238.256 161.935C238.278 161.975 238.292 162.019 238.297 162.065C238.302 162.111 238.298 162.157 238.285 162.202C238.272 162.246 238.251 162.288 238.222 162.324L233.573 168.331C233.536 168.378 233.488 168.415 233.434 168.438C233.379 168.462 233.32 168.47 233.261 168.464L233.249 168.462Z" fill="#000091"/>
<path d="M232.791 172.298C232.734 172.289 232.681 172.267 232.636 172.232C232.591 172.198 232.555 172.152 232.531 172.1L228.87 163.959C228.85 163.918 228.839 163.872 228.837 163.826C228.835 163.78 228.842 163.734 228.858 163.69C228.873 163.647 228.897 163.607 228.929 163.572C228.96 163.538 228.997 163.511 229.039 163.491C229.08 163.472 229.125 163.461 229.171 163.459C229.217 163.457 229.262 163.465 229.305 163.481C229.347 163.497 229.386 163.522 229.419 163.554C229.452 163.586 229.479 163.624 229.497 163.666L232.925 171.287L238.073 164.647C238.129 164.574 238.212 164.527 238.303 164.515C238.393 164.504 238.485 164.529 238.556 164.586C238.628 164.643 238.674 164.726 238.685 164.818C238.695 164.91 238.669 165.002 238.613 165.075L233.115 172.167C233.078 172.214 233.03 172.251 232.976 172.275C232.921 172.298 232.861 172.306 232.803 172.3C232.799 172.299 232.795 172.299 232.791 172.298Z" fill="#000091"/>
<path d="M249.189 173.966L246.048 177.386L242.602 174.252C242.066 173.766 241.632 173.181 241.324 172.529C241.015 171.877 240.838 171.172 240.804 170.453C240.769 169.733 240.877 169.015 241.122 168.338C241.366 167.661 241.742 167.039 242.229 166.508L242.24 166.495L245.381 163.075L248.827 166.209C249.363 166.695 249.797 167.28 250.106 167.932C250.414 168.584 250.591 169.289 250.626 170.009C250.66 170.728 250.552 171.446 250.308 172.123C250.063 172.8 249.687 173.422 249.2 173.953L249.189 173.966Z" fill="white"/>
<path d="M246.143 177.71C246.087 177.726 246.027 177.728 245.97 177.715C245.913 177.702 245.86 177.674 245.817 177.635L242.37 174.501C241.222 173.46 240.536 172.009 240.461 170.467C240.387 168.926 240.931 167.419 241.974 166.28L241.986 166.267L245.127 162.847C245.188 162.781 245.272 162.741 245.362 162.737C245.452 162.734 245.54 162.765 245.606 162.826L249.053 165.96C250.201 167.001 250.887 168.452 250.962 169.994C251.036 171.535 250.492 173.041 249.449 174.181L249.437 174.194L246.296 177.614C246.255 177.659 246.202 177.692 246.143 177.71ZM245.4 163.552L242.478 166.733C242.021 167.232 241.668 167.816 241.438 168.451C241.208 169.086 241.107 169.761 241.139 170.436C241.172 171.111 241.337 171.773 241.627 172.385C241.917 172.997 242.324 173.546 242.827 174.002L246.023 176.909L248.947 173.725C249.868 172.718 250.349 171.386 250.284 170.024C250.218 168.661 249.611 167.378 248.596 166.458L245.4 163.552Z" fill="#000091"/>
<path d="M247.687 211.768C247.66 211.776 247.633 211.78 247.605 211.782C247.56 211.784 247.516 211.777 247.474 211.762C247.432 211.747 247.394 211.723 247.361 211.693C247.328 211.663 247.301 211.627 247.282 211.587C247.263 211.547 247.253 211.504 247.251 211.459L245.365 170.789C245.361 170.699 245.392 170.612 245.453 170.546C245.514 170.48 245.598 170.44 245.688 170.437C245.778 170.433 245.865 170.464 245.932 170.525C245.998 170.585 246.038 170.67 246.042 170.759L247.928 211.43C247.931 211.505 247.91 211.579 247.866 211.64C247.822 211.701 247.759 211.746 247.687 211.768Z" fill="#000091"/>
<path d="M245.492 163.404C245.465 163.412 245.438 163.417 245.41 163.418C245.366 163.42 245.321 163.413 245.279 163.398C245.237 163.383 245.199 163.36 245.166 163.33C245.133 163.3 245.106 163.264 245.087 163.224C245.068 163.184 245.058 163.14 245.056 163.096L244.884 159.406C244.88 159.316 244.912 159.229 244.973 159.163C245.033 159.097 245.118 159.058 245.208 159.054C245.297 159.05 245.385 159.081 245.452 159.142C245.518 159.202 245.558 159.287 245.562 159.376L245.733 163.066C245.737 163.141 245.715 163.215 245.671 163.277C245.628 163.338 245.565 163.383 245.492 163.404Z" fill="#000091"/>
<path d="M245.49 163.406C245.414 163.428 245.332 163.423 245.259 163.392C245.186 163.36 245.126 163.304 245.091 163.233L243.426 159.938C243.406 159.898 243.393 159.855 243.389 159.81C243.385 159.766 243.39 159.721 243.404 159.678C243.418 159.635 243.44 159.596 243.469 159.562C243.498 159.528 243.534 159.5 243.574 159.48C243.614 159.46 243.658 159.448 243.703 159.445C243.748 159.442 243.793 159.448 243.836 159.463C243.878 159.477 243.917 159.5 243.951 159.53C243.985 159.559 244.012 159.596 244.032 159.636L245.696 162.931C245.718 162.975 245.731 163.023 245.732 163.073C245.734 163.122 245.724 163.171 245.705 163.216C245.685 163.262 245.656 163.302 245.619 163.335C245.582 163.367 245.538 163.392 245.49 163.406Z" fill="#000091"/>
<path d="M245.49 163.404C245.428 163.423 245.363 163.423 245.302 163.406C245.24 163.389 245.185 163.355 245.142 163.308C245.099 163.262 245.07 163.204 245.058 163.141C245.047 163.079 245.053 163.014 245.076 162.955L246.446 159.526C246.481 159.445 246.546 159.382 246.627 159.349C246.709 159.316 246.8 159.315 246.882 159.348C246.964 159.381 247.03 159.443 247.066 159.523C247.102 159.603 247.106 159.694 247.076 159.776L245.708 163.206C245.689 163.253 245.659 163.296 245.622 163.33C245.584 163.365 245.539 163.39 245.49 163.404Z" fill="#000091"/>
<path d="M246.941 182.642C248.366 182.219 249.173 180.727 248.745 179.308C248.316 177.89 246.814 177.082 245.39 177.505C243.965 177.927 243.157 179.419 243.586 180.838C244.014 182.256 245.516 183.064 246.941 182.642Z" fill="white"/>
<path d="M247.035 182.965C246.461 183.136 245.848 183.132 245.274 182.956C244.701 182.78 244.192 182.439 243.813 181.975C243.433 181.512 243.2 180.948 243.143 180.353C243.085 179.759 243.206 179.162 243.49 178.637C243.774 178.112 244.209 177.683 244.738 177.404C245.268 177.126 245.869 177.01 246.466 177.072C247.063 177.133 247.629 177.369 248.092 177.75C248.554 178.131 248.894 178.64 249.066 179.212C249.297 179.979 249.213 180.805 248.832 181.509C248.451 182.212 247.805 182.736 247.035 182.965ZM245.484 177.828C245.038 177.961 244.642 178.221 244.346 178.578C244.049 178.934 243.866 179.371 243.82 179.831C243.773 180.292 243.865 180.757 244.083 181.166C244.302 181.576 244.637 181.912 245.047 182.133C245.457 182.353 245.923 182.448 246.387 182.405C246.85 182.362 247.29 182.183 247.651 181.891C248.011 181.599 248.277 181.207 248.413 180.765C248.549 180.322 248.55 179.849 248.416 179.405C248.236 178.81 247.826 178.31 247.276 178.014C246.726 177.719 246.082 177.652 245.484 177.828L245.484 177.828Z" fill="#000091"/>
<path d="M43.0241 221.632C42.9262 221.632 42.8321 221.595 42.7611 221.528C42.69 221.462 42.6474 221.371 42.642 221.275L37.9842 138.424C37.9803 138.325 38.016 138.228 38.0836 138.155C38.1512 138.081 38.2454 138.037 38.3457 138.032C38.4461 138.026 38.5446 138.06 38.6201 138.125C38.6955 138.191 38.7418 138.283 38.749 138.382L43.4069 221.233C43.4125 221.333 43.3776 221.431 43.3098 221.506C43.2421 221.58 43.1471 221.625 43.0457 221.631C43.0389 221.631 43.0312 221.632 43.0241 221.632Z" fill="#000091"/>
<path d="M43.5247 128.079C43.1607 128.027 42.7908 128.12 42.4963 128.338C42.2017 128.555 42.0068 128.878 41.9542 129.237C41.9977 128.882 41.898 128.524 41.6765 128.24C41.4549 127.956 41.1293 127.769 40.7696 127.72C40.4099 127.67 40.0448 127.762 39.753 127.975C39.4611 128.188 39.2658 128.506 39.2089 128.86L38.2002 135.734L36.336 129.036C36.2547 128.682 36.0342 128.374 35.7229 128.181C35.4116 127.987 35.0351 127.923 34.6761 128.003C34.3171 128.084 34.0052 128.301 33.8088 128.608C33.6124 128.915 33.5478 129.286 33.6291 129.64C33.6436 129.676 33.6522 129.715 33.6546 129.753C33.5618 129.403 33.3333 129.102 33.0181 128.916C32.7029 128.73 32.3262 128.674 31.9691 128.759C31.6137 128.85 31.3089 129.076 31.1202 129.386C30.9316 129.697 30.8742 130.069 30.9604 130.421C30.9604 130.433 30.9732 130.446 30.9732 130.459L31.2158 131.34L32.8502 137.282C33.1299 138.312 33.7076 139.238 34.5125 139.949C35.3174 140.66 36.3148 141.125 37.383 141.286V141.299C38.1596 141.398 38.9482 141.351 39.7069 141.16V141.147C40.7453 140.852 41.675 140.267 42.3841 139.463C43.0931 138.659 43.5513 137.67 43.7035 136.615L44.5718 130.521L44.6994 129.615C44.728 129.438 44.7201 129.256 44.6761 129.082C44.632 128.908 44.5528 128.744 44.4431 128.601C44.3335 128.457 44.1956 128.337 44.0378 128.248C43.88 128.158 43.7055 128.101 43.5247 128.079Z" fill="#F9CFD2"/>
<path d="M35.0629 135.23C34.9789 135.23 34.8971 135.203 34.8304 135.153C34.7636 135.102 34.7155 135.031 34.6936 134.951L33.2635 129.752C33.2369 129.655 33.2503 129.552 33.3009 129.465C33.3514 129.378 33.4349 129.315 33.533 129.288C33.631 129.262 33.7356 129.275 33.8237 129.325C33.9119 129.375 33.9763 129.457 34.0029 129.554L35.4325 134.754C35.459 134.851 35.4456 134.954 35.395 135.041C35.3445 135.128 35.261 135.191 35.1629 135.218C35.1303 135.226 35.0967 135.231 35.0629 135.23Z" fill="#000091"/>
<path d="M41.2138 134.852C41.1958 134.852 41.1777 134.851 41.1598 134.849C41.0592 134.835 40.9684 134.782 40.9073 134.702C40.8462 134.622 40.8199 134.521 40.8341 134.422L41.6002 129.084C41.6144 128.984 41.668 128.895 41.7492 128.835C41.8304 128.774 41.9325 128.749 42.0331 128.763C42.1337 128.777 42.2245 128.829 42.2856 128.909C42.3467 128.99 42.373 129.09 42.3588 129.189L41.5927 134.528C41.5798 134.618 41.5343 134.7 41.4647 134.76C41.3951 134.819 41.3061 134.852 41.2138 134.852Z" fill="#000091"/>
<path d="M38.9801 149.872C38.9254 149.872 38.8713 149.861 38.8215 149.839C38.7717 149.816 38.7273 149.784 38.6914 149.743L33.4435 143.813C33.3766 143.738 33.343 143.639 33.3499 143.539C33.3568 143.439 33.4037 143.346 33.4802 143.28C33.5568 143.214 33.6568 143.181 33.7582 143.188C33.8596 143.195 33.954 143.241 34.0209 143.316L39.2688 149.246C39.3171 149.301 39.3485 149.368 39.3592 149.44C39.3699 149.512 39.3594 149.585 39.3289 149.651C39.2985 149.717 39.2494 149.773 39.1876 149.812C39.1257 149.851 39.0537 149.872 38.9802 149.872L38.9801 149.872Z" fill="#000091"/>
<path d="M38.9755 149.872C38.9072 149.872 38.8402 149.854 38.7814 149.82C38.7226 149.786 38.6741 149.737 38.6409 149.678C38.6078 149.619 38.5912 149.553 38.5929 149.485C38.5946 149.418 38.6145 149.352 38.6505 149.295L42.8642 142.61C42.8904 142.567 42.925 142.53 42.966 142.501C43.0069 142.471 43.0533 142.45 43.1026 142.438C43.1519 142.427 43.203 142.425 43.2531 142.433C43.3031 142.441 43.351 142.459 43.394 142.485C43.4371 142.511 43.4744 142.546 43.5038 142.587C43.5332 142.627 43.5541 142.673 43.5653 142.722C43.5765 142.771 43.5778 142.821 43.5692 142.87C43.5605 142.92 43.542 142.967 43.5147 143.009L39.3011 149.694C39.2667 149.749 39.2187 149.794 39.1617 149.825C39.1048 149.856 39.0407 149.872 38.9755 149.872Z" fill="#000091"/>
<path d="M217.891 166.288C217.968 166.221 218.04 166.146 218.105 166.062L220.563 162.885C221.11 162.179 220.978 161.163 220.269 160.614C219.56 160.066 218.543 160.194 217.997 160.9L216.937 162.269L216.714 160.55C216.599 159.663 215.787 159.035 214.899 159.146C214.012 159.258 213.385 160.067 213.5 160.953L213.723 162.673L212.347 161.609C211.638 161.061 210.621 161.189 210.075 161.895C209.528 162.601 209.66 163.617 210.369 164.165L213.559 166.633C213.685 166.73 213.82 166.804 213.96 166.86C210.467 168.257 208.224 171.878 208.73 175.786C209.332 180.431 213.588 183.722 218.237 183.138C222.885 182.554 226.166 178.316 225.564 173.671C225.043 169.647 221.777 166.64 217.891 166.288Z" fill="white"/>
<path d="M218.283 183.471C213.458 184.077 209.025 180.648 208.4 175.828C207.913 172.067 209.886 168.45 213.246 166.811L210.167 164.43C209.313 163.769 209.154 162.54 209.812 161.689C210.131 161.277 210.592 161.014 211.11 160.949C211.628 160.884 212.141 161.024 212.555 161.344L213.289 161.912L213.17 160.995C213.032 159.926 213.789 158.948 214.859 158.813C215.928 158.679 216.911 159.439 217.05 160.508L217.169 161.425L217.734 160.694C218.053 160.282 218.514 160.019 219.032 159.954C219.55 159.889 220.063 160.029 220.477 160.35C221.331 161.01 221.49 162.24 220.832 163.09L218.553 166.035C220.294 166.322 221.933 167.134 223.223 168.36C224.689 169.753 225.64 171.624 225.9 173.629C226.525 178.45 223.108 182.865 218.283 183.471ZM211.196 161.614C210.856 161.657 210.553 161.829 210.343 162.1C209.911 162.659 210.015 163.466 210.577 163.9L213.767 166.368C213.862 166.442 213.97 166.502 214.085 166.548C214.213 166.598 214.298 166.721 214.299 166.858C214.3 166.996 214.217 167.119 214.089 167.17C210.655 168.544 208.589 172.07 209.066 175.744C209.643 180.198 213.739 183.366 218.197 182.806C222.655 182.246 225.812 178.167 225.235 173.713C224.746 169.947 221.647 166.964 217.865 166.622C217.731 166.61 217.617 166.519 217.575 166.392C217.533 166.264 217.571 166.124 217.672 166.036C217.736 165.98 217.793 165.92 217.842 165.856L220.301 162.679C220.51 162.409 220.601 162.072 220.557 161.732C220.513 161.392 220.339 161.089 220.068 160.879C219.796 160.668 219.459 160.576 219.118 160.619C218.778 160.662 218.475 160.835 218.265 161.105L217.206 162.475C217.123 162.582 216.983 162.628 216.852 162.592C216.721 162.556 216.625 162.445 216.607 162.311L216.384 160.591C216.293 159.889 215.648 159.39 214.945 159.478C214.242 159.566 213.745 160.209 213.836 160.911L214.059 162.631C214.076 162.766 214.011 162.897 213.893 162.964C213.775 163.031 213.629 163.021 213.521 162.938L212.145 161.874C211.873 161.663 211.536 161.571 211.196 161.614Z" fill="#000091"/>
<path d="M221.633 211.582C221.45 211.606 221.283 211.476 221.259 211.292L216.573 174.795C216.55 174.611 216.679 174.444 216.862 174.421C217.045 174.397 217.213 174.527 217.236 174.711L221.922 211.208C221.946 211.392 221.817 211.559 221.633 211.582Z" fill="#000091"/>
<path d="M205.568 193.007C205.385 193.036 205.212 192.911 205.182 192.727L203 179.297C202.97 179.113 203.095 178.941 203.279 178.911C203.463 178.882 203.636 179.007 203.666 179.19L205.847 192.621C205.877 192.805 205.752 192.977 205.568 193.007Z" fill="#000091"/>
<path d="M203.718 181.576C205.009 181.37 205.885 180.16 205.675 178.872C205.465 177.585 204.248 176.708 202.957 176.913C201.666 177.118 200.79 178.329 201 179.616C201.21 180.904 202.427 181.781 203.718 181.576Z" fill="#F9CFD2"/>
<path d="M51.8445 156.036C53.7717 156.036 55.334 154.478 55.334 152.557C55.334 150.635 53.7717 149.077 51.8445 149.077C49.9173 149.077 48.355 150.635 48.355 152.557C48.355 154.478 49.9173 156.036 51.8445 156.036Z" fill="white"/>
<path d="M51.8441 156.393C51.0833 156.393 50.3396 156.168 49.707 155.746C49.0743 155.325 48.5813 154.726 48.2901 154.025C47.999 153.324 47.9228 152.552 48.0712 151.808C48.2197 151.064 48.586 150.381 49.124 149.844C49.662 149.308 50.3474 148.942 51.0937 148.794C51.8399 148.646 52.6133 148.722 53.3162 149.012C54.0192 149.303 54.6199 149.794 55.0426 150.425C55.4653 151.056 55.6909 151.798 55.6909 152.557C55.6898 153.574 55.2841 154.549 54.563 155.268C53.8418 155.987 52.864 156.392 51.8441 156.393ZM51.8441 149.433C51.2246 149.433 50.619 149.616 50.104 149.959C49.5889 150.303 49.1874 150.791 48.9503 151.361C48.7133 151.932 48.6512 152.56 48.7721 153.166C48.8929 153.772 49.1913 154.328 49.6293 154.765C50.0674 155.202 50.6255 155.5 51.2331 155.62C51.8407 155.741 52.4704 155.679 53.0428 155.442C53.6151 155.206 54.1043 154.806 54.4485 154.292C54.7927 153.778 54.9764 153.174 54.9764 152.557C54.9754 151.728 54.6451 150.935 54.0579 150.349C53.4707 149.763 52.6746 149.434 51.8441 149.433Z" fill="#000091"/>
<path d="M55.5369 163.459C57.4641 163.459 59.0264 161.901 59.0264 159.979C59.0264 158.058 57.4641 156.5 55.5369 156.5C53.6097 156.5 52.0474 158.058 52.0474 159.979C52.0474 161.901 53.6097 163.459 55.5369 163.459Z" fill="white"/>
<path d="M55.5365 163.816C54.7757 163.816 54.0319 163.591 53.3993 163.169C52.7667 162.748 52.2737 162.148 51.9825 161.448C51.6914 160.747 51.6152 159.975 51.7636 159.231C51.912 158.487 52.2784 157.803 52.8164 157.267C53.3544 156.73 54.0398 156.365 54.786 156.217C55.5322 156.069 56.3057 156.145 57.0086 156.435C57.7115 156.726 58.3123 157.217 58.735 157.848C59.1577 158.479 59.3833 159.221 59.3833 159.98C59.3822 160.997 58.9765 161.972 58.2554 162.691C57.5342 163.41 56.5564 163.815 55.5365 163.816ZM55.5365 156.856C54.917 156.856 54.3114 157.039 53.7963 157.382C53.2812 157.726 52.8798 158.213 52.6427 158.784C52.4056 159.355 52.3436 159.983 52.4645 160.589C52.5853 161.195 52.8836 161.751 53.3217 162.188C53.7597 162.625 54.3179 162.923 54.9254 163.043C55.533 163.164 56.1628 163.102 56.7352 162.865C57.3075 162.629 57.7967 162.229 58.1409 161.715C58.485 161.201 58.6688 160.597 58.6688 159.98C58.6678 159.151 58.3375 158.357 57.7503 157.772C57.1631 157.186 56.3669 156.857 55.5365 156.856Z" fill="#000091"/>
<path d="M48.5755 163.649C50.5027 163.649 52.065 162.091 52.065 160.17C52.065 158.248 50.5027 156.69 48.5755 156.69C46.6483 156.69 45.0859 158.248 45.0859 160.17C45.0859 162.091 46.6483 163.649 48.5755 163.649Z" fill="white"/>
<path d="M48.5751 164.006C47.8143 164.006 47.0705 163.781 46.4379 163.359C45.8053 162.938 45.3123 162.339 45.0211 161.638C44.7299 160.937 44.6538 160.165 44.8022 159.421C44.9506 158.677 45.317 157.994 45.855 157.457C46.393 156.921 47.0784 156.555 47.8246 156.407C48.5708 156.259 49.3443 156.335 50.0472 156.625C50.7501 156.916 51.3509 157.408 51.7736 158.038C52.1963 158.669 52.4219 159.411 52.4219 160.17C52.4207 161.187 52.0151 162.162 51.2939 162.881C50.5727 163.6 49.595 164.005 48.5751 164.006ZM48.5751 157.046C47.9556 157.046 47.35 157.229 46.8349 157.572C46.3198 157.916 45.9184 158.404 45.6813 158.974C45.4442 159.545 45.3822 160.173 45.503 160.779C45.6239 161.385 45.9222 161.941 46.3603 162.378C46.7983 162.815 47.3564 163.113 47.964 163.233C48.5716 163.354 49.2014 163.292 49.7737 163.055C50.3461 162.819 50.8353 162.419 51.1794 161.905C51.5236 161.391 51.7073 160.787 51.7073 160.17C51.7064 159.341 51.3761 158.548 50.7889 157.962C50.2017 157.376 49.4055 157.047 48.5751 157.046Z" fill="#000091"/>
<path d="M55.7588 171.191C57.686 171.191 59.2483 169.633 59.2483 167.711C59.2483 165.789 57.686 164.231 55.7588 164.231C53.8316 164.231 52.2693 165.789 52.2693 167.711C52.2693 169.633 53.8316 171.191 55.7588 171.191Z" fill="white"/>
<path d="M55.7584 171.547C54.9976 171.547 54.2539 171.322 53.6213 170.901C52.9887 170.479 52.4956 169.88 52.2044 169.179C51.9133 168.478 51.8371 167.707 51.9855 166.963C52.134 166.219 52.5003 165.535 53.0383 164.999C53.5763 164.462 54.2618 164.097 55.008 163.949C55.7542 163.801 56.5276 163.877 57.2306 164.167C57.9335 164.457 58.5343 164.949 58.9569 165.58C59.3796 166.211 59.6053 166.952 59.6053 167.711C59.6041 168.728 59.1985 169.703 58.4773 170.422C57.7561 171.142 56.7783 171.546 55.7584 171.547ZM55.7584 164.588C55.1389 164.588 54.5334 164.771 54.0183 165.114C53.5032 165.457 53.1017 165.945 52.8646 166.516C52.6276 167.087 52.5655 167.715 52.6864 168.321C52.8072 168.926 53.1056 169.483 53.5436 169.92C53.9817 170.357 54.5398 170.654 55.1474 170.775C55.755 170.895 56.3848 170.833 56.9571 170.597C57.5294 170.36 58.0186 169.96 58.3628 169.446C58.707 168.933 58.8907 168.329 58.8907 167.711C58.8897 166.883 58.5594 166.089 57.9722 165.504C57.385 164.918 56.5889 164.589 55.7584 164.588Z" fill="#000091"/>
<path d="M48.7838 171.369C50.711 171.369 52.2734 169.811 52.2734 167.889C52.2734 165.967 50.711 164.409 48.7838 164.409C46.8566 164.409 45.2943 165.967 45.2943 167.889C45.2943 169.811 46.8566 171.369 48.7838 171.369Z" fill="white"/>
<path d="M48.7835 171.725C48.0226 171.725 47.2789 171.5 46.6463 171.079C46.0137 170.657 45.5206 170.058 45.2295 169.357C44.9383 168.656 44.8621 167.885 45.0106 167.141C45.159 166.397 45.5254 165.713 46.0634 165.177C46.6013 164.64 47.2868 164.275 48.033 164.127C48.7792 163.979 49.5527 164.055 50.2556 164.345C50.9585 164.635 51.5593 165.127 51.982 165.758C52.4047 166.389 52.6303 167.13 52.6303 167.889C52.6291 168.906 52.2234 169.881 51.5023 170.6C50.7811 171.32 49.8033 171.724 48.7835 171.725ZM48.7835 164.766C48.164 164.766 47.5584 164.949 47.0433 165.292C46.5282 165.635 46.1267 166.123 45.8897 166.694C45.6526 167.265 45.5906 167.893 45.7114 168.498C45.8323 169.104 46.1306 169.661 46.5686 170.098C47.0067 170.535 47.5648 170.832 48.1724 170.953C48.78 171.073 49.4098 171.011 49.9821 170.775C50.5545 170.538 51.0436 170.138 51.3878 169.624C51.732 169.111 51.9157 168.507 51.9157 167.889C51.9148 167.061 51.5844 166.267 50.9972 165.681C50.41 165.096 49.6139 164.766 48.7835 164.766Z" fill="#000091"/>
<path d="M53.2897 205.763C53.1966 205.763 53.1071 205.727 53.0404 205.662C52.9737 205.598 52.9349 205.509 52.9324 205.417L51.5397 154.203C51.5384 154.156 51.5464 154.11 51.5631 154.066C51.5799 154.022 51.6052 153.982 51.6374 153.948C51.7026 153.88 51.7924 153.84 51.8872 153.837C51.982 153.834 52.0739 153.87 52.1427 153.935C52.2115 154 52.2517 154.089 52.2543 154.184L53.647 205.397C53.6482 205.444 53.6403 205.491 53.6235 205.534C53.6067 205.578 53.5815 205.618 53.5492 205.652C53.5169 205.686 53.4783 205.713 53.4354 205.732C53.3926 205.751 53.3464 205.762 53.2995 205.763L53.2897 205.763Z" fill="#000091"/>
<path d="M196.48 185.973C197.371 185.973 198.093 185.241 198.093 184.337C198.093 183.434 197.371 182.701 196.48 182.701C195.589 182.701 194.866 183.434 194.866 184.337C194.866 185.241 195.589 185.973 196.48 185.973Z" fill="white"/>
<path d="M196.484 186.286C196.104 186.286 195.732 186.171 195.416 185.957C195.1 185.743 194.853 185.439 194.708 185.083C194.562 184.727 194.524 184.335 194.599 183.957C194.673 183.579 194.856 183.232 195.125 182.959C195.393 182.687 195.736 182.501 196.109 182.426C196.482 182.351 196.868 182.389 197.219 182.537C197.57 182.684 197.871 182.934 198.082 183.255C198.293 183.575 198.406 183.952 198.406 184.337C198.405 184.854 198.202 185.349 197.842 185.714C197.482 186.08 196.993 186.285 196.484 186.286ZM196.484 183.014C196.226 183.014 195.973 183.091 195.758 183.237C195.544 183.382 195.377 183.589 195.278 183.831C195.179 184.072 195.153 184.339 195.203 184.595C195.254 184.852 195.378 185.088 195.561 185.273C195.743 185.458 195.976 185.584 196.229 185.635C196.482 185.686 196.745 185.66 196.983 185.56C197.222 185.46 197.426 185.29 197.569 185.072C197.712 184.855 197.789 184.599 197.789 184.337C197.789 183.986 197.651 183.65 197.406 183.402C197.162 183.154 196.83 183.014 196.484 183.014Z" fill="#000091"/>
<path d="M191.576 187.588C192.28 187.588 192.85 187.01 192.85 186.296C192.85 185.582 192.28 185.004 191.576 185.004C190.872 185.004 190.301 185.582 190.301 186.296C190.301 187.01 190.872 187.588 191.576 187.588Z" fill="white"/>
<path d="M191.58 187.901C191.267 187.901 190.96 187.806 190.7 187.63C190.44 187.454 190.237 187.203 190.117 186.91C189.997 186.617 189.966 186.294 190.027 185.983C190.088 185.672 190.239 185.386 190.46 185.161C190.682 184.937 190.964 184.784 191.271 184.722C191.578 184.66 191.896 184.692 192.185 184.813C192.475 184.935 192.722 185.14 192.896 185.404C193.07 185.668 193.162 185.978 193.162 186.296C193.162 186.721 192.995 187.129 192.698 187.43C192.402 187.731 191.999 187.9 191.58 187.901ZM191.58 185.316C191.388 185.316 191.202 185.374 191.043 185.481C190.884 185.589 190.76 185.742 190.687 185.921C190.614 186.1 190.595 186.297 190.632 186.487C190.669 186.677 190.761 186.851 190.896 186.988C191.032 187.125 191.204 187.219 191.391 187.257C191.578 187.294 191.773 187.275 191.949 187.201C192.126 187.127 192.277 187.001 192.383 186.84C192.489 186.679 192.546 186.49 192.546 186.296C192.545 186.036 192.444 185.787 192.262 185.604C192.081 185.42 191.836 185.317 191.58 185.316Z" fill="#000091"/>
<path d="M194.105 193.111C194.057 193.111 194.01 193.1 193.967 193.078C193.924 193.056 193.887 193.025 193.858 192.987C193.83 192.948 193.81 192.903 193.801 192.855C193.793 192.808 193.795 192.759 193.808 192.712L196.193 184.251C196.204 184.211 196.222 184.174 196.247 184.142C196.272 184.109 196.304 184.082 196.339 184.062C196.375 184.042 196.414 184.029 196.454 184.024C196.495 184.019 196.535 184.022 196.575 184.034C196.614 184.045 196.65 184.064 196.682 184.09C196.714 184.116 196.741 184.148 196.76 184.184C196.78 184.22 196.792 184.26 196.797 184.301C196.801 184.342 196.797 184.383 196.786 184.423L194.401 192.884C194.383 192.949 194.344 193.007 194.29 193.048C194.237 193.089 194.172 193.111 194.105 193.111Z" fill="#000091"/>
<path d="M194.104 193.111C194.042 193.111 193.981 193.092 193.93 193.057C193.879 193.021 193.84 192.971 193.817 192.913L191.299 186.411C191.269 186.334 191.27 186.247 191.303 186.171C191.335 186.095 191.396 186.036 191.473 186.005C191.549 185.975 191.634 185.976 191.709 186.009C191.784 186.042 191.843 186.104 191.873 186.181L194.391 192.684C194.409 192.731 194.416 192.782 194.41 192.833C194.405 192.884 194.387 192.932 194.359 192.974C194.331 193.016 194.293 193.051 194.248 193.075C194.204 193.098 194.154 193.111 194.104 193.111H194.104Z" fill="#000091"/>
<path d="M76.6068 124.169C75.2901 122.561 75.1361 120.3 76.2228 118.529C77.2386 116.854 77.792 114.941 77.8268 112.985C77.9335 107.58 74.1049 102.963 68.9838 101.859L71.8854 98.969C72.5731 98.2841 72.5731 97.1738 71.8854 96.4889C71.1977 95.804 70.0829 95.804 69.3952 96.4889L68.0615 97.8172V95.9385C68.0615 94.9699 67.2732 94.1848 66.3007 94.1848C65.3281 94.1848 64.5398 94.9699 64.5398 95.9385V97.8179L63.2056 96.4893C62.5179 95.8044 61.4031 95.8044 60.7154 96.4893C60.0277 97.1742 60.0277 98.2845 60.7154 98.9693L63.7398 101.981C59.0078 103.234 55.4912 107.498 55.4193 112.613C55.3901 114.687 55.9414 116.727 57.0116 118.506C58.0858 120.286 57.9837 122.545 56.6555 124.151C54.7103 126.504 53.6734 129.473 53.7317 132.521C53.8532 139.419 59.51 145.037 66.438 145.134C73.558 145.236 79.4131 139.57 79.5155 132.479C79.5591 129.454 78.529 126.511 76.6068 124.169Z" fill="white"/>
<path d="M66.6256 145.499C66.5611 145.499 66.4968 145.498 66.432 145.497C62.9865 145.449 59.7342 144.078 57.2743 141.635C54.8147 139.194 53.4269 135.959 53.3664 132.527C53.3065 129.396 54.3743 126.339 56.3732 123.92C57.5764 122.465 57.7069 120.365 56.6983 118.693C55.5923 116.855 55.0238 114.751 55.054 112.608C55.1234 107.673 58.3793 103.317 63.0476 101.806L60.4571 99.2263C59.6284 98.401 59.6284 97.0581 60.4571 96.2327C61.2857 95.4075 62.6341 95.4075 63.4629 96.2327L64.1746 96.9416V95.9386C64.1746 94.7715 65.1281 93.8219 66.3 93.8219C67.472 93.8219 68.4255 94.7715 68.4255 95.9386V96.9408L69.1368 96.2324C69.9655 95.4071 71.3139 95.4071 72.1427 96.2324C72.9713 97.0576 72.9713 98.4005 72.1427 99.2259L69.6981 101.66C74.7589 103.055 78.2949 107.719 78.1909 112.992C78.1549 115.009 77.5821 116.989 76.5345 118.717C75.5292 120.355 75.6719 122.453 76.8887 123.939C78.8622 126.344 79.9244 129.379 79.8796 132.485C79.7751 139.7 73.8479 145.499 66.6256 145.499ZM61.9599 96.3396C61.6024 96.3396 61.2448 96.4751 60.9725 96.7462C60.4281 97.2884 60.4281 98.1706 60.9725 98.7128L63.9969 101.725C64.0891 101.817 64.1249 101.95 64.0912 102.076C64.0572 102.201 63.9588 102.299 63.8328 102.332C59.161 103.569 55.8509 107.799 55.7831 112.619C55.7549 114.626 56.2875 116.598 57.3235 118.32C58.4906 120.254 58.335 122.69 56.9361 124.382C55.0477 126.667 54.0388 129.555 54.0954 132.514C54.2128 139.179 59.7516 144.678 66.4423 144.771C66.5031 144.772 66.5647 144.773 66.6252 144.773C73.451 144.773 79.0516 139.293 79.1502 132.474C79.1926 129.54 78.1888 126.672 76.3239 124.399C76.3237 124.399 76.3237 124.399 76.3236 124.399C74.9114 122.674 74.7457 120.239 75.9112 118.34C76.8916 116.723 77.4281 114.869 77.4618 112.979C77.5634 107.832 73.9652 103.305 68.9061 102.214C68.7757 102.186 68.6712 102.089 68.6335 101.962C68.5958 101.834 68.6312 101.696 68.7255 101.602L71.6271 98.7127C71.8908 98.45 72.036 98.1008 72.036 97.7293C72.036 97.3579 71.8908 97.0087 71.6271 96.746C71.3634 96.4834 71.0126 96.3387 70.6397 96.3387C70.2667 96.3387 69.9162 96.4834 69.6523 96.746L68.3186 98.0743C68.2144 98.1781 68.0575 98.2092 67.9214 98.1529C67.7852 98.0968 67.6963 97.9644 67.6963 97.8174V95.9386C67.6963 95.1718 67.07 94.5481 66.3 94.5481C65.5301 94.5481 64.9038 95.1718 64.9038 95.9386V97.818C64.9038 97.9648 64.8149 98.0972 64.6787 98.1535C64.5425 98.2097 64.3857 98.1787 64.2815 98.0749L62.9473 96.7462C62.6751 96.4751 62.3175 96.3396 61.9599 96.3396Z" fill="#000091"/>
<path d="M66.6199 193.325C66.4186 193.325 66.2554 193.163 66.2554 192.962V115.127C66.2554 114.927 66.4186 114.764 66.6199 114.764C66.8213 114.764 66.9845 114.927 66.9845 115.127V192.962C66.9845 193.163 66.8213 193.325 66.6199 193.325Z" fill="#000091"/>
<path d="M66.6961 135.749C66.6035 135.749 66.5108 135.714 66.4397 135.644C66.2966 135.503 66.2954 135.273 66.4369 135.13L70.0412 131.502C70.1828 131.359 70.4137 131.358 70.5569 131.499C70.7 131.64 70.7012 131.87 70.5597 132.013L66.9553 135.641C66.8841 135.713 66.7902 135.749 66.6961 135.749Z" fill="#000091"/>
<path d="M66.5435 135.749C66.4502 135.749 66.3569 135.713 66.2858 135.642L62.6426 132.014C62.5002 131.872 62.5002 131.642 62.6426 131.5C62.785 131.359 63.0158 131.359 63.1582 131.5L66.8014 135.129C66.9438 135.271 66.9438 135.5 66.8014 135.642C66.7302 135.713 66.6369 135.749 66.5435 135.749Z" fill="#000091"/>
<path d="M66.6961 130.735C66.6034 130.735 66.5108 130.7 66.4397 130.629C66.2965 130.488 66.2953 130.259 66.437 130.116L70.0414 126.489C70.1829 126.346 70.4138 126.345 70.557 126.486C70.7001 126.627 70.7013 126.857 70.5596 127L66.9553 130.627C66.884 130.699 66.79 130.735 66.6961 130.735Z" fill="#000091"/>
<path d="M66.5436 130.735C66.4502 130.735 66.357 130.699 66.2858 130.628L62.6426 127.001C62.5002 126.859 62.5002 126.63 62.6425 126.488C62.7849 126.346 63.0157 126.346 63.1581 126.488L66.8013 130.115C66.9437 130.256 66.9437 130.486 66.8014 130.628C66.7302 130.699 66.6369 130.735 66.5436 130.735Z" fill="#000091"/>
<path d="M66.6961 125.722C66.6035 125.722 66.5108 125.687 66.4397 125.617C66.2966 125.476 66.2954 125.246 66.4369 125.103L70.0412 121.475C70.1828 121.333 70.4137 121.331 70.5569 121.472C70.7 121.613 70.7012 121.843 70.5597 121.986L66.9553 125.614C66.8841 125.686 66.7902 125.722 66.6961 125.722Z" fill="#000091"/>
<path d="M66.5435 125.722C66.4502 125.722 66.3569 125.686 66.2858 125.616L62.6426 121.987C62.5002 121.845 62.5002 121.616 62.6426 121.474C62.785 121.332 63.0158 121.332 63.1582 121.474L66.8014 125.102C66.9438 125.244 66.9438 125.474 66.8014 125.616C66.7302 125.686 66.6369 125.722 66.5435 125.722Z" fill="#000091"/>
<path d="M66.6961 120.708C66.6035 120.708 66.5108 120.673 66.4397 120.603C66.2966 120.462 66.2954 120.232 66.4369 120.089L70.0412 116.461C70.1828 116.318 70.4137 116.317 70.5569 116.458C70.7 116.599 70.7012 116.829 70.5597 116.972L66.9553 120.6C66.8841 120.672 66.7902 120.708 66.6961 120.708Z" fill="#000091"/>
<path d="M66.5435 120.708C66.4502 120.708 66.3569 120.672 66.2858 120.602L62.6426 116.973C62.5002 116.831 62.5002 116.602 62.6426 116.46C62.785 116.318 63.0158 116.318 63.1582 116.46L66.8014 120.088C66.9438 120.23 66.9438 120.46 66.8014 120.602C66.7302 120.672 66.6369 120.708 66.5435 120.708Z" fill="#000091"/>
<path d="M33.4001 193.176C33.3915 193.178 33.383 193.179 33.3744 193.18C33.2719 193.191 33.169 193.16 33.0883 193.095C33.0076 193.03 32.9557 192.935 32.9441 192.831L30.7206 173.038C30.7107 172.935 30.7411 172.833 30.8053 172.753C30.8696 172.673 30.9625 172.623 31.064 172.612C31.1656 172.601 31.2675 172.631 31.3479 172.695C31.4283 172.759 31.4806 172.852 31.4936 172.955L33.717 192.748C33.7281 192.847 33.7015 192.946 33.6427 193.026C33.5838 193.105 33.4971 193.159 33.4001 193.176Z" fill="#000091"/>
<path d="M30.7393 169.224C30.6622 169.237 30.5827 169.227 30.5111 169.195C30.4394 169.163 30.379 169.109 30.3376 169.042C30.2962 168.975 30.2757 168.897 30.2789 168.818C30.2821 168.739 30.3087 168.664 30.3553 168.601L31.964 166.426C32.0257 166.343 32.118 166.288 32.2205 166.273C32.3231 166.258 32.4275 166.285 32.5108 166.348C32.5941 166.41 32.6495 166.504 32.6648 166.607C32.6801 166.71 32.654 166.815 32.5923 166.898L30.9836 169.073C30.9246 169.153 30.8372 169.207 30.7393 169.224Z" fill="#000091"/>
<path d="M30.7364 169.226C30.6796 169.236 30.6213 169.234 30.5656 169.218C30.5099 169.203 30.4581 169.175 30.4141 169.138L28.3541 167.37C28.315 167.336 28.2827 167.295 28.2592 167.249C28.2357 167.203 28.2215 167.153 28.2172 167.102C28.2086 166.998 28.2414 166.895 28.3084 166.816C28.3754 166.737 28.471 166.688 28.5743 166.68C28.6775 166.672 28.78 166.706 28.8591 166.773L30.1673 167.896L29.9834 166.27C29.9769 166.218 29.9806 166.166 29.9943 166.116C30.0081 166.066 30.0316 166.019 30.0636 165.978C30.0956 165.937 30.1353 165.903 30.1806 165.878C30.2258 165.853 30.2756 165.837 30.3271 165.832C30.3785 165.826 30.4306 165.831 30.4803 165.846C30.5301 165.861 30.5764 165.886 30.6167 165.919C30.6569 165.952 30.6903 165.992 30.7149 166.038C30.7395 166.084 30.7547 166.135 30.7598 166.187L31.0548 168.797C31.0659 168.896 31.0392 168.995 30.9801 169.075C30.9209 169.155 30.8338 169.209 30.7363 169.226L30.7364 169.226Z" fill="#000091"/>
<path d="M34.5133 173.106L34.3786 171.918C34.2591 170.88 34.5009 169.835 35.063 168.961L35.4758 168.316L25.8208 169.347L26.3683 169.89C27.1121 170.622 27.581 171.589 27.6945 172.627L27.8291 173.815C27.8789 174.256 28.0144 174.683 28.228 175.072C28.4416 175.461 28.7291 175.805 29.074 176.083C29.4189 176.361 29.8145 176.569 30.2381 176.693C30.6618 176.818 31.1053 176.858 31.5432 176.811C31.9818 176.766 32.4068 176.635 32.7937 176.425C33.1807 176.214 33.5219 175.928 33.7979 175.584C34.0739 175.24 34.2792 174.844 34.402 174.418C34.5247 173.993 34.5626 173.547 34.5133 173.106Z" fill="#F9CFD2"/>
<path d="M269.264 142.402C268.053 140.924 267.912 138.845 268.911 137.218C269.845 135.678 270.354 133.919 270.386 132.121C270.484 127.152 266.964 122.908 262.254 121.892L264.923 119.236C265.555 118.606 265.555 117.586 264.923 116.956C264.29 116.326 263.265 116.326 262.633 116.956L261.406 118.177V116.45C261.406 115.56 260.681 114.838 259.787 114.838C258.892 114.838 258.168 115.56 258.168 116.45V118.178L256.941 116.956C256.308 116.327 255.283 116.327 254.651 116.956C254.018 117.586 254.018 118.607 254.651 119.236L257.432 122.005C253.08 123.157 249.846 127.076 249.78 131.779C249.754 133.685 250.261 135.561 251.245 137.196C252.232 138.833 252.139 140.909 250.917 142.386C249.128 144.549 248.175 147.278 248.228 150.08C248.34 156.422 253.542 161.587 259.913 161.676C266.461 161.769 271.845 156.561 271.939 150.042C271.979 147.261 271.032 144.556 269.264 142.402Z" fill="#F9CFD2"/>
<path d="M260.081 205.978C259.896 205.978 259.746 205.828 259.746 205.644V134.09C259.746 133.906 259.896 133.756 260.081 133.756C260.266 133.756 260.416 133.906 260.416 134.09V205.644C260.416 205.828 260.266 205.978 260.081 205.978Z" fill="#000091"/>
<path d="M260.157 153.047C260.072 153.047 259.987 153.015 259.921 152.951C259.79 152.821 259.789 152.61 259.919 152.479L263.233 149.143C263.364 149.012 263.576 149.011 263.707 149.141C263.839 149.27 263.84 149.482 263.71 149.613L260.396 152.948C260.33 153.014 260.244 153.047 260.157 153.047Z" fill="#000091"/>
<path d="M260.01 153.048C259.924 153.048 259.838 153.015 259.773 152.95L256.422 149.614C256.291 149.484 256.291 149.273 256.422 149.142C256.553 149.012 256.766 149.012 256.897 149.142L260.247 152.478C260.378 152.608 260.378 152.819 260.247 152.95C260.181 153.015 260.096 153.048 260.01 153.048Z" fill="#000091"/>
<path d="M260.157 148.438C260.072 148.438 259.987 148.406 259.921 148.342C259.79 148.212 259.789 148.001 259.919 147.869L263.233 144.535C263.364 144.404 263.576 144.403 263.708 144.533C263.839 144.662 263.84 144.874 263.71 145.005L260.396 148.339C260.33 148.405 260.244 148.438 260.157 148.438Z" fill="#000091"/>
<path d="M260.01 148.438C259.924 148.438 259.838 148.405 259.773 148.34L256.422 145.006C256.291 144.876 256.291 144.664 256.422 144.534C256.553 144.403 256.766 144.403 256.897 144.534L260.247 147.868C260.378 147.998 260.378 148.21 260.247 148.34C260.181 148.405 260.096 148.438 260.01 148.438Z" fill="#000091"/>
<path d="M260.157 143.829C260.072 143.829 259.987 143.797 259.921 143.733C259.79 143.603 259.789 143.392 259.919 143.261L263.233 139.925C263.364 139.794 263.576 139.793 263.707 139.923C263.839 140.052 263.84 140.264 263.71 140.395L260.396 143.73C260.33 143.796 260.244 143.829 260.157 143.829Z" fill="#000091"/>
<path d="M260.01 143.83C259.924 143.83 259.838 143.797 259.773 143.732L256.422 140.396C256.291 140.266 256.291 140.055 256.422 139.924C256.553 139.794 256.766 139.794 256.897 139.924L260.247 143.26C260.378 143.39 260.378 143.601 260.247 143.732C260.181 143.797 260.096 143.83 260.01 143.83Z" fill="#000091"/>
<path d="M260.157 139.22C260.072 139.22 259.987 139.188 259.921 139.124C259.79 138.994 259.789 138.783 259.919 138.652L263.233 135.316C263.364 135.185 263.576 135.184 263.707 135.313C263.839 135.443 263.84 135.654 263.71 135.786L260.396 139.121C260.33 139.187 260.244 139.22 260.157 139.22Z" fill="#000091"/>
<path d="M260.01 139.22C259.924 139.22 259.838 139.188 259.773 139.122L256.422 135.787C256.291 135.656 256.291 135.445 256.422 135.315C256.553 135.184 256.766 135.184 256.897 135.315L260.247 138.65C260.378 138.781 260.378 138.992 260.247 139.122C260.181 139.188 260.096 139.22 260.01 139.22Z" fill="#000091"/>
<path d="M218.729 81.4462C218.653 81.4549 217.223 81.098 216.997 81.0295L219.448 76.2501C219.471 76.2062 219.505 76.1694 219.547 76.1436C219.59 76.1179 219.638 76.1043 219.688 76.1042H219.692C219.742 76.1049 219.791 76.1195 219.833 76.1465C219.876 76.1734 219.909 76.2116 219.931 76.2567L221.177 78.8621C221.18 78.8674 221.182 78.8727 221.184 78.878C221.382 79.3731 221.353 79.9251 221.207 80.4656C221.173 80.4825 219.55 81.3524 218.729 81.4462Z" fill="white"/>
<path d="M218.749 81.7408C218.504 81.7408 216.926 81.3168 216.911 81.3124C216.869 81.2998 216.831 81.2783 216.799 81.2494C216.766 81.2205 216.741 81.1849 216.724 81.1452C216.706 81.1054 216.698 81.0625 216.7 81.0193C216.701 80.9761 216.712 80.9337 216.732 80.8952L219.184 76.1158C219.232 76.0221 219.306 75.9437 219.396 75.8894C219.487 75.835 219.591 75.807 219.697 75.8084C219.803 75.8099 219.907 75.8408 219.996 75.8975C220.085 75.9543 220.157 76.0348 220.202 76.1297L221.448 78.7353C221.453 78.7452 221.458 78.7555 221.462 78.7657C221.666 79.2771 221.677 79.8737 221.496 80.5421C221.486 80.5822 221.467 80.6196 221.44 80.6519C221.414 80.6842 221.381 80.7106 221.344 80.7295L221.335 80.7343C220.929 80.9478 219.545 81.6514 218.765 81.7401C218.76 81.7406 218.754 81.7409 218.749 81.7408ZM217.43 80.8392C217.876 80.9536 218.568 81.1212 218.727 81.1484C219.249 81.0767 220.194 80.6575 220.951 80.2653C221.066 79.7741 221.051 79.3446 220.908 78.987L219.689 76.4368L217.43 80.8392Z" fill="#000091"/>
<path d="M221.625 83.2384L225.762 81.7593C225.87 81.7219 225.986 81.7149 226.097 81.7393C226.208 81.7638 226.31 81.8185 226.392 81.8974C226.474 81.9763 226.532 82.0763 226.559 82.1861C226.586 82.2958 226.582 82.411 226.548 82.5186C226.517 82.6064 226.467 82.6864 226.402 82.7529C226.337 82.8194 226.257 82.8707 226.17 82.9032L225.175 83.2483L226.021 83.3863C226.18 83.4112 226.323 83.4979 226.418 83.6273C226.513 83.7568 226.553 83.9184 226.528 84.0766C226.503 84.2348 226.415 84.3767 226.285 84.471C226.154 84.5653 225.991 84.6044 225.832 84.5795L223.115 84.153" fill="white"/>
<path d="M225.926 84.8828C225.878 84.8828 225.83 84.8791 225.782 84.8717L223.065 84.4451C222.988 84.4321 222.918 84.3893 222.873 84.3261C222.827 84.2628 222.808 84.1842 222.82 84.1073C222.832 84.0303 222.875 83.9613 222.938 83.9152C223.001 83.869 223.08 83.8495 223.158 83.8608L225.875 84.2872C225.923 84.2947 225.972 84.2912 226.018 84.2769C226.065 84.2626 226.107 84.238 226.142 84.2049C226.184 84.1663 226.214 84.1167 226.228 84.062C226.242 84.0073 226.24 83.9497 226.222 83.8961C226.205 83.8397 226.173 83.7893 226.128 83.7507C226.083 83.7122 226.029 83.6871 225.97 83.6784L225.124 83.5404C225.058 83.5296 224.998 83.4976 224.953 83.4494C224.908 83.4011 224.881 83.3394 224.875 83.274C224.87 83.2085 224.886 83.1431 224.922 83.0879C224.958 83.0328 225.011 82.991 225.074 82.9693L226.063 82.6261C226.108 82.6089 226.15 82.5821 226.184 82.5474C226.219 82.5128 226.245 82.4711 226.261 82.4253C226.28 82.371 226.282 82.3125 226.269 82.2568C226.255 82.2011 226.225 82.1505 226.183 82.1111C226.141 82.0695 226.089 82.0404 226.031 82.0275C225.974 82.0146 225.914 82.0184 225.859 82.0384L221.723 83.5166C221.686 83.5303 221.646 83.5365 221.607 83.535C221.568 83.5335 221.529 83.5242 221.493 83.5078C221.457 83.4913 221.425 83.468 221.399 83.4392C221.372 83.4103 221.351 83.3765 221.338 83.3397C221.325 83.3029 221.319 83.2639 221.321 83.2248C221.323 83.1858 221.332 83.1475 221.349 83.1122C221.366 83.0768 221.39 83.0452 221.419 83.0191C221.449 82.993 221.483 82.9729 221.52 82.9601L225.658 81.4809C225.818 81.4245 225.991 81.4137 226.157 81.4499C226.323 81.486 226.476 81.5676 226.598 81.6854C226.72 81.8031 226.806 81.9524 226.846 82.1162C226.887 82.2801 226.881 82.4519 226.828 82.6123C226.785 82.736 226.717 82.8494 226.627 82.9449C226.537 83.0405 226.428 83.116 226.306 83.1665C226.422 83.2197 226.526 83.2967 226.61 83.3924C226.693 83.488 226.756 83.6002 226.793 83.7215C226.844 83.8812 226.848 84.0517 226.805 84.2136C226.762 84.3754 226.674 84.5221 226.551 84.6366C226.382 84.7945 226.158 84.8825 225.926 84.8828Z" fill="#000091"/>
<path d="M213.698 82.0944L211.351 82.3212L213.648 83.2383L213.698 82.0944Z" fill="#000091"/>
<path d="M214.735 84.2441C215.16 84.438 215.517 84.754 215.759 85.1513C216.027 85.5809 216.382 85.9504 216.803 86.236C218.304 87.2813 220.362 87.015 221.625 85.6937L223.106 84.1356L218.662 81.2957C218.135 81.0954 217.65 80.8013 217.23 80.4279C216.825 80.0755 216.309 79.874 215.77 79.8581C215.231 79.8421 214.704 80.0126 214.278 80.3404C213.852 80.6682 213.555 81.1328 213.437 81.6544C213.319 82.176 213.387 82.7221 213.631 83.1988C213.872 83.6591 214.26 84.0269 214.735 84.2441Z" fill="white"/>
<path d="M218.866 87.1692C218.068 87.1725 217.289 86.9312 216.634 86.4783C216.181 86.1703 215.797 85.7715 215.508 85.3077C215.298 84.9608 214.987 84.6845 214.617 84.5148L214.614 84.5133C214.079 84.2691 213.642 83.8555 213.371 83.3376C213.093 82.7995 213.014 82.1823 213.146 81.5923C213.278 81.0023 213.613 80.4765 214.094 80.1055C214.575 79.7345 215.172 79.5416 215.781 79.56C216.39 79.5784 216.973 79.8069 217.431 80.2062C217.824 80.5555 218.278 80.8308 218.77 81.0186C218.79 81.026 218.809 81.0354 218.826 81.0467L223.27 83.8866C223.307 83.9102 223.338 83.9414 223.362 83.9782C223.385 84.015 223.4 84.0565 223.405 84.0996C223.41 84.1427 223.406 84.1864 223.392 84.2277C223.379 84.2689 223.356 84.3067 223.326 84.3383L221.844 85.8963C221.461 86.2977 220.999 86.6176 220.487 86.8364C219.975 87.0553 219.424 87.1685 218.866 87.1692ZM214.859 83.9743C215.339 84.1919 215.741 84.5474 216.014 84.9946C216.26 85.3898 216.587 85.7295 216.974 85.9917C218.33 86.9361 220.236 86.7195 221.411 85.4903L222.646 84.1917L218.529 81.5611C217.981 81.3482 217.475 81.0396 217.036 80.65C216.682 80.3434 216.233 80.1682 215.764 80.1543C215.295 80.1404 214.835 80.2888 214.465 80.574C214.094 80.8592 213.834 81.2634 213.731 81.7175C213.628 82.1715 213.687 82.647 213.899 83.0625C214.108 83.4637 214.446 83.7844 214.86 83.9743H214.859Z" fill="#000091"/>
<path d="M214.916 82.9819C215.245 82.9819 215.512 82.717 215.512 82.3902C215.512 82.0634 215.245 81.7986 214.916 81.7986C214.586 81.7986 214.319 82.0634 214.319 82.3902C214.319 82.717 214.586 82.9819 214.916 82.9819Z" fill="#000091"/>
<path d="M216.66 83.6492C216.573 83.5845 216.494 83.5094 216.426 83.4256C216.42 83.4183 216.415 83.4108 216.41 83.4031C216.203 83.07 216.133 82.6707 216.214 82.2876C216.268 82.0493 216.23 81.7995 216.107 81.5875C216.091 81.5654 216.078 81.5434 216.063 81.5214C216.055 81.5086 216.048 81.4957 216.038 81.483C216.033 81.4768 216.029 81.4703 216.025 81.4633C215.895 81.2577 215.689 81.1115 215.45 81.0568C215.212 81.0021 214.962 81.0433 214.755 81.1715L213.611 81.8815C213.561 81.9124 213.503 81.928 213.445 81.9264C213.386 81.9247 213.329 81.9058 213.281 81.8721C213.233 81.8383 213.196 81.7913 213.175 81.7368C213.154 81.6823 213.149 81.6229 213.162 81.5659C213.298 80.9601 213.654 80.4249 214.161 80.0614C214.642 79.7087 215.23 79.5308 215.827 79.5576C216.425 79.5843 216.995 79.8142 217.441 80.2086C217.79 80.5236 218.19 80.7773 218.624 80.9588L224.038 76.8018C224.082 76.7679 224.135 76.747 224.19 76.7414C224.246 76.7358 224.302 76.7457 224.352 76.7701C224.402 76.7944 224.444 76.8323 224.474 76.8792C224.503 76.9262 224.519 76.9804 224.519 77.0357V80.2307C224.519 80.2372 224.519 80.2436 224.518 80.2504C224.383 82.2916 221.217 83.7285 220.883 83.8748C220.297 84.2503 219.615 84.4505 218.918 84.4514C218.094 84.452 217.296 84.1684 216.66 83.6492Z" fill="#000091"/>
<path d="M218.498 81.5445C218.457 81.5189 218.424 81.4841 218.4 81.443C218.376 81.4018 218.363 81.3557 218.361 81.3083C218.359 81.2609 218.368 81.2138 218.388 81.1708C218.409 81.1278 218.439 81.0903 218.477 81.0613L224.035 76.8014C224.079 76.7676 224.131 76.7467 224.187 76.7411C224.242 76.7356 224.298 76.7455 224.348 76.7699C224.399 76.7943 224.441 76.8321 224.47 76.879C224.5 76.926 224.515 76.9802 224.515 77.0355V78.2484C224.513 78.7889 224.369 79.3195 224.097 79.788C223.825 80.2564 223.435 80.6466 222.965 80.9199L221.753 81.6196C221.28 81.8964 220.74 82.0425 220.19 82.0428C219.59 82.0417 219.002 81.8687 218.498 81.5445Z" fill="#F9CFD2"/>
<path d="M232.086 143.745L230.468 143.535C229.728 143.439 229.049 143.96 228.95 144.698C228.922 144.906 228.943 145.117 229.012 145.315L230.483 149.584L233.027 145.834C233.446 145.217 233.286 144.38 232.669 143.964C232.494 143.846 232.295 143.771 232.086 143.745Z" fill="#F9CFD2"/>
<path d="M224.635 147.995L224.419 149.613C224.319 150.352 224.839 151.029 225.579 151.125C225.787 151.153 226 151.131 226.199 151.062L230.488 149.576L226.735 147.049C226.116 146.633 225.275 146.798 224.856 147.417C224.738 147.59 224.663 147.788 224.635 147.995Z" fill="#F9CFD2"/>
<path d="M47.897 89.0438L48.099 87.9444C48.1911 87.4422 48.6823 87.11 49.1963 87.2021C49.341 87.228 49.4777 87.2866 49.5955 87.3732L52.1366 89.2377L49.0956 90.0994C48.5941 90.2413 48.0681 89.9585 47.9206 89.4675C47.8793 89.3298 47.8713 89.1848 47.897 89.0438Z" fill="white"/>
<path d="M48.5837 90.3933C48.4632 90.3691 48.3458 90.327 48.2347 90.2672C47.9453 90.1116 47.7346 89.8553 47.6417 89.5456C47.5881 89.367 47.5774 89.1759 47.6108 88.9931C47.6109 88.993 47.6109 88.9929 47.6109 88.9929L47.8128 87.8935C47.8709 87.5769 48.0518 87.3017 48.3221 87.1188C48.5925 86.9359 48.9199 86.8672 49.2441 86.9254C49.4329 86.9593 49.6121 87.0363 49.7649 87.1487L52.3058 89.0127C52.3932 89.0769 52.4363 89.1837 52.417 89.2886C52.3978 89.3934 52.3195 89.4784 52.2148 89.5081L49.1741 90.3697C48.9791 90.4249 48.7775 90.4323 48.5837 90.3933ZM48.1777 89.0947C48.1599 89.1922 48.1656 89.294 48.1943 89.3892C48.2439 89.5544 48.3562 89.6911 48.5106 89.7741C48.6651 89.8572 48.843 89.8766 49.0117 89.8289L51.4999 89.1239L49.4205 87.5982C49.3389 87.5382 49.2441 87.4975 49.1427 87.4791C48.9699 87.448 48.7954 87.4846 48.6512 87.5822C48.5071 87.6796 48.4107 87.8263 48.3798 87.9952L48.1777 89.0947Z" fill="#000091"/>
<path d="M52.3184 85.1036L53.4427 85.3058C53.9564 85.3999 54.2967 85.8828 54.2027 86.3846C54.1766 86.5243 54.1178 86.656 54.0311 86.7695L52.1359 89.244L51.2425 86.2672C51.0964 85.7765 51.3844 85.2646 51.8858 85.1239C52.0263 85.0845 52.1743 85.0775 52.3184 85.1036Z" fill="white"/>
<path d="M52.0756 89.5195C51.9711 89.4984 51.8865 89.4225 51.8564 89.3221L50.9629 86.3452C50.7725 85.7055 51.1489 85.0365 51.8018 84.8534C51.9839 84.8022 52.179 84.793 52.3657 84.8268L53.4902 85.029C54.16 85.1519 54.6047 85.7829 54.4824 86.4363C54.4485 86.6175 54.371 86.7911 54.2585 86.9384L52.3629 89.4131C52.2977 89.4982 52.1888 89.5398 52.0815 89.5206C52.0795 89.5203 52.0776 89.5199 52.0756 89.5195ZM53.3992 85.5842C53.3953 85.5834 53.3915 85.5827 53.3876 85.582L52.2641 85.38C52.264 85.38 52.2639 85.38 52.2638 85.3799C52.1641 85.3619 52.0601 85.3668 51.9628 85.3941C51.6145 85.4918 51.4138 85.8486 51.5153 86.1896L52.2463 88.6253L53.7972 86.6003C53.8571 86.5219 53.8984 86.4294 53.9165 86.3327C53.9809 85.9879 53.7495 85.6546 53.3992 85.5842ZM52.3148 85.1034L52.3157 85.1036L52.3148 85.1034Z" fill="#000091"/>
<path d="M265.529 106.251L266.676 105.918C267.2 105.766 267.749 106.062 267.902 106.579C267.945 106.724 267.954 106.878 267.926 107.027L267.338 110.249L265.083 107.854C264.711 107.459 264.734 106.841 265.135 106.473C265.247 106.37 265.382 106.294 265.529 106.251Z" fill="white"/>
<path d="M264.563 107.524C264.529 107.401 264.514 107.273 264.519 107.143C264.532 106.802 264.678 106.487 264.931 106.255C265.077 106.122 265.255 106.021 265.445 105.966C265.445 105.966 265.445 105.966 265.445 105.966L266.592 105.633C266.923 105.537 267.271 105.573 267.573 105.736C267.875 105.899 268.095 106.168 268.192 106.494C268.248 106.684 268.259 106.886 268.223 107.08L267.635 110.302C267.614 110.413 267.533 110.503 267.423 110.535C267.314 110.566 267.196 110.534 267.118 110.452L264.863 108.057C264.719 107.903 264.617 107.721 264.563 107.524ZM265.615 106.536C265.513 106.566 265.418 106.619 265.341 106.691C265.206 106.814 265.128 106.982 265.121 107.164C265.114 107.346 265.179 107.519 265.304 107.652L267.149 109.612L267.631 106.975C267.65 106.871 267.644 106.765 267.614 106.663C267.563 106.489 267.446 106.345 267.285 106.258C267.124 106.171 266.938 106.152 266.762 106.203L265.615 106.536Z" fill="#000091"/>
<path d="M271.398 108.452L271.734 109.586C271.886 110.105 271.584 110.647 271.058 110.798C270.912 110.84 270.758 110.848 270.609 110.822L267.344 110.243L269.776 108.01C270.178 107.642 270.804 107.666 271.175 108.062C271.279 108.174 271.356 108.307 271.398 108.452Z" fill="white"/>
<path d="M267.054 110.321C267.025 110.215 267.058 110.101 267.14 110.025L269.572 107.792C270.096 107.314 270.914 107.345 271.397 107.861C271.532 108.004 271.633 108.18 271.688 108.369L272.024 109.502C272.222 110.179 271.827 110.888 271.143 111.084C270.953 111.138 270.75 111.149 270.556 111.115L267.291 110.536C267.179 110.516 267.088 110.435 267.056 110.327C267.055 110.325 267.054 110.323 267.054 110.321ZM271.449 109.681C271.448 109.677 271.447 109.673 271.446 109.669L271.11 108.536C271.11 108.536 271.11 108.536 271.11 108.536C271.08 108.436 271.027 108.342 270.955 108.265C270.697 107.99 270.26 107.973 269.981 108.228L267.991 110.056L270.663 110.529C270.766 110.547 270.874 110.542 270.975 110.513C271.336 110.409 271.547 110.038 271.449 109.681ZM271.399 108.452L271.399 108.453L271.399 108.452Z" fill="#000091"/>
</g>
<defs>
<clipPath id="clip0_2051_142231">
<rect width="258.698" height="171.558" fill="white" transform="translate(21 42.5688)"/>
</clipPath>
</defs>
</svg>
